<?xml version="1.0" encoding="UTF-8" standalone="no"?><!DOCTYPE svg PUBLIC "-//W3C//DTD SVG 1.1//EN" "http://www.w3.org/Graphics/SVG/1.1/DTD/svg11.dtd"><svg width="100%" height="100%" viewBox="0 0 283 89" version="1.1" xmlns="http://www.w3.org/2000/svg" xmlns:xlink="http://www.w3.org/1999/xlink" xml:space="preserve" xmlns:serif="http://www.serif.com/" style="fill-rule:evenodd;clip-rule:evenodd;stroke-linejoin:round;stroke-miterlimit:2;"><path d="M66.525,54.404l7.718,0c4.479,0 6.479,0.335 8.195,1.478c2.097,1.335 3.24,3.62 3.24,6.576c0,4.001 -2.383,6.859 -6.621,8.001c4.954,0.62 7.814,3.622 7.814,8.242c0,3.573 -1.765,6.623 -4.766,8.101c-1.907,0.95 -3.715,1.237 -8.099,1.237l-7.481,0.001l0,-33.636Zm7.529,14.816c4.717,0.001 7.098,-2.097 7.098,-6.288c0,-4.238 -2.049,-5.86 -7.385,-5.86l-3.047,0l0,12.149l3.334,0Zm0,16.151c3.287,0 4.765,-0.332 6.143,-1.43c1.335,-1.096 2.145,-3.048 2.145,-5.381c0.001,-4.624 -2.287,-6.625 -7.716,-6.625l-3.907,0l0,13.436l3.335,0Z" style="fill:#004a93;fill-rule:nonzero;"/><path d="M111.546,87.134c-4.142,0.955 -6.525,1.335 -8.24,1.335c-7.194,0 -11.103,-4.146 -11.103,-11.814c0,-8.291 4.099,-13.245 10.863,-13.245c4.716,0 7.812,2.239 8.957,6.574c0.43,1.477 0.571,2.907 0.62,5.957l-16.054,0c0.045,0.14 0.045,0.284 0.045,0.332l0,0.857c0.097,5.716 2.764,8.242 8.721,8.242c1.616,0 3.381,-0.143 6.191,-0.522l0,2.284Zm-3.381,-13.622c0,-5.434 -1.572,-7.579 -5.479,-7.579c-3.908,0 -6.052,2.668 -6.097,7.579l11.576,0Z" style="fill:#004a93;fill-rule:nonzero;"/><path d="M123.314,63.838l0,1.811c3.475,-1.527 5.24,-2.146 6.191,-2.146c1.003,0 1.813,0.193 2.575,0.619l0,3.86c-1.286,-0.666 -2.906,-1 -4.86,-1c-1.096,0 -2.571,0.192 -3.809,0.476l0,20.582l-4.05,0l0,-24.201l3.953,0Z" style="fill:#004a93;fill-rule:nonzero;"/><path d="M137.028,51.164l4.053,0l0,36.876l-4.053,0l0,-36.876Zm4.574,23.441l10.244,-10.766l4.857,0l-10.575,10.293l10.575,13.908l-5.286,0l-9.815,-13.435Z" style="fill:#004a93;fill-rule:nonzero;"/><path d="M178.294,87.134c-4.149,0.955 -6.529,1.335 -8.244,1.335c-7.196,0 -11.101,-4.146 -11.101,-11.814c0,-8.291 4.095,-13.245 10.861,-13.245c4.717,0 7.816,2.239 8.956,6.574c0.43,1.477 0.572,2.907 0.62,5.957l-16.055,0c0.047,0.14 0.047,0.284 0.047,0.332l0,0.857c0.094,5.716 2.763,8.242 8.719,8.242c1.62,0 3.382,-0.143 6.196,-0.522l0,2.284l0.001,0Zm-3.386,-13.622c0,-5.434 -1.573,-7.579 -5.48,-7.579c-3.907,0 -6.05,2.668 -6.097,7.579l11.577,0Z" style="fill:#004a93;fill-rule:nonzero;"/><rect x="186.101" y="51.164" width="4.05" height="36.876" style="fill:#004a93;fill-rule:nonzero;"/><rect x="198.348" y="51.164" width="4.049" height="36.876" style="fill:#004a93;fill-rule:nonzero;"/><path d="M223.218,88.04l0,-1.477c-0.194,0.047 -0.336,0.096 -0.43,0.142c-4.907,1.668 -4.957,1.668 -6.48,1.668c-4.336,-0.001 -7.195,-2.713 -7.195,-6.81c0,-4.101 2.382,-6.435 7.051,-6.909c2.287,-0.238 3.383,-0.287 6.908,-0.287l0,-3.385c0,-3.187 -1.285,-4.43 -4.573,-4.43c-2.003,0 -4.434,0.288 -7.243,0.764l0,-2.381c4.67,-1.141 6.816,-1.525 8.672,-1.525c2.475,0 4.432,0.668 5.623,1.951c1.189,1.289 1.573,2.717 1.573,6.29l0,16.389l-3.906,0Zm-0.145,-11.434c-3.287,0.145 -3.621,0.145 -5.192,0.382c-3.002,0.382 -4.431,1.764 -4.431,4.24c0,2.714 1.763,4.096 5.191,4.096c1.428,0 2.767,-0.142 4.432,-0.524l0,-8.194Z" style="fill:#004a93;fill-rule:nonzero;"/><path d="M235.221,63.838l3.954,0l0,1.523c4.478,-1.665 5.956,-2.048 7.956,-2.048c2.333,0 4.619,0.954 5.811,2.383c1.193,1.479 1.669,3.336 1.669,6.861l0,15.483l-4.049,0l0,-14.626c0,-5.336 -1.336,-6.955 -5.671,-6.955c-1.716,0 -3.573,0.237 -5.619,0.761l0,20.82l-4.051,0l0,-24.201Z" style="fill:#004a93;fill-rule:nonzero;"/><path d="M278.242,88.04l0,-1.429c-0.189,0.048 -0.332,0.094 -0.429,0.143c-3.809,1.382 -5.241,1.762 -6.67,1.762c-6.05,0 -10.052,-4.764 -10.052,-11.91c0,-7.433 5.049,-13.054 11.721,-13.054c1.858,0 3.668,0.384 5.43,1.189l0,-13.577l4.05,0l0,36.876l-4.05,0Zm0,-21.153c-1.143,-0.286 -2.765,-0.475 -4.097,-0.475c-5.479,0 -8.625,3.572 -8.625,9.813c0,5.811 2.908,9.147 7.91,9.147c1.716,0 3.334,-0.19 4.812,-0.572l0,-17.913Z" style="fill:#004a93;fill-rule:nonzero;"/><path d="M26.341,77.759l-4.139,0.698l-4.428,-2.136l-4.687,0.692l-13.087,-5.506l11.825,-1.515l14.516,7.767Z" style="fill:#e68000;fill-rule:nonzero;"/><path d="M29.665,61.55l-4.664,1.05l-5.185,-4.844l-6.359,0.866l-8.87,-7.106l14.514,-2.93l10.564,12.964Z" style="fill:#e68000;fill-rule:nonzero;"/><path d="M24.148,41.417l6.46,-1.688l3.895,4.624l3.729,-1.342l-8.772,-14.595l-15.773,3.599l10.461,9.401Z" style="fill:#e68000;fill-rule:nonzero;"/><path d="M38.988,28.678l7.866,-2.253l3.096,5.86l4.841,-1.108l-8.675,-18.807l-15.455,4.063l8.327,12.245Z" style="fill:#e68000;fill-rule:nonzero;"/><path d="M55.883,17.978l8.875,-1.61l1.574,4.083l4.954,-0.527l-4.868,-17.512l-14.637,2.642l4.102,12.924Z" style="fill:#e68000;fill-rule:nonzero;"/><path d="M73.448,14.138l7.865,0.014l0.176,2.393l6.239,0.583l-0.629,-17.128l-14.027,0.389l0.376,13.749Z" style="fill:#e68000;fill-rule:nonzero;"/><path d="M92.919,5.092l-0.208,7.79l2.813,0.717l0.035,2.567l7.657,2.931l3.429,-15.56l-13.726,1.555Z" style="fill:#e68000;fill-rule:nonzero;"/><path d="M110.195,16.533l13.437,-0.725l-8.303,12.648l-7.549,-6.463l2.415,-5.46Z" style="fill:#e68000;fill-rule:nonzero;"/><path d="M118.906,33.473l5.12,6.502l10.899,-9.095l-12.908,-2.598l-3.111,5.191Z" style="fill:#e68000;fill-rule:nonzero;"/></svg>