<svg id="forus-icon-bw" xmlns="http://www.w3.org/2000/svg" width="140" height="30" viewBox="0 0 140 30">
  <metadata><?xpacket begin="﻿" id="W5M0MpCehiHzreSzNTczkc9d"?>
<x:xmpmeta xmlns:x="adobe:ns:meta/" x:xmptk="Adobe XMP Core 5.6-c142 79.160924, 2017/07/13-01:06:39        ">
   <rdf:RDF xmlns:rdf="http://www.w3.org/1999/02/22-rdf-syntax-ns#">
      <rdf:Description rdf:about=""/>
   </rdf:RDF>
</x:xmpmeta>
                                                                                                    
                                                                                                    
                                                                                                    
                                                                                                    
                                                                                                    
                                                                                                    
                                                                                                    
                                                                                                    
                                                                                                    
                                                                                                    
                                                                                                    
                                                                                                    
                                                                                                    
                                                                                                    
                                                                                                    
                                                                                                    
                                                                                                    
                                                                                                    
                                                                                                    
                                                                                                    
                           
<?xpacket end="w"?></metadata>
<defs>
    <style>
      .cls-1 {
        fill: #646f79;
      }

      .cls-1, .cls-2 {
        fill-rule: evenodd;
      }

      .cls-2 {
        fill: #9ca6af;
      }
    </style>
  </defs>
  <path id="Forus" class="cls-1" d="M366.858,2508.04v3.43H378.3a0.332,0.332,0,0,1,.346.32v4.29a0.34,0.34,0,0,1-.346.33H366.858v8.68h-6.191a0.34,0.34,0,0,1-.346-0.33v-21.34a0.34,0.34,0,0,1,.346-0.33h17.894a0.34,0.34,0,0,1,.346.33v4.29a0.34,0.34,0,0,1-.346.33h-11.7Zm60.191,8.97,4.434,7.59a0.331,0.331,0,0,1-.3.49h-6.039a0.344,0.344,0,0,1-.306-0.18l-3.789-7.21H418v7.06a0.338,0.338,0,0,1-.342.33h-5.28a0.338,0.338,0,0,1-.342-0.33v-21.67h11.581c5.132,0,8.044,3.23,8.044,7.32a6.7,6.7,0,0,1-4.611,6.6h0Zm-4.335-8.97h-4.386a0.314,0.314,0,0,0-.329.31v4.09a0.321,0.321,0,0,0,.329.31h4.386c1.561,0,2.878-.82,2.878-2.37,0-1.49-1.317-2.34-2.878-2.34h0Zm34.147,7.72c0,5.48-3.5,9.34-10.885,9.34-7.452,0-10.953-3.89-10.953-9.3l0.039-12.38a0.323,0.323,0,0,1,.333-0.31h5.393a0.322,0.322,0,0,1,.333.31l-0.032,12.18c0,2.6,1.629,4.48,4.887,4.48,3.189,0,4.853-1.88,4.853-4.48l0.022-12.18a0.323,0.323,0,0,1,.333-0.31h5.358a0.323,0.323,0,0,1,.334.31l-0.015,12.34h0Zm12.71-7.97c-1.759,0-2.533.64-2.533,1.54,0,2.71,13.265.73,13.265,8.64,0,4.27-3.483,7.11-9.782,7.11-4.6,0-7.844-1.25-10.185-3.18a0.309,0.309,0,0,1-.047-0.43l2.8-3.6a0.346,0.346,0,0,1,.5-0.04,11.223,11.223,0,0,0,7.221,2.56c2.076,0,3.343-.73,3.343-1.75,0-2.9-13.3-.57-13.3-8.77,0-3.57,3.343-6.76,9.36-6.76a15.434,15.434,0,0,1,9.271,2.76,0.309,0.309,0,0,1,.053.45l-2.894,3.44a0.351,0.351,0,0,1-.46.05,11.9,11.9,0,0,0-6.6-2.02h0Z" transform="translate(-350.313 -2499.09)"/>
  <path id="Symbol" class="cls-2" d="M395.437,2503.11c-7.346,0-13.3,5.67-13.3,12.66a12.331,12.331,0,0,0,3.918,8.98,0.345,0.345,0,0,0,.527-0.07,9.635,9.635,0,0,1,5.546-4.22,5.564,5.564,0,0,1-2.623-4.69,5.94,5.94,0,0,1,11.866,0,5.564,5.564,0,0,1-2.623,4.69,9.638,9.638,0,0,1,5.546,4.22,0.345,0.345,0,0,0,.527.07,12.331,12.331,0,0,0,3.918-8.98C408.738,2508.78,402.783,2503.11,395.437,2503.11Z" transform="translate(-350.313 -2499.09)"/>
</svg>
