<svg xmlns="http://www.w3.org/2000/svg" viewBox="0 0 432.81 95.84"><defs><style>.cls-1{fill:#465e9a}.cls-2{fill:#cd7b40}</style></defs><title>Logo Berkelland PMS</title><path d="M89.63,386.87v15.86c0,2.26-.58,3.51-2,4.38a8.81,8.81,0,0,1-4.55,1,21.19,21.19,0,0,1-5.22-.9V405.6a21.56,21.56,0,0,0,4.9.64c3.42,0,4.44-.87,4.44-3.83V400.7l-.32.11a11.23,11.23,0,0,1-4,1.08c-3.69,0-6.12-2.9-6.12-7.25,0-4.52,3.07-7.94,7.1-7.94a8.29,8.29,0,0,1,3.39.75v-.58Zm-2.46,1.86a11,11,0,0,0-2.5-.3c-3.3,0-5.22,2.18-5.22,6,0,3.54,1.74,5.56,4.82,5.56a11.65,11.65,0,0,0,2.9-.34Z" class="cls-1" transform="translate(-76.76 -312.31)"/><path d="M106.33,401.05a24.25,24.25,0,0,1-5,.81c-4.38,0-6.76-2.52-6.76-7.19,0-5,2.49-8.06,6.61-8.06,2.87,0,4.75,1.36,5.45,4a13,13,0,0,1,.38,3.62H97.23a1,1,0,0,1,0,.21V395c.06,3.48,1.69,5,5.31,5a27.46,27.46,0,0,0,3.77-.31Zm-2.06-8.3c0-3.3-1-4.6-3.33-4.6s-3.69,1.62-3.71,4.6Z" class="cls-1" transform="translate(-76.76 -312.31)"/><path d="M112,386.87h2.41v.93c2.9-1,3.85-1.25,5-1.25a4.56,4.56,0,0,1,3.42,1.34l.4-.12a37.7,37.7,0,0,1,4.21-1.19,6.43,6.43,0,0,1,.92-.06c3.45,0,4.82,1.6,4.82,5.63v9.45h-2.47v-9c0-3.19-.81-4.17-3.45-4.17a15,15,0,0,0-3.79.55,5.19,5.19,0,0,1,.37,2.2V401.6h-2.46V392c0-2.64-.84-3.53-3.36-3.53a14.84,14.84,0,0,0-3.51.43V401.6H112Z" class="cls-1" transform="translate(-76.76 -312.31)"/><path d="M149.73,401.05a24.22,24.22,0,0,1-5,.81c-4.37,0-6.75-2.52-6.75-7.19,0-5,2.49-8.06,6.61-8.06,2.87,0,4.75,1.36,5.45,4a13,13,0,0,1,.38,3.62h-9.77a.68.68,0,0,1,0,.21V395c.05,3.48,1.68,5,5.3,5a27.46,27.46,0,0,0,3.77-.31Zm-2.06-8.3c0-3.3-1-4.6-3.34-4.6s-3.67,1.62-3.7,4.6Z" class="cls-1" transform="translate(-76.76 -312.31)"/><path d="M166.2,401.05a24.41,24.41,0,0,1-5,.81c-4.38,0-6.75-2.52-6.75-7.19,0-5,2.49-8.06,6.6-8.06,2.88,0,4.76,1.36,5.46,4a13.14,13.14,0,0,1,.37,3.62h-9.77a.68.68,0,0,1,0,.21V395c.06,3.48,1.68,5,5.31,5a27.69,27.69,0,0,0,3.77-.31Zm-2.06-8.3c0-3.3-1-4.6-3.34-4.6s-3.68,1.62-3.71,4.6Z" class="cls-1" transform="translate(-76.76 -312.31)"/><path d="M171.82,386.87h2.4v.93c2.73-1,3.63-1.25,4.85-1.25A4.72,4.72,0,0,1,182.6,388c.73.9,1,2,1,4.18v9.42h-2.46v-8.9c0-3.25-.82-4.23-3.46-4.23a13.74,13.74,0,0,0-3.42.46V401.6h-2.46Z" class="cls-1" transform="translate(-76.76 -312.31)"/><path d="M187.71,386.87h2.2v-3.68l2.46-1v4.67h4.84v1.56h-4.84v9c0,1.83.58,2.41,2.38,2.41a18.54,18.54,0,0,0,2.46-.2v1.47a14.78,14.78,0,0,1-3.68.67c-2.55,0-3.62-1.13-3.62-3.77v-9.57h-2.2Z" class="cls-1" transform="translate(-76.76 -312.31)"/><path d="M212,401.05a24.22,24.22,0,0,1-5,.81c-4.37,0-6.75-2.52-6.75-7.19,0-5,2.49-8.06,6.61-8.06,2.87,0,4.75,1.36,5.45,4a13,13,0,0,1,.38,3.62h-9.78a.68.68,0,0,1,0,.21V395c.06,3.48,1.69,5,5.31,5a27.57,27.57,0,0,0,3.77-.31Zm-2.06-8.3c0-3.3-1-4.6-3.33-4.6s-3.69,1.62-3.72,4.6Z" class="cls-1" transform="translate(-76.76 -312.31)"/><path d="M290.74,367.49h7.83c4.54,0,6.57.33,8.31,1.49a7.5,7.5,0,0,1,3.28,6.67c0,4.06-2.41,7-6.71,8.12,5,.63,7.92,3.67,7.92,8.36a8.87,8.87,0,0,1-4.83,8.21c-1.94,1-3.77,1.26-8.21,1.26h-7.59Zm7.63,15c4.79,0,7.2-2.12,7.2-6.38s-2.08-5.94-7.49-5.94H295v12.32Zm0,16.38c3.34,0,4.84-.34,6.23-1.45a6.94,6.94,0,0,0,2.18-5.46c0-4.68-2.32-6.71-7.83-6.71h-4v13.62Z" class="cls-1" transform="translate(-76.76 -312.31)"/><path d="M336.4,400.68A40.18,40.18,0,0,1,328,402c-7.29,0-11.26-4.2-11.26-12,0-8.41,4.16-13.43,11-13.43,4.78,0,7.92,2.27,9.08,6.67a21.44,21.44,0,0,1,.63,6H321.23a1.26,1.26,0,0,1,0,.33v.87c.1,5.8,2.81,8.36,8.85,8.36a45.21,45.21,0,0,0,6.28-.53ZM333,386.86c0-5.51-1.59-7.68-5.56-7.68s-6.14,2.7-6.18,7.68Z" class="cls-1" transform="translate(-76.76 -312.31)"/><path d="M348.33,377.05v1.84c3.53-1.55,5.32-2.18,6.28-2.18a5.12,5.12,0,0,1,2.61.63v3.92a10.57,10.57,0,0,0-4.93-1,18.8,18.8,0,0,0-3.86.49V401.6h-4.11V377.05Z" class="cls-1" transform="translate(-76.76 -312.31)"/><path d="M362.24,364.2h4.11v37.4h-4.11ZM366.88,388l10.39-10.92h4.93l-10.73,10.44L382.2,401.6h-5.37Z" class="cls-1" transform="translate(-76.76 -312.31)"/><path d="M404.09,400.68a40.18,40.18,0,0,1-8.36,1.35c-7.29,0-11.25-4.2-11.25-12,0-8.41,4.15-13.43,11-13.43,4.78,0,7.93,2.27,9.08,6.67a21.44,21.44,0,0,1,.63,6H388.92a1,1,0,0,1,.05.33v.87c.09,5.8,2.8,8.36,8.84,8.36a45.21,45.21,0,0,0,6.28-.53Zm-3.43-13.82c0-5.51-1.59-7.68-5.56-7.68s-6.13,2.7-6.18,7.68Z" class="cls-1" transform="translate(-76.76 -312.31)"/><path d="M412,364.2h4.11v37.4H412Z" class="cls-1" transform="translate(-76.76 -312.31)"/><path d="M424.43,364.2h4.11v37.4h-4.11Z" class="cls-1" transform="translate(-76.76 -312.31)"/><path d="M449.66,401.6v-1.5a3.34,3.34,0,0,0-.44.14c-5,1.7-5,1.7-6.57,1.7-4.4,0-7.3-2.76-7.3-6.91s2.42-6.53,7.15-7a55.36,55.36,0,0,1,7-.29V384.3c0-3.23-1.3-4.49-4.64-4.49a46.05,46.05,0,0,0-7.34.77v-2.42c4.73-1.15,6.91-1.54,8.79-1.54,2.51,0,4.5.68,5.7,2s1.6,2.75,1.6,6.38V401.6Zm-.15-11.6a40.31,40.31,0,0,0-5.27.39c-3,.39-4.49,1.79-4.49,4.3,0,2.75,1.79,4.15,5.26,4.15a19.08,19.08,0,0,0,4.5-.53Z" class="cls-1" transform="translate(-76.76 -312.31)"/><path d="M461.83,377.05h4v1.55c4.54-1.69,6-2.08,8.07-2.08a7.88,7.88,0,0,1,5.89,2.42c1.21,1.5,1.7,3.38,1.7,6.95V401.6h-4.11V386.76c0-5.41-1.36-7.05-5.75-7.05a23,23,0,0,0-5.7.77V401.6h-4.11Z" class="cls-1" transform="translate(-76.76 -312.31)"/><path d="M505.46,401.6v-1.45a2.15,2.15,0,0,0-.43.14c-3.87,1.41-5.32,1.79-6.77,1.79-6.13,0-10.19-4.83-10.19-12.08,0-7.54,5.12-13.24,11.88-13.24a13.05,13.05,0,0,1,5.51,1.21V364.2h4.11v37.4Zm0-21.45a18.22,18.22,0,0,0-4.15-.49c-5.56,0-8.75,3.63-8.75,10,0,5.89,2.95,9.27,8,9.27a19.43,19.43,0,0,0,4.88-.58Z" class="cls-1" transform="translate(-76.76 -312.31)"/><polygon points="173.22 78.86 169.03 79.57 164.54 77.4 159.78 78.1 146.51 72.52 158.5 70.98 173.22 78.86" class="cls-2"/><polygon points="176.59 62.42 171.87 63.49 166.61 58.58 160.16 59.45 151.16 52.25 165.88 49.27 176.59 62.42" class="cls-2"/><polygon points="171 42 177.55 40.29 181.5 44.98 185.28 43.62 176.39 28.82 160.39 32.47 171 42" class="cls-2"/><polygon points="186.05 29.08 194.03 26.8 197.17 32.74 202.08 31.62 193.28 12.54 177.61 16.67 186.05 29.08" class="cls-2"/><polygon points="203.19 18.23 212.19 16.6 213.78 20.74 218.81 20.21 213.87 2.45 199.03 5.13 203.19 18.23" class="cls-2"/><polygon points="221 14.34 228.98 14.35 229.16 16.78 235.48 17.37 234.84 0 220.62 .39 221 14.34" class="cls-2"/><polygon points="240.75 5.16 240.54 13.06 243.39 13.79 243.43 16.39 251.19 19.37 254.67 3.59 240.75 5.16" class="cls-2"/><polygon points="258.27 16.77 271.9 16.03 263.48 28.86 255.82 22.3 258.27 16.77" class="cls-2"/><polygon points="267.11 33.95 272.3 40.54 283.35 31.32 270.26 28.68 267.11 33.95" class="cls-2"/><path d="M317.45,326.23" class="cls-2" transform="translate(-76.76 -312.31)"/></svg>