<svg xmlns="http://www.w3.org/2000/svg" width="95" height="55" fill="none" viewBox="0 0 95 55"><path fill="#003B49" fill-rule="evenodd" d="M41.5287 23.8033V23.2302C41.4833 21.3718 40.0957 20.1787 37.5014 20.1787C34.8621 20.1787 33.7468 21.1654 33.7468 23.597C33.7468 26.0743 34.8621 27.0606 37.5241 27.0606C40.1861 27.0606 41.5287 25.73 41.5287 23.8033ZM45.2378 12.2422V29.6755H41.415V27.5884C40.505 29.1712 38.844 30.0658 36.2729 30.0658C31.9267 30.0658 29.9019 28.0239 29.9019 23.597C29.9019 19.2153 31.9267 17.1969 36.2729 17.1969C38.844 17.1969 40.505 18.0227 41.415 19.5826V12.2422H45.2378Z" clip-rule="evenodd"/><path fill="#003B49" fill-rule="evenodd" d="M58.5253 23.5973C58.5253 21.1658 57.5015 20.2483 54.6798 20.2483C51.8358 20.2483 50.7888 21.1658 50.7888 23.5973C50.7888 26.1434 51.8358 27.0151 54.6798 27.0151C57.5015 27.0151 58.5253 26.1205 58.5253 23.5973ZM46.9438 23.5973C46.9438 19.2386 49.333 17.1973 54.6798 17.1973C59.9588 17.1973 62.348 19.2386 62.348 23.5973C62.348 28.0706 59.9588 30.0661 54.6798 30.0661C49.333 30.0661 46.9438 28.0706 46.9438 23.5973Z" clip-rule="evenodd"/><path fill="#003B49" fill-rule="evenodd" d="M67.4205 22.3354H74.6561C74.5879 20.6609 73.5181 19.9956 71.0613 19.9956C68.7631 19.9956 67.6933 20.5692 67.4205 22.3354ZM78.5016 24.5148H67.375C67.6251 26.579 68.7171 27.2672 71.1522 27.2672C73.3367 27.2672 74.4287 26.8546 74.6561 25.8683H78.2742C78.0236 28.6667 75.4753 30.0661 71.084 30.0661C65.8959 30.0661 63.5522 28.0013 63.5522 23.528C63.5522 19.1698 65.8959 17.1973 71.0386 17.1973C76.0897 17.1973 78.5016 18.9864 78.5016 23.5744V24.5148Z" clip-rule="evenodd"/><path fill="#003B49" fill-rule="evenodd" d="M80.5713 25.0653H90.424V22.1982H80.5713V25.0653Z" clip-rule="evenodd"/><path fill="#003B49" fill-rule="evenodd" d="M8.2086 39.7026V43.9233C8.2086 45.4144 8.82307 46.0797 10.2794 46.0797C11.0076 46.0797 11.7352 45.8729 12.4406 45.552V48.5342C11.6443 48.9927 10.6205 49.1537 9.64219 49.1537C5.95589 49.1537 4.38636 47.5708 4.38636 43.9233V39.7026H2.22461V36.6746H4.38636V33.6465H8.2086V36.6746H12.4406V39.7026H8.2086Z" clip-rule="evenodd"/><path fill="#003B49" fill-rule="evenodd" d="M17.5372 41.4233H24.7728C24.7046 39.7488 23.6348 39.0835 21.178 39.0835C18.8798 39.0835 17.81 39.6571 17.5372 41.4233ZM28.6183 43.6027H17.4917C17.7418 45.6669 18.8338 46.3551 21.2689 46.3551C23.4534 46.3551 24.5454 45.9425 24.7728 44.9562H28.3909C28.1403 47.7545 25.592 49.154 21.2007 49.154C16.0126 49.154 13.6689 47.0892 13.6689 42.6159C13.6689 38.2577 16.0126 36.2852 21.1547 36.2852C26.2064 36.2852 28.6183 38.0743 28.6183 42.6622V43.6027Z" clip-rule="evenodd"/><path fill="#003B49" fill-rule="evenodd" d="M41.4279 43.1207V42.2032C41.4051 40.46 40.1989 39.2669 37.4914 39.2669C34.8522 39.2669 33.6687 40.1161 33.6687 42.6393C33.6687 45.0709 34.8749 45.9649 37.4914 45.9649C40.1762 45.9649 41.4051 44.864 41.4279 43.1207ZM45.1369 36.6749V47.9379C45.1369 52.503 42.7705 54.1546 37.5142 54.1546C33.1684 54.1546 30.6656 53.0761 30.4604 50.0256H34.4196C34.5788 50.8514 35.4666 51.2411 37.5142 51.2411C40.1989 51.2411 41.2914 50.3236 41.2914 47.9379V46.8371C40.4496 48.2135 38.8796 48.9701 36.217 48.9701C31.8258 48.9701 29.8237 46.9288 29.8237 42.6393C29.8237 38.2348 31.8258 36.2852 36.2625 36.2852C38.9478 36.2852 40.4723 37.1339 41.2914 38.6245V36.6749H45.1369Z" clip-rule="evenodd"/><path fill="#003B49" fill-rule="evenodd" d="M58.4237 42.6852C58.4237 40.2536 57.3999 39.3362 54.5782 39.3362C51.7343 39.3362 50.6873 40.2536 50.6873 42.6852C50.6873 45.2313 51.7343 46.103 54.5782 46.103C57.3999 46.103 58.4237 45.2084 58.4237 42.6852ZM46.8423 42.6852C46.8423 38.3265 49.2314 36.2852 54.5782 36.2852C59.8573 36.2852 62.2464 38.3265 62.2464 42.6852C62.2464 47.1585 59.8573 49.154 54.5782 49.154C49.2314 49.154 46.8423 47.1585 46.8423 42.6852Z" clip-rule="evenodd"/><path fill="#003B49" fill-rule="evenodd" d="M67.3199 41.4233H74.5555C74.4873 39.7488 73.4176 39.0835 70.9607 39.0835C68.6625 39.0835 67.5928 39.6571 67.3199 41.4233ZM78.401 43.6027H67.2744C67.5245 45.6669 68.6165 46.3551 71.0517 46.3551C73.2362 46.3551 74.3282 45.9425 74.5555 44.9562H78.1736C77.923 47.7545 75.3747 49.154 70.9834 49.154C65.7953 49.154 63.4517 47.0892 63.4517 42.6159C63.4517 38.2577 65.7953 36.2852 70.9375 36.2852C75.9891 36.2852 78.401 38.0743 78.401 42.6622V43.6027Z" clip-rule="evenodd"/><path fill="#003B49" fill-rule="evenodd" d="M91.2324 42.8912V42.3181C91.1869 40.4596 89.7993 39.2666 87.205 39.2666C84.5657 39.2666 83.451 40.2533 83.451 42.6849C83.451 45.1622 84.5657 46.1485 87.2277 46.1485C89.8897 46.1485 91.2324 44.8179 91.2324 42.8912ZM94.9414 31.3301V48.7634H91.1187V46.6763C90.2086 48.2591 88.5476 49.1536 85.9765 49.1536C81.6303 49.1536 79.6055 47.1118 79.6055 42.6849C79.6055 38.3032 81.6303 36.2848 85.9765 36.2848C88.5476 36.2848 90.2086 37.1106 91.1187 38.6705V31.3301H94.9414Z" clip-rule="evenodd"/><path fill="#003B49" fill-rule="evenodd" d="M24.6147 20.4818C24.6147 24.998 20.9704 28.672 16.4907 28.672C13.8403 28.672 11.3511 27.3643 9.83212 25.1742L1.98906 13.8622C1.80816 13.6009 1.73842 13.2845 1.7935 12.9712C1.84808 12.6574 2.0209 12.3839 2.27962 12.201C2.48074 12.0593 2.7152 11.985 2.95574 11.985C3.02497 11.985 3.09419 11.9911 3.16393 12.0038C3.47369 12.0588 3.74403 12.2315 3.92544 12.4913L3.92646 12.4929L3.92747 12.4944L8.04683 18.4252C8.21965 18.6738 8.49505 18.8068 8.77449 18.8068C8.95034 18.8068 9.12771 18.7543 9.28284 18.6448C9.68406 18.3616 9.78159 17.8037 9.50063 17.3992L4.44896 10.1255C4.44845 10.1255 4.44845 10.1255 4.44845 10.125L3.32816 8.51216C2.93906 7.95178 3.04316 7.18712 3.5606 6.80759C3.81983 6.61707 4.13667 6.54065 4.45199 6.59465C4.76731 6.64814 5.0422 6.82237 5.22563 7.08625L5.22664 7.08727L5.22715 7.08778L11.436 16.0329C11.6083 16.2815 11.8837 16.4145 12.1637 16.4145C12.339 16.4145 12.5169 16.362 12.6715 16.253C13.0727 15.9698 13.1708 15.4119 12.8898 15.0074L6.68044 6.06178C6.68044 6.06127 6.68044 6.06127 6.67994 6.06076L5.61725 4.53042C5.43332 4.26603 5.36459 3.94559 5.42321 3.62822C5.48183 3.31135 5.6602 3.03727 5.92651 2.85642C6.45709 2.49625 7.20547 2.65876 7.59457 3.21863L8.61834 4.69293V4.69344L14.8348 13.6345C15.0076 13.8826 15.283 14.0156 15.5624 14.0156C15.7383 14.0156 15.9157 13.9631 16.0708 13.8531C16.472 13.5698 16.5695 13.012 16.2881 12.6075L10.0721 3.66693L10.0716 3.66642C10.0716 3.66642 10.0716 3.66642 10.0716 3.66591C9.89074 3.40508 9.821 3.08924 9.87608 2.77542C9.93066 2.46161 10.1035 2.18856 10.3622 2.00567C10.6214 1.82278 10.9352 1.75299 11.246 1.80801C11.5573 1.86354 11.8286 2.03776 12.0095 2.29808L20.3994 14.4078C20.6151 14.7191 21.0027 14.8587 21.3655 14.7568C21.7283 14.6544 21.9881 14.3319 22.0123 13.9529L22.3549 8.61659C22.357 8.58654 22.3575 8.55699 22.3565 8.52693C22.3307 7.79488 22.8214 7.16878 23.4394 7.13312C23.788 7.11886 24.0402 7.27933 24.1903 7.41841C24.4419 7.65122 24.596 7.9961 24.6147 8.36697V20.4818ZM26.3884 8.31094C26.3545 7.46171 25.9907 6.65578 25.3904 6.09999C24.827 5.57935 24.1059 5.31241 23.3474 5.34654C21.7784 5.43773 20.5469 6.86618 20.5813 8.54222L20.4049 11.2911L13.4633 1.27259C13.0106 0.62001 12.3324 0.184443 11.5542 0.0463868C10.7766 -0.0926887 9.9918 0.0835755 9.34449 0.540028C8.96651 0.806972 8.6618 1.15135 8.44654 1.54769C7.44701 0.746859 6.01898 0.63733 4.93507 1.37244C4.27108 1.82329 3.82438 2.50848 3.67834 3.30167C3.58284 3.81976 3.62326 4.34142 3.79103 4.82539C3.33574 4.89773 2.90066 5.07909 2.51661 5.3608C1.22199 6.31039 0.933955 8.18408 1.87435 9.53816L2.37159 10.2539C1.97794 10.3344 1.60098 10.4964 1.26191 10.7358C0.615099 11.1923 0.183051 11.876 0.0456039 12.6605C-0.0913376 13.4445 0.0824921 14.2362 0.535258 14.8877L8.37781 26.1992C10.2283 28.8676 13.2612 30.4611 16.4907 30.4611C21.9487 30.4611 26.3889 25.9842 26.3889 20.4818V8.34659C26.3889 8.33488 26.3889 8.32265 26.3884 8.31094Z" clip-rule="evenodd"/></svg>