<svg xmlns="http://www.w3.org/2000/svg" width="27" height="26" fill="none" viewBox="0 0 27 26"><path fill="#003B49" fill-rule="evenodd" d="M15.0873 23.6829C14.1693 23.6829 13.3079 23.6366 12.4941 23.5608V19.8339C13.3519 19.9113 14.2238 19.9513 15.0873 19.9513C18.9712 19.9513 23.0179 19.1587 25.2202 17.6545V20.4608C25.2202 21.7745 21.273 23.6829 15.0873 23.6829V23.6829ZM4.95497 20.4608V17.6545C5.43385 17.9818 5.99856 18.2766 6.63235 18.5355V22.106C5.55056 21.565 4.95497 20.9687 4.95497 20.4608V20.4608ZM10.8193 19.6313V23.3503C9.88036 23.196 9.04036 22.9955 8.30713 22.7666V19.1003C9.09531 19.3187 9.94107 19.4966 10.8193 19.6313V19.6313ZM4.99317 14.826C7.13374 15.5071 9.7961 15.8603 12.3862 15.8603C16.604 15.8603 21.0139 14.9255 23.0446 13.1592C24.3875 13.7339 25.2202 14.4492 25.2202 15.045C25.2202 16.3587 21.273 18.2671 15.0873 18.2671C8.90219 18.2671 4.95497 16.3587 4.95497 15.045C4.95497 14.9729 4.97014 14.9003 4.99317 14.826V14.826ZM2.25387 10.9539V8.14763C2.73328 8.47499 3.29799 8.76973 3.93126 9.02868V12.5992C2.84999 12.0582 2.25387 11.4618 2.25387 10.9539V10.9539ZM12.3862 2.31605C18.5719 2.31605 22.5191 4.22447 22.5191 5.53815C22.5191 6.85184 18.5719 8.76026 12.3862 8.76026C6.2011 8.76026 2.25387 6.85184 2.25387 5.53815C2.25387 4.22447 6.2011 2.31605 12.3862 2.31605V2.31605ZM9.79296 10.3276C10.6513 10.405 11.5227 10.445 12.3862 10.445C16.2701 10.445 20.3168 9.65236 22.5191 8.14763V10.9539C22.5191 12.2676 18.5719 14.176 12.3862 14.176C11.4688 14.176 10.6068 14.1297 9.79296 14.0539V10.3276ZM8.11819 10.125V13.8434C7.17979 13.6892 6.33927 13.4887 5.60603 13.2597V9.59341C6.39422 9.81236 7.23998 9.98973 8.11819 10.125V10.125ZM24.0531 11.7639C24.1442 11.5055 24.1939 11.2355 24.1939 10.9539V5.53815C24.1939 2.35131 18.1103 0.631836 12.3862 0.631836C6.66271 0.631836 0.579102 2.35131 0.579102 5.53815V10.9539C0.579102 12.3197 1.69806 13.415 3.42569 14.2218C3.32939 14.4913 3.27967 14.7666 3.27967 15.045V20.4608C3.27967 23.6476 9.36328 25.3671 15.0873 25.3671C20.8114 25.3671 26.895 23.6476 26.895 20.4608V15.045C26.895 14.1355 26.3852 12.8545 24.0531 11.7639V11.7639Z" clip-rule="evenodd"/></svg>