<svg xmlns="http://www.w3.org/2000/svg" width="338" height="460" fill="none" viewBox="0 0 338 460"><g clip-path="url(#clip0_1314_20557)"><path fill="#FF5C35" fill-rule="evenodd" d="M17.0202 149.43L29.0518 155.83C34.0242 158.475 35.8803 164.59 33.1963 169.494C31.6074 172.392 28.6871 174.343 25.3651 174.723L9.91952 176.486C8.62894 176.638 7.46133 175.726 7.31218 174.454C7.15816 173.183 8.08348 172.033 9.37407 171.886L5.33795 172.352C4.05285 172.499 2.83897 171.663 2.65939 170.371C2.47919 169.079 3.40999 167.909 4.71579 167.756L2.62347 167.994C1.31706 168.141 0.139706 167.209 0.0112566 165.917C-0.117193 164.651 0.869616 163.531 2.15533 163.384L4.17095 163.151C2.88037 163.303 1.71276 162.391 1.56422 161.119C1.40959 159.848 2.33491 158.697 3.6255 158.55L20.1565 156.671L15.0508 153.519C13.812 152.916 13.2562 151.528 13.7913 150.398C14.3416 149.268 15.7807 148.843 17.0153 149.435L17.0202 149.43Z" clip-rule="evenodd"/><path fill="#FF5C35" fill-rule="evenodd" d="M21.953 162.638C21.0488 171.752 33.7264 170.947 43.9092 172.652C51.7246 173.963 83.9045 178.951 103.401 168.12C106.887 166.179 107.578 158.771 104.215 155.975C96.4606 149.541 86.3488 149.221 79.8496 150.636C73.3553 152.047 64.2548 153.673 55.8047 155.329C44.7478 157.49 22.563 156.575 21.9578 162.633" clip-rule="evenodd"/><path fill="#79242F" fill-rule="evenodd" d="M96.8486 317.003C95.4755 325.153 95.1815 331.91 95.683 337.449C95.5211 339.039 95.5463 340.772 95.8 342.652C103.522 399.697 107.514 416.708 118.311 445.619C120.369 451.116 119.619 451.254 133.355 449.943C135.148 424.32 135.544 404.463 133.547 361.492C133.248 354.999 132.109 349.455 130.411 344.791C149.249 290.257 183.445 240.945 179.665 231.449C174.766 221.718 165.746 207.746 155.137 210.419C119.746 219.33 104.717 270.313 96.8486 317.003Z" clip-rule="evenodd"/><mask id="mask0_1314_20557" style="mask-type:luminance" width="41" height="17" x="96" y="443" maskUnits="userSpaceOnUse"><path fill="#F5A800" d="M96.2363 443.599H136.922V460H96.2363V443.599Z"/></mask><g mask="url(#mask0_1314_20557)"><path fill="#F5A800" fill-rule="evenodd" d="M98.2462 452.284C95.7838 454.237 95.7221 456.092 97.3117 458.142C99.0621 460.413 103.021 460.085 109.019 459.794C117.139 459.405 119.869 459.088 132.057 458.035C136.166 457.682 137.606 456.297 136.626 452.32C135.614 448.19 134.266 443.88 133.198 443.599C127.866 447.127 123.772 446.6 117.392 444.381C116.587 446.242 117.697 447.766 112.808 448.548C103.372 450.055 100.234 450.705 98.2511 452.284" clip-rule="evenodd"/></g><path fill="#79242F" fill-rule="evenodd" d="M180.424 215.089C152.332 238.728 161.237 291.233 174.714 336.714C178.052 347.982 182.124 355.768 186.41 360.863C188.053 363.789 191.064 366.369 195.611 368.109C249.579 388.797 266.491 393.479 297.175 397.902C303.007 398.741 302.767 399.469 308.268 386.741C286.581 372.817 269.282 362.898 230.484 343.951C225.488 341.509 220.799 339.936 216.471 339.056C211.118 284.215 219.151 229.756 211.889 223.19C203.163 216.595 188.839 207.999 180.419 215.089H180.424Z" clip-rule="evenodd"/><path fill="#F5A800" fill-rule="evenodd" d="M292.722 416.477C293.258 419.538 294.842 420.477 297.368 420.086C300.162 419.66 301.746 416.087 304.322 410.782C307.809 403.594 308.826 401.092 313.66 390.082C315.29 386.372 314.768 384.469 310.856 383.413C306.797 382.311 302.419 381.413 301.67 382.2C302.216 388.478 299.828 391.758 294.893 396.199C296.128 397.778 297.97 397.549 296.346 402.138C293.202 410.99 292.287 414.01 292.722 416.472" clip-rule="evenodd"/><path fill="#fff" fill-rule="evenodd" d="M109.542 112.965C106.524 116.871 88.5737 143.974 83.7178 150.453C86.756 150.959 93.3385 151.466 96.8828 156.532C101.415 163.011 102.149 170.798 104.919 168.168C109.527 163.786 112.069 161.005 116.139 156.273C125.497 145.397 134.743 131.303 140.758 126.055C152.339 115.949 158.41 100.457 148.019 92.0989C138.1 84.1147 125.77 91.9466 109.537 112.96L109.542 112.965Z" clip-rule="evenodd"/><path fill="#FCDF51" fill-rule="evenodd" d="M219.578 217.78C222.727 240.313 217.153 259.244 217.153 259.244C216.836 259.426 110.637 259.518 113.506 248.754C118.836 228.752 118.229 227.382 120.5 209.452C123.891 182.71 120.674 178.168 120.128 168.155C119.214 151.366 116.998 144.931 115.078 133.36C112.174 115.866 115.176 99.3001 131.467 91.3066C141.841 86.216 146.68 80.2631 156.283 78.0201C176.454 73.3152 179.941 74.9748 216.724 92.3215C233.464 100.219 215.79 130.725 210.618 146.413C205.242 162.719 215.764 190.521 219.578 217.785V217.78Z" clip-rule="evenodd"/><path fill="#522B39" fill-rule="evenodd" d="M129.545 44.5163C129.852 41.2176 131.678 40.6625 133.555 37.7427C135.161 35.238 135.959 32.5146 134.822 29.5273C133.936 27.1988 127.261 23.3401 128.757 20.7414C130.124 18.3712 128.856 13.5742 126.765 15.1505C122.593 18.2938 123.329 23.0134 124.684 25.5445C126.995 29.8748 134.019 28.7959 128.736 37.1409C127.788 38.6398 126.338 39.8378 125.341 41.3318C126.812 42.2345 128.204 43.3287 129.545 44.5163Z" clip-rule="evenodd"/><path fill="#FF5C35" fill-rule="evenodd" d="M135.016 9.72401C128.005 14.485 125.957 25.1408 124.584 35.0353C123.287 44.4193 129.205 62.528 134.198 66.4054C142.373 72.7497 151.331 68.7907 154.559 76.1873C157.528 82.9864 155.591 84.1972 152.465 88.1665C149.933 91.3743 143.232 100.779 152.602 102.669C164.25 105.019 182.893 97.0189 186.909 91.5177C190.921 86.0207 189.853 84.7385 185.943 81.5259C182.034 78.3078 176.919 73.1174 182.247 62.5589C184.322 58.4414 187.052 55.9642 188.892 51.8468C192.329 44.1641 192.065 39.2138 193.153 32.5986C194.342 20.8958 184.927 9.95383 173.65 6.38313C162.175 2.75133 145.607 2.52151 135.016 9.71917" clip-rule="evenodd"/><path fill="#522B39" fill-rule="evenodd" d="M128.722 9.87464C124.863 14.0321 127.366 17.5835 125.989 18.5908C125.861 19.7409 126.306 20.5656 127.663 20.7536C127.529 21.2114 127.376 21.6494 127.263 22.1223C127.791 21.5217 135.024 20.4939 140.179 20.5451C145.831 20.6011 160.211 24.7839 162.289 27.6636C165.258 31.7753 165.468 42.3439 167.265 46.2056C168.617 49.1112 164.987 50.0528 164.035 56.2043C167.598 51.8842 172.748 43.2542 176.751 44.6537C179.464 45.6562 182.244 48.7346 178.015 54.0265C176.306 55.7109 173.869 56.9574 171.975 59.9648C170.204 62.9824 177.171 68.9304 181.476 67.8062C186.094 66.6049 189.923 64.2494 190.885 58.5756C192.841 55.6652 196.517 56.1839 195.974 50.2106C195.718 47.3761 198.339 46.0839 198.882 42.8626C199.65 38.2883 200.505 32.5078 196.276 23.1657C190.665 10.7801 184.271 7.01484 176.536 3.54476C170.818 0.97474 166.815 0.934376 160.559 0.272893C155.297 -0.281958 149.998 0.084328 144.162 0.695206C142.258 0.893409 139.708 1.779 137.937 3.14293C136.708 4.04359 135.781 5.3051 134.266 6.25154C133.663 6.62807 132.961 6.89796 132.305 7.16786C130.739 7.91067 129.587 9.01495 128.727 9.87946L128.722 9.87464Z" clip-rule="evenodd"/><path fill="#FF5C35" fill-rule="evenodd" d="M129.001 48.774C129.525 51.4487 127.922 51.5999 124.003 51.5341C119.64 51.4637 123.878 46.9525 124.527 44.8836C125.617 41.4167 126.722 38.2683 126.722 38.2683" clip-rule="evenodd"/><path fill="#522B39" fill-rule="evenodd" d="M129.054 14.2335C124.211 15.1676 125.138 23.5929 131.342 22.3174C139.519 20.6383 140.055 30.7735 146.146 31.8405C147.63 32.1004 149.782 31.7076 150.969 32.6417C152.387 33.7589 152.799 36.6526 153.778 38.0356C155.44 40.3885 156.908 41.9963 159.946 42.0471C162.98 42.093 165.809 45.1497 164.509 50.2282C164.198 51.427 162.653 52.7285 162.271 54.1575C161.455 57.2245 163.086 61.1133 164.152 63.6553C165.11 65.9362 164.703 64.5688 164.203 62.1598C163.194 57.2656 163.025 55.459 167.399 50.9678C167.97 50.3757 171.029 44.7824 171.141 43.9407C171.401 41.9552 169.123 44.8948 166.787 43.0833C166.125 42.5679 165.967 40.1945 165.768 39.6078C166.416 39.1226 166.864 38.4592 167.154 37.7299C167.486 38.0665 167.823 38.49 168.164 39.067C170.692 43.3335 177.213 39.2707 174.689 35.0145C173.95 33.7644 173.078 32.672 172.125 31.6973C173.527 29.7481 173.15 27.8291 172.176 25.6654C171.157 23.4092 167.629 24.9252 168.648 27.1862C168.944 27.8339 168.663 28.4871 168.098 29.1252C167.496 28.9264 166.91 28.7016 166.227 28.6152C165.62 28.5282 165.018 28.5234 164.417 28.5638C164.29 28.2781 164.126 27.9463 163.867 27.5022C163.509 25.8388 162.246 23.1186 161.17 21.8376C158.499 18.6582 156.974 20.3676 153.793 20.3168C152.937 21.4395 152.575 21.3222 152.708 19.97C152.085 19.0715 151.428 18.199 150.735 17.3567C149.557 15.9586 148.364 14.9936 146.875 13.9525C144.755 12.4728 142.766 13.6263 141.91 15.4583C140.998 15.2081 139.999 15.0093 138.954 14.8202C138.775 14.7797 138.658 14.6824 138.459 14.6625C138.133 14.6263 137.806 14.5906 137.48 14.5604C136.96 14.5042 136.497 14.5803 136.053 14.6879C133.897 13.9628 131.694 13.7229 129.054 14.2335Z" clip-rule="evenodd"/><path fill="#522B39" fill-rule="evenodd" d="M190.055 58.7961C190.081 59.039 190.076 59.2763 190.132 59.5143C189.865 60.8216 190.266 62.2164 191.237 63.2503C193.015 65.1412 196.622 65.849 199.094 65.5284C199.181 65.5186 199.268 65.4819 199.356 65.4666C199.875 65.5186 200.394 65.5443 200.908 65.4562C202.234 65.2238 203.354 64.5209 204.001 63.4723C204.726 62.9401 205.404 62.3461 205.938 61.6481C207.778 59.2506 207.644 56.7553 206.463 54.6576C205.887 51.3762 203.415 48.4777 199.875 47.8268C197.306 47.3514 194.125 47.754 192.044 49.3818C189.906 51.0507 189.084 54.0324 189.413 56.6623C189.505 57.3958 189.742 58.1091 190.055 58.7912V58.7961Z" clip-rule="evenodd"/><path fill="#003B4A" fill-rule="evenodd" d="M137.704 39.4395C137.704 40.5179 136.828 41.3922 135.748 41.3922C134.668 41.3922 133.792 40.5179 133.792 39.4395C133.792 38.3611 134.668 37.4873 135.748 37.4873C136.828 37.4873 137.704 38.3611 137.704 39.4395Z" clip-rule="evenodd"/><path fill="#fff" fill-rule="evenodd" d="M130.662 58.1874C131.652 61.2049 135.549 63.1006 139.269 56.231L130.662 58.1874Z" clip-rule="evenodd"/><path fill="#fff" fill-rule="evenodd" d="M200.65 99.9614C195.809 112.372 207.079 122.734 222.175 125.701C230.012 127.238 245.074 134.821 258.624 139.563C264.519 141.62 268.114 142.763 274.298 144.254C280.478 145.74 289.156 139.75 288.69 132.971C288.224 126.192 285.968 123.74 279.408 118.994C272.843 114.252 250.037 104.698 245.469 102.823C220.892 92.7429 205.264 88.1171 200.646 99.9614H200.65Z" clip-rule="evenodd"/><path fill="#FF9E18" fill-rule="evenodd" d="M276.663 227.083C266.464 228.606 257.553 231.986 251.498 236.183C251.503 236.27 251.503 236.356 251.503 236.442L251.493 236.189C251.275 228.702 256.676 222.063 264.263 220.931L312.382 213.754C320.573 212.532 328.195 218.186 329.417 226.377C329.925 229.763 329.113 232.976 327.719 235.833C325.715 239.944 322.414 248.116 317.611 248.832L316.611 248.979L315.075 238.655C312.61 222.093 296.483 224.124 276.663 227.083ZM262.204 213.648C249.109 215.602 240.077 227.809 242.029 240.914L243.287 249.365L245.265 262.637L250.945 300.775C252.471 311.028 269.826 316.935 289.707 313.972C309.583 311.002 324.462 300.287 322.936 290.035L320.603 274.356C320.603 274.356 333.074 246.858 336.188 239.325C337.79 235.442 338.399 231.092 337.735 226.636C335.782 213.531 323.585 204.492 310.49 206.445L262.209 213.648H262.204Z" clip-rule="evenodd"/><path fill="#FF9E18" fill-rule="evenodd" d="M242.395 245.267C242.395 245.267 245.926 250.319 248.072 264.684C250.217 279.053 250.783 295.548 250.09 296.774L187.777 244.878L193.646 238.2L222.268 258.35C224.787 259.838 228.152 260.717 231.274 260.252C238.494 259.177 243.478 252.469 242.399 245.267H242.395Z" clip-rule="evenodd"/><path fill="#79242F" fill-rule="evenodd" d="M281.887 237.562C273.035 238.865 265.585 238.11 265.248 235.874C264.911 233.639 271.812 230.77 280.664 229.467C289.516 228.164 296.965 228.92 297.303 231.155C297.64 233.39 290.739 236.259 281.887 237.562Z" clip-rule="evenodd"/><path fill="#003B4A" fill-rule="evenodd" d="M168.356 221.438C160.51 222.631 154.504 226.007 154.939 228.987C155.116 230.189 156.314 231.14 158.195 231.772H158.205C158.407 231.839 158.614 231.901 158.832 231.962L178.447 237.892L187.097 245.229C187.097 245.229 189.817 245.173 191.859 242.933C193.902 240.692 193.158 238.879 192.957 238.431L183.351 231.546V225.277C183.376 225.076 183.381 224.876 183.351 224.676C182.916 221.695 176.203 220.246 168.356 221.434V221.438Z" clip-rule="evenodd"/><path fill="#FF5C35" fill-rule="evenodd" d="M267.417 212.485L272.618 204.656C273.584 199.677 281.562 195.803 286.431 198.444C289.313 200.006 291.255 202.886 291.632 206.162L293.387 218.808C293.533 220.08 292.633 221.231 291.37 221.383C290.108 221.53 288.966 220.623 288.815 219.35L289.268 220.744C289.419 222.012 288.559 223.219 287.306 223.391C286.028 223.564 284.862 222.651 284.71 221.363L284.65 222.332C284.801 223.619 283.875 224.786 282.593 224.912C281.33 225.039 280.219 224.065 280.073 222.798L280.143 221.905C280.289 223.178 279.389 224.329 278.126 224.481C276.864 224.629 275.722 223.721 275.571 222.448L273.831 211.612L270.858 215.39C269.973 216.419 268.499 216.597 267.548 215.801C266.603 214.989 266.547 213.504 267.422 212.48L267.417 212.485Z" clip-rule="evenodd"/><path fill="#FF5C35" fill-rule="evenodd" d="M280.107 207.625C289.611 208.894 289.138 196.61 290.375 185.627C291.261 177.723 296.916 145.511 285.961 125.91C284.001 122.402 275.719 124.814 272.553 127.888C264.779 135.435 266.668 142.956 268.088 149.484C269.503 156.005 270.664 165.546 271.59 174.143C272.919 186.468 273.637 209.624 280.102 207.62" clip-rule="evenodd"/><path fill="#F5A800" fill-rule="evenodd" d="M273.375 217.463L263.721 218.676L262.889 214.025L273.842 212.428L273.375 217.463Z" clip-rule="evenodd"/></g><defs><clipPath id="clip0_1314_20557"><rect width="338" height="460" fill="#fff"/></clipPath></defs></svg>