<svg xmlns="http://www.w3.org/2000/svg" xml:space="preserve" width="150" height="150" shape-rendering="geometricPrecision" text-rendering="geometricPrecision" image-rendering="optimizeQuality" fill-rule="evenodd" clip-rule="evenodd"><path d="M-250.001-83.167c5.983 0 10.833-4.85 10.833-10.833h-10.833v10.833zm100 0c5.983 0 10.833-4.85 10.833-10.833h-21.666c0 5.983 4.85 10.833 10.833 10.833zM-110.835-94h10.834v10.833c-5.983 0-10.834-4.85-10.834-10.833zm10.834 39.166v21.667c-5.983 0-10.834-4.85-10.834-10.833 0-5.983 4.851-10.834 10.834-10.834zm-50 0c5.983 0 10.833 4.851 10.833 10.834s-4.85 10.833-10.833 10.833c-5.983 0-10.833-4.85-10.833-10.833 0-5.983 4.85-10.834 10.833-10.834zm25-9.069a5.097 5.097 0 1 0 0-10.194 5.097 5.097 0 0 0 0 10.194zm25 59.07v21.666c-5.983 0-10.834-4.85-10.834-10.833 0-5.983 4.851-10.833 10.834-10.833zm-50 0c5.983 0 10.833 4.85 10.833 10.833 0 5.983-4.85 10.833-10.833 10.833-5.983 0-10.833-4.85-10.833-10.833 0-5.983 4.85-10.833 10.833-10.833zm25-9.07a5.097 5.097 0 1 0 0-10.194 5.097 5.097 0 0 0 0 10.194zm-75-69.264c5.983 0 10.833-4.85 10.833-10.833h-21.667c0 5.983 4.851 10.833 10.834 10.833zm0 28.333c5.983 0 10.833 4.851 10.833 10.834s-4.85 10.833-10.833 10.833c-5.983 0-10.834-4.85-10.834-10.833 0-5.983 4.851-10.834 10.834-10.834zm24.999-9.069A5.097 5.097 0 1 0-175-74.097a5.097 5.097 0 0 0-.002 10.194zm-24.999 59.07c5.983 0 10.833 4.85 10.833 10.833 0 5.983-4.85 10.833-10.833 10.833-5.983 0-10.834-4.85-10.834-10.833 0-5.983 4.851-10.833 10.834-10.833zm24.999-9.07A5.097 5.097 0 1 0-175-24.097a5.097 5.097 0 0 0-.002 10.194zm-74.999-19.264c5.983 0 10.833-4.85 10.833-10.833 0-5.983-4.85-10.834-10.833-10.834v21.667zm24.999-30.736a5.098 5.098 0 1 0 0-10.196 5.098 5.098 0 0 0 0 10.196zm-24.999 80.736c5.983 0 10.833-4.85 10.833-10.833 0-5.983-4.85-10.833-10.833-10.833v21.666zm24.999-30.736a5.098 5.098 0 1 0 0-10.196 5.098 5.098 0 0 0 0 10.196zm125.001 59.07V56h-10.834c0-5.983 4.851-10.833 10.834-10.833zM-139.168 56h-21.666c0-5.983 4.85-10.833 10.833-10.833 5.983 0 10.833 4.85 10.833 10.833zm14.167-19.903a5.097 5.097 0 1 0 0-10.194 5.097 5.097 0 0 0 0 10.194zM-189.168 56h-21.667c0-5.983 4.851-10.833 10.834-10.833s10.833 4.85 10.833 10.833zm14.166-19.903A5.097 5.097 0 1 0-175 25.903a5.097 5.097 0 0 0-.002 10.194zM-239.168 56h-10.833V45.167c5.983 0 10.833 4.85 10.833 10.833zm14.166-19.903a5.098 5.098 0 1 0 0-10.196 5.098 5.098 0 0 0 0 10.196zM-245.501 133.371a4.9 4.9 0 1 0 0-9.8 4.9 4.9 0 0 0 0 9.8zm75 78.236a4.9 4.9 0 1 1 0 9.8 4.9 4.9 0 0 1 0-9.8zm-15.858 35.882h8.028c0-16.385-13.283-29.668-29.669-29.668h-.003c-16.385 0-29.668 13.283-29.668 29.668h8.028c0-11.952 9.689-21.64 21.64-21.64h.003c11.952 0 21.641 9.688 21.641 21.64zm23.688 0h8.028c0-11.952 9.689-21.64 21.641-21.64h.003v-8.028h-.003c-16.386 0-29.669 13.283-29.669 29.668zm13.811-75c0 11.952-9.689 21.64-21.641 21.64-11.952 0-21.641-9.688-21.641-21.64s9.689-21.64 21.641-21.64c11.952 0 21.641 9.688 21.641 21.64zm-51.309 0c0 16.385 13.283 29.668 29.668 29.668 16.385 0 29.668-13.283 29.668-29.668 0-16.385-13.283-29.668-29.668-29.668-16.385 0-29.668 13.283-29.668 29.668zm29.668-39.118a4.9 4.9 0 1 0 0-9.8 4.9 4.9 0 0 0 0 9.8zm-15.858-35.882h8.028c0 16.385-13.283 29.668-29.669 29.668h-.003c-16.385 0-29.668-13.283-29.668-29.668h8.028c0 11.952 9.689 21.64 21.64 21.64h.003c11.952 0 21.641-9.688 21.641-21.64zm23.688 0h8.028c0 11.952 9.689 21.64 21.641 21.64h.003v8.028h-.003c-16.386 0-29.669-13.283-29.669-29.668zm-82.83 114.118a4.9 4.9 0 1 1 0 9.8 4.9 4.9 0 0 1 0-9.8zm-15.858 35.882h8.027c0-16.385-13.283-29.668-29.668-29.668v8.028c11.952 0 21.641 9.688 21.641 21.64zm37.499-75c0 11.952-9.69 21.64-21.641 21.64-11.952 0-21.641-9.688-21.641-21.64s9.689-21.64 21.641-21.64c11.951 0 21.641 9.688 21.641 21.64zm-51.309 0c0 16.385 13.282 29.668 29.668 29.668 16.385 0 29.668-13.283 29.668-29.668 0-16.385-13.283-29.668-29.668-29.668-16.386 0-29.668 13.283-29.668 29.668zm13.81-75h8.027c0 16.385-13.283 29.668-29.668 29.668v-8.028c11.952 0 21.641-9.688 21.641-21.64z"/><path stroke="#000" stroke-width=".667" stroke-miterlimit="2.613" d="M539.813-111.092h18.75l-18.75 37.625v-37.625zm75 0h18.75c-24.925 50.017-49.95 99.984-74.876 150h-18.75c24.951-50.067 49.926-99.933 74.876-150zm75 0v37.625c-18.682 37.49-37.423 74.846-56.126 112.375h-18.75c24.951-50.067 49.926-99.933 74.876-150zm-150 75h.124l37.376-75h18.75c-18.744 37.612-37.526 75.051-56.25 112.625v-37.625zm56.374 75h-18.75c24.951-50.067 49.926-99.933 74.876-150h18.75c-24.925 50.016-49.95 99.984-74.876 150zm93.626-75V1.533l-18.625 37.375h-18.751l37.376-75z"/><path fill="none" stroke="#000" stroke-width=".667" stroke-miterlimit="2.613" d="M-331.188-580.267h30l-30 60.2v-60.2zm120 0v60.2l-29.801 59.801h-30l59.801-120.001zM-451.188-580.267h30l-30 60.2v-60.2zm120 0v60.2l-29.801 59.801h-30l59.801-120.001z"/><path fill="none" stroke="#000" stroke-width=".667" stroke-miterlimit="2.613" transform="matrix(1.00986 0 -.45998 .923 -271.188 -580.267)" d="M0 0h29.707v130.01H0z"/><path fill="none" stroke="#000" stroke-width=".667" stroke-miterlimit="2.613" transform="matrix(1.00986 0 -.45998 .923 -391.188 -580.267)" d="M0 0h29.707v130.01H0z"/><path fill="none" stroke="#000" stroke-width=".667" stroke-miterlimit="2.613" d="M-331.188-460.266h30l-30 60.199v-60.199zm120 0v60.199l-29.801 59.801h-30l59.801-120zM-451.188-460.266h30l-30 60.199v-60.199zm120 0v60.199l-29.801 59.801h-30l59.801-120z"/><path fill="none" stroke="#000" stroke-width=".667" stroke-miterlimit="2.613" transform="matrix(1.00986 0 -.45998 .923 -271.188 -460.266)" d="M0 0h29.707v130.01H0z"/><path fill="none" stroke="#000" stroke-width=".667" stroke-miterlimit="2.613" transform="matrix(1.00986 0 -.45998 .923 -391.188 -460.266)" d="M0 0h29.707v130.01H0z"/><path d="M.001.001h10v10h-10zM30 .001h10v10H30zM.001 30h10v10h-10zM30 30h10v10H30zM60 .001h10v10H60zM90 .001h10v10H90zM60 30h10v10H60zM90 30h10v10H90zM120 .001h10v10h-10zM120 30h10v10h-10zM.001 60h10v10h-10zM30 60h10v10H30zM.001 90h10v10h-10zM30 90h10v10H30zM60 60h10v10H60zM90 60h10v10H90zM60 90h10v10H60zM90 90h10v10H90zM120 60h10v10h-10zM120 90h10v10h-10zM.001 120h10v10h-10zM30 120h10v10H30zM60 120h10v10H60zM90 120h10v10H90zM120 120h10v10h-10z"/><path fill="none" d="M.001.001h149.998v149.998H.001z"/></svg>