<svg width="24" height="24" viewBox="0 0 24 24" fill="none" xmlns="http://www.w3.org/2000/svg">
    <g clip-path="url(#clip0_419_11779)">
        <rect width="24" height="24" fill="#F1F4F7"/>
        <g clip-path="url(#clip1_419_11779)">
            <mask id="path-2-outside-1_419_11779" maskUnits="userSpaceOnUse" x="5.75" y="5.75" width="12" height="12" fill="black">
                <rect fill="white" x="5.75" y="5.75" width="12" height="12"/>
                <path fill-rule="evenodd" clip-rule="evenodd" d="M14.4893 13.8178L17.1008 16.4293C17.1008 16.4754 17.1293 16.5215 17.1687 16.5852C17.193 16.6246 17.2215 16.6707 17.25 16.7277C17.25 17.0262 17.1008 17.25 16.8023 17.25H16.7277C16.6531 17.25 16.5039 17.1754 16.4293 17.1008L13.8178 14.4893C12.1763 15.7577 9.93792 15.7577 8.37104 14.4893C6.50571 12.9971 6.20726 10.2364 7.69952 8.37104C9.19179 6.50571 11.9525 6.20726 13.8178 7.69952C15.6831 9.19179 15.9816 11.9525 14.4893 13.8178ZM11.1301 14.4148C12.9954 14.4148 14.4876 12.9225 14.4876 11.0572C14.4876 9.19185 12.9954 7.69958 11.1301 7.69958C9.26472 7.69958 7.77246 9.19185 7.77246 11.0572C7.77246 12.9225 9.26472 14.4148 11.1301 14.4148Z"/>
            </mask>
            <path fill-rule="evenodd" clip-rule="evenodd" d="M14.4893 13.8178L17.1008 16.4293C17.1008 16.4754 17.1293 16.5215 17.1687 16.5852C17.193 16.6246 17.2215 16.6707 17.25 16.7277C17.25 17.0262 17.1008 17.25 16.8023 17.25H16.7277C16.6531 17.25 16.5039 17.1754 16.4293 17.1008L13.8178 14.4893C12.1763 15.7577 9.93792 15.7577 8.37104 14.4893C6.50571 12.9971 6.20726 10.2364 7.69952 8.37104C9.19179 6.50571 11.9525 6.20726 13.8178 7.69952C15.6831 9.19179 15.9816 11.9525 14.4893 13.8178ZM11.1301 14.4148C12.9954 14.4148 14.4876 12.9225 14.4876 11.0572C14.4876 9.19185 12.9954 7.69958 11.1301 7.69958C9.26472 7.69958 7.77246 9.19185 7.77246 11.0572C7.77246 12.9225 9.26472 14.4148 11.1301 14.4148Z" fill="#9CA6AF"/>
            <path fill-rule="evenodd" clip-rule="evenodd" d="M14.4893 13.8178L17.1008 16.4293C17.1008 16.4754 17.1293 16.5215 17.1687 16.5852C17.193 16.6246 17.2215 16.6707 17.25 16.7277C17.25 17.0262 17.1008 17.25 16.8023 17.25H16.7277C16.6531 17.25 16.5039 17.1754 16.4293 17.1008L13.8178 14.4893C12.1763 15.7577 9.93792 15.7577 8.37104 14.4893C6.50571 12.9971 6.20726 10.2364 7.69952 8.37104C9.19179 6.50571 11.9525 6.20726 13.8178 7.69952C15.6831 9.19179 15.9816 11.9525 14.4893 13.8178ZM11.1301 14.4148C12.9954 14.4148 14.4876 12.9225 14.4876 11.0572C14.4876 9.19185 12.9954 7.69958 11.1301 7.69958C9.26472 7.69958 7.77246 9.19185 7.77246 11.0572C7.77246 12.9225 9.26472 14.4148 11.1301 14.4148Z" fill="black" fill-opacity="0.2"/>
            <path d="M17.1008 16.4293H17.2008C17.2008 16.4027 17.1902 16.3773 17.1715 16.3585L17.1008 16.4293ZM14.4893 13.8178L14.4112 13.7553C14.3794 13.7951 14.3826 13.8525 14.4186 13.8885L14.4893 13.8178ZM17.1687 16.5852L17.2537 16.5326V16.5326L17.1687 16.5852ZM17.25 16.7277H17.35C17.35 16.7122 17.3464 16.6969 17.3394 16.683L17.25 16.7277ZM16.4293 17.1008L16.5 17.0301V17.0301L16.4293 17.1008ZM13.8178 14.4893L13.8885 14.4186C13.8529 14.383 13.7965 14.3794 13.7567 14.4102L13.8178 14.4893ZM8.37104 14.4893L8.43396 14.4116L8.43351 14.4112L8.37104 14.4893ZM7.69952 8.37104L7.77761 8.43351L7.69952 8.37104ZM13.8178 7.69952L13.7553 7.77761L13.8178 7.69952ZM17.1715 16.3585L14.56 13.7471L14.4186 13.8885L17.0301 16.5L17.1715 16.3585ZM17.2537 16.5326C17.2331 16.4993 17.2194 16.4769 17.2102 16.4576C17.2014 16.4391 17.2008 16.4314 17.2008 16.4293H17.0008C17.0008 16.4732 17.0144 16.5117 17.0297 16.5437C17.0446 16.5749 17.0648 16.6074 17.0836 16.6378L17.2537 16.5326ZM17.3394 16.683C17.3087 16.6215 17.2781 16.572 17.2537 16.5326L17.0836 16.6378C17.1079 16.6772 17.1343 16.7199 17.1606 16.7724L17.3394 16.683ZM16.8023 17.35C16.9792 17.35 17.1209 17.2823 17.2162 17.1632C17.309 17.0472 17.35 16.8922 17.35 16.7277H17.15C17.15 16.8617 17.1164 16.9678 17.06 17.0383C17.006 17.1058 16.9239 17.15 16.8023 17.15V17.35ZM16.7277 17.35H16.8023V17.15H16.7277V17.35ZM16.3585 17.1715C16.4057 17.2187 16.4716 17.2617 16.5338 17.2928C16.5928 17.3223 16.6661 17.35 16.7277 17.35V17.15C16.7147 17.15 16.6761 17.1404 16.6232 17.1139C16.5734 17.089 16.5274 17.0575 16.5 17.0301L16.3585 17.1715ZM13.7471 14.56L16.3585 17.1715L16.5 17.0301L13.8885 14.4186L13.7471 14.56ZM8.30812 14.567C9.91251 15.8658 12.2023 15.864 13.8789 14.5684L13.7567 14.4102C12.1503 15.6514 9.96332 15.6496 8.43396 14.4116L8.30812 14.567ZM7.62144 8.30857C6.09489 10.2168 6.39985 13.0404 8.30857 14.5674L8.43351 14.4112C6.61158 12.9537 6.31963 10.256 7.77761 8.43351L7.62144 8.30857ZM13.8803 7.62144C11.9721 6.09489 9.14842 6.39985 7.62144 8.30857L7.77761 8.43351C9.23515 6.61158 11.9329 6.31963 13.7553 7.77761L13.8803 7.62144ZM14.5674 13.8803C16.0939 11.9721 15.789 9.14842 13.8803 7.62144L13.7553 7.77761C15.5773 9.23515 15.8692 11.9329 14.4112 13.7553L14.5674 13.8803ZM14.3876 11.0572C14.3876 12.8673 12.9401 14.3148 11.1301 14.3148V14.5148C13.0506 14.5148 14.5876 12.9777 14.5876 11.0572H14.3876ZM11.1301 7.79958C12.9401 7.79958 14.3876 9.24708 14.3876 11.0572H14.5876C14.5876 9.13662 13.0506 7.59958 11.1301 7.59958V7.79958ZM7.87246 11.0572C7.87246 9.24708 9.31995 7.79958 11.1301 7.79958V7.59958C9.20949 7.59958 7.67246 9.13662 7.67246 11.0572H7.87246ZM11.1301 14.3148C9.31995 14.3148 7.87246 12.8673 7.87246 11.0572H7.67246C7.67246 12.9777 9.20949 14.5148 11.1301 14.5148V14.3148Z" fill="#9CA6AF" mask="url(#path-2-outside-1_419_11779)"/>
            <path d="M17.1008 16.4293H17.2008C17.2008 16.4027 17.1902 16.3773 17.1715 16.3585L17.1008 16.4293ZM14.4893 13.8178L14.4112 13.7553C14.3794 13.7951 14.3826 13.8525 14.4186 13.8885L14.4893 13.8178ZM17.1687 16.5852L17.2537 16.5326V16.5326L17.1687 16.5852ZM17.25 16.7277H17.35C17.35 16.7122 17.3464 16.6969 17.3394 16.683L17.25 16.7277ZM16.4293 17.1008L16.5 17.0301V17.0301L16.4293 17.1008ZM13.8178 14.4893L13.8885 14.4186C13.8529 14.383 13.7965 14.3794 13.7567 14.4102L13.8178 14.4893ZM8.37104 14.4893L8.43396 14.4116L8.43351 14.4112L8.37104 14.4893ZM7.69952 8.37104L7.77761 8.43351L7.69952 8.37104ZM13.8178 7.69952L13.7553 7.77761L13.8178 7.69952ZM17.1715 16.3585L14.56 13.7471L14.4186 13.8885L17.0301 16.5L17.1715 16.3585ZM17.2537 16.5326C17.2331 16.4993 17.2194 16.4769 17.2102 16.4576C17.2014 16.4391 17.2008 16.4314 17.2008 16.4293H17.0008C17.0008 16.4732 17.0144 16.5117 17.0297 16.5437C17.0446 16.5749 17.0648 16.6074 17.0836 16.6378L17.2537 16.5326ZM17.3394 16.683C17.3087 16.6215 17.2781 16.572 17.2537 16.5326L17.0836 16.6378C17.1079 16.6772 17.1343 16.7199 17.1606 16.7724L17.3394 16.683ZM16.8023 17.35C16.9792 17.35 17.1209 17.2823 17.2162 17.1632C17.309 17.0472 17.35 16.8922 17.35 16.7277H17.15C17.15 16.8617 17.1164 16.9678 17.06 17.0383C17.006 17.1058 16.9239 17.15 16.8023 17.15V17.35ZM16.7277 17.35H16.8023V17.15H16.7277V17.35ZM16.3585 17.1715C16.4057 17.2187 16.4716 17.2617 16.5338 17.2928C16.5928 17.3223 16.6661 17.35 16.7277 17.35V17.15C16.7147 17.15 16.6761 17.1404 16.6232 17.1139C16.5734 17.089 16.5274 17.0575 16.5 17.0301L16.3585 17.1715ZM13.7471 14.56L16.3585 17.1715L16.5 17.0301L13.8885 14.4186L13.7471 14.56ZM8.30812 14.567C9.91251 15.8658 12.2023 15.864 13.8789 14.5684L13.7567 14.4102C12.1503 15.6514 9.96332 15.6496 8.43396 14.4116L8.30812 14.567ZM7.62144 8.30857C6.09489 10.2168 6.39985 13.0404 8.30857 14.5674L8.43351 14.4112C6.61158 12.9537 6.31963 10.256 7.77761 8.43351L7.62144 8.30857ZM13.8803 7.62144C11.9721 6.09489 9.14842 6.39985 7.62144 8.30857L7.77761 8.43351C9.23515 6.61158 11.9329 6.31963 13.7553 7.77761L13.8803 7.62144ZM14.5674 13.8803C16.0939 11.9721 15.789 9.14842 13.8803 7.62144L13.7553 7.77761C15.5773 9.23515 15.8692 11.9329 14.4112 13.7553L14.5674 13.8803ZM14.3876 11.0572C14.3876 12.8673 12.9401 14.3148 11.1301 14.3148V14.5148C13.0506 14.5148 14.5876 12.9777 14.5876 11.0572H14.3876ZM11.1301 7.79958C12.9401 7.79958 14.3876 9.24708 14.3876 11.0572H14.5876C14.5876 9.13662 13.0506 7.59958 11.1301 7.59958V7.79958ZM7.87246 11.0572C7.87246 9.24708 9.31995 7.79958 11.1301 7.79958V7.59958C9.20949 7.59958 7.67246 9.13662 7.67246 11.0572H7.87246ZM11.1301 14.3148C9.31995 14.3148 7.87246 12.8673 7.87246 11.0572H7.67246C7.67246 12.9777 9.20949 14.5148 11.1301 14.5148V14.3148Z" fill="black" fill-opacity="0.2" mask="url(#path-2-outside-1_419_11779)"/>
        </g>
    </g>
    <defs>
        <clipPath id="clip0_419_11779">
            <rect width="24" height="24" rx="12" fill="white"/>
        </clipPath>
        <clipPath id="clip1_419_11779">
            <rect width="12" height="12" fill="white" transform="translate(6 6)"/>
        </clipPath>
    </defs>
</svg>
