<svg width="10" height="10" viewBox="0 0 10 10" fill="none" xmlns="http://www.w3.org/2000/svg">
    <g clip-path="url(#clip0_419_11935)">
        <path d="M8.875 0.671875C9 0.609375 9.125 0.609375 9.25 0.671875C9.375 0.796875 9.375 0.921875 9.375 1.04688C9.3125 1.29688 9.25 1.48437 9.125 1.67188C9 1.85938 8.875 2.10938 8.6875 2.29688C8.25 3.04688 7.75 3.73438 7.3125 4.48438C6.375 5.98438 5.4375 7.42187 4.5625 8.92188C4.3125 9.35938 3.75 9.48438 3.3125 9.17188C3.25 9.10938 3.125 9.04688 3.0625 8.98438C2.3125 8.10938 1.625 7.23438 0.875 6.35938C0.6875 6.23438 0.625 6.04688 0.625 5.79688C0.625 5.48438 0.75 5.17188 1 4.98438C1.1875 4.85938 1.375 4.79688 1.5625 4.79688C1.8125 4.79688 2.0625 4.92188 2.25 5.10938C2.75 5.67188 3.25 6.29688 3.6875 6.85938C4.6875 5.67188 5.625 4.42188 6.625 3.23438C7.0625 2.73438 7.4375 2.23438 7.875 1.73438C8.0625 1.54688 8.1875 1.29688 8.375 1.10938C8.5 0.921875 8.6875 0.734375 8.875 0.671875Z" fill="#646F79"/>
    </g>
    <defs>
        <clipPath id="clip0_419_11935">
            <rect width="10" height="10" fill="white"/>
        </clipPath>
    </defs>
</svg>
