<svg width="14" height="14" viewBox="0 0 14 14" fill="none" xmlns="http://www.w3.org/2000/svg">
    <g clip-path="url(#clip0_419_12125)">
        <path fill-rule="evenodd" clip-rule="evenodd" d="M9.8 1.575C8.925 1.1375 8.05 0.875 7.0875 0.875H6.9125C5.95 0.875 5.075 1.1375 4.2 1.575C3.325 2.0125 2.5375 2.625 2.0125 3.5C1.3125 4.4625 0.875 5.6875 0.875 6.9125V7.0875C0.875 7.6125 0.9625 8.225 1.1375 8.6625C1.575 10.15 2.45 11.375 3.7625 12.1625C4.6375 12.775 5.775 13.125 6.9125 13.125H7.0875C10.4125 13.0375 13.0375 10.4125 13.125 7.0875V6.9125C13.125 6.125 12.95 5.425 12.6875 4.8125L12.5895 4.5682C12.0381 3.28019 11.0353 2.23382 9.8 1.575ZM6.47651 3.9375C6.56401 3.675 6.82651 3.5875 7.08901 3.5C7.35151 3.5 7.61401 3.7625 7.61401 4.1125V6.475L9.95061 6.4757C10.043 6.4785 10.169 6.4925 10.239 6.5625C10.414 6.7375 10.5015 6.9125 10.414 7.175C10.414 7.3 10.3247 7.38036 10.2099 7.44796L10.064 7.525H7.61401V9.8C7.61401 10.0625 7.52651 10.2375 7.35151 10.325C7.08901 10.5 6.82651 10.4125 6.65151 10.2375C6.62807 10.1906 6.60462 10.15 6.58286 10.1123C6.52341 10.0093 6.47651 9.92811 6.47651 9.8V7.525H4.20151C4.02651 7.525 3.85151 7.525 3.76401 7.4375C3.58901 7.2625 3.50151 7 3.58901 6.7375C3.67651 6.5625 3.93901 6.475 4.11401 6.475H6.38901V4.2875C6.38901 4.18499 6.41904 4.1125 6.44391 4.05245C6.4615 4.00999 6.47651 3.97374 6.47651 3.9375Z" fill="#646F79"/>
    </g>
    <defs>
        <clipPath id="clip0_419_12125">
            <rect width="14" height="14" fill="white"/>
        </clipPath>
    </defs>
</svg>
