<svg width="14" height="14" viewBox="0 0 14 14" fill="none" xmlns="http://www.w3.org/2000/svg">
    <path d="M10.5687 1.8265C10.4086 1.90003 10.1684 2.04708 10.0884 2.19412C9.04761 3.22346 8.00683 4.32633 6.96606 5.35567C5.84522 4.2528 4.80444 3.14994 3.68361 2.1206C3.44343 1.8265 2.96307 1.67945 2.56277 1.8265C2.00235 1.97355 1.68211 2.48822 1.76217 3.07642C1.84223 3.37051 1.92229 3.59109 2.16247 3.81166C3.28331 4.841 4.32409 5.87034 5.36486 6.89968C4.32409 7.92902 3.20325 9.03188 2.16247 10.0612C1.92229 10.3553 1.76217 10.5759 1.76217 10.87C1.76217 11.3847 2.08241 11.8258 2.56277 11.9728C2.96307 12.0464 3.36337 11.9728 3.68361 11.6788C4.80444 10.5759 5.84522 9.54655 6.96606 8.44369C8.00683 9.47303 9.04761 10.5024 10.0884 11.5317C10.1684 11.6788 10.3286 11.7523 10.4887 11.8258C10.8089 12.0464 11.2092 12.0464 11.6095 11.8258C12.0098 11.6052 12.25 11.1641 12.25 10.7229C12.25 10.4288 12.0899 10.2083 11.8497 10.0612C10.8089 8.95836 9.68809 7.92902 8.64731 6.89968C9.68809 5.87034 10.8089 4.76747 11.8497 3.73813C12.3301 3.29699 12.3301 2.48822 11.8497 2.04708C11.7696 2.04708 11.7696 1.97355 11.6896 1.97355C11.3693 1.75298 10.969 1.67945 10.5687 1.8265Z" fill="#646F79"/>
</svg>
