<svg width="10" height="10" fill="none" xmlns="http://www.w3.org/2000/svg"><g clip-path="url(#a)"><path d="M8.875.672a.398.398 0 0 1 .375 0c.125.125.125.25.125.375-.063.25-.125.437-.25.625-.125.187-.25.437-.438.625-.437.75-.937 1.437-1.374 2.187-.938 1.5-1.875 2.938-2.75 4.438-.25.437-.813.562-1.25.25-.063-.063-.188-.125-.25-.188-.75-.875-1.438-1.75-2.188-2.625-.188-.125-.25-.312-.25-.562 0-.313.125-.625.375-.813.188-.125.375-.187.563-.187.25 0 .5.125.687.312.5.563 1 1.188 1.438 1.75 1-1.187 1.937-2.437 2.937-3.625.438-.5.813-1 1.25-1.5.188-.187.313-.437.5-.625.125-.187.313-.375.5-.437Z" fill="#646F79"/></g><defs><clipPath id="a"><path fill="#fff" d="M0 0h10v10H0z"/></clipPath></defs></svg>