<svg width="14" height="14" viewBox="0 0 14 14" fill="none" xmlns="http://www.w3.org/2000/svg">
    <g clip-path="url(#clip0_419_12109)">
        <path fill-rule="evenodd" clip-rule="evenodd" d="M0.875 6.125C0.875 5.95 1.05 5.775 1.3125 5.775L2.1 5.6875C2.1875 5.25 2.3625 4.8125 2.625 4.4625L2.1 3.85C1.925 3.675 1.925 3.4125 2.1 3.2375L3.2375 2.1C3.4125 1.925 3.675 1.925 3.85 2.1L4.4625 2.625C4.8125 2.3625 5.25 2.1875 5.6875 2.1V1.3125C5.6875 1.05 5.95 0.875 6.125 0.875H7.875C8.05 0.875 8.3125 1.05 8.3125 1.3125V2.1C8.75 2.1875 9.1875 2.3625 9.5375 2.625L10.15 1.925C10.325 1.75 10.5875 1.75 10.7625 1.925L11.9875 3.15C12.1625 3.325 12.1625 3.5875 11.9875 3.7625L11.375 4.375C11.6375 4.8125 11.8125 5.25 11.9 5.6875H12.6875C12.95 5.6875 13.125 5.8625 13.125 6.125V7.875C13.125 8.05 12.95 8.3125 12.6875 8.225H11.9C11.8125 8.75 11.6375 9.1 11.375 9.5375L12.075 10.15C12.25 10.325 12.25 10.5875 12.075 10.7625L10.85 11.9875C10.675 12.1625 10.4125 12.1625 10.2375 11.9875L9.625 11.375C9.1875 11.6375 8.75 11.8125 8.3125 11.9V12.6875C8.3125 12.95 8.1375 13.125 7.875 13.125H6.125C5.95 13.125 5.6875 12.95 5.775 12.6875V11.9C5.3375 11.8125 4.9 11.6375 4.4625 11.375L3.9375 11.9C3.7625 12.075 3.5 12.075 3.325 11.9L2.1 10.675C1.925 10.5 1.925 10.2375 2.1 10.0625L2.625 9.5375C2.3625 9.1875 2.1875 8.75 2.1 8.3125H1.3125C1.05 8.3125 0.875 8.1375 0.875 7.875V6.125ZM9.62363 7.0875C9.62363 5.6 8.48613 4.375 6.99863 4.375C5.51113 4.375 4.28613 5.6 4.28613 7C4.28613 8.4875 5.42363 9.7125 6.91113 9.7125C8.39863 9.7125 9.62363 8.575 9.62363 7.0875Z" fill="#646F79"/>
    </g>
    <defs>
        <clipPath id="clip0_419_12109">
            <rect width="14" height="14" fill="white"/>
        </clipPath>
    </defs>
</svg>
