<svg id="icon-my-funds-active" xmlns="http://www.w3.org/2000/svg" width="30" height="30" viewBox="0 0 30 30">
  <metadata><?xpacket begin="﻿" id="W5M0MpCehiHzreSzNTczkc9d"?>
<x:xmpmeta xmlns:x="adobe:ns:meta/" x:xmptk="Adobe XMP Core 5.6-c142 79.160924, 2017/07/13-01:06:39        ">
   <rdf:RDF xmlns:rdf="http://www.w3.org/1999/02/22-rdf-syntax-ns#">
      <rdf:Description rdf:about=""/>
   </rdf:RDF>
</x:xmpmeta>
                                                                                                    
                                                                                                    
                                                                                                    
                                                                                                    
                                                                                                    
                                                                                                    
                                                                                                    
                                                                                                    
                                                                                                    
                                                                                                    
                                                                                                    
                                                                                                    
                                                                                                    
                                                                                                    
                                                                                                    
                                                                                                    
                                                                                                    
                                                                                                    
                                                                                                    
                                                                                                    
                           
<?xpacket end="w"?></metadata>
<defs>
    <style>
      .cls-1 {
        fill: #d91d46;
      }

      .cls-1, .cls-2 {
        fill-rule: evenodd;
      }

      .cls-2 {
        fill: #8811c0;
      }
    </style>
  </defs>
  <g id="Icon">
    <path id="Forma_1" data-name="Forma 1" class="cls-1" d="M27.313,16.929a0.586,0.586,0,1,0-.829.829,1.163,1.163,0,0,1,.343.829,1.208,1.208,0,0,1-1.211,1.172H25.59c0-.006,0-0.012,0-0.019A6.45,6.45,0,0,0,20.9,14.212a3.5,3.5,0,0,1-6.988-.2,4.09,4.09,0,0,0-2.941-1.283,0.586,0.586,0,0,0-.578.682l0.445,2.666a6.336,6.336,0,0,0-1.392,2.547A1.8,1.8,0,0,0,8,20.344v1.172a1.794,1.794,0,0,0,1.8,1.758,0.611,0.611,0,0,0,.08-0.005H9.912a6.474,6.474,0,0,0,1.643,2.047v2.1a0.586,0.586,0,0,0,.586.586h2.344a0.586,0.586,0,0,0,.586-0.586V26.73c0.2,0.018.389,0.059,0.586,0.059h2.93v0.625a0.586,0.586,0,0,0,.586.586h2.344a0.586,0.586,0,0,0,.586-0.586V26.086a6.439,6.439,0,0,0,3.476-5.157h0.04A2.38,2.38,0,0,0,28,18.586,2.327,2.327,0,0,0,27.313,16.929ZM12.141,19.758a0.586,0.586,0,1,1,.586-0.586A0.586,0.586,0,0,1,12.141,19.758Zm7.031,0H15.656a0.586,0.586,0,1,1,0-1.172h3.516A0.586,0.586,0,1,1,19.172,19.758Zm-1.758-8.2A2.344,2.344,0,1,0,19.758,13.9,2.346,2.346,0,0,0,17.414,11.555ZM22.1,8a2.344,2.344,0,1,0,2.344,2.344A2.346,2.346,0,0,0,22.1,8Z" transform="translate(-3 -3)"/>
    <path id="Forma_1_copy_2" data-name="Forma 1 copy 2" class="cls-2" d="M17.414,11.555A2.344,2.344,0,1,0,19.758,13.9,2.346,2.346,0,0,0,17.414,11.555ZM22.1,8a2.344,2.344,0,1,0,2.344,2.344A2.346,2.346,0,0,0,22.1,8Z" transform="translate(-3 -3)"/>
  </g>
</svg>
