<svg id="icon-add-budget-hover" xmlns="http://www.w3.org/2000/svg" width="30" height="30" viewBox="0 0 30 30">
  <metadata><?xpacket begin="﻿" id="W5M0MpCehiHzreSzNTczkc9d"?>
<x:xmpmeta xmlns:x="adobe:ns:meta/" x:xmptk="Adobe XMP Core 5.6-c142 79.160924, 2017/07/13-01:06:39        ">
   <rdf:RDF xmlns:rdf="http://www.w3.org/1999/02/22-rdf-syntax-ns#">
      <rdf:Description rdf:about=""/>
   </rdf:RDF>
</x:xmpmeta>
                                                                                                    
                                                                                                    
                                                                                                    
                                                                                                    
                                                                                                    
                                                                                                    
                                                                                                    
                                                                                                    
                                                                                                    
                                                                                                    
                                                                                                    
                                                                                                    
                                                                                                    
                                                                                                    
                                                                                                    
                                                                                                    
                                                                                                    
                                                                                                    
                                                                                                    
                                                                                                    
                           
<?xpacket end="w"?></metadata>
<defs>
    <style>
      .cls-1 {
        fill: #134478;
        fill-rule: evenodd;
      }
    </style>
  </defs>
  <g id="Icon">
    <path id="Icon-2" data-name="Icon" class="cls-1" d="M17.856,8h0.322a9.964,9.964,0,0,1,4.35,1.1,10.12,10.12,0,0,1,4.764,5.233A10.014,10.014,0,0,1,28,17.821v0.322a9.959,9.959,0,0,1-1.29,4.74,10.093,10.093,0,0,1-2.966,3.282A9.988,9.988,0,0,1,18.144,28H17.821a9.975,9.975,0,0,1-5.213-1.6A10.017,10.017,0,0,1,8,18.18V17.857a9.986,9.986,0,0,1,1.836-5.6A10.092,10.092,0,0,1,13.5,9.086,9.957,9.957,0,0,1,17.856,8Zm-0.714,4.96a1.3,1.3,0,0,0-.07.506q0,1.8,0,3.606c-1.252,0-2.5,0-3.757,0a0.913,0.913,0,0,0-.809.47,0.947,0.947,0,0,0,.254,1.2,1.035,1.035,0,0,0,.67.178q1.822,0,3.644,0,0,1.861,0,3.723a0.929,0.929,0,0,0,1.379.845,0.913,0.913,0,0,0,.471-0.808c0-1.253,0-2.505,0-3.758q1.8,0,3.6,0a1.5,1.5,0,0,0,.4-0.036,0.924,0.924,0,0,0,.638-0.617,0.935,0.935,0,0,0-.307-1.006,0.958,0.958,0,0,0-.611-0.194q-1.861,0-3.722,0,0-1.862,0-3.723a0.927,0.927,0,0,0-1.121-.939A0.9,0.9,0,0,0,17.143,12.96Z" transform="translate(-3 -3)"/>
  </g>
</svg>
