<svg id="icon-financial-dashboard-active" xmlns="http://www.w3.org/2000/svg" width="30" height="30" viewBox="0 0 30 30">
  <metadata><?xpacket begin="﻿" id="W5M0MpCehiHzreSzNTczkc9d"?>
<x:xmpmeta xmlns:x="adobe:ns:meta/" x:xmptk="Adobe XMP Core 5.6-c142 79.160924, 2017/07/13-01:06:39        ">
   <rdf:RDF xmlns:rdf="http://www.w3.org/1999/02/22-rdf-syntax-ns#">
      <rdf:Description rdf:about=""/>
   </rdf:RDF>
</x:xmpmeta>
                                                                                                    
                                                                                                    
                                                                                                    
                                                                                                    
                                                                                                    
                                                                                                    
                                                                                                    
                                                                                                    
                                                                                                    
                                                                                                    
                                                                                                    
                                                                                                    
                                                                                                    
                                                                                                    
                                                                                                    
                                                                                                    
                                                                                                    
                                                                                                    
                                                                                                    
                                                                                                    
                           
<?xpacket end="w"?></metadata>
<defs>
    <style>
      .cls-1 {
        fill: #8811c0;
      }

      .cls-1, .cls-2 {
        fill-rule: evenodd;
      }

      .cls-2 {
        fill: #d91d46;
      }
    </style>
  </defs>
  <g id="Icon">
    <path id="Shape_1_copy_7" data-name="Shape 1 copy 7" class="cls-1" d="M18.143,21.9L20.5,17.091l-4.713,2.4Z" transform="translate(-3 -3.5)"/>
    <path id="Shape_1_copy_6" data-name="Shape 1 copy 6" class="cls-2" d="M18,10h0a9.871,9.871,0,0,0-7.069,2.986l0,0,0,0A10.271,10.271,0,0,0,8,20.191S8,20.2,8,20.2s0,0.006,0,.009a10.284,10.284,0,0,0,2.286,6.483,0.827,0.827,0,0,0,.643.309H25.071a0.827,0.827,0,0,0,.643-0.309A10.284,10.284,0,0,0,28,20.2,10.1,10.1,0,0,0,18,10Zm6.667,15.3H11.333a8.545,8.545,0,0,1-1.624-4.25h2.458a0.85,0.85,0,0,0,0-1.7H9.708a8.55,8.55,0,0,1,1.839-4.529l0.559,0.57a0.822,0.822,0,0,0,1.178,0,0.862,0.862,0,0,0,0-1.2l-0.559-.571a8.211,8.211,0,0,1,4.44-1.876V14.25a0.833,0.833,0,1,0,1.667,0V11.742a8.208,8.208,0,0,1,4.44,1.876l-0.56.571a0.862,0.862,0,0,0,0,1.2,0.822,0.822,0,0,0,1.178,0l0.56-.571a8.552,8.552,0,0,1,1.84,4.529H23.833a0.85,0.85,0,0,0,0,1.7h2.459A8.546,8.546,0,0,1,24.667,25.3Zm-6.524-3.4L20.5,17.091l-4.713,2.4Z" transform="translate(-3 -3.5)"/>
  </g>
</svg>
