<svg xmlns="http://www.w3.org/2000/svg" width="26" height="26" viewBox="0 0 26 26">
  <metadata><?xpacket begin="﻿" id="W5M0MpCehiHzreSzNTczkc9d"?>
<x:xmpmeta xmlns:x="adobe:ns:meta/" x:xmptk="Adobe XMP Core 5.6-c142 79.160924, 2017/07/13-01:06:39        ">
   <rdf:RDF xmlns:rdf="http://www.w3.org/1999/02/22-rdf-syntax-ns#">
      <rdf:Description rdf:about=""/>
   </rdf:RDF>
</x:xmpmeta>
                                                                                                    
                                                                                                    
                                                                                                    
                                                                                                    
                                                                                                    
                                                                                                    
                                                                                                    
                                                                                                    
                                                                                                    
                                                                                                    
                                                                                                    
                                                                                                    
                                                                                                    
                                                                                                    
                                                                                                    
                                                                                                    
                                                                                                    
                                                                                                    
                                                                                                    
                                                                                                    
                           
<?xpacket end="w"?></metadata>
<defs>
    <style>
      .cls-1 {
        fill: #646f79;
        fill-rule: evenodd;
      }
    </style>
  </defs>
  <path id="icon-menu-sign-out" class="cls-1" d="M15.245,16.045a0.551,0.551,0,0,0,.794,0l3.7-3.783a0.373,0.373,0,0,0,.069-0.084,0.051,0.051,0,0,0,.014-0.028,0.326,0.326,0,0,1,.041-0.07c0-.014,0-0.028.014-0.028,0.014-.028.014-0.042,0.027-0.07a0.313,0.313,0,0,0,.014-0.112,0.317,0.317,0,0,0-.014-0.112,0.109,0.109,0,0,0-.027-0.07c0-.014,0-0.028-0.014-0.028l-0.041-.084a0.014,0.014,0,0,0-.014-0.014,0.366,0.366,0,0,0-.069-0.084l-3.7-3.783a0.552,0.552,0,0,0-.794,0,0.585,0.585,0,0,0,0,.813l2.737,2.8H8.251a0.575,0.575,0,0,0,0,1.149h9.731l-2.737,2.8A0.55,0.55,0,0,0,15.245,16.045ZM4.556,19.983h7.391a0.562,0.562,0,0,0,.561-0.574V13.761a0.561,0.561,0,1,0-1.122,0v5.072H5.117V4.864h6.268V9.936a0.561,0.561,0,1,0,1.122,0V4.29a0.562,0.562,0,0,0-.561-0.575H4.556a0.562,0.562,0,0,0-.561.575V19.409A0.579,0.579,0,0,0,4.556,19.983Z" transform="translate(1.047 1.156)"/>
</svg>
