<svg xmlns="http://www.w3.org/2000/svg" width="26" height="26" viewBox="0 0 26 26">
  <metadata><?xpacket begin="﻿" id="W5M0MpCehiHzreSzNTczkc9d"?>
<x:xmpmeta xmlns:x="adobe:ns:meta/" x:xmptk="Adobe XMP Core 5.6-c142 79.160924, 2017/07/13-01:06:39        ">
   <rdf:RDF xmlns:rdf="http://www.w3.org/1999/02/22-rdf-syntax-ns#">
      <rdf:Description rdf:about=""/>
   </rdf:RDF>
</x:xmpmeta>
                                                                                                    
                                                                                                    
                                                                                                    
                                                                                                    
                                                                                                    
                                                                                                    
                                                                                                    
                                                                                                    
                                                                                                    
                                                                                                    
                                                                                                    
                                                                                                    
                                                                                                    
                                                                                                    
                                                                                                    
                                                                                                    
                                                                                                    
                                                                                                    
                                                                                                    
                                                                                                    
                           
<?xpacket end="w"?></metadata>
<defs>
    <style>
      .cls-1 {
        fill: #646f79;
        fill-rule: evenodd;
      }
    </style>
  </defs>
  <path id="icon-menu-my-profile" class="cls-1" d="M12.425,12.336a4.425,4.425,0,0,0,4.26-4.572,4.412,4.412,0,0,0-4.26-4.557,4.421,4.421,0,0,0-4.26,4.557A4.434,4.434,0,0,0,12.425,12.336Zm0-7.937a3.266,3.266,0,0,1,3.136,3.366,3.267,3.267,0,0,1-3.136,3.366A3.267,3.267,0,0,1,9.288,7.765,3.267,3.267,0,0,1,12.425,4.4ZM5.054,19.474H19.847a0.579,0.579,0,0,0,.562-0.6,5.557,5.557,0,0,0-5.345-5.735H9.837a5.557,5.557,0,0,0-5.345,5.735A0.579,0.579,0,0,0,5.054,19.474Zm4.783-5.133h5.227a4.331,4.331,0,0,1,4.182,3.927H5.656A4.343,4.343,0,0,1,9.837,14.341Z" transform="translate(0.547 1.656)"/>
</svg>
