<svg id="White" xmlns="http://www.w3.org/2000/svg" width="130" height="30" viewBox="0 0 130 30">
  <metadata><?xpacket begin="﻿" id="W5M0MpCehiHzreSzNTczkc9d"?>
<x:xmpmeta xmlns:x="adobe:ns:meta/" x:xmptk="Adobe XMP Core 5.6-c142 79.160924, 2017/07/13-01:06:39        ">
   <rdf:RDF xmlns:rdf="http://www.w3.org/1999/02/22-rdf-syntax-ns#">
      <rdf:Description rdf:about=""/>
   </rdf:RDF>
</x:xmpmeta>
                                                                                                    
                                                                                                    
                                                                                                    
                                                                                                    
                                                                                                    
                                                                                                    
                                                                                                    
                                                                                                    
                                                                                                    
                                                                                                    
                                                                                                    
                                                                                                    
                                                                                                    
                                                                                                    
                                                                                                    
                                                                                                    
                                                                                                    
                                                                                                    
                                                                                                    
                                                                                                    
                           
<?xpacket end="w"?></metadata>
<defs>
    <style>
      .cls-1 {
        fill: #fff;
      }

      .cls-1, .cls-2 {
        fill-rule: evenodd;
      }

      .cls-2 {
        fill: #d70043;
      }
    </style>
  </defs>
  <path id="Forus" class="cls-1" d="M406.758,80.442v3.713h11.82a0.357,0.357,0,0,1,.357.356v4.643a0.356,0.356,0,0,1-.357.356h-11.82V98.9h-6.4A0.357,0.357,0,0,1,400,98.543v-23.1a0.357,0.357,0,0,1,.358-0.356h18.493a0.356,0.356,0,0,1,.357.356v4.643a0.356,0.356,0,0,1-.357.356h-12.1Zm62.2,9.71,4.583,8.225a0.351,0.351,0,0,1-.309.522h-6.241a0.354,0.354,0,0,1-.316-0.195l-3.916-7.8h-3.153v7.645a0.352,0.352,0,0,1-.353.352H453.8a0.352,0.352,0,0,1-.353-0.352V75.087h11.968c5.3,0,8.313,3.5,8.313,7.926a7.216,7.216,0,0,1-4.766,7.139h0Zm-4.479-9.71h-4.533a0.339,0.339,0,0,0-.34.338v4.428a0.339,0.339,0,0,0,.34.339h4.533c1.613,0,2.974-.893,2.974-2.57,0-1.606-1.361-2.535-2.974-2.535h0Zm35.289,8.366c0,5.926-3.618,10.1-11.249,10.1-7.7,0-11.32-4.213-11.32-10.067l0.041-13.395a0.343,0.343,0,0,1,.344-0.341h5.573a0.344,0.344,0,0,1,.345.343L483.471,88.63c0,2.82,1.684,4.855,5.051,4.855,3.3,0,5.015-2.035,5.015-4.855L493.56,75.45a0.343,0.343,0,0,1,.344-0.342h5.538a0.343,0.343,0,0,1,.344.343l-0.015,13.357h0Zm13.135-8.626c-1.818,0-2.618.691-2.618,1.657,0,2.935,13.709.794,13.709,9.357,0,4.626-3.6,7.7-10.109,7.7-4.752,0-8.107-1.358-10.526-3.449a0.345,0.345,0,0,1-.049-0.466L506.2,91.09a0.35,0.35,0,0,1,.513-0.049,11.275,11.275,0,0,0,7.462,2.779c2.145,0,3.454-.794,3.454-1.9,0-3.142-13.745-.622-13.745-9.495,0-3.867,3.454-7.32,9.673-7.32a15.416,15.416,0,0,1,9.581,2.994,0.345,0.345,0,0,1,.054.489l-2.99,3.715a0.346,0.346,0,0,1-.476.059,11.867,11.867,0,0,0-6.824-2.182h0Z" transform="translate(-397 -72)"/>
  <path id="Symbol" class="cls-2" d="M436.293,75.108a13.7,13.7,0,0,0-9.7,23.428,0.347,0.347,0,0,0,.544-0.076,10,10,0,0,1,5.732-4.567,6.132,6.132,0,1,1,6.841,0,10,10,0,0,1,5.732,4.567,0.347,0.347,0,0,0,.544.076A13.7,13.7,0,0,0,436.293,75.108Z" transform="translate(-397 -72)"/>
</svg>
