<svg id="Images" xmlns="http://www.w3.org/2000/svg" xmlns:xlink="http://www.w3.org/1999/xlink" width="686" height="335" viewBox="0 0 686 335">
  <metadata><?xpacket begin="﻿" id="W5M0MpCehiHzreSzNTczkc9d"?>
<x:xmpmeta xmlns:x="adobe:ns:meta/" x:xmptk="Adobe XMP Core 5.6-c138 79.159824, 2016/09/14-01:09:01        ">
   <rdf:RDF xmlns:rdf="http://www.w3.org/1999/02/22-rdf-syntax-ns#">
      <rdf:Description rdf:about=""/>
   </rdf:RDF>
</x:xmpmeta>
                                                                                                    
                                                                                                    
                                                                                                    
                                                                                                    
                                                                                                    
                                                                                                    
                                                                                                    
                                                                                                    
                                                                                                    
                                                                                                    
                                                                                                    
                                                                                                    
                                                                                                    
                                                                                                    
                                                                                                    
                                                                                                    
                                                                                                    
                                                                                                    
                                                                                                    
                                                                                                    
                           
<?xpacket end="w"?></metadata>
<defs>
    <style>
      @import url('https://fonts.googleapis.com/css?family=Montserrat:400,700');

      .cls-1, .cls-2, .cls-8, .cls-9 {
        fill: #fff;
      }

      .cls-1, .cls-10, .cls-3, .cls-4, .cls-8, .cls-9 {
        fill-rule: evenodd;
      }

      .cls-1 {
        filter: url(#filter);
      }

      .cls-3 {
        fill: url(#linear-gradient);
      }

      .cls-5 {
        font-size: 20px;
      }

      .cls-5, .cls-7 {
        fill: #151b26;
        font-weight: 700;
      }

      .cls-5, .cls-6, .cls-7 {
        font-family: "Montserrat", sans-serif;
      }

      .cls-6 {
        font-size: 13px;
        fill: #646f79;
      }

      .cls-7 {
        font-size: 21px;
      }

      .cls-8 {
        filter: url(#filter-2);
      }

      .cls-10 {
        fill: url(#linear-gradient-2);
      }
    </style>
    <filter id="filter" x="896" y="213" width="597" height="242" filterUnits="userSpaceOnUse">
      <feOffset result="offset" dy="11" in="SourceAlpha"/>
      <feGaussianBlur result="blur" stdDeviation="4.899"/>
      <feFlood result="flood" flood-color="#162539" flood-opacity="0.17"/>
      <feComposite result="composite" operator="in" in2="blur"/>
      <feBlend result="blend" in="SourceGraphic"/>
    </filter>
    <linearGradient id="linear-gradient" x1="1244.41" y1="322.672" x2="1467.56" y2="322.672" gradientUnits="userSpaceOnUse">
      <stop offset="0" stop-color="#efefef"/>
      <stop offset="1" stop-color="#fff"/>
    </linearGradient>
    <filter id="filter-2" x="984" y="305" width="598" height="243" filterUnits="userSpaceOnUse">
      <feOffset result="offset" dy="11" in="SourceAlpha"/>
      <feGaussianBlur result="blur" stdDeviation="4.899"/>
      <feFlood result="flood" flood-color="#162539" flood-opacity="0.17"/>
      <feComposite result="composite" operator="in" in2="blur"/>
      <feBlend result="blend" in="SourceGraphic"/>
    </filter>
    <linearGradient id="linear-gradient-2" x1="1332.66" y1="415.578" x2="1556" y2="415.578" xlink:href="#linear-gradient"/>
  </defs>
  <g id="Voucher">
    <g id="Base">
      <path class="cls-1" d="M1466.8,279.344a42.824,42.824,0,0,0,0,85.647V401.47a15.839,15.839,0,0,1-15.82,15.861H933.659A12.672,12.672,0,0,1,921,404.642V239.692A12.671,12.671,0,0,1,933.659,227H1450.98a15.838,15.838,0,0,1,15.82,15.86v36.48Z" transform="translate(-896 -213)"/>
      <rect class="cls-2" x="348.5" y="14.5" width="179.97" height="190.344"/>
      <path class="cls-3" d="M1467.55,279.843a42.826,42.826,0,0,0,0,85.651v52.342H1244.41V227.5h223.14v52.342m0-52.342H1244.41V417.836h223.14V365.494a42.826,42.826,0,0,1,0-85.651V227.5" transform="translate(-896 -213)"/>
    </g>
    <path id="QR" class="cls-4" d="M1264.51,252.545h4.24v4.25h-4.24v-4.25Zm4.24,0h4.24v4.25h-4.24v-4.25Zm4.24,0h4.24v4.25h-4.24v-4.25Zm4.24,0h4.24v4.25h-4.24v-4.25Zm4.24,0h4.24v4.25h-4.24v-4.25Zm4.24,0h4.24v4.25h-4.24v-4.25Zm4.24,0h4.24v4.25h-4.24v-4.25Zm12.73,0h4.24v4.25h-4.24v-4.25Zm8.48,0h4.24v4.25h-4.24v-4.25Zm25.44,0h4.25v4.25h-4.25v-4.25Zm4.25,0h4.24v4.25h-4.24v-4.25Zm4.24,0h4.24v4.25h-4.24v-4.25Zm4.24,0h4.24v4.25h-4.24v-4.25Zm12.72,0h4.24v4.25h-4.24v-4.25Zm12.72,0h4.24v4.25h-4.24v-4.25Zm4.24,0h4.25v4.25h-4.25v-4.25Zm4.25,0h4.24v4.25h-4.24v-4.25Zm4.24,0h4.24v4.25h-4.24v-4.25Zm4.24,0h4.24v4.25h-4.24v-4.25Zm4.24,0h4.24v4.25h-4.24v-4.25Zm4.24,0h4.24v4.25h-4.24v-4.25Zm-135.71,4.25h4.24v4.249h-4.24V256.8Zm25.44,0h4.24v4.249h-4.24V256.8Zm8.48,0h4.25v4.249h-4.25V256.8Zm4.25,0h4.24v4.249h-4.24V256.8Zm4.24,0h4.24v4.249h-4.24V256.8Zm12.72,0h4.24v4.249h-4.24V256.8Zm4.24,0h4.24v4.249h-4.24V256.8Zm4.24,0h4.24v4.249h-4.24V256.8Zm4.24,0h4.24v4.249h-4.24V256.8Zm16.97,0h4.24v4.249h-4.24V256.8Zm4.24,0h4.24v4.249h-4.24V256.8Zm21.2,0h4.24v4.249h-4.24V256.8Zm25.45,0h4.24v4.249h-4.24V256.8Zm-135.71,4.249h4.24v4.25h-4.24v-4.25Zm8.48,0h4.24v4.25h-4.24v-4.25Zm4.24,0h4.24v4.25h-4.24v-4.25Zm4.24,0h4.24v4.25h-4.24v-4.25Zm8.48,0h4.24v4.25h-4.24v-4.25Zm12.73,0h4.24v4.25h-4.24v-4.25Zm4.24,0h4.24v4.25h-4.24v-4.25Zm4.24,0h4.24v4.25h-4.24v-4.25Zm4.24,0h4.24v4.25h-4.24v-4.25Zm38.17,0h4.24v4.25h-4.24v-4.25Zm4.24,0h4.24v4.25h-4.24v-4.25Zm4.24,0h4.24v4.25h-4.24v-4.25Zm4.24,0h4.24v4.25h-4.24v-4.25Zm8.48,0h4.24v4.25h-4.24v-4.25Zm8.49,0h4.24v4.25h-4.24v-4.25Zm4.24,0h4.24v4.25h-4.24v-4.25Zm4.24,0h4.24v4.25h-4.24v-4.25Zm8.48,0h4.24v4.25h-4.24v-4.25Zm-135.71,4.25h4.24v4.25h-4.24v-4.25Zm8.48,0h4.24v4.25h-4.24v-4.25Zm4.24,0h4.24v4.25h-4.24v-4.25Zm4.24,0h4.24v4.25h-4.24v-4.25Zm8.48,0h4.24v4.25h-4.24v-4.25Zm8.48,0h4.25v4.25h-4.25v-4.25Zm8.49,0h4.24v4.25h-4.24v-4.25Zm4.24,0h4.24v4.25h-4.24v-4.25Zm4.24,0h4.24v4.25h-4.24v-4.25Zm4.24,0h4.24v4.25h-4.24v-4.25Zm4.24,0h4.24v4.25h-4.24v-4.25Zm4.24,0h4.24v4.25h-4.24v-4.25Zm4.24,0h4.24v4.25h-4.24v-4.25Zm4.24,0h4.25v4.25h-4.25v-4.25Zm21.21,0h4.24v4.25h-4.24v-4.25Zm4.24,0h4.24v4.25h-4.24v-4.25Zm4.24,0h4.24v4.25h-4.24v-4.25Zm8.48,0h4.24v4.25h-4.24v-4.25Zm8.49,0h4.24v4.25h-4.24v-4.25Zm4.24,0h4.24v4.25h-4.24v-4.25Zm4.24,0h4.24v4.25h-4.24v-4.25Zm8.48,0h4.24v4.25h-4.24v-4.25Zm-135.71,4.25h4.24v4.25h-4.24v-4.25Zm8.48,0h4.24v4.25h-4.24v-4.25Zm4.24,0h4.24v4.25h-4.24v-4.25Zm4.24,0h4.24v4.25h-4.24v-4.25Zm8.48,0h4.24v4.25h-4.24v-4.25Zm12.73,0h4.24v4.25h-4.24v-4.25Zm4.24,0h4.24v4.25h-4.24v-4.25Zm4.24,0h4.24v4.25h-4.24v-4.25Zm12.72,0h4.24v4.25h-4.24v-4.25Zm8.48,0h4.24v4.25h-4.24v-4.25Zm12.73,0h4.24v4.25h-4.24v-4.25Zm4.24,0h4.24v4.25h-4.24v-4.25Zm12.72,0h4.24v4.25h-4.24v-4.25Zm12.72,0h4.24v4.25h-4.24v-4.25Zm8.49,0h4.24v4.25h-4.24v-4.25Zm4.24,0h4.24v4.25h-4.24v-4.25Zm4.24,0h4.24v4.25h-4.24v-4.25Zm8.48,0h4.24v4.25h-4.24v-4.25Zm-135.71,4.25h4.24v4.25h-4.24v-4.25Zm25.44,0h4.24v4.25h-4.24v-4.25Zm8.48,0h4.25v4.25h-4.25v-4.25Zm4.25,0h4.24v4.25h-4.24v-4.25Zm4.24,0h4.24v4.25h-4.24v-4.25Zm21.2,0h4.24v4.25h-4.24v-4.25Zm12.73,0h4.24v4.25h-4.24v-4.25Zm8.48,0h4.24v4.25h-4.24v-4.25Zm8.48,0h4.24v4.25h-4.24v-4.25Zm16.96,0h4.24v4.25h-4.24v-4.25Zm25.45,0h4.24v4.25h-4.24v-4.25Zm-135.71,4.25h4.24v4.25h-4.24v-4.25Zm4.24,0h4.24v4.25h-4.24v-4.25Zm4.24,0h4.24v4.25h-4.24v-4.25Zm4.24,0h4.24v4.25h-4.24v-4.25Zm4.24,0h4.24v4.25h-4.24v-4.25Zm4.24,0h4.24v4.25h-4.24v-4.25Zm4.24,0h4.24v4.25h-4.24v-4.25Zm8.48,0h4.25v4.25h-4.25v-4.25Zm8.49,0h4.24v4.25h-4.24v-4.25Zm8.48,0h4.24v4.25h-4.24v-4.25Zm8.48,0h4.24v4.25h-4.24v-4.25Zm8.48,0h4.24v4.25h-4.24v-4.25Zm8.49,0h4.24v4.25h-4.24v-4.25Zm8.48,0h4.24v4.25h-4.24v-4.25Zm8.48,0h4.24v4.25h-4.24v-4.25Zm8.48,0h4.24v4.25h-4.24v-4.25Zm8.48,0h4.24v4.25h-4.24v-4.25Zm4.24,0h4.25v4.25h-4.25v-4.25Zm4.25,0h4.24v4.25h-4.24v-4.25Zm4.24,0h4.24v4.25h-4.24v-4.25Zm4.24,0h4.24v4.25h-4.24v-4.25Zm4.24,0h4.24v4.25h-4.24v-4.25Zm4.24,0h4.24v4.25h-4.24v-4.25Zm-97.54,4.25h4.24v4.25h-4.24v-4.25Zm8.48,0h4.24v4.25h-4.24v-4.25Zm4.24,0h4.24v4.25h-4.24v-4.25Zm12.72,0h4.24v4.25h-4.24v-4.25Zm4.24,0h4.24v4.25h-4.24v-4.25Zm8.49,0h4.24v4.25h-4.24v-4.25Zm4.24,0h4.24v4.25h-4.24v-4.25Zm8.48,0h4.24v4.25h-4.24v-4.25Zm8.48,0h4.24v4.25h-4.24v-4.25Zm-97.54,4.25h4.24v4.25h-4.24v-4.25Zm4.24,0h4.24v4.25h-4.24v-4.25Zm4.24,0h4.24v4.25h-4.24v-4.25Zm4.24,0h4.24v4.25h-4.24v-4.25Zm4.24,0h4.24v4.25h-4.24v-4.25Zm8.48,0h4.24v4.25h-4.24v-4.25Zm4.24,0h4.24v4.25h-4.24v-4.25Zm4.24,0h4.25v4.25h-4.25v-4.25Zm4.25,0h4.24v4.25h-4.24v-4.25Zm8.48,0h4.24v4.25h-4.24v-4.25Zm4.24,0h4.24v4.25h-4.24v-4.25Zm4.24,0h4.24v4.25h-4.24v-4.25Zm4.24,0h4.24v4.25h-4.24v-4.25Zm4.24,0h4.24v4.25h-4.24v-4.25Zm4.24,0h4.24v4.25h-4.24v-4.25Zm4.24,0h4.25v4.25h-4.25v-4.25Zm21.21,0h4.24v4.25h-4.24v-4.25Zm4.24,0h4.24v4.25h-4.24v-4.25Zm4.24,0h4.24v4.25h-4.24v-4.25Zm4.24,0h4.24v4.25h-4.24v-4.25Zm8.48,0h4.25v4.25h-4.25v-4.25Zm8.49,0h4.24v4.25h-4.24v-4.25Zm8.48,0h4.24v4.25h-4.24v-4.25Zm-131.47,4.25h4.24v4.25h-4.24v-4.25Zm8.48,0h4.24v4.25h-4.24v-4.25Zm4.24,0h4.24v4.25h-4.24v-4.25Zm4.24,0h4.24v4.25h-4.24v-4.25Zm4.24,0h4.24v4.25h-4.24v-4.25Zm12.72,0h4.25v4.25h-4.25v-4.25Zm12.73,0h4.24v4.25h-4.24v-4.25Zm8.48,0h4.24v4.25h-4.24v-4.25Zm12.72,0h4.24v4.25h-4.24v-4.25Zm8.49,0h4.24v4.25h-4.24v-4.25Zm4.24,0h4.24v4.25h-4.24v-4.25Zm4.24,0h4.24v4.25h-4.24v-4.25Zm4.24,0h4.24v4.25h-4.24v-4.25Zm8.48,0h4.24v4.25h-4.24v-4.25Zm4.24,0h4.24v4.25h-4.24v-4.25Zm8.48,0h4.24v4.25h-4.24v-4.25Zm16.97,0h4.24v4.25h-4.24v-4.25Zm4.24,0h4.24v4.25h-4.24v-4.25Zm4.24,0h4.24v4.25h-4.24v-4.25Zm-135.71,4.25h4.24v4.25h-4.24v-4.25Zm4.24,0h4.24v4.25h-4.24v-4.25Zm12.72,0h4.24v4.25h-4.24v-4.25Zm8.48,0h4.24v4.25h-4.24v-4.25Zm16.97,0h4.24v4.25h-4.24v-4.25Zm12.72,0h4.24v4.25h-4.24v-4.25Zm8.48,0h4.24v4.25h-4.24v-4.25Zm4.24,0h4.24v4.25h-4.24v-4.25Zm8.49,0h4.24v4.25h-4.24v-4.25Zm8.48,0h4.24v4.25h-4.24v-4.25Zm4.24,0h4.24v4.25h-4.24v-4.25Zm4.24,0h4.24v4.25h-4.24v-4.25Zm12.72,0h4.24v4.25h-4.24v-4.25Zm4.24,0h4.24v4.25h-4.24v-4.25Zm4.24,0h4.25v4.25h-4.25v-4.25Zm4.25,0h4.24v4.25h-4.24v-4.25Zm4.24,0h4.24v4.25h-4.24v-4.25Zm8.48,0h4.24v4.25h-4.24v-4.25Zm-122.99,4.25h4.24v4.249h-4.24v-4.249Zm4.24,0h4.24v4.249h-4.24v-4.249Zm8.48,0h4.24v4.249h-4.24v-4.249Zm8.48,0h4.24v4.249h-4.24v-4.249Zm4.24,0h4.25v4.249h-4.25v-4.249Zm16.97,0h4.24v4.249h-4.24v-4.249Zm8.48,0h4.24v4.249h-4.24v-4.249Zm21.21,0h4.24v4.249h-4.24v-4.249Zm4.24,0h4.24v4.249h-4.24v-4.249Zm4.24,0h4.24v4.249h-4.24v-4.249Zm8.48,0h4.24v4.249h-4.24v-4.249Zm12.72,0h4.24v4.249h-4.24v-4.249Zm4.24,0h4.25v4.249h-4.25v-4.249Zm12.73,0h4.24v4.249h-4.24v-4.249Zm-127.23,4.249h4.24v4.25h-4.24v-4.25Zm4.24,0h4.24v4.25h-4.24v-4.25Zm4.24,0h4.24v4.25h-4.24v-4.25Zm16.96,0h4.24v4.25h-4.24v-4.25Zm4.24,0h4.24v4.25h-4.24v-4.25Zm4.24,0h4.25v4.25h-4.25v-4.25Zm4.25,0h4.24v4.25h-4.24v-4.25Zm4.24,0h4.24v4.25h-4.24v-4.25Zm8.48,0h4.24v4.25h-4.24v-4.25Zm8.48,0h4.24v4.25h-4.24v-4.25Zm4.24,0h4.24v4.25h-4.24v-4.25Zm8.48,0h4.25v4.25h-4.25v-4.25Zm8.49,0h4.24v4.25h-4.24v-4.25Zm4.24,0h4.24v4.25h-4.24v-4.25Zm8.48,0h4.24v4.25h-4.24v-4.25Zm4.24,0h4.24v4.25h-4.24v-4.25Zm4.24,0h4.24v4.25h-4.24v-4.25Zm16.97,0h4.24v4.25h-4.24v-4.25Zm4.24,0h4.24v4.25h-4.24v-4.25Zm-118.75,4.25h4.24v4.25h-4.24v-4.25Zm4.24,0h4.24v4.25h-4.24v-4.25Zm8.48,0h4.24v4.25h-4.24v-4.25Zm21.21,0h4.24v4.25h-4.24v-4.25Zm8.48,0h4.24v4.25h-4.24v-4.25Zm8.48,0h4.24v4.25h-4.24v-4.25Zm4.24,0h4.24v4.25h-4.24v-4.25Zm8.48,0h4.24v4.25h-4.24v-4.25Zm4.24,0h4.25v4.25h-4.25v-4.25Zm4.25,0h4.24v4.25h-4.24v-4.25Zm8.48,0h4.24v4.25h-4.24v-4.25Zm4.24,0h4.24v4.25h-4.24v-4.25Zm4.24,0h4.24v4.25h-4.24v-4.25Zm4.24,0h4.24v4.25h-4.24v-4.25Zm12.72,0h4.24v4.25h-4.24v-4.25Zm21.21,0h4.24v4.25h-4.24v-4.25Zm4.24,0h4.24v4.25h-4.24v-4.25Zm-114.51,4.25h4.24v4.251h-4.24v-4.251Zm4.24,0h4.24v4.251h-4.24v-4.251Zm4.24,0h4.24v4.251h-4.24v-4.251Zm4.24,0h4.25v4.251h-4.25v-4.251Zm4.25,0h4.24v4.251h-4.24v-4.251Zm12.72,0h4.24v4.251h-4.24v-4.251Zm4.24,0h4.24v4.251h-4.24v-4.251Zm4.24,0h4.24v4.251h-4.24v-4.251Zm4.24,0h4.24v4.251h-4.24v-4.251Zm4.24,0h4.24v4.251h-4.24v-4.251Zm8.49,0h4.24v4.251h-4.24v-4.251Zm8.48,0h4.24v4.251h-4.24v-4.251Zm4.24,0h4.24v4.251h-4.24v-4.251Zm16.96,0h4.24v4.251h-4.24v-4.251Zm4.24,0h4.24v4.251h-4.24v-4.251Zm8.49,0h4.24v4.251h-4.24v-4.251Zm12.72,0h4.24v4.251h-4.24v-4.251Zm-131.47,4.251h4.24v4.249h-4.24v-4.249Zm8.48,0h4.24v4.249h-4.24v-4.249Zm4.24,0h4.24v4.249h-4.24v-4.249Zm16.96,0h4.24v4.249h-4.24v-4.249Zm21.21,0h4.24v4.249h-4.24v-4.249Zm8.48,0h4.24v4.249h-4.24v-4.249Zm4.24,0h4.24v4.249h-4.24v-4.249Zm4.24,0h4.24v4.249h-4.24v-4.249Zm12.73,0h4.24v4.249h-4.24v-4.249Zm8.48,0h4.24v4.249h-4.24v-4.249Zm12.72,0h4.24v4.249h-4.24v-4.249Zm8.48,0h4.24v4.249h-4.24v-4.249Zm8.49,0h4.24v4.249h-4.24v-4.249Zm8.48,0h4.24v4.249h-4.24v-4.249Zm-118.75,4.249h4.24v4.25h-4.24v-4.25Zm8.48,0h4.24v4.25h-4.24v-4.25Zm4.24,0h4.24v4.25h-4.24v-4.25Zm4.24,0h4.24v4.25h-4.24v-4.25Zm4.24,0h4.24v4.25h-4.24v-4.25Zm4.24,0h4.25v4.25h-4.25v-4.25Zm21.21,0h4.24v4.25h-4.24v-4.25Zm4.24,0h4.24v4.25h-4.24v-4.25Zm4.24,0h4.24v4.25h-4.24v-4.25Zm8.48,0h4.25v4.25h-4.25v-4.25Zm8.49,0h4.24v4.25h-4.24v-4.25Zm12.72,0h4.24v4.25h-4.24v-4.25Zm4.24,0h4.24v4.25h-4.24v-4.25Zm4.24,0h4.24v4.25h-4.24v-4.25Zm4.24,0h4.24v4.25h-4.24v-4.25Zm8.48,0h4.25v4.25h-4.25v-4.25Zm4.25,0h4.24v4.25h-4.24v-4.25Zm12.72,0h4.24v4.25h-4.24v-4.25Zm-131.47,4.25h4.24v4.25h-4.24v-4.25Zm16.96,0h4.24v4.25h-4.24v-4.25Zm12.72,0h4.24v4.25h-4.24v-4.25Zm4.24,0h4.25v4.25h-4.25v-4.25Zm8.49,0h4.24v4.25h-4.24v-4.25Zm4.24,0h4.24v4.25h-4.24v-4.25Zm8.48,0h4.24v4.25h-4.24v-4.25Zm12.72,0h4.24v4.25h-4.24v-4.25Zm8.49,0h4.24v4.25h-4.24v-4.25Zm4.24,0h4.24v4.25h-4.24v-4.25Zm4.24,0h4.24v4.25h-4.24v-4.25Zm4.24,0h4.24v4.25h-4.24v-4.25Zm8.48,0h4.24v4.25h-4.24v-4.25Zm12.72,0h4.24v4.25h-4.24v-4.25Zm12.73,0h4.24v4.25h-4.24v-4.25Zm8.48,0h4.24v4.25h-4.24v-4.25Zm4.24,0h4.24v4.25h-4.24v-4.25Zm-127.23,4.25h4.24v4.25h-4.24v-4.25Zm4.24,0h4.24v4.25h-4.24v-4.25Zm4.24,0h4.24v4.25h-4.24v-4.25Zm4.24,0h4.24v4.25h-4.24v-4.25Zm4.24,0h4.24v4.25h-4.24v-4.25Zm12.73,0h4.24v4.25h-4.24v-4.25Zm4.24,0h4.24v4.25h-4.24v-4.25Zm8.48,0h4.24v4.25h-4.24v-4.25Zm4.24,0h4.24v4.25h-4.24v-4.25Zm8.48,0h4.24v4.25h-4.24v-4.25Zm8.48,0h4.25v4.25h-4.25v-4.25Zm16.97,0h4.24v4.25h-4.24v-4.25Zm12.72,0h4.24v4.25h-4.24v-4.25Zm4.24,0h4.24v4.25h-4.24v-4.25Zm8.48,0h4.25v4.25h-4.25v-4.25Zm8.49,0h4.24v4.25h-4.24v-4.25Zm8.48,0h4.24v4.25h-4.24v-4.25Zm-131.47,4.25h4.24v4.25h-4.24v-4.25Zm4.24,0h4.24v4.25h-4.24v-4.25Zm4.24,0h4.24v4.25h-4.24v-4.25Zm12.72,0h4.24v4.25h-4.24v-4.25Zm8.48,0h4.24v4.25h-4.24v-4.25Zm4.24,0h4.25v4.25h-4.25v-4.25Zm4.25,0h4.24v4.25h-4.24v-4.25Zm21.2,0h4.24v4.25h-4.24v-4.25Zm29.69,0h4.24v4.25h-4.24v-4.25Zm4.24,0h4.24v4.25h-4.24v-4.25Zm4.24,0h4.24v4.25h-4.24v-4.25Zm12.72,0h4.24v4.25h-4.24v-4.25Zm4.24,0h4.25v4.25h-4.25v-4.25Zm4.25,0h4.24v4.25h-4.24v-4.25Zm8.48,0h4.24v4.25h-4.24v-4.25Zm-127.23,4.25h4.24v4.25h-4.24v-4.25Zm16.96,0h4.24v4.25h-4.24v-4.25Zm4.24,0h4.24v4.25h-4.24v-4.25Zm4.24,0h4.24v4.25h-4.24v-4.25Zm12.73,0h4.24v4.25h-4.24v-4.25Zm4.24,0h4.24v4.25h-4.24v-4.25Zm8.48,0h4.24v4.25h-4.24v-4.25Zm4.24,0h4.24v4.25h-4.24v-4.25Zm4.24,0h4.24v4.25h-4.24v-4.25Zm4.24,0h4.24v4.25h-4.24v-4.25Zm4.24,0h4.24v4.25h-4.24v-4.25Zm4.24,0h4.25v4.25h-4.25v-4.25Zm12.73,0h4.24v4.25h-4.24v-4.25Zm8.48,0h4.24v4.25h-4.24v-4.25Zm4.24,0h4.24v4.25h-4.24v-4.25Zm4.24,0h4.24v4.25h-4.24v-4.25Zm4.24,0h4.24v4.25h-4.24v-4.25Zm8.48,0h4.25v4.25h-4.25v-4.25Zm4.25,0h4.24v4.25h-4.24v-4.25Zm12.72,0h4.24v4.25h-4.24v-4.25Zm-131.47,4.25h4.24v4.25h-4.24v-4.25Zm4.24,0h4.24v4.25h-4.24v-4.25Zm8.48,0h4.24v4.25h-4.24v-4.25Zm4.24,0h4.24v4.25h-4.24v-4.25Zm4.24,0h4.24v4.25h-4.24v-4.25Zm16.97,0h4.24v4.25h-4.24v-4.25Zm8.48,0h4.24v4.25h-4.24v-4.25Zm12.72,0h4.24v4.25h-4.24v-4.25Zm8.48,0h4.24v4.25h-4.24v-4.25Zm4.24,0h4.25v4.25h-4.25v-4.25Zm4.25,0h4.24v4.25h-4.24v-4.25Zm4.24,0h4.24v4.25h-4.24v-4.25Zm4.24,0h4.24v4.25h-4.24v-4.25Zm12.72,0h4.24v4.25h-4.24v-4.25Zm4.24,0h4.24v4.25h-4.24v-4.25Zm8.48,0h4.24v4.25h-4.24v-4.25Zm12.73,0h4.24v4.25h-4.24v-4.25Zm8.48,0h4.24v4.25h-4.24v-4.25Zm4.24,0h4.24v4.25h-4.24v-4.25Zm-135.71,4.25h4.24v4.25h-4.24v-4.25Zm8.48,0h4.24v4.25h-4.24v-4.25Zm12.72,0h4.24v4.25h-4.24v-4.25Zm4.24,0h4.24v4.25h-4.24v-4.25Zm4.24,0h4.24v4.25h-4.24v-4.25Zm12.73,0h4.24v4.25h-4.24v-4.25Zm8.48,0h4.24v4.25h-4.24v-4.25Zm4.24,0h4.24v4.25h-4.24v-4.25Zm4.24,0h4.24v4.25h-4.24v-4.25Zm4.24,0h4.24v4.25h-4.24v-4.25Zm4.24,0h4.24v4.25h-4.24v-4.25Zm4.24,0h4.25v4.25h-4.25v-4.25Zm12.73,0h4.24v4.25h-4.24v-4.25Zm21.2,0h4.24v4.25h-4.24v-4.25Zm4.24,0h4.24v4.25h-4.24v-4.25Zm4.24,0h4.25v4.25h-4.25v-4.25Zm8.49,0h4.24v4.25h-4.24v-4.25Zm8.48,0h4.24v4.25h-4.24v-4.25Zm-131.47,4.25h4.24v4.249h-4.24v-4.249Zm21.2,0h4.24v4.249h-4.24v-4.249Zm8.48,0h4.24v4.249h-4.24v-4.249Zm4.24,0h4.25v4.249h-4.25v-4.249Zm12.73,0h4.24v4.249h-4.24v-4.249Zm12.72,0h4.24v4.249h-4.24v-4.249Zm4.24,0h4.24v4.249h-4.24v-4.249Zm12.73,0h4.24v4.249h-4.24v-4.249Zm4.24,0h4.24v4.249h-4.24v-4.249Zm4.24,0h4.24v4.249h-4.24v-4.249Zm4.24,0h4.24v4.249h-4.24v-4.249Zm4.24,0h4.24v4.249h-4.24v-4.249Zm4.24,0h4.24v4.249h-4.24v-4.249Zm4.24,0h4.24v4.249h-4.24v-4.249Zm4.24,0h4.24v4.249h-4.24v-4.249Zm4.24,0h4.24v4.249h-4.24v-4.249Zm12.73,0h4.24v4.249h-4.24v-4.249Zm4.24,0h4.24v4.249h-4.24v-4.249Zm-127.23,4.249h4.24v4.25h-4.24v-4.25Zm8.48,0h4.24v4.25h-4.24v-4.25Zm4.24,0h4.24v4.25h-4.24v-4.25Zm8.48,0h4.24v4.25h-4.24v-4.25Zm4.24,0h4.24v4.25h-4.24v-4.25Zm12.73,0h4.24v4.25h-4.24v-4.25Zm8.48,0h4.24v4.25h-4.24v-4.25Zm4.24,0h4.24v4.25h-4.24v-4.25Zm4.24,0h4.24v4.25h-4.24v-4.25Zm4.24,0h4.24v4.25h-4.24v-4.25Zm12.72,0h4.25v4.25h-4.25v-4.25Zm4.25,0h4.24v4.25h-4.24v-4.25Zm4.24,0h4.24v4.25h-4.24v-4.25Zm4.24,0h4.24v4.25h-4.24v-4.25Zm8.48,0h4.24v4.25h-4.24v-4.25Zm8.48,0h4.24v4.25h-4.24v-4.25Zm4.24,0h4.24v4.25h-4.24v-4.25Zm4.24,0h4.24v4.25h-4.24v-4.25Zm4.24,0h4.25v4.25h-4.25v-4.25Zm4.25,0h4.24v4.25h-4.24v-4.25Zm4.24,0h4.24v4.25h-4.24v-4.25Zm12.72,0h4.24v4.25h-4.24v-4.25Zm-101.79,4.25h4.25v4.25h-4.25v-4.25Zm12.73,0h4.24v4.25h-4.24v-4.25Zm21.2,0h4.24v4.25h-4.24v-4.25Zm4.24,0h4.25v4.25h-4.25v-4.25Zm8.49,0h4.24v4.25h-4.24v-4.25Zm16.96,0h4.24v4.25h-4.24v-4.25Zm4.24,0h4.24v4.25h-4.24v-4.25Zm16.97,0h4.24v4.25h-4.24v-4.25Zm16.96,0h4.24v4.25h-4.24v-4.25Zm-135.71,4.25h4.24v4.25h-4.24v-4.25Zm4.24,0h4.24v4.25h-4.24v-4.25Zm4.24,0h4.24v4.25h-4.24v-4.25Zm4.24,0h4.24v4.25h-4.24v-4.25Zm4.24,0h4.24v4.25h-4.24v-4.25Zm4.24,0h4.24v4.25h-4.24v-4.25Zm4.24,0h4.24v4.25h-4.24v-4.25Zm8.48,0h4.25v4.25h-4.25v-4.25Zm8.49,0h4.24v4.25h-4.24v-4.25Zm16.96,0h4.24v4.25h-4.24v-4.25Zm4.24,0h4.24v4.25h-4.24v-4.25Zm21.21,0h4.24v4.25h-4.24v-4.25Zm12.72,0h4.24v4.25h-4.24v-4.25Zm4.24,0h4.24v4.25h-4.24v-4.25Zm8.48,0h4.24v4.25h-4.24v-4.25Zm8.49,0h4.24v4.25h-4.24v-4.25Zm12.72,0h4.24v4.25h-4.24v-4.25Zm-131.47,4.25h4.24v4.25h-4.24v-4.25Zm25.44,0h4.24v4.25h-4.24v-4.25Zm16.97,0h4.24v4.25h-4.24v-4.25Zm8.48,0h4.24v4.25h-4.24v-4.25Zm12.72,0h4.24v4.25h-4.24v-4.25Zm4.24,0h4.24v4.25h-4.24v-4.25Zm12.73,0h4.24v4.25h-4.24v-4.25Zm4.24,0h4.24v4.25h-4.24v-4.25Zm4.24,0h4.24v4.25h-4.24v-4.25Zm4.24,0h4.24v4.25h-4.24v-4.25Zm4.24,0h4.24v4.25h-4.24v-4.25Zm4.24,0h4.24v4.25h-4.24v-4.25Zm16.97,0h4.24v4.25h-4.24v-4.25Zm4.24,0h4.24v4.25h-4.24v-4.25Zm4.24,0h4.24v4.25h-4.24v-4.25Zm4.24,0h4.24v4.25h-4.24v-4.25Zm-131.47,4.25h4.24v4.25h-4.24v-4.25Zm8.48,0h4.24v4.25h-4.24v-4.25Zm4.24,0h4.24v4.25h-4.24v-4.25Zm4.24,0h4.24v4.25h-4.24v-4.25Zm8.48,0h4.24v4.25h-4.24v-4.25Zm8.48,0h4.25v4.25h-4.25v-4.25Zm4.25,0h4.24v4.25h-4.24v-4.25Zm4.24,0h4.24v4.25h-4.24v-4.25Zm4.24,0h4.24v4.25h-4.24v-4.25Zm4.24,0h4.24v4.25h-4.24v-4.25Zm4.24,0h4.24v4.25h-4.24v-4.25Zm8.48,0h4.24v4.25h-4.24v-4.25Zm16.97,0h4.24v4.25h-4.24v-4.25Zm12.72,0h4.24v4.25h-4.24v-4.25Zm8.48,0h4.24v4.25h-4.24v-4.25Zm4.24,0h4.24v4.25h-4.24v-4.25Zm4.24,0h4.24v4.25h-4.24v-4.25Zm4.24,0h4.25v4.25h-4.25v-4.25Zm4.25,0h4.24v4.25h-4.24v-4.25Zm4.24,0h4.24v4.25h-4.24v-4.25Zm8.48,0h4.24v4.25h-4.24v-4.25Zm4.24,0h4.24v4.25h-4.24v-4.25Zm-135.71,4.25h4.24v4.25h-4.24v-4.25Zm8.48,0h4.24v4.25h-4.24v-4.25Zm4.24,0h4.24v4.25h-4.24v-4.25Zm4.24,0h4.24v4.25h-4.24v-4.25Zm8.48,0h4.24v4.25h-4.24v-4.25Zm8.48,0h4.25v4.25h-4.25v-4.25Zm4.25,0h4.24v4.25h-4.24v-4.25Zm8.48,0h4.24v4.25h-4.24v-4.25Zm8.48,0h4.24v4.25h-4.24v-4.25Zm4.24,0h4.24v4.25h-4.24v-4.25Zm8.48,0h4.24v4.25h-4.24v-4.25Zm12.73,0h4.24v4.25h-4.24v-4.25Zm8.48,0h4.24v4.25h-4.24v-4.25Zm8.48,0h4.24v4.25h-4.24v-4.25Zm4.24,0h4.24v4.25h-4.24v-4.25Zm4.24,0h4.24v4.25h-4.24v-4.25Zm8.48,0h4.25v4.25h-4.25v-4.25Zm4.25,0h4.24v4.25h-4.24v-4.25Zm4.24,0h4.24v4.25h-4.24v-4.25Zm4.24,0h4.24v4.25h-4.24v-4.25Zm-127.23,4.25h4.24v4.25h-4.24v-4.25Zm8.48,0h4.24v4.25h-4.24v-4.25Zm4.24,0h4.24v4.25h-4.24v-4.25Zm4.24,0h4.24v4.25h-4.24v-4.25Zm8.48,0h4.24v4.25h-4.24v-4.25Zm8.48,0h4.25v4.25h-4.25v-4.25Zm4.25,0h4.24v4.25h-4.24v-4.25Zm21.2,0h4.24v4.25h-4.24v-4.25Zm4.24,0h4.24v4.25h-4.24v-4.25Zm4.24,0h4.24v4.25h-4.24v-4.25Zm4.24,0h4.25v4.25h-4.25v-4.25Zm4.25,0h4.24v4.25h-4.24v-4.25Zm12.72,0h4.24v4.25h-4.24v-4.25Zm4.24,0h4.24v4.25h-4.24v-4.25Zm4.24,0h4.24v4.25h-4.24v-4.25Zm4.24,0h4.24v4.25h-4.24v-4.25Zm4.24,0h4.24v4.25h-4.24v-4.25Zm4.24,0h4.24v4.25h-4.24v-4.25Zm12.73,0h4.24v4.25h-4.24v-4.25Zm4.24,0h4.24v4.25h-4.24v-4.25Zm4.24,0h4.24v4.25h-4.24v-4.25Zm-131.47,4.25h4.24v4.25h-4.24v-4.25Zm25.44,0h4.24v4.25h-4.24v-4.25Zm8.48,0h4.25v4.25h-4.25v-4.25Zm8.49,0h4.24v4.25h-4.24v-4.25Zm4.24,0h4.24v4.25h-4.24v-4.25Zm4.24,0h4.24v4.25h-4.24v-4.25Zm8.48,0h4.24v4.25h-4.24v-4.25Zm4.24,0h4.24v4.25h-4.24v-4.25Zm4.24,0h4.24v4.25h-4.24v-4.25Zm8.49,0h4.24v4.25h-4.24v-4.25Zm8.48,0h4.24v4.25h-4.24v-4.25Zm4.24,0h4.24v4.25h-4.24v-4.25Zm4.24,0h4.24v4.25h-4.24v-4.25Zm4.24,0h4.24v4.25h-4.24v-4.25Zm25.45,0h4.24v4.25h-4.24v-4.25Zm4.24,0h4.24v4.25h-4.24v-4.25Zm-127.23,4.25h4.24v4.25h-4.24v-4.25Zm4.24,0h4.24v4.25h-4.24v-4.25Zm4.24,0h4.24v4.25h-4.24v-4.25Zm4.24,0h4.24v4.25h-4.24v-4.25Zm4.24,0h4.24v4.25h-4.24v-4.25Zm4.24,0h4.24v4.25h-4.24v-4.25Zm4.24,0h4.24v4.25h-4.24v-4.25Zm8.48,0h4.25v4.25h-4.25v-4.25Zm12.73,0h4.24v4.25h-4.24v-4.25Zm4.24,0h4.24v4.25h-4.24v-4.25Zm4.24,0h4.24v4.25h-4.24v-4.25Zm4.24,0h4.24v4.25h-4.24v-4.25Zm4.24,0h4.24v4.25h-4.24v-4.25Zm8.48,0h4.25v4.25h-4.25v-4.25Zm12.73,0h4.24v4.25h-4.24v-4.25Zm8.48,0h4.24v4.25h-4.24v-4.25Zm4.24,0h4.24v4.25h-4.24v-4.25Zm4.24,0h4.24v4.25h-4.24v-4.25Zm8.48,0h4.24v4.25h-4.24v-4.25Zm4.24,0h4.25v4.25h-4.25v-4.25Zm4.25,0h4.24v4.25h-4.24v-4.25Zm12.72,0h4.24v4.25h-4.24v-4.25Z" transform="translate(-896 -213)"/>
    <text id="_456_66" data-name="€ 456,58" class="cls-5" transform="translate(57.839 172.611) scale(1.583 1.586)">€ 456,58</text>
    <text id="Valid_2_days" data-name="Geldig 2 weken" class="cls-6" transform="translate(58.588 112.34) scale(1.583 1.586)">Geldig 2 weken</text>
    <text id="Kindpakket" class="cls-7" transform="translate(56.422 77.446) scale(1.583 1.586)">Kindpakket</text>
  </g>
  <g id="Voucher_copy" data-name="Voucher copy">
    <g id="Base-2" data-name="Base">
      <path class="cls-8" d="M1555.24,372.144a42.936,42.936,0,0,0,0,85.872v36.575a15.867,15.867,0,0,1-15.83,15.9H1021.67A12.694,12.694,0,0,1,1009,497.772V332.388a12.694,12.694,0,0,1,12.67-12.721h517.74a15.868,15.868,0,0,1,15.83,15.9v36.575Z" transform="translate(-896 -213)"/>
      <path class="cls-9" d="M1332.75,320.164h180.12V511H1332.75V320.164Z" transform="translate(-896 -213)"/>
      <path class="cls-10" d="M1555.99,372.645a42.938,42.938,0,0,0,0,85.875V511H1332.67V320.165h223.32v52.48m0-52.48H1332.67V511h223.32V458.52a42.938,42.938,0,0,1,0-85.875v-52.48" transform="translate(-896 -213)"/>
    </g>
    <path id="QR-2" data-name="QR" class="cls-4" d="M1352.78,345.275h4.25v4.261h-4.25v-4.261Zm4.25,0h4.24v4.261h-4.24v-4.261Zm4.24,0h4.24v4.261h-4.24v-4.261Zm4.24,0h4.25v4.261h-4.25v-4.261Zm4.25,0H1374v4.261h-4.24v-4.261Zm4.24,0h4.25v4.261H1374v-4.261Zm4.25,0h4.24v4.261h-4.24v-4.261Zm12.73,0h4.25v4.261h-4.25v-4.261Zm8.49,0h4.24v4.261h-4.24v-4.261Zm25.47,0h4.24v4.261h-4.24v-4.261Zm4.24,0h4.25v4.261h-4.25v-4.261Zm4.25,0h4.24v4.261h-4.24v-4.261Zm4.24,0h4.24v4.261h-4.24v-4.261Zm12.73,0h4.25v4.261h-4.25v-4.261Zm12.74,0h4.24v4.261h-4.24v-4.261Zm4.24,0h4.25v4.261h-4.25v-4.261Zm4.25,0h4.24v4.261h-4.24v-4.261Zm4.24,0h4.24v4.261h-4.24v-4.261Zm4.24,0h4.25v4.261h-4.25v-4.261Zm4.25,0h4.24v4.261h-4.24v-4.261Zm4.24,0h4.25v4.261h-4.25v-4.261Zm-135.82,4.261h4.25V353.8h-4.25v-4.261Zm25.47,0h4.24V353.8h-4.24v-4.261Zm8.49,0h4.24V353.8h-4.24v-4.261Zm4.24,0h4.25V353.8h-4.25v-4.261Zm4.25,0h4.24V353.8h-4.24v-4.261Zm12.73,0h4.24V353.8h-4.24v-4.261Zm4.24,0h4.25V353.8h-4.25v-4.261Zm4.25,0h4.24V353.8h-4.24v-4.261Zm4.24,0h4.25V353.8h-4.25v-4.261Zm16.98,0h4.24V353.8h-4.24v-4.261Zm4.24,0h4.25V353.8h-4.25v-4.261Zm21.23,0h4.24V353.8h-4.24v-4.261Zm25.46,0h4.25V353.8h-4.25v-4.261ZM1352.78,353.8h4.25v4.261h-4.25V353.8Zm8.49,0h4.24v4.261h-4.24V353.8Zm4.24,0h4.25v4.261h-4.25V353.8Zm4.25,0H1374v4.261h-4.24V353.8Zm8.49,0h4.24v4.261h-4.24V353.8Zm12.73,0h4.25v4.261h-4.25V353.8Zm4.25,0h4.24v4.261h-4.24V353.8Zm4.24,0h4.24v4.261h-4.24V353.8Zm4.24,0h4.25v4.261h-4.25V353.8Zm38.2,0h4.25v4.261h-4.25V353.8Zm4.25,0h4.24v4.261h-4.24V353.8Zm4.24,0h4.25v4.261h-4.25V353.8Zm4.25,0h4.24v4.261h-4.24V353.8Zm8.49,0h4.24v4.261h-4.24V353.8Zm8.49,0h4.24v4.261h-4.24V353.8Zm4.24,0h4.24v4.261h-4.24V353.8Zm4.24,0h4.25v4.261h-4.25V353.8Zm8.49,0h4.25v4.261h-4.25V353.8Zm-135.82,4.261h4.25v4.261h-4.25v-4.261Zm8.49,0h4.24v4.261h-4.24v-4.261Zm4.24,0h4.25v4.261h-4.25v-4.261Zm4.25,0H1374v4.261h-4.24v-4.261Zm8.49,0h4.24v4.261h-4.24v-4.261Zm8.49,0h4.24v4.261h-4.24v-4.261Zm8.49,0h4.24v4.261h-4.24v-4.261Zm4.24,0h4.24v4.261h-4.24v-4.261Zm4.24,0h4.25v4.261h-4.25v-4.261Zm4.25,0h4.24v4.261h-4.24v-4.261Zm4.24,0h4.25v4.261h-4.25v-4.261Zm4.25,0h4.24v4.261h-4.24v-4.261Zm4.24,0h4.25v4.261h-4.25v-4.261Zm4.25,0h4.24v4.261h-4.24v-4.261Zm21.22,0h4.24v4.261h-4.24v-4.261Zm4.24,0h4.25v4.261h-4.25v-4.261Zm4.25,0h4.24v4.261h-4.24v-4.261Zm8.49,0h4.24v4.261h-4.24v-4.261Zm8.49,0h4.24v4.261h-4.24v-4.261Zm4.24,0h4.24v4.261h-4.24v-4.261Zm4.24,0h4.25v4.261h-4.25v-4.261Zm8.49,0h4.25v4.261h-4.25v-4.261Zm-135.82,4.261h4.25v4.261h-4.25v-4.261Zm8.49,0h4.24v4.261h-4.24v-4.261Zm4.24,0h4.25v4.261h-4.25v-4.261Zm4.25,0H1374v4.261h-4.24v-4.261Zm8.49,0h4.24v4.261h-4.24v-4.261Zm12.73,0h4.25v4.261h-4.25v-4.261Zm4.25,0h4.24v4.261h-4.24v-4.261Zm4.24,0h4.24v4.261h-4.24v-4.261Zm12.73,0h4.25v4.261h-4.25v-4.261Zm8.49,0h4.25v4.261h-4.25v-4.261Zm12.74,0h4.24v4.261h-4.24v-4.261Zm4.24,0h4.24v4.261h-4.24v-4.261Zm12.73,0h4.25v4.261h-4.25v-4.261Zm12.74,0h4.24v4.261h-4.24v-4.261Zm8.49,0h4.24v4.261h-4.24v-4.261Zm4.24,0h4.24v4.261h-4.24v-4.261Zm4.24,0h4.25v4.261h-4.25v-4.261Zm8.49,0h4.25v4.261h-4.25v-4.261Zm-135.82,4.261h4.25v4.261h-4.25V366.58Zm25.47,0h4.24v4.261h-4.24V366.58Zm8.49,0h4.24v4.261h-4.24V366.58Zm4.24,0h4.25v4.261h-4.25V366.58Zm4.25,0h4.24v4.261h-4.24V366.58Zm21.22,0h4.24v4.261h-4.24V366.58Zm12.73,0h4.25v4.261h-4.25V366.58Zm8.49,0h4.24v4.261h-4.24V366.58Zm8.49,0h4.24v4.261h-4.24V366.58Zm16.98,0h4.24v4.261h-4.24V366.58Zm25.46,0h4.25v4.261h-4.25V366.58Zm-135.82,4.261h4.25V375.1h-4.25v-4.261Zm4.25,0h4.24V375.1h-4.24v-4.261Zm4.24,0h4.24V375.1h-4.24v-4.261Zm4.24,0h4.25V375.1h-4.25v-4.261Zm4.25,0H1374V375.1h-4.24v-4.261Zm4.24,0h4.25V375.1H1374v-4.261Zm4.25,0h4.24V375.1h-4.24v-4.261Zm8.49,0h4.24V375.1h-4.24v-4.261Zm8.49,0h4.24V375.1h-4.24v-4.261Zm8.48,0h4.25V375.1h-4.25v-4.261Zm8.49,0h4.25V375.1h-4.25v-4.261Zm8.49,0h4.25V375.1h-4.25v-4.261Zm8.49,0h4.25V375.1h-4.25v-4.261Zm8.49,0h4.24V375.1h-4.24v-4.261Zm8.49,0h4.24V375.1h-4.24v-4.261Zm8.49,0h4.24V375.1h-4.24v-4.261Zm8.49,0h4.24V375.1h-4.24v-4.261Zm4.24,0h4.25V375.1h-4.25v-4.261Zm4.25,0h4.24V375.1h-4.24v-4.261Zm4.24,0h4.24V375.1h-4.24v-4.261Zm4.24,0h4.25V375.1h-4.25v-4.261Zm4.25,0h4.24V375.1h-4.24v-4.261Zm4.24,0h4.25V375.1h-4.25v-4.261Zm-97.62,4.261h4.25v4.262h-4.25V375.1Zm8.49,0h4.24v4.262h-4.24V375.1Zm4.24,0h4.25v4.262h-4.25V375.1Zm12.74,0h4.24v4.262h-4.24V375.1Zm4.24,0h4.25v4.262h-4.25V375.1Zm8.49,0h4.25v4.262h-4.25V375.1Zm4.25,0h4.24v4.262h-4.24V375.1Zm8.48,0h4.25v4.262h-4.25V375.1Zm8.49,0h4.25v4.262h-4.25V375.1Zm-97.62,4.262h4.25v4.26h-4.25v-4.26Zm4.25,0h4.24v4.26h-4.24v-4.26Zm4.24,0h4.24v4.26h-4.24v-4.26Zm4.24,0h4.25v4.26h-4.25v-4.26Zm4.25,0H1374v4.26h-4.24v-4.26Zm8.49,0h4.24v4.26h-4.24v-4.26Zm4.24,0h4.25v4.26h-4.25v-4.26Zm4.25,0h4.24v4.26h-4.24v-4.26Zm4.24,0h4.25v4.26h-4.25v-4.26Zm8.49,0h4.24v4.26h-4.24v-4.26Zm4.24,0h4.25v4.26h-4.25v-4.26Zm4.25,0h4.24v4.26h-4.24v-4.26Zm4.24,0h4.25v4.26h-4.25v-4.26Zm4.25,0h4.24v4.26h-4.24v-4.26Zm4.24,0h4.25v4.26h-4.25v-4.26Zm4.25,0h4.24v4.26h-4.24v-4.26Zm21.22,0h4.24v4.26h-4.24v-4.26Zm4.24,0h4.25v4.26h-4.25v-4.26Zm4.25,0h4.24v4.26h-4.24v-4.26Zm4.24,0h4.25v4.26h-4.25v-4.26Zm8.49,0h4.25v4.26h-4.25v-4.26Zm8.49,0h4.24v4.26h-4.24v-4.26Zm8.49,0h4.24v4.26h-4.24v-4.26Zm-131.58,4.26h4.25v4.261h-4.25v-4.261Zm8.49,0h4.24v4.261h-4.24v-4.261Zm4.24,0h4.25v4.261h-4.25v-4.261Zm4.25,0H1374v4.261h-4.24v-4.261Zm4.24,0h4.25v4.261H1374v-4.261Zm12.74,0h4.24v4.261h-4.24v-4.261Zm12.73,0h4.24v4.261h-4.24v-4.261Zm8.49,0h4.24v4.261h-4.24v-4.261Zm12.73,0h4.25v4.261h-4.25v-4.261Zm8.49,0h4.25v4.261h-4.25v-4.261Zm4.25,0h4.24v4.261h-4.24v-4.261Zm4.24,0h4.24v4.261h-4.24v-4.261Zm4.24,0h4.25v4.261h-4.25v-4.261Zm8.49,0h4.25v4.261h-4.25v-4.261Zm4.25,0h4.24v4.261h-4.24v-4.261Zm8.49,0h4.24v4.261h-4.24v-4.261Zm16.97,0h4.25v4.261h-4.25v-4.261Zm4.25,0h4.24v4.261h-4.24v-4.261Zm4.24,0h4.25v4.261h-4.25v-4.261Zm-135.82,4.261h4.25v4.261h-4.25v-4.261Zm4.25,0h4.24v4.261h-4.24v-4.261Zm12.73,0H1374v4.261h-4.24v-4.261Zm8.49,0h4.24v4.261h-4.24v-4.261Zm16.98,0h4.24v4.261h-4.24v-4.261Zm12.73,0h4.24v4.261h-4.24v-4.261Zm8.49,0h4.24v4.261h-4.24v-4.261Zm4.24,0h4.25v4.261h-4.25v-4.261Zm8.49,0h4.25v4.261h-4.25v-4.261Zm8.49,0h4.24v4.261h-4.24v-4.261Zm4.24,0h4.25v4.261h-4.25v-4.261Zm4.25,0h4.24v4.261h-4.24v-4.261Zm12.73,0h4.25v4.261h-4.25v-4.261Zm4.25,0h4.24v4.261h-4.24v-4.261Zm4.24,0h4.25v4.261h-4.25v-4.261Zm4.25,0h4.24v4.261h-4.24v-4.261Zm4.24,0h4.24v4.261h-4.24v-4.261Zm8.49,0h4.24v4.261h-4.24v-4.261Zm-123.09,4.261h4.24v4.262h-4.24v-4.262Zm4.24,0h4.25v4.262h-4.25v-4.262Zm8.49,0h4.25v4.262H1374v-4.262Zm8.49,0h4.25v4.262h-4.25v-4.262Zm4.25,0h4.24v4.262h-4.24v-4.262Zm16.97,0h4.25v4.262h-4.25v-4.262Zm8.49,0h4.25v4.262h-4.25v-4.262Zm21.23,0h4.24v4.262h-4.24v-4.262Zm4.24,0h4.24v4.262h-4.24v-4.262Zm4.24,0h4.25v4.262h-4.25v-4.262Zm8.49,0h4.25v4.262h-4.25v-4.262Zm12.74,0h4.24v4.262h-4.24v-4.262Zm4.24,0h4.25v4.262h-4.25v-4.262Zm12.73,0h4.25v4.262h-4.25v-4.262Zm-127.33,4.262h4.25v4.261h-4.25v-4.261Zm4.25,0h4.24v4.261h-4.24v-4.261Zm4.24,0h4.24v4.261h-4.24v-4.261Zm16.98,0h4.24v4.261h-4.24v-4.261Zm4.24,0h4.25v4.261h-4.25v-4.261Zm4.25,0h4.24v4.261h-4.24v-4.261Zm4.24,0h4.25v4.261h-4.25v-4.261Zm4.25,0h4.24v4.261h-4.24v-4.261Zm8.48,0h4.25v4.261h-4.25v-4.261Zm8.49,0h4.25v4.261h-4.25v-4.261Zm4.25,0h4.24v4.261h-4.24v-4.261Zm8.49,0h4.24v4.261h-4.24v-4.261Zm8.49,0h4.24v4.261h-4.24v-4.261Zm4.24,0h4.24v4.261h-4.24v-4.261Zm8.49,0h4.24v4.261h-4.24v-4.261Zm4.24,0h4.25v4.261h-4.25v-4.261Zm4.25,0h4.24v4.261h-4.24v-4.261Zm16.98,0h4.24v4.261h-4.24v-4.261Zm4.24,0h4.24v4.261h-4.24v-4.261Zm-118.84,4.261h4.24v4.261h-4.24v-4.261Zm4.24,0h4.24v4.261h-4.24v-4.261Zm8.49,0H1374v4.261h-4.24v-4.261Zm21.22,0h4.25v4.261h-4.25v-4.261Zm8.49,0h4.24v4.261h-4.24v-4.261Zm8.49,0h4.24v4.261h-4.24v-4.261Zm4.24,0h4.25v4.261h-4.25v-4.261Zm8.49,0h4.25v4.261h-4.25v-4.261Zm4.25,0h4.24v4.261h-4.24v-4.261Zm4.24,0h4.25v4.261h-4.25v-4.261Zm8.49,0h4.24v4.261h-4.24v-4.261Zm4.24,0h4.25v4.261h-4.25v-4.261Zm4.25,0h4.24v4.261h-4.24v-4.261Zm4.24,0h4.25v4.261h-4.25v-4.261Zm12.74,0h4.24v4.261h-4.24v-4.261Zm21.22,0h4.24v4.261h-4.24v-4.261Zm4.24,0h4.25v4.261h-4.25v-4.261ZM1374,404.93h4.25v4.261H1374V404.93Zm4.25,0h4.24v4.261h-4.24V404.93Zm4.24,0h4.25v4.261h-4.25V404.93Zm4.25,0h4.24v4.261h-4.24V404.93Zm4.24,0h4.25v4.261h-4.25V404.93Zm12.73,0h4.25v4.261h-4.25V404.93Zm4.25,0h4.24v4.261h-4.24V404.93Zm4.24,0h4.25v4.261h-4.25V404.93Zm4.25,0h4.24v4.261h-4.24V404.93Zm4.24,0h4.25v4.261h-4.25V404.93Zm8.49,0h4.25v4.261h-4.25V404.93Zm8.49,0h4.24v4.261h-4.24V404.93Zm4.24,0h4.25v4.261h-4.25V404.93Zm16.98,0h4.25v4.261h-4.25V404.93Zm4.25,0h4.24v4.261h-4.24V404.93Zm8.49,0h4.24v4.261h-4.24V404.93Zm12.73,0h4.24v4.261h-4.24V404.93Zm-131.58,4.261h4.25v4.261h-4.25v-4.261Zm8.49,0h4.24v4.261h-4.24v-4.261Zm4.24,0h4.25v4.261h-4.25v-4.261Zm16.98,0h4.25v4.261h-4.25v-4.261Zm21.22,0h4.25v4.261h-4.25v-4.261Zm8.49,0h4.25v4.261h-4.25v-4.261Zm4.25,0h4.24v4.261h-4.24v-4.261Zm4.24,0h4.25v4.261h-4.25v-4.261Zm12.74,0h4.24v4.261h-4.24v-4.261Zm8.48,0h4.25v4.261h-4.25v-4.261Zm12.74,0h4.24v4.261h-4.24v-4.261Zm8.49,0h4.24v4.261h-4.24v-4.261Zm8.49,0h4.24v4.261h-4.24v-4.261Zm8.48,0h4.25v4.261h-4.25v-4.261Zm-118.84,4.261h4.24v4.261h-4.24v-4.261Zm8.49,0H1374v4.261h-4.24v-4.261Zm4.24,0h4.25v4.261H1374v-4.261Zm4.25,0h4.24v4.261h-4.24v-4.261Zm4.24,0h4.25v4.261h-4.25v-4.261Zm4.25,0h4.24v4.261h-4.24v-4.261Zm21.22,0h4.24v4.261h-4.24v-4.261Zm4.24,0h4.25v4.261h-4.25v-4.261Zm4.25,0h4.24v4.261h-4.24v-4.261Zm8.49,0h4.24v4.261h-4.24v-4.261Zm8.49,0h4.24v4.261h-4.24v-4.261Zm12.73,0h4.24v4.261h-4.24v-4.261Zm4.24,0h4.25v4.261h-4.25v-4.261Zm4.25,0h4.24v4.261h-4.24v-4.261Zm4.24,0h4.25v4.261h-4.25v-4.261Zm8.49,0h4.25v4.261h-4.25v-4.261Zm4.25,0h4.24v4.261h-4.24v-4.261Zm12.73,0h4.24v4.261h-4.24v-4.261Zm-131.58,4.261h4.25v4.261h-4.25v-4.261Zm16.98,0H1374v4.261h-4.24v-4.261Zm12.73,0h4.25v4.261h-4.25v-4.261Zm4.25,0h4.24v4.261h-4.24v-4.261Zm8.49,0h4.24v4.261h-4.24v-4.261Zm4.24,0h4.24v4.261h-4.24v-4.261Zm8.49,0h4.24v4.261h-4.24v-4.261Zm12.73,0h4.25v4.261h-4.25v-4.261Zm8.49,0h4.25v4.261h-4.25v-4.261Zm4.25,0h4.24v4.261h-4.24v-4.261Zm4.24,0h4.24v4.261h-4.24v-4.261Zm4.24,0h4.25v4.261h-4.25v-4.261Zm8.49,0h4.25v4.261h-4.25v-4.261Zm12.74,0h4.24v4.261h-4.24v-4.261Zm12.73,0h4.24v4.261h-4.24v-4.261Zm8.49,0h4.24v4.261h-4.24v-4.261Zm4.24,0h4.25v4.261h-4.25v-4.261Zm-127.33,4.261h4.24v4.261h-4.24v-4.261Zm4.24,0h4.25v4.261h-4.25v-4.261Zm4.25,0H1374v4.261h-4.24v-4.261Zm4.24,0h4.25v4.261H1374v-4.261Zm4.25,0h4.24v4.261h-4.24v-4.261Zm12.73,0h4.25v4.261h-4.25v-4.261Zm4.25,0h4.24v4.261h-4.24v-4.261Zm8.48,0h4.25v4.261h-4.25v-4.261Zm4.25,0h4.24v4.261h-4.24v-4.261Zm8.49,0h4.24v4.261h-4.24v-4.261Zm8.49,0h4.24v4.261h-4.24v-4.261Zm16.97,0h4.25v4.261h-4.25v-4.261Zm12.74,0h4.24v4.261h-4.24v-4.261Zm4.24,0h4.25v4.261h-4.25v-4.261Zm8.49,0h4.25v4.261h-4.25v-4.261Zm8.49,0h4.24v4.261h-4.24v-4.261Zm8.49,0h4.24v4.261h-4.24v-4.261Zm-131.58,4.261h4.25V430.5h-4.25v-4.261Zm4.25,0h4.24V430.5h-4.24v-4.261Zm4.24,0h4.24V430.5h-4.24v-4.261Zm12.73,0h4.25V430.5H1374v-4.261Zm8.49,0h4.25V430.5h-4.25v-4.261Zm4.25,0h4.24V430.5h-4.24v-4.261Zm4.24,0h4.25V430.5h-4.25v-4.261Zm21.22,0h4.25V430.5h-4.25v-4.261Zm29.71,0h4.25V430.5h-4.25v-4.261Zm4.25,0h4.24V430.5h-4.24v-4.261Zm4.24,0h4.25V430.5h-4.25v-4.261Zm12.74,0h4.24V430.5h-4.24v-4.261Zm4.24,0h4.25V430.5h-4.25v-4.261Zm4.25,0h4.24V430.5h-4.24v-4.261Zm8.48,0h4.25V430.5h-4.25v-4.261ZM1352.78,430.5h4.25v4.261h-4.25V430.5Zm16.98,0H1374v4.261h-4.24V430.5Zm4.24,0h4.25v4.261H1374V430.5Zm4.25,0h4.24v4.261h-4.24V430.5Zm12.73,0h4.25v4.261h-4.25V430.5Zm4.25,0h4.24v4.261h-4.24V430.5Zm8.48,0h4.25v4.261h-4.25V430.5Zm4.25,0h4.24v4.261h-4.24V430.5Zm4.24,0h4.25v4.261h-4.25V430.5Zm4.25,0h4.24v4.261h-4.24V430.5Zm4.24,0h4.25v4.261h-4.25V430.5Zm4.25,0h4.24v4.261h-4.24V430.5Zm12.73,0h4.24v4.261h-4.24V430.5Zm8.49,0h4.24v4.261h-4.24V430.5Zm4.24,0h4.25v4.261h-4.25V430.5Zm4.25,0h4.24v4.261h-4.24V430.5Zm4.24,0h4.25v4.261h-4.25V430.5Zm8.49,0h4.25v4.261h-4.25V430.5Zm4.25,0h4.24v4.261h-4.24V430.5Zm12.73,0h4.24v4.261h-4.24V430.5Zm-131.58,4.261h4.25v4.261h-4.25v-4.261Zm4.25,0h4.24v4.261h-4.24v-4.261Zm8.48,0h4.25v4.261h-4.25v-4.261Zm4.25,0H1374v4.261h-4.24v-4.261Zm4.24,0h4.25v4.261H1374v-4.261Zm16.98,0h4.25v4.261h-4.25v-4.261Zm8.49,0h4.24v4.261h-4.24v-4.261Zm12.73,0h4.25v4.261h-4.25v-4.261Zm8.49,0h4.25v4.261h-4.25v-4.261Zm4.25,0h4.24v4.261h-4.24v-4.261Zm4.24,0h4.25v4.261h-4.25v-4.261Zm4.25,0h4.24v4.261h-4.24v-4.261Zm4.24,0h4.24v4.261h-4.24v-4.261Zm12.73,0h4.25v4.261h-4.25v-4.261Zm4.25,0h4.24v4.261h-4.24v-4.261Zm8.49,0h4.24v4.261h-4.24v-4.261Zm12.73,0h4.24v4.261h-4.24v-4.261Zm8.49,0h4.24v4.261h-4.24v-4.261Zm4.24,0h4.25v4.261h-4.25v-4.261Zm-135.82,4.261h4.25v4.261h-4.25v-4.261Zm8.49,0h4.24v4.261h-4.24v-4.261Zm12.73,0h4.25v4.261H1374v-4.261Zm4.25,0h4.24v4.261h-4.24v-4.261Zm4.24,0h4.25v4.261h-4.25v-4.261Zm12.74,0h4.24v4.261h-4.24v-4.261Zm8.48,0h4.25v4.261h-4.25v-4.261Zm4.25,0h4.24v4.261h-4.24v-4.261Zm4.24,0h4.25v4.261h-4.25v-4.261Zm4.25,0h4.24v4.261h-4.24v-4.261Zm4.24,0h4.25v4.261h-4.25v-4.261Zm4.25,0h4.24v4.261h-4.24v-4.261Zm12.73,0h4.24v4.261h-4.24v-4.261Zm21.22,0h4.25v4.261h-4.25v-4.261Zm4.25,0h4.24v4.261h-4.24v-4.261Zm4.24,0h4.25v4.261h-4.25v-4.261Zm8.49,0h4.24v4.261h-4.24v-4.261Zm8.49,0h4.24v4.261h-4.24v-4.261Zm-131.58,4.261h4.25v4.261h-4.25v-4.261Zm21.22,0h4.25v4.261H1374v-4.261Zm8.49,0h4.25v4.261h-4.25v-4.261Zm4.25,0h4.24v4.261h-4.24v-4.261Zm12.73,0h4.24v4.261h-4.24v-4.261Zm12.73,0h4.25v4.261h-4.25v-4.261Zm4.25,0h4.24v4.261h-4.24v-4.261Zm12.73,0h4.25v4.261h-4.25v-4.261Zm4.25,0h4.24v4.261h-4.24v-4.261Zm4.24,0h4.24v4.261h-4.24v-4.261Zm4.24,0h4.25v4.261h-4.25v-4.261Zm4.25,0h4.24v4.261h-4.24v-4.261Zm4.24,0h4.25v4.261h-4.25v-4.261Zm4.25,0h4.24v4.261h-4.24v-4.261Zm4.24,0h4.25v4.261h-4.25v-4.261Zm4.25,0h4.24v4.261h-4.24v-4.261Zm12.73,0h4.24v4.261h-4.24v-4.261Zm4.24,0h4.25v4.261h-4.25v-4.261Zm-127.33,4.261h4.25V451.8h-4.25V447.54Zm8.49,0h4.24V451.8h-4.24V447.54Zm4.24,0h4.25V451.8h-4.25V447.54Zm8.49,0h4.25V451.8H1374V447.54Zm4.25,0h4.24V451.8h-4.24V447.54Zm12.73,0h4.25V451.8h-4.25V447.54Zm8.49,0h4.24V451.8h-4.24V447.54Zm4.24,0h4.25V451.8h-4.25V447.54Zm4.25,0h4.24V451.8h-4.24V447.54Zm4.24,0h4.25V451.8h-4.25V447.54Zm12.74,0h4.24V451.8h-4.24V447.54Zm4.24,0h4.25V451.8h-4.25V447.54Zm4.25,0h4.24V451.8h-4.24V447.54Zm4.24,0h4.24V451.8h-4.24V447.54Zm8.49,0h4.24V451.8h-4.24V447.54Zm8.49,0h4.24V451.8h-4.24V447.54Zm4.24,0h4.25V451.8h-4.25V447.54Zm4.25,0h4.24V451.8h-4.24V447.54Zm4.24,0h4.25V451.8h-4.25V447.54Zm4.25,0h4.24V451.8h-4.24V447.54Zm4.24,0h4.24V451.8h-4.24V447.54Zm12.73,0h4.25V451.8h-4.25V447.54ZM1386.74,451.8h4.24v4.261h-4.24V451.8Zm12.73,0h4.24v4.261h-4.24V451.8Zm21.22,0h4.25v4.261h-4.25V451.8Zm4.25,0h4.24v4.261h-4.24V451.8Zm8.49,0h4.24v4.261h-4.24V451.8Zm16.97,0h4.25v4.261h-4.25V451.8Zm4.25,0h4.24v4.261h-4.24V451.8Zm16.98,0h4.24v4.261h-4.24V451.8Zm16.97,0h4.25v4.261h-4.25V451.8Zm-135.82,4.261h4.25v4.262h-4.25v-4.262Zm4.25,0h4.24v4.262h-4.24v-4.262Zm4.24,0h4.24v4.262h-4.24v-4.262Zm4.24,0h4.25v4.262h-4.25v-4.262Zm4.25,0H1374v4.262h-4.24v-4.262Zm4.24,0h4.25v4.262H1374v-4.262Zm4.25,0h4.24v4.262h-4.24v-4.262Zm8.49,0h4.24v4.262h-4.24v-4.262Zm8.49,0h4.24v4.262h-4.24v-4.262Zm16.97,0h4.25v4.262h-4.25v-4.262Zm4.25,0h4.24v4.262h-4.24v-4.262Zm21.22,0h4.24v4.262h-4.24v-4.262Zm12.73,0h4.25v4.262h-4.25v-4.262Zm4.25,0h4.24v4.262h-4.24v-4.262Zm8.49,0h4.24v4.262h-4.24v-4.262Zm8.49,0h4.24v4.262h-4.24v-4.262Zm12.73,0h4.24v4.262h-4.24v-4.262Zm-131.58,4.262h4.25v4.261h-4.25v-4.261Zm25.47,0h4.24v4.261h-4.24v-4.261Zm16.98,0h4.24v4.261h-4.24v-4.261Zm8.48,0h4.25v4.261h-4.25v-4.261Zm12.74,0h4.24v4.261h-4.24v-4.261Zm4.24,0h4.25v4.261h-4.25v-4.261Zm12.74,0h4.24v4.261h-4.24v-4.261Zm4.24,0h4.24v4.261h-4.24v-4.261Zm4.24,0h4.25v4.261h-4.25v-4.261Zm4.25,0h4.24v4.261h-4.24v-4.261Zm4.24,0h4.25v4.261h-4.25v-4.261Zm4.25,0h4.24v4.261h-4.24v-4.261Zm16.98,0h4.24v4.261h-4.24v-4.261Zm4.24,0h4.24v4.261h-4.24v-4.261Zm4.24,0h4.25v4.261h-4.25v-4.261Zm4.25,0h4.24v4.261h-4.24v-4.261Zm-131.58,4.261h4.25v4.261h-4.25v-4.261Zm8.49,0h4.24v4.261h-4.24v-4.261Zm4.24,0h4.25v4.261h-4.25v-4.261Zm4.25,0H1374v4.261h-4.24v-4.261Zm8.49,0h4.24v4.261h-4.24v-4.261Zm8.49,0h4.24v4.261h-4.24v-4.261Zm4.24,0h4.25v4.261h-4.25v-4.261Zm4.25,0h4.24v4.261h-4.24v-4.261Zm4.24,0h4.24v4.261h-4.24v-4.261Zm4.24,0h4.25v4.261h-4.25v-4.261Zm4.25,0h4.24v4.261h-4.24v-4.261Zm8.49,0h4.24v4.261h-4.24v-4.261Zm16.98,0h4.24v4.261h-4.24v-4.261Zm12.73,0h4.24v4.261h-4.24v-4.261Zm8.49,0h4.24v4.261h-4.24v-4.261Zm4.24,0h4.25v4.261h-4.25v-4.261Zm4.25,0h4.24v4.261h-4.24v-4.261Zm4.24,0h4.25v4.261h-4.25v-4.261Zm4.25,0h4.24v4.261h-4.24v-4.261Zm4.24,0h4.24v4.261h-4.24v-4.261Zm8.49,0h4.24v4.261h-4.24v-4.261Zm4.24,0h4.25v4.261h-4.25v-4.261Zm-135.82,4.261h4.25v4.261h-4.25v-4.261Zm8.49,0h4.24v4.261h-4.24v-4.261Zm4.24,0h4.25v4.261h-4.25v-4.261Zm4.25,0H1374v4.261h-4.24v-4.261Zm8.49,0h4.24v4.261h-4.24v-4.261Zm8.49,0h4.24v4.261h-4.24v-4.261Zm4.24,0h4.25v4.261h-4.25v-4.261Zm8.49,0h4.24v4.261h-4.24v-4.261Zm8.49,0h4.24v4.261h-4.24v-4.261Zm4.24,0h4.25v4.261h-4.25v-4.261Zm8.49,0h4.25v4.261h-4.25v-4.261Zm12.74,0h4.24v4.261h-4.24v-4.261Zm8.48,0h4.25v4.261h-4.25v-4.261Zm8.49,0h4.25v4.261h-4.25v-4.261Zm4.25,0h4.24v4.261h-4.24v-4.261Zm4.24,0h4.25v4.261h-4.25v-4.261Zm8.49,0h4.25v4.261h-4.25v-4.261Zm4.25,0h4.24v4.261h-4.24v-4.261Zm4.24,0h4.24v4.261h-4.24v-4.261Zm4.24,0h4.25v4.261h-4.25v-4.261Zm-127.33,4.261h4.25v4.261h-4.25v-4.261Zm8.49,0h4.24v4.261h-4.24v-4.261Zm4.24,0h4.25v4.261h-4.25v-4.261Zm4.25,0H1374v4.261h-4.24v-4.261Zm8.49,0h4.24v4.261h-4.24v-4.261Zm8.49,0h4.24v4.261h-4.24v-4.261Zm4.24,0h4.25v4.261h-4.25v-4.261Zm21.22,0h4.25v4.261h-4.25v-4.261Zm4.25,0h4.24v4.261h-4.24v-4.261Zm4.24,0h4.25v4.261h-4.25v-4.261Zm4.25,0h4.24v4.261h-4.24v-4.261Zm4.24,0h4.25v4.261h-4.25v-4.261Zm12.73,0h4.25v4.261h-4.25v-4.261Zm4.25,0h4.24v4.261h-4.24v-4.261Zm4.24,0h4.25v4.261h-4.25v-4.261Zm4.25,0h4.24v4.261h-4.24v-4.261Zm4.24,0h4.25v4.261h-4.25v-4.261Zm4.25,0h4.24v4.261h-4.24v-4.261Zm12.73,0h4.24v4.261h-4.24v-4.261Zm4.24,0h4.25v4.261h-4.25v-4.261Zm4.25,0h4.24v4.261h-4.24v-4.261Zm-131.58,4.261h4.25v4.261h-4.25v-4.261Zm25.47,0h4.24v4.261h-4.24v-4.261Zm8.49,0h4.24v4.261h-4.24v-4.261Zm8.49,0h4.24v4.261h-4.24v-4.261Zm4.24,0h4.24v4.261h-4.24v-4.261Zm4.24,0h4.25v4.261h-4.25v-4.261Zm8.49,0h4.25v4.261h-4.25v-4.261Zm4.25,0h4.24v4.261h-4.24v-4.261Zm4.24,0h4.25v4.261h-4.25v-4.261Zm8.49,0h4.25v4.261h-4.25v-4.261Zm8.49,0h4.24v4.261h-4.24v-4.261Zm4.24,0h4.25v4.261h-4.25v-4.261Zm4.25,0h4.24v4.261h-4.24v-4.261Zm4.24,0h4.25v4.261h-4.25v-4.261Zm25.47,0h4.24v4.261h-4.24v-4.261Zm4.24,0h4.25v4.261h-4.25v-4.261Zm-127.33,4.261h4.25v4.261h-4.25v-4.261Zm4.25,0h4.24v4.261h-4.24v-4.261Zm4.24,0h4.24v4.261h-4.24v-4.261Zm4.24,0h4.25v4.261h-4.25v-4.261Zm4.25,0H1374v4.261h-4.24v-4.261Zm4.24,0h4.25v4.261H1374v-4.261Zm4.25,0h4.24v4.261h-4.24v-4.261Zm8.49,0h4.24v4.261h-4.24v-4.261Zm12.73,0h4.24v4.261h-4.24v-4.261Zm4.24,0h4.25v4.261h-4.25v-4.261Zm4.25,0h4.24v4.261h-4.24v-4.261Zm4.24,0h4.25v4.261h-4.25v-4.261Zm4.25,0h4.24v4.261h-4.24v-4.261Zm8.49,0h4.24v4.261h-4.24v-4.261Zm12.73,0h4.24v4.261h-4.24v-4.261Zm8.49,0h4.24v4.261h-4.24v-4.261Zm4.24,0h4.25v4.261h-4.25v-4.261Zm4.25,0h4.24v4.261h-4.24v-4.261Zm8.49,0h4.24v4.261h-4.24v-4.261Zm4.24,0h4.25v4.261h-4.25v-4.261Zm4.25,0h4.24v4.261h-4.24v-4.261Zm12.73,0h4.24v4.261h-4.24v-4.261Z" transform="translate(-896 -213)"/>
    <text id="_456_66-2" data-name="€ 456,58" class="cls-5" transform="translate(145.865 265.69) scale(1.585 1.59)">€ 456,58</text>
    <text id="Valid_2_days-2" data-name="Geldig 2 weken" class="cls-6" transform="translate(146.616 205.262) scale(1.585 1.59)">Geldig 2 weken</text>
    <text id="Kindpakket-2" data-name="Meedoen" class="cls-7" transform="translate(144.446 170.275) scale(1.585 1.59)">Meedoen</text>
  </g>
</svg>
