<svg width="186" height="20" viewBox="0 0 186 20" fill="none" xmlns="http://www.w3.org/2000/svg">
<path d="M4.43534 12.9841V17.9967H0.321289V1.24512H7.06927C11.8437 1.24512 13.5744 2.98929 13.5744 6.68997V7.75922C13.5744 11.2551 11.8437 12.9841 7.06927 12.9841H4.43534ZM4.43534 4.86238V9.73089H7.03133C8.71642 9.73089 9.46026 9.23797 9.46026 7.36488V7.2208C9.46026 5.37046 8.71642 4.85479 7.03133 4.85479H4.43534V4.86238Z" fill="white"/>
<path d="M18.2654 8.27515H14.1513V7.67606C14.1513 4.58963 16.2083 3.0957 20.4666 3.0957C24.7249 3.0957 26.6832 4.61996 26.6832 8.4799V17.997H22.5692V14.6907C22.5692 16.9354 21.2105 18.1032 18.1894 18.1032C15.1684 18.1032 13.6807 16.7685 13.6807 14.1978V13.9703C13.6807 9.1169 19.0092 9.60982 22.5692 8.95765V8.54815C22.5692 7.02389 22.0758 6.57647 20.3072 6.57647C18.7436 6.57647 18.273 6.98597 18.273 7.88839V8.27515H18.2654ZM19.6848 15.5552C21.719 15.5552 22.5616 15.1229 22.5616 14.0992V11.6118C19.2521 12.1275 17.7872 12.1654 17.7872 13.811V13.993C17.7872 14.9788 18.364 15.5552 19.6772 15.5552H19.6848Z" fill="white"/>
<path d="M35.7766 3.0957C36.103 3.0957 36.3535 3.11845 36.5963 3.15637V8.00973C34.7822 7.51681 31.617 7.39547 31.617 9.94348V18.0046H27.5029V3.20187H31.617V8.91973C31.617 4.80954 32.9302 3.10329 35.7766 3.10329V3.0957Z" fill="white"/>
<path d="M38.9263 17.997V6.48543H37.0742V3.19425H38.9263V1.51074H43.0404V3.19425H45.7957V6.48543H43.0404V17.997H38.9263Z" fill="white"/>
<path d="M46.335 0.979492H50.449V2.72367H46.335V0.979492ZM46.335 3.20142H50.449V18.0041H46.335V3.20142Z" fill="white"/>
<path d="M64.6659 11.8313V12.1574C64.6659 16.0249 62.3432 18.0951 57.9179 18.0951C53.2649 18.0951 51.1699 15.7291 51.1699 11.2474V9.92785C51.1699 5.44608 53.2649 3.08008 57.9179 3.08008C62.5709 3.08008 64.6659 5.15792 64.6659 9.01785V9.34393H60.5518V9.2226C60.5518 7.28884 59.7092 6.77317 57.8951 6.77317C56.081 6.77317 55.284 7.53151 55.284 10.125V11.0274C55.284 13.6209 56.0886 14.3793 57.8951 14.3793C59.7017 14.3793 60.5518 13.8636 60.5518 11.9299V11.8085H64.6659V11.8313Z" fill="white"/>
<path d="M65.3037 0.979492H69.4177V2.72367H65.3037V0.979492ZM65.3037 3.20142H69.4177V18.0041H65.3037V3.20142Z" fill="white"/>
<path d="M74.3592 7.75947C74.3592 4.67304 75.6951 3.0957 78.6402 3.0957C82.2989 3.0957 83.7411 5.1508 83.7411 9.28373V11.1341C83.7411 15.449 82.2989 17.36 78.6402 17.36C75.6951 17.36 74.3592 15.9192 74.3592 12.6507V19.0208H70.2451V3.19429H74.3592V7.75947ZM74.3592 11.7862C74.3592 13.5987 75.141 14.1295 76.9552 14.1295C78.7693 14.1295 79.627 13.3484 79.627 10.3909V10.0041C79.627 7.08455 78.7617 6.32621 76.9552 6.32621C75.1486 6.32621 74.3592 6.84188 74.3592 8.60881V11.7938V11.7862Z" fill="white"/>
<path d="M88.8034 8.27515H84.6894V7.67606C84.6894 4.58963 86.7464 3.0957 91.0047 3.0957C95.2629 3.0957 97.2213 4.61996 97.2213 8.4799V17.997H93.1073V14.6907C93.1073 16.9354 91.7485 18.1032 88.7275 18.1032C85.7065 18.1032 84.2188 16.7685 84.2188 14.1978V13.9703C84.2188 9.1169 89.5473 9.60982 93.1073 8.95765V8.54815C93.1073 7.02389 92.6139 6.57647 90.8453 6.57647C89.2817 6.57647 88.811 6.98597 88.811 7.88839V8.27515H88.8034ZM90.2229 15.5552C92.2571 15.5552 93.1073 15.1229 93.1073 14.0992V11.6118C89.7978 12.1275 88.3328 12.1654 88.3328 13.811V13.993C88.3328 14.9788 88.9097 15.5552 90.2229 15.5552Z" fill="white"/>
<path d="M99.1949 17.997V6.48543H97.3428V3.19425H99.1949V1.51074H103.309V3.19425H106.064V6.48543H103.309V17.997H99.1949Z" fill="white"/>
<path d="M106.604 0.979492H110.718V2.72367H106.604V0.979492ZM106.604 3.20142H110.718V18.0041H106.604V3.20142Z" fill="white"/>
<path d="M115.576 11.7104C115.682 14.0537 116.418 14.6907 118.376 14.6907C119.674 14.6907 120.828 14.2812 120.828 12.8631V12.7569H124.942V13.0678C124.942 16.2529 122.635 18.1032 118.376 18.1032C113.541 18.1032 111.446 15.7599 111.446 11.2402V9.94349C111.446 5.43896 113.564 3.0957 118.255 3.0957C122.635 3.0957 124.942 5.11288 124.942 8.79082V11.7104H115.583H115.576ZM115.613 8.95765H120.821V8.87423C120.821 7.02389 119.978 6.50822 118.225 6.50822C116.661 6.50822 115.841 7.08456 115.613 8.95765Z" fill="white"/>
<path d="M133.823 17.996V10.989C133.823 9.19934 133.473 8.8505 132.669 8.8505C131.864 8.8505 131.515 9.48751 131.515 12.718V18.0036H125.754V3.20089H131.515V11.2772C131.515 4.94507 132.669 3.09473 135.485 3.09473C138.65 3.09473 139.576 4.53557 139.576 9.54817V11.2772C139.576 4.94507 140.73 3.09473 143.546 3.09473C146.711 3.09473 147.637 4.51282 147.637 9.4875V17.996H141.876V10.989C141.876 9.19934 141.527 8.8505 140.722 8.8505C139.918 8.8505 139.569 9.48751 139.569 12.718V18.0036H133.807L133.823 17.996Z" fill="#F98653"/>
<path d="M156.761 9.9198C156.761 16.2519 155.607 18.1023 152.624 18.1023C149.641 18.1023 148.692 16.6614 148.692 11.6488V3.20094H154.454V10.208C154.454 11.9977 154.803 12.3465 155.607 12.3465C156.412 12.3465 156.761 11.7095 156.761 8.47896V3.19336H162.522V17.9961H156.761V9.9198V9.9198Z" fill="#F98653"/>
<path d="M171.745 17.996V10.989C171.745 9.19934 171.395 8.8505 170.591 8.8505C169.786 8.8505 169.437 9.48751 169.437 12.718V18.0036H163.676V3.20089H169.437V11.2772C169.437 4.94507 170.591 3.09473 173.635 3.09473C176.678 3.09473 177.506 4.55073 177.506 9.54817V17.996H171.745V17.996Z" fill="#F98653"/>
<path d="M178.925 17.9962V7.80419H178.182V3.20109H178.925V1.51758H184.687V3.20109H186V7.80419H184.687V17.9962H178.925Z" fill="#F98653"/>
</svg>
