<svg xmlns="http://www.w3.org/2000/svg" width="220" height="42" fill="none" viewBox="0 0 220 42"><path fill="#fff" fill-rule="evenodd" d="M17.3294 10.8252L14.8852 11.7276L2.68724 16.2094L1.29061 16.7251V21.0855C0.258301 20.0466 0.0229935 18.7574 0.0078125 17.1952V30.5344C0.0078125 30.6178 0.00778841 30.6936 0.03056 30.7771C0.045741 30.8681 0.053376 30.9742 0.0761475 31.0652C0.235548 31.6946 0.62265 32.2482 1.19953 32.6046L1.40449 32.7184L3.52222 33.9469L15.1433 40.734C16.8132 41.7047 18.9234 40.5065 18.9234 38.5652V14.2605C18.9234 12.9258 18.3313 11.6669 17.3218 10.8252H17.3294Z" clip-rule="evenodd"/><path fill="#F98653" fill-rule="evenodd" d="M24.6388 1.00494L23.3712 1.46752L9.97395 6.40429L9.92841 6.42704H9.91321L2.41378 9.18739C2.18606 9.2708 1.98115 9.36939 1.7838 9.48314C0.683174 10.1353 0 11.3335 0 12.6454V30.527C0 30.6104 2.22384e-05 30.6862 0.0227938 30.7696C0.0379748 30.8606 0.0455635 30.9668 0.068335 31.0578C0.204964 31.71 0.607247 32.2636 1.19172 32.6124L1.41183 32.7413L1.39668 32.7186C0.850158 32.3166 0.493402 31.6721 0.493402 30.9289C0.493402 30.2312 0.812171 29.617 1.31314 29.215C1.44977 29.1013 1.6016 29.0103 1.76101 28.9269C1.89764 28.8586 18.9156 22.6024 18.9156 22.6024L24.3883 20.5852L24.9273 20.388C25.8154 20.0543 26.3998 19.2126 26.3998 18.2798V2.24102C26.3998 1.32344 25.489 0.686438 24.6236 1.00494H24.6388Z" clip-rule="evenodd"/><path fill="#fff" d="M38.4353 23.9841V28.9967H34.3213V12.2451H41.0693C45.8437 12.2451 47.5744 13.9893 47.5744 17.69V18.7592C47.5744 22.2551 45.8437 23.9841 41.0693 23.9841H38.4353ZM38.4353 15.8624V20.7309H41.0313C42.7164 20.7309 43.4603 20.238 43.4603 18.3649V18.2208C43.4603 16.3705 42.7164 15.8548 41.0313 15.8548H38.4353V15.8624Z"/><path fill="#fff" d="M52.2654 19.2751H48.1513V18.6761C48.1513 15.5896 50.2083 14.0957 54.4666 14.0957C58.7249 14.0957 60.6832 15.62 60.6832 19.4799V28.997H56.5692V25.6907C56.5692 27.9354 55.2105 29.1032 52.1894 29.1032C49.1684 29.1032 47.6807 27.7685 47.6807 25.1978V24.9703C47.6807 20.1169 53.0092 20.6098 56.5692 19.9577V19.5481C56.5692 18.0239 56.0758 17.5765 54.3072 17.5765C52.7436 17.5765 52.273 17.986 52.273 18.8884V19.2751H52.2654ZM53.6848 26.5552C55.719 26.5552 56.5616 26.1229 56.5616 25.0992V22.6118C53.2521 23.1275 51.7872 23.1654 51.7872 24.811V24.993C51.7872 25.9788 52.364 26.5552 53.6772 26.5552H53.6848Z"/><path fill="#fff" d="M69.7766 14.0957C70.103 14.0957 70.3535 14.1185 70.5963 14.1564V19.0097C68.7822 18.5168 65.617 18.3955 65.617 20.9435V29.0046H61.5029V14.2019H65.617V19.9197C65.617 15.8095 66.9302 14.1033 69.7766 14.1033V14.0957Z"/><path fill="#fff" d="M72.9263 28.997V17.4854H71.0742V14.1943H72.9263V12.5107H77.0404V14.1943H79.7957V17.4854H77.0404V28.997H72.9263Z"/><path fill="#fff" d="M80.335 11.9795H84.449V13.7237H80.335V11.9795ZM80.335 14.2014H84.449V29.0041H80.335V14.2014Z"/><path fill="#fff" d="M98.6659 22.8313V23.1574C98.6659 27.0249 96.3432 29.0951 91.9179 29.0951C87.2649 29.0951 85.1699 26.7291 85.1699 22.2474V20.9278C85.1699 16.4461 87.2649 14.0801 91.9179 14.0801C96.5709 14.0801 98.6659 16.1579 98.6659 20.0178V20.3439H94.5518V20.2226C94.5518 18.2888 93.7092 17.7732 91.8951 17.7732C90.081 17.7732 89.284 18.5315 89.284 21.125V22.0274C89.284 24.6209 90.0886 25.3793 91.8951 25.3793C93.7017 25.3793 94.5518 24.8636 94.5518 22.9299V22.8085H98.6659V22.8313Z"/><path fill="#fff" d="M99.3037 11.9795H103.418V13.7237H99.3037V11.9795ZM99.3037 14.2014H103.418V29.0041H99.3037V14.2014Z"/><path fill="#fff" d="M108.359 18.7595C108.359 15.673 109.695 14.0957 112.64 14.0957C116.299 14.0957 117.741 16.1508 117.741 20.2837V22.1341C117.741 26.449 116.299 28.36 112.64 28.36C109.695 28.36 108.359 26.9192 108.359 23.6507V30.0208H104.245V14.1943H108.359V18.7595ZM108.359 22.7862C108.359 24.5987 109.141 25.1295 110.955 25.1295C112.769 25.1295 113.627 24.3484 113.627 21.3909V21.0041C113.627 18.0845 112.762 17.3262 110.955 17.3262C109.149 17.3262 108.359 17.8419 108.359 19.6088V22.7938V22.7862Z"/><path fill="#fff" d="M122.803 19.2751H118.689V18.6761C118.689 15.5896 120.746 14.0957 125.005 14.0957C129.263 14.0957 131.221 15.62 131.221 19.4799V28.997H127.107V25.6907C127.107 27.9354 125.749 29.1032 122.728 29.1032C119.706 29.1032 118.219 27.7685 118.219 25.1978V24.9703C118.219 20.1169 123.547 20.6098 127.107 19.9577V19.5481C127.107 18.0239 126.614 17.5765 124.845 17.5765C123.282 17.5765 122.811 17.986 122.811 18.8884V19.2751H122.803ZM124.223 26.5552C126.257 26.5552 127.107 26.1229 127.107 25.0992V22.6118C123.798 23.1275 122.333 23.1654 122.333 24.811V24.993C122.333 25.9788 122.91 26.5552 124.223 26.5552Z"/><path fill="#fff" d="M133.195 28.997V17.4854H131.343V14.1943H133.195V12.5107H137.309V14.1943H140.064V17.4854H137.309V28.997H133.195Z"/><path fill="#fff" d="M140.604 11.9795H144.718V13.7237H140.604V11.9795ZM140.604 14.2014H144.718V29.0041H140.604V14.2014Z"/><path fill="#fff" d="M149.576 22.7104C149.682 25.0537 150.418 25.6907 152.376 25.6907C153.674 25.6907 154.828 25.2812 154.828 23.8631V23.7569H158.942V24.0678C158.942 27.2529 156.635 29.1032 152.376 29.1032C147.541 29.1032 145.446 26.7599 145.446 22.2402V20.9435C145.446 16.439 147.564 14.0957 152.255 14.0957C156.635 14.0957 158.942 16.1129 158.942 19.7908V22.7104H149.583H149.576ZM149.613 19.9577H154.821V19.8742C154.821 18.0239 153.978 17.5082 152.225 17.5082C150.661 17.5082 149.841 18.0846 149.613 19.9577Z"/><path fill="#F98653" d="M167.823 28.996V21.989C167.823 20.1993 167.473 19.8505 166.669 19.8505C165.864 19.8505 165.515 20.4875 165.515 23.718V29.0036H159.754V14.2009H165.515V22.2772C165.515 15.9451 166.669 14.0947 169.485 14.0947C172.65 14.0947 173.576 15.5356 173.576 20.5482V22.2772C173.576 15.9451 174.73 14.0947 177.546 14.0947C180.711 14.0947 181.637 15.5128 181.637 20.4875V28.996H175.876V21.989C175.876 20.1993 175.527 19.8505 174.722 19.8505C173.918 19.8505 173.569 20.4875 173.569 23.718V29.0036H167.807L167.823 28.996Z"/><path fill="#F98653" d="M190.761 20.9198C190.761 27.2519 189.607 29.1023 186.624 29.1023C183.641 29.1023 182.692 27.6614 182.692 22.6488V14.2009H188.454V21.208C188.454 22.9977 188.803 23.3465 189.607 23.3465C190.412 23.3465 190.761 22.7095 190.761 19.479V14.1934H196.522V28.9961H190.761V20.9198V20.9198Z"/><path fill="#F98653" d="M205.745 28.996V21.989C205.745 20.1993 205.395 19.8505 204.591 19.8505C203.786 19.8505 203.437 20.4875 203.437 23.718V29.0036H197.676V14.2009H203.437V22.2772C203.437 15.9451 204.591 14.0947 207.635 14.0947C210.678 14.0947 211.506 15.5507 211.506 20.5482V28.996H205.745V28.996Z"/><path fill="#F98653" d="M212.925 28.9962V18.8042H212.182V14.2011H212.925V12.5176H218.687V14.2011H220V18.8042H218.687V28.9962H212.925Z"/></svg>