<?xml version="1.0" encoding="UTF-8" standalone="no"?><!DOCTYPE svg PUBLIC "-//W3C//DTD SVG 1.1//EN" "http://www.w3.org/Graphics/SVG/1.1/DTD/svg11.dtd"><svg width="100%" height="100%" viewBox="0 0 80 80" version="1.1" xmlns="http://www.w3.org/2000/svg" xmlns:xlink="http://www.w3.org/1999/xlink" xml:space="preserve" xmlns:serif="http://www.serif.com/" style="fill-rule:evenodd;clip-rule:evenodd;stroke-linecap:round;stroke-linejoin:round;stroke-miterlimit:1.5;"><g id="Store"><path d="M6.168,24.488l0,50.605l61.89,0l0.019,-42.178" style="fill:none;stroke:#fff;stroke-width:2px;"/><rect x="43.996" y="42.561" width="15.819" height="32.661" style="fill:none;stroke:#fff;stroke-width:2px;"/><rect x="14.141" y="42.561" width="24.009" height="26.059" style="fill:none;stroke:#fff;stroke-width:2px;"/><ellipse cx="61.53" cy="21.15" rx="12.765" ry="13.237" style="fill:none;stroke:#fff;stroke-width:2px;"/><path d="M59.738,23.761l-3.075,-3.236c-0.307,-0.323 -0.8,-0.324 -1.103,-0.004l-1.098,1.156c-0.303,0.319 -0.303,0.838 0.004,1.161l4.716,4.962c0.3,0.316 0.792,0.317 1.096,-0.002l1.098,-1.156" style="fill:none;stroke:#fff;stroke-width:1px;stroke-linecap:butt;stroke-miterlimit:2;"/><path d="M61.372,26.628l7.579,-8.027c0.301,-0.319 0.299,-0.838 -0.006,-1.155l-1.104,-1.151c-0.304,-0.317 -0.797,-0.314 -1.097,0.006l-7.008,7.45" style="fill:none;stroke:#fff;stroke-width:1px;stroke-linecap:butt;stroke-miterlimit:2;"/><path d="M6.245,25.01c0,0.004 4.688,10.451 10.606,0.208c-0.296,-0.073 5.424,10.058 10.702,0.197c-0.272,-0.062 5.535,9.612 10.54,-0.333c-0.384,-0.114 5.78,9.762 10.751,-0.043" style="fill:none;stroke:#fff;stroke-width:2px;"/><path d="M6.163,24.96l43.015,-0.073" style="fill:none;stroke:#fff;stroke-width:2px;"/><path d="M15.767,5.273l43.026,0l-43.026,0Z" style="fill:none;stroke:#fff;stroke-width:2px;"/><path d="M6.201,24.391l9.515,-19.169" style="fill:none;stroke:#fff;stroke-width:2px;"/><path d="M58.817,5.33l1.195,2.529" style="fill:none;stroke:#fff;stroke-width:2px;"/></g></svg>