<svg version="1.1" id="Layer_1" xmlns="http://www.w3.org/2000/svg" xmlns:xlink="http://www.w3.org/1999/xlink" x="0" y="0" viewBox="0 0 55 55" style="enable-background:new 0 0 55 55" xml:space="preserve"><style>.st3{fill:#fff}</style><defs><path id="SVGID_1_" d="M6.5 6.5h42v42h-42z"/></defs><clipPath id="SVGID_00000136409841669987014750000006165019241661208503_"><use xlink:href="#SVGID_1_" style="overflow:visible"/></clipPath><g style="clip-path:url(#SVGID_00000136409841669987014750000006165019241661208503_)"><linearGradient id="SVGID_00000172436131592560228680000012620376238777836937_" gradientUnits="userSpaceOnUse" x1="20.646" y1="50.5" x2="20.646" y2="8.5" gradientTransform="matrix(1 0 0 -1 0 57)"><stop offset="0" style="stop-color:#b9c8ef"/><stop offset="1" style="stop-color:#ced4eb"/></linearGradient><path style="fill:url(#SVGID_00000172436131592560228680000012620376238777836937_)" d="M33.4 12.9v29.2c0 3.5-2.9 6.4-6.4 6.4-13.8 0-13.2.1-14.2-.2-1.8-1.3-3.4-2.8-4.7-4.6-.3-1.1-.2 1-.2-30.9 0-3.5 2.9-6.4 6.4-6.4H27c3.6.1 6.4 3 6.4 6.5z"/><linearGradient id="SVGID_00000137828869512757978020000002003979056738849168_" gradientUnits="userSpaceOnUse" x1="20.646" y1="50.5" x2="20.646" y2="8.5" gradientTransform="matrix(1 0 0 -1 0 57)"><stop offset="0" style="stop-color:#b9c8ef"/><stop offset="1" style="stop-color:#ced4eb"/></linearGradient><path style="fill:url(#SVGID_00000137828869512757978020000002003979056738849168_)" d="M7.9 42.1V12.9c0-3.5 2.9-6.4 6.4-6.4 13.8 0 13.2-.1 14.2.2 1.8 1.3 3.4 2.8 4.8 4.6.3 1.1.2-1 .2 30.9 0 3.5-2.9 6.4-6.4 6.4H14.2c-3.5-.1-6.3-3-6.3-6.5z"/><path class="st3" d="M27.5 9.2H13.8c-1.8 0-3.2 1.4-3.2 3.2v30.1c0 1.8 1.4 3.2 3.2 3.2h13.7c1.8 0 3.2-1.4 3.2-3.2V12.4c0-1.7-1.4-3.2-3.2-3.2z"/><linearGradient id="SVGID_00000038370701774880203500000010962409202127195580_" gradientUnits="userSpaceOnUse" x1="20.652" y1="48.218" x2="20.652" y2="45.023" gradientTransform="matrix(1 0 0 -1 0 57)"><stop offset="0" style="stop-color:#b9c8ef"/><stop offset="1" style="stop-color:#ced4eb"/></linearGradient><path style="fill:url(#SVGID_00000038370701774880203500000010962409202127195580_)" d="M15.2 8.8h11v1.4c0 1-.8 1.8-1.8 1.8H17c-1 0-1.8-.8-1.8-1.8V8.8z"/><path d="M19.7 10.6h-1.8c-.5 0-.9-.4-.9-.9s.4-.9.9-.9h1.8c.5 0 .9.4.9.9.1.5-.4.9-.9.9zm3.7 0c.5 0 .9-.4.9-.9s-.4-.9-.9-.9-.9.4-.9.9.4.9.9.9zM7 14.3h.9v3.2H7c-.3 0-.5-.2-.5-.5v-2.3c0-.2.2-.4.5-.4zm0 5h.9v3.2H7c-.3 0-.5-.2-.5-.5v-2.3c0-.2.2-.4.5-.4z" style="fill:#3367aa"/><path d="M26.1 43.9h-11c-.5 0-.9-.4-.9-.9s.4-.9.9-.9h11c.5 0 .9.4.9.9.1.5-.3.9-.9.9.1 0 .1 0 0 0z" style="opacity:.5;fill:#929eba;enable-background:new"/><path d="M42.1 18.4H18.4c-1 0-1.8.8-1.8 1.8v15.5c0 1 .8 1.8 1.8 1.8h.5v2.3c0 .3.2.5.5.5.2 0 0 .1 3.8-2.7h19c1 0 1.8-.8 1.8-1.8V20.2c-.1-1-.9-1.8-1.9-1.8z" style="fill:#315efd"/><path class="st3" d="M22 25.2h1.8c.5 0 .9-.4.9-.9s-.4-.9-.9-.9H22c-1.5-.1-2.8 1.1-2.8 2.6-.1 1.5 1.1 2.8 2.6 2.8h.2c.5 0 .9.4.9.9s-.4.9-.9.9h-1.8c-.5 0-.9.4-.9.9s.4.9.9.9H22c1.5.1 2.8-1.1 2.8-2.6.1-1.5-1.1-2.8-2.6-2.8H22c-.5 0-.9-.4-.9-.9s.4-.9.9-.9zM38.5 27c-.5 0-.9-.4-.9-.9s.4-.9.9-.9h1.8c.5 0 .9-.4.9-.9s-.4-.9-.9-.9H38.4c-1.5-.1-2.8 1.1-2.8 2.6-.1 1.5 1.1 2.8 2.6 2.8h.2c.5 0 .9.4.9.9s-.4.9-.9.9h-1.8c-.5 0-.9.4-.9.9s.4.9.9.9H38.5c1.5.1 2.8-1.1 2.8-2.6S40.2 27 38.7 27h-.2zm-6.3-3.2-2 2.7-2-2.7c-.3-.4-.9-.5-1.3-.2-.2.2-.4.4-.4.7v7.3c0 .5.4.9.9.9s.9-.4.9-.9V27l1.1 1.5c.3.4.9.5 1.3.2l.2-.2L32 27v4.6c0 .5.4.9.9.9s.9-.4.9-.9v-7.3c0-.5-.4-.9-.9-.9-.2 0-.5.1-.7.4z"/><path d="M43.9 22.9c2.5 0 4.6-2 4.6-4.6 0-2.5-2-4.6-4.6-4.6-2.5 0-4.6 2-4.6 4.6.1 2.6 2.1 4.6 4.6 4.6z" style="fill:#f34460"/><path class="st3" d="M43.9 20.6c-.3 0-.5-.2-.5-.5v-2.9l-.3.1c-.2.1-.5 0-.6-.2s0-.5.2-.6l.9-.5c.2-.1.5 0 .6.2V20.1c.2.3 0 .5-.3.5z"/></g></svg>