<svg version="1.1" id="Layer_1" xmlns="http://www.w3.org/2000/svg" xmlns:xlink="http://www.w3.org/1999/xlink" x="0" y="0" viewBox="0 0 55 55" style="enable-background:new 0 0 55 55" xml:space="preserve"><style>.st0{clip-path:url(#SVGID_00000006693800624107691200000001489291121833530012_)}</style><defs><path id="SVGID_1_" d="M6.5 6.5h42v42h-42z"/></defs><clipPath id="SVGID_00000057106884533656790950000007753944050425104804_"><use xlink:href="#SVGID_1_" style="overflow:visible"/></clipPath><g style="clip-path:url(#SVGID_00000057106884533656790950000007753944050425104804_)"><path d="M25 6.6c3.3-.4 6.7 0 9.8 1.2 2.8 1.1 5.4 2.7 7.5 4.8L36.9 18c-1.2-1.1-2.5-2.1-4-2.7-2-.9-4.2-1.3-6.3-1.1-2.5.2-4.8 1-6.8 2.4-2.5 1.8-4.3 4.3-5.1 7.3-.7 2.1-.7 4.4-.2 6.6.4 1.8 1.2 3.5 2.2 4.9 1 1.4 2.2 2.5 3.7 3.4 1.7 1 3.5 1.7 5.5 1.9 1.7.2 3.4.1 5-.3.2-.1.3.1.4.2l5.5 5.5c-3.3 1.6-7 2.3-10.6 2.1-3.1-.2-6-1.1-8.7-2.6-1.1-.6-2.2-1.3-3.1-2.1-.8-.7-1.6-1.3-2.2-2.1-1.1-1.2-2.1-2.6-2.9-4.1-.2-.3-.4-.7-.5-1-.2-.4-.4-.8-.5-1.2-.2-.6-.5-1.2-.6-1.8 0-.1-.1-.1-.1-.2-.4-1.3-.6-2.6-.7-3.9-.1-1.7-.1-3.4.2-5 .6-3.4 1.9-6.6 4-9.3 1.4-1.8 3-3.3 4.8-4.6 2.5-2 5.8-3.3 9.1-3.7zm2.2 2.3c-.3 0-.5.2-.7.3-.5.4-.6 1.1-.4 1.7.3.7 1.1 1 1.8.8.7-.2 1.1-1.1.9-1.7-.1-.8-.9-1.2-1.6-1.1zm-11.9 5c-.2 0-.5.1-.7.2-.5.3-.8 1-.6 1.6.1.6.8 1.1 1.4 1.1.7 0 1.3-.5 1.4-1.2.1-.5-.1-1-.4-1.3-.4-.3-.7-.4-1.1-.4zm-5.2 12.2c-.3.1-.6.2-.8.4-.4.4-.5 1.1-.2 1.7.3.6 1.1.9 1.8.7.7-.2 1.1-1 .9-1.7-.3-.8-1-1.3-1.7-1.1zm5 12.2c-.5.1-1 .5-1.1 1-.2.5 0 1.1.4 1.5.3.2.6.4 1 .4.5 0 1-.3 1.2-.8.2-.4.2-.9 0-1.3-.2-.6-.9-1-1.5-.8zm12.1 5c-.8.1-1.3.9-1.2 1.7.1.8.9 1.3 1.7 1.2.8-.1 1.3-.9 1.2-1.7-.1-.8-.9-1.4-1.7-1.2z" style="fill:#a0a0a0"/><path d="M27.2 8.9c.7-.1 1.5.3 1.6 1 .2.7-.2 1.5-.9 1.7-.7.3-1.5-.1-1.8-.8-.3-.6-.1-1.3.4-1.7.3 0 .5-.1.7-.2zM10.1 26.1c.7-.1 1.5.3 1.6 1 .2.7-.2 1.5-.9 1.7-.6.3-1.5 0-1.8-.7-.3-.5-.2-1.2.2-1.7.3-.1.6-.3.9-.3z" style="fill:#c1c1c1"/><path d="M42.3 12.7c1.1 1.1 2.1 2.4 2.9 3.7 1.6 2.6 2.7 5.5 3 8.5.3 2 .2 4.1-.1 6.1-.6 3.6-2.1 7-4.4 9.8-1.9 2.3-4.3 4.3-7 5.6l-.1-.1-5.5-5.5c-.1-.1-.2-.3-.4-.2-1.6.4-3.3.5-5 .3-1.9-.2-3.8-.9-5.5-1.9-1.4-.9-2.7-2.1-3.7-3.4-1.1-1.5-1.8-3.1-2.2-4.9-.3-2.4-.3-4.7.3-6.8.8-2.9 2.6-5.5 5.1-7.3 2-1.4 4.4-2.3 6.8-2.4 2.2-.1 4.4.2 6.3 1.1 1.5.7 2.8 1.6 4 2.7 2-1.8 3.7-3.6 5.5-5.3zm-15.7 8.2c-1 .1-1.9.5-2.7 1-1 .7-1.9 1.6-2.4 2.7-.7 1.3-.8 2.8-.6 4.3.2.9.5 1.7 1.1 2.5.4.5.8 1 1.2 1.4l7.7 7.7c2.2-.6 4.2-1.7 5.9-3.3 2-2 3.4-4.5 3.9-7.3 0 0 0-.1.1-.1h4c.9 0 1.7-.7 1.8-1.5v-.1c.1-.3.1-.5.1-.8-.1-.9-.9-1.7-1.8-1.7H34.1c-.3-1-.8-1.9-1.5-2.6-1.2-1.2-2.8-2-4.5-2.1-.6-.2-1.1-.2-1.5-.1zm12.8 17.4c-.6.1-1 .6-1.1 1.1-.1.4 0 .8.2 1.1.3.4.8.7 1.2.6.4 0 .7-.2 1-.4.2-.2.4-.6.4-.9 0-.5-.2-1-.7-1.3-.3-.2-.6-.3-1-.2z" style="fill:#686868"/><path d="M15.2 13.9c.4 0 .8.1 1.1.4.3.3.5.8.4 1.3-.1.7-.7 1.2-1.4 1.2-.6 0-1.3-.5-1.4-1.1-.2-.6.1-1.2.6-1.6.3-.1.5-.2.7-.2z" style="fill:#c3c3c3"/><path d="M26.6 20.9c.4-.1.9 0 1.3 0 1.7.1 3.3.9 4.5 2.1.7.8 1.2 1.7 1.5 2.6h-6.4c-1 0-1.8.8-1.9 1.8 0 .6.2 1.3.7 1.7.3.3.8.4 1.2.4h17c.2 0 .4 0 .6-.1.6-.2 1.2-.7 1.3-1.3v.1c-.2.8-1 1.5-1.8 1.5h-4c-.1 0-.1.1-.1.1-.5 2.8-1.8 5.3-3.9 7.3-1.6 1.6-3.7 2.7-5.9 3.3L23 32.7c-.4-.4-.9-.9-1.2-1.4-.5-.7-.9-1.6-1.1-2.5-.3-1.4-.1-3 .6-4.3.5-1.1 1.4-2 2.4-2.7 1-.5 1.9-.8 2.9-.9z" style="fill:#474747"/><path d="M26.1 26.2c.4-.4.9-.7 1.4-.7H44.7c.9 0 1.8.8 1.8 1.7v.1c-.2-.8-1-1.5-1.8-1.5H27.9c-.3 0-.7 0-1 .1-.4.1-.7.4-1 .7-.1.2-.2.5-.3.7 0-.4.2-.8.5-1.1zm-11 12.1c.6-.1 1.3.2 1.5.8.2.4.2.9 0 1.3s-.7.7-1.2.8c-.4 0-.7-.1-1-.4-.4-.4-.6-1-.4-1.5.1-.6.6-1 1.1-1z" style="fill:#bfbfbf"/><path d="M26.9 25.9c.3-.1.7-.1 1-.1h16.8c.8 0 1.6.6 1.8 1.5v-.1c0 .3 0 .5-.1.8-.2.6-.7 1.2-1.3 1.3-.2.1-.4.1-.6.1h-17c-.4 0-.9-.1-1.2-.4-.5-.4-.8-1-.7-1.7.1-.2.2-.5.3-.7.3-.3.6-.5 1-.7z" style="fill:#b0b0b0"/><path d="M7.2 33.1c0 .1.1.1.1.2l.6 1.8c.2.4.3.8.5 1.2.1.4.4.7.5 1 .8 1.5 1.8 2.8 2.9 4.1.7.8 1.4 1.5 2.2 2.1 1 .8 2 1.5 3.1 2.1 2.7 1.5 5.7 2.4 8.7 2.6 3.6.3 7.3-.5 10.6-2.1l.1.1c-1.9.9-3.9 1.6-6 1.9-2.6.4-5.2.3-7.7-.2-3-.6-5.9-2-8.4-3.9-2.9-2.2-5.1-5.1-6.5-8.4-.1-.7-.4-1.6-.7-2.5z" style="fill:#939393"/><path d="M39.4 38.3c.3-.1.7 0 1 .2.4.3.7.8.7 1.3 0 .3-.2.7-.4.9-.3.3-.6.4-1 .4-.5 0-1-.2-1.2-.6-.2-.3-.3-.7-.2-1.1.1-.6.5-1 1.1-1.1z" style="fill:#767676"/><path d="M27.2 43.3c.4-.1.8 0 1.1.3.6.5.7 1.4.3 2-.2.2-.4.4-.7.5-.8.2-1.6-.2-1.8-1-.2-.8.2-1.6 1-1.8h.1z" style="fill:#bebebe"/></g></svg>