<?xml version="1.0" encoding="UTF-8" standalone="no"?>
<!DOCTYPE svg PUBLIC "-//W3C//DTD SVG 1.1//EN" "http://www.w3.org/Graphics/SVG/1.1/DTD/svg11.dtd">
<svg width="100%" height="100%" viewBox="0 0 80 80" version="1.1" xmlns="http://www.w3.org/2000/svg" xmlns:xlink="http://www.w3.org/1999/xlink" xml:space="preserve" xmlns:serif="http://www.serif.com/" style="fill-rule:evenodd;clip-rule:evenodd;stroke-linejoin:round;stroke-miterlimit:2;">
    <g transform="matrix(0.467619,0,0,0.467619,20.5951,26.1708)">
        <path d="M42.53,104.878C51.261,104.878 96.318,37.669 96.318,8.788C96.318,-20.093 73.492,-44.816 41.579,-44.816C9.665,-44.816 -12.066,-20.454 -12.066,8.74C-12.066,37.934 32.405,104.878 42.53,104.878ZM41.742,-16.73C56.529,-16.73 68.534,-4.724 68.534,10.063C68.534,24.85 56.529,36.855 41.742,36.855C26.955,36.855 14.949,24.85 14.949,10.063C14.949,-4.724 26.955,-16.73 41.742,-16.73Z" style="fill:rgb(255,75,153);"/>
    </g>
    <g id="ICONS">
    </g>
    <g id="LOGOS">
    </g>
</svg>
