<?xml version="1.0" encoding="UTF-8" standalone="no"?>
<!DOCTYPE svg PUBLIC "-//W3C//DTD SVG 1.1//EN" "http://www.w3.org/Graphics/SVG/1.1/DTD/svg11.dtd">
<svg width="100%" height="100%" viewBox="0 0 80 80" version="1.1" xmlns="http://www.w3.org/2000/svg" xmlns:xlink="http://www.w3.org/1999/xlink" xml:space="preserve" xmlns:serif="http://www.serif.com/" style="fill-rule:evenodd;clip-rule:evenodd;stroke-linecap:round;stroke-linejoin:round;stroke-miterlimit:1.5;">
    <g id="ICONS">
    </g>
    <g id="LOGOS">
    </g>
    <g id="municipality" transform="matrix(0.140109,0,0,0.140809,-46.0009,-38.8681)">
        <g transform="matrix(1,0,0,1,140,0)">
            <path d="M351.794,557.929L225.731,557.929C223.068,557.929 220.906,560.091 220.906,562.755L220.906,794.374C220.906,797.037 223.068,799.199 225.731,799.199L715.691,799.199C718.355,799.199 720.517,797.037 720.517,794.374L720.517,562.755C720.517,560.091 718.355,557.929 715.691,557.929L587.621,557.929" style="fill:none;stroke:rgb(255,75,153);stroke-width:14.24px;"/>
        </g>
        <g transform="matrix(1,0,0,1,140,0)">
            <path d="M586.904,491.453C586.904,488.864 584.801,486.762 582.212,486.762L472.262,436.374L357.026,486.762C354.437,486.762 352.335,488.864 352.335,491.453L352.335,795.522C352.335,798.111 354.437,800.213 357.026,800.213L582.212,800.213C584.801,800.213 586.904,798.111 586.904,795.522L586.904,491.453Z" style="fill:none;stroke:rgb(255,75,153);stroke-width:14.24px;"/>
        </g>
        <g transform="matrix(1,0,0,1,168.121,26.4423)">
            <path d="M444.622,351.142L444.622,412.562" style="fill:none;stroke:rgb(255,75,153);stroke-width:14.24px;"/>
        </g>
        <g transform="matrix(1,0,0,1,140,0)">
            <path d="M513.015,667.601C513.015,666.699 512.279,665.966 511.373,665.966L432.525,665.966C431.618,665.966 430.882,666.699 430.882,667.601L430.882,799.227C430.882,800.129 431.618,800.862 432.525,800.862L511.373,800.862C512.279,800.862 513.015,800.129 513.015,799.227L513.015,667.601Z" style="fill:none;stroke:rgb(255,75,153);stroke-width:14.24px;"/>
        </g>
        <g transform="matrix(1,0,0,-0.449755,140,886.769)">
            <path d="M513.015,668.664C513.015,667.175 512.469,665.966 511.796,665.966L432.102,665.966C431.429,665.966 430.882,667.175 430.882,668.664L430.882,798.164C430.882,799.653 431.429,800.862 432.102,800.862L511.796,800.862C512.469,800.862 513.015,799.653 513.015,798.164L513.015,668.664Z" style="fill:none;stroke:rgb(255,75,153);stroke-width:18.4px;"/>
        </g>
        <g transform="matrix(1,0,0,1,148,0)">
            <path d="M540.843,327.948C540.843,327.276 540.294,326.73 539.619,326.73L465.606,326.73C464.931,326.73 464.383,327.276 464.383,327.948L464.383,386.4C464.383,387.072 464.931,387.618 465.606,387.618L539.619,387.618C540.294,387.618 540.843,387.072 540.843,386.4L540.843,327.948Z" style="fill:none;stroke:rgb(255,75,153);stroke-width:14.24px;"/>
        </g>
    </g>
</svg>
