<?xml version="1.0" encoding="UTF-8" standalone="no"?>
<!DOCTYPE svg PUBLIC "-//W3C//DTD SVG 1.1//EN" "http://www.w3.org/Graphics/SVG/1.1/DTD/svg11.dtd">
<svg width="100%" height="100%" viewBox="0 0 80 80" version="1.1" xmlns="http://www.w3.org/2000/svg" xmlns:xlink="http://www.w3.org/1999/xlink" xml:space="preserve" xmlns:serif="http://www.serif.com/" style="fill-rule:evenodd;clip-rule:evenodd;stroke-linecap:round;stroke-linejoin:round;stroke-miterlimit:1.5;">
    <g transform="matrix(0.546292,0,0,0.546292,-308.235,-445.39)">
        <g id="bal">
            <g>
                <g transform="matrix(1,0,0,1,1,-4)">
                    <circle cx="636.459" cy="894.35" r="51.241" style="fill:white;fill-opacity:0;stroke:rgb(255,75,153);stroke-width:3.66px;"/>
                </g>
                <path d="M603.733,851.935C603.733,851.935 598.916,884.841 620.175,905.386" style="fill:none;stroke:rgb(255,75,153);stroke-width:3.66px;"/>
                <path d="M595.87,919.511C595.87,919.511 625.579,910.869 638.259,885.498" style="fill:none;stroke:rgb(255,75,153);stroke-width:3.66px;"/>
                <g transform="matrix(1,0,0,1,21.3945,17.1844)">
                    <path d="M595.87,919.511C595.87,919.511 635.076,904.569 644.12,873.116" style="fill:none;stroke:rgb(255,75,153);stroke-width:3.66px;"/>
                </g>
                <g transform="matrix(-0.618432,-0.785838,0.785838,-0.618432,330.872,1907.91)">
                    <path d="M595.115,919.341C595.115,919.341 627.552,909.554 640.232,884.183" style="fill:none;stroke:rgb(255,75,153);stroke-width:3.66px;"/>
                </g>
                <g transform="matrix(-0.618432,-0.785838,0.785838,-0.618432,332.619,1938.9)">
                    <path d="M595.87,919.511C595.87,919.511 622.485,914.012 638.743,892.051" style="fill:none;stroke:rgb(255,75,153);stroke-width:3.66px;"/>
                </g>
                <g transform="matrix(-0.479744,0.877408,-0.877408,-0.479744,1720.78,750.652)">
                    <path d="M602.061,915.014C602.061,915.014 622.756,907.654 638.02,884.929" style="fill:none;stroke:rgb(255,75,153);stroke-width:3.66px;"/>
                </g>
            </g>
        </g>
    </g>
</svg>
