<?xml version="1.0" encoding="UTF-8" standalone="no"?><!DOCTYPE svg PUBLIC "-//W3C//DTD SVG 1.1//EN" "http://www.w3.org/Graphics/SVG/1.1/DTD/svg11.dtd"><svg width="100%" height="100%" viewBox="0 0 80 80" version="1.1" xmlns="http://www.w3.org/2000/svg" xmlns:xlink="http://www.w3.org/1999/xlink" xml:space="preserve" xmlns:serif="http://www.serif.com/" style="fill-rule:evenodd;clip-rule:evenodd;stroke-linecap:round;stroke-linejoin:round;stroke-miterlimit:1.5;"><g id="citizens"><circle cx="40.085" cy="25.77" r="11.862" style="fill:none;stroke:#fff;stroke-width:2px;"/><path d="M29.087,30.373c-1.878,2.002 -4.547,3.253 -7.507,3.253c-5.682,0 -10.295,-4.613 -10.295,-10.295c0,-5.682 4.613,-10.296 10.295,-10.296c3.885,0 7.111,2.254 8.864,5.433" style="fill:none;stroke:#fff;stroke-width:2px;"/><path d="M49.295,18.261c1.77,-3.119 5.121,-5.226 8.96,-5.226c5.683,0 10.296,4.614 10.296,10.296c0,5.682 -4.613,10.295 -10.296,10.295c-2.788,0 -5.318,-1.111 -7.173,-2.914" style="fill:none;stroke:#fff;stroke-width:2px;"/><path d="M18.317,66.59l44.158,0c0,0 3.073,-24.616 -14.769,-31.581c0,0 -7.634,6.047 -15.197,-0.105c0,0 -19.655,9.649 -14.192,31.686Z" style="fill:none;stroke:#fff;stroke-width:2px;"/><path d="M15.388,31.875c0,0 -13.712,7.018 -9.722,22.933l12.065,0c0,0 -1.151,-9.416 14.253,-19.814" style="fill:none;stroke:#fff;stroke-width:2px;"/><path d="M48.204,35.092c11.976,4.575 13.966,19.633 13.966,19.633l12.471,0c0,0 2.997,-17.776 -10.031,-22.806" style="fill:none;stroke:#fff;stroke-width:2px;"/></g></svg>