<svg xmlns="http://www.w3.org/2000/svg" width="63" height="66" fill="none" viewBox="0 0 63 66"><path fill="url(#paint0_linear)" fill-rule="evenodd" d="M56 39.845C56 53.6244 45.0311 64.7944 31.5 64.7944C17.9688 64.7944 7 53.6244 7 39.845C7 26.0656 17.9688 14.8955 31.5 14.8955C45.0311 14.8955 56 26.0656 56 39.845Z" clip-rule="evenodd"/><path fill="#fff" stroke="#A8B3CD" stroke-width="2" d="M31.5 52.614C38.5609 52.614 44.2637 46.8217 44.2637 39.7029C44.2637 32.584 38.5609 26.7917 31.5 26.7917C24.4391 26.7917 18.7364 32.584 18.7364 39.7029C18.7364 46.8217 24.4391 52.614 31.5 52.614Z"/><g filter="url(#filter0_d)"><path fill="#EFF2F9" d="M31.4988 51.0006C37.6612 51.0006 42.6567 45.9425 42.6567 39.7029C42.6567 33.4633 37.6612 28.4051 31.4988 28.4051C25.3365 28.4051 20.3409 33.4633 20.3409 39.7029C20.3409 45.9425 25.3365 51.0006 31.4988 51.0006ZM31.4988 51.3379C25.1526 51.3379 20.0079 46.1287 20.0079 39.7029C20.0079 33.277 25.1526 28.0679 31.4988 28.0679C37.8451 28.0679 42.9898 33.277 42.9898 39.7029C42.9898 46.1287 37.8451 51.3379 31.4988 51.3379Z"/></g><g filter="url(#filter1_dd)"><path fill="#DDE5FF" d="M31.4994 50.6777C37.5747 50.6777 42.4996 45.7272 42.4996 39.6204C42.4996 33.5135 37.5747 28.563 31.4994 28.563C25.4242 28.563 20.4992 33.5135 20.4992 39.6204C20.4992 45.7272 25.4242 50.6777 31.4994 50.6777ZM31.4994 51.0078C25.2428 51.0078 20.1709 45.9095 20.1709 39.6204C20.1709 33.3312 25.2428 28.2329 31.4994 28.2329C37.756 28.2329 42.828 33.3312 42.828 39.6204C42.828 45.9095 37.756 51.0078 31.4994 51.0078Z"/><path stroke="#DDE5FF" d="M31.4994 50.6777C37.5747 50.6777 42.4996 45.7272 42.4996 39.6204C42.4996 33.5135 37.5747 28.563 31.4994 28.563C25.4242 28.563 20.4992 33.5135 20.4992 39.6204C20.4992 45.7272 25.4242 50.6777 31.4994 50.6777ZM31.4994 51.0078C25.2428 51.0078 20.1709 45.9095 20.1709 39.6204C20.1709 33.3312 25.2428 28.2329 31.4994 28.2329C37.756 28.2329 42.828 33.3312 42.828 39.6204C42.828 45.9095 37.756 51.0078 31.4994 51.0078Z"/></g><path stroke="#fff" stroke-width="2" d="M30.8334 42.7146L40.2591 33.1865L40.5979 32.8441L41.5314 31.9004C41.8675 31.5599 41.8675 31.0205 41.5314 30.7083C41.1954 30.3677 40.6633 30.3677 40.3552 30.7083L30.2734 40.898L26.6327 36.896C26.3246 36.5554 25.7926 36.527 25.4565 36.8392C25.1204 37.1514 25.0924 37.6907 25.4005 38.0313L29.6293 42.6862C29.7973 42.8566 29.9933 42.9701 30.2173 42.9701H30.2453C30.4694 42.9701 30.6934 42.8849 30.8334 42.7146Z"/><path fill="url(#paint1_linear)" stroke="#4D74FE" d="M41.0336 33.7265C44.0541 38.3647 43.1561 44.7219 38.7605 48.4528C36.1794 50.6435 32.8408 51.536 29.6232 50.9768C27.1069 50.5395 24.8307 49.2405 23.1694 47.2378C23.071 47.1192 23.0817 47.0091 23.2014 46.9075C23.3211 46.806 23.4301 46.8144 23.5285 46.933C25.1203 48.852 27.3003 50.0962 29.7112 50.5151C32.7944 51.0509 35.9923 50.1961 38.4654 48.097C42.6513 44.5442 43.5264 38.5053 40.6949 34.0689L31.2691 43.5969C31.1291 43.7672 30.9051 43.8524 30.681 43.8524H30.6531C30.429 43.8524 30.233 43.7389 30.065 43.5686L25.8362 38.9136C25.5281 38.573 25.5562 38.0337 25.8922 37.7215C26.2283 37.4093 26.7604 37.4377 27.0684 37.7783L30.7091 41.7804L40.7909 31.5906C41.099 31.2501 41.6311 31.2501 41.9671 31.5906C42.3032 31.9029 42.3032 32.4422 41.9671 32.7828L41.0336 33.7265Z"/><defs><filter id="filter0_d" width="62.982" height="63.27" x=".008" y=".068" color-interpolation-filters="sRGB" filterUnits="userSpaceOnUse"><feFlood flood-opacity="0" result="BackgroundImageFix"/><feColorMatrix in="SourceAlpha" type="matrix" values="0 0 0 0 0 0 0 0 0 0 0 0 0 0 0 0 0 0 127 0"/><feOffset dy="-8"/><feGaussianBlur stdDeviation="10"/><feColorMatrix type="matrix" values="0 0 0 0 1 0 0 0 0 1 0 0 0 0 1 0 0 0 1 0"/><feBlend in2="BackgroundImageFix" mode="lighten" result="effect1_dropShadow"/><feBlend in="SourceGraphic" in2="effect1_dropShadow" mode="normal" result="shape"/></filter><filter id="filter1_dd" width="43.657" height="52.775" x="9.671" y="12.733" color-interpolation-filters="sRGB" filterUnits="userSpaceOnUse"><feFlood flood-opacity="0" result="BackgroundImageFix"/><feColorMatrix in="SourceAlpha" type="matrix" values="0 0 0 0 0 0 0 0 0 0 0 0 0 0 0 0 0 0 127 0"/><feOffset dy="-5"/><feGaussianBlur stdDeviation="5"/><feColorMatrix type="matrix" values="0 0 0 0 0.945098 0 0 0 0 0.952941 0 0 0 0 0.968627 0 0 0 1 0"/><feBlend in2="BackgroundImageFix" mode="normal" result="effect1_dropShadow"/><feColorMatrix in="SourceAlpha" type="matrix" values="0 0 0 0 0 0 0 0 0 0 0 0 0 0 0 0 0 0 127 0"/><feOffset dy="4"/><feGaussianBlur stdDeviation="5"/><feColorMatrix type="matrix" values="0 0 0 0 0.192157 0 0 0 0 0.368627 0 0 0 0 0.992157 0 0 0 0.2 0"/><feBlend in2="effect1_dropShadow" mode="normal" result="effect2_dropShadow"/><feBlend in="SourceGraphic" in2="effect2_dropShadow" mode="normal" result="shape"/></filter><linearGradient id="paint0_linear" x1="7" x2="7" y1="14.896" y2="64.794" gradientUnits="userSpaceOnUse"><stop stop-color="#E0E8FF" stop-opacity=".01"/><stop offset="1" stop-color="#BDCBFF" stop-opacity=".4"/></linearGradient><linearGradient id="paint1_linear" x1="32.886" x2="26.225" y1="49.523" y2="33.407" gradientUnits="userSpaceOnUse"><stop stop-color="#315EFD"/><stop offset="1" stop-color="#6789FF"/></linearGradient></defs></svg>