<svg xmlns="http://www.w3.org/2000/svg" width="100" height="123" fill="none" viewBox="0 0 100 123"><path fill="#305DFC" fill-rule="evenodd" d="M50 0C22.3868 0 0 22.0153 0 49.1723C0 62.7924 5.62999 75.1181 14.7268 84.02C15.312 84.59 16.3088 84.4554 16.7084 83.7469C20.9702 76.1749 28.4406 70.2535 37.5575 67.372C31.6087 63.4296 27.698 56.7482 27.698 49.1683C27.698 37.0524 37.6826 27.2361 50 27.2361C62.3174 27.2361 72.302 37.0524 72.302 49.1683C72.302 56.7482 68.3873 63.4296 62.4425 67.372C71.5594 70.2535 79.0298 76.1749 83.2916 83.7469C83.6871 84.4554 84.688 84.59 85.2692 84.02C94.366 75.1181 100 62.7924 100 49.1723C100 22.0153 77.6132 0 50 0Z" clip-rule="evenodd"/><path fill="#305DFC" d="M36.9309 100.964H39.3039L44.2179 109.511H44.3439L49.2579 100.964H51.6099V116H49.2579V107.831L49.3839 105.311H49.2579L44.9739 112.808H43.5669L39.3039 105.311H39.1779L39.3039 107.831V116H36.9309V100.964ZM63.8272 113.543C63.3932 114.341 62.7772 115.006 61.9792 115.538C61.1812 116.07 60.2012 116.336 59.0392 116.336C58.2692 116.336 57.5552 116.203 56.8972 115.937C56.2532 115.657 55.6932 115.272 55.2172 114.782C54.7412 114.292 54.3702 113.718 54.1042 113.06C53.8382 112.388 53.7052 111.653 53.7052 110.855C53.7052 110.113 53.8312 109.413 54.0832 108.755C54.3352 108.083 54.6852 107.502 55.1332 107.012C55.5952 106.508 56.1482 106.109 56.7922 105.815C57.4362 105.521 58.1502 105.374 58.9342 105.374C59.7322 105.374 60.4392 105.507 61.0552 105.773C61.6852 106.039 62.2172 106.41 62.6512 106.886C63.0852 107.362 63.4142 107.936 63.6382 108.608C63.8762 109.28 63.9952 110.015 63.9952 110.813C63.9952 110.883 63.9952 110.946 63.9952 111.002C63.9812 111.072 63.9742 111.135 63.9742 111.191C63.9602 111.247 63.9532 111.303 63.9532 111.359H56.0362C56.0782 111.849 56.1972 112.276 56.3932 112.64C56.5892 113.004 56.8272 113.305 57.1072 113.543C57.4012 113.781 57.7232 113.956 58.0732 114.068C58.4232 114.18 58.7662 114.236 59.1022 114.236C59.7742 114.236 60.3272 114.075 60.7612 113.753C61.1952 113.431 61.5522 113.032 61.8322 112.556L63.8272 113.543ZM61.6642 109.574C61.6362 109.364 61.5662 109.133 61.4542 108.881C61.3562 108.615 61.1952 108.377 60.9712 108.167C60.7612 107.943 60.4812 107.754 60.1312 107.6C59.7952 107.446 59.3822 107.369 58.8922 107.369C58.2202 107.369 57.6392 107.572 57.1492 107.978C56.6732 108.37 56.3512 108.902 56.1832 109.574H61.6642Z"/></svg>