<svg width="100" height="123" viewBox="0 0 100 123" fill="none" xmlns="http://www.w3.org/2000/svg">
<path fill-rule="evenodd" clip-rule="evenodd" d="M50 0C22.3868 0 0 22.0153 0 49.1723C0 62.7924 5.62999 75.1181 14.7268 84.02C15.312 84.59 16.3088 84.4554 16.7084 83.7469C20.9702 76.1749 28.4406 70.2535 37.5575 67.372C31.6087 63.4296 27.698 56.7482 27.698 49.1683C27.698 37.0524 37.6826 27.2361 50 27.2361C62.3174 27.2361 72.302 37.0524 72.302 49.1683C72.302 56.7482 68.3873 63.4296 62.4425 67.372C71.5594 70.2535 79.0298 76.1749 83.2916 83.7469C83.6871 84.4554 84.688 84.59 85.2692 84.02C94.366 75.1181 100 62.7924 100 49.1723C100 22.0153 77.6132 0 50 0Z" fill="#305DFC"/>
<path d="M14.0697 100.964H17.2617L21.5877 112.367H21.7137L26.0397 100.964H29.2317V116H26.9007V107.579L27.0267 104.87H26.9007L22.5957 116H20.7057L16.4007 104.87H16.2747L16.4007 107.579V116H14.0697V100.964ZM37.1852 116.336C36.1352 116.336 35.1902 116.091 34.3502 115.601C33.5242 115.111 32.8732 114.439 32.3972 113.585C31.9352 112.717 31.7042 111.744 31.7042 110.666C31.7042 109.644 31.9282 108.699 32.3762 107.831C32.8382 106.949 33.4752 106.249 34.2872 105.731C35.0992 105.213 36.0232 104.954 37.0592 104.954C38.1372 104.954 39.0682 105.192 39.8522 105.668C40.6502 106.144 41.2522 106.795 41.6582 107.621C42.0782 108.447 42.2882 109.378 42.2882 110.414C42.2882 110.61 42.2672 110.855 42.2252 111.149H34.0142C34.0982 112.143 34.4482 112.913 35.0642 113.459C35.6942 113.991 36.4222 114.257 37.2482 114.257C37.9062 114.257 38.4732 114.11 38.9492 113.816C39.4392 113.508 39.8312 113.095 40.1252 112.577L42.0782 113.501C41.5742 114.383 40.9162 115.076 40.1042 115.58C39.2922 116.084 38.3192 116.336 37.1852 116.336ZM39.9362 109.385C39.9082 109.007 39.7892 108.636 39.5792 108.272C39.3692 107.894 39.0472 107.579 38.6132 107.327C38.1932 107.075 37.6752 106.949 37.0592 106.949C36.3172 106.949 35.6872 107.173 35.1692 107.621C34.6652 108.055 34.3152 108.643 34.1192 109.385H39.9362ZM53.298 100.964H55.986L61.635 116H59.031L57.687 112.157H51.618L50.253 116H47.649L53.298 100.964ZM56.889 109.973L55.293 105.5L54.705 103.757H54.579L53.991 105.5L52.395 109.973H56.889ZM63.3186 105.29H65.5236V106.697H65.6286C65.9366 106.207 66.3916 105.794 66.9936 105.458C67.5956 105.122 68.2746 104.954 69.0306 104.954C69.9966 104.954 70.8716 105.199 71.6556 105.689C72.4396 106.179 73.0556 106.858 73.5036 107.726C73.9656 108.58 74.1966 109.553 74.1966 110.645C74.1966 111.737 73.9656 112.717 73.5036 113.585C73.0556 114.439 72.4396 115.111 71.6556 115.601C70.8716 116.091 69.9966 116.336 69.0306 116.336C68.2746 116.336 67.5956 116.168 66.9936 115.832C66.3916 115.496 65.9366 115.09 65.6286 114.614H65.5236L65.6286 116.105V120.536H63.3186V105.29ZM68.6946 114.215C69.2546 114.215 69.7796 114.068 70.2696 113.774C70.7596 113.48 71.1516 113.06 71.4456 112.514C71.7396 111.968 71.8866 111.345 71.8866 110.645C71.8866 109.945 71.7396 109.329 71.4456 108.797C71.1516 108.251 70.7596 107.831 70.2696 107.537C69.7796 107.243 69.2546 107.096 68.6946 107.096C68.1346 107.096 67.6096 107.243 67.1196 107.537C66.6436 107.831 66.2586 108.251 65.9646 108.797C65.6706 109.329 65.5236 109.945 65.5236 110.645C65.5236 111.345 65.6706 111.968 65.9646 112.514C66.2586 113.06 66.6436 113.48 67.1196 113.774C67.6096 114.068 68.1346 114.215 68.6946 114.215ZM76.0129 105.29H78.2179V106.697H78.3229C78.6309 106.207 79.0859 105.794 79.6879 105.458C80.2899 105.122 80.9689 104.954 81.7249 104.954C82.6909 104.954 83.5659 105.199 84.3499 105.689C85.1339 106.179 85.7499 106.858 86.1979 107.726C86.6599 108.58 86.8909 109.553 86.8909 110.645C86.8909 111.737 86.6599 112.717 86.1979 113.585C85.7499 114.439 85.1339 115.111 84.3499 115.601C83.5659 116.091 82.6909 116.336 81.7249 116.336C80.9689 116.336 80.2899 116.168 79.6879 115.832C79.0859 115.496 78.6309 115.09 78.3229 114.614H78.2179L78.3229 116.105V120.536H76.0129V105.29ZM81.3889 114.215C81.9489 114.215 82.4739 114.068 82.9639 113.774C83.4539 113.48 83.8459 113.06 84.1399 112.514C84.4339 111.968 84.5809 111.345 84.5809 110.645C84.5809 109.945 84.4339 109.329 84.1399 108.797C83.8459 108.251 83.4539 107.831 82.9639 107.537C82.4739 107.243 81.9489 107.096 81.3889 107.096C80.8289 107.096 80.3039 107.243 79.8139 107.537C79.3379 107.831 78.9529 108.251 78.6589 108.797C78.3649 109.329 78.2179 109.945 78.2179 110.645C78.2179 111.345 78.3649 111.968 78.6589 112.514C78.9529 113.06 79.3379 113.48 79.8139 113.774C80.3039 114.068 80.8289 114.215 81.3889 114.215Z" fill="#3561FF"/>
</svg>