<?xml version="1.0" encoding="UTF-8" standalone="no"?>
<!DOCTYPE svg PUBLIC "-//W3C//DTD SVG 1.1//EN" "http://www.w3.org/Graphics/SVG/1.1/DTD/svg11.dtd">
<svg width="100%" height="100%" viewBox="0 0 80 80" version="1.1" xmlns="http://www.w3.org/2000/svg" xmlns:xlink="http://www.w3.org/1999/xlink" xml:space="preserve" xmlns:serif="http://www.serif.com/" style="fill-rule:evenodd;clip-rule:evenodd;stroke-linejoin:round;stroke-miterlimit:2;">
    <g transform="matrix(1,0,0,1,-644.359,-2068.87)">
        <g transform="matrix(2.32395,0,0,2.32395,-897.781,-2683.16)">
            <path d="M695.866,2048.57C695.866,2047.74 695.191,2047.06 694.36,2047.06L667.251,2047.06C666.42,2047.06 665.745,2047.74 665.745,2048.57L665.745,2075.68C665.745,2076.51 666.42,2077.19 667.251,2077.19L694.36,2077.19C695.191,2077.19 695.866,2076.51 695.866,2075.68L695.866,2048.57Z" style="fill:rgb(248,239,246);"/>
        </g>
        <g transform="matrix(55.2486,0,0,55.2486,666.248,2128.48)">
            <path d="M0.518,-0.368C0.553,-0.351 0.579,-0.328 0.598,-0.3C0.616,-0.272 0.625,-0.24 0.625,-0.203C0.625,-0.16 0.613,-0.122 0.588,-0.09C0.563,-0.057 0.529,-0.032 0.484,-0.015C0.439,0.003 0.388,0.012 0.329,0.012C0.27,0.012 0.219,0.003 0.175,-0.015C0.13,-0.032 0.096,-0.057 0.072,-0.09C0.047,-0.122 0.035,-0.16 0.035,-0.203C0.035,-0.24 0.044,-0.272 0.063,-0.3C0.081,-0.328 0.107,-0.351 0.141,-0.368C0.115,-0.384 0.095,-0.404 0.081,-0.429C0.067,-0.453 0.06,-0.481 0.06,-0.512C0.06,-0.553 0.071,-0.588 0.094,-0.618C0.117,-0.648 0.148,-0.671 0.189,-0.688C0.23,-0.704 0.276,-0.712 0.329,-0.712C0.382,-0.712 0.43,-0.704 0.471,-0.688C0.511,-0.671 0.543,-0.648 0.566,-0.618C0.589,-0.588 0.6,-0.553 0.6,-0.512C0.6,-0.481 0.593,-0.453 0.579,-0.429C0.565,-0.404 0.545,-0.384 0.518,-0.368ZM0.329,-0.593C0.296,-0.593 0.27,-0.585 0.251,-0.57C0.231,-0.554 0.221,-0.532 0.221,-0.505C0.221,-0.478 0.231,-0.457 0.25,-0.442C0.269,-0.427 0.296,-0.419 0.329,-0.419C0.362,-0.419 0.389,-0.427 0.409,-0.442C0.429,-0.457 0.439,-0.478 0.439,-0.505C0.439,-0.532 0.429,-0.554 0.409,-0.57C0.389,-0.585 0.362,-0.593 0.329,-0.593ZM0.329,-0.107C0.37,-0.107 0.402,-0.116 0.426,-0.135C0.449,-0.153 0.461,-0.177 0.461,-0.208C0.461,-0.239 0.449,-0.263 0.426,-0.281C0.402,-0.299 0.37,-0.308 0.329,-0.308C0.289,-0.308 0.257,-0.299 0.234,-0.281C0.211,-0.263 0.199,-0.239 0.199,-0.208C0.199,-0.177 0.211,-0.152 0.234,-0.134C0.257,-0.116 0.289,-0.107 0.329,-0.107Z" style="fill:rgb(255,75,153);fill-rule:nonzero;"/>
        </g>
    </g>
</svg>
