<?xml version="1.0" encoding="UTF-8" standalone="no"?>
<!DOCTYPE svg PUBLIC "-//W3C//DTD SVG 1.1//EN" "http://www.w3.org/Graphics/SVG/1.1/DTD/svg11.dtd">
<svg width="100%" height="100%" viewBox="0 0 80 80" version="1.1" xmlns="http://www.w3.org/2000/svg" xmlns:xlink="http://www.w3.org/1999/xlink" xml:space="preserve" xmlns:serif="http://www.serif.com/" style="fill-rule:evenodd;clip-rule:evenodd;stroke-linejoin:round;stroke-miterlimit:2;">
    <g transform="matrix(1,0,0,1,-644.359,-2068.87)">
        <g transform="matrix(2.32395,0,0,2.32395,-897.781,-2683.16)">
            <path d="M695.866,2048.57C695.866,2047.74 695.191,2047.06 694.36,2047.06L667.251,2047.06C666.42,2047.06 665.745,2047.74 665.745,2048.57L665.745,2075.68C665.745,2076.51 666.42,2077.19 667.251,2077.19L694.36,2077.19C695.191,2077.19 695.866,2076.51 695.866,2075.68L695.866,2048.57Z" style="fill:rgb(248,239,246);"/>
        </g>
        <g transform="matrix(55.2486,0,0,55.2486,666.142,2128.21)">
            <path d="M0.376,-0.439C0.421,-0.439 0.461,-0.43 0.498,-0.412C0.535,-0.394 0.564,-0.369 0.585,-0.336C0.606,-0.303 0.617,-0.264 0.617,-0.221C0.617,-0.174 0.605,-0.133 0.582,-0.098C0.559,-0.063 0.527,-0.035 0.487,-0.017C0.446,0.003 0.401,0.012 0.352,0.012C0.254,0.012 0.177,-0.018 0.122,-0.078C0.067,-0.138 0.039,-0.224 0.039,-0.335C0.039,-0.414 0.054,-0.482 0.084,-0.539C0.114,-0.596 0.156,-0.639 0.21,-0.668C0.263,-0.697 0.325,-0.712 0.396,-0.712C0.433,-0.712 0.469,-0.708 0.504,-0.7C0.538,-0.691 0.567,-0.679 0.591,-0.664L0.531,-0.545C0.496,-0.568 0.453,-0.58 0.4,-0.58C0.341,-0.58 0.294,-0.563 0.259,-0.528C0.224,-0.493 0.206,-0.443 0.203,-0.377C0.244,-0.418 0.302,-0.439 0.376,-0.439ZM0.343,-0.109C0.378,-0.109 0.406,-0.118 0.428,-0.137C0.449,-0.156 0.46,-0.181 0.46,-0.213C0.46,-0.245 0.449,-0.271 0.428,-0.29C0.406,-0.309 0.377,-0.318 0.341,-0.318C0.306,-0.318 0.277,-0.308 0.254,-0.289C0.231,-0.269 0.22,-0.244 0.22,-0.213C0.22,-0.182 0.231,-0.157 0.253,-0.138C0.275,-0.119 0.305,-0.109 0.343,-0.109Z" style="fill:rgb(255,75,153);fill-rule:nonzero;"/>
        </g>
    </g>
</svg>
