<?xml version="1.0" encoding="UTF-8" standalone="no"?>
<!DOCTYPE svg PUBLIC "-//W3C//DTD SVG 1.1//EN" "http://www.w3.org/Graphics/SVG/1.1/DTD/svg11.dtd">
<svg width="100%" height="100%" viewBox="0 0 80 80" version="1.1" xmlns="http://www.w3.org/2000/svg" xmlns:xlink="http://www.w3.org/1999/xlink" xml:space="preserve" xmlns:serif="http://www.serif.com/" style="fill-rule:evenodd;clip-rule:evenodd;stroke-linejoin:round;stroke-miterlimit:2;">
    <g id="ICONS">
    </g>
    <g id="LOGOS">
    </g>
    <g id="NUMBERS">
        <g transform="matrix(0.849182,0,0,0.830899,5.89629,6.80115)">
            <rect x="-6.93" y="-8.198" width="94.208" height="96.281" style="fill:rgb(53,145,255);"/>
        </g>
        <g transform="matrix(40,0,0,40,28.9121,53.8865)">
            <path d="M0.366,-0.415C0.427,-0.405 0.474,-0.382 0.507,-0.347C0.54,-0.311 0.556,-0.267 0.556,-0.214C0.556,-0.173 0.545,-0.136 0.524,-0.102C0.503,-0.067 0.47,-0.04 0.427,-0.019C0.383,0.002 0.329,0.012 0.266,0.012C0.217,0.012 0.168,0.006 0.121,-0.008C0.073,-0.021 0.032,-0.039 -0.001,-0.063L0.062,-0.187C0.089,-0.167 0.12,-0.152 0.155,-0.141C0.19,-0.13 0.225,-0.124 0.262,-0.124C0.303,-0.124 0.335,-0.132 0.358,-0.148C0.381,-0.163 0.393,-0.185 0.393,-0.214C0.393,-0.271 0.349,-0.3 0.262,-0.3L0.188,-0.3L0.188,-0.407L0.332,-0.57L0.034,-0.57L0.034,-0.7L0.524,-0.7L0.524,-0.595L0.366,-0.415Z" style="fill:white;fill-rule:nonzero;"/>
        </g>
    </g>
</svg>
