<?xml version="1.0" encoding="UTF-8" standalone="no"?>
<!DOCTYPE svg PUBLIC "-//W3C//DTD SVG 1.1//EN" "http://www.w3.org/Graphics/SVG/1.1/DTD/svg11.dtd">
<svg width="100%" height="100%" viewBox="0 0 80 80" version="1.1" xmlns="http://www.w3.org/2000/svg" xmlns:xlink="http://www.w3.org/1999/xlink" xml:space="preserve" xmlns:serif="http://www.serif.com/" style="fill-rule:evenodd;clip-rule:evenodd;stroke-linejoin:round;stroke-miterlimit:2;">
    <g transform="matrix(1,0,0,1,-644.359,-2068.87)">
        <g transform="matrix(2.32395,0,0,2.32395,-897.781,-2683.16)">
            <path d="M695.866,2048.57C695.866,2047.74 695.191,2047.06 694.36,2047.06L667.251,2047.06C666.42,2047.06 665.745,2047.74 665.745,2048.57L665.745,2075.68C665.745,2076.51 666.42,2077.19 667.251,2077.19L694.36,2077.19C695.191,2077.19 695.866,2076.51 695.866,2075.68L695.866,2048.57Z" style="fill:rgb(248,239,246);"/>
        </g>
        <g transform="matrix(57.1429,0,0,57.1429,675.31,2128.37)">
            <path d="M0.309,-0.7L0.309,0L0.147,0L0.147,-0.57L0.007,-0.57L0.007,-0.7L0.309,-0.7Z" style="fill:rgb(255,75,153);fill-rule:nonzero;"/>
        </g>
    </g>
</svg>
