<?xml version="1.0" encoding="UTF-8" standalone="no"?>
<!DOCTYPE svg PUBLIC "-//W3C//DTD SVG 1.1//EN" "http://www.w3.org/Graphics/SVG/1.1/DTD/svg11.dtd">
<svg width="100%" height="100%" viewBox="0 0 80 80" version="1.1" xmlns="http://www.w3.org/2000/svg" xmlns:xlink="http://www.w3.org/1999/xlink" xml:space="preserve" xmlns:serif="http://www.serif.com/" style="fill-rule:evenodd;clip-rule:evenodd;stroke-linejoin:round;stroke-miterlimit:2;">
    <g id="ICONS">
    </g>
    <g id="LOGOS">
    </g>
    <g id="NUMBERS">
        <g transform="matrix(0.849182,0,0,0.830899,5.89629,6.80115)">
            <rect x="-6.93" y="-8.198" width="94.208" height="96.281" style="fill:rgb(53,145,255);"/>
        </g>
        <g transform="matrix(40,0,0,40,28.4991,53.9786)">
            <path d="M0.279,-0.437C0.378,-0.437 0.45,-0.417 0.498,-0.378C0.545,-0.339 0.568,-0.286 0.568,-0.22C0.568,-0.177 0.557,-0.138 0.536,-0.104C0.515,-0.069 0.482,-0.041 0.439,-0.02C0.395,0.002 0.341,0.012 0.277,0.012C0.228,0.012 0.179,0.006 0.132,-0.008C0.084,-0.021 0.043,-0.039 0.01,-0.063L0.074,-0.187C0.101,-0.167 0.131,-0.152 0.166,-0.141C0.201,-0.13 0.236,-0.124 0.273,-0.124C0.314,-0.124 0.346,-0.132 0.369,-0.148C0.392,-0.164 0.404,-0.186 0.404,-0.215C0.404,-0.245 0.392,-0.268 0.368,-0.283C0.343,-0.298 0.301,-0.306 0.241,-0.306L0.062,-0.306L0.098,-0.7L0.525,-0.7L0.525,-0.57L0.233,-0.57L0.222,-0.437L0.279,-0.437Z" style="fill:white;fill-rule:nonzero;"/>
        </g>
    </g>
</svg>
