<?xml version="1.0" encoding="UTF-8" standalone="no"?>
<!DOCTYPE svg PUBLIC "-//W3C//DTD SVG 1.1//EN" "http://www.w3.org/Graphics/SVG/1.1/DTD/svg11.dtd">
<svg width="100%" height="100%" viewBox="0 0 80 80" version="1.1" xmlns="http://www.w3.org/2000/svg" xmlns:xlink="http://www.w3.org/1999/xlink" xml:space="preserve" xmlns:serif="http://www.serif.com/" style="fill-rule:evenodd;clip-rule:evenodd;stroke-linejoin:round;stroke-miterlimit:2;">
    <g transform="matrix(1,0,0,1,-644.359,-2068.87)">
        <g transform="matrix(2.32395,0,0,2.32395,-897.781,-2683.16)">
            <path d="M695.866,2048.57C695.866,2047.74 695.191,2047.06 694.36,2047.06L667.251,2047.06C666.42,2047.06 665.745,2047.74 665.745,2048.57L665.745,2075.68C665.745,2076.51 666.42,2077.19 667.251,2077.19L694.36,2077.19C695.191,2077.19 695.866,2076.51 695.866,2075.68L695.866,2048.57Z" style="fill:rgb(248,239,246);"/>
        </g>
        <g transform="matrix(56.1798,0,0,56.1798,668.17,2128)">
            <path d="M0.279,-0.437C0.378,-0.437 0.45,-0.417 0.498,-0.378C0.545,-0.339 0.568,-0.286 0.568,-0.22C0.568,-0.177 0.557,-0.138 0.536,-0.104C0.515,-0.069 0.482,-0.041 0.439,-0.02C0.395,0.002 0.341,0.012 0.277,0.012C0.228,0.012 0.179,0.006 0.132,-0.008C0.084,-0.021 0.043,-0.039 0.01,-0.063L0.074,-0.187C0.101,-0.167 0.131,-0.152 0.166,-0.141C0.201,-0.13 0.236,-0.124 0.273,-0.124C0.314,-0.124 0.346,-0.132 0.369,-0.148C0.392,-0.164 0.404,-0.186 0.404,-0.215C0.404,-0.245 0.392,-0.268 0.368,-0.283C0.343,-0.298 0.301,-0.306 0.241,-0.306L0.062,-0.306L0.098,-0.7L0.525,-0.7L0.525,-0.57L0.233,-0.57L0.222,-0.437L0.279,-0.437Z" style="fill:rgb(255,75,153);fill-rule:nonzero;"/>
        </g>
    </g>
</svg>
