<?xml version="1.0" encoding="UTF-8" standalone="no"?>
<!DOCTYPE svg PUBLIC "-//W3C//DTD SVG 1.1//EN" "http://www.w3.org/Graphics/SVG/1.1/DTD/svg11.dtd">
<svg width="100%" height="100%" viewBox="0 0 80 80" version="1.1" xmlns="http://www.w3.org/2000/svg" xmlns:xlink="http://www.w3.org/1999/xlink" xml:space="preserve" xmlns:serif="http://www.serif.com/" style="fill-rule:evenodd;clip-rule:evenodd;stroke-linejoin:round;stroke-miterlimit:2;">
    <g transform="matrix(1,0,0,1,-644.359,-2068.87)">
        <g id="NUMBERS">
            <g id="PINK">
                <g transform="matrix(2.32395,0,0,2.32395,-897.781,-2683.16)">
                    <path d="M695.866,2048.57C695.866,2047.74 695.191,2047.06 694.36,2047.06L667.251,2047.06C666.42,2047.06 665.745,2047.74 665.745,2048.57L665.745,2075.68C665.745,2076.51 666.42,2077.19 667.251,2077.19L694.36,2077.19C695.191,2077.19 695.866,2076.51 695.866,2075.68L695.866,2048.57Z" style="fill:rgb(248,239,246);"/>
                </g>
                <g transform="matrix(56.1798,0,0,56.1798,668.825,2128.26)">
                    <path d="M0.562,-0.132L0.562,0L0.033,0L0.033,-0.105L0.303,-0.36C0.332,-0.387 0.351,-0.411 0.361,-0.431C0.371,-0.45 0.376,-0.47 0.376,-0.489C0.376,-0.517 0.367,-0.539 0.348,-0.554C0.329,-0.569 0.301,-0.576 0.264,-0.576C0.233,-0.576 0.206,-0.57 0.181,-0.559C0.156,-0.547 0.136,-0.529 0.119,-0.506L0.001,-0.582C0.028,-0.623 0.066,-0.655 0.114,-0.678C0.162,-0.7 0.217,-0.712 0.279,-0.712C0.331,-0.712 0.377,-0.704 0.416,-0.687C0.455,-0.67 0.485,-0.646 0.507,-0.615C0.528,-0.584 0.539,-0.547 0.539,-0.505C0.539,-0.467 0.531,-0.431 0.515,-0.398C0.499,-0.365 0.468,-0.327 0.422,-0.284L0.261,-0.132L0.562,-0.132Z" style="fill:rgb(255,75,153);fill-rule:nonzero;"/>
                </g>
            </g>
        </g>
    </g>
</svg>
