<svg xmlns="http://www.w3.org/2000/svg" width="72" height="72" fill="none" viewBox="0 0 72 72"><g clip-path="url(#clip0)"><path fill="url(#paint0_linear)" d="M71.9996 24.6495C71.9813 26.0321 71.4257 27.3246 70.4341 28.288L35.9993 61.8058L28.6532 68.9563C28.5955 69.0126 28.5365 69.0646 28.476 69.1152L28.4563 69.1335C28.4001 69.1841 28.3438 69.2333 28.2862 69.2798C28.2215 69.3318 28.1568 69.3796 28.0907 69.4274L28.0541 69.4541C27.9937 69.4977 27.9332 69.5413 27.8699 69.5821C27.801 69.6271 27.7307 69.6693 27.6604 69.7087L27.6238 69.7312C27.5605 69.7691 27.4958 69.8057 27.4312 69.8394C27.3566 69.8788 27.2821 69.9126 27.2076 69.9463L27.1724 69.9618C27.1063 69.9927 27.0402 70.0223 26.9741 70.049C26.8926 70.0827 26.8124 70.1108 26.7308 70.1376L26.7041 70.146C26.6352 70.1713 26.5691 70.1938 26.503 70.2135C26.4116 70.2402 26.3216 70.2613 26.2302 70.2824L26.2162 70.2852C26.1472 70.3035 26.0854 70.3176 26.0221 70.3302C25.8927 70.3541 25.783 70.3682 25.7001 70.378C25.6424 70.3879 25.589 70.3949 25.5341 70.3991C25.371 70.4146 25.2065 70.423 25.0432 70.423C24.8773 70.423 24.7099 70.4146 24.5438 70.3991C24.4862 70.3935 24.4285 70.3851 24.3695 70.3766C24.2879 70.3654 24.1768 70.3513 24.0474 70.326C23.9827 70.3133 23.9167 70.2979 23.8506 70.281L23.8351 70.2768C23.7423 70.2557 23.6509 70.2332 23.5609 70.2065C23.4906 70.1854 23.4245 70.1629 23.3598 70.139L23.3288 70.1277C23.2459 70.0996 23.1629 70.0701 23.0799 70.0363C23.0152 70.0096 22.9477 69.9787 22.8802 69.9463L22.8437 69.9294C22.7677 69.8943 22.6918 69.8591 22.6187 69.8198C22.5526 69.7846 22.4851 69.7452 22.419 69.7058L22.3824 69.6833C22.3121 69.6426 22.2418 69.6004 22.1729 69.554C22.1096 69.5118 22.0463 69.4654 21.9831 69.4176L21.9451 69.3894C21.8804 69.3416 21.8157 69.2938 21.7524 69.2418C21.6934 69.1926 21.6343 69.1391 21.5767 69.0857L21.5584 69.0688C21.4965 69.014 21.4388 68.9619 21.3826 68.9057L1.51369 49.0378C-0.504562 47.0195 -0.504562 43.7368 1.51369 41.7184C2.49117 40.7409 3.79083 40.2022 5.17331 40.2022C6.5558 40.2022 7.85545 40.7409 8.83294 41.7184L25.0919 57.9773L35.9992 47.3612L63.2146 20.8716C65.261 18.88 68.5437 18.925 70.534 20.97C71.4974 21.9603 72.0193 23.2668 71.9996 24.6495Z"/><path fill="#DDE5FF" d="M27.6023 30.0525C25.4414 28.8668 23.6725 27.0979 22.4867 24.9373C22.054 24.1485 21.2265 23.6584 20.3266 23.6584C20.3265 23.6584 20.3265 23.6584 20.3265 23.6584C19.4269 23.6584 18.599 24.1484 18.166 24.937C16.9803 27.0979 15.2114 28.8668 13.0504 30.0527C12.2616 30.4856 11.7718 31.3134 11.772 32.2132C11.772 33.1128 12.2622 33.9407 13.0505 34.3732C15.2114 35.559 16.9803 37.3279 18.1662 39.4889C18.5992 40.2776 19.4269 40.7674 20.3267 40.7673C21.2263 40.7673 22.0542 40.2771 22.4867 39.4887C23.6726 37.3278 25.4416 35.5588 27.6024 34.3731C28.391 33.9404 28.881 33.1128 28.881 32.2131C28.881 31.3135 28.391 30.4855 27.6023 30.0525Z"/><path fill="#D7E3FF" d="M49.979 22.7901C49.979 23.6889 49.4881 24.5173 48.7006 24.9491C46.5388 26.1347 44.7708 27.9041 43.5838 30.0659C43.1519 30.8536 42.3237 31.3443 41.4248 31.3443C41.4234 31.3443 41.4234 31.3443 41.4234 31.3443C40.5232 31.3443 39.6962 30.8534 39.2631 30.0645C38.4375 28.5595 37.3278 27.2431 36 26.184C35.4233 25.7212 34.8046 25.3077 34.1491 24.9491C33.3601 24.5173 32.8691 23.689 32.8691 22.7901C32.8691 21.89 33.3601 21.0616 34.1476 20.6297C34.803 20.2697 35.4218 19.8561 35.9999 19.3949C37.3277 18.3344 38.4373 17.0193 39.2644 15.5129C39.6961 14.7253 40.5231 14.2345 41.4234 14.2345C41.4234 14.2345 41.4234 14.2345 41.4248 14.2345C42.3235 14.2345 43.1519 14.7254 43.5838 15.5129C44.7708 17.6747 46.5388 19.4441 48.7006 20.6297C49.4881 21.0616 49.979 21.89 49.979 22.7901Z"/><path fill="#DDE5FF" d="M31.8222 7.97074C29.6614 6.78499 27.8925 5.01607 26.7067 2.8555C26.274 2.06674 25.4464 1.57666 24.5466 1.57666C24.5464 1.57666 24.5464 1.57666 24.5464 1.57666C23.6469 1.57666 22.819 2.0666 22.386 2.85522C21.2003 5.01607 19.4314 6.78499 17.2704 7.97088C16.4816 8.40387 15.9918 9.23159 15.9919 10.1314C15.9919 11.031 16.4822 11.8589 17.2705 12.2914C19.4314 13.4772 21.2003 15.2461 22.3862 17.4071C22.8191 18.1959 23.6469 18.6857 24.5467 18.6855C25.4463 18.6855 26.2742 18.1953 26.7067 17.407C27.8926 15.246 29.6615 13.4771 31.8224 12.2913C32.611 11.8585 33.1009 11.031 33.1009 10.1313C33.1009 9.23173 32.611 8.40373 31.8222 7.97074Z"/><path fill="#3561FF" d="M71.999 24.6495C71.9807 26.0321 71.4251 27.3246 70.4336 28.288L35.9988 61.8058V47.3612L63.214 20.8716C65.2604 18.88 68.5432 18.925 70.5334 20.97C71.4968 21.9603 72.0187 23.2668 71.999 24.6495Z"/><path fill="#BCCBFF" d="M49.9777 22.7901C49.9777 23.6889 49.4868 24.5173 48.6993 24.9491C46.5375 26.1347 44.7696 27.9041 43.5825 30.0659C43.1507 30.8536 42.3224 31.3443 41.4235 31.3443C41.4221 31.3443 41.4221 31.3443 41.4221 31.3443C40.522 31.3443 39.695 30.8534 39.2618 30.0645C38.4362 28.5595 37.3266 27.2431 35.9988 26.184V19.3949C37.3266 18.3344 38.4362 17.0193 39.2633 15.5129C39.695 14.7253 40.522 14.2345 41.4223 14.2345C41.4223 14.2345 41.4223 14.2345 41.4237 14.2345C42.3224 14.2345 43.1508 14.7254 43.5827 15.5129C44.7697 17.6747 46.5376 19.4441 48.6995 20.6297C49.4868 21.0616 49.9777 21.89 49.9777 22.7901Z"/></g><defs><linearGradient id="paint0_linear" x1="36" x2="36" y1="19.407" y2="70.423" gradientUnits="userSpaceOnUse"><stop stop-color="#DDE5FF"/><stop offset="1" stop-color="#BCCBFF"/></linearGradient><clipPath id="clip0"><rect width="72" height="72" fill="#fff"/></clipPath></defs></svg>