<?xml version="1.0" encoding="UTF-8"?>
<!DOCTYPE svg PUBLIC "-//W3C//DTD SVG 1.1//EN" "http://www.w3.org/Graphics/SVG/1.1/DTD/svg11.dtd">
<svg xmlns="http://www.w3.org/2000/svg" xml:space="preserve" width="450px" height="150px" version="1.1" style="shape-rendering:geometricPrecision; text-rendering:geometricPrecision; image-rendering:optimizeQuality; fill-rule:evenodd; clip-rule:evenodd"
viewBox="0 0 45002 15025"
 xmlns:xlink="http://www.w3.org/1999/xlink">
 <defs>
  <style type="text/css">
   <![CDATA[
    .fil0 {fill:#A80A2D}
   ]]>
  </style>
 </defs>
 <g>
  <path id="Fill-53" class="fil0" d="M7691 4933c-82,-161 -155,-316 -220,-464 1176,-530 1404,-964 1655,-1464 207,-411 442,-878 1194,-1389 1124,-764 1527,-1310 1683,-1565l0 834c-302,333 -710,688 -1396,1154 -643,437 -828,806 -1024,1197 -271,537 -550,1093 -1892,1697zm2604 -2102c201,-8 935,-59 1687,-381l0 558c-751,282 -1456,331 -1685,340 10,-208 4,-387 -2,-517zm-1182 3313c293,283 474,647 536,1080 113,779 301,1348 591,1791 18,27 36,55 55,82l-450 277c-22,-32 -45,-65 -66,-98 -330,-504 -542,-1134 -665,-1984 -47,-326 -178,-595 -389,-799 -48,-46 -140,-135 -342,-245l-14 -6c-71,-35 -148,-72 -223,-107 233,-70 442,-155 628,-251 142,94 294,217 339,260zm1496 -2204c310,221 726,516 1373,548l0 518c-811,-32 -1324,-396 -1672,-644 -57,-40 -112,-79 -162,-112 56,-181 92,-360 116,-529 110,53 222,132 345,219zm584 2015c98,237 217,508 381,712 120,148 267,239 408,278l0 528c-301,-44 -587,-205 -810,-481 -208,-258 -345,-568 -457,-839 -198,-479 -656,-932 -959,-1101 105,-145 189,-296 258,-447 422,238 938,770 1179,1350zm-1662 -630c398,293 949,866 1092,1851 110,757 285,1205 514,1512 55,66 367,395 845,642l0 581c-153,-64 -334,-157 -458,-231l0 0c-259,-156 -525,-339 -755,-612 -36,-40 -57,-67 -61,-73l1 0c-34,-43 -66,-89 -98,-137 -253,-387 -420,-900 -523,-1615 -77,-531 -302,-980 -668,-1334 -93,-90 -207,-181 -290,-240 152,-107 285,-223 401,-344zm-1196 2609c-112,-635 -193,-1094 -1139,-1094l0 -517c1380,0 1535,879 1648,1521 18,96 34,190 54,279 -92,80 -243,202 -444,337 -55,-170 -88,-350 -119,-526zm-6649 -5103c-201,-8 -934,-59 -1686,-381l0 558c750,282 1456,331 1684,340 -9,-208 -3,-387 2,-517zm1183 3313c-293,283 -474,647 -537,1080 -112,779 -300,1348 -590,1791 -18,27 -37,55 -56,82l451 277c22,-32 44,-65 66,-98 330,-504 541,-1134 664,-1984 47,-326 179,-595 390,-799 48,-46 140,-135 342,-245l14 -6c71,-35 147,-72 222,-107 -233,-70 -441,-155 -627,-251 -142,94 -295,217 -339,260zm-1496 -2204c-311,221 -726,516 -1373,548l0 518c811,-32 1324,-396 1672,-644 57,-40 112,-79 162,-112 -56,-181 -92,-360 -116,-529 -111,53 -222,132 -345,219zm-584 2015c-98,237 -217,508 -381,712 -120,148 -267,239 -408,278l0 528c301,-44 587,-205 810,-481 207,-258 344,-568 456,-839 199,-479 657,-932 959,-1101 -104,-145 -189,-296 -258,-447 -421,238 -937,770 -1178,1350zm1662 -630c-399,293 -950,866 -1092,1851 -110,757 -285,1205 -515,1512 -54,66 -367,395 -844,642l0 581c152,-64 333,-157 458,-231l0 0c259,-156 525,-339 754,-612 36,-40 57,-67 62,-73l-1 0c33,-43 66,-89 97,-137 254,-387 420,-900 524,-1615 77,-531 301,-980 668,-1334 93,-90 207,-181 290,-240 -153,-107 -285,-223 -401,-344zm1195 2609c112,-635 193,-1094 1140,-1094l0 -517c-1380,0 -1535,879 -1649,1521 -17,96 -33,190 -53,279 92,80 243,202 444,337 55,-170 87,-350 118,-526zm662 4782c-364,73 -536,145 -536,145 -231,-415 -293,-730 -193,-991 126,-330 476,-470 785,-593 185,-74 377,-151 517,-262 70,-55 231,-256 217,-923 -9,-407 -81,-773 -82,-777l-43 -212c175,43 365,76 570,97 3,16 84,427 94,875 15,652 -121,1097 -406,1323 -202,160 -442,256 -654,341 -237,95 -442,177 -489,300 -31,80 28,335 220,677zm6145 -1726c35,76 55,162 55,252 0,90 -20,176 -56,253 0,0 790,68 557,1005 0,0 171,-145 285,-264 168,-177 269,-331 269,-331 -207,-882 -1110,-915 -1110,-915zm-94 649c-110,127 -273,207 -455,207 -13,0 -25,0 -38,-1 0,0 77,158 77,305 0,147 -34,396 -497,593l208 501c689,-282 835,-774 835,-1076 0,-303 -130,-529 -130,-529zm-1053 -317c-74,43 -194,124 -292,253 -141,183 -265,492 -63,929l496 -200c-81,-174 -82,-313 -3,-425 46,-65 107,-106 140,-125 -149,-94 -253,-250 -278,-432zm27 -276l-700 -612 390 -347 672 588c-169,62 -303,199 -362,371zm571 -409c59,-89 163,-228 310,-352 339,-286 736,-348 1119,-173l-238 451c-121,-55 -288,-95 -510,87 -90,74 -159,161 -202,223 -111,-143 -284,-236 -479,-236zm-505 -1134l-186 472c-516,-177 -965,-538 -1290,-863 246,441 482,995 467,1523l-539 -14c15,-536 -332,-1172 -591,-1586 322,-91 662,-227 926,-404 287,311 722,704 1213,872zm-5088 -4570c83,-161 156,-316 221,-464 -1176,-530 -1404,-964 -1655,-1464 -207,-411 -442,-878 -1194,-1389 -1124,-764 -1527,-1310 -1683,-1565l0 834c302,333 710,688 1396,1154 642,437 828,806 1024,1197 270,537 550,1093 1891,1697zm-2761 6562c-35,-77 -55,-163 -55,-253 0,-90 20,-175 55,-252 0,0 -903,33 -1111,915 0,0 102,154 270,331 113,119 285,264 285,264 -233,-937 556,-1005 556,-1005zm509 655c0,-147 77,-305 77,-305 -12,1 -25,1 -37,1 -182,0 -345,-80 -455,-208 0,0 -130,227 -130,530 0,302 146,794 835,1076l208 -501c-464,-197 -498,-446 -498,-593zm637 -828c75,43 194,124 293,253 140,183 265,492 63,929l-496 -200c81,-174 82,-313 3,-425 -46,-65 -107,-106 -140,-125 149,-94 253,-250 277,-432zm-26 -276l700 -612 -390 -347 -672 588c169,62 303,199 362,371zm-571 -409c-59,-89 -163,-228 -310,-352 -339,-286 -736,-348 -1119,-173l238 451c121,-55 288,-95 510,87 90,74 159,161 202,223 111,-143 284,-236 479,-236zm505 -1134l186 472c516,-177 965,-538 1290,-863 -246,441 -482,995 -467,1523l539 -14c-15,-536 332,-1172 591,-1586 -322,-91 -662,-227 -926,-404 -287,311 -723,704 -1213,872zm3901 3378c-49,337 -143,820 -392,1114 -44,52 -82,98 -116,139 -34,-41 -73,-87 -117,-139 -249,-294 -343,-777 -392,-1114l-535 67c58,396 172,967 503,1358 217,257 293,358 315,390 57,82 226,329 226,329 0,0 168,-247 225,-329 22,-31 98,-132 315,-390 159,-187 383,-532 503,-1358l-535 -67zm1278 -9125c-468,-1409 -23,-2022 -18,-2028l-3 3 -431 -302c-18,22 -177,228 -257,640 -102,525 -37,1143 193,1836l516 -149zm-2846 -1687c-80,-412 -239,-618 -257,-640l-431 302 -3 -3c1,2 113,152 168,472 92,545 -50,1147 -186,1556l516 149c230,-693 295,-1311 193,-1836zm1335 1656c8,-1083 112,-1915 308,-2472 139,-395 324,-645 534,-722 337,-124 772,203 911,340l96 95 139 -18c636,-85 758,48 770,64 44,57 0,192 -33,252l1 -1 476 237c25,-44 245,-447 -1,-776 -191,-254 -571,-350 -1158,-290 -78,-64 -195,-153 -338,-232 -373,-208 -739,-257 -1059,-140 -419,153 -725,568 -921,1257 -196,-689 -502,-1104 -922,-1257 -319,-117 -686,-68 -1059,140 -142,79 -260,168 -338,232 -587,-60 -966,36 -1157,290 -247,329 -27,732 -1,776l475 -237 1 1c-33,-60 -76,-195 -33,-252 12,-16 135,-149 770,-64l139 18 96 -95c2,-2 135,-132 326,-238 227,-127 424,-161 585,-103 210,77 395,326 534,721 196,557 300,1390 309,2474l0 1330 550 0 0 -1330zm1423 8991c364,73 535,145 535,145 232,-415 294,-730 194,-991 -127,-330 -476,-470 -785,-593 -186,-74 -377,-151 -517,-262 -70,-55 -231,-256 -217,-923 9,-407 81,-773 82,-777l43 -212c-175,43 -365,76 -570,97 -3,16 -84,427 -94,875 -16,652 121,1097 406,1323 202,160 442,256 654,341 237,95 442,177 489,300 31,80 -29,335 -220,677zm34423 -1149l-646 0 541 -3498 -600 -107 50 -360 1296 -175 -109 668c268,-223 521,-387 757,-493 236,-105 468,-158 694,-158 218,0 385,58 501,173 116,116 174,281 174,495 0,46 -3,100 -8,165 -6,64 -17,150 -34,259l-386 2453 654 0 -54 368 -558 175c-92,29 -176,50 -251,65 -76,14 -135,21 -177,21 -97,0 -171,-24 -220,-73 -49,-48 -73,-122 -73,-222 0,-29 2,-65 6,-110 4,-44 11,-97 19,-160l390 -2496c6,-34 10,-69 13,-105 2,-35 4,-82 4,-139 0,-94 -22,-164 -65,-210 -43,-45 -111,-68 -203,-68 -112,0 -257,33 -434,101 -178,67 -448,193 -812,378l-469 3053zm-3222 -2411c31,3 62,5 94,7 32,1 80,2 145,2 419,0 731,-68 937,-203 205,-136 308,-344 308,-623 0,-140 -41,-251 -124,-332 -82,-81 -196,-122 -341,-122 -249,0 -462,110 -640,330 -177,219 -304,533 -379,941l0 0zm1740 1824c-193,220 -408,389 -646,507 -237,119 -479,178 -725,178 -369,0 -651,-122 -845,-366 -194,-244 -291,-599 -291,-1064 0,-830 183,-1509 549,-2035 366,-527 833,-790 1400,-790 299,0 529,78 688,235 159,157 239,383 239,677 0,405 -165,723 -495,952 -330,230 -788,345 -1375,345 -81,0 -144,-1 -187,-2 -43,-2 -84,-2 -123,-2 -12,105 -20,201 -26,288 -5,88 -8,160 -8,217 0,316 58,556 174,719 116,162 287,244 514,244 137,0 283,-34 438,-103 155,-68 321,-174 497,-317l222 317zm-5566 -2025c0,229 55,403 166,523 110,119 270,179 480,179 235,0 419,-95 553,-287 135,-191 202,-455 202,-792 0,-228 -53,-402 -160,-522 -106,-120 -258,-180 -457,-180 -243,0 -434,95 -574,285 -140,190 -210,455 -210,794l0 0zm30 2410c-246,197 -420,367 -520,510 -101,142 -151,285 -151,428 0,217 92,389 276,518 185,128 436,192 755,192 389,0 714,-87 977,-263 263,-175 394,-386 394,-631 0,-257 -230,-434 -692,-531 -28,-6 -49,-10 -62,-13l-977 -210zm109 -1339c-263,-86 -467,-230 -613,-431 -145,-201 -218,-441 -218,-721 0,-428 138,-778 413,-1049 276,-271 633,-407 1072,-407 176,0 339,28 490,82 151,54 305,141 462,261 170,-111 338,-193 505,-246 166,-53 339,-79 518,-79 64,0 156,10 276,29 17,3 31,6 42,9l-88 578 -1065 0c59,91 102,193 130,304 28,111 42,231 42,359 0,406 -133,737 -398,994 -266,257 -611,385 -1036,385 -42,0 -74,-1 -96,-2 -23,-2 -44,-4 -63,-7 -92,103 -162,199 -208,287 -46,89 -69,166 -69,231 0,146 194,253 583,321 103,20 183,36 239,48 578,108 954,229 1126,361 172,133 258,322 258,568 0,433 -202,804 -604,1112 -403,309 -903,463 -1501,463 -478,0 -871,-104 -1179,-310 -307,-207 -461,-465 -461,-773 0,-220 80,-419 239,-597 159,-179 418,-358 776,-538 -81,-54 -138,-110 -172,-169 -34,-58 -50,-130 -50,-216 0,-160 51,-307 153,-441 102,-134 267,-270 497,-406l0 0zm-3512 -870c31,3 63,5 95,7 32,1 80,2 144,2 420,0 732,-68 938,-203 205,-136 308,-344 308,-623 0,-140 -42,-251 -124,-332 -83,-81 -196,-122 -342,-122 -249,0 -462,110 -639,330 -178,219 -304,533 -380,941l0 0zm1740 1824c-192,220 -408,389 -645,507 -238,119 -480,178 -726,178 -369,0 -650,-122 -844,-366 -195,-244 -292,-599 -292,-1064 0,-830 183,-1509 549,-2035 366,-527 833,-790 1401,-790 299,0 528,78 688,235 159,157 238,383 238,677 0,405 -164,723 -494,952 -330,230 -789,345 -1376,345 -81,0 -143,-1 -186,-2 -44,-2 -85,-2 -124,-2 -11,105 -19,201 -25,288 -6,88 -8,160 -8,217 0,316 58,556 174,719 115,162 287,244 513,244 137,0 283,-34 438,-103 156,-68 321,-174 497,-317l222 317zm-6136 -2423c6,-43 11,-86 17,-130 6,-45 8,-82 8,-114 0,-94 -21,-164 -65,-210 -43,-45 -111,-68 -203,-68 -134,0 -305,40 -514,120 -208,80 -443,197 -706,351l-478 3061 -646 0 541 -3498 -616 -124 50 -342 1313 -176 -93 642c257,-214 500,-372 728,-473 227,-101 452,-152 673,-152 218,0 387,55 509,165 122,110 182,263 182,460 266,-211 516,-368 751,-471 235,-103 464,-154 688,-154 221,0 388,56 503,169 114,113 172,279 172,499 0,48 -4,108 -11,178 -7,70 -17,153 -31,250l-377 2449 654 0 -55 368 -558 175c-92,29 -177,52 -255,69 -79,17 -139,26 -181,26 -95,0 -166,-26 -214,-78 -47,-51 -71,-127 -71,-226 0,-29 2,-65 7,-110 4,-44 10,-97 18,-160l386 -2492c9,-37 14,-73 17,-109 3,-35 4,-82 4,-139 0,-97 -21,-168 -63,-212 -42,-44 -107,-66 -197,-66 -140,0 -319,43 -537,128 -218,86 -448,206 -691,360l-478 3044 -655 0 474 -3010zm-3515 -1742c-109,0 -195,-30 -258,-90 -63,-60 -94,-144 -94,-253 0,-165 41,-300 123,-404 83,-104 188,-156 317,-156 103,0 185,27 245,83 60,56 90,133 90,233 0,174 -39,316 -117,424 -79,109 -181,163 -306,163l0 0zm-331 4490c-121,877 -303,1457 -548,1743 -244,285 -615,428 -1113,428 -129,0 -247,-12 -356,-34 -109,-23 -210,-57 -302,-103l117 -775 424 0 155 467c288,-12 499,-120 635,-326 136,-205 249,-666 342,-1382l428 -3254 -600 -124 50 -342 1279 -176 -511 3878zm-1856 -4490c-109,0 -195,-30 -257,-90 -63,-60 -95,-144 -95,-253 0,-168 39,-304 118,-406 78,-103 181,-154 310,-154 106,0 190,27 251,83 62,56 93,133 93,233 0,174 -39,316 -116,424 -77,109 -178,163 -304,163l0 0zm-335 4174l654 0 -63 368 -549 175c-90,29 -169,50 -239,65 -70,14 -130,21 -180,21 -104,0 -180,-24 -229,-73 -49,-48 -73,-123 -73,-222 0,-29 2,-67 8,-116 6,-48 11,-100 17,-154l474 -2984 -600 -124 50 -342 1296 -176 -566 3562zm-6279 578l55 -386 600 -158 582 -4225 -557 -159 50 -385 1283 0 1765 4174 499 -3630 -557 -159 50 -385 1711 0 -59 385 -604 159 -650 4769 -562 0 -1861 -4435 -541 3891 541 158 -59 386 -1686 0z"/>
 </g>
</svg>
