<svg xmlns="http://www.w3.org/2000/svg" width="357" height="320" fill="none" viewBox="0 0 357 320"><g clip-path="url(#clip0)"><g style="mix-blend-mode:multiply" filter="url(#filter0_f)"><path fill="#1A438F" fill-opacity=".312" fill-rule="evenodd" d="M191.29 240.425C236.432 242.25 253.135 236.179 266.771 226.847C280.407 217.515 233.429 210.823 192.301 210.823C151.172 210.823 109.259 217.285 117.831 226.847C126.402 236.408 146.149 238.599 191.29 240.425Z" clip-rule="evenodd"/></g><path fill="url(#paint0_linear)" d="M195.294 224.941C247.533 224.941 289.882 182.803 289.882 130.824C289.882 78.8438 247.533 36.7059 195.294 36.7059C143.054 36.7059 100.706 78.8438 100.706 130.824C100.706 182.803 143.054 224.941 195.294 224.941Z"/><path fill="#E0E5F6" d="M267.965 113.882H123.294V212.237H267.965V113.882Z"/><path fill="url(#paint1_linear)" fill-rule="evenodd" d="M195.629 48L123.294 114.283L195.629 180.691L267.965 114.283L195.629 48Z" clip-rule="evenodd"/><path fill="#FCFCFD" fill-rule="evenodd" d="M140.235 129.268L194.174 178.823H197.428L251.366 129.268V67.7647H140.235V129.268Z" clip-rule="evenodd"/><path fill="#F1F3F7" d="M233.475 100.136H157.01V105.418H233.475V100.136Z"/><path fill="#F1F3F7" d="M233.475 132.136H157.01V137.418H233.475V132.136Z"/><path fill="#F1F3F7" fill-rule="evenodd" d="M232.169 147.194H159.833L165.59 152.603H226.411L232.169 147.194Z" clip-rule="evenodd"/><path fill="#F1F3F7" fill-rule="evenodd" d="M214.319 163.194H176.774L182.531 168.477H208.562L214.319 163.194Z" clip-rule="evenodd"/><path fill="url(#paint2_linear)" fill-rule="evenodd" d="M207.769 169.412H183.49L123.294 213.055H267.965L207.769 169.412Z" clip-rule="evenodd"/><g opacity=".317"><g filter="url(#filter1_d)" opacity=".317"><path fill="#000" d="M317.551 169.8C320.224 166.615 319.809 161.866 316.623 159.193C313.438 156.52 308.689 156.935 306.016 160.121C303.343 163.306 303.758 168.056 306.944 170.728C310.129 173.401 314.878 172.986 317.551 169.8Z"/></g><path fill="url(#paint3_radial)" d="M317.551 169.8C320.224 166.615 319.809 161.866 316.623 159.193C313.438 156.52 308.689 156.935 306.016 160.121C303.343 163.306 303.758 168.056 306.944 170.728C310.129 173.401 314.878 172.986 317.551 169.8Z" opacity=".317"/></g><g filter="url(#filter2_d)"><path fill="#000" d="M278.964 49.3298C281.636 46.1443 281.221 41.3951 278.035 38.7221C274.85 36.0492 270.101 36.4647 267.428 39.6502C264.755 42.8357 265.17 47.5849 268.356 50.2579C271.541 52.9308 276.291 52.5153 278.964 49.3298Z"/></g><path fill="url(#paint4_radial)" d="M278.964 49.3298C281.636 46.1443 281.221 41.3951 278.035 38.7221C274.85 36.0492 270.101 36.4647 267.428 39.6502C264.755 42.8357 265.17 47.5849 268.356 50.2579C271.541 52.9308 276.291 52.5153 278.964 49.3298Z"/><g filter="url(#filter3_d)"><path fill="#000" d="M264.115 256.729C269.127 250.756 268.348 241.851 262.375 236.839C256.402 231.828 247.498 232.607 242.486 238.579C237.474 244.552 238.253 253.457 244.226 258.469C250.199 263.481 259.104 262.702 264.115 256.729Z"/></g><path fill="url(#paint5_radial)" d="M264.115 256.729C269.127 250.756 268.348 241.851 262.375 236.839C256.402 231.828 247.498 232.607 242.486 238.579C237.474 244.552 238.253 253.457 244.226 258.469C250.199 263.481 259.104 262.702 264.115 256.729Z"/><path fill="#A80A2D" fill-rule="evenodd" d="M195.93 110.118C194.269 110.118 193.024 110.74 191.778 112.194C190.74 113.647 190.117 115.516 190.117 117.799C190.117 119.668 190.532 121.329 191.363 122.574C192.193 123.82 193.231 124.443 194.685 124.443C196.346 124.443 197.799 123.612 199.252 121.952C200.705 120.291 201.328 118.214 201.328 115.516C201.328 114.062 200.705 112.609 199.667 111.571C198.837 110.74 197.591 110.118 195.93 110.118Z" clip-rule="evenodd"/><path fill="#A80A2D" d="M195.695 79.0588C174.934 79.0588 158.117 95.8754 158.117 116.637C158.117 137.398 174.934 154.214 195.695 154.214C216.456 154.214 233.273 137.398 233.273 116.637C233.273 95.8754 216.456 79.0588 195.695 79.0588ZM214.588 124.734C212.304 128.055 209.397 129.509 206.076 129.509C203.377 129.509 201.716 128.471 200.678 126.187C198.809 128.471 196.733 129.509 194.034 129.509C191.335 129.509 189.051 128.471 187.183 126.187C185.314 123.903 184.276 120.996 184.276 117.259C184.276 113.522 185.314 110.408 187.598 108.125C189.674 105.841 192.373 104.595 195.28 104.595C198.186 104.595 200.263 105.426 201.508 107.294V106.879C201.508 106.464 201.716 106.048 202.131 105.633C202.546 105.218 202.961 105.218 203.377 105.218H205.453C205.868 105.218 206.283 105.426 206.491 105.633C206.698 105.841 206.906 106.256 206.906 106.671L205.245 119.958C205.038 120.996 205.038 122.035 205.038 122.865C205.038 124.318 205.453 124.941 206.491 124.941C208.152 124.941 209.605 123.903 211.266 121.619C212.719 119.336 213.55 116.637 213.55 113.522C213.55 108.955 211.889 105.218 208.567 102.311C205.245 99.4048 201.301 97.9515 196.525 97.9515C191.335 97.9515 186.975 99.82 183.446 103.349C179.916 106.879 178.256 111.239 178.256 116.429C178.256 121.204 179.916 125.564 183.238 129.093C186.56 132.623 191.128 134.491 197.148 134.491C200.885 134.491 204.622 133.661 208.359 132.208L209.605 131.585C210.02 131.377 210.643 131.377 211.058 131.585C211.474 131.792 211.889 132.208 212.096 132.623L212.512 133.453C212.719 133.868 212.719 134.491 212.512 134.907C212.304 135.322 211.889 135.737 211.474 135.945L210.02 136.567C205.868 138.228 201.508 139.059 197.148 139.059C189.674 139.059 183.861 136.775 179.501 132.415C175.141 128.055 173.065 122.657 173.065 116.429C173.065 109.993 175.349 104.595 179.916 100.235C184.484 95.8754 190.09 93.7993 196.525 93.7993C202.546 93.7993 207.737 95.6678 211.889 99.4048C216.041 103.142 218.117 107.917 218.117 113.522C218.117 117.882 217.079 121.412 214.588 124.734Z"/><g filter="url(#filter4_d)"><path fill="#000" d="M66.5586 184.941L65.8376 184.336C63.4485 182.331 59.8866 182.643 57.8819 185.032L57.2769 185.753C55.2722 188.142 55.5838 191.704 57.9729 193.708L58.6939 194.313C61.083 196.318 64.6449 196.007 66.6497 193.617L67.2546 192.896C69.2594 190.507 68.9477 186.945 66.5586 184.941Z"/></g><path fill="url(#paint6_radial)" d="M66.5586 184.941L65.8376 184.336C63.4485 182.331 59.8866 182.643 57.8819 185.032L57.2769 185.753C55.2722 188.142 55.5838 191.704 57.9729 193.708L58.6939 194.313C61.083 196.318 64.6449 196.007 66.6497 193.617L67.2546 192.896C69.2594 190.507 68.9477 186.945 66.5586 184.941Z"/><g filter="url(#filter5_d)"><path fill="#000" d="M97.3317 81.0418C98.167 80.0463 98.0372 78.5622 97.0417 77.7269C96.0462 76.8916 94.5621 77.0215 93.7268 78.0169C92.8915 79.0124 93.0214 80.4965 94.0168 81.3318C95.0123 82.1671 96.4964 82.0373 97.3317 81.0418Z"/></g><path fill="url(#paint7_radial)" d="M97.3317 81.0418C98.167 80.0463 98.0372 78.5622 97.0417 77.7269C96.0462 76.8916 94.5621 77.0215 93.7268 78.0169C92.8915 79.0124 93.0214 80.4965 94.0168 81.3318C95.0123 82.1671 96.4964 82.0373 97.3317 81.0418Z"/></g><defs><filter id="filter0_f" width="208.471" height="85.925" x="88.706" y="182.823" color-interpolation-filters="sRGB" filterUnits="userSpaceOnUse"><feFlood flood-opacity="0" result="BackgroundImageFix"/><feBlend in="SourceGraphic" in2="BackgroundImageFix" mode="normal" result="shape"/><feGaussianBlur result="effect1_foregroundBlur" stdDeviation="14"/></filter><filter id="filter1_d" width="125.059" height="125.059" x="249.254" y="117.431" color-interpolation-filters="sRGB" filterUnits="userSpaceOnUse"><feFlood flood-opacity="0" result="BackgroundImageFix"/><feColorMatrix in="SourceAlpha" type="matrix" values="0 0 0 0 0 0 0 0 0 0 0 0 0 0 0 0 0 0 127 0"/><feOffset dy="15"/><feGaussianBlur stdDeviation="27.5"/><feColorMatrix type="matrix" values="0 0 0 0 0.615686 0 0 0 0 0.639216 0 0 0 0 0.705882 0 0 0 0.2 0"/><feBlend in2="BackgroundImageFix" mode="normal" result="effect1_dropShadow"/><feBlend in="SourceGraphic" in2="effect1_dropShadow" mode="normal" result="shape"/></filter><filter id="filter2_d" width="125.059" height="125.059" x="210.666" y="-3.04" color-interpolation-filters="sRGB" filterUnits="userSpaceOnUse"><feFlood flood-opacity="0" result="BackgroundImageFix"/><feColorMatrix in="SourceAlpha" type="matrix" values="0 0 0 0 0 0 0 0 0 0 0 0 0 0 0 0 0 0 127 0"/><feOffset dy="15"/><feGaussianBlur stdDeviation="27.5"/><feColorMatrix type="matrix" values="0 0 0 0 0.615686 0 0 0 0 0.639216 0 0 0 0 0.705882 0 0 0 0.2 0"/><feBlend in2="BackgroundImageFix" mode="normal" result="effect1_dropShadow"/><feBlend in="SourceGraphic" in2="effect1_dropShadow" mode="normal" result="shape"/></filter><filter id="filter3_d" width="149.779" height="149.779" x="178.411" y="187.765" color-interpolation-filters="sRGB" filterUnits="userSpaceOnUse"><feFlood flood-opacity="0" result="BackgroundImageFix"/><feColorMatrix in="SourceAlpha" type="matrix" values="0 0 0 0 0 0 0 0 0 0 0 0 0 0 0 0 0 0 127 0"/><feOffset dy="15"/><feGaussianBlur stdDeviation="27.5"/><feColorMatrix type="matrix" values="0 0 0 0 0.615686 0 0 0 0 0.639216 0 0 0 0 0.705882 0 0 0 0.2 0"/><feBlend in2="BackgroundImageFix" mode="normal" result="effect1_dropShadow"/><feBlend in="SourceGraphic" in2="effect1_dropShadow" mode="normal" result="shape"/></filter><filter id="filter4_d" width="122.62" height="122.62" x=".956" y="143.014" color-interpolation-filters="sRGB" filterUnits="userSpaceOnUse"><feFlood flood-opacity="0" result="BackgroundImageFix"/><feColorMatrix in="SourceAlpha" type="matrix" values="0 0 0 0 0 0 0 0 0 0 0 0 0 0 0 0 0 0 127 0"/><feOffset dy="15"/><feGaussianBlur stdDeviation="27.5"/><feColorMatrix type="matrix" values="0 0 0 0 0.615686 0 0 0 0 0.639216 0 0 0 0 0.705882 0 0 0 0.2 0"/><feBlend in2="BackgroundImageFix" mode="normal" result="effect1_dropShadow"/><feBlend in="SourceGraphic" in2="effect1_dropShadow" mode="normal" result="shape"/></filter><filter id="filter5_d" width="114.706" height="114.706" x="38.176" y="37.176" color-interpolation-filters="sRGB" filterUnits="userSpaceOnUse"><feFlood flood-opacity="0" result="BackgroundImageFix"/><feColorMatrix in="SourceAlpha" type="matrix" values="0 0 0 0 0 0 0 0 0 0 0 0 0 0 0 0 0 0 127 0"/><feOffset dy="15"/><feGaussianBlur stdDeviation="27.5"/><feColorMatrix type="matrix" values="0 0 0 0 0.615686 0 0 0 0 0.639216 0 0 0 0 0.705882 0 0 0 0.2 0"/><feBlend in2="BackgroundImageFix" mode="normal" result="effect1_dropShadow"/><feBlend in="SourceGraphic" in2="effect1_dropShadow" mode="normal" result="shape"/></filter><linearGradient id="paint0_linear" x1="195.294" x2="195.294" y1="224.941" y2="36.706" gradientUnits="userSpaceOnUse"><stop stop-color="#fff" stop-opacity=".404"/><stop offset=".119" stop-color="#F8EEEE" stop-opacity=".385"/><stop offset=".206" stop-color="#DEE5FF" stop-opacity=".371"/><stop offset="1" stop-color="#DEDFE5" stop-opacity=".245"/></linearGradient><linearGradient id="paint1_linear" x1="195.629" x2="195.629" y1="180.691" y2="48" gradientUnits="userSpaceOnUse"><stop stop-color="#909ABA"/><stop offset="1" stop-color="#AAB5CF"/></linearGradient><linearGradient id="paint2_linear" x1="195.629" x2="195.629" y1="169.412" y2="213.055" gradientUnits="userSpaceOnUse"><stop stop-color="#B9C8EF"/><stop offset="1" stop-color="#CED4EB"/></linearGradient><radialGradient id="paint3_radial" cx="0" cy="0" r="1" gradientTransform="translate(313.476 162.943) rotate(40.0001) scale(15.398)" gradientUnits="userSpaceOnUse"><stop stop-color="#9FFFFF"/><stop offset="1" stop-color="#197E6A"/></radialGradient><radialGradient id="paint4_radial" cx="0" cy="0" r="1" gradientTransform="translate(274.888 42.4728) rotate(40) scale(15.398)" gradientUnits="userSpaceOnUse"><stop stop-color="#9FFFFF"/><stop offset="1" stop-color="#197E6A"/></radialGradient><radialGradient id="paint5_radial" cx="0" cy="0" r="1" gradientTransform="translate(256.474 243.872) rotate(40) scale(28.8713)" gradientUnits="userSpaceOnUse"><stop stop-color="#9FFFFF"/><stop offset="1" stop-color="#197E6A"/></radialGradient><radialGradient id="paint6_radial" cx="0" cy="0" r="1" gradientTransform="translate(63.641 187.686) rotate(40) scale(12.5109)" gradientUnits="userSpaceOnUse"><stop stop-color="#9FFFFF"/><stop offset="1" stop-color="#197E6A"/></radialGradient><radialGradient id="paint7_radial" cx="0" cy="0" r="1" gradientTransform="translate(96.0582 78.899) rotate(40) scale(4.81188)" gradientUnits="userSpaceOnUse"><stop stop-color="#9FFFFF"/><stop offset="1" stop-color="#197E6A"/></radialGradient><clipPath id="clip0"><rect width="356.706" height="320" fill="#fff"/></clipPath></defs></svg>