<svg xmlns="http://www.w3.org/2000/svg" width="250" height="250" fill="none" viewBox="0 0 250 250"><g filter="url(#filter0_d)"><path fill="url(#paint0_linear)" fill-rule="evenodd" d="M125 242C191.826 242 246 187.826 246 121C246 54.1735 191.826 0 125 0C58.1735 0 4 54.1735 4 121C4 187.826 58.1735 242 125 242Z" clip-rule="evenodd"/></g><g clip-path="url(#clip0)"><path fill="url(#paint1_radial)" d="M217 128.201C217 173.257 180.469 209.78 135.407 209.78C90.3456 209.78 53.8174 173.257 53.8174 128.201C53.8174 83.1445 90.3456 46.619 135.407 46.619C180.469 46.619 217 83.1445 217 128.201Z"/><path fill="#fff" d="M184.235 108.954C184.235 118.206 176.732 125.706 167.478 125.706C158.223 125.706 150.72 118.206 150.72 108.954C150.72 99.6989 158.223 92.1958 167.478 92.1958C176.732 92.1958 184.235 99.6989 184.235 108.954Z"/><path fill="#fff" d="M120.862 108.954C120.862 118.206 113.359 125.706 104.104 125.706C94.8497 125.706 87.3467 118.206 87.3467 108.954C87.3467 99.6989 94.8497 92.1958 104.104 92.1958C113.359 92.1958 120.862 99.6989 120.862 108.954Z"/><path fill="#ED1A39" d="M157.279 122.127C145.796 122.127 136.454 112.785 136.454 101.304C136.454 89.8232 145.796 80.4817 157.279 80.4817C168.76 80.4817 178.105 89.8232 178.105 101.304C178.105 112.785 168.76 122.127 157.279 122.127ZM157.279 88.6138C150.281 88.6138 144.589 94.3055 144.589 101.304C144.589 108.3 150.281 113.992 157.279 113.992C164.278 113.992 169.97 108.3 169.97 101.304C169.97 94.3055 164.278 88.6138 157.279 88.6138Z"/><path fill="#ED1A39" d="M93.9061 122.127C82.4224 122.127 73.0781 112.785 73.0781 101.304C73.0781 89.8232 82.4224 80.4817 93.9061 80.4817C105.387 80.4817 114.731 89.8232 114.731 101.304C114.731 112.785 105.387 122.127 93.9061 122.127ZM93.9061 88.6138C86.9074 88.6138 81.213 94.3055 81.213 101.304C81.213 108.3 86.9074 113.992 93.9061 113.992C100.902 113.992 106.596 108.3 106.596 101.304C106.596 94.3055 100.902 88.6138 93.9061 88.6138Z"/><path fill="#ED1A39" d="M104.175 171.391C103.706 171.391 103.231 171.313 102.767 171.142C100.661 170.364 99.5813 168.026 100.357 165.919C104.809 153.839 112.011 145.696 121.77 141.71C138.802 134.757 157.154 143.28 157.93 143.646C159.958 144.609 160.826 147.033 159.863 149.064C158.903 151.092 156.476 151.957 154.454 151C154.191 150.878 138.428 143.662 124.802 149.259C117.266 152.35 111.613 158.904 107.99 168.731C107.385 170.375 105.829 171.391 104.175 171.391Z"/><path fill="#ED1A39" d="M164.75 100.295C164.75 104.976 160.953 108.775 156.271 108.775C151.585 108.775 147.789 104.976 147.789 100.295C147.789 95.6125 151.585 91.8135 156.271 91.8135C160.953 91.8135 164.75 95.6125 164.75 100.295Z"/><path fill="#ED1A39" d="M101.374 100.295C101.374 104.976 97.5777 108.775 92.8948 108.775C88.2118 108.775 84.4155 104.976 84.4155 100.295C84.4155 95.6125 88.2118 91.8135 92.8948 91.8135C97.5777 91.8135 101.374 95.6125 101.374 100.295Z"/><path fill="#ED1A39" d="M122.66 203.643C75.4291 203.643 37 165.22 37 117.991C37 70.7659 75.4291 32.3423 122.66 32.3423C169.891 32.3423 208.317 70.7659 208.317 117.991C208.317 165.22 169.891 203.643 122.66 203.643ZM122.66 40.4771C79.9114 40.4771 45.1349 75.2509 45.1349 117.991C45.1349 160.735 79.9114 195.506 122.66 195.506C165.406 195.506 200.183 160.735 200.183 117.991C200.183 75.2509 165.406 40.4771 122.66 40.4771Z"/></g><defs><filter id="filter0_d" width="250" height="250" x="0" y="0" color-interpolation-filters="sRGB" filterUnits="userSpaceOnUse"><feFlood flood-opacity="0" result="BackgroundImageFix"/><feColorMatrix in="SourceAlpha" type="matrix" values="0 0 0 0 0 0 0 0 0 0 0 0 0 0 0 0 0 0 127 0"/><feOffset dy="4"/><feGaussianBlur stdDeviation="2"/><feColorMatrix type="matrix" values="0 0 0 0 1 0 0 0 0 1 0 0 0 0 1 0 0 0 0.1 0"/><feBlend in2="BackgroundImageFix" mode="normal" result="effect1_dropShadow"/><feBlend in="SourceGraphic" in2="effect1_dropShadow" mode="normal" result="shape"/></filter><linearGradient id="paint0_linear" x1="233.96" x2="3.584" y1="44.77" y2="152.106" gradientUnits="userSpaceOnUse"><stop stop-color="#fff" stop-opacity=".404"/><stop offset=".119" stop-color="#FFECEC"/><stop offset=".206" stop-color="#FFF5F5"/><stop offset=".693" stop-color="#fff" stop-opacity=".282"/><stop offset="1" stop-color="#FFEFEF"/></linearGradient><radialGradient id="paint1_radial" cx="0" cy="0" r="1" gradientTransform="translate(135.409 128.199) rotate(90) scale(81.5804 81.5913)" gradientUnits="userSpaceOnUse"><stop stop-color="#fff" stop-opacity="0"/><stop offset="1" stop-color="#FFEFEF"/></radialGradient><clipPath id="clip0"><rect width="180" height="180" fill="#fff" transform="translate(37 32.3423)"/></clipPath></defs></svg>