<svg width="388" height="355" viewBox="0 0 388 355" fill="none" xmlns="http://www.w3.org/2000/svg">
<path opacity="0.1" fill-rule="evenodd" clip-rule="evenodd" d="M124.258 292.454C220.646 309.289 280.693 297.007 309.39 269.669C327.56 252.361 347.68 240.628 362.211 214.606C390.178 164.523 362.5 67.6869 362.5 67.6869C326.5 22.6216 259.96 -2.77783 198.83 1.26261C99.9995 7.79499 57.4001 15.1876 25.0001 54.0398C-7.39991 92.8919 25.0001 210.532 25.0001 210.532C25.0001 210.532 27.8705 275.619 124.258 292.454Z" fill="url(#paint0_radial)"/>
<g filter="url(#filter0_f)">
<path fill-rule="evenodd" clip-rule="evenodd" d="M189.921 239.244C233.088 240.992 249.06 235.18 262.1 226.247C275.139 217.315 230.217 210.91 190.887 210.91C151.558 210.91 111.479 217.095 119.675 226.247C127.872 235.4 146.755 237.497 189.921 239.244Z" fill="#565353" fill-opacity="0.311538" style="mix-blend-mode:multiply"/>
</g>
<g filter="url(#filter1_d)">
<path fill-rule="evenodd" clip-rule="evenodd" d="M193.75 224.423C243.704 224.423 284.2 184.089 284.2 134.333C284.2 84.5779 243.704 44.2432 193.75 44.2432C143.796 44.2432 103.3 84.5779 103.3 134.333C103.3 184.089 143.796 224.423 193.75 224.423Z" fill="url(#paint1_linear)"/>
</g>
<g filter="url(#filter2_d)">
<rect width="14.406" height="14.4085" rx="7.20298" transform="matrix(-0.765728 0.643165 0.64241 0.766361 63.9312 154.153)" fill="url(#paint2_radial)"/>
</g>
<g filter="url(#filter3_d)">
<rect width="14.406" height="14.4085" rx="7.20298" transform="matrix(-0.765727 0.643165 0.64241 0.766361 100.831 38.8378)" fill="url(#paint3_radial)"/>
</g>
<g filter="url(#filter4_d)">
<path d="M147.06 261.802C142.269 256.086 133.753 255.339 128.041 260.137C122.33 264.934 121.586 273.459 126.377 279.175C131.169 284.891 139.685 285.638 145.396 280.841C151.108 276.043 151.852 267.519 147.06 261.802Z" fill="url(#paint4_radial)"/>
</g>
<g filter="url(#filter5_d)">
<rect width="11.7049" height="11.7069" rx="5.85243" transform="matrix(0.765728 0.643164 -0.642411 0.76636 325.921 127.126)" fill="url(#paint5_radial)"/>
</g>
<g filter="url(#filter6_d)">
<rect width="18.3205" height="18.3237" rx="9.16026" transform="matrix(0.765728 0.643164 -0.642411 0.766361 299.571 224.423)" fill="url(#paint6_radial)"/>
</g>
<g filter="url(#filter7_d)">
<rect width="4.50187" height="4.50265" rx="2.25093" transform="matrix(0.765728 0.643165 -0.642411 0.766361 284.393 48.7477)" fill="url(#paint7_radial)"/>
</g>
<g filter="url(#filter8_d)">
<path d="M193.743 196.456C227.77 196.456 255.354 168.845 255.354 134.784C255.354 100.723 227.77 73.1112 193.743 73.1112C159.717 73.1112 132.133 100.723 132.133 134.784C132.133 168.845 159.717 196.456 193.743 196.456ZM193.743 198.297C158.701 198.297 130.293 169.861 130.293 134.784C130.293 99.7062 158.701 71.2703 193.743 71.2703C228.786 71.2703 257.193 99.7062 257.193 134.784C257.193 169.861 228.786 198.297 193.743 198.297Z" fill="white"/>
</g>
<g filter="url(#filter9_dd)">
<path d="M193.747 194.694C227.293 194.694 254.487 167.669 254.487 134.333C254.487 100.997 227.293 73.9729 193.747 73.9729C160.201 73.9729 133.007 100.997 133.007 134.333C133.007 167.669 160.201 194.694 193.747 194.694ZM193.747 196.495C159.2 196.495 131.194 168.665 131.194 134.333C131.194 100.002 159.2 72.1711 193.747 72.1711C228.294 72.1711 256.3 100.002 256.3 134.333C256.3 168.665 228.294 196.495 193.747 196.495Z" fill="#E0E0E0"/>
</g>
<path d="M246.392 102.159C263.07 127.478 258.112 162.181 233.841 182.548C219.589 194.507 201.154 199.378 183.387 196.326C169.492 193.939 156.924 186.848 147.751 175.915C147.208 175.268 147.267 174.667 147.927 174.112C148.588 173.558 149.19 173.604 149.734 174.252C158.523 184.727 170.561 191.519 183.873 193.806C200.897 196.731 218.556 192.064 232.211 180.606C255.325 161.211 260.157 128.246 244.522 104.028L192.475 156.04C191.702 156.97 190.465 157.435 189.228 157.435H189.074C187.837 157.435 186.754 156.815 185.826 155.886L162.476 130.475C160.775 128.616 160.93 125.672 162.785 123.967C164.641 122.263 167.579 122.418 169.28 124.277L189.383 146.124L245.052 90.5001C246.753 88.6409 249.691 88.6409 251.547 90.5001C253.402 92.2045 253.402 95.1485 251.547 97.0077L246.392 102.159Z" fill="url(#paint8_linear)"/>
<defs>
<filter id="filter0_f" x="80.5437" y="172.854" width="221.912" height="104.757" filterUnits="userSpaceOnUse" color-interpolation-filters="sRGB">
<feFlood flood-opacity="0" result="BackgroundImageFix"/>
<feBlend mode="normal" in="SourceGraphic" in2="BackgroundImageFix" result="shape"/>
<feGaussianBlur stdDeviation="19.028" result="effect1_foregroundBlur"/>
</filter>
<filter id="filter1_d" x="99.2998" y="44.2432" width="188.9" height="188.18" filterUnits="userSpaceOnUse" color-interpolation-filters="sRGB">
<feFlood flood-opacity="0" result="BackgroundImageFix"/>
<feColorMatrix in="SourceAlpha" type="matrix" values="0 0 0 0 0 0 0 0 0 0 0 0 0 0 0 0 0 0 127 0"/>
<feOffset dy="4"/>
<feGaussianBlur stdDeviation="2"/>
<feColorMatrix type="matrix" values="0 0 0 0 1 0 0 0 0 1 0 0 0 0 1 0 0 0 0.1 0"/>
<feBlend mode="normal" in2="BackgroundImageFix" result="effect1_dropShadow"/>
<feBlend mode="normal" in="SourceGraphic" in2="effect1_dropShadow" result="shape"/>
</filter>
<filter id="filter2_d" x="0.84375" y="117.1" width="124.4" height="124.414" filterUnits="userSpaceOnUse" color-interpolation-filters="sRGB">
<feFlood flood-opacity="0" result="BackgroundImageFix"/>
<feColorMatrix in="SourceAlpha" type="matrix" values="0 0 0 0 0 0 0 0 0 0 0 0 0 0 0 0 0 0 127 0"/>
<feOffset dy="15"/>
<feGaussianBlur stdDeviation="27.5"/>
<feColorMatrix type="matrix" values="0 0 0 0 0.615686 0 0 0 0 0.639216 0 0 0 0 0.705882 0 0 0 0.2 0"/>
<feBlend mode="normal" in2="BackgroundImageFix" result="effect1_dropShadow"/>
<feBlend mode="normal" in="SourceGraphic" in2="effect1_dropShadow" result="shape"/>
</filter>
<filter id="filter3_d" x="37.7437" y="1.78436" width="124.4" height="124.414" filterUnits="userSpaceOnUse" color-interpolation-filters="sRGB">
<feFlood flood-opacity="0" result="BackgroundImageFix"/>
<feColorMatrix in="SourceAlpha" type="matrix" values="0 0 0 0 0 0 0 0 0 0 0 0 0 0 0 0 0 0 127 0"/>
<feOffset dy="15"/>
<feGaussianBlur stdDeviation="27.5"/>
<feColorMatrix type="matrix" values="0 0 0 0 0.615686 0 0 0 0 0.639216 0 0 0 0 0.705882 0 0 0 0.2 0"/>
<feBlend mode="normal" in2="BackgroundImageFix" result="effect1_dropShadow"/>
<feBlend mode="normal" in="SourceGraphic" in2="effect1_dropShadow" result="shape"/>
</filter>
<filter id="filter4_d" x="68.2188" y="216.975" width="137" height="137.027" filterUnits="userSpaceOnUse" color-interpolation-filters="sRGB">
<feFlood flood-opacity="0" result="BackgroundImageFix"/>
<feColorMatrix in="SourceAlpha" type="matrix" values="0 0 0 0 0 0 0 0 0 0 0 0 0 0 0 0 0 0 127 0"/>
<feOffset dy="15"/>
<feGaussianBlur stdDeviation="27.5"/>
<feColorMatrix type="matrix" values="0 0 0 0 0.615686 0 0 0 0 0.639216 0 0 0 0 0.705882 0 0 0 0.2 0"/>
<feBlend mode="normal" in2="BackgroundImageFix" result="effect1_dropShadow"/>
<feBlend mode="normal" in="SourceGraphic" in2="effect1_dropShadow" result="shape"/>
</filter>
<filter id="filter5_d" x="265.792" y="89.5201" width="121.7" height="121.712" filterUnits="userSpaceOnUse" color-interpolation-filters="sRGB">
<feFlood flood-opacity="0" result="BackgroundImageFix"/>
<feColorMatrix in="SourceAlpha" type="matrix" values="0 0 0 0 0 0 0 0 0 0 0 0 0 0 0 0 0 0 127 0"/>
<feOffset dy="15"/>
<feGaussianBlur stdDeviation="27.5"/>
<feColorMatrix type="matrix" values="0 0 0 0 0.615686 0 0 0 0 0.639216 0 0 0 0 0.705882 0 0 0 0.2 0"/>
<feBlend mode="normal" in2="BackgroundImageFix" result="effect1_dropShadow"/>
<feBlend mode="normal" in="SourceGraphic" in2="effect1_dropShadow" result="shape"/>
</filter>
<filter id="filter6_d" x="236.543" y="188.171" width="128.313" height="128.331" filterUnits="userSpaceOnUse" color-interpolation-filters="sRGB">
<feFlood flood-opacity="0" result="BackgroundImageFix"/>
<feColorMatrix in="SourceAlpha" type="matrix" values="0 0 0 0 0 0 0 0 0 0 0 0 0 0 0 0 0 0 127 0"/>
<feOffset dy="15"/>
<feGaussianBlur stdDeviation="27.5"/>
<feColorMatrix type="matrix" values="0 0 0 0 0.615686 0 0 0 0 0.639216 0 0 0 0 0.705882 0 0 0 0.2 0"/>
<feBlend mode="normal" in2="BackgroundImageFix" result="effect1_dropShadow"/>
<feBlend mode="normal" in="SourceGraphic" in2="effect1_dropShadow" result="shape"/>
</filter>
<filter id="filter7_d" x="227.42" y="9.66852" width="114.5" height="114.505" filterUnits="userSpaceOnUse" color-interpolation-filters="sRGB">
<feFlood flood-opacity="0" result="BackgroundImageFix"/>
<feColorMatrix in="SourceAlpha" type="matrix" values="0 0 0 0 0 0 0 0 0 0 0 0 0 0 0 0 0 0 127 0"/>
<feOffset dy="15"/>
<feGaussianBlur stdDeviation="27.5"/>
<feColorMatrix type="matrix" values="0 0 0 0 0.615686 0 0 0 0 0.639216 0 0 0 0 0.705882 0 0 0 0.2 0"/>
<feBlend mode="normal" in2="BackgroundImageFix" result="effect1_dropShadow"/>
<feBlend mode="normal" in="SourceGraphic" in2="effect1_dropShadow" result="shape"/>
</filter>
<filter id="filter8_d" x="110.293" y="43.2703" width="166.9" height="167.027" filterUnits="userSpaceOnUse" color-interpolation-filters="sRGB">
<feFlood flood-opacity="0" result="BackgroundImageFix"/>
<feColorMatrix in="SourceAlpha" type="matrix" values="0 0 0 0 0 0 0 0 0 0 0 0 0 0 0 0 0 0 127 0"/>
<feOffset dy="-8"/>
<feGaussianBlur stdDeviation="10"/>
<feColorMatrix type="matrix" values="0 0 0 0 1 0 0 0 0 1 0 0 0 0 1 0 0 0 1 0"/>
<feBlend mode="lighten" in2="BackgroundImageFix" result="effect1_dropShadow"/>
<feBlend mode="normal" in="SourceGraphic" in2="effect1_dropShadow" result="shape"/>
</filter>
<filter id="filter9_dd" x="121.194" y="57.1711" width="145.107" height="153.324" filterUnits="userSpaceOnUse" color-interpolation-filters="sRGB">
<feFlood flood-opacity="0" result="BackgroundImageFix"/>
<feColorMatrix in="SourceAlpha" type="matrix" values="0 0 0 0 0 0 0 0 0 0 0 0 0 0 0 0 0 0 127 0"/>
<feOffset dy="-5"/>
<feGaussianBlur stdDeviation="5"/>
<feColorMatrix type="matrix" values="0 0 0 0 0.945098 0 0 0 0 0.952941 0 0 0 0 0.968627 0 0 0 1 0"/>
<feBlend mode="normal" in2="BackgroundImageFix" result="effect1_dropShadow"/>
<feColorMatrix in="SourceAlpha" type="matrix" values="0 0 0 0 0 0 0 0 0 0 0 0 0 0 0 0 0 0 127 0"/>
<feOffset dy="4"/>
<feGaussianBlur stdDeviation="5"/>
<feColorMatrix type="matrix" values="0 0 0 0 0.192157 0 0 0 0 0.368627 0 0 0 0 0.992157 0 0 0 0.2 0"/>
<feBlend mode="normal" in2="effect1_dropShadow" result="effect2_dropShadow"/>
<feBlend mode="normal" in="SourceGraphic" in2="effect2_dropShadow" result="shape"/>
</filter>
<radialGradient id="paint0_radial" cx="0" cy="0" r="1" gradientUnits="userSpaceOnUse" gradientTransform="translate(193.75 217.26) rotate(-90) scale(209.959 224.685)">
<stop stop-color="white" stop-opacity="0.261889"/>
<stop offset="1" stop-color="#80869F" stop-opacity="0.19"/>
</radialGradient>
<linearGradient id="paint1_linear" x1="275.2" y1="77.5765" x2="113.14" y2="154.928" gradientUnits="userSpaceOnUse">
<stop stop-color="white" stop-opacity="0.40441"/>
<stop offset="0.119107" stop-color="#F5F3F4" stop-opacity="0.385064"/>
<stop offset="0.206489" stop-color="#FEF4F5" stop-opacity="0.370871"/>
<stop offset="0.765" stop-color="white" stop-opacity="0.28217"/>
<stop offset="1" stop-color="#FEF8F8" stop-opacity="0.244848"/>
</linearGradient>
<radialGradient id="paint2_radial" cx="0" cy="0" r="1" gradientUnits="userSpaceOnUse" gradientTransform="translate(7.20298 4.68467) rotate(60.7303) scale(14.7324 14.7311)">
<stop stop-color="#F8F1F2"/>
<stop offset="1" stop-color="#F2EAEB"/>
</radialGradient>
<radialGradient id="paint3_radial" cx="0" cy="0" r="1" gradientUnits="userSpaceOnUse" gradientTransform="translate(7.20298 4.68467) rotate(60.7303) scale(14.7324 14.731)">
<stop stop-color="#F8F1F2"/>
<stop offset="1" stop-color="#F2EAEB"/>
</radialGradient>
<radialGradient id="paint4_radial" cx="0" cy="0" r="1" gradientUnits="userSpaceOnUse" gradientTransform="translate(133.684 266.868) rotate(79.2845) scale(27.6348 27.6091)">
<stop stop-color="white"/>
<stop offset="1" stop-color="#B9A6A9"/>
</radialGradient>
<radialGradient id="paint5_radial" cx="0" cy="0" r="1" gradientUnits="userSpaceOnUse" gradientTransform="translate(-0.243403 11.617) rotate(45.4358) scale(8.44967)">
<stop stop-color="#ECE6E7"/>
<stop offset="1" stop-color="#E9E4E5"/>
</radialGradient>
<radialGradient id="paint6_radial" cx="0" cy="0" r="1" gradientUnits="userSpaceOnUse" gradientTransform="translate(9.16026 5.95764) rotate(60.7303) scale(18.7356 18.7339)">
<stop stop-color="white"/>
<stop offset="1" stop-color="#B9A6A9"/>
</radialGradient>
<radialGradient id="paint7_radial" cx="0" cy="0" r="1" gradientUnits="userSpaceOnUse" gradientTransform="translate(-0.0936165 4.46809) rotate(45.4358) scale(3.24987)">
<stop stop-color="#ECE6E7"/>
<stop offset="1" stop-color="#E9E4E5"/>
</radialGradient>
<linearGradient id="paint8_linear" x1="201.4" y1="188.387" x2="165.338" y2="100.124" gradientUnits="userSpaceOnUse">
<stop stop-color="#847779"/>
<stop offset="1" stop-color="#F4F4F4"/>
</linearGradient>
</defs>
</svg>
