<svg xmlns="http://www.w3.org/2000/svg" xmlns:xlink="http://www.w3.org/1999/xlink" version="1.1" x="0px" y="0px" viewBox="0 0 136.063 42.52" enable-background="new 0 0 136.063 42.52" xml:space="preserve">
<g id="Layer_4" display="none">
	<g display="inline">
		<defs>
			<path id="SVGID_1_" d="M14.664,0.5c0,0-14.157,0-14.157,14.157v55.732c0,0,0,14.156,14.157,14.156h126.602     c0,0,14.157,0,14.157-14.156V14.657c0,0,0-14.157-14.157-14.157H14.664z"/>
		</defs>
		<use xlink:href="#SVGID_1_" overflow="visible" fill="#FFFFFF"/>
		<clipPath id="SVGID_2_">
			<use xlink:href="#SVGID_1_" overflow="visible"/>
		</clipPath>
	</g>
</g>
<g id="Layer_1">
	<g>
		<path fill="#EB0029" d="M38.143,5.331c-0.489-0.333-1.015-0.59-1.582-0.772c-0.567-0.181-1.117-0.272-1.65-0.272    c-0.74,0-1.338,0.189-1.793,0.566c-0.456,0.377-0.684,0.87-0.684,1.476c0,0.275,0.071,0.532,0.212,0.772    c0.14,0.241,0.346,0.489,0.616,0.744c0.271,0.256,0.712,0.599,1.328,1.028c0.384,0.274,0.772,0.562,1.161,0.866    c0.389,0.303,0.741,0.642,1.06,1.016c0.318,0.373,0.577,0.79,0.777,1.248c0.2,0.459,0.3,0.985,0.3,1.578    c0,0.814-0.205,1.559-0.611,2.237c-0.408,0.678-0.98,1.204-1.721,1.582c-0.74,0.378-1.592,0.566-2.554,0.566    c-1.592,0-3.069-0.421-4.431-1.265l0.378-2.476c0.747,0.526,1.461,0.911,2.138,1.155c0.677,0.244,1.294,0.366,1.848,0.366    c0.4,0,0.774-0.076,1.122-0.228c0.348-0.152,0.627-0.368,0.838-0.65c0.211-0.281,0.316-0.61,0.316-0.988    c0-0.311-0.066-0.594-0.2-0.849c-0.134-0.256-0.312-0.501-0.539-0.734c-0.225-0.233-0.483-0.458-0.771-0.677    s-0.588-0.443-0.899-0.672c-0.867-0.621-1.486-1.14-1.86-1.554c-0.374-0.414-0.666-0.857-0.877-1.327    c-0.212-0.47-0.317-0.997-0.317-1.583c0-0.821,0.227-1.571,0.683-2.248c0.455-0.677,1.086-1.21,1.893-1.599    c0.807-0.389,1.684-0.583,2.633-0.583c0.606,0,1.226,0.082,1.859,0.244c0.633,0.163,1.205,0.377,1.716,0.644L38.143,5.331z"/>
		<path fill="#EB0029" d="M46.959,7.507L46.67,9.351h-2.165l-0.766,4.419c-0.097,0.504-0.144,0.903-0.144,1.2    c0,0.237,0.088,0.44,0.266,0.61c0.178,0.171,0.415,0.256,0.711,0.256c0.325,0,0.635-0.052,0.927-0.155    c0.293-0.104,0.613-0.256,0.961-0.456l-0.068,2.266c-0.318,0.171-0.691,0.305-1.122,0.406c-0.429,0.099-0.888,0.149-1.376,0.149    c-0.556,0-1.046-0.102-1.471-0.306c-0.426-0.203-0.758-0.489-0.995-0.855c-0.237-0.367-0.356-0.768-0.356-1.205    c0-0.444,0.101-1.203,0.3-2.277l0.722-4.053h-1.932l0.3-1.843h1.976l0.366-2.132h2.454l-0.389,2.132H46.959z"/>
		<path fill="#EB0029" d="M56.975,17.767h-2.454l0.156-1.066l-0.012-0.011l-0.033-0.012c-0.918,0.859-1.858,1.288-2.82,1.288    c-0.644,0-1.233-0.185-1.766-0.555c-0.532-0.37-0.951-0.879-1.254-1.527c-0.304-0.647-0.456-1.36-0.456-2.138    c0-1.302,0.3-2.457,0.9-3.464c0.6-1.007,1.44-1.766,2.521-2.277c1.08-0.511,2.335-0.766,3.764-0.766    c0.97,0,1.932,0.111,2.888,0.333L56.975,17.767z M55.72,9.329c-0.222-0.023-0.437-0.034-0.645-0.034    c-0.614,0-1.173,0.092-1.676,0.278c-0.504,0.185-0.941,0.465-1.31,0.838c-0.37,0.374-0.668,0.852-0.894,1.433    c-0.227,0.581-0.339,1.176-0.339,1.782c0,0.733,0.161,1.322,0.483,1.766c0.322,0.444,0.754,0.667,1.294,0.667    c0.348,0,0.73-0.114,1.144-0.345c0.414-0.229,0.807-0.536,1.177-0.921L55.72,9.329z"/>
		<path fill="#EB0029" d="M71.288,2.254L69.1,17.678c-1.007,0.229-2.113,0.345-3.32,0.345c-1.074,0-2.017-0.189-2.832-0.566    c-0.816-0.378-1.44-0.92-1.877-1.626c-0.436-0.707-0.655-1.516-0.655-2.427c0-1.251,0.289-2.339,0.866-3.264    c0.579-0.926,1.392-1.632,2.443-2.121c1.051-0.489,2.258-0.733,3.62-0.733h0.778l0.7-5.031H71.288z M67.823,9.329h-0.455    c-0.925,0-1.717,0.161-2.376,0.482c-0.659,0.323-1.166,0.783-1.521,1.382c-0.356,0.6-0.533,1.299-0.533,2.1    c0,0.836,0.262,1.503,0.788,1.998c0.526,0.496,1.233,0.743,2.121,0.743c0.459,0,0.814-0.029,1.066-0.089L67.823,9.329z"/>
		<path fill="#EB0029" d="M76.361,7.507l-1.498,11.304c-0.082,0.585-0.204,1.086-0.367,1.505c-0.164,0.418-0.362,0.77-0.6,1.054    c-0.237,0.285-0.521,0.53-0.849,0.733c-0.331,0.204-0.727,0.391-1.189,0.561c-0.463,0.17-0.904,0.255-1.328,0.255    c-0.222,0-0.448-0.032-0.678-0.1l0.301-2.054c0.192,0.03,0.374,0.044,0.544,0.044c0.51,0,0.899-0.153,1.165-0.46    c0.267-0.308,0.445-0.82,0.533-1.538L73.93,7.507H76.361z M76.817,4.465c0,0.229-0.061,0.448-0.184,0.655    c-0.121,0.207-0.29,0.371-0.505,0.488c-0.216,0.119-0.432,0.177-0.655,0.177c-0.237,0-0.459-0.061-0.666-0.183    c-0.207-0.123-0.368-0.284-0.482-0.488c-0.114-0.204-0.173-0.421-0.173-0.65c0-0.237,0.059-0.459,0.173-0.667    c0.115-0.207,0.274-0.372,0.477-0.494c0.203-0.122,0.428-0.183,0.671-0.183c0.237,0,0.461,0.063,0.673,0.189    c0.21,0.126,0.376,0.294,0.494,0.505C76.757,4.026,76.817,4.242,76.817,4.465"/>
		<path fill="#EB0029" d="M83.523,7.241c0.77,0,1.457,0.18,2.059,0.538c0.604,0.359,1.07,0.869,1.4,1.528    c0.329,0.658,0.494,1.403,0.494,2.231c0,0.371-0.037,0.763-0.111,1.178h-6.53c-0.044,0.26-0.067,0.495-0.067,0.712    c0,0.547,0.109,1.027,0.327,1.437c0.219,0.411,0.524,0.726,0.917,0.944c0.392,0.219,0.832,0.327,1.321,0.327    c0.48,0,1.01-0.101,1.586-0.305c0.578-0.203,1.233-0.512,1.966-0.927l-0.411,2.165c-1.185,0.652-2.347,0.978-3.487,0.978    c-0.925,0-1.741-0.204-2.448-0.611c-0.707-0.407-1.253-0.993-1.632-1.755c-0.383-0.762-0.573-1.636-0.573-2.621    c0-1.059,0.23-2.039,0.689-2.937c0.459-0.9,1.085-1.605,1.882-2.115C81.704,7.496,82.575,7.241,83.523,7.241 M85.111,11.193    v-0.178c0-0.592-0.147-1.062-0.438-1.41c-0.294-0.348-0.709-0.522-1.25-0.522c-1.067,0-1.833,0.703-2.299,2.109H85.111z"/>
		<path fill="#EB0029" d="M96.082,10.261c-0.164-0.185-0.323-0.322-0.478-0.411c-0.155-0.089-0.348-0.134-0.578-0.134    c-0.747,0-1.48,0.704-2.198,2.11l-0.845,5.941h-2.431l1.433-10.261h2.454l-0.3,1.844c0.519-0.703,0.983-1.216,1.394-1.537    c0.411-0.323,0.84-0.484,1.294-0.484c0.251,0,0.496,0.05,0.737,0.15c0.24,0.101,0.458,0.246,0.65,0.439L96.082,10.261z"/>
		<path fill="#EB0029" d="M104.943,10.417c-0.756-0.438-1.34-0.727-1.755-0.872c-0.415-0.145-0.8-0.217-1.154-0.217    c-0.431,0-0.743,0.071-0.939,0.211c-0.197,0.141-0.295,0.389-0.295,0.744c0,0.148,0.081,0.309,0.239,0.483    c0.159,0.174,0.4,0.372,0.728,0.594l0.588,0.4c0.665,0.474,1.127,0.853,1.382,1.138c0.256,0.285,0.459,0.592,0.611,0.921    c0.152,0.33,0.228,0.691,0.228,1.083c0,0.6-0.147,1.137-0.439,1.61c-0.293,0.474-0.706,0.844-1.243,1.111    c-0.537,0.266-1.136,0.4-1.793,0.4c-0.629,0-1.248-0.08-1.855-0.239c-0.607-0.16-1.175-0.446-1.71-0.86l0.4-2.11    c0.562,0.363,1.089,0.645,1.582,0.85c0.493,0.204,0.961,0.306,1.406,0.306c0.354,0,0.64-0.084,0.854-0.25    c0.215-0.167,0.321-0.38,0.321-0.639c0-0.222-0.098-0.454-0.294-0.694c-0.196-0.24-0.491-0.502-0.882-0.783    c-0.888-0.637-1.47-1.098-1.744-1.382c-0.274-0.285-0.481-0.582-0.622-0.889c-0.141-0.307-0.21-0.628-0.21-0.961    c0-0.606,0.146-1.149,0.438-1.627c0.293-0.477,0.707-0.847,1.244-1.11c0.536-0.262,1.145-0.394,1.826-0.394    c0.554,0,1.086,0.092,1.592,0.278c0.508,0.185,1.006,0.426,1.495,0.721V10.417z"/>
		<path d="M110.956,4.964l-0.366,2.587c0.518-0.206,1.097-0.311,1.734-0.311c1.199,0,2.205,0.452,3.016,1.354    c0.811,0.904,1.216,2.036,1.216,3.398c0,1.622-0.548,3.043-1.649,4.264c-1.1,1.223-2.606,1.833-4.516,1.833h-1.278l-0.677,4.908    h-1.928l1.809-12.915c-0.415,0.297-0.79,0.681-1.126,1.156c-0.337,0.473-0.528,0.71-0.572,0.71c-0.06,0-0.089-0.048-0.089-0.145    c0-0.341,0.194-0.831,0.583-1.471c0.388-0.641,0.853-1.179,1.394-1.617l0.521-3.753H110.956z M110.39,8.983l-1.044,7.463h0.934    c1.31,0,2.354-0.442,3.133-1.327c0.777-0.884,1.165-1.927,1.165-3.126c0-1.036-0.274-1.844-0.821-2.426    c-0.548-0.582-1.245-0.871-2.089-0.871C111.215,8.696,110.789,8.791,110.39,8.983"/>
		<path d="M127.496,7.552l-1.437,10.216h-1.929l0.189-1.178l-0.048-0.056c-0.894,0.955-1.812,1.432-2.753,1.432    c-0.931,0-1.725-0.394-2.38-1.182c-0.655-0.788-0.982-1.741-0.982-2.859c0-1.939,0.609-3.538,1.828-4.797    c1.218-1.258,2.919-1.888,5.104-1.888C125.974,7.241,126.778,7.345,127.496,7.552 M124.548,14.815l0.838-5.897    c-0.208-0.014-0.409-0.022-0.601-0.022c-1.517,0-2.674,0.483-3.466,1.449c-0.792,0.967-1.188,2.045-1.188,3.237    c0,0.822,0.19,1.493,0.574,2.015c0.382,0.522,0.865,0.782,1.451,0.782c0.467,0,0.978-0.23,1.535-0.693    C124.248,15.224,124.534,14.933,124.548,14.815"/>
		<path d="M135.811,8.307v2.021c-1.178-0.896-2.203-1.344-3.077-1.344c-0.392,0-0.721,0.105-0.989,0.317    c-0.266,0.211-0.398,0.464-0.398,0.76c0,0.193,0.082,0.398,0.249,0.617c0.166,0.219,0.691,0.624,1.577,1.216    c0.884,0.592,1.48,1.137,1.787,1.632c0.308,0.496,0.461,1,0.461,1.51c0,0.895-0.298,1.629-0.893,2.199    c-0.597,0.57-1.354,0.855-2.272,0.855c-1.132,0-2.312-0.448-3.542-1.344l0.334-1.865c1.272,1.015,2.32,1.522,3.142,1.522    c0.385,0,0.702-0.108,0.95-0.323c0.248-0.214,0.373-0.485,0.373-0.811c0-0.244-0.09-0.494-0.272-0.749    c-0.181-0.255-0.708-0.687-1.582-1.295c-0.874-0.606-1.452-1.147-1.732-1.621c-0.282-0.474-0.423-0.951-0.423-1.432    c0-0.881,0.294-1.589,0.878-2.126c0.584-0.537,1.362-0.805,2.332-0.805C133.734,7.241,134.767,7.595,135.811,8.307"/>
		<path fill="#EB0029" d="M16.293,18.221c-2.156-1.761-3.493-3-4.011-3.716c-0.517-0.714-0.777-1.516-0.777-2.409    c0-1.016,0.383-1.908,1.151-2.675c0.766-0.767,1.855-1.151,3.265-1.151c1.347,0,2.679,0.213,3.996,0.638    c1.316,0.425,2.491,0.913,3.529,1.461c1.036,0.55,1.751,0.98,2.144,1.291l1.4-8.55C22.74,1.036,18.429,0,14.055,0    C11.65,0,9.551,0.341,7.759,1.026C5.965,1.71,4.493,2.627,3.343,3.777c-1.15,1.152-1.996,2.415-2.534,3.794    C0.269,8.95,0,10.334,0,11.722c0,1.202,0.129,2.277,0.389,3.219c0.259,0.944,0.866,2.043,1.819,3.296    c0.656,0.863,1.522,1.819,2.571,2.853h14.826C18.655,20.184,17.555,19.228,16.293,18.221"/>
		<path d="M40.367,23.164c-0.425-0.671-0.98-1.383-1.653-2.135H24.027c2.845,2.596,4.665,4.358,5.441,5.276    c0.798,0.944,1.198,2.047,1.198,3.312c0,1.14-0.368,2.198-1.104,3.17c-0.736,0.977-1.985,1.463-3.747,1.463    c-2.798,0-6.426-1.4-10.883-4.198l-1.337,8.738c1.555,0.974,3.556,1.839,6.003,2.597c2.445,0.757,5.026,1.134,7.742,1.134    c3.647,0,6.576-0.674,8.783-2.021c2.208-1.348,3.768-3.006,4.68-4.976c0.913-1.968,1.368-3.938,1.368-5.908    C42.17,27.212,41.569,25.059,40.367,23.164"/>
	</g>
</g>
<g id="Layer_5" display="none">
	<g display="inline">
		<defs>
			<rect id="SVGID_3_" x="37.658" y="37.525" width="114.5" height="43.491"/>
		</defs>
		<clipPath id="SVGID_4_">
			<use xlink:href="#SVGID_3_" overflow="visible"/>
		</clipPath>
		<path clip-path="url(#SVGID_4_)" d="M49.86,71.415c-0.046-0.206-0.077-0.444-0.091-0.711l2.755-2.755    c-0.045,1.02-0.058,1.692-0.03,2.01c0.026,0.328,0.159,0.609,0.395,0.846c0.215,0.214,0.482,0.343,0.802,0.39    c0.321,0.043,0.647-0.1,0.978-0.43c0.524-0.526,0.941-1.468,1.254-2.83l1.889,1.389c-0.109,0.475-0.321,1.013-0.638,1.613    c-0.317,0.6-0.731,1.156-1.241,1.663c-0.684,0.686-1.359,1.108-2.025,1.27c-0.667,0.162-1.271,0.143-1.812-0.056    c-0.541-0.196-0.996-0.481-1.364-0.851C50.281,72.512,49.99,71.995,49.86,71.415"/>
		<path clip-path="url(#SVGID_4_)" d="M48.239,73.035c-0.205-0.046-0.443-0.075-0.71-0.091l-2.755,2.754    c1.02-0.045,1.692-0.057,2.009-0.031c0.327,0.029,0.609,0.161,0.846,0.396c0.213,0.214,0.343,0.483,0.388,0.802    c0.045,0.321-0.098,0.649-0.428,0.978c-0.525,0.525-1.469,0.944-2.829,1.257l1.389,1.888c0.475-0.109,1.011-0.321,1.612-0.638    c0.599-0.317,1.156-0.73,1.665-1.24c0.685-0.685,1.108-1.36,1.268-2.026c0.162-0.667,0.144-1.271-0.054-1.812    c-0.198-0.542-0.482-0.995-0.851-1.365C49.337,73.455,48.82,73.166,48.239,73.035"/>
		<path clip-path="url(#SVGID_4_)" d="M58.097,79.651c0.205,0.044,0.443,0.075,0.71,0.09l2.754-2.756    c-1.02,0.048-1.691,0.058-2.01,0.031c-0.326-0.025-0.608-0.158-0.846-0.396c-0.214-0.216-0.343-0.481-0.388-0.802    c-0.045-0.321,0.098-0.646,0.429-0.978c0.524-0.524,1.468-0.942,2.829-1.253l-1.389-1.89c-0.475,0.107-1.01,0.32-1.613,0.638    c-0.6,0.316-1.155,0.73-1.665,1.239c-0.684,0.684-1.106,1.359-1.267,2.027c-0.163,0.666-0.144,1.268,0.055,1.81    c0.198,0.541,0.482,0.997,0.851,1.366C57,79.229,57.514,79.521,58.097,79.651"/>
		<path clip-path="url(#SVGID_4_)" d="M83.002,71.415c-0.046-0.206-0.076-0.444-0.091-0.711l2.754-2.755    c-0.044,1.02-0.057,1.692-0.031,2.01c0.028,0.328,0.16,0.609,0.398,0.846c0.215,0.214,0.481,0.343,0.803,0.39    c0.319,0.043,0.646-0.1,0.977-0.43c0.524-0.526,0.943-1.468,1.254-2.83l1.89,1.389c-0.109,0.475-0.321,1.013-0.639,1.613    c-0.316,0.6-0.729,1.156-1.239,1.663c-0.684,0.686-1.359,1.108-2.026,1.27c-0.667,0.162-1.271,0.143-1.812-0.056    c-0.541-0.196-0.995-0.481-1.364-0.851C83.423,72.512,83.131,71.995,83.002,71.415"/>
		<path clip-path="url(#SVGID_4_)" d="M81.381,73.035c-0.205-0.046-0.443-0.075-0.71-0.091l-2.756,2.754    c1.021-0.045,1.693-0.057,2.011-0.031c0.326,0.029,0.607,0.161,0.847,0.396c0.214,0.214,0.343,0.483,0.387,0.802    c0.045,0.321-0.098,0.649-0.428,0.978c-0.524,0.525-1.469,0.944-2.829,1.257l1.388,1.888c0.475-0.109,1.012-0.321,1.612-0.638    c0.601-0.317,1.157-0.73,1.667-1.24c0.684-0.685,1.106-1.36,1.268-2.026c0.161-0.667,0.142-1.271-0.057-1.812    c-0.196-0.542-0.48-0.995-0.852-1.365C82.477,73.455,81.963,73.166,81.381,73.035"/>
		<path clip-path="url(#SVGID_4_)" d="M91.237,79.651c0.205,0.044,0.445,0.075,0.712,0.09l2.754-2.756    c-1.02,0.048-1.691,0.058-2.011,0.031c-0.325-0.025-0.607-0.158-0.845-0.396c-0.214-0.216-0.344-0.481-0.388-0.802    c-0.044-0.321,0.099-0.646,0.43-0.978c0.523-0.524,1.468-0.942,2.829-1.253l-1.39-1.89c-0.475,0.107-1.012,0.32-1.613,0.638    c-0.6,0.316-1.155,0.73-1.663,1.239c-0.685,0.684-1.107,1.359-1.269,2.027c-0.162,0.666-0.144,1.268,0.055,1.81    c0.198,0.541,0.483,0.997,0.853,1.366C90.142,79.229,90.657,79.521,91.237,79.651"/>
		<path clip-path="url(#SVGID_4_)" d="M73.256,57.964c0.046,0.206,0.075,0.444,0.09,0.71l-2.754,2.756    c0.047-1.021,0.057-1.693,0.03-2.011c-0.026-0.326-0.158-0.608-0.396-0.846c-0.214-0.214-0.481-0.344-0.802-0.388    c-0.321-0.044-0.647,0.098-0.977,0.429c-0.525,0.523-0.943,1.468-1.254,2.829l-1.891-1.39c0.11-0.474,0.323-1.01,0.639-1.612    c0.317-0.6,0.73-1.156,1.24-1.664c0.684-0.686,1.359-1.108,2.025-1.269c0.668-0.161,1.271-0.144,1.812,0.055    c0.541,0.197,0.996,0.482,1.366,0.851C72.835,56.867,73.125,57.384,73.256,57.964"/>
		<path clip-path="url(#SVGID_4_)" d="M66.64,48.107c-0.045-0.206-0.076-0.445-0.091-0.711l2.755-2.756    c-0.045,1.022-0.058,1.693-0.031,2.011c0.026,0.327,0.159,0.608,0.396,0.846c0.214,0.214,0.482,0.344,0.802,0.388    c0.321,0.046,0.647-0.099,0.978-0.429c0.523-0.525,0.941-1.467,1.254-2.829l1.89,1.388c-0.11,0.477-0.322,1.013-0.639,1.614    c-0.316,0.6-0.729,1.156-1.24,1.664c-0.684,0.686-1.36,1.107-2.026,1.27s-1.271,0.143-1.811-0.056    c-0.541-0.198-0.997-0.482-1.365-0.851C67.06,49.205,66.771,48.688,66.64,48.107"/>
		<path clip-path="url(#SVGID_4_)" d="M65.019,49.727c-0.205-0.045-0.443-0.075-0.71-0.09l-2.756,2.754    c1.021-0.046,1.693-0.057,2.011-0.03c0.327,0.027,0.608,0.161,0.846,0.396c0.213,0.213,0.343,0.482,0.387,0.803    c0.045,0.32-0.097,0.646-0.428,0.976c-0.525,0.524-1.468,0.942-2.83,1.255l1.39,1.889c0.474-0.108,1.011-0.32,1.612-0.638    c0.6-0.317,1.157-0.731,1.665-1.239c0.685-0.685,1.108-1.36,1.269-2.028c0.162-0.667,0.144-1.269-0.054-1.81    c-0.198-0.541-0.482-0.995-0.852-1.365C66.117,50.148,65.6,49.857,65.019,49.727"/>
		<path clip-path="url(#SVGID_4_)" d="M74.876,56.345c0.206,0.045,0.444,0.074,0.711,0.089l2.753-2.755    c-1.021,0.048-1.691,0.057-2.01,0.031c-0.326-0.026-0.608-0.158-0.846-0.396c-0.214-0.214-0.344-0.48-0.388-0.802    c-0.045-0.321,0.099-0.647,0.428-0.978c0.524-0.523,1.469-0.941,2.83-1.253l-1.389-1.892c-0.475,0.108-1.011,0.323-1.613,0.641    c-0.6,0.315-1.155,0.73-1.664,1.237c-0.684,0.687-1.107,1.36-1.269,2.029c-0.161,0.665-0.143,1.268,0.056,1.809    c0.198,0.54,0.481,0.995,0.851,1.365C73.779,55.923,74.294,56.214,74.876,56.345"/>
		<path clip-path="url(#SVGID_4_)" d="M106.397,57.964c0.047,0.206,0.076,0.444,0.09,0.71l-2.754,2.756    c0.046-1.021,0.058-1.693,0.029-2.011c-0.024-0.326-0.158-0.608-0.395-0.846c-0.216-0.214-0.482-0.344-0.803-0.388    c-0.32-0.044-0.646,0.098-0.978,0.429c-0.524,0.523-0.941,1.468-1.254,2.829l-1.891-1.39c0.11-0.474,0.323-1.01,0.64-1.612    c0.315-0.6,0.729-1.156,1.24-1.664c0.684-0.686,1.359-1.108,2.026-1.269c0.667-0.161,1.271-0.144,1.811,0.055    c0.54,0.197,0.995,0.482,1.364,0.851C105.977,56.867,106.266,57.384,106.397,57.964"/>
		<path clip-path="url(#SVGID_4_)" d="M99.78,48.107c-0.044-0.206-0.074-0.445-0.091-0.711l2.756-2.756    c-0.045,1.022-0.057,1.693-0.031,2.011c0.028,0.327,0.16,0.608,0.396,0.846c0.214,0.214,0.482,0.344,0.803,0.388    c0.32,0.046,0.647-0.099,0.977-0.429c0.524-0.525,0.943-1.467,1.253-2.829l1.891,1.388c-0.108,0.477-0.321,1.013-0.638,1.614    c-0.316,0.6-0.73,1.156-1.24,1.664c-0.684,0.686-1.36,1.107-2.026,1.27c-0.667,0.162-1.271,0.143-1.81-0.056    c-0.542-0.198-0.996-0.482-1.365-0.851C100.202,49.205,99.911,48.688,99.78,48.107"/>
		<path clip-path="url(#SVGID_4_)" d="M98.161,49.727c-0.206-0.045-0.445-0.075-0.711-0.09l-2.756,2.754    c1.021-0.046,1.694-0.057,2.011-0.03c0.327,0.027,0.609,0.161,0.846,0.396c0.216,0.213,0.344,0.482,0.39,0.803    c0.043,0.32-0.101,0.646-0.429,0.976c-0.525,0.524-1.469,0.942-2.829,1.255l1.388,1.889c0.475-0.108,1.012-0.32,1.612-0.638    c0.599-0.317,1.156-0.731,1.665-1.239c0.684-0.685,1.108-1.36,1.267-2.028c0.163-0.667,0.144-1.269-0.055-1.81    c-0.196-0.541-0.481-0.995-0.851-1.365C99.258,50.148,98.741,49.857,98.161,49.727"/>
		<path clip-path="url(#SVGID_4_)" d="M108.018,56.345c0.206,0.045,0.443,0.074,0.712,0.089l2.754-2.755    c-1.02,0.048-1.692,0.057-2.011,0.031c-0.327-0.026-0.607-0.158-0.845-0.396c-0.214-0.214-0.344-0.48-0.389-0.802    c-0.045-0.321,0.098-0.647,0.43-0.978c0.523-0.523,1.467-0.941,2.829-1.253l-1.389-1.892c-0.474,0.108-1.013,0.323-1.613,0.641    c-0.601,0.315-1.155,0.73-1.664,1.237c-0.686,0.687-1.108,1.36-1.269,2.029c-0.162,0.665-0.144,1.268,0.055,1.809    c0.198,0.54,0.482,0.995,0.852,1.365C106.92,55.923,107.436,56.214,108.018,56.345"/>
		<path clip-path="url(#SVGID_4_)" d="M116.562,71.443c-0.046-0.205-0.074-0.444-0.091-0.71l2.756-2.756    c-0.047,1.021-0.058,1.693-0.031,2.011c0.027,0.326,0.159,0.609,0.397,0.846c0.213,0.214,0.48,0.343,0.801,0.388    c0.32,0.045,0.647-0.099,0.977-0.428c0.523-0.526,0.942-1.468,1.255-2.83l1.89,1.389c-0.109,0.475-0.323,1.013-0.64,1.613    c-0.316,0.601-0.729,1.155-1.24,1.664c-0.683,0.685-1.358,1.107-2.025,1.27c-0.667,0.161-1.271,0.143-1.812-0.057    c-0.541-0.196-0.997-0.481-1.364-0.851C116.981,72.541,116.692,72.023,116.562,71.443"/>
		<path clip-path="url(#SVGID_4_)" d="M114.94,73.064c-0.205-0.047-0.443-0.075-0.709-0.091l-2.757,2.755    c1.021-0.046,1.694-0.058,2.012-0.031c0.326,0.027,0.607,0.16,0.846,0.396c0.214,0.213,0.343,0.482,0.387,0.802    c0.046,0.322-0.098,0.647-0.428,0.979c-0.524,0.522-1.469,0.942-2.828,1.255l1.389,1.888c0.474-0.109,1.011-0.321,1.61-0.638    c0.601-0.317,1.157-0.731,1.666-1.24c0.685-0.686,1.108-1.359,1.27-2.026c0.16-0.668,0.143-1.271-0.056-1.812    c-0.198-0.542-0.482-0.996-0.852-1.364C116.039,73.484,115.522,73.194,114.94,73.064"/>
		<path clip-path="url(#SVGID_4_)" d="M124.799,79.681c0.204,0.046,0.444,0.075,0.711,0.089l2.753-2.755    c-1.02,0.048-1.69,0.058-2.009,0.031c-0.327-0.025-0.609-0.158-0.848-0.396c-0.213-0.214-0.342-0.481-0.386-0.803    c-0.046-0.32,0.098-0.646,0.429-0.978c0.523-0.523,1.468-0.942,2.829-1.252l-1.39-1.891c-0.475,0.107-1.01,0.321-1.612,0.639    c-0.6,0.316-1.156,0.731-1.665,1.239c-0.685,0.685-1.106,1.359-1.268,2.027c-0.162,0.667-0.144,1.269,0.055,1.811    c0.198,0.54,0.482,0.996,0.851,1.365C123.701,79.26,124.217,79.55,124.799,79.681"/>
		<path clip-path="url(#SVGID_4_)" d="M139.957,57.993c0.047,0.206,0.076,0.444,0.091,0.711l-2.753,2.755    c0.045-1.021,0.056-1.693,0.03-2.011c-0.028-0.326-0.161-0.608-0.396-0.846c-0.216-0.214-0.483-0.344-0.802-0.388    c-0.321-0.045-0.646,0.098-0.979,0.429c-0.524,0.524-0.943,1.467-1.254,2.828l-1.891-1.39c0.11-0.473,0.323-1.01,0.639-1.61    c0.317-0.601,0.731-1.156,1.24-1.665c0.685-0.684,1.36-1.108,2.026-1.268c0.667-0.162,1.271-0.144,1.811,0.055    c0.542,0.198,0.997,0.482,1.367,0.853C139.535,56.896,139.827,57.412,139.957,57.993"/>
		<path clip-path="url(#SVGID_4_)" d="M133.341,48.137c-0.045-0.206-0.074-0.445-0.09-0.712l2.755-2.755    c-0.046,1.021-0.059,1.692-0.031,2.01c0.026,0.328,0.159,0.609,0.396,0.847c0.215,0.214,0.481,0.344,0.801,0.388    c0.322,0.045,0.647-0.099,0.98-0.429c0.522-0.525,0.941-1.468,1.253-2.829l1.89,1.388c-0.109,0.476-0.321,1.013-0.638,1.613    c-0.317,0.601-0.73,1.157-1.241,1.665c-0.684,0.685-1.359,1.107-2.025,1.27c-0.666,0.161-1.271,0.144-1.812-0.057    c-0.54-0.197-0.996-0.481-1.364-0.85C133.763,49.233,133.472,48.718,133.341,48.137"/>
		<path clip-path="url(#SVGID_4_)" d="M131.721,49.755c-0.205-0.045-0.444-0.073-0.71-0.089l-2.756,2.754    c1.02-0.047,1.694-0.058,2.012-0.03c0.325,0.026,0.608,0.16,0.844,0.396c0.216,0.213,0.344,0.482,0.39,0.802    c0.044,0.321-0.099,0.648-0.429,0.98c-0.525,0.523-1.469,0.941-2.828,1.252l1.387,1.891c0.476-0.109,1.013-0.322,1.613-0.639    c0.599-0.317,1.156-0.731,1.664-1.239c0.685-0.686,1.11-1.36,1.269-2.028c0.162-0.668,0.143-1.271-0.056-1.811    c-0.196-0.542-0.481-0.996-0.851-1.366C132.818,50.177,132.302,49.887,131.721,49.755"/>
		<path clip-path="url(#SVGID_4_)" d="M141.578,56.372c0.205,0.047,0.443,0.076,0.711,0.092l2.754-2.756    c-1.02,0.046-1.691,0.057-2.01,0.031c-0.327-0.027-0.607-0.159-0.846-0.397c-0.214-0.213-0.343-0.479-0.388-0.802    c-0.046-0.321,0.098-0.646,0.428-0.977c0.525-0.523,1.467-0.942,2.829-1.254l-1.387-1.889c-0.476,0.106-1.014,0.321-1.613,0.638    c-0.6,0.316-1.156,0.73-1.664,1.237c-0.686,0.687-1.107,1.361-1.27,2.03c-0.162,0.665-0.143,1.269,0.056,1.81    c0.198,0.54,0.482,0.995,0.851,1.364C140.481,55.952,140.997,56.243,141.578,56.372"/>
		<path clip-path="url(#SVGID_4_)" fill="#EB0029" d="M42.797,76.624c-0.735,0.073-1.218,0.092-1.449,0.056    c-0.231-0.039-0.43-0.139-0.598-0.307c-0.191-0.19-0.286-0.43-0.286-0.719c0-0.288,0.132-0.563,0.396-0.829    c0.253-0.25,0.543-0.462,0.87-0.629c0.327-0.167,0.639-0.296,0.936-0.388c0.298-0.092,0.513-0.145,0.644-0.16l-1.34-1.867    c-1.187,0.409-2.19,1.023-3.011,1.845c-0.45,0.45-0.779,0.907-0.988,1.372c-0.208,0.467-0.312,0.914-0.312,1.346    c0,0.431,0.078,0.827,0.237,1.185c0.157,0.361,0.366,0.669,0.626,0.93c0.225,0.227,0.451,0.403,0.676,0.533    c0.226,0.127,0.547,0.221,0.961,0.276c0.284,0.038,0.626,0.054,1.016,0.053l2.782-2.78C43.608,76.549,43.223,76.576,42.797,76.624    "/>
		<path clip-path="url(#SVGID_4_)" fill="#EB0029" d="M53.449,65.971c0.073-0.732,0.092-1.217,0.055-1.448    c-0.037-0.232-0.139-0.432-0.307-0.599c-0.189-0.189-0.429-0.285-0.717-0.285c-0.289,0-0.564,0.132-0.829,0.396    c-0.253,0.254-0.462,0.544-0.631,0.87c-0.167,0.327-0.296,0.639-0.387,0.937c-0.091,0.297-0.145,0.512-0.16,0.644l-1.866-1.34    c0.408-1.187,1.022-2.189,1.843-3.012c0.451-0.449,0.908-0.78,1.373-0.988c0.465-0.207,0.913-0.312,1.345-0.312    c0.432,0,0.827,0.079,1.187,0.236c0.36,0.157,0.669,0.367,0.931,0.627c0.224,0.226,0.403,0.451,0.53,0.677    c0.127,0.225,0.222,0.546,0.277,0.96c0.038,0.285,0.055,0.627,0.051,1.015l-2.78,2.784C53.374,66.784,53.4,66.396,53.449,65.971"/>
		<path clip-path="url(#SVGID_4_)" fill="#EB0029" d="M63.54,76.062c0.734-0.073,1.218-0.092,1.45-0.055    c0.231,0.036,0.43,0.138,0.598,0.305c0.19,0.19,0.285,0.431,0.285,0.718c0,0.289-0.131,0.564-0.396,0.83    c-0.254,0.251-0.543,0.461-0.871,0.629c-0.326,0.167-0.637,0.296-0.936,0.388c-0.298,0.091-0.512,0.145-0.643,0.159l1.341,1.867    c1.185-0.408,2.19-1.021,3.01-1.844c0.451-0.45,0.782-0.908,0.988-1.372c0.209-0.465,0.312-0.913,0.312-1.345    c0-0.432-0.08-0.828-0.237-1.186c-0.158-0.361-0.366-0.671-0.626-0.931c-0.226-0.227-0.452-0.403-0.677-0.531    c-0.226-0.128-0.547-0.22-0.96-0.276c-0.285-0.039-0.626-0.056-1.017-0.053l-2.781,2.78C62.729,76.138,63.114,76.11,63.54,76.062"/>
		<path clip-path="url(#SVGID_4_)" fill="#EB0029" d="M75.938,76.624c-0.734,0.073-1.217,0.092-1.449,0.056    c-0.231-0.039-0.43-0.139-0.598-0.307c-0.19-0.19-0.287-0.43-0.287-0.719c0-0.288,0.133-0.563,0.397-0.829    c0.253-0.25,0.542-0.462,0.87-0.629c0.326-0.167,0.638-0.296,0.936-0.388c0.298-0.092,0.513-0.145,0.644-0.16l-1.34-1.867    c-1.187,0.409-2.19,1.023-3.01,1.845c-0.452,0.45-0.78,0.907-0.988,1.372c-0.208,0.467-0.312,0.914-0.312,1.346    c0,0.431,0.079,0.827,0.237,1.185c0.156,0.361,0.366,0.669,0.625,0.93c0.226,0.227,0.451,0.403,0.677,0.533    c0.226,0.127,0.546,0.221,0.96,0.276c0.284,0.038,0.626,0.054,1.018,0.053l2.781-2.78C76.748,76.549,76.364,76.576,75.938,76.624"/>
		<path clip-path="url(#SVGID_4_)" fill="#EB0029" d="M86.591,65.971c0.074-0.732,0.092-1.217,0.055-1.448    c-0.036-0.232-0.138-0.432-0.307-0.599c-0.19-0.189-0.431-0.285-0.718-0.285c-0.285,0-0.563,0.132-0.826,0.396    c-0.255,0.254-0.463,0.544-0.632,0.87c-0.166,0.327-0.295,0.639-0.388,0.937c-0.091,0.297-0.145,0.512-0.16,0.644l-1.866-1.34    c0.407-1.187,1.022-2.189,1.843-3.012c0.451-0.449,0.91-0.78,1.374-0.988c0.466-0.207,0.911-0.312,1.345-0.312    c0.431,0,0.826,0.079,1.185,0.236c0.361,0.157,0.672,0.367,0.932,0.627c0.225,0.226,0.404,0.451,0.531,0.677    c0.129,0.225,0.222,0.546,0.277,0.96c0.039,0.285,0.056,0.627,0.054,1.015l-2.781,2.784    C86.515,66.784,86.542,66.396,86.591,65.971"/>
		<path clip-path="url(#SVGID_4_)" fill="#EB0029" d="M96.681,76.062c0.733-0.073,1.218-0.092,1.448-0.055    c0.233,0.036,0.433,0.138,0.601,0.305c0.19,0.19,0.285,0.431,0.285,0.718c0,0.289-0.134,0.564-0.397,0.83    c-0.253,0.251-0.541,0.461-0.87,0.629c-0.325,0.167-0.636,0.296-0.935,0.388c-0.298,0.091-0.513,0.145-0.645,0.159l1.341,1.867    c1.186-0.408,2.19-1.021,3.01-1.844c0.451-0.45,0.78-0.908,0.989-1.372c0.207-0.465,0.311-0.913,0.311-1.345    c0-0.432-0.078-0.828-0.235-1.186c-0.159-0.361-0.366-0.671-0.627-0.931c-0.226-0.227-0.45-0.403-0.675-0.531    c-0.228-0.128-0.547-0.22-0.961-0.276c-0.284-0.039-0.627-0.056-1.017-0.053l-2.781,2.78C95.87,76.138,96.255,76.11,96.681,76.062    "/>
		<path clip-path="url(#SVGID_4_)" fill="#EB0029" d="M59.576,53.315c-0.734,0.074-1.218,0.094-1.449,0.057    c-0.232-0.039-0.431-0.139-0.598-0.306c-0.19-0.191-0.287-0.431-0.287-0.719c0-0.289,0.134-0.564,0.398-0.829    c0.254-0.252,0.542-0.463,0.87-0.63c0.327-0.168,0.639-0.296,0.935-0.388c0.298-0.092,0.513-0.144,0.645-0.16l-1.341-1.866    c-1.187,0.408-2.19,1.023-3.01,1.846c-0.451,0.448-0.78,0.907-0.988,1.371c-0.208,0.465-0.312,0.913-0.312,1.345    c0,0.431,0.078,0.826,0.237,1.186c0.157,0.36,0.366,0.67,0.625,0.931c0.226,0.226,0.452,0.403,0.677,0.531    c0.225,0.128,0.546,0.221,0.96,0.277c0.285,0.038,0.626,0.055,1.017,0.053l2.781-2.78C60.386,53.241,60.003,53.268,59.576,53.315"/>
		<path clip-path="url(#SVGID_4_)" fill="#EB0029" d="M69.668,63.406c-0.075,0.735-0.093,1.219-0.056,1.449    c0.037,0.232,0.139,0.432,0.306,0.598c0.191,0.191,0.429,0.287,0.718,0.287c0.287,0,0.564-0.132,0.828-0.396    c0.253-0.254,0.463-0.543,0.63-0.871c0.166-0.326,0.296-0.638,0.387-0.935c0.092-0.298,0.145-0.513,0.161-0.645l1.866,1.341    c-0.408,1.187-1.023,2.19-1.844,3.011c-0.449,0.45-0.908,0.779-1.373,0.989c-0.465,0.206-0.913,0.312-1.345,0.312    c-0.43,0-0.827-0.079-1.187-0.237c-0.36-0.157-0.669-0.365-0.93-0.627c-0.226-0.226-0.402-0.451-0.531-0.677    c-0.128-0.226-0.221-0.544-0.275-0.959c-0.039-0.286-0.056-0.628-0.054-1.017l2.781-2.783    C69.742,62.595,69.716,62.98,69.668,63.406"/>
		<path clip-path="url(#SVGID_4_)" fill="#EB0029" d="M70.228,42.664c0.074-0.735,0.091-1.218,0.056-1.449    c-0.037-0.232-0.139-0.431-0.307-0.597c-0.189-0.191-0.429-0.286-0.717-0.286c-0.288,0-0.564,0.132-0.828,0.396    c-0.254,0.253-0.463,0.543-0.631,0.87c-0.167,0.327-0.295,0.637-0.387,0.936c-0.091,0.298-0.145,0.512-0.16,0.644l-1.867-1.34    c0.408-1.187,1.023-2.189,1.844-3.01c0.45-0.451,0.908-0.781,1.372-0.99c0.466-0.207,0.912-0.312,1.344-0.312    c0.433,0,0.827,0.08,1.187,0.237c0.36,0.157,0.669,0.368,0.931,0.627c0.225,0.226,0.402,0.452,0.53,0.676    c0.127,0.225,0.221,0.546,0.277,0.959c0.039,0.285,0.055,0.628,0.053,1.018l-2.782,2.78    C70.153,43.476,70.181,43.089,70.228,42.664"/>
		<path clip-path="url(#SVGID_4_)" fill="#EB0029" d="M80.32,52.755c0.733-0.074,1.217-0.093,1.449-0.055    c0.231,0.036,0.43,0.139,0.598,0.307c0.189,0.188,0.285,0.429,0.285,0.716c0,0.289-0.132,0.564-0.396,0.828    c-0.254,0.253-0.543,0.463-0.87,0.631c-0.327,0.167-0.64,0.296-0.938,0.389c-0.297,0.091-0.512,0.144-0.644,0.159l1.341,1.866    c1.186-0.407,2.19-1.022,3.01-1.843c0.451-0.452,0.781-0.909,0.988-1.373c0.21-0.465,0.312-0.913,0.312-1.345    c0-0.432-0.079-0.827-0.235-1.186c-0.158-0.361-0.366-0.672-0.626-0.933c-0.228-0.226-0.452-0.403-0.679-0.529    c-0.226-0.13-0.545-0.222-0.96-0.279c-0.284-0.037-0.626-0.055-1.016-0.051l-2.781,2.781    C79.508,52.831,79.894,52.804,80.32,52.755"/>
		<path clip-path="url(#SVGID_4_)" fill="#EB0029" d="M92.718,53.315c-0.735,0.074-1.219,0.094-1.449,0.057    c-0.232-0.039-0.431-0.139-0.598-0.306c-0.19-0.191-0.286-0.431-0.286-0.719c0-0.289,0.132-0.564,0.396-0.829    c0.253-0.252,0.542-0.463,0.871-0.63c0.325-0.168,0.637-0.296,0.935-0.388c0.297-0.092,0.513-0.144,0.644-0.16l-1.341-1.866    c-1.187,0.408-2.189,1.023-3.011,1.846c-0.45,0.448-0.78,0.907-0.986,1.371c-0.209,0.465-0.312,0.913-0.312,1.345    c0,0.431,0.077,0.826,0.236,1.186c0.157,0.36,0.366,0.67,0.626,0.931c0.226,0.226,0.451,0.403,0.678,0.531    c0.227,0.128,0.545,0.221,0.96,0.277c0.283,0.038,0.626,0.055,1.016,0.053l2.782-2.78C93.53,53.241,93.144,53.268,92.718,53.315"/>
		<path clip-path="url(#SVGID_4_)" fill="#EB0029" d="M102.81,63.406c-0.075,0.735-0.093,1.219-0.057,1.449    c0.037,0.232,0.14,0.432,0.308,0.598c0.189,0.191,0.429,0.287,0.718,0.287c0.286,0,0.563-0.132,0.828-0.396    c0.252-0.254,0.462-0.543,0.63-0.871c0.165-0.326,0.297-0.638,0.388-0.935c0.091-0.298,0.145-0.513,0.159-0.645l1.866,1.341    c-0.407,1.187-1.022,2.19-1.843,3.011c-0.451,0.45-0.908,0.779-1.372,0.989c-0.466,0.206-0.914,0.312-1.346,0.312    c-0.431,0-0.826-0.079-1.188-0.237c-0.36-0.157-0.669-0.365-0.93-0.627c-0.227-0.226-0.402-0.451-0.531-0.677    c-0.128-0.226-0.221-0.544-0.276-0.959c-0.038-0.286-0.055-0.628-0.053-1.017l2.781-2.783    C102.883,62.595,102.856,62.98,102.81,63.406"/>
		<path clip-path="url(#SVGID_4_)" fill="#EB0029" d="M103.37,42.664c0.072-0.735,0.092-1.218,0.055-1.449    c-0.036-0.232-0.138-0.431-0.306-0.597c-0.19-0.191-0.43-0.286-0.718-0.286s-0.563,0.132-0.829,0.396    c-0.252,0.253-0.461,0.543-0.629,0.87c-0.168,0.327-0.296,0.637-0.39,0.936c-0.089,0.298-0.143,0.512-0.159,0.644l-1.867-1.34    c0.408-1.187,1.023-2.189,1.844-3.01c0.452-0.451,0.908-0.781,1.374-0.99c0.467-0.207,0.913-0.312,1.345-0.312    c0.432,0,0.827,0.08,1.186,0.237c0.361,0.157,0.672,0.368,0.932,0.627c0.225,0.226,0.403,0.452,0.531,0.676    c0.128,0.225,0.222,0.546,0.277,0.959c0.038,0.285,0.055,0.628,0.051,1.018l-2.779,2.78    C103.295,43.476,103.322,43.089,103.37,42.664"/>
		<path clip-path="url(#SVGID_4_)" fill="#EB0029" d="M113.46,52.755c0.734-0.074,1.22-0.093,1.449-0.055    c0.232,0.036,0.431,0.139,0.599,0.307c0.191,0.188,0.286,0.429,0.286,0.716c0,0.289-0.134,0.564-0.397,0.828    c-0.253,0.253-0.543,0.463-0.869,0.631c-0.326,0.167-0.638,0.296-0.937,0.389c-0.298,0.091-0.511,0.144-0.644,0.159l1.341,1.866    c1.187-0.407,2.189-1.022,3.01-1.843c0.452-0.452,0.78-0.909,0.99-1.373c0.206-0.465,0.311-0.913,0.311-1.345    c0-0.432-0.079-0.827-0.236-1.186c-0.157-0.361-0.366-0.672-0.627-0.933c-0.227-0.226-0.449-0.403-0.675-0.529    c-0.225-0.13-0.547-0.222-0.962-0.279c-0.283-0.037-0.625-0.055-1.016-0.051l-2.782,2.781    C112.65,52.831,113.034,52.804,113.46,52.755"/>
		<path clip-path="url(#SVGID_4_)" fill="#EB0029" d="M109.5,76.652c-0.736,0.074-1.22,0.093-1.451,0.057    c-0.231-0.039-0.429-0.14-0.597-0.308c-0.191-0.191-0.286-0.43-0.286-0.717s0.133-0.564,0.396-0.827    c0.253-0.254,0.543-0.465,0.869-0.632c0.328-0.167,0.64-0.296,0.937-0.388c0.298-0.091,0.513-0.145,0.645-0.159l-1.341-1.867    c-1.187,0.409-2.189,1.022-3.011,1.844c-0.451,0.449-0.779,0.908-0.988,1.372c-0.208,0.466-0.312,0.913-0.312,1.345    c0,0.432,0.077,0.828,0.237,1.188c0.155,0.359,0.365,0.669,0.625,0.93c0.227,0.225,0.452,0.402,0.677,0.53    c0.226,0.129,0.548,0.223,0.96,0.278c0.284,0.038,0.626,0.057,1.018,0.052l2.781-2.78C110.309,76.577,109.924,76.604,109.5,76.652    "/>
		<path clip-path="url(#SVGID_4_)" fill="#EB0029" d="M120.15,66.001c0.075-0.734,0.091-1.217,0.056-1.45    c-0.037-0.231-0.14-0.432-0.308-0.598c-0.189-0.189-0.429-0.286-0.717-0.286c-0.287,0-0.563,0.134-0.827,0.396    c-0.255,0.254-0.462,0.543-0.631,0.87c-0.166,0.327-0.295,0.639-0.389,0.937c-0.091,0.297-0.144,0.513-0.158,0.644l-1.867-1.341    c0.409-1.185,1.021-2.189,1.844-3.011c0.451-0.449,0.907-0.78,1.373-0.987c0.464-0.209,0.91-0.312,1.344-0.312    c0.432,0,0.827,0.079,1.187,0.235c0.36,0.158,0.671,0.368,0.931,0.627c0.226,0.227,0.403,0.453,0.53,0.678    c0.128,0.224,0.222,0.546,0.277,0.959c0.039,0.285,0.056,0.627,0.053,1.018l-2.781,2.781    C120.075,66.812,120.102,66.426,120.15,66.001"/>
		<path clip-path="url(#SVGID_4_)" fill="#EB0029" d="M130.241,76.091c0.734-0.073,1.218-0.091,1.45-0.055    c0.23,0.037,0.431,0.139,0.598,0.307c0.189,0.189,0.285,0.43,0.285,0.716c0,0.289-0.133,0.564-0.396,0.83    c-0.254,0.252-0.542,0.461-0.87,0.63c-0.325,0.166-0.638,0.295-0.937,0.388c-0.297,0.09-0.512,0.143-0.643,0.158l1.341,1.868    c1.187-0.408,2.191-1.022,3.01-1.845c0.451-0.45,0.781-0.907,0.987-1.371c0.209-0.465,0.312-0.913,0.312-1.345    c0-0.433-0.078-0.828-0.234-1.188c-0.159-0.36-0.368-0.668-0.628-0.931c-0.227-0.226-0.452-0.402-0.677-0.529    c-0.225-0.129-0.546-0.221-0.959-0.278c-0.285-0.038-0.626-0.056-1.019-0.052l-2.78,2.78    C129.43,76.167,129.815,76.139,130.241,76.091"/>
		<path clip-path="url(#SVGID_4_)" fill="#EB0029" d="M126.278,53.347c-0.734,0.072-1.219,0.092-1.448,0.054    c-0.232-0.038-0.431-0.139-0.599-0.306c-0.19-0.19-0.285-0.43-0.285-0.717c0-0.289,0.131-0.565,0.396-0.83    c0.252-0.252,0.543-0.462,0.869-0.63c0.328-0.165,0.64-0.296,0.936-0.387c0.298-0.093,0.514-0.145,0.645-0.161l-1.341-1.867    c-1.186,0.409-2.188,1.024-3.01,1.845c-0.45,0.45-0.78,0.909-0.989,1.371c-0.206,0.467-0.312,0.915-0.312,1.348    c0,0.431,0.078,0.825,0.236,1.185c0.157,0.36,0.366,0.67,0.627,0.931c0.226,0.226,0.451,0.403,0.677,0.531    c0.225,0.128,0.545,0.221,0.961,0.278c0.284,0.037,0.626,0.055,1.015,0.051l2.782-2.78    C127.09,53.27,126.704,53.298,126.278,53.347"/>
		<path clip-path="url(#SVGID_4_)" fill="#EB0029" d="M136.369,63.435c-0.073,0.735-0.093,1.22-0.057,1.45    c0.038,0.231,0.14,0.432,0.307,0.597c0.191,0.192,0.431,0.286,0.718,0.286c0.287,0,0.564-0.131,0.83-0.395    c0.253-0.254,0.463-0.543,0.629-0.87c0.166-0.327,0.297-0.64,0.388-0.937c0.09-0.297,0.145-0.512,0.161-0.643l1.864,1.34    c-0.407,1.187-1.021,2.189-1.842,3.011c-0.45,0.451-0.908,0.782-1.374,0.989c-0.464,0.208-0.912,0.312-1.344,0.312    c-0.432,0-0.828-0.079-1.187-0.236c-0.361-0.158-0.67-0.367-0.93-0.627c-0.227-0.226-0.402-0.453-0.532-0.678    c-0.128-0.226-0.221-0.545-0.275-0.959c-0.04-0.285-0.057-0.626-0.055-1.018l2.781-2.781    C136.444,62.625,136.417,63.011,136.369,63.435"/>
		<path clip-path="url(#SVGID_4_)" fill="#EB0029" d="M136.93,42.694c0.073-0.736,0.093-1.218,0.056-1.45    c-0.036-0.231-0.139-0.431-0.307-0.598c-0.19-0.19-0.429-0.286-0.717-0.286s-0.564,0.133-0.828,0.397    c-0.253,0.252-0.464,0.542-0.63,0.869c-0.167,0.327-0.298,0.637-0.389,0.935c-0.091,0.298-0.145,0.512-0.16,0.645l-1.867-1.341    c0.408-1.187,1.023-2.189,1.845-3.01c0.45-0.451,0.907-0.781,1.374-0.99c0.465-0.207,0.911-0.312,1.343-0.312    c0.432,0,0.828,0.079,1.188,0.237c0.36,0.156,0.67,0.367,0.93,0.627c0.225,0.225,0.404,0.452,0.531,0.676    c0.128,0.226,0.221,0.546,0.277,0.96c0.038,0.285,0.056,0.627,0.053,1.018l-2.781,2.78    C136.854,43.505,136.882,43.119,136.93,42.694"/>
		<path clip-path="url(#SVGID_4_)" fill="#EB0029" d="M147.022,52.783c0.732-0.073,1.217-0.092,1.447-0.054    c0.232,0.036,0.432,0.139,0.598,0.306c0.191,0.189,0.286,0.43,0.286,0.717c0,0.289-0.132,0.564-0.396,0.828    c-0.254,0.254-0.544,0.462-0.869,0.631c-0.326,0.167-0.639,0.296-0.938,0.389c-0.298,0.09-0.513,0.144-0.645,0.158l1.343,1.867    c1.186-0.408,2.189-1.023,3.008-1.844c0.452-0.451,0.782-0.908,0.989-1.372c0.208-0.464,0.312-0.913,0.312-1.345    c0-0.431-0.079-0.827-0.235-1.187c-0.159-0.36-0.367-0.67-0.627-0.932c-0.227-0.227-0.451-0.403-0.677-0.529    c-0.227-0.129-0.546-0.222-0.961-0.279c-0.285-0.037-0.625-0.055-1.017-0.052l-2.781,2.782    C146.21,52.86,146.596,52.833,147.022,52.783"/>
	</g>
</g>
</svg>