<svg width="304" height="96" viewBox="0 0 304 96" fill="none" xmlns="http://www.w3.org/2000/svg">
<path d="M85.3194 12.6137C84.2258 11.868 83.0452 11.2928 81.7775 10.8864C80.5099 10.4807 79.2793 10.2777 78.0864 10.2777C76.4294 10.2777 75.0915 10.7002 74.072 11.5451C73.0532 12.3904 72.5436 13.4918 72.5436 14.8498C72.5436 15.4637 72.7012 16.0392 73.0158 16.577C73.3304 17.1155 73.79 17.6711 74.3953 18.2424C74.9999 18.8138 75.9898 19.5801 77.3654 20.541C78.2269 21.1539 79.093 21.8 79.9632 22.479C80.8328 23.159 81.6241 23.9169 82.3367 24.7531C83.049 25.59 83.6289 26.5219 84.0762 27.5489C84.5236 28.576 84.7479 29.7522 84.7479 31.0779C84.7479 32.9002 84.2915 34.5685 83.3807 36.0847C82.4689 37.6005 81.1848 38.7806 79.5278 39.6255C77.8711 40.4705 75.9653 40.8932 73.8113 40.8932C70.2481 40.8932 66.9428 39.9491 63.894 38.0604L64.7391 32.5187C66.4126 33.6955 68.0074 34.5569 69.5239 35.1037C71.04 35.6499 72.4195 35.9232 73.662 35.9232C74.5571 35.9232 75.3935 35.7537 76.1728 35.4134C76.9512 35.0747 77.5768 34.5898 78.0493 33.9601C78.5215 33.3307 78.7578 32.5931 78.7578 31.7482C78.7578 31.0527 78.6082 30.4192 78.3101 29.8475C78.0116 29.2762 77.6097 28.7293 77.1046 28.2076C76.5989 27.6853 76.0233 27.1809 75.377 26.6914C74.7311 26.2026 74.0601 25.7015 73.3636 25.1875C71.4249 23.7964 70.037 22.6363 69.2006 21.7085C68.3635 20.7814 67.7089 19.7918 67.2371 18.7393C66.7649 17.6878 66.5283 16.5068 66.5283 15.1978C66.5283 13.3587 67.0382 11.6814 68.057 10.1662C69.0762 8.64972 70.4885 7.4574 72.2951 6.58701C74.101 5.71758 76.0645 5.28223 78.1857 5.28223C79.5442 5.28223 80.9324 5.46526 82.349 5.8294C83.7659 6.19419 85.0461 6.67434 86.189 7.2705L85.3194 12.6137Z" fill="#ED1A39"/>
<path d="M105.109 17.4819L104.463 21.607H99.6158L97.9011 31.4977C97.6855 32.6243 97.5782 33.5186 97.5782 34.1817C97.5782 34.7118 97.777 35.1672 98.1748 35.5481C98.5722 35.9293 99.1024 36.1197 99.7654 36.1197C100.494 36.1197 101.186 36.0037 101.84 35.7717C102.495 35.5394 103.212 35.2 103.991 34.7531L103.842 39.8221C103.129 40.2036 102.292 40.5055 101.331 40.7298C100.37 40.9531 99.3428 41.065 98.2492 41.065C97.0064 41.065 95.9086 40.8371 94.9558 40.3818C94.0027 39.9265 93.2611 39.2878 92.7309 38.4683C92.2004 37.6478 91.9361 36.7494 91.9361 35.7717C91.9361 34.7776 92.1594 33.079 92.6071 30.6773L94.2222 21.607H89.8975L90.5688 17.4819H94.9929L95.8132 12.7103H101.306L100.436 17.4819H105.109Z" fill="#ED1A39"/>
<path d="M124.703 21.5604C124.206 21.5111 123.725 21.4859 123.261 21.4859C121.886 21.4859 120.635 21.6935 119.508 22.1072C118.381 22.5213 117.404 23.1471 116.575 23.9834C115.747 24.8202 115.08 25.8885 114.575 27.1891C114.069 28.4903 113.816 29.8196 113.816 31.1779C113.816 32.8178 114.177 34.1348 114.898 35.1293C115.618 36.1231 116.583 36.62 117.793 36.62C118.572 36.62 119.426 36.3635 120.354 35.8495C121.281 35.3362 122.159 34.6488 122.988 33.7871L124.703 21.5604ZM127.512 40.447H122.019L122.367 38.0611L122.342 38.0366L122.267 38.0118C120.212 39.9337 118.108 40.894 115.954 40.894C114.512 40.894 113.195 40.4799 112.002 39.6517C110.809 38.8238 109.873 37.6844 109.193 36.2346C108.513 34.7854 108.174 33.191 108.174 31.4511C108.174 28.5351 108.845 25.9513 110.188 23.6975C111.53 21.4453 113.41 19.7468 115.83 18.6028C118.249 17.4601 121.058 16.8884 124.256 16.8884C126.426 16.8884 128.581 17.1372 130.718 17.6344L127.512 40.447Z" fill="#ED1A39"/>
<path d="M151.796 21.5574H150.777C148.705 21.5574 146.933 21.918 145.458 22.6385C143.983 23.3591 142.848 24.3903 142.053 25.7321C141.257 27.0743 140.86 28.6394 140.86 30.4295C140.86 32.3018 141.448 33.7925 142.624 34.9023C143.801 36.0122 145.383 36.5671 147.372 36.5671C148.399 36.5671 149.194 36.5007 149.758 36.3679L151.796 21.5574ZM159.551 5.72791L154.655 40.2449C152.4 40.7579 149.923 41.0157 147.222 41.0157C144.82 41.0157 142.707 40.5929 140.885 39.748C139.061 38.9031 137.661 37.6895 136.684 36.1072C135.706 34.5256 135.217 32.7156 135.217 30.6777C135.217 27.8776 135.864 25.4427 137.156 23.372C138.448 21.3009 140.271 19.7186 142.624 18.6256C144.977 17.5315 147.678 16.9853 150.727 16.9853H152.467L154.033 5.72791H159.551Z" fill="#ED1A39"/>
<path d="M171.902 10.6668C171.902 11.1799 171.765 11.6694 171.492 12.1324C171.218 12.5965 170.841 12.9613 170.361 13.2261C169.88 13.4913 169.391 13.6235 168.894 13.6235C168.364 13.6235 167.867 13.4872 167.403 13.2136C166.939 12.94 166.578 12.5762 166.322 12.1205C166.065 11.6652 165.936 11.1799 165.936 10.6668C165.936 10.1367 166.065 9.63887 166.322 9.17483C166.578 8.71176 166.935 8.34279 167.391 8.0692C167.846 7.79593 168.348 7.6593 168.894 7.6593C169.424 7.6593 169.926 7.80077 170.398 8.08209C170.87 8.36406 171.239 8.74077 171.504 9.21222C171.769 9.68463 171.902 10.169 171.902 10.6668ZM170.882 17.4756L167.527 42.7734C167.345 44.0821 167.071 45.2041 166.707 46.1406C166.342 47.0757 165.895 47.8636 165.365 48.5007C164.834 49.1388 164.201 49.6853 163.463 50.1416C162.726 50.5973 161.839 51.0149 160.804 51.3964C159.769 51.7777 158.779 51.9681 157.834 51.9681C157.336 51.9681 156.831 51.8937 156.317 51.7445L156.988 47.1473C157.419 47.2133 157.825 47.2462 158.206 47.2462C159.35 47.2462 160.22 46.9027 160.816 46.215C161.412 45.5277 161.81 44.3801 162.009 42.7734L165.439 17.4756H170.882Z" fill="#ED1A39"/>
<path d="M190.499 25.7351V25.3381C190.499 24.0124 190.172 22.9605 189.518 22.182C188.863 21.4038 187.93 21.0142 186.721 21.0142C184.335 21.0142 182.62 22.5883 181.576 25.7351H190.499ZM186.945 16.8884C188.668 16.8884 190.205 17.2906 191.555 18.094C192.906 18.8976 193.95 20.0365 194.687 21.5111C195.425 22.9854 195.794 24.6507 195.794 26.5056C195.794 27.3347 195.71 28.2129 195.545 29.1396H180.93C180.831 29.72 180.781 30.2498 180.781 30.7309C180.781 31.9564 181.025 33.0292 181.514 33.9485C182.003 34.8679 182.686 35.5727 183.564 36.0612C184.443 36.5497 185.429 36.7934 186.523 36.7934C187.599 36.7934 188.785 36.5665 190.076 36.1102C191.369 35.6549 192.836 34.9636 194.476 34.0349L193.556 38.8812C190.905 40.3394 188.303 41.0683 185.752 41.0683C183.68 41.0683 181.854 40.612 180.271 39.701C178.688 38.791 177.47 37.4817 176.618 35.775C175.764 34.0691 175.337 32.114 175.337 29.9101C175.337 27.5413 175.851 25.35 176.878 23.3373C177.906 21.3242 179.31 19.7468 181.091 18.6028C182.872 17.4601 184.824 16.8884 186.945 16.8884Z" fill="#ED1A39"/>
<path d="M215.064 23.6351C214.699 23.221 214.343 22.9146 213.995 22.7157C213.647 22.5166 213.216 22.4173 212.703 22.4173C211.029 22.4173 209.389 23.9915 207.781 27.1386L205.892 40.4339H200.449L203.655 17.4721H209.149L208.477 21.5972C209.637 20.0234 210.677 18.8762 211.597 18.1556C212.516 17.4347 213.481 17.0745 214.492 17.0745C215.055 17.0745 215.607 17.1863 216.145 17.4096C216.683 17.6332 217.168 17.9606 217.6 18.3918L215.064 23.6351Z" fill="#ED1A39"/>
<path d="M234.858 23.9963C233.168 23.0182 231.859 22.3679 230.931 22.0454C230.003 21.7218 229.141 21.5604 228.346 21.5604C227.384 21.5604 226.684 21.7176 226.246 22.0328C225.806 22.3476 225.587 22.9022 225.587 23.6975C225.587 24.0294 225.765 24.3897 226.121 24.7787C226.478 25.1683 227.021 25.611 227.75 26.1079L229.067 27.0025C230.558 28.0637 231.59 28.9131 232.162 29.5502C232.734 30.1883 233.189 30.8753 233.529 31.6129C233.868 32.3505 234.039 33.1578 234.039 34.0349C234.039 35.3771 233.71 36.5784 233.056 37.6383C232.402 38.6995 231.473 39.5277 230.273 40.1235C229.071 40.7203 227.733 41.0187 226.259 41.0187C224.849 41.0187 223.466 40.8405 222.107 40.4841C220.748 40.1274 219.473 39.4861 218.28 38.558L219.175 33.8367C220.434 34.6488 221.614 35.282 222.716 35.7377C223.818 36.1933 224.867 36.4212 225.861 36.4212C226.655 36.4212 227.293 36.2346 227.774 35.8624C228.254 35.4886 228.495 35.013 228.495 34.4332C228.495 33.936 228.276 33.4185 227.837 32.8806C227.397 32.3418 226.739 31.7576 225.861 31.1279C223.872 29.7036 222.571 28.6724 221.958 28.034C221.345 27.3966 220.881 26.7334 220.566 26.0461C220.251 25.3584 220.094 24.642 220.094 23.8964C220.094 22.5384 220.422 21.3242 221.076 20.2556C221.73 19.187 222.658 18.3592 223.859 17.7704C225.061 17.1833 226.424 16.8884 227.949 16.8884C229.191 16.8884 230.38 17.096 231.515 17.5097C232.65 17.9241 233.765 18.4623 234.858 19.1252V23.9963Z" fill="#ED1A39"/>
<path d="M247.031 20.7777L244.695 37.4773H246.784C249.719 37.4773 252.057 36.4877 253.798 34.5081C255.539 32.5285 256.41 30.1964 256.41 27.5121C256.41 25.1932 255.796 23.3838 254.569 22.0822C253.342 20.7816 251.782 20.1316 249.892 20.1316C248.88 20.1316 247.926 20.3479 247.031 20.7777ZM248.299 11.7819L247.478 17.5723C248.638 17.1093 249.933 16.8763 251.359 16.8763C254.044 16.8763 256.295 17.8875 258.111 19.9083C259.926 21.9301 260.834 24.4643 260.834 27.5121C260.834 31.1409 259.603 34.3218 257.14 37.0548C254.679 39.7888 251.31 41.1551 247.033 41.1551H244.172L242.656 52.1393H238.339L242.391 23.2381C241.463 23.9013 240.623 24.763 239.869 25.8232C239.114 26.8831 238.687 27.4132 238.588 27.4132C238.455 27.4132 238.39 27.3055 238.39 27.0903C238.39 26.3285 238.824 25.2302 239.694 23.7979C240.564 22.3645 241.604 21.1596 242.814 20.1816L243.982 11.7819H248.299Z" fill="#231F20"/>
<path d="M278.802 33.8387L280.674 20.641C280.209 20.6081 279.761 20.592 279.331 20.592C275.933 20.592 273.349 21.6722 271.576 23.8345C269.802 25.9961 268.916 28.4107 268.916 31.0786C268.916 32.9174 269.343 34.4203 270.199 35.5888C271.053 36.7563 272.137 37.3405 273.448 37.3405C274.494 37.3405 275.639 36.8233 276.884 35.7883C278.129 34.7542 278.768 34.1036 278.802 33.8387ZM285.399 17.5851L282.182 40.447H277.864L278.287 37.813L278.18 37.6876C276.176 39.8254 274.123 40.894 272.02 40.894C269.932 40.894 268.156 40.0117 266.69 38.247C265.225 36.4834 264.492 34.3501 264.492 31.8491C264.492 27.5081 265.855 23.9302 268.581 21.1131C271.308 18.2973 275.115 16.8884 280.005 16.8884C281.993 16.8884 283.791 17.1214 285.399 17.5851Z" fill="#231F20"/>
<path d="M304 19.2744V23.7971C301.366 21.7924 299.071 20.7899 297.116 20.7899C296.237 20.7899 295.5 21.0261 294.903 21.4985C294.307 21.9709 294.009 22.5384 294.009 23.2003C294.009 23.6315 294.195 24.091 294.568 24.5798C294.94 25.0687 296.117 25.9755 298.097 27.3009C300.077 28.6266 301.411 29.8444 302.099 30.9542C302.786 32.064 303.131 33.1909 303.131 34.334C303.131 36.338 302.463 37.9789 301.13 39.2537C299.796 40.5298 298.101 41.1672 296.047 41.1672C293.511 41.1672 290.868 40.1657 288.118 38.1607L288.864 33.9859C291.713 36.2555 294.058 37.3902 295.898 37.3902C296.759 37.3902 297.468 37.1501 298.023 36.669C298.578 36.1882 298.855 35.5836 298.855 34.8537C298.855 34.3069 298.652 33.7481 298.248 33.1755C297.842 32.6045 296.662 31.6384 294.707 30.2801C292.752 28.9221 291.458 27.7121 290.829 26.6522C290.198 25.592 289.883 24.5238 289.883 23.4478C289.883 21.4763 290.537 19.8908 291.846 18.6901C293.155 17.4894 294.895 16.8884 297.065 16.8884C299.353 16.8884 301.664 17.6834 304 19.2744Z" fill="#231F20"/>
<path d="M36.4699 41.4529C31.6452 37.5111 28.6526 34.7392 27.4919 33.1369C26.3316 31.5386 25.7521 29.7424 25.7521 27.7464C25.7521 25.4736 26.6101 23.4779 28.3274 21.7622C30.0433 20.0466 32.4794 19.1862 35.6361 19.1862C38.6517 19.1862 41.6321 19.6621 44.5803 20.6134C47.5268 21.5647 50.1576 22.6565 52.4795 23.8839C54.7995 25.1136 56.3988 26.0765 57.2806 26.7719L60.4135 7.63712C50.9014 2.99578 41.2495 0.67688 31.4593 0.67688C26.076 0.67688 21.3783 1.44222 17.3652 2.97225C13.3515 4.50422 10.0568 6.55726 7.48215 9.12977C4.90688 11.7074 3.01523 14.5355 1.81043 17.6197C0.601757 20.7069 0 23.8024 0 26.9098C0 29.6009 0.289114 32.0036 0.869598 34.1127C1.44976 36.2238 2.80669 38.6841 4.94137 41.4883C6.40885 43.4202 8.34853 45.5583 10.6959 47.8721H43.8841C41.7568 45.8461 39.2937 43.7083 36.4699 41.4529Z" fill="#ED1A39"/>
<path d="M90.388 52.5124C89.4365 51.012 88.1936 49.4169 86.6855 47.7338H53.8123C60.1812 53.5436 64.2552 57.486 65.9934 59.5406C67.779 61.6523 68.6728 64.1214 68.6728 66.9504C68.6728 69.5029 67.8477 71.8702 66.2016 74.0473C64.553 76.2315 61.7583 77.3207 57.8141 77.3207C51.5513 77.3207 43.4306 74.1878 33.4544 67.9258L30.4614 87.4805C33.9418 89.6615 38.4203 91.5962 43.8957 93.291C49.3686 94.9828 55.1473 95.829 61.2258 95.829C69.3912 95.829 75.9461 94.3228 80.8868 91.3053C85.8292 88.2906 89.3211 84.5799 91.3613 80.1732C93.4045 75.7665 94.4243 71.3591 94.4243 66.9504C94.4243 61.5724 93.0773 56.7567 90.388 52.5124Z" fill="#231F20"/>
</svg>
