<svg xmlns="http://www.w3.org/2000/svg" viewBox="0 0 136.063 42.52"><path fill="#EB0029" d="M38.143 5.331a6.11 6.11 0 00-1.582-.772 5.415 5.415 0 00-1.65-.272c-.74 0-1.338.189-1.793.566-.456.377-.684.87-.684 1.476 0 .275.071.532.212.772.14.241.346.489.616.744.271.256.712.599 1.328 1.028.384.274.772.562 1.161.866.389.303.741.642 1.06 1.016.318.373.577.79.777 1.248.2.459.3.985.3 1.578 0 .814-.205 1.559-.611 2.237a4.165 4.165 0 01-1.721 1.582c-.74.378-1.592.566-2.554.566a8.256 8.256 0 01-4.431-1.265l.378-2.476c.747.526 1.461.911 2.138 1.155.677.244 1.294.366 1.848.366.4 0 .774-.076 1.122-.228.348-.152.627-.368.838-.65.211-.281.316-.61.316-.988 0-.311-.066-.594-.2-.849a3.135 3.135 0 00-.539-.734c-.225-.233-.483-.458-.771-.677s-.588-.443-.899-.672c-.867-.621-1.486-1.14-1.86-1.554a5.083 5.083 0 01-.877-1.327 3.806 3.806 0 01-.317-1.583c0-.821.227-1.571.683-2.248.455-.677 1.086-1.21 1.893-1.599a5.981 5.981 0 012.633-.583c.606 0 1.226.082 1.859.244a8.003 8.003 0 011.716.644l-.389 2.389zM46.959 7.507l-.289 1.844h-2.165l-.766 4.419c-.097.504-.144.903-.144 1.2 0 .237.088.44.266.61.178.171.415.256.711.256.325 0 .635-.052.927-.155a5.96 5.96 0 00.961-.456l-.068 2.266a4.559 4.559 0 01-1.122.406 6.11 6.11 0 01-1.376.149c-.556 0-1.046-.102-1.471-.306a2.37 2.37 0 01-.995-.855 2.176 2.176 0 01-.356-1.205c0-.444.101-1.203.3-2.277l.722-4.053h-1.932l.3-1.843h1.976l.366-2.132h2.454l-.389 2.132h2.09zM56.975 17.767h-2.454l.156-1.066-.012-.011-.033-.012c-.918.859-1.858 1.288-2.82 1.288a3.03 3.03 0 01-1.766-.555c-.532-.37-.951-.879-1.254-1.527a4.965 4.965 0 01-.456-2.138c0-1.302.3-2.457.9-3.464a5.7 5.7 0 012.521-2.277c1.08-.511 2.335-.766 3.764-.766.97 0 1.932.111 2.888.333l-1.434 10.195zM55.72 9.329a6.257 6.257 0 00-.645-.034c-.614 0-1.173.092-1.676.278a3.531 3.531 0 00-1.31.838c-.37.374-.668.852-.894 1.433a4.86 4.86 0 00-.339 1.782c0 .733.161 1.322.483 1.766.322.444.754.667 1.294.667.348 0 .73-.114 1.144-.345a4.988 4.988 0 001.177-.921l.766-5.464zM71.288 2.254L69.1 17.678c-1.007.229-2.113.345-3.32.345-1.074 0-2.017-.189-2.832-.566-.816-.378-1.44-.92-1.877-1.626-.436-.707-.655-1.516-.655-2.427 0-1.251.289-2.339.866-3.264.579-.926 1.392-1.632 2.443-2.121 1.051-.489 2.258-.733 3.62-.733h.778l.7-5.031h2.465zm-3.465 7.075h-.455c-.925 0-1.717.161-2.376.482a3.52 3.52 0 00-1.521 1.382c-.356.6-.533 1.299-.533 2.1 0 .836.262 1.503.788 1.998.526.496 1.233.743 2.121.743.459 0 .814-.029 1.066-.089l.91-6.616zM76.361 7.507l-1.498 11.304a6.768 6.768 0 01-.367 1.505 3.77 3.77 0 01-.6 1.054c-.237.285-.521.53-.849.733a6.642 6.642 0 01-1.189.561c-.463.17-.904.255-1.328.255a2.38 2.38 0 01-.678-.1l.301-2.054c.192.03.374.044.544.044.51 0 .899-.153 1.165-.46.267-.308.445-.82.533-1.538L73.93 7.507h2.431zm.456-3.042c0 .229-.061.448-.184.655-.121.207-.29.371-.505.488a1.336 1.336 0 01-.655.177 1.29 1.29 0 01-.666-.183 1.315 1.315 0 01-.655-1.138c0-.237.059-.459.173-.667a1.308 1.308 0 011.821-.488c.21.126.376.294.494.505.117.212.177.428.177.651M83.523 7.241c.77 0 1.457.18 2.059.538.604.359 1.07.869 1.4 1.528.329.658.494 1.403.494 2.231 0 .371-.037.763-.111 1.178h-6.53c-.044.26-.067.495-.067.712 0 .547.109 1.027.327 1.437.219.411.524.726.917.944a2.66 2.66 0 001.321.327c.48 0 1.01-.101 1.586-.305.578-.203 1.233-.512 1.966-.927l-.411 2.165c-1.185.652-2.347.978-3.487.978-.925 0-1.741-.204-2.448-.611a4.062 4.062 0 01-1.632-1.755c-.383-.762-.573-1.636-.573-2.621 0-1.059.23-2.039.689-2.937.459-.9 1.085-1.605 1.882-2.115a4.752 4.752 0 012.618-.767m1.588 3.952v-.178c0-.592-.147-1.062-.438-1.41-.294-.348-.709-.522-1.25-.522-1.067 0-1.833.703-2.299 2.109h3.987zM96.082 10.261a1.979 1.979 0 00-.478-.411 1.147 1.147 0 00-.578-.134c-.747 0-1.48.704-2.198 2.11l-.845 5.941h-2.431l1.433-10.261h2.454l-.3 1.844c.519-.703.983-1.216 1.394-1.537.411-.323.84-.484 1.294-.484.251 0 .496.05.737.15.24.101.458.246.65.439l-1.132 2.343zM104.943 10.417c-.756-.438-1.34-.727-1.755-.872a3.516 3.516 0 00-1.154-.217c-.431 0-.743.071-.939.211-.197.141-.295.389-.295.744 0 .148.081.309.239.483.159.174.4.372.728.594l.588.4c.665.474 1.127.853 1.382 1.138.256.285.459.592.611.921.152.33.228.691.228 1.083 0 .6-.147 1.137-.439 1.61a2.981 2.981 0 01-1.243 1.111c-.537.266-1.136.4-1.793.4-.629 0-1.248-.08-1.855-.239a4.757 4.757 0 01-1.71-.86l.4-2.11a10.08 10.08 0 001.582.85c.493.204.961.306 1.406.306.354 0 .64-.084.854-.25a.774.774 0 00.321-.639c0-.222-.098-.454-.294-.694-.196-.24-.491-.502-.882-.783-.888-.637-1.47-1.098-1.744-1.382a3.245 3.245 0 01-.622-.889 2.278 2.278 0 01-.21-.961c0-.606.146-1.149.438-1.627a2.936 2.936 0 011.244-1.11c.536-.262 1.145-.394 1.826-.394.554 0 1.086.092 1.592.278a8.574 8.574 0 011.495.721v2.177z"/><path d="M110.956 4.964l-.366 2.587a4.66 4.66 0 011.734-.311c1.199 0 2.205.452 3.016 1.354.811.904 1.216 2.036 1.216 3.398 0 1.622-.548 3.043-1.649 4.264-1.1 1.223-2.606 1.833-4.516 1.833h-1.278l-.677 4.908h-1.928l1.809-12.915a4.83 4.83 0 00-1.126 1.156c-.337.473-.528.71-.572.71-.06 0-.089-.048-.089-.145 0-.341.194-.831.583-1.471a6.16 6.16 0 011.394-1.617l.521-3.753h1.928zm-.566 4.019l-1.044 7.463h.934c1.31 0 2.354-.442 3.133-1.327.777-.884 1.165-1.927 1.165-3.126 0-1.036-.274-1.844-.821-2.426-.548-.582-1.245-.871-2.089-.871-.453 0-.879.095-1.278.287M127.496 7.552l-1.437 10.216h-1.929l.189-1.178-.048-.056c-.894.955-1.812 1.432-2.753 1.432-.931 0-1.725-.394-2.38-1.182-.655-.788-.982-1.741-.982-2.859 0-1.939.609-3.538 1.828-4.797 1.218-1.258 2.919-1.888 5.104-1.888.886.001 1.69.105 2.408.312m-2.948 7.263l.838-5.897a8.992 8.992 0 00-.601-.022c-1.517 0-2.674.483-3.466 1.449-.792.967-1.188 2.045-1.188 3.237 0 .822.19 1.493.574 2.015.382.522.865.782 1.451.782.467 0 .978-.23 1.535-.693.557-.462.843-.753.857-.871M135.811 8.307v2.021c-1.178-.896-2.203-1.344-3.077-1.344-.392 0-.721.105-.989.317-.266.211-.398.464-.398.76 0 .193.082.398.249.617.166.219.691.624 1.577 1.216.884.592 1.48 1.137 1.787 1.632.308.496.461 1 .461 1.51 0 .895-.298 1.629-.893 2.199-.597.57-1.354.855-2.272.855-1.132 0-2.312-.448-3.542-1.344l.334-1.865c1.272 1.015 2.32 1.522 3.142 1.522.385 0 .702-.108.95-.323.248-.214.373-.485.373-.811 0-.244-.09-.494-.272-.749-.181-.255-.708-.687-1.582-1.295-.874-.606-1.452-1.147-1.732-1.621-.282-.474-.423-.951-.423-1.432 0-.881.294-1.589.878-2.126.584-.537 1.362-.805 2.332-.805 1.02 0 2.053.354 3.097 1.066"/><path fill="#EB0029" d="M16.293 18.221c-2.156-1.761-3.493-3-4.011-3.716a4.007 4.007 0 01-.777-2.409c0-1.016.383-1.908 1.151-2.675.766-.767 1.855-1.151 3.265-1.151 1.347 0 2.679.213 3.996.638 1.316.425 2.491.913 3.529 1.461 1.036.55 1.751.98 2.144 1.291l1.4-8.55C22.74 1.036 18.429 0 14.055 0 11.65 0 9.551.341 7.759 1.026c-1.794.684-3.266 1.601-4.416 2.751C2.193 4.929 1.347 6.192.809 7.571.269 8.95 0 10.334 0 11.722c0 1.202.129 2.277.389 3.219.259.944.866 2.043 1.819 3.296.656.863 1.522 1.819 2.571 2.853h14.826a49.915 49.915 0 00-3.312-2.869"/><path d="M40.367 23.164c-.425-.671-.98-1.383-1.653-2.135H24.027c2.845 2.596 4.665 4.358 5.441 5.276.798.944 1.198 2.047 1.198 3.312 0 1.14-.368 2.198-1.104 3.17-.736.977-1.985 1.463-3.747 1.463-2.798 0-6.426-1.4-10.883-4.198l-1.337 8.738c1.555.974 3.556 1.839 6.003 2.597 2.445.757 5.026 1.134 7.742 1.134 3.647 0 6.576-.674 8.783-2.021 2.208-1.348 3.768-3.006 4.68-4.976.913-1.968 1.368-3.938 1.368-5.908-.001-2.404-.602-4.557-1.804-6.452"/></svg>