<svg xmlns="http://www.w3.org/2000/svg" xmlns:xlink="http://www.w3.org/1999/xlink" width="100%" height="100%" version="1.1" viewBox="0 0 335 42" xml:space="preserve" style="fill-rule:evenodd;clip-rule:evenodd;stroke-linejoin:round;stroke-miterlimit:1.41421"><g><path d="M119.178,35.41L119.178,30.665L119.518,30.665L119.946,28.558L120.029,29.378C120.136,29.342 120.401,29.123 120.539,27.855C120.712,26.235 120.749,24.985 120.749,24.985C120.749,24.985 120.699,24.495 121.294,23.731L121.55,19.081C121.663,19.081 121.85,18.876 121.904,18.811C122.118,18.548 122.158,18.218 122.197,17.908C122.242,17.548 122.277,17.191 122.285,16.831C122.287,16.757 122.285,16.025 122.273,16.025L122.253,15.769C122.253,15.769 122.921,15.576 122.773,14.919L123.053,14.919C123.053,14.919 123.427,14.171 123.14,13.659L123.21,13.659C123.21,13.659 123.14,13.339 123.49,13.117L123.35,12.789L123.647,12.751L123.943,12.789L123.803,13.117C124.153,13.339 124.083,13.659 124.083,13.659L124.153,13.659C123.863,14.171 124.24,14.919 124.24,14.919L124.52,14.919C124.37,15.576 125.04,15.769 125.04,15.769L125.02,16.025C125.007,16.025 125.006,16.757 125.007,16.83C125.017,17.19 125.05,17.546 125.095,17.905C125.135,18.215 125.173,18.545 125.388,18.805C125.443,18.873 125.63,19.077 125.741,19.077L126.001,23.73C126.594,24.495 126.547,24.984 126.547,24.984C126.547,24.984 126.582,26.236 126.757,27.854C126.893,29.124 127.157,29.342 127.267,29.377L127.35,28.557L127.776,30.665L128.256,30.665L128.256,47.16L104.073,47.16L104.073,35.41L119.181,35.41L119.178,35.41ZM217.84,35.26L222.81,30.375L227.445,35.72L227.445,47.16L213.177,47.16L213.177,25.957L213.867,25.957L213.867,22.242L214.473,22.242L214.473,17.135L215.279,17.135L215.279,12.75L215.739,12.75L215.739,17.135L216.543,17.135L216.543,22.242L217.148,22.242L217.148,25.957L217.838,25.957L217.838,35.261L217.84,35.26ZM33.57,39.98L38.576,36.126L40.978,10.378L54.79,8.802L54.79,6.875L65.8,6.875L65.8,8.802L69.002,8.802L69.002,11.079L74.007,11.079L76.409,34.372L79.409,36.824L79.409,47.16L33.57,47.16L33.57,39.98ZM320.605,12.75L320.605,47.16L333.195,47.16L333.195,20.303L336.551,20.303L336.551,47.16L349.329,47.16L349.329,12.75L320.607,12.75L320.605,12.75ZM249.543,47.16L249.703,44.167L249.266,43.543L249.75,42.943L249.727,42.52L249.267,42.02L249.681,41.447L250.306,41.272L250.376,40.948L249.798,40.624L250.306,39.974L250.882,39.726L250.722,39.476L250.099,39.11L250.514,38.28L251.114,37.996L250.608,37.63L250.592,36.832L251.362,36.366L250.608,35.301L251.33,34.871L250.67,33.691L251.36,33.241L251.27,32.526L250.47,32.076L251.192,31.578L251.146,30.912L250.362,30.462L251.1,29.849L251.023,29.249L250.253,28.884L250.638,28.386L250.638,27.106L250.07,26.79L250.746,26.207L250.746,25.692L249.962,25.192L250.652,24.562L250.652,24.128L249.882,23.53L250.622,22.897L250.622,22.547L249.838,21.949L250.591,21.234L250.591,20.984L249.883,20.369L250.591,19.589L250.591,19.355L249.838,18.74L250.668,17.875L249.93,16.977L250.76,16.279L250.1,15.381L250.79,14.731L250.22,13.833L250.897,13.133L250.482,12.318L251.19,11.553L250.775,10.805L251.451,10.039L251.191,9.391L251.821,8.626L251.544,7.926L252.22,7.096L252.173,6.296L253.203,5.482L254.448,5.199L258.261,5.615L259.354,5.815L261.43,5.349L264.765,5.283L267.978,5.816L269.548,6.646L270.238,7.696L270.378,8.411L270.346,9.341L273.836,10.739L273.421,11.521L273.761,11.604L274.237,12.287L273.791,13.167L274.251,13.185L274.667,13.851L274.174,14.633L274.574,14.65L275.082,15.415L274.545,16.112L274.915,16.212L275.33,16.894L274.838,17.64L275.176,17.674L275.546,18.374L275.084,19.039L275.624,19.737L275.208,20.403L275.792,21.166L275.269,21.848L275.823,22.563L275.377,23.246L275.977,23.978L275.454,24.676L275.947,25.408L275.562,26.04L275.977,26.722L275.455,27.452L275.871,28.134L275.471,28.666L277.823,28.176L280.013,27.526L282.966,27.601L289.24,28.773L291.5,29.621C291.5,29.621 292.17,30.121 292.215,30.221C292.26,30.321 292.355,30.571 292.355,30.571L291.985,30.795L291.985,31.469L292.585,32.017L292.285,32.491L292.285,32.716L292.968,33.539L292.508,33.855L292.508,34.188L293.138,34.77L292.738,35.167L292.738,35.483L293.368,36.133L292.998,36.465L292.998,36.897L293.414,37.397L293.059,37.762L293.059,38.212L293.566,38.677L293.229,39.043L293.229,39.558L293.689,39.973L293.275,40.306L293.275,40.838L293.629,41.138L293.291,41.57L293.291,41.97L293.906,42.55L293.461,42.967L293.461,43.265L293.937,43.781L293.617,44.181L293.617,44.731L298.582,44.731L298.582,47.158L249.552,47.158M183.227,27.098L188.277,27.018L193.293,28.511L199.517,47.161L176.25,47.161L181.37,28.718L183.227,27.1L183.227,27.098ZM18.044,42.964C19.656,42.964 20.982,41.638 20.982,40.026C20.982,38.404 19.667,34.571 18.044,34.571C16.422,34.571 15.107,38.406 15.107,40.028C15.107,40.028 15.107,40.029 15.107,40.029C15.107,41.64 16.433,42.966 18.044,42.966C18.044,42.966 18.044,42.964 18.044,42.964Z" transform="matrix(1,0,0,1,-15.107,-5.199)" style="fill:#a2afb7;fill-opacity:.298039;fill-rule:nonzero"/></g></svg>