<svg width="36" height="36" viewBox="0 0 36 36" fill="none" xmlns="http://www.w3.org/2000/svg">
<rect x="0.5" y="0.5" width="35" height="35" rx="4.5" fill="white"/>
<path d="M13.7441 18.5868H15.7171V26.7097C15.7171 26.8701 15.8471 27 16.0075 27H19.3529C19.5133 27 19.6432 26.8701 19.6432 26.7097V18.6251H21.9115C22.059 18.6251 22.183 18.5144 22.1999 18.3679L22.5444 15.3775C22.5538 15.2952 22.5278 15.2128 22.4727 15.1511C22.4176 15.0893 22.3388 15.0539 22.256 15.0539H19.6434V13.1794C19.6434 12.6143 19.9476 12.3277 20.5478 12.3277C20.6333 12.3277 22.256 12.3277 22.256 12.3277C22.4164 12.3277 22.5463 12.1977 22.5463 12.0374V9.29247C22.5463 9.1321 22.4164 9.00215 22.256 9.00215H19.9018C19.8852 9.00134 19.8483 9 19.794 9C19.3855 9 17.9656 9.08019 16.8441 10.112C15.6014 11.2554 15.7741 12.6244 15.8154 12.8618V15.0539H13.7441C13.5837 15.0539 13.4537 15.1838 13.4537 15.3442V18.2964C13.4537 18.4568 13.5837 18.5868 13.7441 18.5868Z" fill="#282B39"/>
<rect x="0.5" y="0.5" width="35" height="35" rx="4.5" stroke="#DBDCDB"/>
</svg>
