<svg width="36" height="36" viewBox="0 0 36 36" fill="none" xmlns="http://www.w3.org/2000/svg">
<rect x="0.5" y="0.5" width="35" height="35" rx="4.5" fill="white"/>
<g clip-path="url(#clip0_1456_28648)">
<path d="M27 12.4189C26.3306 12.7125 25.6174 12.9071 24.8737 13.0016C25.6388 12.5449 26.2226 11.8271 26.4971 10.962C25.7839 11.3872 24.9964 11.6876 24.1571 11.8553C23.4799 11.1341 22.5146 10.6875 21.4616 10.6875C19.4186 10.6875 17.7739 12.3458 17.7739 14.3786C17.7739 14.6711 17.7986 14.9524 17.8594 15.2201C14.7915 15.0705 12.0769 13.6001 10.2533 11.3603C9.93487 11.9126 9.74813 12.5449 9.74813 13.2255C9.74813 14.5035 10.4062 15.6364 11.3872 16.2922C10.7944 16.281 10.2127 16.1089 9.72 15.8377C9.72 15.849 9.72 15.8636 9.72 15.8782C9.72 17.6715 10.9991 19.161 12.6765 19.5041C12.3761 19.5863 12.0487 19.6256 11.709 19.6256C11.4727 19.6256 11.2342 19.6121 11.0104 19.5626C11.4885 21.024 12.8453 22.0984 14.4585 22.1332C13.203 23.1154 11.6089 23.7071 9.88313 23.7071C9.5805 23.7071 9.29025 23.6936 9 23.6565C10.6346 24.7106 12.5719 25.3125 14.661 25.3125C21.4515 25.3125 25.164 19.6875 25.164 14.8117C25.164 14.6486 25.1584 14.4911 25.1505 14.3348C25.8829 13.815 26.4982 13.1659 27 12.4189Z" fill="#282B39"/>
</g>
<rect x="0.5" y="0.5" width="35" height="35" rx="4.5" stroke="#DBDCDB"/>
<defs>
<clipPath id="clip0_1456_28648">
<rect width="18" height="18" fill="white" transform="translate(9 9)"/>
</clipPath>
</defs>
</svg>
