<svg width="36" height="36" viewBox="0 0 36 36" fill="none" xmlns="http://www.w3.org/2000/svg">
<rect x="0.5" y="0.5" width="35" height="35" rx="4.5" fill="white"/>
<path d="M26.2984 12.4089C25.6487 11.5858 24.4491 11.25 22.1581 11.25H13.8418C11.4983 11.25 10.2784 11.6075 9.6311 12.4838C9 13.3382 9 14.5972 9 16.3396V19.6606C9 23.0362 9.7488 24.75 13.8418 24.75H22.1581C24.1449 24.75 25.2458 24.4538 25.958 23.7274C26.6884 22.9825 27 21.7662 27 19.6606V16.3396C27 14.5021 26.9512 13.2357 26.2984 12.4089ZM20.5561 18.4586L16.7797 20.5619C16.6952 20.6089 16.6029 20.6323 16.5107 20.6323C16.4063 20.6323 16.3021 20.6023 16.2099 20.5428C16.0361 20.4306 15.9301 20.2299 15.9301 20.0135V15.8203C15.9301 15.6042 16.0359 15.4037 16.2092 15.2915C16.3827 15.1792 16.5984 15.1715 16.7783 15.2712L20.5547 17.361C20.7469 17.4673 20.8675 17.6786 20.8678 17.9093C20.868 18.1401 20.7479 18.3518 20.5561 18.4586Z" fill="#282B39"/>
<rect x="0.5" y="0.5" width="35" height="35" rx="4.5" stroke="#DBDCDB"/>
</svg>
