<svg xmlns="http://www.w3.org/2000/svg" width="480" height="126" fill="none" viewBox="0 0 480 126"><path fill="#24A1A3" d="M456.781 0.220415C461.179 -0.420017 465.799 0.326722 469.683 2.53064C473.37 4.59454 476.393 7.83819 478.164 11.6782C480.638 17.0194 480.609 23.4497 478.1 28.7676C476.098 32.9965 472.59 36.4969 468.34 38.4571C464.422 40.2954 459.908 40.7362 455.679 39.8883C450.716 38.8745 446.223 35.8668 443.327 31.7209C440.929 28.3216 439.627 24.1524 439.712 19.9908C439.679 14.7429 441.88 9.53909 445.619 5.86763C448.606 2.85474 452.578 0.834919 456.781 0.220415ZM457.969 3.94892C451.873 4.58417 446.405 9.00497 444.442 14.8C442.718 19.6823 443.501 25.3788 446.55 29.5766C449.169 33.2947 453.392 35.8383 457.919 36.3491C462.638 36.9377 467.575 35.3145 471.011 32.0242C474.239 29.0243 476.155 24.6657 476.155 20.2553C476.207 15.8864 474.392 11.5356 471.244 8.50195C467.811 5.07681 462.781 3.36294 457.969 3.94892Z"/><path fill="#24A1A3" d="M462.084 11.4993C463.204 11.4993 464.326 11.4993 465.449 11.4993C465.452 12.9876 465.454 14.4759 465.446 15.9641C467.894 13.7421 472.25 14.9166 473.541 17.8777C474.667 20.4342 474.231 23.8879 471.903 25.638C470.025 27.0641 466.942 27.2663 465.314 25.3554C465.317 25.6017 465.322 26.0944 465.325 26.3407C464.241 26.3459 463.16 26.3459 462.081 26.3433C462.073 23.4004 462.094 20.4601 462.068 17.5198C461.192 20.4653 460.266 23.3952 459.382 26.3355C458.324 26.3485 457.266 26.3485 456.213 26.3355C455.614 23.9838 454.971 21.6451 454.367 19.2934C453.753 21.6425 453.162 23.9994 452.534 26.3433C451.484 26.3459 450.436 26.3433 449.394 26.3433C448.251 22.6277 447.115 18.9122 445.979 15.1941C447.141 15.1889 448.305 15.2044 449.472 15.1785C450.068 17.4395 450.618 19.7134 451.162 21.9899C451.769 19.7264 452.342 17.455 452.962 15.1941C453.911 15.1915 454.865 15.1889 455.819 15.2018C456.426 17.4524 457.04 19.7004 457.66 21.9484C458.21 19.703 458.739 17.4524 459.283 15.207C460.211 15.1863 461.142 15.1915 462.076 15.1967C462.084 13.9625 462.073 12.7309 462.084 11.4993ZM467.357 18.0695C465.275 18.5129 464.643 21.5025 466.206 22.8689C467.583 24.2768 470.212 23.4289 470.627 21.5362C471.267 19.6252 469.328 17.4576 467.357 18.0695Z"/><path fill="#24A1A3" d="M173.889 11.5667C179.894 11.5563 185.899 11.5641 191.904 11.5615C191.914 26.867 191.899 42.1726 191.912 57.4781C197.481 50.27 203.092 43.0956 208.651 35.8772C220.202 35.8642 231.756 35.8746 243.31 35.8746C243.307 38.037 243.315 40.1994 243.305 42.3619C245.84 39.4423 249.006 37.0206 252.616 35.5945C256.437 34.0388 260.643 33.5981 264.734 33.9066C270.143 34.2463 275.503 36.1002 279.76 39.4968C283.963 42.8027 287.023 47.4049 288.944 52.3625C289.818 54.6753 290.567 57.0633 290.873 59.5239C291.039 56.7184 290.914 53.9026 290.953 51.0946C290.956 37.9151 290.948 24.7383 290.956 11.5615C296.961 11.5667 302.966 11.5563 308.974 11.5667C308.976 27.2093 308.968 42.8519 308.976 58.4945C315.845 58.4634 322.716 58.5594 329.581 58.4271C337.344 58.4297 345.107 58.4323 352.87 58.4271C351.787 53.8896 347.783 50.4101 343.298 49.4274C338.923 48.4732 333.989 49.0903 330.411 51.9346C329.008 52.977 327.956 54.3927 327.059 55.8706C327.059 49.3677 327.061 42.8649 327.056 36.3594C337.142 31.962 349.575 33.3051 358.365 39.9739C364.326 44.5139 368.596 51.2086 370.178 58.536C370.146 50.9805 370.167 43.4249 370.167 35.872C376.149 35.872 382.133 35.872 388.117 35.872C388.123 55.8784 388.123 75.8873 388.117 95.8963C382.133 95.8963 376.149 95.8989 370.165 95.8937C370.162 87.9648 370.162 80.0385 370.165 72.1096C355.419 72.107 340.671 72.1018 325.926 72.1121C326.364 76.087 329.211 79.4758 332.778 81.1249C336.185 82.7169 340.168 83.0902 343.808 82.1257C346.645 81.4023 348.973 79.4084 350.604 77.0334C356.749 77.0334 362.894 77.0334 369.039 77.036C367.131 81.4775 364.442 85.6105 360.996 89.0123C357.517 92.3337 353.368 95.0251 348.756 96.4641C339.826 99.2981 329.683 97.6698 321.966 92.4011C315.635 88.167 310.913 81.5916 308.974 74.2201C308.976 81.4438 308.968 88.67 308.976 95.8937C302.969 95.8989 296.961 95.8937 290.956 95.8963C290.951 89.3494 290.953 82.8024 290.953 76.2555C290.964 75.2547 290.948 74.2512 290.881 73.253C289.366 82.2242 283.706 90.581 275.554 94.784C269.726 97.8487 262.824 98.6525 256.396 97.3561C251.781 96.4512 247.523 94.0113 244.35 90.5524C244.344 102.207 244.35 113.865 244.347 125.52C238.36 125.52 232.376 125.52 226.391 125.52C226.389 115.643 226.394 105.77 226.389 95.8963C220.581 95.8833 214.77 95.9248 208.962 95.873C203.313 86.3002 197.595 76.7637 191.912 67.2091C191.899 76.7715 191.912 86.3339 191.907 95.8963C185.899 95.8937 179.891 95.8989 173.886 95.8937C173.881 81.2416 173.886 66.5894 173.884 51.9372C170.796 52.0824 167.495 52.5362 165.003 54.5249C162.921 56.1532 161.936 58.7901 161.664 61.3493C161.425 63.9784 161.526 66.6205 161.506 69.2574C161.503 78.1353 161.508 87.0158 161.503 95.8963C155.519 95.8963 149.534 95.8989 143.548 95.8937C143.548 87.9648 143.55 80.0385 143.548 72.1096C128.844 72.1121 114.14 72.0966 99.4355 72.1173C99.8374 75.6566 102.145 78.7835 105.197 80.5441C108.879 82.6754 113.447 83.2095 117.539 82.0661C120.279 81.309 122.522 79.3514 124.104 77.0385C130.257 77.0282 136.407 77.0334 142.56 77.036C140.62 81.4931 137.939 85.6546 134.457 89.059C130.92 92.4349 126.679 95.1418 121.978 96.5549C112.675 99.4044 102.132 97.4235 94.3613 91.6129C87.3114 86.4791 82.5535 78.3194 81.6357 69.6386C81.449 68.1166 81.436 66.5816 81.4464 65.0492C78.2987 75.3325 75.1458 85.6105 72.0007 95.8937C66.4338 95.9015 60.867 95.8911 55.3002 95.8989C51.9009 83.0151 48.4913 70.1338 45.0766 57.2552C41.7214 70.1312 38.413 83.0228 35.0526 95.8963C29.4884 95.8911 23.9242 95.9041 18.3625 95.8911C12.2512 75.8821 6.09059 55.8887 0 35.8746C6.21504 35.8694 12.4275 35.872 18.6399 35.872C21.7047 48.245 24.7331 60.6284 27.7979 73.0015C31.0649 60.6259 34.3215 48.2476 37.5936 35.872C42.6549 35.8746 47.7161 35.8668 52.7773 35.8746C56.148 48.258 59.5213 60.6388 62.8972 73.0222C65.8582 60.6362 68.8607 48.258 71.8217 35.872C78.0005 35.872 84.1818 35.8694 90.3632 35.8746C88.0918 43.4223 85.7557 50.952 83.4532 58.4919C97.758 58.5127 112.06 58.3856 126.365 58.4245C125.706 55.4765 123.699 52.9459 121.213 51.2942C117.738 49.0073 113.299 48.5614 109.294 49.4118C105.638 50.1897 102.381 52.5854 100.582 55.8628C100.561 49.3625 100.587 42.8597 100.569 36.3594C110.227 32.1513 122.024 33.2014 130.736 39.1519C137.135 43.5649 141.782 50.4126 143.571 57.9734C143.519 50.6071 143.563 43.2408 143.548 35.8746C149.187 35.8668 154.829 35.872 160.468 35.872C160.468 38.05 160.466 40.228 160.471 42.4059C161.643 40.1839 163.157 38.0759 165.244 36.6265C167.757 34.84 170.842 34.0803 173.881 33.8651C173.889 26.4314 173.879 19.0004 173.889 11.5667ZM207.456 62.2697C213.777 71.9255 220.073 81.5994 226.386 91.2603C226.399 74.2253 226.386 57.1929 226.394 40.1605C220.083 47.532 213.777 54.9086 207.456 62.2697ZM257.327 50.6797C253.082 51.0012 249.011 53.244 246.543 56.721C243.678 60.7166 242.866 66.089 244.347 70.7691C245.34 73.9557 247.461 76.7689 250.253 78.5969C253.585 80.8552 257.837 81.6434 261.768 80.8163C265.126 80.1707 268.211 78.2442 270.286 75.5295C273.011 72.0421 274.162 67.3595 273.306 63.0139C272.503 58.7564 269.925 54.7816 266.148 52.5932C263.5 51.0401 260.371 50.4464 257.327 50.6797Z"/><path fill="#24A1A3" d="M370.165 11.5641C376.149 11.5615 382.133 11.5615 388.117 11.5615C388.123 17.5691 388.12 23.5767 388.12 29.5817C382.136 29.5869 376.151 29.5817 370.167 29.5843C370.159 23.5767 370.162 17.5717 370.165 11.5641Z"/><path fill="#24A1A3" d="M412.734 36.4709C416.392 34.2385 420.805 33.6654 425.021 33.8625C429.733 34.0207 434.586 35.2963 438.268 38.3585C441.704 41.1484 443.804 45.2762 444.833 49.5207C445.593 52.6632 445.857 55.9094 445.811 59.1375C445.808 71.3887 445.811 83.6425 445.811 95.8937C439.803 95.8988 433.798 95.8963 427.791 95.8937C427.788 84.5007 427.796 73.1104 427.788 61.7174C427.682 59.166 427.368 56.4928 425.988 54.2811C424.985 52.6139 423.232 51.4809 421.352 51.0608C419.499 50.6304 417.557 50.6641 415.692 50.9908C413.455 51.3875 411.3 52.6217 410.1 54.5923C408.57 57.0166 408.29 59.9672 408.215 62.7675C408.209 73.8104 408.222 84.8533 408.209 95.8937C402.228 95.8988 396.243 95.8937 390.262 95.8963C390.257 75.8899 390.257 55.8809 390.262 35.8719C395.857 35.8719 401.452 35.8719 407.048 35.8719C407.05 37.9592 407.043 40.0438 407.053 42.1311C408.567 39.9142 410.403 37.8477 412.734 36.4709Z"/></svg>