<svg xmlns="http://www.w3.org/2000/svg" id="Laag_1" data-name="Laag 1" viewBox="0 0 780.19 479.03"><defs><style>.cls-1{fill:#a9952b}.cls-2{fill:#fbdb45}.cls-3{fill:#fff}.cls-4{fill:#b3b3b3}.cls-5{fill:#3e94c9}.cls-6{fill:#15516d}</style></defs><title>Gemeente Winterswijk Beeldmerk FC</title><path d="M368,627.05c-31.74-5.36-51.66-10.12-51.66-10.12V806.4A363.88,363.88,0,0,1,368,812.9Z" class="cls-1" transform="translate(-13.99 -527.72)"/><path d="M368,750.31V812.9a363.88,363.88,0,0,0-51.66-6.5v0c95.9,4.51,207.44,58.82,207.44,58.82V810.86c-24.93-16.64-62.7-34.68-119.24-47.62A158.22,158.22,0,0,1,368,750.31Z" class="cls-2" transform="translate(-13.99 -527.72)"/><path d="M368,627.05v65.84c17.26,6.16,33.51,10.67,48.2,11.75,67,4.93,87.14-11.18,86.23-31.1-1-21.75-20.64-24.22-33.3-23.78v-.21c24.58-1.79,37.16,10.85,37.16,28.4,0,16.78-13.83,26-30.63,31.2-23.32,7.24-32.08,18.07-32.08,29.22,0,20.88,21.29,24.76,40.81,35.34a281,281,0,0,1,39.39,26.23v-158C464,641.17,407.09,633.65,368,627.05Z" class="cls-2" transform="translate(-13.99 -527.72)"/><path d="M443.61,738.37c0-11.15,8.76-22,32.08-29.22,16.8-5.22,30.63-14.42,30.63-31.2,0-17.55-12.58-30.19-37.16-28.4v.21c12.66-.44,32.31,2,33.3,23.78.91,19.92-19.23,36-86.23,31.1-14.69-1.08-30.94-5.59-48.2-11.75v57.42a158.22,158.22,0,0,0,36.54,12.93c56.54,12.94,94.31,31,119.24,47.62V799.94a281,281,0,0,0-39.39-26.23C464.9,763.13,443.61,759.25,443.61,738.37Z" class="cls-3" transform="translate(-13.99 -527.72)"/><path d="M316.48,693.67c2.71,9.18,13.84,37.47,51.55,56.64V692.89c-16.42-5.86-33.76-13.22-51.53-20.55Z" class="cls-4" transform="translate(-13.99 -527.72)"/><path d="M162.63,911.11h-7.54v-6.7H180.8v6.7h-8.39l18.17,56.42c.53,1.39.74,2.66,1.17,4H192c.43-1.38.64-2.65,1.17-4l16.36-43-4.25-13.39h-8v-6.7h25.08v6.7h-8l16.9,56.42c.53,1.39.74,2.66,1.17,4h.21c.42-1.38.64-2.65,1.17-4l19.34-56.42h-9.46v-6.7h25.08v6.7h-6.91L237,978.8H226.6L213.32,935h-.21l-16.9,43.78H185.8Z" class="cls-5" transform="translate(-13.99 -527.72)"/><path d="M280.92,930.66h-10V924h18.7l-.43,48.13h8.72v6.7H271.79v-6.7h8.71Zm3.3-34.43a6.59,6.59,0,1,1-6.59,6.59A6.63,6.63,0,0,1,284.22,896.23Z" class="cls-5" transform="translate(-13.99 -527.72)"/><path d="M346.06,972.1h7c0-8.5.42-17.42.42-26.24,0-5.32-.21-15.94-12.43-15.94-7.76,0-16.26,4.67-16.26,19.55l-.21,22.63h8v6.7h-23.8v-6.7h7l.42-41.44h-8.82V924h17.54a59.8,59.8,0,0,1-.32,6.58l-.85,5.53H324c2.34-8.29,11.16-13.39,19.45-13.39,15.09,0,18.81,10.2,18.81,20.62,0,9.35-.43,20.29-.43,28.79h8.08v6.7H346.06Z" class="cls-5" transform="translate(-13.99 -527.72)"/><path d="M376,924h8.82l.42-13.39,8.72-.53L393.56,924h17.22v6.69H393.46c-.22,9.14-.43,18.38-.43,27.52,0,7.87,0,14.67,8.4,14.67a29.84,29.84,0,0,0,10.84-2.23l-.32,6.9a31.31,31.31,0,0,1-12.33,2.55c-15.3,0-15.3-10.94-15.3-18,0-6.69.32-23.48.42-31.45H376Z" class="cls-5" transform="translate(-13.99 -527.72)"/><path d="M426.72,952.13c.32,11.26,5.2,20.72,20.82,20.72A37.31,37.31,0,0,0,464,968.7l-.31,7.55c-4,2-12.54,3.82-18.07,3.82-17.32,0-28.05-9.45-28.05-28.58,0-16.15,8.71-28.8,25.39-28.8,21.68,0,23.7,19.66,23.7,29.44Zm30.81-6.7c0-8.61-5.42-16-14.56-16-9.35,0-15.72,7-16.25,16Z" class="cls-5" transform="translate(-13.99 -527.72)"/><path d="M484.1,930.66h-9.35V924h18.06v3c0,3.19-.64,9.67-1.17,14.13H492c2.13-8.07,5-18.06,18.6-18.06.74,0,5.1.42,5.52.85l-.85,7.86a19.55,19.55,0,0,0-6-.85c-11.26,0-16.26,11-16.47,20.72l-.42,20.51h9.24v6.7H475.92v-6.7h7.75Z" class="cls-5" transform="translate(-13.99 -527.72)"/><path d="M563.05,939.16h-7.86l-.43-7.76c-2-1.7-7.12-2-9.67-2-5.52,0-12.64,1.8-12.64,8.39,0,6,5.31,7.76,13.39,9.14,13.92,2.34,19.76,6.59,19.76,15.62,0,9.78-6.59,17.53-22.42,17.53-5.95,0-15.41-1.48-18.81-3.29l-.42-14h7.86l.43,8.18c3.29,1.6,8.82,2.45,12.43,2.45,5.74,0,12.64-2.45,12.64-9.14,0-5.42-5.63-7.33-11.58-8.61-14.66-3.19-22-5.74-22-16.47,0-8.82,5.85-16.47,21.58-16.47,4.56,0,13.07,1.49,17.32,3.29Z" class="cls-5" transform="translate(-13.99 -527.72)"/><path d="M572.41,924h22.53v6.69h-6.59l11.8,34.11a46.63,46.63,0,0,1,1.48,5.74h.22a35,35,0,0,1,1.7-5.74l10.09-25.93-3.08-8.18H604.5V924H627v6.69H619.7l11.58,34.11a45.13,45.13,0,0,1,1.49,5.74H633a45.13,45.13,0,0,1,1.49-5.74l12.22-34.11h-7.33V924h21.89v6.69H655L636.59,978.8h-9.13l-8.61-25.19a45.13,45.13,0,0,1-1.49-5.74h-.21a37.1,37.1,0,0,1-1.7,5.74l-10,25.19h-8.71l-18.18-48.14h-6.16Z" class="cls-5" transform="translate(-13.99 -527.72)"/><path d="M678.14,930.66h-10V924h18.71l-.43,48.13h8.71v6.7H669v-6.7h8.72Zm3.3-34.43a6.59,6.59,0,1,1-6.59,6.59A6.62,6.62,0,0,1,681.44,896.23Z" class="cls-5" transform="translate(-13.99 -527.72)"/><path d="M723.09,965.09c-.21,18.28-3.29,25.82-8.29,31.56s-11.79,8.61-19.12,10.1l-1.28-7c6.27-1.7,10.73-4.36,14.35-8.71,3.82-4.57,5.41-11.9,5.63-25.82l.42-34.54H704.71V924h18.81Zm-5-68.86a6.59,6.59,0,1,1-6.59,6.59A6.63,6.63,0,0,1,718.1,896.23Z" class="cls-5" transform="translate(-13.99 -527.72)"/><path d="M746.26,903.78H735.63v-6.7H755l-.21,51,20.93-17.22v-.21H768V924h23.8v6.69h-5.63l-22.74,18.49,24.76,23h5.95v6.7h-23.8v-6.7H777v-.21l-22.21-21.15-.22,21.36h7.23v6.7H738v-6.7h7.86Z" class="cls-5" transform="translate(-13.99 -527.72)"/><path d="M47.86,854.67H44.8c-.93,0-3.65-.27-4.58-.33a10.71,10.71,0,0,1,3.25,8.23c0,7.64-6.44,12.22-14.47,12.22-1.4,0-6.18.79-6.18,3.25,0,1.73,1.6,2.19,5.91,2.86l9.17,1.52c5.31.87,9.23,2.79,9.23,8.3,0,7.91-8.24,11.49-16.8,11.49-8.24,0-16.34-2.65-16.34-9.36,0-5.18,4.18-7.44,8.63-8.43v-.14c-2.72-.59-5.24-2.12-5.24-5.31,0-3.52,3.45-4.45,6.24-5.18v-.13C21.3,873.13,15,870.8,15,862.1c0-7.1,5.84-12.41,14.21-12.41a27.59,27.59,0,0,1,5.91.79H47.86ZM26.67,885.55c-.66,0-7.5,1.92-7.5,6.44,0,5.31,8,6,11.42,6,4.25,0,11.09-1.26,11.09-6.77,0-3.06-2.79-3.92-5.84-4.39Zm-6.5-23.38A8.62,8.62,0,0,0,29,870.6c5.84,0,9.56-3.85,9.56-8.63,0-3.32-2.52-8.1-9.1-8.1C24.08,853.87,20.17,857.12,20.17,862.17Z" class="cls-5" transform="translate(-13.99 -527.72)"/><path d="M58.15,868.08c.2,7,3.25,12.95,13,12.95a23.41,23.41,0,0,0,10.3-2.59l-.2,4.71A31.19,31.19,0,0,1,70,885.55c-10.82,0-17.53-5.91-17.53-17.87,0-10.09,5.44-18,15.87-18,13.55,0,14.81,12.28,14.81,18.39Zm19.26-4.18c0-5.38-3.39-10-9.1-10s-9.83,4.38-10.16,10Z" class="cls-5" transform="translate(-13.99 -527.72)"/><path d="M91,880.56H95.4l.27-25.89H90.16v-4.19h11a38.07,38.07,0,0,1-.19,4.12l-.54,3.45h.14c1.46-5.18,7-8.36,12.15-8.36,6.24,0,9.5,3.58,10.36,8h.13c.67-1.46,2.79-8,11.62-8,9.43,0,11.76,6.37,11.76,12.88,0,5.84-.27,12.68-.27,18h5v4.19H136.44v-4.19h4.38c.07-5.57.27-11.08.27-16.6,0-5-1.06-9.76-7.44-9.76-4.45,0-9.76,2.92-9.82,12.22l-.14,14.14h4.92v4.19H113.67v-4.19h4.38c.06-5.57.26-11.08.26-16.6,0-5-1.06-9.76-7.43-9.76-4.45,0-9.77,2.92-9.83,12.22l-.13,14.14h5v4.19H91Z" class="cls-5" transform="translate(-13.99 -527.72)"/><path d="M163.87,868.08c.2,7,3.25,12.95,13,12.95a23.4,23.4,0,0,0,10.29-2.59l-.2,4.71a31.15,31.15,0,0,1-11.29,2.4c-10.82,0-17.53-5.91-17.53-17.87,0-10.09,5.44-18,15.87-18,13.55,0,14.81,12.28,14.81,18.39Zm19.26-4.18c0-5.38-3.39-10-9.1-10s-9.83,4.38-10.16,10Z" class="cls-5" transform="translate(-13.99 -527.72)"/><path d="M202,868.08c.2,7,3.25,12.95,13,12.95a23.41,23.41,0,0,0,10.3-2.59l-.2,4.71a31.19,31.19,0,0,1-11.29,2.4c-10.83,0-17.53-5.91-17.53-17.87,0-10.09,5.44-18,15.87-18C225.7,849.69,227,862,227,868.08Zm19.26-4.18c0-5.38-3.39-10-9.1-10s-9.83,4.38-10.16,10Z" class="cls-5" transform="translate(-13.99 -527.72)"/><path d="M258.17,880.56h4.38c0-5.31.27-10.89.27-16.4,0-3.32-.14-10-7.77-10-4.85,0-10.16,2.92-10.16,12.22l-.13,14.14h5v4.19H234.86v-4.19h4.38l.27-25.89H234v-4.19H245a38.07,38.07,0,0,1-.19,4.12l-.54,3.45h.14c1.46-5.18,7-8.36,12.15-8.36,9.43,0,11.75,6.37,11.75,12.88,0,5.84-.26,12.68-.26,18h5v4.19H258.17Z" class="cls-5" transform="translate(-13.99 -527.72)"/><path d="M277.63,850.48h5.51l.26-8.36,5.45-.34-.27,8.7h10.76v4.19H288.52c-.14,5.71-.27,11.49-.27,17.2,0,4.91,0,9.16,5.25,9.16a18.69,18.69,0,0,0,6.77-1.39l-.2,4.31a19.52,19.52,0,0,1-7.7,1.6c-9.56,0-9.56-6.84-9.56-11.23,0-4.18.2-14.67.26-19.65h-5.44Z" class="cls-5" transform="translate(-13.99 -527.72)"/><path d="M310.43,868.08c.2,7,3.26,12.95,13,12.95a23.36,23.36,0,0,0,10.29-2.59l-.2,4.71a31.15,31.15,0,0,1-11.29,2.4c-10.82,0-17.53-5.91-17.53-17.87,0-10.09,5.45-18,15.87-18,13.55,0,14.81,12.28,14.81,18.39Zm19.26-4.18c0-5.38-3.39-10-9.1-10s-9.83,4.38-10.16,10Z" class="cls-5" transform="translate(-13.99 -527.72)"/><polygon points="321.81 262.81 302.38 278.68 302.38 74.92 321.81 59.05 321.81 262.81" class="cls-6"/><path d="M160.24,527.72V824.44s84.07-33.91,175.56-33.91V586.71s-38.73-7.27-90.3-24.58S160.24,527.72,160.24,527.72Z" class="cls-5" transform="translate(-13.99 -527.72)"/><path d="M229.33,630.78c9.64-5.52,26.86-19.57,26.86-19.57s-5.12-2.14-11.11-4.79c-7.51-3.31-3.24-10.81-3.24-10.81-9.22,2.88-22.74,6.4-46.35,6.87-12.3.25-24.23.26-35.25.34v11.55c11.32,2,25,4.27,38.6,6.31C224,624.45,229.33,630.78,229.33,630.78Z" class="cls-3" transform="translate(-13.99 -527.72)"/><path d="M267.89,616.29s-11,9.78-33.12,24.21c0,0,4.27,15.82-22.66,22.81-3.17.82-7.48,1.12-11.42,1.75l1.81-.71c16.8-6.82,16.38-14.73,16.38-14.73s-29.44,16.19-58.64,18.76v18.36c11.37.89,24.84,2.52,41,5.18,43,7.1,103.43-6.17,103.43-6.17l-20.75-7.4s28.93-1.85,51.86-12.94l0,.08V645.31C299.32,630.24,267.89,616.29,267.89,616.29Z" class="cls-3" transform="translate(-13.99 -527.72)"/></svg>