<svg xmlns="http://www.w3.org/2000/svg" width="26" height="26" viewBox="0 0 26 26"><metadata><?xpacket begin="﻿" id="W5M0MpCehiHzreSzNTczkc9d"?><x:xmpmeta xmlns:x="adobe:ns:meta/" x:xmptk="Adobe XMP Core 5.6-c138 79.159824, 2016/09/14-01:09:01"><rdf:RDF xmlns:rdf="http://www.w3.org/1999/02/22-rdf-syntax-ns#"><rdf:Description/></rdf:RDF></x:xmpmeta><?xpacket end="w"?></metadata><defs><style>.cls-1{fill:#3863fb;fill-rule:evenodd}</style></defs><path id="icon-btn-tocket" d="M17,13.9a1.2,1.2,0,0,0-.875,1.331A1.2,1.2,0,0,0,17,16.563a1.2,1.2,0,0,0,.875-1.331A1.2,1.2,0,0,0,17,13.9Zm-3.5-3.1a1.2,1.2,0,0,0-.875-1.331,1.2,1.2,0,0,0-.875,1.331,1.194,1.194,0,0,0,.875,1.33A1.2,1.2,0,0,0,13.5,10.8Zm10.06,0a0.44,0.44,0,0,0,.437-0.444V6.8A1.764,1.764,0,0,0,22.245,5.03H4.75A1.764,1.764,0,0,0,3,6.8v3.548a0.44,0.44,0,0,0,.437.444,2.218,2.218,0,0,1,0,4.435A0.44,0.44,0,0,0,3,15.676v3.548A1.764,1.764,0,0,0,4.75,21H22.245a1.764,1.764,0,0,0,1.749-1.775V15.676a0.44,0.44,0,0,0-.437-0.444A2.218,2.218,0,0,1,23.557,10.8ZM9.124,18.781a0.437,0.437,0,1,1-.875,0V17.894a0.437,0.437,0,1,1,.875,0v0.887h0Zm0-3.549a0.437,0.437,0,1,1-.875,0V14.346a0.437,0.437,0,1,1,.875,0v0.887h0Zm0-3.549a0.437,0.437,0,1,1-.875,0V10.8a0.437,0.437,0,1,1,.875,0v0.887h0Zm0-3.549a0.437,0.437,0,1,1-.875,0v-1a0.437,0.437,0,1,1,.875,0v1h0Zm1.75,2.662a2.028,2.028,0,0,1,1.749-2.218A2.028,2.028,0,0,1,14.372,10.8a2.028,2.028,0,0,1-1.749,2.218A2.028,2.028,0,0,1,10.873,10.8Zm1.312,6.654a0.433,0.433,0,0,1-.242-0.075,0.447,0.447,0,0,1-.121-0.615L17.07,8.776a0.433,0.433,0,0,1,.607-0.123,0.447,0.447,0,0,1,.121.615l-5.248,7.985A0.435,0.435,0,0,1,12.185,17.451Zm4.812,0a2.028,2.028,0,0,1-1.75-2.218A2.028,2.028,0,0,1,17,13.015a2.028,2.028,0,0,1,1.749,2.218A2.028,2.028,0,0,1,17,17.451Z" class="cls-1" transform="translate(-0.5 -0.016)"/></svg>