<svg xmlns="http://www.w3.org/2000/svg" xmlns:xlink="http://www.w3.org/1999/xlink" id="svg" width="400" height="134.346" version="1.1" viewBox="0 0 400 134.346"><g id="svgg"><path id="path0" fill="#c4d404" fill-rule="evenodd" stroke="none" d="M9.404 9.404 C 2.191 16.617,0.000 18.901,0.000 19.208 C 0.000 19.628,37.996 57.833,38.413 57.833 C 38.805 57.833,76.747 19.714,76.802 19.264 C 76.874 18.688,58.258 -0.000,57.613 -0.000 C 57.312 -0.000,54.965 2.252,47.817 9.399 L 38.417 18.798 29.009 9.399 C 21.845 2.241,19.507 -0.000,19.205 -0.000 C 18.902 -0.000,16.568 2.239,9.404 9.404"/><path id="path1" fill="#3cc4f4" fill-rule="evenodd" stroke="none" d="M86.237 9.404 C 78.867 16.774,76.833 18.897,76.833 19.221 C 76.833 19.663,114.802 57.833,115.242 57.833 C 115.537 57.833,153.833 19.512,153.833 19.217 C 153.833 18.770,134.891 -0.000,134.439 -0.000 C 134.129 -0.000,131.878 2.158,124.640 9.396 L 115.243 18.793 105.845 9.396 C 98.605 2.157,96.355 0.000,96.044 0.000 C 95.734 0.000,93.483 2.158,86.237 9.404"/><path id="path2" fill="#54544c" fill-rule="evenodd" stroke="none" d="M176.375 54.615 C 176.535 54.657,176.798 54.657,176.958 54.615 C 177.119 54.573,176.987 54.539,176.667 54.539 C 176.346 54.539,176.215 54.573,176.375 54.615 M215.875 54.615 C 216.035 54.657,216.298 54.657,216.458 54.615 C 216.619 54.573,216.487 54.539,216.167 54.539 C 215.846 54.539,215.715 54.573,215.875 54.615 M230.208 54.615 C 230.369 54.657,230.631 54.657,230.792 54.615 C 230.952 54.573,230.821 54.539,230.500 54.539 C 230.179 54.539,230.048 54.573,230.208 54.615 M246.294 54.618 C 246.501 54.658,246.801 54.656,246.960 54.615 C 247.120 54.573,246.950 54.540,246.583 54.542 C 246.217 54.544,246.086 54.578,246.294 54.618 M271.042 54.615 C 271.202 54.657,271.465 54.657,271.625 54.615 C 271.785 54.573,271.654 54.539,271.333 54.539 C 271.012 54.539,270.881 54.573,271.042 54.615 M392.053 87.500 C 392.053 88.096,392.084 88.340,392.121 88.042 C 392.158 87.744,392.158 87.256,392.121 86.958 C 392.084 86.660,392.053 86.904,392.053 87.500 M392.076 99.083 C 392.076 102.842,392.098 104.403,392.125 102.553 C 392.152 100.703,392.152 97.628,392.125 95.719 C 392.098 93.811,392.076 95.325,392.076 99.083"/><path id="path3" fill="#544c44" fill-rule="evenodd" stroke="none" d="M160.500 50.167 C 160.500 50.258,160.135 50.333,159.689 50.333 C 158.047 50.333,155.810 51.031,155.030 51.787 C 154.909 51.904,154.744 52.000,154.664 52.000 C 154.376 52.000,152.834 53.719,152.555 54.352 C 152.398 54.708,152.216 55.000,152.151 55.000 C 152.086 55.000,151.940 55.394,151.826 55.875 C 151.712 56.356,151.535 56.804,151.434 56.869 C 151.175 57.036,151.178 63.467,151.437 63.631 C 151.540 63.697,151.679 64.012,151.744 64.333 C 151.810 64.654,152.044 65.196,152.265 65.538 C 152.486 65.880,152.667 66.232,152.667 66.321 C 152.667 66.411,152.760 66.543,152.875 66.617 C 152.990 66.690,153.166 66.900,153.266 67.083 C 153.419 67.363,153.891 67.778,155.428 68.983 C 155.526 69.060,155.901 69.226,156.261 69.352 C 156.622 69.478,156.954 69.631,157.000 69.691 C 157.113 69.839,158.033 70.011,159.292 70.117 C 159.865 70.166,160.333 70.272,160.333 70.353 C 160.333 70.557,162.290 70.539,162.417 70.333 C 162.473 70.242,162.895 70.167,163.353 70.167 C 164.443 70.167,166.500 69.824,166.500 69.642 C 166.500 69.564,166.650 69.500,166.833 69.500 C 167.159 69.500,167.167 69.389,167.167 64.833 L 167.167 60.167 165.917 60.167 L 164.667 60.167 164.667 63.906 L 164.667 67.646 163.875 67.781 C 162.388 68.035,159.634 67.902,158.819 67.537 C 158.415 67.355,157.907 67.153,157.692 67.087 C 157.268 66.957,157.049 66.789,156.063 65.832 C 155.183 64.980,154.873 64.544,154.648 63.845 C 154.543 63.518,154.390 63.165,154.308 63.062 C 153.815 62.437,153.818 57.349,154.313 57.003 C 154.380 56.955,154.541 56.654,154.669 56.333 C 155.127 55.191,156.706 53.500,157.314 53.500 C 157.403 53.500,157.575 53.401,157.696 53.280 C 158.002 52.975,159.317 52.667,160.310 52.667 C 160.817 52.667,161.172 52.586,161.223 52.458 C 161.290 52.292,161.310 52.292,161.320 52.458 C 161.329 52.602,161.663 52.667,162.389 52.667 C 163.594 52.667,165.333 52.976,165.333 53.190 C 165.333 53.695,166.303 53.297,166.406 52.750 C 166.466 52.429,166.587 52.167,166.674 52.167 C 166.935 52.167,166.855 51.331,166.566 51.042 C 166.224 50.701,164.411 50.347,162.958 50.339 C 162.324 50.336,161.833 50.261,161.833 50.167 C 161.833 50.075,161.533 50.000,161.167 50.000 C 160.800 50.000,160.500 50.075,160.500 50.167 M255.500 53.333 L 255.500 54.833 254.417 54.833 L 253.333 54.833 253.333 55.917 L 253.333 57.000 254.417 57.000 L 255.500 57.000 255.500 62.240 C 255.500 65.554,255.561 67.518,255.667 67.583 C 255.758 67.640,255.833 67.828,255.833 68.002 C 255.833 68.512,256.183 69.132,256.520 69.220 C 256.692 69.265,256.833 69.416,256.833 69.556 C 256.833 70.116,262.232 70.420,263.375 69.924 C 263.685 69.790,263.769 69.172,263.513 68.908 C 263.428 68.821,263.334 68.525,263.304 68.250 C 263.254 67.790,263.204 67.754,262.667 67.796 C 259.911 68.011,259.012 67.931,258.583 67.432 L 258.167 66.948 258.167 61.974 L 258.167 57.000 260.417 57.000 L 262.667 57.000 262.667 55.917 L 262.667 54.833 260.333 54.833 L 258.000 54.833 258.000 53.333 L 258.000 51.833 256.750 51.833 L 255.500 51.833 255.500 53.333 M175.333 54.500 C 175.333 54.592,175.090 54.670,174.792 54.674 C 174.158 54.683,173.165 55.012,172.760 55.348 C 171.916 56.048,171.185 56.845,171.078 57.184 C 171.011 57.395,170.858 57.666,170.738 57.786 C 170.618 57.906,170.467 58.359,170.403 58.794 C 170.339 59.228,170.204 59.637,170.102 59.702 C 169.846 59.867,169.845 65.466,170.101 65.631 C 170.202 65.696,170.337 66.029,170.399 66.370 C 170.462 66.710,170.609 67.085,170.725 67.203 C 170.842 67.321,171.045 67.661,171.177 67.960 C 171.405 68.479,172.605 69.500,172.986 69.500 C 173.085 69.500,173.167 69.566,173.167 69.646 C 173.167 69.818,173.891 69.988,175.167 70.117 C 175.671 70.168,176.108 70.275,176.139 70.355 C 176.217 70.558,178.000 70.537,178.000 70.333 C 178.000 70.242,178.469 70.159,179.042 70.151 C 179.615 70.142,180.496 70.048,181.000 69.942 L 181.917 69.750 181.872 68.777 C 181.847 68.216,181.728 67.704,181.592 67.569 C 181.332 67.309,181.000 67.255,181.000 67.473 C 181.000 67.640,178.592 68.009,177.417 68.022 C 176.323 68.034,175.064 67.735,174.491 67.327 C 174.239 67.147,173.966 67.000,173.884 67.000 C 173.470 67.000,172.510 64.311,172.501 63.125 C 172.500 63.056,174.675 63.000,177.333 63.000 L 182.167 63.000 182.167 61.389 C 182.167 59.706,181.893 57.667,181.668 57.667 C 181.596 57.667,181.487 57.400,181.426 57.075 C 181.365 56.749,181.201 56.439,181.061 56.385 C 180.922 56.332,180.740 56.111,180.658 55.894 C 180.576 55.677,180.394 55.500,180.254 55.500 C 180.114 55.500,180.000 55.426,180.000 55.336 C 180.000 55.122,178.908 54.667,178.396 54.667 C 178.178 54.667,178.000 54.592,178.000 54.500 C 178.000 54.403,177.444 54.333,176.667 54.333 C 175.889 54.333,175.333 54.403,175.333 54.500 M191.333 54.467 C 191.333 54.540,190.886 54.692,190.340 54.805 C 189.794 54.918,189.237 55.120,189.102 55.255 C 188.967 55.390,188.807 55.500,188.746 55.500 C 188.685 55.500,188.417 55.655,188.151 55.845 L 187.667 56.189 187.667 55.511 L 187.667 54.833 186.333 54.833 L 185.000 54.833 185.000 62.417 L 185.000 70.000 186.333 70.000 L 187.667 70.000 187.667 64.261 C 187.667 58.669,187.675 58.520,188.000 58.417 C 188.183 58.358,188.333 58.248,188.333 58.172 C 188.333 58.095,188.558 57.954,188.833 57.858 C 189.108 57.762,189.333 57.613,189.333 57.525 C 189.333 57.438,189.709 57.277,190.167 57.167 C 190.626 57.057,191.043 56.899,191.094 56.817 C 191.221 56.611,192.667 56.626,192.667 56.833 C 192.667 56.925,192.803 57.000,192.970 57.000 C 193.599 57.000,194.333 58.219,194.333 59.261 C 194.333 59.576,194.408 59.833,194.500 59.833 C 194.607 59.833,194.667 61.639,194.667 64.917 L 194.667 70.000 195.833 70.000 L 197.000 70.000 197.005 64.292 C 197.011 58.151,196.990 58.296,197.917 57.833 C 198.192 57.696,198.509 57.496,198.622 57.390 C 198.734 57.284,199.128 57.146,199.497 57.084 C 199.865 57.022,200.167 56.902,200.167 56.819 C 200.167 56.735,200.579 56.667,201.083 56.667 C 201.588 56.667,202.000 56.742,202.000 56.833 C 202.000 56.925,202.131 57.000,202.292 57.000 C 202.891 57.000,203.793 58.320,203.688 59.042 C 203.665 59.202,203.725 59.333,203.823 59.333 C 203.944 59.333,204.000 61.012,204.000 64.667 L 204.000 70.000 205.264 70.000 L 206.528 70.000 206.472 63.660 C 206.434 59.304,206.360 57.284,206.234 57.202 C 206.134 57.137,206.002 56.882,205.942 56.637 C 205.708 55.678,204.312 54.667,203.225 54.667 C 203.010 54.667,202.833 54.592,202.833 54.500 C 202.833 54.406,202.361 54.333,201.750 54.333 C 201.154 54.333,200.667 54.399,200.667 54.478 C 200.667 54.558,200.337 54.660,199.934 54.706 C 199.189 54.790,197.000 55.751,197.000 55.994 C 197.000 56.386,196.339 56.256,196.000 55.798 C 195.609 55.269,194.493 54.676,193.875 54.670 C 193.669 54.668,193.500 54.592,193.500 54.500 C 193.500 54.406,193.028 54.333,192.417 54.333 C 191.821 54.333,191.333 54.393,191.333 54.467 M214.833 54.477 C 214.833 54.556,214.462 54.664,214.009 54.718 C 212.818 54.859,210.667 56.316,210.667 56.982 C 210.667 57.070,210.556 57.254,210.420 57.389 C 210.285 57.525,210.080 57.999,209.965 58.443 C 209.850 58.887,209.679 59.303,209.586 59.369 C 209.336 59.544,209.359 65.643,209.610 65.798 C 209.716 65.864,209.856 66.199,209.920 66.543 C 209.985 66.888,210.179 67.349,210.352 67.569 C 210.525 67.789,210.667 68.034,210.667 68.114 C 210.667 68.314,211.507 69.031,212.096 69.333 C 212.364 69.470,212.621 69.624,212.667 69.675 C 212.850 69.876,214.166 70.167,214.894 70.167 C 215.319 70.167,215.667 70.242,215.667 70.333 C 215.667 70.425,216.079 70.500,216.583 70.500 C 217.088 70.500,217.500 70.436,217.500 70.358 C 217.500 70.280,218.119 70.171,218.875 70.116 C 220.964 69.963,221.289 69.867,221.416 69.361 C 221.476 69.121,221.458 68.903,221.375 68.875 C 221.293 68.848,221.258 68.602,221.298 68.329 C 221.342 68.032,221.297 67.833,221.186 67.833 C 221.084 67.833,221.000 67.721,221.000 67.583 C 221.000 67.308,220.657 67.249,220.408 67.481 C 219.755 68.091,214.167 68.105,214.167 67.497 C 214.167 67.429,213.951 67.284,213.686 67.175 C 213.414 67.062,213.071 66.710,212.895 66.363 C 212.723 66.026,212.537 65.712,212.479 65.667 C 212.422 65.621,212.301 65.246,212.209 64.833 C 212.118 64.421,212.025 64.008,212.002 63.917 C 211.979 63.825,211.969 63.581,211.980 63.375 L 212.000 63.000 216.833 63.000 L 221.667 63.000 221.667 61.590 C 221.667 60.084,221.367 57.667,221.180 57.667 C 221.118 57.667,220.970 57.398,220.851 57.070 C 220.439 55.930,218.893 54.667,217.909 54.667 C 217.684 54.667,217.500 54.592,217.500 54.500 C 217.500 54.403,216.944 54.333,216.167 54.333 C 215.433 54.333,214.833 54.398,214.833 54.477 M229.167 54.500 C 229.167 54.592,228.943 54.667,228.670 54.667 C 228.163 54.667,226.927 55.095,226.528 55.409 C 225.884 55.916,225.169 56.724,224.973 57.167 C 224.852 57.442,224.706 57.667,224.649 57.667 C 224.592 57.667,224.448 58.135,224.328 58.708 C 224.208 59.281,224.032 59.802,223.936 59.865 C 223.693 60.026,223.700 65.314,223.944 65.468 C 224.044 65.531,224.179 65.904,224.245 66.295 C 224.310 66.686,224.455 67.099,224.567 67.212 C 224.679 67.324,224.878 67.660,225.009 67.958 C 225.141 68.256,225.286 68.500,225.332 68.500 C 225.379 68.500,225.635 68.688,225.901 68.917 C 226.167 69.146,226.443 69.333,226.514 69.333 C 226.585 69.333,226.756 69.447,226.895 69.586 C 227.166 69.857,228.524 70.167,229.439 70.167 C 229.748 70.167,230.000 70.242,230.000 70.333 C 230.000 70.426,230.441 70.500,230.990 70.500 C 231.535 70.500,232.027 70.425,232.083 70.333 C 232.140 70.242,232.486 70.167,232.853 70.167 C 234.419 70.167,235.833 69.810,235.833 69.416 C 235.833 68.010,235.384 66.914,235.025 67.445 C 234.602 68.070,228.906 68.134,228.700 67.516 C 228.666 67.415,228.551 67.333,228.443 67.333 C 227.837 67.333,226.726 65.735,226.583 64.659 C 226.529 64.251,226.452 63.710,226.413 63.458 L 226.342 63.000 231.192 63.000 L 236.043 63.000 235.966 60.708 C 235.902 58.818,235.826 58.279,235.528 57.634 C 235.329 57.204,235.167 56.770,235.167 56.671 C 235.167 56.571,235.054 56.446,234.917 56.394 C 234.779 56.341,234.667 56.202,234.667 56.085 C 234.667 55.639,233.006 54.667,232.242 54.667 C 232.017 54.667,231.833 54.592,231.833 54.500 C 231.833 54.403,231.278 54.333,230.500 54.333 C 229.722 54.333,229.167 54.403,229.167 54.500 M245.167 54.467 C 245.167 54.540,244.720 54.692,244.173 54.805 C 243.627 54.918,243.139 55.077,243.088 55.158 C 243.038 55.240,242.660 55.495,242.248 55.725 L 241.500 56.143 241.500 55.488 L 241.500 54.833 240.167 54.833 L 238.833 54.833 238.833 62.417 L 238.833 70.000 240.167 70.000 L 241.500 70.000 241.500 64.261 C 241.500 58.669,241.509 58.520,241.833 58.417 C 242.017 58.358,242.167 58.247,242.167 58.168 C 242.167 58.090,242.429 57.939,242.750 57.833 C 243.071 57.727,243.333 57.579,243.333 57.502 C 243.333 57.426,243.708 57.268,244.167 57.151 C 244.625 57.033,245.000 56.876,245.000 56.802 C 245.000 56.727,245.412 56.667,245.917 56.667 C 246.421 56.667,246.833 56.726,246.833 56.799 C 246.833 56.872,247.068 57.003,247.354 57.091 C 247.711 57.200,248.012 57.485,248.312 58.000 L 248.750 58.750 248.803 64.375 L 248.857 70.000 250.012 70.000 L 251.167 70.000 251.167 64.008 C 251.167 58.281,251.036 56.333,250.653 56.333 C 250.569 56.333,250.500 56.235,250.500 56.115 C 250.500 55.531,249.100 54.667,248.156 54.667 C 247.887 54.667,247.667 54.592,247.667 54.500 C 247.667 54.404,247.139 54.333,246.417 54.333 C 245.729 54.333,245.167 54.393,245.167 54.467 M269.917 54.500 C 269.860 54.592,269.671 54.667,269.496 54.667 C 269.076 54.667,267.684 55.144,267.388 55.389 C 266.668 55.987,266.000 56.638,266.000 56.743 C 266.000 56.810,265.858 57.044,265.685 57.264 C 265.513 57.484,265.318 57.945,265.254 58.290 C 265.189 58.634,265.067 58.958,264.983 59.010 C 264.486 59.318,264.491 65.725,264.989 66.223 C 265.087 66.320,265.167 66.522,265.167 66.671 C 265.167 66.956,266.143 68.541,266.381 68.642 C 266.457 68.674,266.646 68.834,266.801 68.996 C 266.956 69.159,267.271 69.349,267.500 69.418 C 267.729 69.488,267.962 69.615,268.017 69.701 C 268.155 69.915,269.265 70.158,270.125 70.163 C 270.515 70.165,270.833 70.242,270.833 70.333 C 270.833 70.535,272.611 70.559,272.734 70.359 C 272.782 70.281,273.491 70.170,274.308 70.112 C 276.347 69.967,276.667 69.828,276.667 69.087 C 276.667 68.764,276.592 68.500,276.500 68.500 C 276.408 68.500,276.333 68.237,276.333 67.917 C 276.333 67.509,276.258 67.333,276.083 67.333 C 275.946 67.333,275.833 67.398,275.833 67.477 C 275.833 67.556,275.477 67.668,275.042 67.727 C 273.275 67.964,272.911 68.045,272.794 68.227 C 272.709 68.359,272.671 68.361,272.669 68.233 C 272.668 68.123,272.123 68.007,271.315 67.945 C 268.915 67.760,267.577 66.479,267.384 64.180 L 267.285 63.000 272.142 63.000 L 277.000 63.000 276.994 62.375 C 276.983 61.158,276.676 58.295,276.535 58.107 C 276.457 58.002,276.294 57.602,276.173 57.217 C 276.052 56.832,275.851 56.478,275.726 56.431 C 275.602 56.383,275.500 56.238,275.500 56.108 C 275.500 55.727,274.400 55.000,273.501 54.786 C 273.042 54.677,272.667 54.531,272.667 54.461 C 272.667 54.270,270.036 54.307,269.917 54.500 M176.958 54.615 C 176.798 54.657,176.535 54.657,176.375 54.615 C 176.215 54.573,176.346 54.539,176.667 54.539 C 176.987 54.539,177.119 54.573,176.958 54.615 M216.458 54.615 C 216.298 54.657,216.035 54.657,215.875 54.615 C 215.715 54.573,215.846 54.539,216.167 54.539 C 216.487 54.539,216.619 54.573,216.458 54.615 M230.792 54.615 C 230.631 54.657,230.369 54.657,230.208 54.615 C 230.048 54.573,230.179 54.539,230.500 54.539 C 230.821 54.539,230.952 54.573,230.792 54.615 M246.960 54.615 C 246.801 54.656,246.501 54.658,246.294 54.618 C 246.086 54.578,246.217 54.544,246.583 54.542 C 246.950 54.540,247.120 54.573,246.960 54.615 M271.625 54.615 C 271.465 54.657,271.202 54.657,271.042 54.615 C 270.881 54.573,271.012 54.539,271.333 54.539 C 271.654 54.539,271.785 54.573,271.625 54.615 M178.265 57.256 C 178.915 57.897,179.061 58.163,179.221 59.006 C 179.325 59.553,179.467 60.000,179.538 60.000 C 179.609 60.000,179.667 60.188,179.667 60.417 L 179.667 60.833 176.144 60.833 L 172.621 60.833 172.723 60.125 C 172.894 58.936,174.065 57.000,174.613 57.000 C 174.734 57.000,174.833 56.930,174.833 56.846 C 174.833 56.109,177.415 56.418,178.265 57.256 M217.539 57.064 C 218.432 57.990,218.511 58.131,218.695 59.128 C 218.791 59.653,218.937 60.214,219.019 60.373 C 219.100 60.532,219.167 60.701,219.167 60.748 C 219.167 60.795,217.566 60.833,215.610 60.833 L 212.053 60.833 212.172 60.125 C 212.373 58.929,213.571 57.000,214.113 57.000 C 214.234 57.000,214.333 56.930,214.333 56.846 C 214.333 56.227,216.899 56.402,217.539 57.064 M232.063 57.208 C 232.567 57.694,232.862 58.153,232.998 58.667 C 233.108 59.079,233.266 59.547,233.349 59.706 C 233.432 59.865,233.500 60.184,233.500 60.414 L 233.500 60.833 230.000 60.833 C 226.943 60.833,226.500 60.800,226.500 60.574 C 226.500 60.176,226.873 58.761,227.002 58.667 C 227.065 58.621,227.209 58.409,227.321 58.195 C 227.611 57.646,228.043 57.167,228.250 57.167 C 228.347 57.167,228.554 57.017,228.711 56.833 C 229.301 56.145,231.177 56.355,232.063 57.208 M272.522 56.879 C 272.611 57.037,272.792 57.167,272.925 57.167 C 273.058 57.167,273.167 57.275,273.167 57.408 C 273.167 57.541,273.262 57.710,273.379 57.783 C 273.648 57.953,274.000 58.747,274.000 59.184 C 274.000 59.369,274.056 59.485,274.125 59.442 C 274.194 59.400,274.224 59.693,274.192 60.093 L 274.134 60.821 270.676 60.869 L 267.218 60.917 267.464 59.842 C 267.599 59.251,267.812 58.664,267.938 58.538 C 268.064 58.413,268.167 58.242,268.167 58.161 C 268.167 57.998,268.887 57.263,269.519 56.779 C 270.063 56.363,272.275 56.436,272.522 56.879 M74.792 59.197 C 73.806 60.199,73.000 61.090,73.000 61.176 C 73.000 61.263,72.933 61.333,72.852 61.333 C 72.645 61.333,70.909 63.061,70.782 63.394 C 70.724 63.544,70.603 63.667,70.513 63.667 C 70.300 63.667,68.745 65.221,68.613 65.567 C 68.556 65.714,68.435 65.833,68.342 65.833 C 68.136 65.833,66.333 67.645,66.333 67.852 C 66.333 67.933,66.261 68.000,66.172 68.000 C 66.084 68.000,65.484 68.528,64.839 69.172 C 64.194 69.817,63.667 70.417,63.667 70.506 C 63.667 70.594,63.600 70.667,63.518 70.667 C 63.312 70.667,61.576 72.395,61.448 72.727 C 61.391 72.877,61.270 73.000,61.180 73.000 C 60.967 73.000,59.412 74.555,59.279 74.901 C 59.223 75.047,59.101 75.167,59.009 75.167 C 58.803 75.167,57.000 76.978,57.000 77.185 C 57.000 77.267,56.928 77.333,56.841 77.333 C 56.637 77.333,52.167 81.810,52.167 82.014 C 52.167 82.098,52.100 82.167,52.018 82.167 C 51.812 82.167,50.076 83.895,49.948 84.227 C 49.891 84.377,49.768 84.500,49.675 84.500 C 49.469 84.500,47.667 86.311,47.667 86.518 C 47.667 86.600,47.598 86.667,47.514 86.667 C 47.310 86.667,42.833 91.137,42.833 91.341 C 42.833 91.428,42.767 91.500,42.685 91.500 C 42.478 91.500,40.743 93.228,40.615 93.561 C 40.558 93.711,40.434 93.833,40.339 93.833 C 40.129 93.833,38.167 95.826,38.167 96.040 C 38.167 96.527,76.329 134.333,76.821 134.333 C 77.347 134.333,79.500 132.483,79.500 132.031 C 79.500 131.922,79.561 131.852,79.636 131.875 C 79.815 131.929,85.929 125.815,85.875 125.636 C 85.852 125.561,85.917 125.500,86.020 125.500 C 86.264 125.500,88.833 122.931,88.833 122.687 C 88.833 122.584,88.892 122.519,88.963 122.542 C 89.146 122.600,91.000 120.767,91.000 120.529 C 91.000 120.421,91.062 120.352,91.138 120.375 C 91.319 120.429,95.263 116.486,95.208 116.305 C 95.185 116.229,95.266 116.167,95.387 116.167 C 95.598 116.167,96.333 115.438,96.333 115.228 C 96.333 115.172,92.058 110.851,86.833 105.626 C 81.608 100.401,77.333 96.085,77.333 96.036 C 77.333 95.986,81.608 91.676,86.833 86.458 C 92.058 81.240,96.333 76.908,96.333 76.831 C 96.333 76.602,76.981 57.332,76.774 57.354 C 76.669 57.366,75.777 58.195,74.792 59.197 M357.708 78.238 C 356.769 79.193,356.000 80.023,356.000 80.084 C 356.000 80.340,359.484 83.667,359.751 83.667 C 360.068 83.667,362.443 81.384,362.375 81.145 C 362.352 81.065,362.432 81.000,362.553 81.000 C 362.753 81.000,363.500 80.277,363.500 80.083 C 363.500 79.890,362.753 79.167,362.553 79.167 C 362.432 79.167,362.352 79.104,362.375 79.026 C 362.433 78.830,360.630 77.005,360.375 77.002 C 360.260 77.001,360.185 76.906,360.208 76.792 C 360.369 75.988,359.335 76.586,357.708 78.238 M252.333 92.333 L 252.333 106.167 255.000 106.167 L 257.667 106.167 257.667 101.833 C 257.667 99.056,257.726 97.500,257.833 97.500 C 257.925 97.500,258.000 97.594,258.000 97.708 C 258.000 97.823,258.174 98.118,258.386 98.365 C 258.598 98.612,258.917 99.019,259.094 99.270 C 259.272 99.521,259.585 99.904,259.792 100.121 C 259.998 100.338,260.167 100.586,260.167 100.673 C 260.167 100.760,260.317 100.924,260.500 101.039 C 260.683 101.153,260.834 101.323,260.836 101.415 C 260.838 101.608,261.407 102.369,261.958 102.916 C 262.165 103.121,262.333 103.342,262.333 103.407 C 262.333 103.598,263.290 104.500,263.492 104.500 C 263.594 104.500,263.720 104.613,263.773 104.751 C 263.826 104.889,264.143 105.130,264.476 105.286 C 264.810 105.443,265.178 105.663,265.294 105.775 C 265.409 105.888,265.859 106.033,266.294 106.097 C 266.728 106.161,267.121 106.266,267.167 106.331 C 267.212 106.396,267.784 106.498,268.438 106.557 L 269.625 106.665 269.729 106.145 C 269.787 105.859,269.833 105.416,269.833 105.160 C 269.833 104.904,269.908 104.669,269.999 104.639 C 270.090 104.608,270.183 104.102,270.207 103.514 L 270.250 102.445 269.667 102.290 C 269.346 102.205,269.046 102.086,269.000 102.026 C 268.954 101.966,268.618 101.767,268.254 101.583 C 267.890 101.400,267.477 101.156,267.337 101.040 C 266.736 100.543,265.872 99.680,265.287 98.991 C 264.940 98.584,264.466 98.025,264.233 97.750 C 264.000 97.475,263.609 96.987,263.363 96.667 C 263.118 96.346,262.786 95.985,262.625 95.866 C 262.209 95.555,262.262 95.262,262.833 94.723 C 263.108 94.463,263.333 94.197,263.333 94.131 C 263.333 94.065,263.587 93.757,263.898 93.447 C 264.208 93.136,264.513 92.721,264.576 92.525 C 264.638 92.328,264.780 92.167,264.892 92.167 C 265.004 92.167,265.222 91.960,265.377 91.708 C 265.532 91.456,265.920 90.950,266.241 90.583 C 267.183 89.504,268.063 88.503,268.364 88.168 C 268.518 87.996,268.779 87.644,268.943 87.386 C 269.108 87.128,269.338 86.857,269.454 86.783 C 269.571 86.710,269.667 86.504,269.667 86.325 C 269.667 85.813,264.079 85.821,263.917 86.333 C 263.858 86.517,263.703 86.667,263.572 86.667 C 263.441 86.667,263.333 86.739,263.333 86.828 C 263.333 86.916,263.108 87.245,262.833 87.558 C 262.558 87.871,262.333 88.184,262.333 88.253 C 262.333 88.322,262.165 88.549,261.958 88.757 C 261.519 89.200,261.382 89.365,260.326 90.726 C 259.888 91.289,259.373 91.908,259.182 92.101 C 258.990 92.294,258.833 92.535,258.833 92.637 C 258.833 92.738,258.688 92.899,258.511 92.994 C 258.334 93.089,258.142 93.316,258.083 93.500 C 257.742 94.576,257.667 93.254,257.667 86.167 L 257.667 78.500 255.000 78.500 L 252.333 78.500 252.333 92.333 M126.167 80.819 C 126.167 81.178,126.234 81.497,126.317 81.528 C 126.400 81.558,126.565 82.183,126.685 82.917 C 126.804 83.650,126.950 84.287,127.008 84.333 C 127.067 84.379,127.249 85.129,127.414 86.000 C 127.578 86.871,127.766 87.658,127.830 87.750 C 127.894 87.842,128.043 88.479,128.159 89.167 C 128.276 89.854,128.430 90.492,128.500 90.583 C 128.570 90.675,128.724 91.294,128.841 91.958 C 128.958 92.623,129.116 93.167,129.193 93.167 C 129.270 93.167,129.333 93.335,129.333 93.542 C 129.333 94.097,129.870 96.737,130.003 96.833 C 130.066 96.879,130.213 97.535,130.329 98.292 C 130.446 99.048,130.593 99.667,130.657 99.667 C 130.721 99.667,130.871 100.267,130.990 101.000 C 131.109 101.733,131.260 102.333,131.326 102.333 C 131.392 102.333,131.577 103.139,131.737 104.124 C 132.096 106.327,131.772 106.161,135.720 106.164 C 139.482 106.167,139.356 106.211,139.688 104.785 C 139.807 104.271,139.942 103.886,139.987 103.931 C 140.083 104.027,140.640 102.384,140.656 101.958 C 140.662 101.798,140.735 101.667,140.818 101.667 C 140.901 101.667,141.065 101.292,141.183 100.833 C 141.300 100.375,141.450 100.000,141.515 100.000 C 141.580 100.000,141.727 99.608,141.842 99.129 C 141.957 98.650,142.145 98.164,142.260 98.049 C 142.375 97.934,142.521 97.538,142.583 97.170 C 142.645 96.801,142.759 96.500,142.836 96.500 C 142.913 96.500,143.070 96.079,143.185 95.565 C 143.301 95.050,143.476 94.544,143.576 94.440 C 143.676 94.335,143.877 93.875,144.023 93.417 C 144.181 92.921,144.325 92.685,144.378 92.833 C 144.428 92.971,144.524 93.233,144.593 93.417 C 144.662 93.600,144.749 93.936,144.786 94.164 C 144.824 94.391,144.914 94.616,144.987 94.664 C 145.059 94.711,145.215 95.162,145.333 95.667 C 145.452 96.171,145.598 96.621,145.659 96.667 C 145.721 96.712,145.905 97.256,146.070 97.875 C 146.235 98.494,146.427 99.000,146.496 99.000 C 146.565 99.000,146.717 99.450,146.833 100.000 C 146.950 100.550,147.100 101.000,147.167 101.000 C 147.233 101.000,147.383 101.450,147.500 102.000 C 147.617 102.550,147.769 103.000,147.838 103.000 C 147.906 103.000,148.016 103.281,148.080 103.624 C 148.144 103.967,148.244 104.323,148.303 104.415 C 148.361 104.508,148.433 104.771,148.464 105.000 C 148.495 105.229,148.591 105.442,148.677 105.472 C 148.763 105.503,148.833 105.672,148.833 105.847 C 148.833 106.152,148.992 106.167,152.208 106.164 C 155.930 106.161,155.920 106.163,156.064 105.333 C 156.303 103.957,156.378 103.667,156.495 103.667 C 156.563 103.667,156.751 103.048,156.914 102.292 C 157.076 101.535,157.261 100.879,157.323 100.833 C 157.386 100.787,157.535 100.300,157.654 99.750 C 157.773 99.200,157.927 98.675,157.997 98.583 C 158.066 98.492,158.218 98.004,158.333 97.500 C 158.449 96.996,158.590 96.508,158.646 96.417 C 158.792 96.177,159.151 94.804,159.159 94.449 C 159.163 94.284,159.307 93.834,159.480 93.449 C 159.652 93.065,159.844 92.394,159.906 91.958 C 159.969 91.523,160.076 91.167,160.144 91.167 C 160.211 91.167,160.363 90.698,160.482 90.126 C 160.600 89.553,160.757 89.047,160.830 89.001 C 160.903 88.954,161.009 88.654,161.064 88.333 C 161.302 86.960,161.378 86.667,161.492 86.667 C 161.614 86.667,161.981 85.226,162.068 84.406 C 162.094 84.165,162.187 83.919,162.276 83.859 C 162.365 83.799,162.535 83.300,162.655 82.750 C 162.775 82.200,162.930 81.712,163.000 81.667 C 163.069 81.621,163.179 81.265,163.244 80.875 L 163.363 80.167 160.805 80.167 L 158.248 80.167 158.045 80.625 C 157.934 80.877,157.720 81.683,157.570 82.417 C 157.420 83.150,157.240 83.825,157.170 83.917 C 157.101 84.008,156.951 84.590,156.836 85.208 C 156.722 85.827,156.574 86.333,156.508 86.333 C 156.441 86.333,156.292 86.862,156.177 87.507 C 156.062 88.153,155.868 88.884,155.748 89.132 C 155.627 89.380,155.437 90.165,155.325 90.875 C 155.213 91.585,155.063 92.167,154.992 92.167 C 154.922 92.167,154.770 92.692,154.655 93.333 C 154.540 93.975,154.392 94.500,154.326 94.500 C 154.259 94.500,154.111 95.006,153.997 95.625 C 153.883 96.244,153.734 96.825,153.666 96.917 C 153.599 97.008,153.445 97.590,153.324 98.208 C 153.204 98.827,153.056 99.333,152.996 99.333 C 152.936 99.333,152.789 99.853,152.669 100.488 C 152.457 101.609,152.000 101.870,152.000 100.870 C 152.000 100.507,151.746 99.669,151.400 98.891 C 151.272 98.603,151.167 98.251,151.167 98.110 C 151.167 97.968,151.095 97.809,151.007 97.754 C 150.920 97.700,150.890 97.546,150.942 97.411 C 150.993 97.277,150.963 97.167,150.874 97.167 C 150.785 97.167,150.617 96.717,150.500 96.167 C 150.383 95.617,150.235 95.167,150.170 95.167 C 150.105 95.167,149.918 94.529,149.755 93.750 C 149.591 92.971,149.402 92.333,149.335 92.333 C 149.267 92.333,149.117 91.883,149.000 91.333 C 148.883 90.783,148.735 90.333,148.671 90.333 C 148.606 90.333,148.454 89.921,148.333 89.417 C 148.212 88.912,148.062 88.500,147.999 88.500 C 147.937 88.500,147.752 87.862,147.588 87.083 C 147.425 86.304,147.236 85.667,147.168 85.667 C 147.101 85.667,146.950 85.217,146.833 84.667 C 146.717 84.117,146.567 83.667,146.500 83.667 C 146.433 83.667,146.283 83.217,146.167 82.667 C 146.050 82.117,145.894 81.667,145.821 81.667 C 145.747 81.667,145.636 81.329,145.575 80.917 L 145.462 80.167 142.814 80.167 C 140.529 80.167,140.167 80.202,140.167 80.426 C 140.167 80.819,140.539 82.239,140.666 82.333 C 140.728 82.379,140.906 82.929,141.061 83.556 C 141.217 84.182,141.471 84.888,141.625 85.124 C 142.037 85.752,142.005 87.248,141.563 88.090 C 141.368 88.460,141.152 89.023,141.082 89.340 C 141.012 89.657,140.816 90.178,140.645 90.497 C 140.474 90.816,140.288 91.322,140.232 91.622 C 140.176 91.922,140.070 92.167,139.997 92.167 C 139.924 92.167,139.768 92.542,139.651 93.000 C 139.533 93.458,139.388 93.833,139.329 93.833 C 139.269 93.833,139.081 94.321,138.910 94.917 C 138.740 95.513,138.546 96.000,138.480 96.000 C 138.414 96.000,138.309 96.244,138.247 96.542 C 138.185 96.840,138.032 97.245,137.907 97.443 C 137.782 97.641,137.593 98.147,137.487 98.568 C 137.380 98.989,137.243 99.333,137.180 99.333 C 137.117 99.333,136.928 99.817,136.759 100.408 C 136.358 101.809,136.071 101.924,135.923 100.741 C 135.861 100.244,135.751 99.802,135.679 99.758 C 135.607 99.713,135.448 98.999,135.325 98.172 C 135.202 97.344,135.052 96.667,134.992 96.667 C 134.931 96.667,134.785 95.992,134.667 95.167 C 134.548 94.342,134.399 93.667,134.335 93.667 C 134.271 93.667,134.085 92.823,133.921 91.792 C 133.758 90.760,133.570 89.842,133.504 89.750 C 133.437 89.658,133.285 88.983,133.167 88.250 C 133.048 87.517,132.894 86.842,132.824 86.750 C 132.753 86.658,132.601 85.965,132.486 85.208 C 132.370 84.452,132.224 83.833,132.161 83.833 C 132.099 83.833,131.955 83.158,131.842 82.333 C 131.730 81.508,131.569 80.833,131.485 80.833 C 131.402 80.833,131.333 80.683,131.333 80.500 C 131.333 80.181,131.222 80.167,128.750 80.167 L 126.167 80.167 126.167 80.819 M202.667 84.000 L 202.667 86.000 201.250 86.000 L 199.833 86.000 199.833 88.083 L 199.833 90.167 201.250 90.167 L 202.667 90.167 202.670 95.625 C 202.673 101.409,202.787 102.855,203.322 103.897 C 203.825 104.879,205.011 105.934,205.771 106.076 C 206.126 106.143,206.467 106.280,206.530 106.382 C 206.691 106.642,212.967 106.655,213.131 106.395 C 213.196 106.292,213.653 106.152,214.145 106.085 L 215.040 105.963 214.922 104.440 C 214.858 103.602,214.736 102.892,214.652 102.861 C 214.569 102.831,214.500 102.541,214.500 102.218 L 214.500 101.631 212.958 101.751 C 212.110 101.817,211.392 101.938,211.361 102.019 C 211.288 102.212,209.333 102.212,209.333 102.019 C 209.333 101.937,209.074 101.822,208.756 101.762 C 207.897 101.601,207.835 101.167,207.834 95.292 L 207.833 90.167 211.005 90.167 L 214.177 90.167 214.130 88.125 L 214.083 86.083 210.958 86.038 L 207.833 85.993 207.833 83.996 L 207.833 82.000 205.250 82.000 L 202.667 82.000 202.667 84.000 M342.667 84.000 L 342.667 86.000 341.250 86.000 L 339.833 86.000 339.833 88.083 L 339.833 90.167 341.250 90.167 L 342.667 90.167 342.667 95.992 C 342.667 101.460,342.795 103.421,343.169 103.667 C 343.239 103.712,343.411 104.025,343.551 104.362 C 343.691 104.699,344.018 105.110,344.278 105.277 C 344.537 105.443,344.846 105.671,344.964 105.783 C 345.081 105.895,345.456 106.038,345.797 106.101 C 346.138 106.163,346.467 106.293,346.530 106.389 C 346.693 106.642,352.806 106.646,352.964 106.393 C 353.072 106.221,353.969 106.022,354.708 106.006 C 355.019 106.000,355.161 104.667,354.851 104.667 C 354.769 104.667,354.648 103.984,354.582 103.150 L 354.462 101.634 352.939 101.753 C 352.102 101.818,351.392 101.938,351.361 102.019 C 351.284 102.224,349.333 102.206,349.333 102.000 C 349.333 101.908,349.160 101.833,348.949 101.833 C 347.908 101.833,347.921 101.908,347.869 95.764 L 347.821 90.167 350.827 90.167 L 353.833 90.167 353.833 88.083 L 353.833 86.000 350.833 86.000 L 347.833 86.000 347.833 84.000 L 347.833 82.000 345.250 82.000 L 342.667 82.000 342.667 84.000 M190.750 85.500 C 190.693 85.592,190.364 85.667,190.018 85.667 C 189.194 85.667,187.500 86.010,187.500 86.176 C 187.500 86.248,187.287 86.354,187.027 86.411 C 185.952 86.647,184.268 88.375,184.066 89.449 C 184.009 89.752,183.896 90.000,183.815 90.000 C 183.624 90.000,183.620 93.285,183.810 93.403 C 183.890 93.451,184.049 93.831,184.165 94.246 C 184.283 94.664,184.477 95.000,184.602 95.000 C 184.726 95.000,184.874 95.188,184.932 95.417 C 184.989 95.646,185.127 95.833,185.238 95.833 C 185.349 95.833,185.601 96.019,185.798 96.246 C 185.995 96.472,186.347 96.705,186.578 96.764 C 186.810 96.822,187.000 96.924,187.000 96.991 C 187.000 97.058,187.300 97.212,187.667 97.333 C 188.033 97.454,188.333 97.608,188.333 97.675 C 188.333 97.742,188.615 97.849,188.958 97.913 C 189.302 97.978,189.883 98.166,190.250 98.332 C 190.617 98.498,191.239 98.720,191.633 98.826 C 192.293 99.002,192.652 99.217,193.269 99.804 C 193.842 100.349,193.139 101.833,192.307 101.833 C 192.154 101.833,191.996 101.927,191.958 102.042 C 191.869 102.310,187.291 102.310,186.966 102.042 C 186.847 101.943,186.131 101.809,185.375 101.743 L 184.000 101.624 184.000 102.028 C 184.000 102.251,183.931 102.505,183.847 102.592 C 183.762 102.679,183.641 103.436,183.577 104.274 L 183.460 105.797 184.321 105.982 C 184.795 106.084,185.398 106.167,185.661 106.167 C 185.924 106.167,186.169 106.257,186.206 106.367 C 186.298 106.643,192.844 106.668,193.183 106.394 C 193.311 106.290,193.737 106.152,194.128 106.087 C 194.520 106.022,194.942 105.868,195.067 105.743 C 195.191 105.618,195.487 105.468,195.724 105.408 C 196.261 105.274,197.759 103.880,197.910 103.375 C 197.972 103.169,198.084 103.000,198.158 103.000 C 198.844 103.000,198.804 98.231,198.111 97.386 C 196.849 95.846,194.865 94.511,193.444 94.244 C 193.108 94.181,192.833 94.073,192.833 94.003 C 192.833 93.934,192.496 93.782,192.083 93.667 C 191.671 93.551,191.333 93.400,191.333 93.330 C 191.333 93.261,191.081 93.156,190.773 93.099 C 188.823 92.733,188.364 90.352,190.187 90.061 C 190.542 90.004,190.833 89.892,190.833 89.812 C 190.833 89.732,191.246 89.667,191.750 89.667 C 192.254 89.667,192.667 89.742,192.667 89.833 C 192.667 89.925,192.892 90.000,193.167 90.000 C 193.454 90.000,193.668 89.911,193.669 89.792 C 193.671 89.629,193.701 89.630,193.807 89.796 C 193.881 89.913,194.424 90.084,195.013 90.174 C 195.602 90.265,196.252 90.426,196.458 90.531 C 196.949 90.782,196.955 90.773,197.178 89.326 C 197.284 88.643,197.426 88.046,197.494 88.000 C 198.000 87.657,197.783 86.506,197.192 86.397 C 196.857 86.336,196.543 86.223,196.493 86.147 C 196.377 85.969,194.345 85.674,193.208 85.670 C 192.727 85.668,192.333 85.592,192.333 85.500 C 192.333 85.408,192.000 85.333,191.593 85.333 C 191.186 85.333,190.807 85.408,190.750 85.500 M169.773 85.851 C 169.327 85.941,168.853 86.123,168.719 86.257 C 168.586 86.391,168.337 86.500,168.167 86.500 C 167.996 86.500,167.758 86.594,167.637 86.708 C 167.516 86.823,167.196 87.029,166.927 87.167 C 166.099 87.589,164.961 88.917,164.642 89.834 C 164.546 90.109,164.405 90.333,164.329 90.333 C 164.253 90.333,164.098 90.765,163.984 91.292 C 163.871 91.819,163.697 92.355,163.597 92.484 C 163.345 92.811,163.348 100.135,163.601 100.298 C 163.702 100.363,163.878 100.810,163.992 101.292 C 164.107 101.773,164.262 102.167,164.337 102.167 C 164.412 102.167,164.557 102.410,164.658 102.708 C 164.822 103.188,165.701 104.333,165.907 104.333 C 165.950 104.333,166.177 104.525,166.411 104.759 C 166.645 104.994,167.061 105.263,167.335 105.359 C 167.609 105.454,167.833 105.590,167.833 105.660 C 167.833 105.730,168.302 105.884,168.875 106.002 C 169.448 106.120,170.022 106.299,170.151 106.400 C 170.494 106.669,177.538 106.637,177.628 106.367 C 177.664 106.257,177.886 106.167,178.120 106.167 C 178.928 106.167,180.652 105.778,180.729 105.578 C 180.845 105.276,180.470 102.833,180.308 102.833 C 180.230 102.833,180.167 102.575,180.167 102.260 C 180.167 101.944,180.092 101.640,180.002 101.584 C 179.769 101.441,177.107 101.860,176.971 102.062 C 176.819 102.287,172.019 102.295,171.866 102.071 C 171.802 101.977,171.438 101.809,171.056 101.698 C 170.313 101.481,169.257 100.552,169.070 99.950 C 169.007 99.749,168.893 99.543,168.816 99.494 C 168.740 99.444,168.628 98.976,168.566 98.452 L 168.454 97.500 174.916 97.500 L 181.379 97.500 181.298 94.567 C 181.250 92.823,181.148 91.590,181.045 91.526 C 180.951 91.466,180.778 90.985,180.660 90.458 C 180.543 89.931,180.393 89.500,180.327 89.500 C 180.261 89.500,180.106 89.257,179.983 88.959 C 179.792 88.498,178.905 87.509,178.000 86.750 C 176.888 85.817,172.386 85.325,169.773 85.851 M222.583 85.848 C 222.217 85.936,221.599 86.156,221.210 86.337 C 220.822 86.518,220.428 86.667,220.335 86.667 C 220.242 86.667,220.167 86.737,220.167 86.822 C 220.167 86.908,220.000 87.030,219.796 87.095 C 219.349 87.237,217.894 88.713,217.748 89.173 C 217.691 89.353,217.586 89.500,217.515 89.500 C 217.445 89.500,217.284 89.819,217.159 90.208 C 217.033 90.598,216.874 90.957,216.804 91.006 C 216.735 91.056,216.592 91.656,216.488 92.340 C 216.384 93.024,216.231 93.714,216.149 93.873 C 215.940 94.279,215.956 98.833,216.167 98.833 C 216.258 98.833,216.333 99.055,216.333 99.325 C 216.333 99.941,216.670 101.555,216.822 101.667 C 216.885 101.712,217.041 102.013,217.170 102.333 C 217.588 103.374,219.173 105.027,220.060 105.348 C 220.394 105.468,220.667 105.619,220.667 105.682 C 220.667 105.745,221.154 105.894,221.750 106.012 C 222.346 106.131,222.833 106.283,222.833 106.350 C 222.833 106.645,230.203 106.640,230.302 106.345 C 230.334 106.247,230.567 106.167,230.819 106.167 C 231.498 106.167,233.218 105.809,233.465 105.616 C 233.694 105.437,233.587 104.080,233.317 103.739 C 233.240 103.641,233.126 103.133,233.065 102.609 C 233.003 102.086,232.889 101.618,232.811 101.569 C 232.598 101.438,229.951 101.848,229.696 102.052 C 229.412 102.278,224.693 102.302,224.533 102.078 C 224.469 101.988,224.117 101.812,223.750 101.687 C 223.167 101.488,222.653 101.054,221.871 100.098 C 221.665 99.846,221.333 98.436,221.333 97.811 C 221.333 97.513,221.599 97.500,227.667 97.500 L 234.000 97.500 233.994 95.208 C 233.988 92.870,233.653 90.301,233.340 90.197 C 233.245 90.165,233.167 90.006,233.167 89.843 C 233.167 89.680,232.979 89.270,232.750 88.933 C 232.521 88.595,232.333 88.265,232.333 88.200 C 232.333 88.134,232.052 87.835,231.708 87.534 C 230.796 86.737,230.724 86.685,230.215 86.461 C 229.959 86.349,229.713 86.206,229.667 86.145 C 229.394 85.779,223.847 85.546,222.583 85.848 M245.917 85.865 C 245.550 85.966,245.213 86.094,245.167 86.149 C 245.121 86.205,244.886 86.352,244.644 86.477 C 244.402 86.601,243.914 86.988,243.560 87.337 L 242.917 87.971 242.833 87.027 L 242.750 86.083 240.125 86.037 L 237.500 85.992 237.500 96.079 L 237.500 106.167 240.167 106.167 L 242.833 106.167 242.833 99.204 C 242.833 91.885,242.871 91.500,243.585 91.500 C 243.712 91.500,243.877 91.402,243.950 91.282 C 244.023 91.162,244.346 90.960,244.667 90.833 C 244.987 90.706,245.304 90.523,245.369 90.426 C 245.443 90.317,246.342 90.250,247.732 90.250 L 249.975 90.250 250.057 89.833 C 250.272 88.743,250.539 85.984,250.439 85.884 C 250.244 85.688,246.613 85.673,245.917 85.865 M308.838 85.862 C 308.245 85.946,307.720 86.075,307.672 86.146 C 307.623 86.218,307.115 86.375,306.542 86.495 C 305.969 86.614,305.500 86.777,305.500 86.856 C 305.500 86.935,305.387 87.000,305.250 87.000 C 305.112 87.000,305.000 87.112,305.000 87.250 C 305.000 87.388,305.070 87.500,305.155 87.500 C 305.240 87.500,305.400 88.063,305.511 88.750 C 305.622 89.438,305.768 90.000,305.835 90.000 C 305.903 90.000,306.004 90.230,306.061 90.512 C 306.138 90.900,306.234 91.003,306.457 90.938 C 306.618 90.891,307.125 90.800,307.583 90.736 C 308.042 90.673,308.468 90.540,308.531 90.442 C 308.605 90.328,309.624 90.261,311.365 90.257 C 315.136 90.247,315.667 90.597,315.667 93.091 L 315.667 94.333 312.875 94.346 C 311.340 94.353,309.896 94.388,309.667 94.424 C 309.438 94.461,308.954 94.534,308.592 94.586 C 308.229 94.638,307.854 94.743,307.758 94.819 C 307.662 94.895,307.302 95.047,306.958 95.158 C 306.615 95.269,306.333 95.423,306.333 95.502 C 306.333 95.580,306.180 95.693,305.991 95.753 C 305.677 95.852,305.109 96.367,304.510 97.095 C 303.878 97.863,303.615 101.028,304.032 102.835 C 304.367 104.284,306.472 106.167,307.758 106.167 C 307.983 106.167,308.167 106.242,308.167 106.333 C 308.167 106.435,308.944 106.500,310.167 106.500 C 311.267 106.500,312.167 106.435,312.167 106.356 C 312.167 106.277,312.617 106.117,313.167 106.000 C 313.717 105.883,314.167 105.737,314.167 105.676 C 314.167 105.614,314.485 105.425,314.875 105.256 C 315.265 105.086,315.643 104.847,315.717 104.724 C 315.899 104.417,316.209 104.443,316.519 104.792 C 317.373 105.749,317.855 105.983,319.249 106.116 C 319.799 106.169,320.275 106.277,320.306 106.356 C 320.336 106.435,320.805 106.500,321.347 106.500 C 322.332 106.500,322.333 106.499,322.333 106.000 C 322.333 105.725,322.408 105.500,322.500 105.500 C 322.599 105.500,322.667 104.867,322.667 103.934 C 322.667 102.317,322.601 102.167,321.895 102.167 C 321.761 102.167,321.467 101.983,321.242 101.758 L 320.833 101.348 320.833 95.849 C 320.833 90.680,320.694 88.667,320.338 88.667 C 320.263 88.667,320.154 88.472,320.094 88.234 C 319.578 86.176,314.352 85.075,308.838 85.862 M334.250 85.865 C 333.883 85.966,333.546 86.094,333.500 86.149 C 333.454 86.205,333.219 86.352,332.977 86.477 C 332.735 86.601,332.248 86.988,331.894 87.337 L 331.250 87.971 331.167 87.027 L 331.083 86.083 328.458 86.037 L 325.833 85.992 325.833 96.079 L 325.833 106.167 328.500 106.167 L 331.167 106.167 331.167 99.204 C 331.167 91.885,331.204 91.500,331.918 91.500 C 332.046 91.500,332.210 91.402,332.283 91.282 C 332.357 91.162,332.679 90.960,333.000 90.833 C 333.321 90.706,333.637 90.523,333.702 90.426 C 333.776 90.317,334.675 90.250,336.065 90.250 L 338.308 90.250 338.391 89.833 C 338.606 88.743,338.873 85.984,338.773 85.884 C 338.577 85.688,334.947 85.673,334.250 85.865 M372.189 85.838 C 370.794 86.128,367.833 87.886,367.833 88.425 C 367.833 88.558,367.764 88.667,367.679 88.667 C 367.453 88.667,366.555 90.321,366.413 91.000 C 366.346 91.321,366.232 91.621,366.160 91.668 C 365.929 91.816,365.667 94.296,365.667 96.333 C 365.667 98.370,365.929 100.851,366.160 100.999 C 366.232 101.045,366.344 101.325,366.408 101.619 C 366.472 101.914,366.706 102.424,366.929 102.752 C 367.151 103.080,367.333 103.394,367.333 103.451 C 367.333 103.653,368.892 104.978,369.481 105.278 C 369.812 105.446,370.121 105.631,370.167 105.688 C 370.212 105.746,370.700 105.891,371.250 106.011 C 371.800 106.131,372.304 106.309,372.369 106.406 C 372.535 106.654,379.532 106.648,379.849 106.401 C 379.978 106.301,380.734 106.125,381.530 106.010 C 382.535 105.866,383.006 105.724,383.074 105.547 C 383.199 105.221,382.998 103.667,382.831 103.667 C 382.762 103.667,382.653 103.179,382.589 102.583 C 382.509 101.830,382.404 101.500,382.244 101.500 C 381.562 101.500,379.401 101.906,379.307 102.052 C 379.164 102.271,374.186 102.292,374.030 102.074 C 373.968 101.986,373.617 101.811,373.250 101.683 C 372.674 101.483,372.177 101.064,371.395 100.118 C 371.199 99.880,370.833 98.389,370.833 97.825 C 370.833 97.508,370.998 97.500,377.250 97.500 L 383.667 97.500 383.667 95.117 C 383.667 93.806,383.603 92.662,383.525 92.575 C 383.448 92.488,383.291 91.873,383.177 91.208 C 383.063 90.544,382.914 90.000,382.845 90.000 C 382.776 90.000,382.618 89.692,382.494 89.316 C 382.370 88.939,382.170 88.594,382.051 88.548 C 381.931 88.502,381.833 88.375,381.833 88.265 C 381.833 88.009,380.797 87.000,380.534 87.000 C 380.424 87.000,380.333 86.930,380.333 86.845 C 380.333 85.993,374.760 85.304,372.189 85.838 M395.583 85.855 C 394.817 86.062,393.821 86.662,393.083 87.361 L 392.417 87.992 392.367 86.996 L 392.317 86.000 389.742 86.000 L 387.167 86.000 387.167 96.083 L 387.167 106.167 389.750 106.167 L 392.333 106.167 392.336 99.208 C 392.337 95.381,392.396 92.160,392.466 92.049 C 392.641 91.774,394.038 90.840,394.280 90.836 C 394.388 90.835,394.608 90.702,394.768 90.542 C 395.017 90.293,395.388 90.250,397.276 90.250 L 399.492 90.250 399.594 89.500 C 399.650 89.087,399.726 88.563,399.763 88.333 C 399.800 88.104,399.877 87.458,399.936 86.897 L 400.042 85.877 399.279 85.763 C 398.335 85.622,396.254 85.673,395.583 85.855 M271.167 86.583 C 271.167 86.904,271.227 87.167,271.301 87.167 C 271.374 87.167,271.574 87.879,271.746 88.750 C 271.917 89.621,272.111 90.333,272.176 90.333 C 272.242 90.333,272.389 90.840,272.503 91.458 C 272.617 92.077,272.771 92.660,272.844 92.754 C 272.918 92.847,273.071 93.429,273.184 94.045 C 273.298 94.662,273.441 95.167,273.503 95.167 C 273.564 95.167,273.751 95.823,273.917 96.625 C 274.084 97.427,274.269 98.121,274.329 98.167 C 274.388 98.212,274.532 98.700,274.647 99.250 C 274.763 99.800,274.956 100.475,275.078 100.750 C 275.200 101.025,275.351 101.644,275.415 102.125 C 275.479 102.606,275.589 103.000,275.659 103.000 C 275.730 103.000,275.918 103.656,276.077 104.458 C 276.439 106.281,276.166 106.161,279.940 106.164 L 283.130 106.167 283.346 105.083 C 283.464 104.487,283.609 104.000,283.667 104.000 C 283.725 104.000,283.871 103.494,283.991 102.875 C 284.112 102.256,284.267 101.675,284.335 101.583 C 284.404 101.492,284.594 100.779,284.756 100.000 C 284.919 99.221,285.104 98.508,285.168 98.417 C 285.231 98.325,285.382 97.763,285.503 97.167 C 285.624 96.571,285.773 96.046,285.835 96.000 C 285.896 95.954,286.039 95.438,286.153 94.852 C 286.266 94.267,286.422 93.667,286.499 93.519 C 286.576 93.371,286.712 92.987,286.802 92.667 L 286.966 92.083 286.983 92.625 C 286.992 92.923,287.062 93.167,287.139 93.167 C 287.215 93.167,287.402 93.928,287.555 94.857 C 287.708 95.787,287.897 96.631,287.975 96.732 C 288.054 96.834,288.214 97.498,288.332 98.208 C 288.451 98.919,288.603 99.500,288.670 99.500 C 288.738 99.500,288.891 100.100,289.010 100.833 C 289.129 101.567,289.278 102.167,289.340 102.167 C 289.403 102.167,289.547 102.742,289.661 103.446 C 289.774 104.149,289.930 104.843,290.007 104.988 C 290.084 105.132,290.190 105.456,290.243 105.708 L 290.340 106.167 293.575 106.167 C 297.170 106.167,296.860 106.273,297.093 104.958 C 297.154 104.615,297.260 104.333,297.329 104.333 C 297.398 104.333,297.550 103.883,297.667 103.333 C 297.783 102.783,297.935 102.333,298.004 102.333 C 298.073 102.333,298.221 101.846,298.333 101.250 C 298.446 100.654,298.592 100.167,298.658 100.167 C 298.725 100.167,298.916 99.567,299.083 98.833 C 299.251 98.100,299.437 97.500,299.497 97.500 C 299.557 97.500,299.702 97.013,299.821 96.417 C 299.939 95.821,300.091 95.333,300.158 95.333 C 300.225 95.333,300.376 94.902,300.492 94.375 C 300.608 93.848,300.758 93.342,300.824 93.250 C 300.891 93.158,301.081 92.558,301.246 91.917 C 301.412 91.275,301.610 90.670,301.686 90.572 C 301.762 90.474,301.911 89.987,302.016 89.489 C 302.122 88.991,302.262 88.546,302.327 88.500 C 302.426 88.430,303.000 86.375,303.000 86.091 C 303.000 86.041,301.808 86.000,300.351 86.000 C 297.529 86.000,297.500 86.009,297.500 86.847 C 297.500 87.023,297.439 87.167,297.365 87.167 C 297.291 87.167,297.092 87.860,296.924 88.708 C 296.755 89.556,296.563 90.325,296.497 90.417 C 296.431 90.508,296.284 91.090,296.170 91.708 C 296.056 92.327,295.908 92.833,295.841 92.833 C 295.775 92.833,295.624 93.377,295.507 94.042 C 295.390 94.706,295.219 95.343,295.128 95.457 C 295.036 95.571,294.996 95.850,295.040 96.077 C 295.083 96.304,295.061 96.454,294.991 96.411 C 294.921 96.368,294.770 96.858,294.655 97.500 C 294.540 98.141,294.396 98.667,294.333 98.667 C 294.271 98.667,294.126 99.192,294.012 99.833 C 293.739 101.356,293.601 101.305,293.333 99.583 C 293.212 98.804,293.058 98.167,292.990 98.167 C 292.923 98.167,292.773 97.529,292.657 96.750 C 292.541 95.971,292.394 95.333,292.331 95.333 C 292.267 95.333,292.077 94.508,291.909 93.500 C 291.741 92.492,291.555 91.667,291.495 91.667 C 291.436 91.667,291.288 91.029,291.167 90.250 C 291.045 89.471,290.895 88.833,290.833 88.833 C 290.771 88.833,290.621 88.196,290.500 87.417 L 290.280 86.000 287.056 86.000 L 283.833 86.000 283.833 86.500 C 283.833 86.775,283.773 87.000,283.699 87.000 C 283.626 87.000,283.426 87.712,283.254 88.583 C 283.083 89.454,282.888 90.167,282.820 90.167 C 282.753 90.167,282.646 90.560,282.582 91.042 C 282.518 91.523,282.365 92.142,282.242 92.417 C 282.119 92.692,281.930 93.385,281.821 93.958 C 281.712 94.531,281.572 95.000,281.509 95.000 C 281.446 95.000,281.260 95.713,281.096 96.585 C 280.932 97.456,280.736 98.207,280.660 98.254 C 280.585 98.300,280.433 98.900,280.322 99.586 C 280.211 100.272,280.062 100.833,279.991 100.833 C 279.854 100.833,279.500 99.383,279.500 98.825 C 279.500 98.646,279.432 98.500,279.350 98.500 C 279.267 98.500,279.147 98.048,279.083 97.495 C 279.019 96.942,278.862 96.386,278.735 96.258 C 278.556 96.080,278.550 96.008,278.710 95.943 C 278.852 95.885,278.861 95.815,278.741 95.721 C 278.644 95.645,278.465 94.946,278.344 94.167 C 278.222 93.388,278.067 92.675,277.999 92.583 C 277.931 92.492,277.742 91.573,277.579 90.542 C 277.415 89.510,277.219 88.667,277.141 88.667 C 277.063 88.667,277.000 88.542,277.000 88.389 C 277.000 88.236,276.917 87.636,276.816 87.055 L 276.632 86.000 273.900 86.000 L 271.167 86.000 271.167 86.583 M357.167 96.083 L 357.167 106.167 359.750 106.167 L 362.333 106.167 362.333 96.083 L 362.333 86.000 359.750 86.000 L 357.167 86.000 357.167 96.083 M392.121 88.042 C 392.084 88.340,392.053 88.096,392.053 87.500 C 392.053 86.904,392.084 86.660,392.121 86.958 C 392.158 87.256,392.158 87.744,392.121 88.042 M173.405 89.500 C 174.140 89.500,175.421 90.826,175.598 91.771 C 175.656 92.080,175.770 92.333,175.852 92.333 C 175.933 92.333,176.000 92.746,176.000 93.250 L 176.000 94.167 172.333 94.167 L 168.667 94.167 168.667 93.583 C 168.667 93.263,168.732 93.000,168.812 93.000 C 168.891 93.000,168.999 92.735,169.052 92.411 C 169.167 91.700,169.972 90.382,170.374 90.244 C 170.534 90.190,170.776 90.034,170.912 89.898 C 171.175 89.635,172.434 89.327,172.805 89.435 C 172.927 89.471,173.197 89.500,173.405 89.500 M226.458 89.584 C 226.756 89.644,227.000 89.750,227.000 89.818 C 227.000 89.887,227.169 90.034,227.375 90.145 C 227.748 90.345,228.167 91.035,228.167 91.450 C 228.167 91.569,228.237 91.667,228.323 91.667 C 228.409 91.667,228.525 92.023,228.580 92.458 C 228.635 92.894,228.712 93.456,228.752 93.708 L 228.825 94.167 225.139 94.167 L 221.454 94.167 221.551 93.375 C 221.704 92.130,222.761 90.167,223.279 90.167 C 223.391 90.167,223.544 90.059,223.617 89.927 C 223.752 89.687,225.202 89.331,225.667 89.425 C 225.804 89.452,226.160 89.524,226.458 89.584 M376.496 89.818 C 376.544 89.891,376.752 90.039,376.958 90.148 C 377.165 90.256,377.333 90.451,377.333 90.581 C 377.333 90.711,377.434 90.877,377.557 90.950 C 377.810 91.101,378.167 92.391,378.167 93.157 C 378.167 93.437,378.242 93.667,378.333 93.667 C 378.425 93.667,378.500 93.779,378.500 93.917 C 378.500 94.132,377.970 94.167,374.727 94.167 L 370.954 94.167 371.056 93.304 C 371.112 92.830,371.223 92.399,371.303 92.346 C 371.383 92.293,371.500 92.041,371.562 91.786 C 371.625 91.531,371.824 91.196,372.005 91.041 C 372.185 90.886,372.333 90.663,372.333 90.546 C 372.333 90.429,372.408 90.333,372.500 90.333 C 372.592 90.333,372.817 90.183,373.002 89.998 C 373.578 89.422,376.147 89.289,376.496 89.818 M392.125 102.553 C 392.098 104.403,392.076 102.842,392.076 99.083 C 392.076 95.325,392.098 93.811,392.125 95.719 C 392.152 97.628,392.152 100.703,392.125 102.553 M315.664 99.208 C 315.661 101.249,315.695 101.188,314.333 101.568 C 313.737 101.734,313.070 101.956,312.850 102.060 C 312.352 102.296,310.184 102.294,310.030 102.057 C 309.968 101.961,309.754 101.798,309.555 101.693 C 309.353 101.587,309.142 101.263,309.076 100.960 C 309.011 100.661,308.890 100.373,308.807 100.320 C 308.724 100.267,308.770 100.007,308.911 99.737 C 309.050 99.469,309.165 99.155,309.166 99.038 C 309.166 98.922,309.354 98.741,309.583 98.636 C 309.813 98.532,310.000 98.392,310.000 98.326 C 310.000 98.100,311.481 97.833,312.740 97.833 C 313.469 97.833,314.000 97.763,314.000 97.667 C 314.000 97.575,314.375 97.500,314.833 97.500 L 315.667 97.500 315.664 99.208"/><path id="path4" fill="#545444" fill-rule="evenodd" stroke="none"/></g></svg>