<svg xmlns="http://www.w3.org/2000/svg" xmlns:xlink="http://www.w3.org/1999/xlink" width="100%" height="100%" fill-rule="evenodd" stroke-linejoin="round" stroke-miterlimit="2" clip-rule="evenodd" version="1.1" viewBox="0 0 884 543" xml:space="preserve"><g><path fill="#bea500" fill-rule="nonzero" d="M400.909,113.039c-35.938,-6.073 -58.5,-11.455 -58.5,-11.455l0,214.549c19.211,0.903 38.977,3.574 58.5,7.355l0,-210.449Z"/><path fill="#fd0" fill-rule="nonzero" d="M400.909,252.618l0,70.87c-19.523,-3.781 -39.289,-6.452 -58.5,-7.355l0,0.026c108.6,5.1 234.9,66.6 234.9,66.6l0,-61.575c-28.231,-18.842 -71.004,-39.27 -135.021,-53.92c-16.24,-3.718 -29.894,-8.809 -41.379,-14.646Z"/><path fill="#fd0" fill-rule="nonzero" d="M400.909,113.039l0,74.561c19.538,6.975 37.939,12.081 54.578,13.305c75.869,5.58 98.677,-12.662 97.647,-35.222c-1.125,-24.625 -23.376,-27.426 -37.709,-26.927l0.002,-0.239c27.832,-2.021 42.083,12.291 42.083,32.166c0,19 -15.667,29.417 -34.695,35.324c-26.407,8.199 -36.317,20.466 -36.317,33.085c0,23.644 24.099,28.04 46.209,40.022c12.162,6.588 28.51,16.91 44.602,29.7l0,-178.955c-67.692,-0.827 -132.176,-9.347 -176.4,-16.82Z"/><path fill="#fff" fill-rule="nonzero" d="M486.498,239.092c0,-12.619 9.91,-24.886 36.317,-33.085c19.028,-5.907 34.695,-16.324 34.695,-35.324c0,-19.875 -14.251,-34.187 -42.083,-32.166l-0.002,0.239c14.333,-0.499 36.584,2.302 37.709,26.927c1.03,22.56 -21.778,40.802 -97.647,35.222c-16.639,-1.224 -35.04,-6.33 -54.578,-13.305l0,65.018c11.485,5.837 25.139,10.928 41.379,14.646c64.017,14.65 106.79,35.078 135.021,53.92l0,-12.37c-16.092,-12.79 -32.44,-23.112 -44.602,-29.7c-22.11,-11.982 -46.209,-16.378 -46.209,-40.022Z"/><path fill="#bbbdc0" fill-rule="nonzero" d="M342.528,188.476c3.075,10.394 15.682,42.438 58.381,64.142l0,-65.018c-18.598,-6.639 -38.227,-14.97 -58.358,-23.273l-0.023,24.149Z"/><path fill="#0093d0" fill-rule="nonzero" d="M168.318,434.703l-8.543,0l0,-7.581l29.12,0l0,7.581l-9.506,0l20.576,63.895c0.602,1.565 0.843,3.008 1.324,4.572l0.241,0c0.481,-1.564 0.721,-3.007 1.324,-4.572l18.53,-48.734l-4.813,-15.161l-9.025,0l0,-7.581l28.398,0l0,7.581l-9.025,0l19.133,63.895c0.602,1.565 0.843,3.008 1.323,4.572l0.241,0c0.482,-1.564 0.722,-3.007 1.324,-4.572l21.9,-63.895l-10.709,0l0,-7.581l28.398,0l0,7.581l-7.821,0l-28.158,76.65l-11.793,0l-15.041,-49.576l-0.24,0l-19.133,49.576l-11.793,0l-26.232,-76.65Z"/><path fill="#0093d0" fill-rule="nonzero" d="M306.001,417.856c4.092,0 7.461,3.369 7.461,7.461c0,4.091 -3.369,7.46 -7.461,7.46c-4.091,0 -7.46,-3.369 -7.46,-7.46c0,-4.092 3.369,-7.461 7.46,-7.461Zm-3.73,38.987l-11.311,0l0,-7.581l21.178,0l-0.481,54.51l9.867,0l0,7.581l-29.601,0l0,-7.581l9.867,0l0.481,-46.929Z"/><path fill="#0093d0" fill-rule="nonzero" d="M376.033,503.772l7.942,0c0,-9.626 0.482,-19.734 0.482,-29.722c0,-6.016 -0.241,-18.05 -14.079,-18.05c-8.784,0 -18.411,5.295 -18.411,22.142l-0.24,25.63l9.024,0l0,7.581l-26.954,0l0,-7.581l7.942,0l0.481,-46.929l-9.987,0l0,-7.581l19.854,0c0,2.406 -0.12,5.776 -0.36,7.461l-0.963,6.257l0.24,0c2.648,-9.386 12.635,-15.161 22.021,-15.161c17.087,0 21.299,11.551 21.299,23.344c0,10.588 -0.482,22.983 -0.482,32.609l9.145,0l0,7.581l-26.954,0l0,-7.581Z"/><path fill="#0093d0" fill-rule="nonzero" d="M409.966,449.262l9.987,0l0.482,-15.161l9.867,-0.603l-0.482,15.764l19.493,0l0,7.581l-19.613,0c-0.241,10.349 -0.481,20.818 -0.481,31.166c0,8.904 0,16.606 9.506,16.606c5.053,0 9.626,-1.445 12.274,-2.528l-0.361,7.822c-3.129,1.564 -8.905,2.888 -13.959,2.888c-17.327,0 -17.327,-12.394 -17.327,-20.336c0,-7.581 0.36,-26.593 0.481,-35.618l-9.867,0l0,-7.581Z"/><path fill="#0093d0" fill-rule="nonzero" d="M502.259,473.569c0,-9.746 -6.137,-18.17 -16.487,-18.17c-10.587,0 -17.808,7.942 -18.41,18.17l34.897,0Zm-34.897,7.581c0.362,12.755 5.897,23.465 23.585,23.465c6.739,0 13.478,-2.046 18.652,-4.694l-0.362,8.544c-4.572,2.286 -14.199,4.332 -20.456,4.332c-19.614,0 -31.766,-10.71 -31.766,-32.369c0,-18.29 9.866,-32.609 28.757,-32.609c24.548,0 26.834,22.261 26.834,33.331l-45.244,0Z"/><path fill="#0093d0" fill-rule="nonzero" d="M532.341,456.843l-10.589,0l0,-7.581l20.456,0l0,3.369c0,3.611 -0.722,10.95 -1.324,16.004l0.361,0c2.406,-9.144 5.656,-20.456 21.059,-20.456c0.842,0 5.775,0.482 6.257,0.963l-0.963,8.904c-1.685,-0.601 -4.331,-0.963 -6.739,-0.963c-12.755,0 -18.411,12.515 -18.651,23.465l-0.481,23.224l10.468,0l0,7.581l-29.12,0l0,-7.581l8.784,0l0.482,-46.929Z"/><path fill="#0093d0" fill-rule="nonzero" d="M621.746,466.469l-8.904,0l-0.482,-8.784c-2.286,-1.925 -8.062,-2.286 -10.95,-2.286c-6.257,0 -14.319,2.046 -14.319,9.507c0,6.738 6.016,8.784 15.162,10.347c15.763,2.648 22.381,7.461 22.381,17.69c0,11.07 -7.461,19.854 -25.39,19.854c-6.738,0 -17.448,-1.684 -21.298,-3.73l-0.482,-15.884l8.904,0l0.483,9.266c3.73,1.804 9.987,2.767 14.078,2.767c6.498,0 14.319,-2.767 14.319,-10.348c0,-6.137 -6.378,-8.303 -13.116,-9.747c-16.606,-3.61 -24.908,-6.498 -24.908,-18.652c0,-9.987 6.618,-18.65 24.427,-18.65c5.174,0 14.801,1.684 19.614,3.729l0.481,14.921Z"/><path fill="#0093d0" fill-rule="nonzero" d="M632.345,449.262l25.509,0l0,7.581l-7.46,0l13.357,38.626c0.722,2.166 1.443,5.054 1.685,6.498l0.241,0c0.24,-1.444 1.082,-4.332 1.925,-6.498l11.43,-29.36l-3.489,-9.266l-6.858,0l0,-7.581l25.509,0l0,7.581l-8.302,0l13.116,38.626c0.721,2.166 1.444,5.054 1.684,6.498l0.241,0c0.241,-1.444 0.963,-4.332 1.685,-6.498l13.838,-38.626l-8.303,0l0,-7.581l24.787,0l0,7.581l-7.099,0l-20.817,54.51l-10.348,0l-9.747,-28.519c-0.722,-2.166 -1.444,-5.053 -1.685,-6.498l-0.24,0c-0.241,1.445 -1.083,4.332 -1.925,6.498l-11.311,28.519l-9.868,0l-20.577,-54.51l-6.978,0l0,-7.581Z"/><path fill="#0093d0" fill-rule="nonzero" d="M755.804,417.856c4.091,0 7.46,3.369 7.46,7.461c0,4.091 -3.369,7.46 -7.46,7.46c-4.092,0 -7.461,-3.369 -7.461,-7.46c0,-4.092 3.369,-7.461 7.461,-7.461Zm-3.731,38.987l-11.311,0l0,-7.581l21.178,0l-0.482,54.51l9.867,0l0,7.581l-29.6,0l0,-7.581l9.867,0l0.481,-46.929Z"/><path fill="#0093d0" fill-rule="nonzero" d="M797.316,417.856c4.091,0 7.461,3.369 7.461,7.461c0,4.091 -3.37,7.46 -7.461,7.46c-4.09,0 -7.46,-3.369 -7.46,-7.46c0,-4.092 3.37,-7.461 7.46,-7.461Zm5.656,77.974c-0.241,20.698 -3.73,29.241 -9.385,35.739c-5.656,6.618 -13.358,9.746 -21.66,11.431l-1.444,-7.942c7.1,-1.925 12.153,-4.934 16.245,-9.867c4.332,-5.174 6.136,-13.477 6.376,-29.24l0.483,-39.108l-11.432,0l0,-7.581l21.299,0l-0.482,46.568Z"/><path fill="#0093d0" fill-rule="nonzero" d="M829.204,426.4l-12.033,0l0,-7.581l21.9,0l-0.241,57.759l23.705,-19.495l0,-0.24l-8.663,0l0,-7.581l26.953,0l0,7.581l-6.377,0l-25.751,20.938l28.037,25.991l6.74,0l0,7.581l-26.955,0l0,-7.581l7.46,0l0,-0.24l-25.149,-23.947l-0.241,24.187l8.183,0l0,7.581l-26.955,0l0,-7.581l8.906,0l0.481,-77.372Z"/><path fill="#0093d0" fill-rule="nonzero" d="M6.993,379.287c0,5.414 4.587,9.549 10.001,9.549c6.617,0 10.828,-4.361 10.828,-9.775c0,-3.76 -2.858,-9.174 -10.302,-9.174c-6.091,0 -10.527,3.685 -10.527,9.4Zm7.369,26.468c-0.752,0 -8.497,2.181 -8.497,7.294c0,6.016 9.098,6.843 12.933,6.843c4.813,0 12.558,-1.429 12.558,-7.67c0,-3.459 -3.158,-4.436 -6.617,-4.963l-10.377,-1.504Zm23.987,-34.966l-3.459,0c-1.053,0 -4.136,-0.3 -5.188,-0.376c3.083,3.008 3.684,6.317 3.684,9.325c0,8.647 -7.294,13.836 -16.392,13.836c-1.579,0 -6.993,0.902 -6.993,3.684c0,1.955 1.804,2.482 6.692,3.234l10.377,1.729c6.015,0.978 10.452,3.158 10.452,9.4c0,8.948 -9.324,13.008 -19.024,13.008c-9.325,0 -18.498,-3.007 -18.498,-10.602c0,-5.865 4.737,-8.422 9.775,-9.55l0,-0.15c-3.083,-0.677 -5.941,-2.407 -5.941,-6.016c0,-3.985 3.911,-5.038 7.069,-5.865l0,-0.151c-2.632,-0.601 -9.776,-3.233 -9.776,-13.084c0,-8.046 6.618,-14.061 16.092,-14.061c2.106,0 4.963,0.451 6.693,0.902l14.437,0l0,4.737Z"/><path fill="#0093d0" fill-rule="nonzero" d="M71.81,381.242c0,-6.091 -3.835,-11.355 -10.302,-11.355c-6.617,0 -11.129,4.963 -11.505,11.355l21.807,0Zm-21.807,4.737c0.226,7.971 3.685,14.663 14.739,14.663c4.211,0 8.422,-1.278 11.655,-2.933l-0.226,5.339c-2.857,1.429 -8.873,2.707 -12.783,2.707c-12.257,0 -19.851,-6.692 -19.851,-20.227c0,-11.43 6.166,-20.378 17.971,-20.378c15.34,0 16.769,13.911 16.769,20.829l-28.274,0Z"/><path fill="#0093d0" fill-rule="nonzero" d="M87.227,400.116l4.963,0l0.301,-29.327l-6.241,0l0,-4.737l12.407,0c0,1.504 -0.075,3.61 -0.226,4.662l-0.601,3.91l0.15,0c1.654,-5.865 7.896,-9.474 13.761,-9.474c7.069,0 10.753,4.06 11.731,9.098l0.15,0c0.752,-1.654 3.158,-9.098 13.159,-9.098c10.678,0 13.31,7.219 13.31,14.588c0,6.617 -0.301,14.362 -0.301,20.378l5.715,0l0,4.737l-16.844,0l0,-4.737l4.963,0c0.075,-6.317 0.301,-12.558 0.301,-18.799c0,-5.64 -1.203,-11.054 -8.422,-11.054c-5.038,0 -11.054,3.309 -11.129,13.836l-0.15,16.017l5.563,0l0,4.737l-16.918,0l0,-4.737l4.963,0c0.075,-6.317 0.301,-12.558 0.301,-18.799c0,-5.64 -1.203,-11.054 -8.422,-11.054c-5.038,0 -11.054,3.309 -11.129,13.836l-0.151,16.017l5.64,0l0,4.737l-16.844,0l0,-4.737Z"/><path fill="#0093d0" fill-rule="nonzero" d="M191.527,381.242c0,-6.091 -3.835,-11.355 -10.301,-11.355c-6.618,0 -11.129,4.963 -11.505,11.355l21.806,0Zm-21.806,4.737c0.225,7.971 3.684,14.663 14.738,14.663c4.211,0 8.422,-1.278 11.655,-2.933l-0.225,5.339c-2.858,1.429 -8.873,2.707 -12.784,2.707c-12.256,0 -19.851,-6.692 -19.851,-20.227c0,-11.43 6.166,-20.378 17.972,-20.378c15.339,0 16.768,13.911 16.768,20.829l-28.273,0Z"/><path fill="#0093d0" fill-rule="nonzero" d="M234.692,381.242c0,-6.091 -3.835,-11.355 -10.302,-11.355c-6.617,0 -11.129,4.963 -11.505,11.355l21.807,0Zm-21.807,4.737c0.226,7.971 3.685,14.663 14.739,14.663c4.21,0 8.421,-1.278 11.655,-2.933l-0.226,5.339c-2.857,1.429 -8.873,2.707 -12.783,2.707c-12.257,0 -19.852,-6.692 -19.852,-20.227c0,-11.43 6.166,-20.378 17.972,-20.378c15.34,0 16.769,13.911 16.769,20.829l-28.274,0Z"/><path fill="#0093d0" fill-rule="nonzero" d="M276.502,400.116l4.963,0c0,-6.016 0.301,-12.332 0.301,-18.574c0,-3.759 -0.15,-11.279 -8.798,-11.279c-5.489,0 -11.505,3.309 -11.505,13.836l-0.151,16.017l5.641,0l0,4.737l-16.844,0l0,-4.737l4.963,0l0.301,-29.327l-6.242,0l0,-4.737l12.408,0c0,1.504 -0.076,3.61 -0.227,4.662l-0.601,3.91l0.151,0c1.654,-5.865 7.895,-9.474 13.761,-9.474c10.677,0 13.309,7.219 13.309,14.588c0,6.617 -0.301,14.362 -0.301,20.378l5.715,0l0,4.737l-16.844,0l0,-4.737Z"/><path fill="#0093d0" fill-rule="nonzero" d="M298.537,366.052l6.241,0l0.301,-9.474l6.166,-0.376l-0.301,9.85l12.181,0l0,4.737l-12.256,0c-0.151,6.467 -0.301,13.009 -0.301,19.476c0,5.565 0,10.377 5.94,10.377c3.159,0 6.016,-0.902 7.67,-1.579l-0.225,4.888c-1.955,0.977 -5.565,1.804 -8.723,1.804c-10.828,0 -10.828,-7.745 -10.828,-12.708c0,-4.737 0.225,-16.618 0.301,-22.258l-6.166,0l0,-4.737Z"/><path fill="#0093d0" fill-rule="nonzero" d="M357.491,381.242c0,-6.091 -3.835,-11.355 -10.302,-11.355c-6.617,0 -11.129,4.963 -11.505,11.355l21.807,0Zm-21.807,4.737c0.226,7.971 3.685,14.663 14.738,14.663c4.211,0 8.422,-1.278 11.656,-2.933l-0.226,5.339c-2.857,1.429 -8.873,2.707 -12.783,2.707c-12.257,0 -19.852,-6.692 -19.852,-20.227c0,-11.43 6.166,-20.378 17.972,-20.378c15.34,0 16.769,13.911 16.769,20.829l-28.274,0Z"/><path fill="#006089" fill-rule="nonzero" d="M364.409,298.159l-22,17.974l0,-230.737l22,-17.974l0,230.737Z"/><path fill="#0093d0" fill-rule="nonzero" d="M165.609,0.559l0,336c0,0 95.201,-38.4 198.8,-38.4l0,-230.801c0,0 -43.853,-8.235 -102.254,-27.836c-58.4,-19.601 -96.546,-38.963 -96.546,-38.963Z"/><path fill="#fff" fill-rule="nonzero" d="M243.842,117.267c10.917,-6.25 30.417,-22.168 30.417,-22.168c0,0 -5.795,-2.42 -12.583,-5.416c-8.5,-3.75 -3.667,-12.25 -3.667,-12.25c-10.442,3.263 -25.75,7.25 -52.483,7.785c-13.933,0.278 -27.434,0.298 -39.917,0.382l0,13.083c12.816,2.25 28.316,4.834 43.712,7.146c28.45,4.272 34.521,11.438 34.521,11.438Z"/><path fill="#fff" fill-rule="nonzero" d="M287.509,100.85c0,0 -12.5,11.083 -37.5,27.417c0,0 4.833,17.916 -25.667,25.833c-3.587,0.931 -8.464,1.264 -12.925,1.985c0.68,-0.271 1.374,-0.534 2.051,-0.808c19.016,-7.723 18.541,-16.677 18.541,-16.677c0,0 -33.333,18.333 -66.4,21.238l0,20.791c12.875,1.01 28.128,2.853 46.429,5.869c48.747,8.037 117.119,-6.982 117.119,-6.982l-23.494,-8.381c0,0 32.759,-2.102 58.728,-14.656c0,0 0.012,0.063 0.018,0.094l0,-22.859c-41.303,-17.064 -76.9,-32.864 -76.9,-32.864Z"/></g></svg>