<svg xmlns="http://www.w3.org/2000/svg" width="136" height="136" fill="none" viewBox="0 0 136 136"><path fill="#000" fill-rule="evenodd" d="M93.8659 37H42.134C37.0688 37 33 41.1518 33 46.134V75.8612C33 80.9264 37.0688 85.0783 42.134 85.0783H69.5362V93.1328C69.5362 95.9561 71.7782 98.1981 74.6014 98.1981H89.7971C92.6204 98.1981 94.8624 95.9561 94.8624 93.1328V84.9952C99.4294 84.497 103 80.5943 103 75.8612V46.134C103 41.0688 98.8481 37 93.8659 37ZM92.2052 93.0498C92.2052 94.3784 91.1257 95.4579 89.7971 95.4579H74.6014C73.2728 95.4579 72.1933 94.3784 72.1933 93.0498V78.8505H92.2052V93.0498ZM76.7604 76.1103V71.0451C76.7604 68.2218 79.1684 65.8968 82.2408 65.8968C85.2301 65.8968 87.7212 68.2218 87.7212 71.0451V76.1103H76.7604ZM100.26 75.8612C100.26 79.0996 97.9347 81.7568 94.8624 82.255V77.4389C94.8624 76.6916 94.2811 76.1103 93.5338 76.1103H90.2954V71.0451C90.2954 66.7272 86.6417 63.2396 82.1578 63.2396C77.6738 63.2396 74.0202 66.7272 74.0202 71.0451V76.1103H70.7817C70.0344 76.1103 69.4531 76.6916 69.4531 77.4389V82.3381H42.051C38.4804 82.3381 35.5741 79.4318 35.5741 75.8612L35.6572 46.134C35.6572 42.5635 38.5635 39.6572 42.134 39.6572H93.7829C97.3535 39.6572 100.26 42.5635 100.26 46.134V75.8612ZM80.829 88.981V91.9703C80.829 92.7176 81.4103 93.2989 82.1576 93.2989C82.905 93.2989 83.4862 92.7176 83.4862 91.9703V88.981C85.23 88.3997 86.4755 86.822 86.4755 84.9122C86.4755 82.5041 84.5657 80.5943 82.1576 80.5943C79.7496 80.5943 77.8397 82.5041 77.8397 84.9122C77.8397 86.822 79.0853 88.3997 80.829 88.981ZM82.1576 83.2514C83.071 83.2514 83.8184 83.9988 83.8184 84.9122C83.8184 85.8256 83.071 86.5729 82.1576 86.5729C81.2442 86.5729 80.4969 85.8256 80.4969 84.9122C80.4969 83.9988 81.2442 83.2514 82.1576 83.2514ZM54.7348 71.6681H44.0854V61.0186H54.7348V71.6681ZM52.6174 63.1568H46.2236V69.5299H52.6174V63.1568ZM50.4791 65.2949H48.3409V67.4331H50.4791V65.2949ZM61.1079 69.5506H63.246V71.6888H61.1079V69.5506ZM67.5223 69.5506H65.3841V71.6888H67.5223V69.5506ZM63.2462 63.1568H65.3844V61.0186H67.5018V67.4124H61.108V65.295H58.9905V71.6681H56.8523V61.0186H63.2462V63.1568ZM44.0854 58.9011H54.7348V48.2516H44.0854V58.9011ZM46.2236 50.3898H52.6174V56.7837H46.2236V50.3898ZM48.3409 52.5074H50.4791V54.6456H48.3409V52.5074ZM56.8523 48.2516V58.9011H67.5018V48.2516H56.8523ZM65.3844 56.7629H58.9905V50.3898H65.3844V56.7629ZM61.1079 52.5074H63.246V54.6456H61.1079V52.5074Z" clip-rule="evenodd"/></svg>