<svg xmlns="http://www.w3.org/2000/svg" width="140" height="140" fill="none" viewBox="0 0 140 140"><path fill="#000" d="M69.4553 48.0968V67.8778L62.572 61.5169C61.9692 60.9589 60.9914 60.9589 60.3886 61.5169C59.7858 62.0749 59.7858 62.9816 60.3886 63.5396L69.9067 72.3281C70.5095 72.8861 71.4872 72.8861 72.09 72.3281L81.6081 63.5396C81.9095 63.2606 82.0595 62.8839 82.0595 62.5212C82.0595 62.1585 81.9095 61.7959 81.6081 61.5169C81.0054 60.9589 80.0275 60.9589 79.4248 61.5169L72.5414 67.8778V48.0968C72.5414 47.3017 71.8512 46.6599 70.9984 46.6599C70.1456 46.6599 69.4553 47.3017 69.4553 48.0968Z"/><path fill="#000" d="M94.9446 53.5099L94.9029 53.5654V37.2998H77.5487L71.014 31.2039L64.4792 37.2998H47.125V53.4541L35.7458 64.0419V102.014H106.254V64.0559L94.9446 53.5099ZM94.9029 56.5649L103.309 64.3907L94.9029 69.9986V56.5649ZM71.014 34.3147L74.2251 37.2998H67.8028L71.014 34.3147ZM49.4014 39.5739H92.6265V71.5193L71.014 85.8878L49.4014 71.5193V39.5739ZM47.125 56.5649V69.9986L38.7195 64.3907L47.125 56.5649ZM38.0361 66.6647L56.9403 79.2476L38.0361 98.136V66.6647ZM39.6417 99.7401L58.8806 80.5309L71.014 88.608L83.1473 80.5309L102.386 99.7401H39.6417ZM104.006 98.136L85.0876 79.2476L104.006 66.6647V98.136Z"/></svg>