<svg xmlns="http://www.w3.org/2000/svg" width="140" height="140" fill="none" viewBox="0 0 140 140"><path fill="#000" fill-rule="evenodd" d="M40.2514 57.439H99.4834C103.141 57.439 106.117 60.4149 106.117 64.0729V75.4885C106.117 79.1464 103.142 82.1224 99.4834 82.1224H40.2514C36.5933 82.1224 33.6173 79.1464 33.6173 75.4885V64.0729C33.6173 60.4149 36.5933 57.439 40.2514 57.439ZM35.9866 64.0729V75.4885C35.9866 77.8402 37.8997 79.7532 40.2514 79.7532H87.8093V59.8081H40.2514C37.8999 59.8081 35.9866 61.7214 35.9866 64.0729ZM99.4833 79.7532C101.835 79.7532 103.748 77.84 103.748 75.4885V64.073C103.748 61.7215 101.835 59.8083 99.4833 59.8083H90.1783V79.7532H99.4833ZM95.3286 64.9582C95.7915 64.4956 96.5414 64.4956 97.0041 64.9582L100.989 68.943C101.211 69.1653 101.336 69.4665 101.336 69.7807C101.336 70.095 101.211 70.3964 100.989 70.6184L97.004 74.6031C96.7726 74.8345 96.4694 74.9501 96.1663 74.9501C95.8631 74.9501 95.56 74.8345 95.3286 74.6031C94.866 74.1403 94.866 73.3903 95.3286 72.9277L98.4757 69.7807L95.3286 66.6336C94.866 66.1709 94.866 65.4208 95.3286 64.9582ZM44.6466 65.5021C42.2873 65.5021 40.368 67.4215 40.368 69.7807C40.368 72.14 42.2873 74.0593 44.6466 74.0593C47.0058 74.0593 48.9252 72.14 48.9252 69.7807C48.9252 67.4215 47.0058 65.5021 44.6466 65.5021ZM44.6466 71.6901C43.5937 71.6901 42.7373 70.8335 42.7373 69.7807C42.7373 68.7279 43.5939 67.8713 44.6466 67.8713C45.6992 67.8713 46.5558 68.7279 46.5558 69.7807C46.5558 70.8335 45.6994 71.6901 44.6466 71.6901ZM49.6499 69.7807C49.6499 67.4215 51.5693 65.5021 53.9285 65.5021C56.2878 65.5021 58.2071 67.4215 58.2071 69.7807C58.2071 72.14 56.2878 74.0593 53.9285 74.0593C51.5693 74.0593 49.6499 72.14 49.6499 69.7807ZM52.0193 69.7807C52.0193 70.8335 52.8757 71.6901 53.9285 71.6901C54.9814 71.6901 55.8378 70.8335 55.8378 69.7807C55.8378 68.7279 54.9814 67.8713 53.9285 67.8713C52.8759 67.8713 52.0193 68.7279 52.0193 69.7807ZM63.2107 65.5021C60.8514 65.5021 58.9321 67.4215 58.9321 69.7807C58.9321 72.14 60.8514 74.0593 63.2107 74.0593C65.5699 74.0593 67.4894 72.14 67.4894 69.7807C67.4894 67.4215 65.5699 65.5021 63.2107 65.5021ZM63.2107 71.6901C62.1578 71.6901 61.3014 70.8335 61.3014 69.7807C61.3014 68.7279 62.158 67.8713 63.2107 67.8713C64.2636 67.8713 65.1201 68.7279 65.1201 69.7807C65.1201 70.8335 64.2635 71.6901 63.2107 71.6901ZM71.4613 68.5961H76.2429C76.8973 68.5961 77.4275 69.1265 77.4275 69.7807C77.4275 70.4349 76.8973 70.9653 76.2429 70.9653H71.4613C70.8071 70.9653 70.2767 70.4349 70.2767 69.7807C70.2767 69.1265 70.8069 68.5961 71.4613 68.5961Z" clip-rule="evenodd"/></svg>