<svg xmlns="http://www.w3.org/2000/svg" width="100" height="100" fill="none" viewBox="0 0 100 100"><path fill="#C5CCD6" d="M41.3969 24.2824C39.9695 22.9389 38.1641 22.0572 36.1908 21.8053V6.43892C36.1908 4.80152 35.5191 3.33205 34.4695 2.24045C33.3779 1.14884 31.9084 0.519073 30.271 0.519073H5.91985C4.28244 0.519073 2.81298 1.19083 1.72137 2.24045C0.629771 3.33205 0 4.80152 0 6.43892V25.7939V27.5992V31.5038C0 33.1412 0.671756 34.6107 1.72137 35.7023C2.81298 36.7939 4.28244 37.4236 5.91985 37.4236H29.4733C31.0267 38.6832 32.958 39.4809 35.0992 39.4809C37.5763 39.4809 39.8015 38.4733 41.3969 36.8778C42.9924 35.2824 44 33.0572 44 30.5801C44 28.103 42.9924 25.8778 41.3969 24.2824ZM2.22519 6.43892C2.22519 5.43129 2.64504 4.50762 3.31679 3.87785C3.98855 3.2061 4.91221 2.78625 5.91985 2.78625H30.271C31.2786 2.78625 32.2023 3.2061 32.874 3.87785C33.5458 4.54961 33.9656 5.47327 33.9656 6.48091V19.5801L27.7519 13.3664C27.3321 12.9466 26.6183 12.9046 26.1565 13.3664L16.7939 22.771L10.4542 16.3893C10.0344 15.9695 9.32061 15.9275 8.85878 16.3893L2.22519 23.1069V6.43892ZM5.87786 35.2824V35.1985C4.87023 35.1985 3.94656 34.7786 3.27481 34.1069C2.64504 33.4351 2.22519 32.5114 2.22519 31.5038V27.5992V26.2977L9.65649 18.8244L15.9962 25.1641C16.416 25.584 17.1298 25.584 17.5916 25.1641L26.9542 15.7595L33.084 21.9313C32.958 21.9733 32.8321 22.0153 32.7061 22.0572C32.5382 22.0992 32.3702 22.1412 32.1603 22.2252C31.9924 22.2672 31.8244 22.3511 31.6565 22.3931C31.5305 22.4351 31.4466 22.4771 31.3206 22.5611C31.1527 22.645 31.0267 22.687 30.9008 22.771C30.6908 22.8969 30.4809 23.0229 30.271 23.1488C30.145 23.2328 30.0611 23.2748 29.9351 23.3588C29.8511 23.4008 29.8092 23.4427 29.7252 23.4847C29.3473 23.7366 29.0114 24.0305 28.7176 24.3664C27.1221 25.9618 26.1145 28.187 26.1145 30.6641C26.1145 31.2939 26.1985 31.8817 26.3244 32.5114C26.3664 32.6794 26.4084 32.8053 26.4504 32.9733C26.5763 33.3931 26.7023 33.813 26.8702 34.2328V34.2748C27.0382 34.6107 27.2061 34.9885 27.416 35.2824H5.87786ZM39.7595 35.2824C38.542 36.5 36.9046 37.2137 35.0573 37.2137C33.2939 37.2137 31.6565 36.5 30.4809 35.3664C30.313 35.1985 30.145 34.9885 29.9771 34.8206C29.8511 34.6946 29.7252 34.5267 29.5992 34.4007C29.4313 34.1908 29.3053 33.9389 29.1794 33.687C29.0954 33.5191 29.0114 33.3931 28.9275 33.2252C28.8435 33.0153 28.7595 32.7633 28.7176 32.5114C28.6756 32.3435 28.5916 32.1336 28.5496 31.9656C28.4656 31.5458 28.4237 31.084 28.4237 30.6221C28.4237 28.7748 29.1794 27.1374 30.355 25.9198C31.5305 24.7023 33.2099 23.9885 35.0573 23.9885C36.9046 23.9885 38.542 24.7443 39.7595 25.9198C40.9771 27.1374 41.6908 28.7748 41.6908 30.6221C41.6908 32.4275 40.9351 34.0649 39.7595 35.2824Z" transform="translate(33, 31)"/></svg>