<svg xmlns="http://www.w3.org/2000/svg" id="Laag_1" data-name="Laag 1" viewBox="0 0 429.95 176"><defs><style>.cls-1{fill:#b9453c}.cls-2{fill:#7660a4}</style></defs><title>OostGelre_fullcolour</title><path d="M229.57,202.11c0,15.76-12.46,26-26.42,26-14.64,0-26.42-10.06-26.42-26,0-14.87,11.63-26.05,26.42-26.05C218.83,176.06,229.57,186.87,229.57,202.11Zm-41.66,0c0,10,5.85,18.24,15.24,18.24s15.23-8.34,15.23-18.24-5.85-18.32-15.23-18.32S187.91,191.75,187.91,202.11Z" class="cls-1" transform="translate(-90.88 -52.07)"/><path d="M272.94,210.59c0,10.58-8.85,17.26-18.91,17.26s-18.92-6.68-18.92-17.26S244,193.32,254,193.32,272.94,200,272.94,210.59Zm-27.4,0c0,5.63,2.56,10.73,8.49,10.73,5,0,8.33-5.1,8.33-10.73S259,199.85,254,199.85C248.1,199.85,245.54,204.88,245.54,210.59Z" class="cls-1" transform="translate(-90.88 -52.07)"/><path d="M289.87,221.7c1.87,0,3.6-.9,3.6-2.55,0-2.33-3.6-3.76-6.68-5.26s-8.26-4.43-8.26-10.28c0-6.16,4.81-10.29,12-10.29a23.92,23.92,0,0,1,11,2.33l-2.48,5.71a20.76,20.76,0,0,0-7.73-2c-1.95,0-3.91.76-3.91,2.41,0,2.25,3.31,3.45,6.61,5,2.7,1.2,8.63,4.42,8.63,10,0,6.75-6.83,11-13,11a26.4,26.4,0,0,1-12.61-2.92l2.47-5.86A26.43,26.43,0,0,0,289.87,221.7Z" class="cls-1" transform="translate(-90.88 -52.07)"/><path d="M322.86,227.85c-6.23,0-11.79-2.17-11.71-9.68V199.85h-5.33v-5.77h5.33l3.68-13.59h5.85l.38,13.59H330v5.77h-8.93v16.22c-.08,3.6,1.42,5,4.5,5.55a31.26,31.26,0,0,0,5.63.3l.45,5.18A43.28,43.28,0,0,1,322.86,227.85Z" class="cls-1" transform="translate(-90.88 -52.07)"/><path d="M379.13,228.08c-15.24,0-27.25-10.21-27.25-26,0-15.92,12.09-26.05,27.25-26.05,9.61,0,14.34,2.4,16.81,3.53l-3.15,7.28a32.1,32.1,0,0,0-13.21-2.78c-8.11,0-16.51,6.76-16.51,18s8.18,17.94,17,17.94c4.2,0,5.63-.3,7.51-1V205.56h10.13v18.92A46.05,46.05,0,0,1,379.13,228.08Z" class="cls-1" transform="translate(-90.88 -52.07)"/><path d="M424.46,221.4a21.88,21.88,0,0,0,8.55-1.58L435,225.3c-2.25.9-4.87,2.55-14.11,2.55-10.21,0-17.18-6.53-17.18-17.11,0-10.74,7.88-17.42,16.88-17.42,8.41,0,16.07,5.56,16.07,18.77H414C414,217.34,417.1,221.4,424.46,221.4Zm-4.36-21.55c-3.75,0-5.4,2.93-5.93,6.61h11.94C425.51,202.26,423.93,199.85,420.1,199.85Z" class="cls-1" transform="translate(-90.88 -52.07)"/><path d="M443.47,175.09l9.91-1.06V227.1h-9.91Z" class="cls-1" transform="translate(-90.88 -52.07)"/><path d="M462.87,227.1v-33h9.31l.29,4.95c1.13-1.43,4.66-5.71,9-5.71a10.22,10.22,0,0,1,5.86,1.73L483.81,202a8.68,8.68,0,0,0-4.28-1c-2.85,0-5.55,2.33-6.83,3.38V227.1Z" class="cls-1" transform="translate(-90.88 -52.07)"/><path d="M508.67,221.4a21.88,21.88,0,0,0,8.55-1.58l1.95,5.48c-2.25.9-4.88,2.55-14.11,2.55-10.21,0-17.19-6.53-17.19-17.11,0-10.74,7.88-17.42,16.89-17.42,8.41,0,16.07,5.56,16.07,18.77h-22.6C498.23,217.34,501.31,221.4,508.67,221.4Zm-4.36-21.55c-3.75,0-5.4,2.93-5.93,6.61h11.94C509.72,202.26,508.14,199.85,504.31,199.85Z" class="cls-1" transform="translate(-90.88 -52.07)"/><path d="M239.68,148.34c-1.12,0-3.07.32-3.07,1.77s1.77,1.77,3,1.77h4.7c3.54,0,5.89,2.31,5.31,5.6-.76,4.23-5.53,5.67-8.71,5.67-2.89,0-8-.39-8-4.37a5.18,5.18,0,0,1,3.14-4.52,3.49,3.49,0,0,1-2.1-3.36,4.24,4.24,0,0,1,2.9-3.83,3.89,3.89,0,0,1-2-3.76c0-2.6,1.91-5.09,5.78-5.09a8.8,8.8,0,0,1,2.85.36h6v1.91h-3.47a4.23,4.23,0,0,1,1.16,2.82c0,3-2.75,5-6,5Zm-4.12,10.08c.07,1.66,2.06,2.6,5.13,2.6,2.43,0,5.9-1.44,6.11-3.68s-1.55-2.86-3.32-2.86h-4.81C237.8,155,235.49,156.25,235.56,158.42Zm2.21-15.11a3.28,3.28,0,0,0,6.54,0,3.09,3.09,0,0,0-3.29-3.14A3.18,3.18,0,0,0,237.77,143.31Z" class="cls-1" transform="translate(-90.88 -52.07)"/><path d="M263.46,152.71a9.14,9.14,0,0,0,4.59-.94l.8,1.66a11.42,11.42,0,0,1-6,1.41c-4.88,0-7.7-3.14-7.7-8.24,0-4.52,3-8.38,7.23-8.38,3.79,0,6.9,2.53,6.9,8.38H258.4C258.4,150.61,260.25,152.71,263.46,152.71Zm-1.08-12.47c-2.35,0-3.65,1.95-3.9,4.3h7.62C266,141.79,264.4,140.24,262.38,140.24Z" class="cls-1" transform="translate(-90.88 -52.07)"/><path d="M288.73,154.48h-2.9V143.75c0-1.67-.18-3.15-2.16-3.15-1.38,0-3.15,1.34-3.91,1.92v12h-3v-15.9h2.86l.07,1.77a7.64,7.64,0,0,1,4.77-2.13,3.78,3.78,0,0,1,3.87,2.2c.86-.65,2.75-2.2,5.06-2.2,3.25,0,4.44,2.2,4.44,4.88v11.38h-3V143.75c0-1.67-.32-3.15-2.16-3.15-1.59,0-3.11,1.27-3.94,1.85Z" class="cls-1" transform="translate(-90.88 -52.07)"/><path d="M313.47,152.71a9.14,9.14,0,0,0,4.59-.94l.8,1.66a11.42,11.42,0,0,1-6,1.41c-4.87,0-7.69-3.14-7.69-8.24,0-4.52,3-8.38,7.22-8.38,3.79,0,6.9,2.53,6.9,8.38H308.42C308.42,150.61,310.26,152.71,313.47,152.71Zm-1.08-12.47c-2.34,0-3.64,1.95-3.89,4.3h7.61C316,141.79,314.41,140.24,312.39,140.24Z" class="cls-1" transform="translate(-90.88 -52.07)"/><path d="M334.11,152.71a9.14,9.14,0,0,0,4.59-.94l.8,1.66a11.42,11.42,0,0,1-6,1.41c-4.88,0-7.7-3.14-7.7-8.24,0-4.52,3-8.38,7.23-8.38,3.79,0,6.9,2.53,6.9,8.38H329.05C329.05,150.61,330.89,152.71,334.11,152.71ZM333,140.24c-2.35,0-3.65,1.95-3.91,4.3h7.63C336.64,141.79,335.05,140.24,333,140.24Z" class="cls-1" transform="translate(-90.88 -52.07)"/><path d="M357.82,154.48V143.75c0-1.67-.58-3.11-2.53-3.11a9.6,9.6,0,0,0-4.88,1.88v12h-3v-15.9h2.85l.08,1.77a9.88,9.88,0,0,1,5.92-2.13c3.11,0,4.59,1.91,4.56,4.88v11.38Z" class="cls-1" transform="translate(-90.88 -52.07)"/><path d="M374.73,154.84c-3,0-3.86-1.91-3.86-4.41v-9.94h-3.15v-1.91h3.15l1.05-6.54h1.8l.11,6.54H378v1.91h-4.19v9c0,2.06.51,2.86,2.13,3.18a8.62,8.62,0,0,0,2.75,0l.25,1.84A20.27,20.27,0,0,1,374.73,154.84Z" class="cls-1" transform="translate(-90.88 -52.07)"/><path d="M391.68,152.71a9.14,9.14,0,0,0,4.59-.94l.79,1.66a11.36,11.36,0,0,1-6,1.41c-4.87,0-7.69-3.14-7.69-8.24,0-4.52,3-8.38,7.23-8.38,3.79,0,6.9,2.53,6.9,8.38H386.62C386.62,150.61,388.46,152.71,391.68,152.71Zm-1.08-12.47c-2.36,0-3.66,1.95-3.91,4.3h7.63C394.21,141.79,392.62,140.24,390.6,140.24Z" class="cls-1" transform="translate(-90.88 -52.07)"/><path d="M161.76,68.25c-8.5,22.49,2.59,45.9,13.55,56.32,14.72,14,17.67,22.94,14.59,39.81-4.37-17.06-7.63-23.21-15.26-32C164.12,120.17,148.31,94,161.76,68.25Z" class="cls-2" transform="translate(-90.88 -52.07)"/><path d="M123.51,96c7.82-.68,25.91.69,31.3,3.79a25.84,25.84,0,0,0,1.54,4.92S134.46,95.59,123.51,96Z" class="cls-2" transform="translate(-90.88 -52.07)"/><path d="M138.35,112.32s-.88.68-.88,3c0,.29,0,.62.05,1a7.55,7.55,0,0,0-4.35-3.22.59.59,0,0,0-.46.57c0,.15,0,.31,0,.46a20.32,20.32,0,0,0,1,5.93h0a.39.39,0,0,0,0,.09c.08,0,.11-.06.11-.12a.92.92,0,0,0,0-.18,24.06,24.06,0,0,1-.41-4.86c0-.43,0-.7,0-.71s1.46,0,3.35,2.88a15.17,15.17,0,0,1,1.2,2.35,14.12,14.12,0,0,0-3.43-2.66.08.08,0,0,0-.1,0,.08.08,0,0,0,0,.11,33.29,33.29,0,0,1,3.68,5.37.09.09,0,0,0,.07,0,.11.11,0,0,0,.08,0,5.69,5.69,0,0,1,1.39-1.08,22.71,22.71,0,0,1-1.2-8.87.06.06,0,0,0,0-.07A.06.06,0,0,0,138.35,112.32Z" class="cls-2" transform="translate(-90.88 -52.07)"/><path d="M179.32,155.77l0-3a2.11,2.11,0,0,0,1.81-2.1l-.26-2.86h-3.76l-.21,2.89a2.11,2.11,0,0,0,1.76,2.06l0,3-2,.3v.59l2.43,0h2.42v-.62Z" class="cls-2" transform="translate(-90.88 -52.07)"/><path d="M174.85,144.77l-1.66,2.11a2,2,0,0,0,.29,2.49l-1.43,2.15-1.92-.92-.32.51,1.88,1.23,1.87,1.25.31-.51-1.34-1.18,1.45-2.19a1.93,1.93,0,0,0,2.47-.68l1.3-2.34Z" class="cls-2" transform="translate(-90.88 -52.07)"/><path d="M156.48,110.73c-.73-.24-1.1-.91-1.67-1.39-.05,0,.2-.26.38-.35s.28-.19.12-.3-.17-.09-.21,0a.32.32,0,0,1-.3.21c-.06,0-.11,0-.15-.07s.33-.17.37-.36a5.82,5.82,0,0,0-1.22.34c-.17.1-.05.44-.22.44s-.4-.38-.68-.21c-.07,0-.08.13-.13.21a1.18,1.18,0,0,0-.53-.12c-.92-.18-1.82.15-2.75,0a1.32,1.32,0,0,0-.73.15,28.87,28.87,0,0,1-3.34,1.19c-1,.28-1.93.63-2.93.87a7.62,7.62,0,0,0-2.08.55c-.38.2-.79.47-.77,1,.08,1.82,1,3.32,1.26,5.13.08.51-.21,1.25.37,1.51,0,0,.07,0,.09-.08a.08.08,0,0,1,.12,0s0,.08.05.11.08.06.11,0a.6.6,0,0,0,.14-.46c-.35-1.6-1-3.09-1.47-4.64.07,0,.05-.24.13-.09,1,1.78,1.27,3.64,2.17,5.43.07.14.3.1.41.24a4.39,4.39,0,0,0,1.52-.42s0,0,0,0a.36.36,0,0,1-.23-.19c-.16-.13-.34-.14-.48-.27A7.36,7.36,0,0,1,143,118c-.14-.19-.29-.58,0-.63s.3.4.5.26.07-.24,0-.38c.19.09.3.13.41-.09s.17.22.36.11.17-1,.47-1.06A5.33,5.33,0,0,0,148,115s.12-.13.16-.09a1.29,1.29,0,0,1,.5.81c.08.3.33.57.39.9a2.13,2.13,0,0,0,.19.76c0,.08.22.21.23.24s.11.16.08.21a.07.07,0,0,0,0,.05c.29-.1.51-.2,1-.36h0a5.7,5.7,0,0,0-.55-.42.83.83,0,0,1-.3-.52,2.38,2.38,0,0,1-.13-.76c0-.34-.19-.67-.16-1a.21.21,0,0,1,.32-.08,3.62,3.62,0,0,1,.53,1.22,4.7,4.7,0,0,0,.52,1.14.48.48,0,0,0,.32.21v0c.47-.13,1.13-.3,1-.34l-.53-.14c-.17,0-.41-.17-.44-.31-.16-.8-.28-1.59-.38-2.39a19.65,19.65,0,0,0,1.47-1.54,2.52,2.52,0,0,1,1.71-1c.37,0,.77,0,1.15,0,.11,0,.25.13.37.12C155.9,111.69,156.62,111.33,156.48,110.73Z" class="cls-2" transform="translate(-90.88 -52.07)"/><path d="M109.32,144.27a1.52,1.52,0,1,0,.44-2.11A1.52,1.52,0,0,0,109.32,144.27Z" class="cls-2" transform="translate(-90.88 -52.07)"/><path d="M113.78,141.65c-.8,2-2.08,4-6,5.21a.75.75,0,0,0-.49.93.74.74,0,0,0,.93.48c4.54-1.43,6.07-3.86,7-6.06a.74.74,0,0,0-1.38-.56Z" class="cls-2" transform="translate(-90.88 -52.07)"/><path d="M112.35,145.1c-1,.89-.82,2.34.78,5.71l1.61.32c-1.77-3.73-1.38-4.94-1.38-4.94.22-.21,1.2-.06,4.59,1.85l.64.36.72-1.3-.63-.35C116.2,145.35,113.63,143.9,112.35,145.1Z" class="cls-2" transform="translate(-90.88 -52.07)"/><path d="M112.36,135.07a1.53,1.53,0,1,1-.69,2.05A1.52,1.52,0,0,1,112.36,135.07Z" class="cls-2" transform="translate(-90.88 -52.07)"/><path d="M112.62,131.24a.74.74,0,0,0-.05,1c2.73,3,2.51,5.38,1.86,7.46a.74.74,0,0,0,1.42.44c.7-2.24,1.08-5.28-2.18-8.89A.74.74,0,0,0,112.62,131.24Z" class="cls-2" transform="translate(-90.88 -52.07)"/><path d="M115.05,135.39c.47,2.56,5.31,4.24,7.78,4.3l0-1.49c-2.35-.06-6.1-1.69-6.36-3.08-.11-.63.73-1.37,2.31-2l-.56-1.37C115.86,132.71,114.78,134,115.05,135.39Z" class="cls-2" transform="translate(-90.88 -52.07)"/><path d="M108.17,130.65a1.52,1.52,0,1,0-2,.68A1.51,1.51,0,0,0,108.17,130.65Z" class="cls-2" transform="translate(-90.88 -52.07)"/><path d="M102.17,126.45a.74.74,0,0,0,.21,1.47c3.5-.5,5.71.27,8.72,3a.75.75,0,0,0,1.05,0,.74.74,0,0,0,0-1.05C108.79,126.82,106.09,125.89,102.17,126.45Z" class="cls-2" transform="translate(-90.88 -52.07)"/><path d="M98.62,130.38a1.53,1.53,0,1,0-.44,2.11A1.53,1.53,0,0,0,98.62,130.38Z" class="cls-2" transform="translate(-90.88 -52.07)"/><path d="M91.13,136.67l.24.05c.18-2.61,4-7.48,8.74-8.46,1.11-.29,1.18-1.52-.25-1.27C94.53,127.82,91,133,91.13,136.67Z" class="cls-2" transform="translate(-90.88 -52.07)"/><path d="M94.21,138a1.52,1.52,0,1,0,1.61,1.43A1.54,1.54,0,0,0,94.21,138Z" class="cls-2" transform="translate(-90.88 -52.07)"/><path d="M109,126.85c-.44-.12-1.06-2.06-1.1-3.86l-1.42.75c0,2.48.88,4.21,2.14,4.54,1.6.42,3.47-1.21,5.78-5.15l-1.34-.6C110.23,127.28,109.08,126.88,109,126.85Z" class="cls-2" transform="translate(-90.88 -52.07)"/><path d="M104.61,146.76c-2,.05-11.76-.76-13.31-8.78,0,0-.18-.17-.35.4-.36,1.18.14,10.56,14,12C103.88,149.66,104,147.23,104.61,146.76Zm1.32-.15a1,1,0,0,0-.82.08l-.11.06a3.1,3.1,0,0,0,.6,3.66,1.93,1.93,0,0,0,.78.07C107.59,150.38,107.13,147.28,105.93,146.61Zm.39,3.51c-.33.07-.76-.58-.95-1.47s-.08-1.65.25-1.73.76.59.95,1.47S106.65,150,106.32,150.12Z" class="cls-2" transform="translate(-90.88 -52.07)"/><path d="M161.88,122.25l-.07-.07,0,.09-1.52,4.12A15.23,15.23,0,0,0,159,125c-.09,0-1.39,3.92-1.41,4a17.42,17.42,0,0,0-1.26-1.38c-.09,0-1.45,4-1.46,4.07,0-.12-3.26-3.42-3.26-3.42s-2.88,2.76-2.88,2.76,6.55,6.73,6.55,6.73,11.06-10.82,11.06-10.82S161.88,122.25,161.88,122.25ZM149.74,131l0,0s1.78-1.76,1.87-1.76a6.46,6.46,0,0,1,.67.76s-1.79,1.76-1.87,1.76Zm1.22,1.23,0,0s1.78-1.77,1.86-1.77a6.64,6.64,0,0,1,.68.77s-1.79,1.76-1.87,1.75Zm2,2,0,0a6.46,6.46,0,0,1-.67-.76s1.79-1.76,1.87-1.76a6.46,6.46,0,0,1,.67.76Zm4.76-2,0,0a10.86,10.86,0,0,1-.89-1,15.84,15.84,0,0,1,1.18-1.09,11,11,0,0,1,.89,1Zm1.8-1.78,0,0a10.82,10.82,0,0,1-.88-1,15.79,15.79,0,0,1,1.18-1.08,10.86,10.86,0,0,1,.89,1Zm1.81-1.77,0,0a11,11,0,0,1-.89-1,15.79,15.79,0,0,1,1.18-1.08,10.86,10.86,0,0,1,.89,1Zm.84-2.77,0,0a15.79,15.79,0,0,1,1.18-1.08,11,11,0,0,1,.88,1,15.79,15.79,0,0,1-1.18,1.08Z" class="cls-2" transform="translate(-90.88 -52.07)"/><path d="M160.39,119a.76.76,0,0,0-.31-.24,1.13,1.13,0,0,0-.11-1.22,1.3,1.3,0,0,0-1.2-.39,2.48,2.48,0,0,0-1.27.9c-.21.26-.41.53-.62.8l-.12-.08c.26-.71.83-1.39.6-2.2a1.78,1.78,0,0,0-.88-1.15,1.06,1.06,0,0,0-1.13.21.76.76,0,0,0-.24.31,1.14,1.14,0,0,0-1.22.1,1.33,1.33,0,0,0-.39,1.21,2.48,2.48,0,0,0,.9,1.27,18.75,18.75,0,0,0,1.53,1.12l0,0c-.25-.12-.51-.28-.79-.4-.73-.25-1.42-.86-2.25-.63a1.83,1.83,0,0,0-1.15.89,1.06,1.06,0,0,0,.21,1.13.76.76,0,0,0,.31.24,1.15,1.15,0,0,0,.11,1.22,1.3,1.3,0,0,0,1.2.39,2.11,2.11,0,0,0,1-.63c-.4.58-.77,1.1-1,1.42s-1.35,1.83-1.73,2.16a.1.1,0,0,0,0,.09,2.41,2.41,0,0,1,.82.62.09.09,0,0,0,.11,0l1.13-2.18.71-1.48c.17-.35.57-1,1-1.65l0,0c-.25.73-.86,1.42-.62,2.25a1.78,1.78,0,0,0,.88,1.15,1.06,1.06,0,0,0,1.13-.21.88.88,0,0,0,.25-.31,1.13,1.13,0,0,0,1.21-.1,1.3,1.3,0,0,0,.39-1.21,2.53,2.53,0,0,0-.9-1.27,18.18,18.18,0,0,0-1.48-1.14l0-.05.8.4c.73.25,1.42.86,2.25.62a1.78,1.78,0,0,0,1.15-.88A1.06,1.06,0,0,0,160.39,119Z" class="cls-2" transform="translate(-90.88 -52.07)"/><path d="M122.79,134.2c0-1.08-.1-2.91-.22-4.76,1.3.27,2.47.57,3.78.84l.33-2.68c-1.21-.08-2.49-.07-3.72-.13,0,0-.1,0-.16,0,.23-1,.48-1.89.68-2.85l-2.67-.32,0,0c0,1,0,1.93,0,2.88l0,0c-1.25-.28-2.51-.54-3.81-.82l-.32,2.67c1.35,0,2.63.08,3.92.13-.31,1.52-.3,2.38-.62,3.92A6.87,6.87,0,0,1,122.79,134.2Z" class="cls-2" transform="translate(-90.88 -52.07)"/><path d="M159.5,155.88a4.73,4.73,0,0,1-.58-2.13c0-.63.09-1.52,0-1.55.15-.36.17-.54.44-.75s.44-.59.85-.44c.12.05.17.37.26.44a1.75,1.75,0,0,0,2,.09c.11-.07.09-.28.19-.35s.27.09.39,0,0-.61,0-.71c1,0,2.52.14,2.08-1.59-.23-.92-1.08-.45-1.88-.62-.14,0-.22-.22-.46-.52.43,0,.52-.17.91-.37s0-1.31-.39-1.67-.66-.12-1.1-.27c-.23-.08-.11-.3-.26-.52s-.32-.13-.53-.18c.12-.15.38-.37.34-.36.13,0,.24.08.32-.08a1.61,1.61,0,0,0-.13-1.51c-.27-.55-.92-.32-1.57-.61-.13-.07-.25-.4-.32-.54.18,0,.54,0,.39-.35s-.42-.3-.65-.44-.46-.5-.72-.62-.51.08-.72,0-.21-.72-.51-.7c-.94.06-1,1-1.57,1.5-.21.19-.41.07-.72.18s-.36.32-.64.43-.62.39-.39.8c-.8,0-1.58,0-1.89.53-.14.23-.06.47-.13.8s-.32.83.13,1c-.45.24-.91.19-.84,1-.37,0-.66,0-.79.44a3.39,3.39,0,0,0-.06,1.15c.11.48.94.43,1.24.62-.21.18,0,1,.19,1.15-.23.26-.49.16-.85.36-.18.09-.21.32-.39.43s-.28-.07-.33.18c-.15,1,.76,1.1,1.24,1a.87.87,0,0,0,.53.71c.49.15.81-.31,1.3-.09.24.12.33.41.65.53.77.29,1.09-.18,1.63-.26s.71.11,1.32.11a10.4,10.4,0,0,1,0,3.16,2,2,0,0,1-.47.75Z" class="cls-2" transform="translate(-90.88 -52.07)"/><path d="M130.7,114.63a.54.54,0,0,1,.27.31c.09.35-.25.58-.45.79a9.41,9.41,0,0,0-1,.83L128.19,118s0,0,0,.07a.91.91,0,0,0,.41-.14,12.07,12.07,0,0,1,2.31-1.13c.34-.08.75-.17,1,.13s-.13.69-.32.95a17.76,17.76,0,0,1-1.86,1.82,4.58,4.58,0,0,1-3.43,1,1.78,1.78,0,0,1-.75-.45c.07.24-.06.48,0,.73a10.38,10.38,0,0,1,.94,2.3l.65,1.78c.18.52.39,1,.55,1.56a.59.59,0,0,1-.08.37.38.38,0,0,1-.35.08.34.34,0,0,1-.21-.16c-.52-1-.77-2.15-1.23-3.22-.2-.55-.42-1.12-.64-1.69-.16-.38-.1-.84-.4-1.11a1.25,1.25,0,0,1-.3-.26,1.86,1.86,0,0,1-.77,1.43,7,7,0,0,1-3.37,1,5.65,5.65,0,0,1-1.88-.07c-.23-.1-.49-.22-.57-.47a.78.78,0,0,1,.15-.72,3.3,3.3,0,0,1,1.83-.68,7.44,7.44,0,0,0,1.15-.18s.13-.06.06-.1c-.49-.12-1-.07-1.46-.14a9.63,9.63,0,0,0-1.86,0c-.26,0-.61-.07-.73-.34a.83.83,0,0,1,.17-.78,5.59,5.59,0,0,1,2.65-.9c1-.08,2-.28,3-.37a1.67,1.67,0,0,1,.9.37,3.18,3.18,0,0,1,.06-.43,1.14,1.14,0,0,1-1-.42.53.53,0,0,1,0-.61.58.58,0,0,1,.48-.19,1.85,1.85,0,0,1,.53.18,1.31,1.31,0,0,1,.68-.71c.1,0,.22,0,.29.08.25.35.07.74,0,1.1,0,.12-.22.26,0,.34a1.23,1.23,0,0,1,.28.35c.14-1.2,1.34-1.54,2.13-2.18a16.86,16.86,0,0,1,1.86-1.26,4.61,4.61,0,0,1,1.56-.34Zm-5.61,4.11a1.12,1.12,0,0,1-.06.45c.09.12.23.19.31.31a.8.8,0,0,1,.22-.45A1.21,1.21,0,0,1,125.09,118.74Zm-1.13.46a2.38,2.38,0,0,1-.19.55.72.72,0,0,1,.53.26,2.45,2.45,0,0,1,0-.54A1.31,1.31,0,0,1,124,119.2Z" class="cls-2" transform="translate(-90.88 -52.07)"/><path d="M125.59,140.12c-.29-.12-.68,0-.93.59a3,3,0,0,0-.15,1.55l.09.15.19-.06a3.12,3.12,0,0,0,1-1.15C126,140.63,125.86,140.24,125.59,140.12Zm.31-1.34c-.14-.27-.54-.4-1.09-.11a3,3,0,0,0-1.07,1.13l0,.17.18.07a3,3,0,0,0,1.49-.29C125.94,139.46,126,139.05,125.9,138.78Zm.22-.72c.55-.29.65-.7.51-1l-.31-.25a1.13,1.13,0,0,0-.79.14,3,3,0,0,0-1.07,1.13v.17l.17.07A3.17,3.17,0,0,0,126.12,138.06Zm.68-1.6c.55-.29.65-.7.51-1s-.54-.41-1.09-.11c-.35.19-1,.89-1.07,1.13l0,.17.18.07A3,3,0,0,0,126.8,136.46Zm.67-1.55c.55-.3.65-.71.51-1s-.54-.4-1.09-.11a3.17,3.17,0,0,0-1.08,1.13v.17l.17.07A3.15,3.15,0,0,0,127.47,134.91Zm.66-1.6c.55-.3.65-.71.51-1s-.54-.41-1.09-.12a3,3,0,0,0-1.07,1.13l0,.17.18.08A3.24,3.24,0,0,0,128.13,133.31Zm-1.8,5.61c-.29.08-.52.44-.35,1a3,3,0,0,0,.82,1.28l.15.08.14-.13a3,3,0,0,0,.07-1.56C127,139,126.62,138.84,126.33,138.92Zm.7-1.7c-.29.08-.51.44-.35,1a3.15,3.15,0,0,0,.82,1.28l.16.08.13-.13a3.05,3.05,0,0,0,.07-1.56C127.7,137.33,127.33,137.14,127,137.22Zm.67-1.61-.31.25a1,1,0,0,0,0,.79,3.15,3.15,0,0,0,.82,1.28l.15.08.13-.13a2.9,2.9,0,0,0,.08-1.55C128.36,135.73,128,135.53,127.7,135.61Zm.65-1.56c-.3.08-.52.43-.35,1a3.15,3.15,0,0,0,.82,1.28l.15.07.13-.12a2.94,2.94,0,0,0,.08-1.56C129,134.16,128.64,134,128.35,134.05Zm1.51-.88c-.16-.6-.53-.79-.83-.71s-.51.44-.35,1a3.15,3.15,0,0,0,.82,1.28l.16.08.13-.13A3.06,3.06,0,0,0,129.86,133.17Z" class="cls-2" transform="translate(-90.88 -52.07)"/><rect width="9.21" height=".68" x="126.11" y="127.41" class="cls-2" transform="translate(-127.29 149.68) rotate(-68.23)"/><rect width="2.69" height=".68" x="133.07" y="125.03" class="cls-2" transform="translate(-98.2 190.33) rotate(-82.55)"/><path d="M133.11,135.44c-.3-.05-.65.18-.75.8a3.07,3.07,0,0,0,.26,1.54l.13.12.16-.1a3.2,3.2,0,0,0,.67-1.37C133.67,135.81,133.41,135.48,133.11,135.44Zm0-1.38c-.21-.22-.63-.25-1.08.18a2.94,2.94,0,0,0-.75,1.37l0,.16.19,0a3.2,3.2,0,0,0,1.37-.67C133.28,134.7,133.28,134.29,133.07,134.06Zm-1.35-.08a3.15,3.15,0,0,0,1.37-.67c.45-.43.45-.84.24-1.07l-.36-.16a1,1,0,0,0-.72.34,3,3,0,0,0-.75,1.36l0,.17Zm.25-1.72a3.21,3.21,0,0,0,1.37-.67c.46-.43.45-.84.25-1.07s-.63-.25-1.09.17a3.24,3.24,0,0,0-.75,1.37l0,.17Zm.25-1.68a3.12,3.12,0,0,0,1.36-.67c.46-.43.46-.84.25-1.07s-.63-.25-1.09.18a3,3,0,0,0-.74,1.36l0,.17Zm.23-1.72a3.2,3.2,0,0,0,1.36-.66c.46-.43.45-.85.25-1.07s-.63-.26-1.09.17a3.05,3.05,0,0,0-.74,1.37l0,.17Zm1.07,5.22c-.27.17-.39.56-.07,1.1a3.2,3.2,0,0,0,1.11,1l.18,0,.09-.16a3.06,3.06,0,0,0-.33-1.52C134.19,134,133.78,133.93,133.52,134.08Zm.24-1.82c-.27.16-.39.56-.07,1.1a3.08,3.08,0,0,0,1.12,1l.17,0,.09-.16a2.94,2.94,0,0,0-.32-1.52C134.43,132.2,134,132.11,133.76,132.26Zm.23-1.72c-.26.15-.39.56-.07,1.09a3,3,0,0,0,1.12,1l.17,0,.09-.16A3.17,3.17,0,0,0,135,131C134.66,130.48,134.25,130.39,134,130.54Zm.22-1.68c-.26.15-.38.55-.07,1.09a3.21,3.21,0,0,0,1.12,1l.17,0,.1-.16a3.06,3.06,0,0,0-.33-1.52C134.88,128.79,134.48,128.7,134.21,128.86Zm1.24-1.24c-.32-.54-.72-.63-1-.48s-.38.56-.07,1.1a3.15,3.15,0,0,0,1.13,1l.17,0,.09-.16A3,3,0,0,0,135.45,127.62Z" class="cls-2" transform="translate(-90.88 -52.07)"/><path d="M115.24,153.22a69.93,69.93,0,0,1,12.62,6.52l.3-1.87-2.52-1.62c1.28,0,3,.35,4.16-1.45s1.62-3,1.29-4.1a2.39,2.39,0,0,0-.27-.56l.07-.13a1.19,1.19,0,0,0,0-.66s1.1-.88,1.78-1.48a12.84,12.84,0,0,0,1.45-1.61l-.69-.68s.08-.14.18-.16.34-.34.41-.46.48-.21.6-.29.36-.38.46-.32a2.45,2.45,0,0,0,.62.24.39.39,0,0,0,.39-.34.39.39,0,0,1,.29-.28c.1,0,0-.08,0-.17l-.29-.32s0,0,0,0,.36-.76.47-.79.21.09.26.14a4.18,4.18,0,0,0,.53.21.44.44,0,0,0,.2-.08c.06,0,0-.14.07-.15.36-.11.3-.3.2-.51s-.51-.49-.41-.62-.15-.34-.17-.45.23-.08.17-.36-.11-.31-.22-.75-.25-.31-.36-.37-.22-.29-.39-.39-.64,0-1-.05-.34-.15-.56-.09a1.24,1.24,0,0,0-.59.06c-.61.28-.46.34-.46.42s-.72.31-.94.54.15.28.07.37-.32.3-.56.55-.1.39-.1.39h0l-.11.15c0,.07,0,.11-.1.17a4.34,4.34,0,0,1-1.29.5,13.08,13.08,0,0,0-1.84.27c-.82.27-1.84.66-2.63.86a5.76,5.76,0,0,0-2,1.18,1.93,1.93,0,0,0-.66,1.34,1.69,1.69,0,0,0-.33,0s-.49-.16-1.32.71a18.14,18.14,0,0,0-2.11,3c-.85,1.38,1.08,3.44,1.08,3.44l-2.33-1.37A8.27,8.27,0,0,1,115.24,153.22Zm12.22-6.61c.07,0,.5-.09.91-.19a5.22,5.22,0,0,1,1.58.24,4.5,4.5,0,0,1-.24.79c-.1.15-.49.9-.55,1l0,.05c-.36-.26-.73-.51-1.08-.74a1.88,1.88,0,0,1-.1-.36C127.86,147,127.4,146.63,127.46,146.61Z" class="cls-2" transform="translate(-90.88 -52.07)"/><path d="M142.88,121.49a.52.52,0,0,1,.26.69.52.52,0,0,1-.69.27.53.53,0,1,1,.43-1Z" class="cls-2" transform="translate(-90.88 -52.07)"/><path d="M148.66,121.5a.53.53,0,0,1,.26.7.53.53,0,0,1-1-.43A.53.53,0,0,1,148.66,121.5Z" class="cls-2" transform="translate(-90.88 -52.07)"/><path d="M148.67,124.51c0-.2-.47-.63-.48-.64s0,.1-.16.57a23.92,23.92,0,0,1-2.12,3.72,15.62,15.62,0,0,1-.93,1.31c-.31.38-.61.76-.94,1.12l-.83,1-.29.37a4.6,4.6,0,0,0-.45.75,11.16,11.16,0,0,0-1.05,2.5c-.06.17-.11.31-.13.4-.15.51-.2,1.1.22.88,1-.52,2.69.46,2.69.46a29.77,29.77,0,0,0,1.77-2.77,38,38,0,0,0,2.45-7.25A10.08,10.08,0,0,0,148.67,124.51Zm-8.15,13.27a1.71,1.71,0,0,1-.5-1.5.75.75,0,0,1,.77-.52,8.75,8.75,0,0,1,1.43-3.78l.25.11A5.5,5.5,0,0,1,140,129a5.37,5.37,0,0,1,.92-4.6,5,5,0,0,0,1.7,3.25,4.48,4.48,0,0,0,2.14.86,46,46,0,0,0,2.79-3.92c-.45-.31-.63-.31-.77-1.19-.23-1.51,1.46-1.49,1.15-1.64a2.55,2.55,0,0,0-3.48.76,9.12,9.12,0,0,0-1.25,3.25,3.36,3.36,0,0,1-.6-.68,3.79,3.79,0,0,1-.38-2.81c0-.16-.16-.16-.16-.16a6.86,6.86,0,0,0-2.59,2,6.18,6.18,0,0,0-1.46,4.19,7.31,7.31,0,0,0,1.43,3.2,3.08,3.08,0,0,0-.72.71,3.5,3.5,0,0,0-.68,2,3.07,3.07,0,0,0,1.1,2.64,4.39,4.39,0,0,0,1.32.92l.19.41,1.56.93.47-.93-1.73-.58Z" class="cls-2" transform="translate(-90.88 -52.07)"/><path d="M166.26,132a5,5,0,0,1-4.18,3.41l-1.33,1.33c2.83-.18,5.51-1.3,6.41-4.46.3-1,1.6-1,2.46-.91l-.69-.93A2.08,2.08,0,0,0,166.26,132Z" class="cls-2" transform="translate(-90.88 -52.07)"/><path d="M165.19,130.33c-.5,1.2-.47,2.33-2.35,2.68l-1.29,1.32c2.4-.1,3.8-1,4.54-3.72.28-1,1.4-1.18,2.54-1l-.77-.86A2.19,2.19,0,0,0,165.19,130.33Z" class="cls-2" transform="translate(-90.88 -52.07)"/><path d="M184,163.87a3.68,3.68,0,1,1-3.68-3.68A3.68,3.68,0,0,1,184,163.87Zm-3.68-3a3,3,0,1,0,3,3A3,3,0,0,0,180.31,160.9Z" class="cls-2" transform="translate(-90.88 -52.07)"/><path d="M175.25,167.68a3.68,3.68,0,1,1-3.68-3.68A3.68,3.68,0,0,1,175.25,167.68Zm-3.68-3a3,3,0,1,0,3,3A3,3,0,0,0,171.57,164.71Z" class="cls-2" transform="translate(-90.88 -52.07)"/><path d="M181,163.87a.68.68,0,1,1-.67-.68A.68.68,0,0,1,181,163.87Z" class="cls-2" transform="translate(-90.88 -52.07)"/><path d="M172.25,167.68a.68.68,0,1,1-.68-.68A.68.68,0,0,1,172.25,167.68Z" class="cls-2" transform="translate(-90.88 -52.07)"/><path d="M100.39,139.22c4-.13,6-3.63,6.57-5.07a5.32,5.32,0,0,0-5.24-1.62l-.32.69C100.66,134.78,99.6,137,100.39,139.22Zm.49-6.25.08-.19a5.32,5.32,0,0,0-3.15,6.09,8.6,8.6,0,0,0,2,.34C99,136.83,100.14,134.5,100.88,133Zm-.23,6.83a6,6,0,0,0,1.19,1.59c3.84-.27,5.69-3.64,6.3-5a5.45,5.45,0,0,0-.77-1.68C106.6,136.31,104.59,139.58,100.65,139.8Zm-.66,0a8.65,8.65,0,0,1-2-.28,5.47,5.47,0,0,0,.83,1.47,9,9,0,0,0,2.2.4A6.19,6.19,0,0,1,100,139.81Zm8.32-2.47a8.16,8.16,0,0,1-5.85,4.58,10.55,10.55,0,0,0,1.52,1,5.32,5.32,0,0,0,4.1-3.65A5.25,5.25,0,0,0,108.31,137.34Zm-8.68,4.47a5,5,0,0,0,1.78,1A5.16,5.16,0,0,0,103,143a11.22,11.22,0,0,1-1.36-1A8.94,8.94,0,0,1,99.63,141.81Z" class="cls-2" transform="translate(-90.88 -52.07)"/><path d="M168,154.27c1.05-1,2-1,3.11.93l.53.34-1.62,1-.81-.68L169,155Z" class="cls-2" transform="translate(-90.88 -52.07)"/><path d="M171.23,155.83l3.53,2,.52.32a1.52,1.52,0,0,1,.87,1.33s.5-.32.75-.52c0,0,.55.21,0,1.38l-.87.41,4.2,2.65-.39.17-4.4-2.41-.08,1.25,1.52,1.23,0,1s-.39.41-1.11-.12l-.48-.38-.21,3.24-.41.42c-.4,0-.71-.13-.71-.85l0-3.78-.89-.66-2,.84a7.86,7.86,0,0,1,.94,3.85l-.48-.09a6,6,0,0,0-1.37-3.85l-1.3-.84c-.24-.15-.73-.51-.16-.82l1.06-.47c0,.24.35.37.67.35l-1.17.5,1.61,1,1.85-.73c-.16-.34,0-.48.08-.71l.72-1.4c-.06-.53-.12-1-.89-1.23,0,0-1.29,1.67-1.53,2-.36.55-1.35.31-.77-.68l1.08-1.55c-.59-.11-.84-.46-.62-1.29Z" class="cls-2" transform="translate(-90.88 -52.07)"/><path d="M154.26,165.51s0-.17-.13-.48l-12.32-5.32-.28.15L137.89,161v0a3.08,3.08,0,0,0,.34.64,3.53,3.53,0,0,0,.65-.15L137.76,164s2.83,1.27,6.09,2.71l1-2.24a1.83,1.83,0,0,1,2.4-1l1.11.49a1.82,1.82,0,0,1,.94,2.39l-1,2.25,5.54,2.41c.08,0,1-2.06,1.18-2.56l.37.61c.09,0,.57-.31.57-.31S154.26,165.51,154.26,165.51Zm-12.16-1.94-.39.91-1.16-.5.38-.91a.49.49,0,0,1,.63-.25l.29.13A.47.47,0,0,1,142.1,163.57Zm10.7,4.35-.39.91-1.16-.5.39-.91a.47.47,0,0,1,.62-.25l.29.13A.47.47,0,0,1,152.8,167.92Zm-1.56-13.25,0-.08-.07,0-8.54,4.64,11.27,4.88C153.07,161.23,151.24,154.67,151.24,154.67Z" class="cls-2" transform="translate(-90.88 -52.07)"/><path d="M160.88,160.68l0,0a3.66,3.66,0,0,0-1.56-.72,3.64,3.64,0,0,0,.65-1.64h-.06a3.6,3.6,0,0,0-1.61.59,3.64,3.64,0,0,0-.7-1.62l0,0a3.73,3.73,0,0,0-.72,1.55,3.71,3.71,0,0,0-1.64-.64v.05a3.6,3.6,0,0,0,.59,1.61,3.76,3.76,0,0,0-1.61.7l0,0a3.6,3.6,0,0,0,1.56.72,3.64,3.64,0,0,0-.65,1.64h0a3.6,3.6,0,0,0,1.61-.59,3.73,3.73,0,0,0,.71,1.62l0,0a3.6,3.6,0,0,0,.72-1.55,3.75,3.75,0,0,0,1.64.64v0a3.73,3.73,0,0,0-.59-1.61A3.76,3.76,0,0,0,160.88,160.68Zm-3.33.79a.91.91,0,1,1,.91-.91A.91.91,0,0,1,157.55,161.47Z" class="cls-2" transform="translate(-90.88 -52.07)"/><path d="M167.18,156.36l-.05,0a3.69,3.69,0,0,0-1.68-.3,3.74,3.74,0,0,0,.2-1.75l-.05,0a3.49,3.49,0,0,0-1.4,1,3.77,3.77,0,0,0-1.1-1.39l0,.05a3.58,3.58,0,0,0-.3,1.69,3.66,3.66,0,0,0-1.75-.21v.05a3.69,3.69,0,0,0,1,1.41,3.72,3.72,0,0,0-1.38,1.09l0,0a3.71,3.71,0,0,0,1.69.3,3.66,3.66,0,0,0-.21,1.75l.05,0a3.57,3.57,0,0,0,1.41-1,3.69,3.69,0,0,0,1.09,1.39l0-.05a3.56,3.56,0,0,0,.3-1.68,3.74,3.74,0,0,0,1.75.2v0a3.69,3.69,0,0,0-1-1.41A3.72,3.72,0,0,0,167.18,156.36Zm-3,1.61a.91.91,0,1,1,.64-1.11A.91.91,0,0,1,164.16,158Z" class="cls-2" transform="translate(-90.88 -52.07)"/><path d="M166.9,165.58l0,0a3.69,3.69,0,0,0-1.29-1.14,3.65,3.65,0,0,0,1.09-1.39h-.05a3.62,3.62,0,0,0-1.71.1,3.72,3.72,0,0,0-.2-1.75l-.05,0a3.72,3.72,0,0,0-1.14,1.28,3.76,3.76,0,0,0-1.38-1.09l0,.05a3.66,3.66,0,0,0,.1,1.72,3.72,3.72,0,0,0-1.75.2l0,.05a3.62,3.62,0,0,0,1.28,1.14,3.57,3.57,0,0,0-1.09,1.38l.05,0a3.62,3.62,0,0,0,1.71-.1,3.68,3.68,0,0,0,.21,1.75l0,0a3.62,3.62,0,0,0,1.14-1.28,3.65,3.65,0,0,0,1.38,1.09l0-.05a3.62,3.62,0,0,0-.1-1.71A3.68,3.68,0,0,0,166.9,165.58Zm-3.42-.2a.91.91,0,0,1,.52-1.74.91.91,0,0,1-.52,1.74Z" class="cls-2" transform="translate(-90.88 -52.07)"/><path d="M176.27,140.6c-.8-.53-4-2.9-4-2.9s-1.75-4.32-2-4.89a.94.94,0,0,0-1.64-.26c-.76,1-3,4-3,4s-3.77,1.51-4.76,2.07-.85,1.12-.08,1.72,3,2.32,3.73,2.92l1.11-.85-1.1-1.43-.8.61L161,139.51l3.05-1.32.63.79,3.17-2.51-.65-.85,2-2.65,1.41,3.11-.74.7,2.45,3.22.85-.55,2.74,1.89-3.08,1.48-.64-.75L169,144.63l.53.7-1.94,2.58-1.3-2.89.75-.68L166,143l-1.11.85c.38.91,1.48,3.53,1.86,4.26.47.89,1.19.79,1.85,0s2.87-3.75,2.87-3.75,3.8-1.72,4.69-2.06S177,141.07,176.27,140.6Zm-7.93-3.48-2.94,2.34c-.49.43-.84.47-1.08.15l-.42-.51-1.55.65,1.38,1,.56-.4c.5-.28.79.14,1.09.54l2.14,2.82c.54.65.13,1,.13,1l-.5.53.54,1.36.94-1.26c-.72-.85,0-1.34,0-1.34l3.23-2.56c.36-.31.45-.38.86.08l.45.46,1.55-.78-1.39-.95c-.73.59-1.24.48-1.58,0l-2.36-3.09c-.31-.45-.28-.68,0-.89l.55-.42-.77-1.62-1,1.43.3.47C168.75,136.68,168.78,136.79,168.34,137.12Z" class="cls-2" transform="translate(-90.88 -52.07)"/><path d="M141.06,148.24a3.55,3.55,0,0,0,.06.56l4.22-4.67-.16,0A4.13,4.13,0,0,0,141.06,148.24Zm9.55-12.47c-.93-.85-1.81-1.41-2-1.25s0,.29.16.56l-1.14,1.25-2,2.25-8.29,9.16c-.48.56-1,1-.45,1.62a12.13,12.13,0,0,0,1.34,1.28s.6.66,1.84-.7l.31-.34a4.72,4.72,0,0,1-.22-1.36,5,5,0,0,1,5-5,5.16,5.16,0,0,1,.89.09l2.15-2.37,2-2.25,1.16-1.28c.33.21.58.24.65.17S151.55,136.63,150.61,135.77Z" class="cls-2" transform="translate(-90.88 -52.07)"/><path d="M146.63,143.84l2-2.25.77.69-8.38,9.29s1.16,2.18-2.26,6a18.7,18.7,0,0,0-3.51,5.35l-1-.45s.51-2,3.35-5.27c3.85-4.37,2-5.67,2-5.67L141,150Z" class="cls-2" transform="translate(-90.88 -52.07)"/><path d="M136.8,149.81c-.57.7.25,1.55.94.85Z" class="cls-2" transform="translate(-90.88 -52.07)"/><path d="M145.18,143.75a4.49,4.49,0,1,0,4.49,4.49A4.49,4.49,0,0,0,145.18,143.75Zm0,8.18a3.7,3.7,0,1,1,3.7-3.69A3.69,3.69,0,0,1,145.18,151.93Z" class="cls-2" transform="translate(-90.88 -52.07)"/><path d="M148.77,146.64a.26.26,0,0,0,0-.21l-.19-.3a.29.29,0,0,0-.18-.13.32.32,0,0,0-.21,0l-1.9,1.28a1.41,1.41,0,0,0-1-.49l-.42-2.3a.26.26,0,0,0-.12-.18.26.26,0,0,0-.21,0l-.35.09a.28.28,0,0,0-.17.13.26.26,0,0,0,0,.21l.62,2.2a1.38,1.38,0,0,0-.74.78l-2.34-.32a.32.32,0,0,0-.21.06.3.3,0,0,0-.1.2l0,.36a.26.26,0,0,0,.07.19.3.3,0,0,0,.19.1l2.32.09a1.4,1.4,0,0,0,.49.91l-1,2.16a.24.24,0,0,0,0,.22.28.28,0,0,0,.15.15l.33.13a.26.26,0,0,0,.36-.16l.81-2.19.3,0a1.37,1.37,0,0,0,.72-.2l1.73,1.65a.26.26,0,0,0,.2.08.3.3,0,0,0,.2-.1l.23-.28a.34.34,0,0,0,.06-.2.27.27,0,0,0-.11-.18L146.39,149a1.45,1.45,0,0,0,.21-.74,1.55,1.55,0,0,0,0-.31l2.07-1.12A.23.23,0,0,0,148.77,146.64Z" class="cls-2" transform="translate(-90.88 -52.07)"/><path d="M173.74,89.69a.09.09,0,0,0,.06.07,22.38,22.38,0,0,1,8,3.93,5.36,5.36,0,0,1,1.46-1s0,0,0-.07a.13.13,0,0,0,0-.08,34.54,34.54,0,0,1-3.94-5.19.07.07,0,0,0-.1,0,.08.08,0,0,0-.05.09,14,14,0,0,0,1.45,4.09,15.64,15.64,0,0,1-1.86-1.88c-2.1-2.69-1.61-4.06-1.68-4.09l.69.22a24.49,24.49,0,0,1,4.48,1.92,1,1,0,0,0,.16.09c.06,0,.09,0,.14-.07s0,0-.06-.07h0a20.5,20.5,0,0,0-5.32-2.82l-.44-.14a.63.63,0,0,0-.69.26,7.61,7.61,0,0,0,1.69,5.15c-.31-.13-.62-.26-.9-.36-2.19-.72-3.07-.14-3.12-.11A.11.11,0,0,0,173.74,89.69Z" class="cls-2" transform="translate(-90.88 -52.07)"/><path d="M202.1,142.19l-2.83-1a2.11,2.11,0,0,1-2.56,1.06l-2.63-1.15,1.19-3.56,2.8.71a2.09,2.09,0,0,1,1.4,2.32l2.85,1,.93-1.85.56.19-.79,2.29-.75,2.31-.59-.19Z" class="cls-2" transform="translate(-90.88 -52.07)"/><path d="M193.06,134.48l2.53-.91a2,2,0,0,1,2.27,1.06l2.49-.67-.26-2.12.58-.14.58,2.17.59,2.17-.58.13-.7-1.64-2.53.68a2,2,0,0,1-1.42,2.14l-2.64.49Z" class="cls-2" transform="translate(-90.88 -52.07)"/><path d="M166.55,106.32c0-.77-.52-1.33-.8-2,0-.06-.3.11-.45.25s-.26.21-.32,0c0,0,0-.19.06-.2a.34.34,0,0,0,.29-.23.44.44,0,0,0,0-.16c-.16.06-.26.26-.46.24a5.75,5.75,0,0,1,.72-1c.14-.14.43.09.48-.07s-.23-.5,0-.71c.06,0,.16,0,.24-.06a1.27,1.27,0,0,1,.06-.54c.11-.93.71-1.68.84-2.62a1.22,1.22,0,0,1,.37-.65,29.34,29.34,0,0,0,2.17-2.79c.58-.83,1.21-1.64,1.76-2.51a7.77,7.77,0,0,1,1.17-1.79c.32-.3.69-.61,1.15-.44,1.7.65,2.83,2,4.47,2.81.46.24,1.26.2,1.31.83,0,.06,0,.05-.1.07s0,.07,0,.11.07,0,.09.08,0,.1,0,.11a.57.57,0,0,1-.48,0c-1.41-.83-2.61-1.93-3.94-2.85,0,.06-.25,0-.13.09,1.38,1.5,3.05,2.36,4.47,3.78.11.1,0,.31.1.46a4.46,4.46,0,0,1-.88,1.31l0,0a.4.4,0,0,0-.12-.27,4.48,4.48,0,0,0-.1-.55,7,7,0,0,0-.78-1.15c-.13-.19-.45-.45-.6-.17s.28.42.09.56-.26,0-.38-.08c0,.2,0,.32-.21.36-.09,0,.15.23,0,.37s-1-.15-1.15.12a5.4,5.4,0,0,1-2.13,2.59c-.05,0-.16.07-.14.13a1.33,1.33,0,0,0,.62.72c.25.17.43.49.73.65a2.28,2.28,0,0,1,.66.43c.06.06.12.27.15.29s.12.16.17.14h.06c-.19.24-.35.42-.68.87v0a5,5,0,0,1-.23-.65c0-.21-.23-.33-.4-.46a2.33,2.33,0,0,0-.68-.36c-.33-.1-.58-.39-.89-.46-.11,0-.24.18-.17.28.21.4.64.59,1,.89a4.6,4.6,0,0,1,.92.84.5.5,0,0,1,.1.38l0,0c-.28.41-.65,1-.64.83s0-.36,0-.54,0-.45-.15-.52c-.71-.41-1.42-.77-2.15-1.11a16.12,16.12,0,0,1-1.92.9,2.55,2.55,0,0,0-1.48,1.32c-.14.34-.23.73-.4,1.08,0,.09,0,.28,0,.38C167.64,106.07,167.07,106.64,166.55,106.32Z" class="cls-2" transform="translate(-90.88 -52.07)"/><path d="M213.24,72.13a1.52,1.52,0,1,1-2.14-.25A1.52,1.52,0,0,1,213.24,72.13Z" class="cls-2" transform="translate(-90.88 -52.07)"/><path d="M209.35,75.55c2.12-.15,4.42-.74,6.84-4.08a.74.74,0,1,1,1.2.87c-2.79,3.85-5.58,4.53-7.94,4.69a.74.74,0,0,1-.1-1.48Z" class="cls-2" transform="translate(-90.88 -52.07)"/><path d="M213.08,75.27c1.14-.63,2.47,0,5.17,2.54L218,79.44c-3-2.85-4.25-2.87-4.25-2.87-.27.15-.43,1.13.31,4.94l.14.72-1.46.27-.14-.7C212.1,79,211.53,76.11,213.08,75.27Z" class="cls-2" transform="translate(-90.88 -52.07)"/><path d="M203.56,72.12a1.52,1.52,0,1,0,2.15,0A1.51,1.51,0,0,0,203.56,72.12Z" class="cls-2" transform="translate(-90.88 -52.07)"/><path d="M199.84,71.16a.75.75,0,0,1,1,.28c2,3.55,4.31,4.08,6.49,4.12a.73.73,0,0,1,.73.75.75.75,0,0,1-.76.73c-2.34,0-5.35-.63-7.75-4.86A.74.74,0,0,1,199.84,71.16Z" class="cls-2" transform="translate(-90.88 -52.07)"/><path d="M203,74.78c2.28,1.25,2.34,6.36,1.62,8.73l-1.42-.43c.69-2.25.32-6.32-.92-7-.56-.31-1.52.26-2.64,1.55l-1.13-1C200.21,74.7,201.72,74.07,203,74.78Z" class="cls-2" transform="translate(-90.88 -52.07)"/><path d="M200.68,66.75A1.52,1.52,0,1,1,202,65,1.52,1.52,0,0,1,200.68,66.75Z" class="cls-2" transform="translate(-90.88 -52.07)"/><path d="M198.58,59.74a.74.74,0,1,1,1.33.66c-1.57,3.16-1.54,5.49.13,9.23a.75.75,0,0,1-.38,1,.74.74,0,0,1-1-.38C196.84,66.13,196.82,63.28,198.58,59.74Z" class="cls-2" transform="translate(-90.88 -52.07)"/><path d="M203.43,57.6a1.52,1.52,0,1,1,2.14.25A1.52,1.52,0,0,1,203.43,57.6Z" class="cls-2" transform="translate(-90.88 -52.07)"/><path d="M211.76,52.47l0,.25c-2.53-.65-8.37,1.48-10.78,5.63-.62,1-1.82.64-1.13-.64C202.29,52.91,208.27,51.22,211.76,52.47Z" class="cls-2" transform="translate(-90.88 -52.07)"/><path d="M212.06,55.82a1.53,1.53,0,1,1,.86,2A1.53,1.53,0,0,1,212.06,55.82Z" class="cls-2" transform="translate(-90.88 -52.07)"/><path d="M196.82,66.29c0-.45-1.61-1.66-3.31-2.25l1.16-1.11c2.34.82,3.72,2.16,3.63,3.46-.1,1.65-2.24,2.91-6.71,3.86l-.14-1.46C196.83,67.64,196.81,66.43,196.82,66.29Z" class="cls-2" transform="translate(-90.88 -52.07)"/><path d="M220.4,70c3-13.66-5.73-17.08-7-17.12-.59,0-.49.21-.49.21,7.12,4,4.83,13.49,4.14,15.4C217.73,68,220.07,68.66,220.4,70Zm-.34,1.33a1.93,1.93,0,0,0,.18-.75A3.1,3.1,0,0,0,217,68.82a.73.73,0,0,1-.09.08,1,1,0,0,0-.33.76C216.79,71,219.59,72.42,220.06,71.29Zm-2-.47c-.78-.46-1.27-1.07-1.09-1.36s.94-.16,1.72.3,1.26,1.08,1.09,1.37S218.79,71.29,218,70.82Z" class="cls-2" transform="translate(-90.88 -52.07)"/><path d="M188.25,105.38s-3.51,1.79-3.53,1.87,2.11,4.12,2.22,4.16-4.27,0-4.32.12a15.24,15.24,0,0,0,.92,1.62c-.06,0-4.17,0-4.22.09a15.5,15.5,0,0,0,.9,1.6l-4.39.15h-.09l0,.09s3,5.71,3,5.73,13.73-7,13.75-7.09S188.32,105.41,188.25,105.38Zm-9.81,13.08a11.38,11.38,0,0,1-.65-1.15,14.23,14.23,0,0,1,1.4-.78l.05,0,.6,1.18A14.23,14.23,0,0,1,178.44,118.46Zm2.26-1.15a9.86,9.86,0,0,1-.66-1.15,15.6,15.6,0,0,1,1.41-.78,11.38,11.38,0,0,1,.65,1.15l0,0Zm2.26-1.15a10.85,10.85,0,0,1-.66-1.16c0-.07,1.4-.78,1.4-.78a10.69,10.69,0,0,1,.65,1.16l0,.05Zm2.25-1.16a9.73,9.73,0,0,1-.65-1.15,14.23,14.23,0,0,1,1.4-.78,12.7,12.7,0,0,1,.65,1.16l0,0Zm.43-7.43c0-.08,2.26-1.22,2.26-1.22l0,0,.46.9c0,.08-2.26,1.22-2.26,1.22A5.76,5.76,0,0,1,185.64,107.57Zm1.29,2.42a6.36,6.36,0,0,1-.51-.88c0-.08,2.26-1.22,2.26-1.22l0,0,.46.9C189.16,108.84,186.93,110,186.93,110Zm.27.68c0-.08,2.26-1.22,2.26-1.22a6.36,6.36,0,0,1,.51.88l0,0-2.29,1.17A7.57,7.57,0,0,1,187.2,110.67Z" class="cls-2" transform="translate(-90.88 -52.07)"/><path d="M173.16,112.64a.86.86,0,0,1-.13-.37,1.14,1.14,0,0,1-1.12-.49,1.29,1.29,0,0,1,0-1.26,2.42,2.42,0,0,1,1.25-.92l1-.34,0-.14c-.77,0-1.59.35-2.29-.12a1.81,1.81,0,0,1-.81-1.2,1.07,1.07,0,0,1,.55-1,.86.86,0,0,1,.37-.13,1.16,1.16,0,0,1,.49-1.12,1.29,1.29,0,0,1,1.26,0,2.42,2.42,0,0,1,.92,1.25c.22.59.43,1.2.59,1.81l0,0c0-.27-.1-.58-.13-.87,0-.78-.36-1.63.12-2.34a1.78,1.78,0,0,1,1.2-.81,1.07,1.07,0,0,1,1,.55.86.86,0,0,1,.13.37,1.16,1.16,0,0,1,1.12.49,1.29,1.29,0,0,1,0,1.26,2.07,2.07,0,0,1-.92.77c.68-.19,1.29-.39,1.68-.54s2.17-.7,2.6-1a.08.08,0,0,1,.08,0,2.59,2.59,0,0,0,.33,1s0,.07-.06.09l-2.42.38-1.63.21c-.39.06-1.12.23-1.88.42h0c.77,0,1.62-.37,2.33.11a1.77,1.77,0,0,1,.81,1.21,1,1,0,0,1-.55,1,.82.82,0,0,1-.37.14,1.16,1.16,0,0,1-.48,1.12,1.33,1.33,0,0,1-1.27,0A2.5,2.5,0,0,1,176,111a18.3,18.3,0,0,1-.61-1.76l0-.06c0,.28.1.58.13.88,0,.77.36,1.62-.12,2.33a1.79,1.79,0,0,1-1.2.81A1.07,1.07,0,0,1,173.16,112.64Z" class="cls-2" transform="translate(-90.88 -52.07)"/><path d="M199.44,81.75c-1-.3-2.73-1-4.45-1.71-.16,1.32-.24,2.52-.4,3.85L192,83.35c.31-1.17.72-2.38,1.05-3.56.06,0,0-.11,0-.16-1-.09-1.93-.14-2.91-.25l.54-2.63h0l2.71.94,0,0c.14-1.28.28-2.56.43-3.88l2.63.54c-.4,1.29-.75,2.53-1.11,3.77,1.54.18,2.36.46,3.92.64A6.74,6.74,0,0,0,199.44,81.75Z" class="cls-2" transform="translate(-90.88 -52.07)"/><path d="M208.44,123.41a4.56,4.56,0,0,0-1.83-1.21c-.58-.25-1.47-.4-1.47-.48a1.36,1.36,0,0,0-.85.18c-.27.17-.71.23-.69.66,0,.13.3.28.34.39a1.53,1.53,0,0,1,0,1,1.48,1.48,0,0,1-.6,1c-.1.08-.29,0-.39.07s0,.29-.13.37-.58-.15-.66-.22c-.32.94-.67,2.44-2.17,1.48-.8-.51-.09-1.18,0-2,0-.13-.13-.27-.35-.6-.14.42-.32.45-.63.76s-1.23-.47-1.47-.91.1-.66.1-1.13c0-.24-.25-.2-.42-.41s0-.34,0-.56a4.8,4.8,0,0,1-.45.21c-.09.11,0,.26-.18.28a1.56,1.56,0,0,1-1.38-.59c-.44-.44,0-1-.1-1.69,0-.14-.29-.37-.4-.47-.08.17-.2.5-.46.25s-.15-.49-.21-.75-.33-.59-.36-.88.24-.45.22-.68-.61-.43-.5-.71c.35-.86,1.3-.66,1.92-1,.24-.14.19-.37.39-.63s.43-.24.62-.47.56-.47.88-.12c.25-.76.53-1.49,1.09-1.63.27-.06.47.09.81.13s.88,0,.87.43c.38-.35.47-.8,1.19-.49.16-.34.26-.61.67-.61a3.74,3.74,0,0,1,1.11.3c.42.26.11,1,.2,1.37.23-.13.92.33,1,.55.31-.13.3-.42.6-.69.14-.15.37-.11.54-.23s0-.29.28-.26c1,.16.8,1.07.52,1.48.32.2.52.43.51.72,0,.52-.55.68-.49,1.21,0,.27.28.44.3.78,0,.83-.52,1-.77,1.47s-.12.7-.31,1.29a10,10,0,0,0,3,1,1.87,1.87,0,0,0,.85-.21Z" class="cls-2" transform="translate(-90.88 -52.07)"/><path d="M178.39,82.88a4.67,4.67,0,0,1,.82-1.38A18.28,18.28,0,0,1,181,80.13c.85-.54,1.55-1.57,2.73-1.33a1.17,1.17,0,0,1-.24-.38c0-.18-.22,0-.33-.06-.38,0-.82.06-1.06-.29-.07-.09,0-.21,0-.3a1.25,1.25,0,0,1,.89-.42,1.51,1.51,0,0,1,0-.56.55.55,0,0,1,.32-.4.55.55,0,0,1,.58.23,1.19,1.19,0,0,1,.08,1.07c.14,0,.29,0,.43.08a1.54,1.54,0,0,1-.07-1c.4-.92.89-1.78,1.28-2.69a5.53,5.53,0,0,1,1.7-2.23.8.8,0,0,1,.78.08.79.79,0,0,1,.1.8,9.54,9.54,0,0,0-.58,1.76c-.08.49-.29.94-.33,1.44,0,.07.09,0,.12,0a7.21,7.21,0,0,0,.52-1,3.36,3.36,0,0,1,1.23-1.52.79.79,0,0,1,.73.08.88.88,0,0,1,.27.69,5.48,5.48,0,0,1-.53,1.8,6.85,6.85,0,0,1-2.05,2.88,1.9,1.9,0,0,1-1.6.28,1,1,0,0,1,.15.36c.16.38.63.46.93.74.48.38.94.77,1.41,1.13.86.77,1.86,1.37,2.66,2.18a.35.35,0,0,1,.09.26.36.36,0,0,1-.19.3.53.53,0,0,1-.37,0c-.45-.32-.87-.67-1.31-1l-1.48-1.18a10.63,10.63,0,0,1-1.9-1.62c-.19-.18-.46-.13-.67-.28a1.67,1.67,0,0,1,.19.86,4.52,4.52,0,0,1-2,3A16.36,16.36,0,0,1,181.17,85c-.3.1-.73.33-1,0s0-.69.2-1a12,12,0,0,1,1.79-1.84.92.92,0,0,0,.27-.35s0,0-.07,0l-1.79.86a8.42,8.42,0,0,0-1.09.64c-.27.12-.59.37-.9.18a.61.61,0,0,1-.21-.35Zm5.8-3.29a.78.78,0,0,1,.5,0c-.09-.12-.12-.28-.2-.4a1.17,1.17,0,0,1-.45-.09A1.25,1.25,0,0,1,184.19,79.59Zm.79-1a2.29,2.29,0,0,1,.51.15.81.81,0,0,1-.08-.59,2.24,2.24,0,0,1-.58,0A1.15,1.15,0,0,1,185,78.56Z" class="cls-2" transform="translate(-90.88 -52.07)"/><path d="M205.14,86.79a3.23,3.23,0,0,0,1.41-.58l.11-.16-.11-.13a3,3,0,0,0-1.52-.35c-.63.05-.88.39-.85.69S204.51,86.85,205.14,86.79ZM203.89,86a3.16,3.16,0,0,0,.75-1.32l0-.19-.16,0a3,3,0,0,0-1.42.66c-.45.43-.44.85-.23,1.07S203.43,86.39,203.89,86Zm-1.09-1.17V84.6l-.17,0a3.08,3.08,0,0,0-1.41.66,1.08,1.08,0,0,0-.37.7l.14.38c.21.22.62.25,1.07-.18A3.08,3.08,0,0,0,202.8,84.79Zm-1.73.15v-.2l-.17,0a3.08,3.08,0,0,0-1.41.66c-.46.43-.45.85-.24,1.07s.63.25,1.08-.18A3.16,3.16,0,0,0,201.07,84.94Zm-1.69.14v-.19l-.17,0a3.08,3.08,0,0,0-1.41.66c-.45.43-.45.85-.24,1.08s.63.25,1.08-.18A3.13,3.13,0,0,0,199.38,85.08Zm-1.73.13V85l-.17,0a3.08,3.08,0,0,0-1.41.66c-.45.43-.44.85-.23,1.07s.63.25,1.08-.18A3.12,3.12,0,0,0,197.65,85.21Zm5.57,2.39a3,3,0,0,0,1.5.42l.16-.08,0-.17a3.17,3.17,0,0,0-1-1.19c-.52-.34-.93-.24-1.1,0S202.7,87.25,203.22,87.6Zm-1.84.14a3.14,3.14,0,0,0,1.5.42l.17-.09,0-.17a3.21,3.21,0,0,0-1-1.19c-.53-.34-.93-.24-1.1,0S200.86,87.39,201.38,87.74Zm-1.73.12a3,3,0,0,0,1.5.42l.16-.08,0-.18a3.12,3.12,0,0,0-1-1.18,1.07,1.07,0,0,0-.76-.21l-.34.22C199.07,87.1,199.13,87.52,199.65,87.86ZM198,88a3,3,0,0,0,1.5.41l.16-.08,0-.17a3.12,3.12,0,0,0-1-1.18c-.52-.35-.93-.25-1.1,0S197.44,87.64,198,88Zm-.23.56.17-.08,0-.17a3.33,3.33,0,0,0-1-1.19c-.52-.34-.93-.24-1.1,0s-.11.67.41,1A3,3,0,0,0,197.73,88.55Z" class="cls-2" transform="translate(-90.88 -52.07)"/><rect width="9.21" height=".68" x="186.22" y="86.89" class="cls-2" transform="matrix(1, -0.06, 0.06, 1, -95.74, -40.55)"/><rect width=".68" height="2.69" x="187.06" y="88.65" class="cls-2" transform="translate(-27.38 204.86) rotate(-79.07)"/><path d="M198.16,92.69a3.22,3.22,0,0,0,1.51-.21l.14-.12-.07-.16a3.16,3.16,0,0,0-1.38-.73c-.62-.1-1,.16-1,.46S197.54,92.58,198.16,92.69Zm-1-1.13a3,3,0,0,0,1.06-1.09l0-.18-.15-.08a3,3,0,0,0-1.54.27c-.54.3-.64.71-.5,1S196.61,91.86,197.16,91.56Zm-.71-1.6-.16-.08a3,3,0,0,0-1.53.28,1.07,1.07,0,0,0-.54.58l0,.39c.15.27.54.41,1.09.11a3.19,3.19,0,0,0,1.06-1.09Zm-1.71-.3-.16-.08a3.1,3.1,0,0,0-1.53.27c-.55.3-.65.71-.5,1s.54.4,1.09.1a3.08,3.08,0,0,0,1.06-1.08Zm-1.67-.3-.15-.08a3,3,0,0,0-1.54.28c-.55.29-.65.7-.5,1s.54.41,1.09.11A3.19,3.19,0,0,0,193,89.55Zm-1.7-.32-.15-.08a3,3,0,0,0-1.54.27c-.55.3-.65.71-.5,1s.54.4,1.09.1a3.08,3.08,0,0,0,1.06-1.08ZM196.09,93a3.12,3.12,0,0,0,1.34.79l.18,0,0-.18a3.09,3.09,0,0,0-.62-1.38c-.41-.47-.82-.48-1.06-.28S195.68,92.5,196.09,93Zm-1.81-.35a3,3,0,0,0,1.34.79l.18,0,0-.17a3.22,3.22,0,0,0-.62-1.39c-.42-.47-.83-.48-1.07-.28S193.87,92.16,194.28,92.63Zm-1.7-.32a3,3,0,0,0,1.34.78l.17,0,0-.18a3.27,3.27,0,0,0-.62-1.39c-.41-.46-.84-.47-1.07-.27S192.16,91.84,192.58,92.31ZM190.91,92a3,3,0,0,0,1.34.79l.18,0,0-.17a3.17,3.17,0,0,0-.62-1.39c-.41-.47-.83-.48-1.06-.28S190.5,91.52,190.91,92Zm-.37.49.19,0,0-.17a3.17,3.17,0,0,0-.62-1.39c-.41-.47-.83-.48-1.07-.28s-.27.61.14,1.09A3.14,3.14,0,0,0,190.54,92.48Z" class="cls-2" transform="translate(-90.88 -52.07)"/><path d="M217.47,83.3,218,86s-1.34-2.48-2.93-2.11a17.54,17.54,0,0,0-3.49,1.07c-1.08.51-1.09,1-1.09,1a1.42,1.42,0,0,0-.13.3,1.91,1.91,0,0,0-1.48.2A5.72,5.72,0,0,0,207.16,88c-.44.68-1.14,1.53-1.65,2.22a12.07,12.07,0,0,0-.84,1.66,4.38,4.38,0,0,1-.88,1.07c-.08.07-.11,0-.19,0l-.17.06h0s-.09-.19-.41,0-.58.31-.69.36,0-.31-.33-.18-.73.76-.81.73-.09-.19-.54.3a1.13,1.13,0,0,0-.25.54c-.13.18-.09.15-.1.56s-.29.74-.25.93.22.36.24.5-.13.22.25.46.39.28.64.44.3-.11.39,0,.13.38.38.31.21.36.46.59.33.28.54,0c0,0,.12,0,.17,0a.92.92,0,0,0,.14-.17,4.56,4.56,0,0,0,0-.57c0-.06-.11-.22,0-.29s.86-.34.89-.2,0,0,0,0l.21.38c.08,0,.09.18.15.1a.38.38,0,0,1,.36-.19.38.38,0,0,0,.44-.26,3,3,0,0,0,0-.66c0-.11.32-.25.44-.35s.34-.44.47-.47a1.38,1.38,0,0,0,.56-.24.38.38,0,0,1,.21-.12l.43.87a13.06,13.06,0,0,0,2-.87c.78-.46,2-1.22,2-1.22a1.31,1.31,0,0,0,.64.17l.15,0a2,2,0,0,0,.44.43c1,.67,2.23.59,4.3.07s2.28-2.28,2.68-3.49l.75,2.9,1.87.3a69.25,69.25,0,0,1-2.21-14A8.13,8.13,0,0,1,217.47,83.3Zm-7.13,7.5a2.59,2.59,0,0,1,.31.21c.11.41.23.84.36,1.26h0c-.12,0-1,.16-1.13.21a4.93,4.93,0,0,1-.82,0,5,5,0,0,1,.27-1.58c.22-.35.43-.74.47-.8S210,90.59,210.34,90.8Z" class="cls-2" transform="translate(-90.88 -52.07)"/><path d="M181,96.8a.54.54,0,0,0,.58.48.53.53,0,0,0,.47-.58.52.52,0,0,0-.57-.48A.54.54,0,0,0,181,96.8Z" class="cls-2" transform="translate(-90.88 -52.07)"/><path d="M179.23,102.29a.53.53,0,0,0,.58.47.51.51,0,0,0,.47-.57.52.52,0,0,0-.57-.48A.54.54,0,0,0,179.23,102.29Z" class="cls-2" transform="translate(-90.88 -52.07)"/><path d="M184.5,103.79a38.55,38.55,0,0,0,7.66,0,30.19,30.19,0,0,0,3.18-.81s-.41-1.89.41-2.69c.35-.34-.23-.47-.77-.49a2.73,2.73,0,0,0-.41,0,10.74,10.74,0,0,0-2.71.21,5.78,5.78,0,0,0-.86.18l-.44.17-1.24.46c-.45.19-.91.36-1.36.53a15.15,15.15,0,0,1-1.54.47,23.59,23.59,0,0,1-4.2.84c-.51,0-.58,0-.59,0s.27.56.46.65A9.65,9.65,0,0,0,184.5,103.79Zm12.55-3.7v1.82l1-.15-.4-1.77-.33-.32a4.48,4.48,0,0,0-.45-1.54,3.13,3.13,0,0,0-2.16-1.88,3.65,3.65,0,0,0-2.17,0,3.23,3.23,0,0,0-.9.46,7.22,7.22,0,0,0-2.58-2.36,6.2,6.2,0,0,0-4.43.06,6.91,6.91,0,0,0-2.74,1.83s-.06.18.1.2a3.76,3.76,0,0,1,2.55,1.24,3.22,3.22,0,0,1,.45.79,9.12,9.12,0,0,0-3.47.16,2.55,2.55,0,0,0-1.82,3.06c0,.35.56-1.27,1.92-.57.79.41.73.58.88,1.11a45.8,45.8,0,0,0,4.6-1.42,4.41,4.41,0,0,0-.14-2.3,5,5,0,0,0-2.55-2.64,5.08,5.08,0,0,1,6.78,3.88l0-.26a8.62,8.62,0,0,1,4-.17.75.75,0,0,1,.73-.57,1.71,1.71,0,0,1,1.27,1Z" class="cls-2" transform="translate(-90.88 -52.07)"/><path d="M183.61,122.3a5,5,0,0,0,4.55-2.9l1.69-.84c-1.06,2.63-3,4.81-6.25,4.68-1.08,0-1.47,1.19-1.64,2.05l-.67-1A2.08,2.08,0,0,1,183.61,122.3Z" class="cls-2" transform="translate(-90.88 -52.07)"/><path d="M182.4,120.76c1.3-.09,2.37.29,3.29-1.38l1.66-.81c-.85,2.25-2.15,3.3-5,3.14-1.08-.06-1.57,1-1.74,2.09l-.57-1A2.21,2.21,0,0,1,182.4,120.76Z" class="cls-2" transform="translate(-90.88 -52.07)"/><path d="M206,144.53a3.68,3.68,0,1,1,2.33,4.65A3.67,3.67,0,0,1,206,144.53Zm2.55,4a3,3,0,1,0-1.88-3.76A3,3,0,0,0,208.53,148.51Z" class="cls-2" transform="translate(-90.88 -52.07)"/><path d="M212.35,137.43a3.68,3.68,0,1,1,2.33,4.65A3.67,3.67,0,0,1,212.35,137.43Zm2.55,4a3,3,0,1,0-1.88-3.76A3,3,0,0,0,214.9,141.41Z" class="cls-2" transform="translate(-90.88 -52.07)"/><path d="M209.26,146.33a.66.66,0,0,0,.85-.43.68.68,0,1,0-.85.43Z" class="cls-2" transform="translate(-90.88 -52.07)"/><path d="M215.63,139.23a.67.67,0,1,0-.43-.85A.67.67,0,0,0,215.63,139.23Z" class="cls-2" transform="translate(-90.88 -52.07)"/><path d="M205.25,61.14l-.75.08a5.29,5.29,0,0,0-.83,2.75,5.21,5.21,0,0,0,.71,2.74c1.56-.14,5.49-.86,6.88-4.64C209.4,60.62,207,60.92,205.25,61.14Zm6.2.33a8.88,8.88,0,0,0,.29-2A5.3,5.3,0,0,0,205,60.58l.21,0C206.86,60.35,209.43,60,211.45,61.47Zm-6.71,5.79a5.36,5.36,0,0,0,1.34,1.26c1.54-.14,5.32-.83,6.78-4.39a6.06,6.06,0,0,0-1.12-1.64C210.28,66.17,206.54,67.05,204.74,67.26Zm8.39-3.89a9.72,9.72,0,0,0,.32-2.22,5.66,5.66,0,0,0-1.14-1.25,9.56,9.56,0,0,1-.36,2A6.07,6.07,0,0,1,213.13,63.37Zm-4.23,6a5.33,5.33,0,0,0,4.76-2.75,10.59,10.59,0,0,0-.49-1.76A8.15,8.15,0,0,1,207,69,5.06,5.06,0,0,0,208.9,69.39Zm4.6-5.27a9.87,9.87,0,0,1,.56,1.62,5.5,5.5,0,0,0,.26-1.58,5.11,5.11,0,0,0-.36-2A7.94,7.94,0,0,1,213.5,64.12Z" class="cls-2" transform="translate(-90.88 -52.07)"/><path d="M204.23,131c-1.28.67-1.61,1.58-.1,3.24l.16.61,1.45-1.22-.4-1-.69-.49Z" class="cls-2" transform="translate(-90.88 -52.07)"/><path d="M204.7,134.53l.83,4s.05.19.13.58a1.52,1.52,0,0,0,1,1.25s-.46.38-.72.55c0,0,0,.59,1.29.47l.67-.71,1.19,4.83.28-.31-.9-4.94,1.21.32.69,1.83,1,.29s.51-.24.24-1.1l-.21-.57,3.14.83.53-.27c.14-.37.09-.71-.58-.93l-3.6-1.18-.35-1.06,1.42-1.62a7.86,7.86,0,0,0,3.37,2.11l.06-.48a6,6,0,0,1-3.22-2.52l-.39-1.5c-.07-.27-.25-.85-.73-.41l-.78.86c.22.11.24.45.12.75l.85-1,.41,1.84L210.33,138c-.27-.25-.44-.18-.69-.15l-1.56.25c-.49-.22-.91-.43-.89-1.23,0,0,2-.7,2.41-.82.64-.17.72-1.17-.4-.94l-1.81.53c.08-.59-.18-.94-1-1Z" class="cls-2" transform="translate(-90.88 -52.07)"/><path d="M221.85,124.12s.46-.35.47-.44l-.47-.54c.55,0,2.76-.25,2.81-.31l-.55-6-2.44.22a1.82,1.82,0,0,1-2-1.65l-.11-1.21a1.82,1.82,0,0,1,1.65-2l2.43-.22c-.33-3.55-.62-6.61-.65-6.63l-2.73.27a2.7,2.7,0,0,0,.34-.57,2.93,2.93,0,0,0-.5-.53h0l-2.24,3.09-.23.22,1.17,13.37.42.28S221.77,124.12,221.85,124.12Zm-1.13-15.23,0-.31a.47.47,0,0,1,.43-.52l1-.08.11,1.26-1,.08A.47.47,0,0,1,220.72,108.89Zm.75,11.53,0-.32a.46.46,0,0,1,.43-.51l1-.08.11,1.26-1,.08A.49.49,0,0,1,221.47,120.42Zm-3.41.27L217,108.46l-7.09,6.63-.06.06.07,0Z" class="cls-2" transform="translate(-90.88 -52.07)"/><path d="M213.74,124.93a3.61,3.61,0,0,0,1.34,1.06l0,0a3.78,3.78,0,0,0-.09-1.76,3.68,3.68,0,0,0,1.7-.2l0,0a3.76,3.76,0,0,0-1.32-1.18,3.57,3.57,0,0,0,1.07-1.34v-.05a3.69,3.69,0,0,0-1.76.1,3.56,3.56,0,0,0-.19-1.7l0,0a3.7,3.7,0,0,0-1.17,1.31,3.68,3.68,0,0,0-1.34-1.07H212a3.78,3.78,0,0,0,.09,1.76,3.72,3.72,0,0,0-1.7.19l0,0a3.69,3.69,0,0,0,1.31,1.18,3.57,3.57,0,0,0-1.07,1.34v0a3.69,3.69,0,0,0,1.76-.1,3.56,3.56,0,0,0,.19,1.7l0,0A3.69,3.69,0,0,0,213.74,124.93Zm-.53-1a.91.91,0,1,1,1.15-.58A.91.91,0,0,1,213.21,123.9Z" class="cls-2" transform="translate(-90.88 -52.07)"/><path d="M208,129.89a3.69,3.69,0,0,0,1,1.37l0,0a3.72,3.72,0,0,0,.36-1.73,3.65,3.65,0,0,0,1.7.25h0a3.71,3.71,0,0,0-1-1.47,3.6,3.6,0,0,0,1.37-1l0,0a3.74,3.74,0,0,0-1.72-.35,3.7,3.7,0,0,0,.24-1.69v-.06a3.71,3.71,0,0,0-1.47,1,3.69,3.69,0,0,0-1-1.37l0,0a3.7,3.7,0,0,0-.36,1.72,3.7,3.7,0,0,0-1.69-.24h0a3.59,3.59,0,0,0,1,1.47,3.66,3.66,0,0,0-1.38,1l0,0a3.72,3.72,0,0,0,1.73.36,3.61,3.61,0,0,0-.25,1.69v0A3.65,3.65,0,0,0,208,129.89Zm-.24-1.13a.9.9,0,0,1-.26-1.26.89.89,0,0,1,1.25-.26.91.91,0,1,1-1,1.52Z" class="cls-2" transform="translate(-90.88 -52.07)"/><path d="M216.07,131.9a3.63,3.63,0,0,0,1.59.64h.06a3.73,3.73,0,0,0-.6-1.66,3.57,3.57,0,0,0,1.57-.68l0,0a3.64,3.64,0,0,0-1.6-.75,3.68,3.68,0,0,0,.64-1.59v-.06a3.73,3.73,0,0,0-1.66.6,3.6,3.6,0,0,0-.67-1.57l0,0a3.76,3.76,0,0,0-.75,1.59,3.57,3.57,0,0,0-1.59-.63H213a3.67,3.67,0,0,0,.59,1.66,3.6,3.6,0,0,0-1.57.67l0,0a3.75,3.75,0,0,0,1.6.75,3.63,3.63,0,0,0-.64,1.59v0a3.73,3.73,0,0,0,1.66-.6,3.6,3.6,0,0,0,.67,1.58l0,0A3.75,3.75,0,0,0,216.07,131.9Zm-.8-.83a.91.91,0,1,1,.94-.88A.92.92,0,0,1,215.27,131.07Z" class="cls-2" transform="translate(-90.88 -52.07)"/><path d="M190.26,134.89c.59-.74,3.43-3.8,3.43-3.8s3.47-1.17,4.46-1.54,1.3-1,.6-1.75-2.71-2.47-3.45-3.12l-1.16.8,1,1.44.88-.5,2.33,2.14-3.06,1-.5-.72-3.46,2.29.51.85-2.37,2.46-.94-3.2.8-.64L187,127.29l-.89.48-2.52-2.31,3.16-1.09.6.88,3.39-2.22-.55-.85,2.21-2.47,1.18,3.19-.84.57,1,1.49,1.15-.79c-.33-.9-1.33-3.69-1.6-4.45-.33-.92-.82-1.25-1.66-.47s-3.47,3.87-3.47,3.87-3.61,1.2-4.78,1.61a.93.93,0,0,0-.27,1.63c.46.41,4,3.44,4,3.44s1.24,3.79,1.49,4.72S189.66,135.63,190.26,134.89Zm-3.33-9.17-.36-.43-1.66.45,1.3,1.24.57-.39c.29-.19.51-.15.85.3l2.18,3.21c.32.46.26,1-.52,1.48l.46,1.62L191,132l-.3-.57c-.3-.54-.21-.6.2-.85l3.45-2.26s.67-.49,1.25.47l1.5-.5-1.13-1-.65.32s-.46.27-.91-.44l-2-2.92c-.29-.42-.59-.82-.18-1.2l.56-.42-.53-1.62-1.1,1.26.35.56c.22.33.08.65-.49,1l-3.15,2C187.4,126.21,187.31,126.14,186.93,125.72Z" class="cls-2" transform="translate(-90.88 -52.07)"/><path d="M201.79,106.12a.76.76,0,0,0,0,.16l5.76-2.54a4.83,4.83,0,0,0-.52-.23A4.12,4.12,0,0,0,201.79,106.12Zm-8.36,4.47c.09,0,.14-.29,0-.67l1.58-.69,2.77-1.22,2.93-1.29a5.31,5.31,0,0,1,.19-.88,5,5,0,0,1,6.33-3.17,4.76,4.76,0,0,1,1.23.63l.42-.18c1.68-.76,1.24-1.53,1.24-1.53a12.16,12.16,0,0,0-.79-1.68c-.43-.74-1-.36-1.68-.08l-11.3,5L193.62,106l-1.55.68c-.19-.26-.4-.36-.49-.32s.07,1.09.58,2.25S193.24,110.67,193.43,110.59Z" class="cls-2" transform="translate(-90.88 -52.07)"/><path d="M201.07,107.41l-2.78,1.22.42,1,11.46-5s1.7,1.8,6.41-.24a18.6,18.6,0,0,1,6.18-1.65l-.11-1.07s-2.1-.16-6.06,1.52c-5.36,2.27-6,.1-6,.1l-1.88.83Z" class="cls-2" transform="translate(-90.88 -52.07)"/><path d="M209.84,100a.64.64,0,1,1,.51,1.16Z" class="cls-2" transform="translate(-90.88 -52.07)"/><path d="M204.29,111.68a4.49,4.49,0,1,0-2.85-5.68A4.49,4.49,0,0,0,204.29,111.68Zm.25-.75a3.7,3.7,0,1,1,4.67-2.35A3.71,3.71,0,0,1,204.54,110.93Z" class="cls-2" transform="translate(-90.88 -52.07)"/><path d="M203.06,110.33a.27.27,0,0,1-.19-.11l-.23-.27a.26.26,0,0,1-.06-.21.25.25,0,0,1,.1-.18l1.82-1.41a1.41,1.41,0,0,1-.17-1.07L202.28,106a.23.23,0,0,1-.13-.17.26.26,0,0,1,0-.21l.2-.3a.23.23,0,0,1,.17-.12.26.26,0,0,1,.21,0l1.89,1.28a1.4,1.4,0,0,1,1-.46l.44-2.32a.29.29,0,0,1,.13-.18.26.26,0,0,1,.21,0l.35.09a.31.31,0,0,1,.17.13.3.3,0,0,1,0,.21l-.64,2.23a1.41,1.41,0,0,1,.71.75l2.37-.3a.26.26,0,0,1,.21.06.26.26,0,0,1,.1.19l0,.36a.24.24,0,0,1-.07.2.25.25,0,0,1-.19.09l-2.34.08a1.59,1.59,0,0,1-.06.3,1.37,1.37,0,0,1-.42.61l1,2.16a.24.24,0,0,1,0,.22.25.25,0,0,1-.15.15l-.34.14a.3.3,0,0,1-.21,0,.25.25,0,0,1-.14-.16l-.79-2.19a1.35,1.35,0,0,1-.77,0,1.39,1.39,0,0,1-.28-.12l-1.72,1.61A.3.3,0,0,1,203.06,110.33Z" class="cls-2" transform="translate(-90.88 -52.07)"/></svg>