<?xml version="1.0" encoding="utf-8"?>
<!-- Generator: Adobe Illustrator 15.0.2, SVG Export Plug-In . SVG Version: 6.00 Build 0)  -->
<!DOCTYPE svg PUBLIC "-//W3C//DTD SVG 1.1//EN" "http://www.w3.org/Graphics/SVG/1.1/DTD/svg11.dtd">
<svg version="1.1" id="Laag_1" xmlns="http://www.w3.org/2000/svg" xmlns:xlink="http://www.w3.org/1999/xlink" x="0px" y="0px"
	 width="571px" height="128px" viewBox="0 0 571 128" enable-background="new 0 0 571 128" xml:space="preserve">
<g>
	<path fill="#004A93" d="M17.922,99.025v20.849c0,2.973-0.762,4.614-2.667,5.754C13.692,126.543,11.787,127,9.271,127
		c-1.677,0-3.62-0.342-6.859-1.182v-2.17c2.401,0.571,4.535,0.84,6.441,0.84c4.499,0,5.832-1.146,5.832-5.036v-2.248
		c-0.19,0.074-0.306,0.113-0.419,0.151c-2.898,1.107-4.08,1.412-5.223,1.412c-4.838,0-8.042-3.811-8.042-9.529
		c0-5.944,4.042-10.443,9.34-10.443c1.524,0,2.629,0.268,4.457,0.992v-0.764H17.922z M14.684,101.465
		c-0.916-0.23-2.209-0.385-3.279-0.385c-4.343,0-6.861,2.864-6.861,7.853c0,4.653,2.29,7.32,6.329,7.32
		c1.334,0,2.668-0.151,3.812-0.458V101.465z"/>
	<path fill="#004A93" d="M39.877,117.663c-3.316,0.762-5.22,1.067-6.593,1.067c-5.757,0-8.881-3.314-8.881-9.454
		c0-6.629,3.279-10.595,8.688-10.595c3.776,0,6.253,1.792,7.169,5.262c0.339,1.181,0.458,2.323,0.493,4.762H27.909
		c0.037,0.117,0.037,0.227,0.037,0.268v0.685c0.077,4.573,2.212,6.594,6.975,6.594c1.299,0,2.707-0.114,4.956-0.419V117.663z
		 M37.17,106.76c0-4.342-1.257-6.057-4.384-6.057c-3.126,0-4.84,2.134-4.877,6.057H37.17z"/>
	<path fill="#004A93" d="M47.271,99.025h3.163v1.22c3.809-1.333,5.067-1.641,6.515-1.641c1.871,0,3.32,0.573,4.499,1.755
		c0.228-0.076,0.417-0.114,0.534-0.15c2.592-0.841,4.573-1.413,5.526-1.567c0.229-0.039,0.722-0.074,1.218-0.074
		c4.536,0,6.33,2.099,6.33,7.395v12.424h-3.239V106.61c0-4.192-1.069-5.489-4.537-5.489c-1.41,0-3.392,0.268-4.992,0.724
		c0.304,0.61,0.493,1.601,0.493,2.899v13.643h-3.238V105.81c0-3.469-1.105-4.65-4.42-4.65c-1.413,0-3.126,0.189-4.613,0.572v16.655
		h-3.239V99.025z"/>
	<path fill="#004A93" d="M96.931,117.663c-3.315,0.762-5.221,1.067-6.594,1.067c-5.752,0-8.88-3.314-8.88-9.454
		c0-6.629,3.278-10.595,8.69-10.595c3.774,0,6.252,1.792,7.166,5.262c0.341,1.181,0.458,2.323,0.495,4.762H84.964
		c0.04,0.117,0.04,0.227,0.04,0.268v0.685c0.074,4.573,2.209,6.594,6.972,6.594c1.298,0,2.707-0.114,4.956-0.419V117.663z
		 M94.224,106.76c0-4.342-1.259-6.057-4.385-6.057c-3.123,0-4.836,2.134-4.875,6.057H94.224z"/>
	<path fill="#004A93" d="M118.58,117.663c-3.317,0.762-5.223,1.067-6.593,1.067c-5.758,0-8.881-3.314-8.881-9.454
		c0-6.629,3.275-10.595,8.688-10.595c3.775,0,6.252,1.792,7.166,5.262c0.342,1.181,0.457,2.323,0.496,4.762h-12.843
		c0.035,0.117,0.035,0.227,0.035,0.268v0.685c0.078,4.573,2.211,6.594,6.977,6.594c1.298,0,2.707-0.114,4.955-0.419V117.663z
		 M115.875,106.76c0-4.342-1.26-6.057-4.382-6.057c-3.13,0-4.844,2.134-4.879,6.057H115.875z"/>
	<path fill="#004A93" d="M125.973,99.025h3.161v1.22c3.583-1.333,4.765-1.641,6.369-1.641c1.867,0,3.693,0.764,4.649,1.909
		c0.949,1.181,1.333,2.667,1.333,5.489v12.384h-3.238v-11.701c0-4.268-1.066-5.565-4.538-5.565c-1.373,0-2.858,0.19-4.499,0.611
		v16.655h-3.238V99.025z"/>
	<path fill="#004A93" d="M146.858,99.025h2.898v-4.84l3.24-1.296v6.136h6.365v2.055h-6.365v11.82c0,2.398,0.761,3.164,3.124,3.164
		c0.953,0,2.288-0.114,3.241-0.269v1.942c-2.747,0.688-3.774,0.88-4.842,0.88c-3.35,0-4.762-1.488-4.762-4.953V101.08h-2.898V99.025
		z"/>
	<path fill="#004A93" d="M178.757,117.663c-3.315,0.762-5.221,1.067-6.593,1.067c-5.753,0-8.88-3.314-8.88-9.454
		c0-6.629,3.276-10.595,8.687-10.595c3.776,0,6.254,1.792,7.168,5.262c0.345,1.181,0.456,2.323,0.495,4.762h-12.848
		c0.041,0.117,0.041,0.227,0.041,0.268v0.685c0.077,4.573,2.213,6.594,6.979,6.594c1.29,0,2.703-0.114,4.952-0.419V117.663z
		 M176.051,106.76c0-4.342-1.26-6.057-4.385-6.057c-3.124,0-4.839,2.134-4.88,6.057H176.051z"/>
</g>
<g>
	<path fill="#004A93" d="M282.311,73.539h10.291c5.972,0,8.639,0.446,10.927,1.97c2.796,1.78,4.319,4.827,4.319,8.768
		c0,5.335-3.177,9.146-8.828,10.668c6.605,0.827,10.419,4.83,10.419,10.99c0,4.764-2.354,8.831-6.355,10.801
		c-2.542,1.267-4.953,1.65-10.798,1.65h-9.975V73.539z M292.35,93.294c6.289,0,9.464-2.796,9.464-8.384
		c0-5.651-2.732-7.814-9.847-7.814h-4.063v16.198H292.35z M292.35,114.829c4.382,0,6.353-0.442,8.191-1.906
		c1.779-1.461,2.86-4.064,2.86-7.175c0-6.165-3.05-8.833-10.289-8.833h-5.209v17.914H292.35z"/>
	<path fill="#004A93" d="M342.339,117.178c-5.523,1.274-8.7,1.781-10.987,1.781c-9.592,0-14.803-5.528-14.803-15.753
		c0-11.054,5.465-17.66,14.483-17.66c6.288,0,10.416,2.986,11.943,8.766c0.573,1.969,0.762,3.876,0.827,7.943h-21.406
		c0.06,0.186,0.06,0.378,0.06,0.442v1.143c0.13,7.621,3.686,10.989,11.629,10.989c2.154,0,4.508-0.19,8.254-0.696V117.178z
		 M337.831,99.016c0-7.245-2.096-10.106-7.305-10.106c-5.211,0-8.07,3.558-8.13,10.106H337.831z"/>
	<path fill="#004A93" d="M358.03,86.118v2.414c4.633-2.036,6.986-2.861,8.254-2.861c1.338,0,2.418,0.257,3.434,0.825v5.147
		c-1.715-0.888-3.875-1.334-6.481-1.334c-1.461,0-3.427,0.257-5.078,0.635v27.442h-5.4V86.118H358.03z"/>
	<path fill="#004A93" d="M376.315,69.219h5.404v49.168h-5.404V69.219z M382.414,100.473l13.659-14.355h6.475l-14.099,13.724
		l14.099,18.545H395.5L382.414,100.473z"/>
	<path fill="#004A93" d="M431.336,117.178c-5.531,1.274-8.705,1.781-10.992,1.781c-9.594,0-14.801-5.528-14.801-15.753
		c0-11.054,5.46-17.66,14.482-17.66c6.289,0,10.421,2.986,11.941,8.766c0.573,1.969,0.763,3.876,0.827,7.943h-21.407
		c0.062,0.186,0.062,0.378,0.062,0.442v1.143c0.126,7.621,3.684,10.989,11.625,10.989c2.161,0,4.51-0.19,8.262-0.696V117.178z
		 M426.822,99.016c0-7.245-2.098-10.106-7.307-10.106s-8.066,3.558-8.129,10.106H426.822z"/>
	<path fill="#004A93" d="M441.746,69.219h5.4v49.168h-5.4V69.219z"/>
	<path fill="#004A93" d="M458.075,69.219h5.399v49.168h-5.399V69.219z"/>
	<path fill="#004A93" d="M491.235,118.387v-1.969c-0.258,0.062-0.448,0.127-0.573,0.188c-6.543,2.224-6.609,2.224-8.64,2.224
		c-5.782,0-9.593-3.617-9.593-9.08c0-5.467,3.176-8.579,9.401-9.212c3.049-0.317,4.511-0.382,9.21-0.382v-4.513
		c0-4.25-1.713-5.907-6.097-5.907c-2.671,0-5.912,0.384-9.657,1.019V87.58c6.226-1.521,9.088-2.034,11.562-2.034
		c3.3,0,5.91,0.891,7.498,2.602c1.585,1.718,2.097,3.623,2.097,8.386v21.853H491.235z M491.041,103.141
		c-4.382,0.193-4.827,0.193-6.922,0.51c-4.003,0.509-5.908,2.352-5.908,5.653c0,3.619,2.35,5.461,6.922,5.461
		c1.904,0,3.689-0.189,5.908-0.698V103.141z"/>
	<path fill="#004A93" d="M507.239,86.118h5.272v2.03c5.971-2.22,7.942-2.731,10.608-2.731c3.111,0,6.159,1.273,7.748,3.178
		c1.591,1.972,2.225,4.448,2.225,9.147v20.645h-5.398V98.885c0-7.114-1.782-9.273-7.562-9.273c-2.288,0-4.763,0.316-7.492,1.015
		v27.76h-5.401V86.118z"/>
	<path fill="#004A93" d="M564.6,118.387v-1.906c-0.252,0.064-0.442,0.126-0.571,0.191c-5.079,1.843-6.988,2.349-8.894,2.349
		c-8.066,0-13.403-6.352-13.403-15.88c0-9.91,6.732-17.405,15.628-17.405c2.478,0,4.891,0.512,7.24,1.586V69.219h5.4v49.168H564.6z
		 M564.6,90.183c-1.524-0.381-3.686-0.633-5.462-0.633c-7.306,0-11.5,4.762-11.5,13.083c0,7.749,3.877,12.196,10.546,12.196
		c2.288,0,4.445-0.253,6.416-0.762V90.183z"/>
</g>
<g>
	<polygon fill="#E68000" points="228.732,104.678 223.214,105.609 217.31,102.761 211.06,103.684 193.611,96.342 209.378,94.323 	
		"/>
	<polygon fill="#E68000" points="233.164,83.067 226.945,84.467 220.033,78.008 211.554,79.162 199.727,69.688 219.079,65.781 	"/>
	<polygon fill="#E68000" points="225.808,56.222 234.421,53.972 239.615,60.137 244.587,58.348 232.891,38.888 211.86,43.687 	"/>
	<polygon fill="#E68000" points="245.595,39.237 256.083,36.234 260.211,44.047 266.665,42.569 255.099,17.493 234.492,22.911 	"/>
	<polygon fill="#E68000" points="268.122,24.97 279.955,22.824 282.054,28.268 288.659,27.566 282.169,4.216 262.652,7.738 	"/>
	<polygon fill="#E68000" points="291.542,19.85 302.029,19.87 302.263,23.06 310.582,23.837 309.743,1 291.041,1.519 	"/>
	<polygon fill="#E68000" points="317.503,7.789 317.225,18.176 320.976,19.132 321.023,22.555 331.233,26.463 335.804,5.716 	"/>
	<polygon fill="#E68000" points="340.538,23.044 358.454,22.077 347.383,38.941 337.318,30.324 	"/>
	<polygon fill="#E68000" points="352.153,45.63 358.979,54.3 373.511,42.173 356.301,38.71 	"/>
	<path fill="#E68000" d="M317.43,19.305"/>
</g>
</svg>
