<svg viewBox="0 0 24 21" xmlns="http://www.w3.org/2000/svg" fill-rule="evenodd" clip-rule="evenodd" stroke-linejoin="round" stroke-miterlimit="2"><path d="M7.593 8.473L5.668 6.509l1.925 1.964zm-6.372 2.541l1.926 1.955.586-.586-1.925-1.955-.587.586zm10.223-6.46L9.519 2.6l1.925 1.954zm2.571-2.599L12.078 0l-.635.645L13.379 2.6l.635-.645h.001z" fill="#20b6ea" fill-rule="nonzero"/><path d="M13.379 6.509l-1.935-1.955 1.935 1.955zm-3.86 3.919L7.593 8.473l1.926 1.955z" fill="#f281b1" fill-rule="nonzero"/><path d="M5.668 14.337l-.586.596 1.925 1.955.586-.596-1.925-1.955zm12.197-8.463L15.94 3.909l-.636.645 1.926 1.955.635-.635zm-2.56 2.599l-1.926-1.954 1.925 1.954h.001zm-5.786 1.955l1.925 1.955h.01l-1.935-1.955z" fill="#f7ec33" fill-rule="nonzero"/><path d="M19.165 8.473l.635-.645-1.935-1.954-.635.645 1.935 1.954zm-7.711 3.91l1.925 1.954-1.925-1.954zm3.851-3.91l1.925 1.955-1.926-1.955h.001zM17.23 6.509v.01l.635-.645-.635.635zm-5.786 5.874h.01-.01zm-3.851 3.909l-.586.596.586-.596z" fill="#8dc640" fill-rule="nonzero"/><path d="M8.932 18.843l1.935 1.954.577-.596-1.925-1.955-.587.597zm10.233-10.37l1.925 1.955.635-.645L19.8 7.828l-.635.645zm-5.786 5.864l1.925 1.955-1.925-1.955zm3.851-3.909l1.935 1.955-1.935-1.955zm-7.711 7.818l-.587.597.587-.597zm9.646-9.773l.635-.645-.635.645z" fill="#059960" fill-rule="nonzero"/><path d="M17.23 14.337l-1.926 1.955.45.45.146.156 1.926-1.955-.196-.205-.4-.4v-.001zM6.968 3.929L5.043 5.883l.625.626 1.925-1.955-.625-.625zm4.476 4.544l-1.925 1.955 1.925-1.955zM9.519 6.519L7.974 8.082l1.545-1.563z" fill="#f281b1" fill-rule="nonzero"/><path d="M9.519 6.509L7.593 4.554 5.668 6.509l1.925 1.964 1.926-1.964z" fill="#20b6ea" fill-rule="nonzero"/><path d="M7.593 4.554L5.668 6.509l1.437 1.476.488.488.381-.39 1.545-1.564-1.926-1.965z" fill="#6966ac" fill-rule="nonzero"/><path d="M11.444 8.473L9.519 6.509 7.593 8.473l1.926 1.955 1.925-1.955z" fill="#f281b1" fill-rule="nonzero"/><path d="M9.519 6.519L7.593 8.473l1.926 1.955 1.925-1.955-1.925-1.954z" fill="#eb4a97" fill-rule="nonzero"/><path d="M9.519 10.428l1.935 1.955 1.925-1.955-1.935-1.955-1.925 1.955z" fill="#f7ec33" fill-rule="nonzero"/><path d="M11.444 8.473l-1.925 1.955 1.925 1.955h.01l1.436-1.466.489-.49-1.935-1.954z" fill="#e77b35" fill-rule="nonzero"/><path d="M11.454 12.383l1.925 1.954 1.925-1.954-1.925-1.955-1.925 1.955z" fill="#8dc640" fill-rule="nonzero"/><path d="M13.379 10.428l-1.925 1.955 1.925 1.954 1.925-1.954-1.925-1.955z" fill="#936d3a" fill-rule="nonzero"/><path d="M11.444 12.383h.01l1.925-1.955-1.935 1.955z" fill="#8dc640" fill-rule="nonzero"/><path d="M13.379 10.428l-.489.489-1.436 1.466 1.925-1.955z" fill="#936d3a" fill-rule="nonzero"/><path d="M15.305 12.383l-1.926 1.954 1.925 1.955 1.926-1.955-1.926-1.954h.001z" fill="#059960" fill-rule="nonzero"/><path d="M15.305 12.383l-1.29 1.3-.636.654.958.977.967.978 1.926-1.955-1.926-1.954h.001z" fill="#4c5c4e" fill-rule="nonzero"/><path d="M13.379 14.337l1.925-1.954-1.925 1.954z" fill="#059960" fill-rule="nonzero"/><path d="M15.305 12.383l-1.926 1.954 1.925-1.954h.001z" fill="#4c5c4e" fill-rule="nonzero"/><path d="M7.593 8.473l-1.925 1.955 1.925-1.955zm7.712 7.819l-1.29 1.3-.636.654.293.303.303.303h-.01l1.935-1.954-.146-.157-.45-.45.001.001z" fill="#f9ed32" fill-rule="nonzero"/><path d="M15.9 16.898l-.146-.147.146.147z" fill="#e77b35" fill-rule="nonzero"/><path d="M9.519 10.428l-1.926 1.955 1.926-1.955zM5.043 5.883L3.107 7.838h.01l.616.626.577-.587 1.358-1.368-.625-.626z" fill="#f9ed32" fill-rule="nonzero"/><path d="M5.043 5.883l.205.206-.205-.206z" fill="#e77b35" fill-rule="nonzero"/><path d="M5.668 10.428l1.925-1.955-1.925-1.964-1.935 1.955 1.935 1.964z" fill="#20b6ea" fill-rule="nonzero"/><path d="M5.668 6.509L4.31 7.877l-.577.587.528.537 1.407 1.427 1.925-1.955-.488-.488-1.437-1.476z" fill="#59ad55" fill-rule="nonzero"/><path d="M7.593 8.473l-1.925 1.955 1.925 1.955 1.926-1.955-1.926-1.955z" fill="#f281b1" fill-rule="nonzero"/><path d="M7.593 8.473l-1.925 1.955 1.026 1.036.9.919 1.925-1.955-1.926-1.955z" fill="#e77b35" fill-rule="nonzero"/><path d="M1.974 14.151L0 16.126 1.974 18.1l1.974-1.974-1.974-1.975z" fill="#f9ed32" fill-rule="nonzero"/><path d="M9.519 10.428l-1.926 1.955 1.926 1.954 1.925-1.954-1.925-1.955z" fill="#f7ec33" fill-rule="nonzero"/><path d="M9.519 10.428l-1.926 1.955 1.447 1.466.479.488 1.925-1.954-1.925-1.955z" fill="#ebe415" fill-rule="nonzero"/><path d="M9.519 14.337l1.935 1.955 1.925-1.955-1.925-1.954-1.935 1.954z" fill="#8dc640" fill-rule="nonzero"/><path d="M11.454 12.383l-1.935 1.954 1.935 1.955 1.925-1.955-1.925-1.954z" fill="#86c240" fill-rule="nonzero"/><path d="M11.444 12.383l-1.925 1.954 1.935-1.954h-.01z" fill="#8dc640" fill-rule="nonzero"/><path d="M11.444 12.383l-1.925 1.954 1.935-1.954h-.01z" fill="#86c240" fill-rule="nonzero"/><path d="M11.454 16.292l1.925 1.954 1.925-1.954-1.925-1.955-1.925 1.955z" fill="#8dc640" fill-rule="nonzero"/><path d="M11.444 16.292h.01l1.925-1.955-1.935 1.955z" fill="#059960" fill-rule="nonzero"/><path d="M13.379 14.337l-1.925 1.955 1.925-1.955z" fill="#0f974a" fill-rule="nonzero"/><path d="M8.932 2.003l-.625-.625-1.926 1.955.626.625 1.925-1.955z" fill="#20b6ea" fill-rule="nonzero"/><path d="M19.155 12.383l-1.925 1.954.596.606 1.925-1.955-.596-.605zM11.17 4.838l-.684.694-.967.977 1.651-1.671zm2.209 1.681l-.968.977-.957.977 1.925-1.954z" fill="#f9ed32" fill-rule="nonzero"/><path d="M9.519 6.509l1.925-1.955L9.519 2.6 7.593 4.554l1.926 1.955z" fill="#20b6ea" fill-rule="nonzero"/><path d="M9.519 2.6L7.593 4.554l1.926 1.955 1.651-1.671.274-.284-.958-.977-.967-.977z" fill="#59ad55" fill-rule="nonzero"/><path d="M13.379 6.509l-1.935-1.955-1.925 1.955 1.925 1.964 1.935-1.964z" fill="#f281b1" fill-rule="nonzero"/><path d="M11.444 4.554l-.274.284-1.651 1.67 1.925 1.965 1.935-1.954-1.935-1.965z" fill="#e77b35" fill-rule="nonzero"/><path d="M13.379 10.428l1.925-1.955-1.925-1.954-1.925 1.954 1.925 1.955z" fill="#f7ec33" fill-rule="nonzero"/><path d="M13.379 6.519l-1.925 1.954 1.925 1.955 1.925-1.955-1.29-1.31-.635-.644z" fill="#ebe415" fill-rule="nonzero"/><path d="M13.379 10.428l1.925-1.955-1.925 1.955z" fill="#8dc640" fill-rule="nonzero"/><path d="M15.305 8.473l-1.926 1.955 1.925-1.955h.001z" fill="#86c240" fill-rule="nonzero"/><path d="M15.305 12.383l1.925 1.954 1.925-1.954-1.925-1.955-1.926 1.955h.001z" fill="#059960" fill-rule="nonzero"/><path d="M21.002 14.25l-1.935 1.954 1.935 1.954 1.925-1.954-1.925-1.955v.001z" fill="#f9ed32" fill-rule="nonzero"/><path d="M15.305 12.383l1.925-1.955-1.926 1.955h.001z" fill="#059960" fill-rule="nonzero"/><path d="M17.23 10.428l-1.926 1.955 1.926-1.955z" fill="#0f974a" fill-rule="nonzero"/><path d="M17.23 14.337l.4.4.196.206-.596-.606z" fill="#e77b35" fill-rule="nonzero"/><path d="M17.23 14.337l.4.4-.4-.4z" fill="#e34b32" fill-rule="nonzero"/><path d="M17.23 14.337l.596.606-.596-.606z" fill="#de7929" fill-rule="nonzero"/><path d="M11.444 8.473h.01-.01zM6.968 3.929l.625.625-.625-.625z" fill="#e77b35" fill-rule="nonzero"/><path d="M7.593 4.554l1.926 1.965v-.01L7.593 4.554z" fill="#20b6ea" fill-rule="nonzero"/><path d="M7.593 4.554l1.926 1.965v-.01L7.593 4.554z" fill="#706546" fill-rule="nonzero"/><path d="M11.444 8.473L9.519 6.509l1.925 1.964z" fill="#f281b1" fill-rule="nonzero"/><path d="M9.519 6.509l1.925 1.964-1.925-1.964z" fill="#e34b32" fill-rule="nonzero"/><path d="M13.379 10.428l-1.925-1.955h-.01l1.935 1.955z" fill="#f7ec33" fill-rule="nonzero"/><path d="M11.454 8.473h-.01l1.935 1.955-1.925-1.955z" fill="#de7929" fill-rule="nonzero"/><path d="M13.379 10.428l1.925 1.955-1.925-1.955z" fill="#8dc640" fill-rule="nonzero"/><path d="M13.379 10.428l1.925 1.955-1.925-1.955z" fill="#8f6c39" fill-rule="nonzero"/><path d="M17.23 14.337l-1.926-1.954 1.926 1.954z" fill="#059960" fill-rule="nonzero"/><path d="M15.305 12.383l1.925 1.954-1.926-1.954h.001z" fill="#4b5b3e" fill-rule="nonzero"/><path d="M13.379 18.246l-1.925 1.955.586.606 1.925-1.955-.586-.606zM3.107 7.838L1.182 9.793l.626.635 1.925-1.955-.626-.635zm2.561 2.59l-1.231 1.241-.704.714 1.935-1.955zm1.925 1.955l-1.925 1.954 1.925-1.954z" fill="#8ac641" fill-rule="nonzero"/><path d="M3.733 8.473l-1.925 1.955 1.925 1.955 1.935-1.955-1.935-1.955z" fill="#20b6ea" fill-rule="nonzero"/><path d="M3.733 8.473l-1.925 1.955 1.925 1.955 1.935-1.955-1.935-1.955z" fill="#00a44c" fill-rule="nonzero"/><path d="M9.519 14.337l-1.926-1.954-1.925 1.954 1.925 1.955 1.926-1.955z" fill="#f7ec33" fill-rule="nonzero"/><path d="M7.593 12.383l-1.925 1.954 1.925 1.955 1.926-1.955-1.926-1.954z" fill="#86c240" fill-rule="nonzero"/><path d="M9.519 14.337l-1.926 1.955 1.926 1.954 1.925-1.954-1.925-1.955z" fill="#8dc640" fill-rule="nonzero"/><path d="M9.519 14.337l-1.926 1.955 1.926 1.954 1.925-1.954-1.925-1.955z" fill="#36b24a" fill-rule="nonzero"/><path d="M9.519 14.337l-1.926 1.955 1.926-1.955z" fill="#8dc640" fill-rule="nonzero"/><path d="M9.519 14.337l-1.926 1.955 1.926-1.955z" fill="#36b24a" fill-rule="nonzero"/><path d="M11.444 16.292l-1.925 1.954 1.925 1.955 1.935-1.955-1.935-1.954z" fill="#059960" fill-rule="nonzero"/><path d="M11.444 16.292l-1.925 1.954 1.925 1.955 1.935-1.955-1.935-1.954z" fill="#00944a" fill-rule="nonzero"/><path d="M9.519 18.246l1.925-1.954-1.925 1.954z" fill="#059960" fill-rule="nonzero"/><path d="M11.444 16.292l-1.925 1.954 1.925-1.954z" fill="#00944a" fill-rule="nonzero"/><path d="M13.379 18.246l.586.606h.01l-.303-.303-.293-.303z" fill="#86c240" fill-rule="nonzero"/><path d="M13.975 18.852l-.293-.303.293.303z" fill="#7ec042" fill-rule="nonzero"/><path d="M13.379 18.246l.293.303-.293-.303z" fill="#30b14a" fill-rule="nonzero"/><path d="M3.117 7.838h-.01l.626.635v-.01l-.616-.625z" fill="#86c240" fill-rule="nonzero"/><path d="M3.117 7.838h-.01.01l.616.626-.616-.626z" fill="#7ec042" fill-rule="nonzero"/><path d="M3.107 7.838l.626.635-.626-.635z" fill="#30b14a" fill-rule="nonzero"/><path d="M3.733 8.464v.01l1.935 1.954-1.935-1.964z" fill="#20b6ea" fill-rule="nonzero"/><path d="M3.733 8.463v.011l1.935 1.954L4.261 9l-.528-.537z" fill="#00a44b" fill-rule="nonzero"/><path d="M5.668 10.428l1.925 1.955-1.925-1.955z" fill="#f281b1" fill-rule="nonzero"/><path d="M5.668 10.428l1.925 1.955-.899-.92-1.026-1.035z" fill="#8f6c39" fill-rule="nonzero"/><path d="M7.593 12.383l1.926 1.954-1.926-1.954z" fill="#f7ec33" fill-rule="nonzero"/><path d="M7.593 12.383l1.447 1.466-1.447-1.466z" fill="#7ec042" fill-rule="nonzero"/><path d="M7.593 12.383l1.447 1.466-1.447-1.466z" fill="#79bc43" fill-rule="nonzero"/><path d="M7.593 12.383l1.926 1.954-.48-.488-1.446-1.466z" fill="#7ec042" fill-rule="nonzero"/><path d="M9.519 14.337l1.925 1.955h.01l-1.935-1.955z" fill="#8dc640" fill-rule="nonzero"/><path d="M9.519 14.337l1.925 1.955h.01-.01l-1.925-1.955z" fill="#30b14a" fill-rule="nonzero"/><path d="M13.379 18.246l-1.925-1.954h-.01l1.935 1.954z" fill="#059960" fill-rule="nonzero"/><path d="M11.454 16.292h-.01l1.935 1.954-1.925-1.954z" fill="#00934a" fill-rule="nonzero"/><path d="M11.444 16.292h.01-.01z" fill="#059960" fill-rule="nonzero"/><path d="M11.444 16.292h.01-.01z" fill="#00914a" fill-rule="nonzero"/><path d="M11.444 16.292h.01-.01z" fill="#00934a" fill-rule="nonzero"/><path d="M21.09 10.428l-1.925 1.955.586.605 1.935-1.964-.596-.596zM13.379 2.6l-1.935 1.954L13.379 2.6zm1.926 1.954l-1.926 1.965 1.925-1.965h.001zM10.828.01L8.893 1.964l.626.636L11.444.645 10.828.01z" fill="#8ac641" fill-rule="nonzero"/><path d="M13.379 2.6L11.444.645 9.519 2.6l1.925 1.954L13.379 2.6z" fill="#20b6ea" fill-rule="nonzero"/><path d="M11.444.645L9.519 2.6l1.925 1.954L13.379 2.6 11.444.645z" fill="#00a44c" fill-rule="nonzero"/><path d="M13.379 6.509l1.925-1.955L13.379 2.6l-1.935 1.954 1.935 1.955z" fill="#f281b1" fill-rule="nonzero"/><path d="M15.871.068l-.547.557 1.925 1.955.547-.547v-.01L15.871.068z" fill="#8ac641" fill-rule="nonzero"/><path d="M15.305 8.473l1.925-1.964-1.926-1.955-1.925 1.965 1.925 1.954h.001z" fill="#f7ec33" fill-rule="nonzero"/><path d="M15.305 4.554l-1.926 1.965 1.925 1.954.645-.655 1.28-1.3v-.01.01-.01l-1.925-1.954h.001z" fill="#86c240" fill-rule="nonzero"/><path d="M17.23 10.428l1.935-1.955-1.935-1.954-1.926 1.954 1.926 1.955z" fill="#8dc640" fill-rule="nonzero"/><path d="M17.23 6.519l-1.388 1.407-.538.547 1.926 1.955 1.935-1.955-1.935-1.954z" fill="#36b24a" fill-rule="nonzero"/><path d="M21.393 2.297l-1.935 1.954 1.925 1.955 1.935-1.955-1.925-1.954z" fill="#8ac641" fill-rule="nonzero"/><path d="M17.23 6.519v-.01l-1.926 1.964 1.926-1.954z" fill="#8dc640" fill-rule="nonzero"/><path d="M17.23 6.519l-1.926 1.954 1.926-1.954z" fill="#36b24a" fill-rule="nonzero"/><path d="M19.165 8.473l-1.935 1.955 1.935 1.955 1.925-1.955-1.925-1.955z" fill="#059960" fill-rule="nonzero"/><path d="M19.165 8.473l-1.935 1.955 1.935 1.955 1.925-1.955-1.925-1.955z" fill="#45a357" fill-rule="nonzero"/><path d="M17.23 10.428l1.935-1.955-1.935 1.955z" fill="#059960" fill-rule="nonzero"/><path d="M19.165 8.473l-1.935 1.955 1.935-1.955z" fill="#00944a" fill-rule="nonzero"/><path d="M13.379 14.337l-1.925 1.955 1.925 1.954 1.925-1.954-.967-.978-.958-.977z" fill="#36b24a" fill-rule="nonzero"/><path d="M13.379 14.337l-1.925 1.955 1.925-1.955z" fill="#00934a" fill-rule="nonzero"/></svg>