<?xml version="1.0" encoding="UTF-8" standalone="no"?>
<!DOCTYPE svg PUBLIC "-//W3C//DTD SVG 1.1//EN" "http://www.w3.org/Graphics/SVG/1.1/DTD/svg11.dtd">
<svg width="100%" height="100%" viewBox="0 0 45 40" version="1.1" xmlns="http://www.w3.org/2000/svg" xmlns:xlink="http://www.w3.org/1999/xlink" xml:space="preserve" xmlns:serif="http://www.serif.com/" style="fill-rule:evenodd;clip-rule:evenodd;stroke-linejoin:round;stroke-miterlimit:2;">
    <g transform="matrix(0.0977312,0,0,0.0977312,-0.00977312,6)">
        <path d="M265.3,86.7L245.6,66.6L265.3,86.7Z" style="fill:rgb(32,182,234);fill-rule:nonzero;"/>
    </g>
    <g transform="matrix(0.0977312,0,0,0.0977312,-0.00977312,6)">
        <path d="M200.1,112.7L219.8,132.7L225.8,126.7L206.1,106.7L200.1,112.7Z" style="fill:rgb(32,182,234);fill-rule:nonzero;"/>
    </g>
    <g transform="matrix(0.0977312,0,0,0.0977312,-0.00977312,6)">
        <path d="M304.7,46.6L285,26.6L304.7,46.6Z" style="fill:rgb(32,182,234);fill-rule:nonzero;"/>
    </g>
    <g transform="matrix(0.0977312,0,0,0.0977312,-0.00977312,6)">
        <path d="M331,20L311.2,0L304.7,6.6L324.5,26.6L331,20Z" style="fill:rgb(32,182,234);fill-rule:nonzero;"/>
    </g>
    <g transform="matrix(0.0977312,0,0,0.0977312,-0.00977312,6)">
        <path d="M324.5,66.6L304.7,46.6L324.5,66.6Z" style="fill:rgb(242,129,177);fill-rule:nonzero;"/>
    </g>
    <g transform="matrix(0.0977312,0,0,0.0977312,-0.00977312,6)">
        <path d="M285,106.7L265.3,86.7L285,106.7Z" style="fill:rgb(242,129,177);fill-rule:nonzero;"/>
    </g>
    <g transform="matrix(0.0977312,0,0,0.0977312,-0.00977312,6)">
        <path d="M245.6,146.7L239.6,152.8L259.3,172.8L265.3,166.7L245.6,146.7Z" style="fill:rgb(247,236,51);fill-rule:nonzero;"/>
    </g>
    <g transform="matrix(0.0977312,0,0,0.0977312,-0.00977312,6)">
        <path d="M370.4,60.1L350.7,40L344.2,46.6L363.9,66.6L370.4,60.1Z" style="fill:rgb(247,236,51);fill-rule:nonzero;"/>
    </g>
    <g transform="matrix(0.0977312,0,0,0.0977312,-0.00977312,6)">
        <path d="M344.2,86.7L324.5,66.7L344.2,86.7Z" style="fill:rgb(247,236,51);fill-rule:nonzero;"/>
    </g>
    <g transform="matrix(0.0977312,0,0,0.0977312,-0.00977312,6)">
        <path d="M285,106.7L304.7,126.7L304.8,126.7L285,106.7Z" style="fill:rgb(247,236,51);fill-rule:nonzero;"/>
    </g>
    <g transform="matrix(0.0977312,0,0,0.0977312,-0.00977312,6)">
        <path d="M383.7,86.7L390.2,80.1L370.4,60.1L363.9,66.7L383.7,86.7Z" style="fill:rgb(141,198,64);fill-rule:nonzero;"/>
    </g>
    <g transform="matrix(0.0977312,0,0,0.0977312,-0.00977312,6)">
        <path d="M304.8,126.7L324.5,146.7L304.8,126.7Z" style="fill:rgb(141,198,64);fill-rule:nonzero;"/>
    </g>
    <g transform="matrix(0.0977312,0,0,0.0977312,-0.00977312,6)">
        <path d="M344.2,86.7L363.9,106.7L344.2,86.7Z" style="fill:rgb(141,198,64);fill-rule:nonzero;"/>
    </g>
    <g transform="matrix(0.0977312,0,0,0.0977312,-0.00977312,6)">
        <path d="M363.9,66.6L363.9,66.7L370.4,60.1L363.9,66.6Z" style="fill:rgb(141,198,64);fill-rule:nonzero;"/>
    </g>
    <g transform="matrix(0.0977312,0,0,0.0977312,-0.00977312,6)">
        <path d="M304.7,126.7L304.8,126.7L304.7,126.7Z" style="fill:rgb(141,198,64);fill-rule:nonzero;"/>
    </g>
    <g transform="matrix(0.0977312,0,0,0.0977312,-0.00977312,6)">
        <path d="M265.3,166.7L259.3,172.8L265.3,166.7Z" style="fill:rgb(141,198,64);fill-rule:nonzero;"/>
    </g>
    <g transform="matrix(0.0977312,0,0,0.0977312,-0.00977312,6)">
        <path d="M279,192.8L298.8,212.8L304.7,206.7L285,186.7L279,192.8Z" style="fill:rgb(5,153,96);fill-rule:nonzero;"/>
    </g>
    <g transform="matrix(0.0977312,0,0,0.0977312,-0.00977312,6)">
        <path d="M383.7,86.7L403.4,106.7L409.9,100.1L390.2,80.1L383.7,86.7Z" style="fill:rgb(5,153,96);fill-rule:nonzero;"/>
    </g>
    <g transform="matrix(0.0977312,0,0,0.0977312,-0.00977312,6)">
        <path d="M324.5,146.7L344.2,166.7L324.5,146.7Z" style="fill:rgb(5,153,96);fill-rule:nonzero;"/>
    </g>
    <g transform="matrix(0.0977312,0,0,0.0977312,-0.00977312,6)">
        <path d="M363.9,106.7L383.7,126.7L363.9,106.7Z" style="fill:rgb(5,153,96);fill-rule:nonzero;"/>
    </g>
    <g transform="matrix(0.0977312,0,0,0.0977312,-0.00977312,6)">
        <path d="M285,186.7L279,192.8L285,186.7Z" style="fill:rgb(5,153,96);fill-rule:nonzero;"/>
    </g>
    <g transform="matrix(0.0215106,-0.0953368,0.0953368,0.0215106,17.5577,48.8239)">
        <path d="M363.9,106.7Z" style="fill:rgb(5,153,96);"/>
    </g>
    <g transform="matrix(0.0977312,0,0,0.0977312,-0.00977312,6)">
        <path d="M383.7,86.7L390.2,80.1L383.7,86.7Z" style="fill:rgb(5,153,96);fill-rule:nonzero;"/>
    </g>
    <g transform="matrix(0.0977312,0,0,0.0977312,-0.00977312,6)">
        <path d="M363.9,146.7L344.2,166.7L348.8,171.3L350.3,172.9L370,152.9L368,150.8L363.9,146.7Z" style="fill:rgb(242,129,177);fill-rule:nonzero;"/>
    </g>
    <g transform="matrix(0.0977312,0,0,0.0977312,-0.00977312,6)">
        <path d="M258.9,40.2L239.2,60.2L245.6,66.6L265.3,46.6L258.9,40.2Z" style="fill:rgb(242,129,177);fill-rule:nonzero;"/>
    </g>
    <g transform="matrix(0.0977312,0,0,0.0977312,-0.00977312,6)">
        <path d="M304.7,86.7L285,106.7L304.7,86.7Z" style="fill:rgb(242,129,177);fill-rule:nonzero;"/>
    </g>
    <g transform="matrix(0.0977312,0,0,0.0977312,-0.00977312,6)">
        <path d="M285,66.7L269.2,82.7L285,66.7Z" style="fill:rgb(242,129,177);fill-rule:nonzero;"/>
    </g>
    <g transform="matrix(0.0977312,0,0,0.0977312,-0.00977312,6)">
        <path d="M285,66.6L265.3,46.6L245.6,66.6L265.3,86.7L285,66.6Z" style="fill:rgb(32,182,234);fill-rule:nonzero;"/>
    </g>
    <g transform="matrix(0.0977312,0,0,0.0977312,-0.00977312,6)">
        <path d="M265.3,46.6L245.6,66.6L260.3,81.7L265.3,86.7L269.2,82.7L285,66.7L265.3,46.6Z" style="fill:rgb(105,102,172);fill-rule:nonzero;"/>
    </g>
    <g transform="matrix(0.0977312,0,0,0.0977312,-0.00977312,6)">
        <path d="M304.7,86.7L285,66.6L265.3,86.7L285,106.7L304.7,86.7Z" style="fill:rgb(242,129,177);fill-rule:nonzero;"/>
    </g>
    <g transform="matrix(0.0977312,0,0,0.0977312,-0.00977312,6)">
        <path d="M285,66.7L265.3,86.7L285,106.7L304.7,86.7L285,66.7Z" style="fill:rgb(235,74,151);fill-rule:nonzero;"/>
    </g>
    <g transform="matrix(0.0977312,0,0,0.0977312,-0.00977312,6)">
        <path d="M285,106.7L304.8,126.7L324.5,106.7L304.7,86.7L285,106.7Z" style="fill:rgb(247,236,51);fill-rule:nonzero;"/>
    </g>
    <g transform="matrix(0.0977312,0,0,0.0977312,-0.00977312,6)">
        <path d="M304.7,86.7L285,106.7L304.7,126.7L304.8,126.7L319.5,111.7L324.5,106.7L304.7,86.7Z" style="fill:rgb(231,123,53);fill-rule:nonzero;"/>
    </g>
    <g transform="matrix(0.0977312,0,0,0.0977312,-0.00977312,6)">
        <path d="M304.8,126.7L324.5,146.7L344.2,126.7L324.5,106.7L304.8,126.7Z" style="fill:rgb(141,198,64);fill-rule:nonzero;"/>
    </g>
    <g transform="matrix(0.0977312,0,0,0.0977312,-0.00977312,6)">
        <path d="M324.5,106.7L304.8,126.7L324.5,146.7L344.2,126.7L324.5,106.7Z" style="fill:rgb(147,109,58);fill-rule:nonzero;"/>
    </g>
    <g transform="matrix(0.0977312,0,0,0.0977312,-0.00977312,6)">
        <path d="M304.7,126.7L304.8,126.7L324.5,106.7L304.7,126.7Z" style="fill:rgb(141,198,64);fill-rule:nonzero;"/>
    </g>
    <g transform="matrix(0.0977312,0,0,0.0977312,-0.00977312,6)">
        <path d="M324.5,106.7L319.5,111.7L304.8,126.7L324.5,106.7Z" style="fill:rgb(147,109,58);fill-rule:nonzero;"/>
    </g>
    <g transform="matrix(0.0977312,0,0,0.0977312,-0.00977312,6)">
        <path d="M344.2,126.7L324.5,146.7L344.2,166.7L363.9,146.7L344.2,126.7Z" style="fill:rgb(5,153,96);fill-rule:nonzero;"/>
    </g>
    <g transform="matrix(0.0977312,0,0,0.0977312,-0.00977312,6)">
        <path d="M344.2,126.7L331,140L324.5,146.7L334.3,156.7L344.2,166.7L363.9,146.7L344.2,126.7Z" style="fill:rgb(76,92,78);fill-rule:nonzero;"/>
    </g>
    <g transform="matrix(0.0977312,0,0,0.0977312,-0.00977312,6)">
        <path d="M324.5,146.7L344.2,126.7L324.5,146.7Z" style="fill:rgb(5,153,96);fill-rule:nonzero;"/>
    </g>
    <g transform="matrix(0.0977312,0,0,0.0977312,-0.00977312,6)">
        <path d="M344.2,126.7L324.5,146.7L344.2,126.7Z" style="fill:rgb(76,92,78);fill-rule:nonzero;"/>
    </g>
    <g transform="matrix(0.0977312,0,0,0.0977312,-0.00977312,6)">
        <path d="M265.3,86.7L245.6,106.7L265.3,86.7Z" style="fill:rgb(249,237,50);fill-rule:nonzero;"/>
    </g>
    <g transform="matrix(0.0977312,0,0,0.0977312,-0.00977312,6)">
        <path d="M344.2,166.7L331,180L324.5,186.7L327.5,189.8L330.6,192.9L330.5,192.9L350.3,172.9L348.8,171.3L344.2,166.7Z" style="fill:rgb(249,237,50);fill-rule:nonzero;"/>
    </g>
    <g transform="matrix(0.0977312,0,0,0.0977312,-0.00977312,6)">
        <path d="M350.3,172.9L348.8,171.4L350.3,172.9Z" style="fill:rgb(231,123,53);fill-rule:nonzero;"/>
    </g>
    <g transform="matrix(0.0977312,0,0,0.0977312,-0.00977312,6)">
        <path d="M285,106.7L265.3,126.7L285,106.7Z" style="fill:rgb(249,237,50);fill-rule:nonzero;"/>
    </g>
    <g transform="matrix(0.0977312,0,0,0.0977312,-0.00977312,6)">
        <path d="M239.2,60.2L219.4,80.2L219.5,80.2L225.8,86.6L231.7,80.6L245.6,66.6L239.2,60.2Z" style="fill:rgb(249,237,50);fill-rule:nonzero;"/>
    </g>
    <g transform="matrix(0.0977312,0,0,0.0977312,-0.00977312,6)">
        <path d="M239.2,60.2L241.3,62.3L239.2,60.2Z" style="fill:rgb(231,123,53);fill-rule:nonzero;"/>
    </g>
    <g transform="matrix(0.0977312,0,0,0.0977312,-0.00977312,6)">
        <path d="M245.6,106.7L265.3,86.7L245.6,66.6L225.8,86.6L245.6,106.7Z" style="fill:rgb(32,182,234);fill-rule:nonzero;"/>
    </g>
    <g transform="matrix(0.0977312,0,0,0.0977312,-0.00977312,6)">
        <path d="M245.6,66.6L231.7,80.6L225.8,86.6L231.2,92.1L245.6,106.7L265.3,86.7L260.3,81.7L245.6,66.6Z" style="fill:rgb(89,173,85);fill-rule:nonzero;"/>
    </g>
    <g transform="matrix(0.0977312,0,0,0.0977312,-0.00977312,6)">
        <path d="M265.3,86.7L245.6,106.7L265.3,126.7L285,106.7L265.3,86.7Z" style="fill:rgb(242,129,177);fill-rule:nonzero;"/>
    </g>
    <g transform="matrix(0.0977312,0,0,0.0977312,-0.00977312,6)">
        <path d="M265.3,86.7L245.6,106.7L256.1,117.3L265.3,126.7L285,106.7L265.3,86.7Z" style="fill:rgb(231,123,53);fill-rule:nonzero;"/>
    </g>
    <g transform="matrix(0.0977312,0,0,0.0977312,-0.00977312,6)">
        <path d="M207.8,144.8L187.6,165L207.8,185.2L228,165L207.8,144.8Z" style="fill:rgb(249,237,50);fill-rule:nonzero;"/>
    </g>
    <g transform="matrix(0.0977312,0,0,0.0977312,-0.00977312,6)">
        <path d="M285,106.7L265.3,126.7L285,146.7L304.7,126.7L285,106.7Z" style="fill:rgb(247,236,51);fill-rule:nonzero;"/>
    </g>
    <g transform="matrix(0.0977312,0,0,0.0977312,-0.00977312,6)">
        <path d="M285,106.7L265.3,126.7L280.1,141.7L285,146.7L304.7,126.7L285,106.7Z" style="fill:rgb(235,228,21);fill-rule:nonzero;"/>
    </g>
    <g transform="matrix(0.0977312,0,0,0.0977312,-0.00977312,6)">
        <path d="M285,146.7L304.8,166.7L324.5,146.7L304.8,126.7L285,146.7Z" style="fill:rgb(141,198,64);fill-rule:nonzero;"/>
    </g>
    <g transform="matrix(0.0977312,0,0,0.0977312,-0.00977312,6)">
        <path d="M304.8,126.7L285,146.7L304.8,166.7L324.5,146.7L304.8,126.7Z" style="fill:rgb(134,194,64);fill-rule:nonzero;"/>
    </g>
    <g transform="matrix(0.0977312,0,0,0.0977312,-0.00977312,6)">
        <path d="M304.7,126.7L285,146.7L304.8,126.7L304.7,126.7Z" style="fill:rgb(141,198,64);fill-rule:nonzero;"/>
    </g>
    <g transform="matrix(0.0977312,0,0,0.0977312,-0.00977312,6)">
        <path d="M304.7,126.7L285,146.7L304.8,126.7L304.7,126.7Z" style="fill:rgb(134,194,64);fill-rule:nonzero;"/>
    </g>
    <g transform="matrix(0.0977312,0,0,0.0977312,-0.00977312,6)">
        <path d="M304.8,166.7L324.5,186.7L344.2,166.7L324.5,146.7L304.8,166.7Z" style="fill:rgb(141,198,64);fill-rule:nonzero;"/>
    </g>
    <g transform="matrix(0.0977312,0,0,0.0977312,-0.00977312,6)">
        <path d="M304.7,166.7L304.8,166.7L324.5,146.7L304.7,166.7Z" style="fill:rgb(5,153,96);fill-rule:nonzero;"/>
    </g>
    <g transform="matrix(0.0977312,0,0,0.0977312,-0.00977312,6)">
        <path d="M324.5,146.7L304.8,166.7L324.5,146.7Z" style="fill:rgb(15,151,74);fill-rule:nonzero;"/>
    </g>
    <g transform="matrix(0.0977312,0,0,0.0977312,-0.00977312,6)">
        <path d="M279,20.5L272.6,14.1L252.9,34.1L259.3,40.5L279,20.5Z" style="fill:rgb(32,182,234);fill-rule:nonzero;"/>
    </g>
    <g transform="matrix(0.0977312,0,0,0.0977312,-0.00977312,6)">
        <path d="M383.6,126.7L363.9,146.7L370,152.9L389.7,132.9L383.6,126.7Z" style="fill:rgb(249,237,50);fill-rule:nonzero;"/>
    </g>
    <g transform="matrix(0.0977312,0,0,0.0977312,-0.00977312,6)">
        <path d="M301.9,49.5L294.9,56.6L285,66.6L301.9,49.5Z" style="fill:rgb(249,237,50);fill-rule:nonzero;"/>
    </g>
    <g transform="matrix(0.0977312,0,0,0.0977312,-0.00977312,6)">
        <path d="M324.5,66.7L314.6,76.7L304.8,86.7L324.5,66.7Z" style="fill:rgb(249,237,50);fill-rule:nonzero;"/>
    </g>
    <g transform="matrix(0.0977312,0,0,0.0977312,-0.00977312,6)">
        <path d="M285,66.6L304.7,46.6L285,26.6L265.3,46.6L285,66.6Z" style="fill:rgb(32,182,234);fill-rule:nonzero;"/>
    </g>
    <g transform="matrix(0.0977312,0,0,0.0977312,-0.00977312,6)">
        <path d="M285,26.6L265.3,46.6L285,66.6L301.9,49.5L304.7,46.6L294.9,36.6L285,26.6Z" style="fill:rgb(89,173,85);fill-rule:nonzero;"/>
    </g>
    <g transform="matrix(0.0977312,0,0,0.0977312,-0.00977312,6)">
        <path d="M324.5,66.6L304.7,46.6L285,66.6L304.7,86.7L324.5,66.6Z" style="fill:rgb(242,129,177);fill-rule:nonzero;"/>
    </g>
    <g transform="matrix(0.0977312,0,0,0.0977312,-0.00977312,6)">
        <path d="M304.7,46.6L301.9,49.5L285,66.6L304.7,86.7L324.5,66.7L304.7,46.6Z" style="fill:rgb(231,123,53);fill-rule:nonzero;"/>
    </g>
    <g transform="matrix(0.0977312,0,0,0.0977312,-0.00977312,6)">
        <path d="M324.5,106.7L344.2,86.7L324.5,66.7L304.8,86.7L324.5,106.7Z" style="fill:rgb(247,236,51);fill-rule:nonzero;"/>
    </g>
    <g transform="matrix(0.0977312,0,0,0.0977312,-0.00977312,6)">
        <path d="M324.5,66.7L304.8,86.7L324.5,106.7L344.2,86.7L331,73.3L324.5,66.7Z" style="fill:rgb(235,228,21);fill-rule:nonzero;"/>
    </g>
    <g transform="matrix(0.0977312,0,0,0.0977312,-0.00977312,6)">
        <path d="M324.5,106.7L344.2,86.7L324.5,106.7Z" style="fill:rgb(141,198,64);fill-rule:nonzero;"/>
    </g>
    <g transform="matrix(0.0977312,0,0,0.0977312,-0.00977312,6)">
        <path d="M344.2,86.7L324.5,106.7L344.2,86.7Z" style="fill:rgb(134,194,64);fill-rule:nonzero;"/>
    </g>
    <g transform="matrix(0.0977312,0,0,0.0977312,-0.00977312,6)">
        <path d="M344.2,126.7L363.9,146.7L383.6,126.7L363.9,106.7L344.2,126.7Z" style="fill:rgb(5,153,96);fill-rule:nonzero;"/>
    </g>
    <g transform="matrix(0.0977312,0,0,0.0977312,-0.00977312,6)">
        <path d="M402.5,145.8L382.7,165.8L402.5,185.8L422.2,165.8L402.5,145.8Z" style="fill:rgb(249,237,50);fill-rule:nonzero;"/>
    </g>
    <g transform="matrix(0.0977312,0,0,0.0977312,-0.00977312,6)">
        <path d="M344.2,126.7L363.9,106.7L344.2,126.7Z" style="fill:rgb(5,153,96);fill-rule:nonzero;"/>
    </g>
    <g transform="matrix(0.0977312,0,0,0.0977312,-0.00977312,6)">
        <path d="M363.9,106.7L344.2,126.7L363.9,106.7Z" style="fill:rgb(15,151,74);fill-rule:nonzero;"/>
    </g>
    <g transform="matrix(0.0977312,0,0,0.0977312,-0.00977312,6)">
        <path d="M363.9,146.7L368,150.8L370,152.9L363.9,146.7Z" style="fill:rgb(231,123,53);fill-rule:nonzero;"/>
    </g>
    <g transform="matrix(0.0977312,0,0,0.0977312,-0.00977312,6)">
        <path d="M363.9,146.7L368,150.8L363.9,146.7Z" style="fill:rgb(227,75,50);fill-rule:nonzero;"/>
    </g>
    <g transform="matrix(0.0977312,0,0,0.0977312,-0.00977312,6)">
        <path d="M363.9,146.7L370,152.9L363.9,146.7Z" style="fill:rgb(222,121,41);fill-rule:nonzero;"/>
    </g>
    <g transform="matrix(0.0929326,-0.0302283,0.0302283,0.0929326,-0.65863,14.9359)">
        <path d="M285,66.7Z" style="fill:rgb(231,123,53);"/>
    </g>
    <g transform="matrix(0.048074,-0.0850946,0.0850946,0.048074,8.47238,33.5607)">
        <path d="M285,66.6Z" style="fill:rgb(222,121,41);"/>
    </g>
    <g transform="matrix(0.0977312,0,0,0.0977312,-0.00977312,6)">
        <path d="M304.7,86.7L304.8,86.7L304.7,86.7Z" style="fill:rgb(231,123,53);fill-rule:nonzero;"/>
    </g>
    <g transform="matrix(0.0977312,0,0,0.0977312,-0.00977312,6)">
        <path d="M258.9,40.2L265.3,46.6L258.9,40.2Z" style="fill:rgb(231,123,53);fill-rule:nonzero;"/>
    </g>
    <g transform="matrix(0.0977312,0,0,0.0977312,-0.00977312,6)">
        <path d="M265.3,46.6L285,66.7L285,66.6L265.3,46.6Z" style="fill:rgb(32,182,234);fill-rule:nonzero;"/>
    </g>
    <g transform="matrix(0.0977312,0,0,0.0977312,-0.00977312,6)">
        <path d="M265.3,46.6L285,66.7L285,66.6L265.3,46.6Z" style="fill:rgb(112,101,70);fill-rule:nonzero;"/>
    </g>
    <g transform="matrix(0.0977312,0,0,0.0977312,-0.00977312,6)">
        <path d="M304.7,86.7L285,66.6L304.7,86.7Z" style="fill:rgb(242,129,177);fill-rule:nonzero;"/>
    </g>
    <g transform="matrix(0.0977312,0,0,0.0977312,-0.00977312,6)">
        <path d="M285,66.6L304.7,86.7L285,66.6Z" style="fill:rgb(227,75,50);fill-rule:nonzero;"/>
    </g>
    <g transform="matrix(0.0977312,0,0,0.0977312,-0.00977312,6)">
        <path d="M324.5,106.7L304.8,86.7L304.7,86.7L324.5,106.7Z" style="fill:rgb(247,236,51);fill-rule:nonzero;"/>
    </g>
    <g transform="matrix(0.0977312,0,0,0.0977312,-0.00977312,6)">
        <path d="M304.8,86.7L304.7,86.7L324.5,106.7L304.8,86.7Z" style="fill:rgb(222,121,41);fill-rule:nonzero;"/>
    </g>
    <g transform="matrix(0.0977312,0,0,0.0977312,-0.00977312,6)">
        <path d="M324.5,106.7L344.2,126.7L324.5,106.7Z" style="fill:rgb(141,198,64);fill-rule:nonzero;"/>
    </g>
    <g transform="matrix(0.0977312,0,0,0.0977312,-0.00977312,6)">
        <path d="M324.5,106.7L344.2,126.7L324.5,106.7Z" style="fill:rgb(143,108,57);fill-rule:nonzero;"/>
    </g>
    <g transform="matrix(0.0210415,-0.0954346,0.0954346,0.0210415,14.6905,45.1467)">
        <path d="M324.5,106.7Z" style="fill:rgb(141,198,64);"/>
    </g>
    <g transform="matrix(0.0210415,-0.0954346,0.0954346,0.0210415,14.6905,45.1467)">
        <path d="M324.5,106.7Z" style="fill:rgb(143,108,57);"/>
    </g>
    <g transform="matrix(0.0977312,0,0,0.0977312,-0.00977312,6)">
        <path d="M363.9,146.7L344.2,126.7L363.9,146.7Z" style="fill:rgb(5,153,96);fill-rule:nonzero;"/>
    </g>
    <g transform="matrix(0.0977312,0,0,0.0977312,-0.00977312,6)">
        <path d="M344.2,126.7L363.9,146.7L344.2,126.7Z" style="fill:rgb(75,91,62);fill-rule:nonzero;"/>
    </g>
    <g transform="matrix(0.0977312,0,0,0.0977312,-0.00977312,6)">
        <path d="M324.5,186.7L304.8,206.7L310.8,212.9L330.5,192.9L324.5,186.7Z" style="fill:rgb(138,198,65);fill-rule:nonzero;"/>
    </g>
    <g transform="matrix(0.0977312,0,0,0.0977312,-0.00977312,6)">
        <path d="M219.4,80.2L199.7,100.2L206.1,106.7L225.8,86.7L219.4,80.2Z" style="fill:rgb(138,198,65);fill-rule:nonzero;"/>
    </g>
    <g transform="matrix(0.0977312,0,0,0.0977312,-0.00977312,6)">
        <path d="M245.6,106.7L233,119.4L225.8,126.7L245.6,106.7Z" style="fill:rgb(138,198,65);fill-rule:nonzero;"/>
    </g>
    <g transform="matrix(0.0977312,0,0,0.0977312,-0.00977312,6)">
        <path d="M265.3,126.7L245.6,146.7L265.3,126.7Z" style="fill:rgb(138,198,65);fill-rule:nonzero;"/>
    </g>
    <g transform="matrix(0.0977312,0,0,0.0977312,-0.00977312,6)">
        <path d="M225.8,86.7L206.1,106.7L225.8,126.7L245.6,106.7L225.8,86.7Z" style="fill:rgb(32,182,234);fill-rule:nonzero;"/>
    </g>
    <g transform="matrix(0.0977312,0,0,0.0977312,-0.00977312,6)">
        <path d="M225.8,86.7L206.1,106.7L225.8,126.7L245.6,106.7L225.8,86.7Z" style="fill:rgb(0,164,76);fill-rule:nonzero;"/>
    </g>
    <g transform="matrix(0.0977312,0,0,0.0977312,-0.00977312,6)">
        <path d="M285,146.7L265.3,126.7L245.6,146.7L265.3,166.7L285,146.7Z" style="fill:rgb(247,236,51);fill-rule:nonzero;"/>
    </g>
    <g transform="matrix(0.0977312,0,0,0.0977312,-0.00977312,6)">
        <path d="M265.3,126.7L245.6,146.7L265.3,166.7L285,146.7L265.3,126.7Z" style="fill:rgb(134,194,64);fill-rule:nonzero;"/>
    </g>
    <g transform="matrix(0.0977312,0,0,0.0977312,-0.00977312,6)">
        <path d="M285,146.7L265.3,166.7L285,186.7L304.7,166.7L285,146.7Z" style="fill:rgb(141,198,64);fill-rule:nonzero;"/>
    </g>
    <g transform="matrix(0.0977312,0,0,0.0977312,-0.00977312,6)">
        <path d="M285,146.7L265.3,166.7L285,186.7L304.7,166.7L285,146.7Z" style="fill:rgb(54,178,74);fill-rule:nonzero;"/>
    </g>
    <g transform="matrix(0.0977312,0,0,0.0977312,-0.00977312,6)">
        <path d="M285,146.7L265.3,166.7L285,146.7Z" style="fill:rgb(141,198,64);fill-rule:nonzero;"/>
    </g>
    <g transform="matrix(0.0977312,0,0,0.0977312,-0.00977312,6)">
        <path d="M285,146.7L265.3,166.7L285,146.7Z" style="fill:rgb(54,178,74);fill-rule:nonzero;"/>
    </g>
    <g transform="matrix(0.0977312,0,0,0.0977312,-0.00977312,6)">
        <path d="M304.7,166.7L285,186.7L304.7,206.7L324.5,186.7L304.7,166.7Z" style="fill:rgb(5,153,96);fill-rule:nonzero;"/>
    </g>
    <g transform="matrix(0.0977312,0,0,0.0977312,-0.00977312,6)">
        <path d="M304.7,166.7L285,186.7L304.7,206.7L324.5,186.7L304.7,166.7Z" style="fill:rgb(0,148,74);fill-rule:nonzero;"/>
    </g>
    <g transform="matrix(0.0977312,0,0,0.0977312,-0.00977312,6)">
        <path d="M285,186.7L304.7,166.7L285,186.7Z" style="fill:rgb(5,153,96);fill-rule:nonzero;"/>
    </g>
    <g transform="matrix(0.0977312,0,0,0.0977312,-0.00977312,6)">
        <path d="M304.7,166.7L285,186.7L304.7,166.7Z" style="fill:rgb(0,148,74);fill-rule:nonzero;"/>
    </g>
    <g transform="matrix(0.0977312,0,0,0.0977312,-0.00977312,6)">
        <path d="M324.5,186.7L330.5,192.9L330.6,192.9L327.5,189.8L324.5,186.7Z" style="fill:rgb(134,194,64);fill-rule:nonzero;"/>
    </g>
    <g transform="matrix(0.0977312,0,0,0.0977312,-0.00977312,6)">
        <path d="M330.6,192.9L327.6,189.8L330.6,192.9Z" style="fill:rgb(126,192,66);fill-rule:nonzero;"/>
    </g>
    <g transform="matrix(0.0977312,0,0,0.0977312,-0.00977312,6)">
        <path d="M324.5,186.7L327.5,189.8L324.5,186.7Z" style="fill:rgb(48,177,74);fill-rule:nonzero;"/>
    </g>
    <g transform="matrix(0.0977312,0,0,0.0977312,-0.00977312,6)">
        <path d="M219.5,80.2L219.4,80.2L225.8,86.7L225.8,86.6L219.5,80.2Z" style="fill:rgb(134,194,64);fill-rule:nonzero;"/>
    </g>
    <g transform="matrix(0.0977312,0,0,0.0977312,-0.00977312,6)">
        <path d="M219.5,80.2L219.4,80.2L219.5,80.2L225.8,86.6L219.5,80.2Z" style="fill:rgb(126,192,66);fill-rule:nonzero;"/>
    </g>
    <g transform="matrix(0.0977312,0,0,0.0977312,-0.00977312,6)">
        <path d="M225.8,86.6" style="fill:rgb(0,164,75);fill-rule:nonzero;"/>
    </g>
    <g transform="matrix(0.0977312,0,0,0.0977312,-0.00977312,6)">
        <path d="M219.4,80.2L225.8,86.7L219.4,80.2Z" style="fill:rgb(48,177,74);fill-rule:nonzero;"/>
    </g>
    <g transform="matrix(0.0977312,0,0,0.0977312,-0.00977312,6)">
        <path d="M225.8,86.6L225.8,86.7L245.6,106.7L225.8,86.6Z" style="fill:rgb(32,182,234);fill-rule:nonzero;"/>
    </g>
    <g transform="matrix(0.0977312,0,0,0.0977312,-0.00977312,6)">
        <path d="M225.8,86.6L225.8,86.7L245.6,106.7L231.2,92.1L225.8,86.6Z" style="fill:rgb(0,164,75);fill-rule:nonzero;"/>
    </g>
    <g transform="matrix(0.0977312,0,0,0.0977312,-0.00977312,6)">
        <path d="M245.6,106.7L265.3,126.7L245.6,106.7Z" style="fill:rgb(242,129,177);fill-rule:nonzero;"/>
    </g>
    <g transform="matrix(0.0977312,0,0,0.0977312,-0.00977312,6)">
        <path d="M245.6,106.7L265.3,126.7L256.1,117.3L245.6,106.7Z" style="fill:rgb(143,108,57);fill-rule:nonzero;"/>
    </g>
    <g transform="matrix(0.0977312,0,0,0.0977312,-0.00977312,6)">
        <path d="M265.3,126.7L285,146.7L265.3,126.7Z" style="fill:rgb(247,236,51);fill-rule:nonzero;"/>
    </g>
    <g transform="matrix(0.0977312,0,0,0.0977312,-0.00977312,6)">
        <path d="M265.3,126.7L280.1,141.7L265.3,126.7Z" style="fill:rgb(126,192,66);fill-rule:nonzero;"/>
    </g>
    <g transform="matrix(0.0977312,0,0,0.0977312,-0.00977312,6)">
        <path d="M265.3,126.7L280.1,141.7L265.3,126.7Z" style="fill:rgb(121,188,67);fill-rule:nonzero;"/>
    </g>
    <g transform="matrix(0.0977312,0,0,0.0977312,-0.00977312,6)">
        <path d="M265.3,126.7L285,146.7L280.1,141.7L265.3,126.7Z" style="fill:rgb(126,192,66);fill-rule:nonzero;"/>
    </g>
    <g transform="matrix(0.0977312,0,0,0.0977312,-0.00977312,6)">
        <path d="M285,146.7L304.7,166.7L304.8,166.7L285,146.7Z" style="fill:rgb(141,198,64);fill-rule:nonzero;"/>
    </g>
    <g transform="matrix(0.0977312,0,0,0.0977312,-0.00977312,6)">
        <path d="M285,146.7L304.7,166.7L304.8,166.7L304.7,166.7L285,146.7Z" style="fill:rgb(48,177,74);fill-rule:nonzero;"/>
    </g>
    <g transform="matrix(0.0977312,0,0,0.0977312,-0.00977312,6)">
        <path d="M324.5,186.7L304.8,166.7L304.7,166.7L324.5,186.7Z" style="fill:rgb(5,153,96);fill-rule:nonzero;"/>
    </g>
    <g transform="matrix(0.0977312,0,0,0.0977312,-0.00977312,6)">
        <path d="M304.8,166.7L304.7,166.7L324.5,186.7L304.8,166.7Z" style="fill:rgb(0,147,74);fill-rule:nonzero;"/>
    </g>
    <g transform="matrix(0.0977312,0,0,0.0977312,-0.00977312,6)">
        <path d="M304.7,166.7L304.8,166.7L304.7,166.7Z" style="fill:rgb(5,153,96);fill-rule:nonzero;"/>
    </g>
    <g transform="matrix(0.0977312,0,0,0.0977312,-0.00977312,6)">
        <path d="M304.7,166.7L304.8,166.7L304.7,166.7Z" style="fill:rgb(0,145,74);fill-rule:nonzero;"/>
    </g>
    <g transform="matrix(0.0977312,0,0,0.0977312,-0.00977312,6)">
        <path d="M304.7,166.7L304.8,166.7L304.7,166.7Z" style="fill:rgb(0,147,74);fill-rule:nonzero;"/>
    </g>
    <g transform="matrix(0.0977312,0,0,0.0977312,-0.00977312,6)">
        <path d="M403.4,106.7L383.7,126.7L389.7,132.9L409.5,112.8L403.4,106.7Z" style="fill:rgb(138,198,65);fill-rule:nonzero;"/>
    </g>
    <g transform="matrix(0.0977312,0,0,0.0977312,-0.00977312,6)">
        <path d="M324.5,26.6L304.7,46.6L324.5,26.6Z" style="fill:rgb(138,198,65);fill-rule:nonzero;"/>
    </g>
    <g transform="matrix(0.0977312,0,0,0.0977312,-0.00977312,6)">
        <path d="M344.2,46.6L324.5,66.7L344.2,46.6Z" style="fill:rgb(138,198,65);fill-rule:nonzero;"/>
    </g>
    <g transform="matrix(0.0977312,0,0,0.0977312,-0.00977312,6)">
        <path d="M298.4,0.1L278.6,20.1L285,26.6L304.7,6.6L298.4,0.1Z" style="fill:rgb(138,198,65);fill-rule:nonzero;"/>
    </g>
    <g transform="matrix(0.0977312,0,0,0.0977312,-0.00977312,6)">
        <path d="M324.5,26.6L304.7,6.6L285,26.6L304.7,46.6L324.5,26.6Z" style="fill:rgb(32,182,234);fill-rule:nonzero;"/>
    </g>
    <g transform="matrix(0.0977312,0,0,0.0977312,-0.00977312,6)">
        <path d="M304.7,6.6L285,26.6L304.7,46.6L324.5,26.6L304.7,6.6Z" style="fill:rgb(0,164,76);fill-rule:nonzero;"/>
    </g>
    <g transform="matrix(0.0977312,0,0,0.0977312,-0.00977312,6)">
        <path d="M324.5,66.6L344.2,46.6L324.5,26.6L304.7,46.6L324.5,66.6Z" style="fill:rgb(242,129,177);fill-rule:nonzero;"/>
    </g>
    <g transform="matrix(0.0977312,0,0,0.0977312,-0.00977312,6)">
        <path d="M350,0.7L344.4,6.4L364.1,26.4L369.7,20.8L369.7,20.7L350,0.7Z" style="fill:rgb(138,198,65);fill-rule:nonzero;"/>
    </g>
    <g transform="matrix(0.0977312,0,0,0.0977312,-0.00977312,6)">
        <path d="M344.2,86.7L363.9,66.6L344.2,46.6L324.5,66.7L344.2,86.7Z" style="fill:rgb(247,236,51);fill-rule:nonzero;"/>
    </g>
    <g transform="matrix(0.0977312,0,0,0.0977312,-0.00977312,6)">
        <path d="M344.2,46.6L324.5,66.7L344.2,86.7L350.8,80L363.9,66.7L363.9,66.6L363.9,66.7L363.9,66.6L344.2,46.6Z" style="fill:rgb(134,194,64);fill-rule:nonzero;"/>
    </g>
    <g transform="matrix(0.0977312,0,0,0.0977312,-0.00977312,6)">
        <path d="M363.9,106.7L383.7,86.7L363.9,66.7L344.2,86.7L363.9,106.7Z" style="fill:rgb(141,198,64);fill-rule:nonzero;"/>
    </g>
    <g transform="matrix(0.0977312,0,0,0.0977312,-0.00977312,6)">
        <path d="M363.9,66.7L349.7,81.1L344.2,86.7L363.9,106.7L383.7,86.7L363.9,66.7Z" style="fill:rgb(54,178,74);fill-rule:nonzero;"/>
    </g>
    <g transform="matrix(0.0977312,0,0,0.0977312,-0.00977312,6)">
        <path d="M406.5,23.5L386.7,43.5L406.4,63.5L426.2,43.5L406.5,23.5Z" style="fill:rgb(138,198,65);fill-rule:nonzero;"/>
    </g>
    <g transform="matrix(0.0977312,0,0,0.0977312,-0.00977312,6)">
        <path d="M363.9,66.7L363.9,66.6L344.2,86.7L363.9,66.7Z" style="fill:rgb(141,198,64);fill-rule:nonzero;"/>
    </g>
    <g transform="matrix(0.0977312,0,0,0.0977312,-0.00977312,6)">
        <path d="M363.9,66.7L344.2,86.7L363.9,66.7Z" style="fill:rgb(54,178,74);fill-rule:nonzero;"/>
    </g>
    <g transform="matrix(0.0977312,0,0,0.0977312,-0.00977312,6)">
        <path d="M383.7,86.7L363.9,106.7L383.7,126.7L403.4,106.7L383.7,86.7Z" style="fill:rgb(5,153,96);fill-rule:nonzero;"/>
    </g>
    <g transform="matrix(0.0977312,0,0,0.0977312,-0.00977312,6)">
        <path d="M383.7,86.7L363.9,106.7L383.7,126.7L403.4,106.7L383.7,86.7Z" style="fill:rgb(69,163,87);fill-rule:nonzero;"/>
    </g>
    <g transform="matrix(0.0977312,0,0,0.0977312,-0.00977312,6)">
        <path d="M363.9,106.7L383.7,86.7L363.9,106.7Z" style="fill:rgb(5,153,96);fill-rule:nonzero;"/>
    </g>
    <g transform="matrix(0.0977312,0,0,0.0977312,-0.00977312,6)">
        <path d="M383.7,86.7L363.9,106.7L383.7,86.7Z" style="fill:rgb(0,148,74);fill-rule:nonzero;"/>
    </g>
    <g transform="matrix(0.0977312,0,0,0.0977312,-0.00977312,6)">
        <path d="M324.5,146.7L304.8,166.7L324.5,186.7L344.2,166.7L334.3,156.7L324.5,146.7Z" style="fill:rgb(54,178,74);fill-rule:nonzero;"/>
    </g>
    <g transform="matrix(0.0977312,0,0,0.0977312,-0.00977312,6)">
        <path d="M324.5,146.7L304.8,166.7L324.5,146.7Z" style="fill:rgb(0,147,74);fill-rule:nonzero;"/>
    </g>
    <g transform="matrix(0.0977312,0,0,0.0977312,-0.00977312,6)">
        <path d="M47.1,264.7L46.9,264.7L46.9,285.7L46.7,286C46.2,286 45.2,285.9 44.7,285.9C44.2,285.9 43.3,286 42.7,286L42.5,285.7L42.5,257L42.7,256.7C43.2,256.8 44.2,256.9 44.6,256.9C45,256.9 45.9,256.8 46.4,256.7L46.7,256.9L61.2,277.8L61.4,277.8L61.4,257.1L61.6,256.8C62.1,256.9 63.1,257 63.5,257C64,257 65,257 65.5,256.8L65.7,257.1L65.7,285.8L65.4,286.1C64.9,286.1 64.1,286 63.7,286C63.3,286 62.5,286.1 62.1,286.1L61.7,285.8L47.1,264.7Z" style="fill:rgb(99,100,102);fill-rule:nonzero;"/>
    </g>
    <g transform="matrix(0.0977312,0,0,0.0977312,-0.00977312,6)">
        <path d="M95.1,272.3C95.1,264.3 91,260.3 85.4,260.3C79.7,260.3 76.2,265.3 76.2,270.5C76.2,278.2 80.1,282.4 86,282.4C91.3,282.5 95.1,278.2 95.1,272.3M99.9,271.7C99.9,280.1 94.4,286.4 85.7,286.4C77.2,286.4 71.4,280.4 71.4,271.7C71.4,262.6 77.3,256.5 85.7,256.5C94.2,256.5 99.9,262.6 99.9,271.7" style="fill:rgb(99,100,102);fill-rule:nonzero;"/>
    </g>
    <g transform="matrix(0.0977312,0,0,0.0977312,-0.00977312,6)">
        <path d="M128.3,272.3C128.3,264.3 124.2,260.3 118.6,260.3C112.9,260.3 109.4,265.3 109.4,270.5C109.4,278.2 113.3,282.4 119.2,282.4C124.4,282.5 128.3,278.2 128.3,272.3M133,271.7C133,280.1 127.5,286.4 118.8,286.4C110.3,286.4 104.5,280.4 104.5,271.7C104.5,262.6 110.4,256.5 118.8,256.5C127.3,256.5 133,262.6 133,271.7" style="fill:rgb(99,100,102);fill-rule:nonzero;"/>
    </g>
    <g transform="matrix(0.0977312,0,0,0.0977312,-0.00977312,6)">
        <path d="M146.5,270.4C149.5,270.4 152.2,269 152.2,265.1C152.2,261.4 149.4,260.1 146.8,260.1C145.8,260.1 143.9,260.1 143.2,260.3L143.2,270.2C144.2,270.3 145.5,270.4 146.5,270.4M143.2,285.8L143,286.1C142.6,286.1 141.3,286 140.8,286C140.3,286 139.3,286.1 138.9,286.1L138.7,285.8L138.7,257.1L138.9,256.8C140.5,256.7 144.5,256.5 146.9,256.5C153.6,256.5 157,259.7 157,265.1C157,269.2 154.5,271.7 151.8,272.9L159.6,285.8L159.4,286.1C158.9,286.1 157.5,286 156.9,286C156.4,286 155.2,286.1 154.7,286.1L154.4,285.8L147.4,273.7C147,273.8 146.2,273.8 145.8,273.8C145.1,273.8 143.8,273.7 143.3,273.6L143.3,285.8L143.2,285.8Z" style="fill:rgb(99,100,102);fill-rule:nonzero;"/>
    </g>
    <g transform="matrix(0.0977312,0,0,0.0977312,-0.00977312,6)">
        <path d="M167.7,260.5L167.7,282.3C168.8,282.5 171,282.6 172.2,282.6C177.9,282.6 182.4,279.3 182.4,271.2C182.4,263.2 178.2,260.3 172.4,260.3C171,260.3 168.9,260.3 167.7,260.5M163.1,285.8L163.1,257.1L163.3,256.8C165.9,256.7 170.6,256.6 172.4,256.6C182.6,256.6 187.2,262.5 187.2,271.5C187.2,279.4 183.1,286.5 172.5,286.5C170.7,286.5 166.5,286.4 163.3,286.2L163.1,285.8Z" style="fill:rgb(99,100,102);fill-rule:nonzero;"/>
    </g>
    <g transform="matrix(0.0977312,0,0,0.0977312,-0.00977312,6)">
        <path d="M215.6,272.3C215.6,264.3 211.5,260.3 205.9,260.3C200.2,260.3 196.7,265.3 196.7,270.5C196.7,278.2 200.6,282.4 206.5,282.4C211.8,282.5 215.6,278.2 215.6,272.3M220.4,271.7C220.4,280.1 214.9,286.4 206.2,286.4C197.7,286.4 191.9,280.4 191.9,271.7C191.9,262.6 197.8,256.5 206.2,256.5C214.7,256.5 220.4,262.6 220.4,271.7" style="fill:rgb(99,100,102);fill-rule:nonzero;"/>
    </g>
    <g transform="matrix(0.0977312,0,0,0.0977312,-0.00977312,6)">
        <path d="M248.8,272.3C248.8,264.3 244.7,260.3 239.1,260.3C233.4,260.3 229.9,265.3 229.9,270.5C229.9,278.2 233.8,282.4 239.7,282.4C244.9,282.5 248.8,278.2 248.8,272.3M253.6,271.7C253.6,280.1 248.1,286.4 239.4,286.4C230.9,286.4 225.1,280.4 225.1,271.7C225.1,262.6 231,256.5 239.4,256.5C247.9,256.5 253.6,262.6 253.6,271.7" style="fill:rgb(99,100,102);fill-rule:nonzero;"/>
    </g>
    <g transform="matrix(0.0977312,0,0,0.0977312,-0.00977312,6)">
        <path d="M274.3,262.5L273.9,262.6C272,260.9 269.5,260.2 267.2,260.2C264.4,260.2 262.4,261.7 262.4,264C262.4,266.7 264.1,267.8 267.7,268.9C272.8,270.4 276.3,272.3 276.3,277.9C276.3,282.4 273.1,286.4 266.7,286.4C263.1,286.4 259.5,285.4 256.9,283.4L256.8,283L258.3,279.4L258.7,279.3C260.8,281.3 263.8,282.7 266.7,282.7C269.9,282.7 271.7,280.7 271.7,278.5C271.7,275.4 269.8,274.3 265.8,273.2C261.1,271.9 257.9,269.8 257.9,264.9C257.9,259.8 262.3,256.6 267.3,256.6C270.2,256.6 272.8,257.2 275.6,259L275.7,259.3L274.3,262.5Z" style="fill:rgb(99,100,102);fill-rule:nonzero;"/>
    </g>
    <g transform="matrix(0.0977312,0,0,0.0977312,-0.00977312,6)">
        <path d="M300.1,256.7L300.4,257L300,261L299.7,261.2C298.4,260.7 296.2,260.6 294.7,260.6L291.4,260.6L291.4,285.7L291.2,286C290.8,286 289.7,285.9 289.1,285.9C288.6,285.9 287.4,286 287.1,286L286.9,285.7L286.9,260.6L283.9,260.6C282.3,260.6 279.9,260.8 278.6,261.2L278.3,261L278.6,257L278.9,256.7C281.5,256.8 287.2,256.9 289.1,256.9C291.6,256.9 297,256.9 300.1,256.7" style="fill:rgb(99,100,102);fill-rule:nonzero;"/>
    </g>
    <g transform="matrix(0.0977312,0,0,0.0977312,-0.00977312,6)">
        <path d="M312.3,271C315.4,271 317.8,269.1 317.8,265.4C317.8,262 315.8,260 312.3,260C311.4,260 309.7,260 309,260.2L309,270.6C309.8,270.8 311.2,271 312.3,271M304.4,285.8L304.4,257.1L304.6,256.8C306.2,256.7 310.2,256.5 312.5,256.5C318.8,256.5 322.4,259.8 322.4,265.4C322.4,269.9 319.8,274.3 312.4,274.3C311.2,274.3 309.8,274.1 308.9,273.9L308.9,285.7L308.7,286C308.4,286 307.2,285.9 306.5,285.9C306.1,285.9 304.9,286 304.5,286L304.4,285.8Z" style="fill:rgb(99,100,102);fill-rule:nonzero;"/>
    </g>
    <g transform="matrix(0.0977312,0,0,0.0977312,-0.00977312,6)">
        <path d="M349.6,272.3C349.6,264.3 345.5,260.3 339.9,260.3C334.2,260.3 330.7,265.3 330.7,270.5C330.7,278.2 334.6,282.4 340.5,282.4C345.7,282.5 349.6,278.2 349.6,272.3M354.4,271.7C354.4,280.1 348.9,286.4 340.2,286.4C331.7,286.4 325.9,280.4 325.9,271.7C325.9,262.6 331.8,256.5 340.2,256.5C348.7,256.5 354.4,262.6 354.4,271.7" style="fill:rgb(99,100,102);fill-rule:nonzero;"/>
    </g>
    <g transform="matrix(0.0977312,0,0,0.0977312,-0.00977312,6)">
        <path d="M364.5,282.3L368.2,282.3C372,282.3 374,282.3 375.6,281.7L375.9,281.9L375.6,285.8L375.3,286.1C372.9,286 369.6,286 367.2,286C365.5,286 360.7,286.1 360.2,286.1L360,285.8L360,257.1L360.2,256.8C360.7,256.9 361.6,257 362.2,257C362.9,257 363.8,256.9 364.3,256.8L364.5,257.1L364.5,282.3Z" style="fill:rgb(99,100,102);fill-rule:nonzero;"/>
    </g>
    <g transform="matrix(0.0977312,0,0,0.0977312,-0.00977312,6)">
        <path d="M384.9,260.5L384.9,282.3C386,282.5 388.2,282.6 389.4,282.6C395.1,282.6 399.7,279.3 399.7,271.2C399.7,263.2 395.5,260.3 389.7,260.3C388.3,260.3 386.1,260.3 384.9,260.5M380.3,285.8L380.3,257.1L380.5,256.8C383.1,256.7 387.8,256.6 389.6,256.6C399.8,256.6 404.4,262.5 404.4,271.5C404.4,279.4 400.3,286.5 389.7,286.5C387.9,286.5 383.7,286.4 380.5,286.2L380.3,285.8Z" style="fill:rgb(99,100,102);fill-rule:nonzero;"/>
    </g>
    <g transform="matrix(0.0977312,0,0,0.0977312,-0.00977312,6)">
        <path d="M426,286.1C423.7,286 420.5,286 417.9,286C415.9,286 411.6,286.1 410.3,286.1L410,285.8L410,257.1L410.3,256.8C411.3,256.8 416.1,257 417.3,257C418.9,257 423.3,256.9 425.8,256.8L426,257.1L425.7,261.1L425.4,261.3C423.6,260.8 421.7,260.7 418.9,260.7L414.6,260.7L414.6,268.9L424.1,268.9L424.4,269.2L424.2,272.7L423.9,273C422.3,272.8 420,272.7 418.5,272.7L414.6,272.7L414.6,282.4L418.7,282.4C422.8,282.4 424.6,282.3 426.3,281.8L426.5,282L426.2,285.9L426,286.1Z" style="fill:rgb(99,100,102);fill-rule:nonzero;"/>
    </g>
    <g transform="matrix(0.0977312,0,0,0.0977312,-0.00977312,6)">
        <path d="M439.2,270.4C442.2,270.4 444.9,269 444.9,265.1C444.9,261.4 442.1,260.1 439.5,260.1C438.6,260.1 436.6,260.1 435.9,260.3L435.9,270.2C436.9,270.3 438.2,270.4 439.2,270.4M435.8,285.8L435.6,286.1C435.2,286.1 433.9,286 433.4,286C432.9,286 431.9,286.1 431.5,286.1L431.3,285.8L431.3,257.1L431.5,256.8C433.1,256.7 437.1,256.5 439.5,256.5C446.1,256.5 449.6,259.7 449.6,265.1C449.6,269.2 447.1,271.7 444.4,272.9L452.2,285.8L452,286.1C451.5,286.1 450.1,286 449.5,286C449,286 447.8,286.1 447.3,286.1L447,285.8L440,273.7C439.6,273.8 438.8,273.8 438.4,273.8C437.7,273.8 436.4,273.7 435.9,273.6L435.9,285.8L435.8,285.8Z" style="fill:rgb(99,100,102);fill-rule:nonzero;"/>
    </g>
    <g transform="matrix(0.0977312,0,0,0.0977312,-0.00977312,6)">
        <path d="M3.9,234C3.9,236.2 5.1,238 7.2,238C8.7,238 9.8,237.3 10.8,236.3L12.6,227.8C12,227.2 11,226.8 9.9,226.8C7.3,226.7 3.9,228.6 3.9,234M9.7,225.2C11.2,225.2 12.4,225.8 12.9,226.3L13.1,225.5L13.3,225.3C13.8,225.3 14.6,225.3 15.1,225.2L15.2,225.3L11.9,241.2C11.2,244.7 9,246.5 5.4,246.5C2.8,246.5 1,245.5 0.1,244.8L0.1,244.6L0.9,243.2L1.1,243.1C2.1,243.9 3.4,244.7 5.5,244.7C7.9,244.7 9.3,243.5 9.8,241L10.5,237.8L10.4,237.8C9.7,238.6 8.2,239.2 6.6,239.2C3.4,239.2 1.7,236.4 1.7,233.9C1.7,228 5.9,225.2 9.7,225.2" style="fill:rgb(0,114,188);fill-rule:nonzero;"/>
    </g>
    <g transform="matrix(0.0977312,0,0,0.0977312,-0.00977312,6)">
        <path d="M30.5,230.4L30.6,230.2C30.7,229.9 30.7,229.2 30.7,229.1C30.7,227.5 29.8,226.6 28.3,226.6C25.9,226.6 23.6,228.5 23.1,231.4C25.5,231.3 28.7,230.9 30.5,230.4M31.6,237.4L31.5,237.6C30.2,238.5 28.4,239.4 26.1,239.4C22.4,239.4 20.7,236.7 20.7,233.6C20.7,228.5 24.2,225.1 28.6,225.1C31.4,225.1 32.8,227 32.8,229.2C32.8,229.8 32.7,230.7 32.3,231.4L32.1,231.6C29.6,232.2 26,232.7 23,232.8C22.9,233 22.9,233.4 22.9,233.7C22.9,236.1 24.2,237.7 26.6,237.7C28.6,237.7 30,236.8 31,236.1L31.2,236.1L31.6,237.4Z" style="fill:rgb(0,114,188);fill-rule:nonzero;"/>
    </g>
    <g transform="matrix(0.0977312,0,0,0.0977312,-0.00977312,6)">
        <path d="M56.3,236.5L57.6,230.2C57.7,229.7 57.7,229.3 57.7,228.9C57.7,227.6 57.1,226.8 55.4,226.8C53.8,226.8 52.3,227.5 51,228.4C51,228.9 50.9,229.4 50.8,229.9L48.8,239.1L48.6,239.3C48.1,239.3 47.3,239.3 46.8,239.4L46.7,239.3L48.6,230.3C48.7,229.8 48.8,229.3 48.8,229C48.8,227.8 48.1,227 46.4,227C44.8,227 43.3,227.8 42.1,228.6L39.9,239.3L39.7,239.5C39.2,239.5 38.4,239.5 37.9,239.6L37.8,239.5L40.2,227.9C40.2,227.6 40.3,227.3 40.3,227.1C40.3,226.6 40,226.2 39.8,226L39.9,225.8C40.3,225.8 41.2,225.6 41.7,225.5C42.1,225.7 42.3,226.5 42.3,227.1L42.4,227.1C43.9,226.3 45.4,225.5 47.5,225.5C49,225.5 50.3,226 50.8,227.3C52.7,226.1 54.2,225.5 56.4,225.5C58.3,225.5 59.9,226.3 59.9,228.6C59.9,229.1 59.8,229.6 59.7,230.2L58.3,237C58.2,237.2 58.1,238 58.1,238.3C58.1,238.8 58.2,239.2 58.4,239.5L58.3,239.7L58,239.7C57.5,239.7 56.9,239.7 56.6,239.8C56.3,239.6 56.1,239.1 56.1,238.5C56.1,237.6 56.3,236.8 56.3,236.5" style="fill:rgb(0,114,188);fill-rule:nonzero;"/>
    </g>
    <g transform="matrix(0.0977312,0,0,0.0977312,-0.00977312,6)">
        <path d="M76,230.4L76.1,230.2C76.2,229.9 76.2,229.2 76.2,229.1C76.2,227.5 75.3,226.6 73.8,226.6C71.4,226.6 69.1,228.5 68.6,231.4C71,231.3 74.2,230.9 76,230.4M77.1,237.4L77,237.6C75.7,238.5 73.9,239.4 71.6,239.4C67.9,239.4 66.2,236.7 66.2,233.6C66.2,228.5 69.7,225.1 74.1,225.1C76.9,225.1 78.3,227 78.3,229.2C78.3,229.8 78.2,230.7 77.8,231.4L77.6,231.6C75.1,232.2 71.5,232.7 68.5,232.8C68.4,233 68.4,233.4 68.4,233.7C68.4,236.1 69.7,237.7 72.1,237.7C74.1,237.7 75.5,236.8 76.5,236.1L76.7,236.1L77.1,237.4Z" style="fill:rgb(0,114,188);fill-rule:nonzero;"/>
    </g>
    <g transform="matrix(0.0977312,0,0,0.0977312,-0.00977312,6)">
        <path d="M94,230.4L94.1,230.2C94.2,229.9 94.2,229.2 94.2,229.1C94.2,227.5 93.3,226.6 91.8,226.6C89.4,226.6 87.1,228.5 86.6,231.4C89,231.3 92.1,230.9 94,230.4M95.1,237.4L95,237.6C93.7,238.5 91.9,239.4 89.6,239.4C85.9,239.4 84.2,236.7 84.2,233.6C84.2,228.5 87.7,225.1 92.1,225.1C94.9,225.1 96.3,227 96.3,229.2C96.3,229.8 96.2,230.7 95.8,231.4L95.6,231.6C93.1,232.2 89.5,232.7 86.5,232.8C86.4,233 86.4,233.4 86.4,233.7C86.4,236.1 87.7,237.7 90.1,237.7C92.1,237.7 93.5,236.8 94.5,236.1L94.7,236.1L95.1,237.4Z" style="fill:rgb(0,114,188);fill-rule:nonzero;"/>
    </g>
    <g transform="matrix(0.0977312,0,0,0.0977312,-0.00977312,6)">
        <path d="M111.2,236.5L112.5,230.2C112.6,229.7 112.6,229.3 112.6,228.9C112.6,227.6 112,226.8 110.3,226.8C108.6,226.8 107.1,227.5 105.7,228.4L103.5,239.1L103.3,239.3C102.8,239.3 102,239.3 101.5,239.4L101.4,239.2L103.8,227.7L103.9,226.9C103.9,226.4 103.6,225.8 103.4,225.6L103.5,225.4C103.9,225.4 104.8,225.2 105.3,225.1C105.7,225.3 105.9,226.2 105.9,226.7L106,226.7C107.5,225.8 109.2,225.1 111.4,225.1C113.4,225.1 114.9,225.9 114.9,228.2C114.9,228.7 114.8,229.2 114.7,229.8L113.3,236.6C113.2,236.9 113.1,237.7 113.1,237.9C113.1,238.4 113.2,238.8 113.4,239L113.3,239.2L112.9,239.2C112.4,239.2 111.8,239.2 111.5,239.3C111.2,239.1 111,238.6 111,238C111,237.6 111.1,236.8 111.2,236.5" style="fill:rgb(0,114,188);fill-rule:nonzero;"/>
    </g>
    <g transform="matrix(0.0977312,0,0,0.0977312,-0.00977312,6)">
        <path d="M126.1,225.3L130,225.3L130.1,225.5L129.6,226.8L129.4,226.9C129,226.8 128.3,226.8 127.9,226.8L125.7,226.8L123.7,235.3C123.6,235.7 123.6,236.1 123.6,236.4C123.6,237.3 124,237.8 124.8,237.8C125.7,237.8 126.6,237.4 127,237.1L127.2,237.2L127.6,238.5L127.5,238.7C127,239 125.9,239.5 124,239.5C122.2,239.5 121.4,238.5 121.4,237.1C121.4,236.7 121.5,236.1 121.6,235.6L123.6,226.9L122.3,226.9C122,226.9 121.5,226.9 121.3,227L121.2,226.8L121.7,225.6L121.9,225.5L124,225.5L124.4,223.9C124.4,223.7 124.5,223.1 124.5,222.9C124.5,222.6 124.5,222.2 124.4,221.8L124.5,221.6C124.9,221.6 125.7,221.5 126.1,221.3L126.3,221.3C126.4,221.5 126.5,222.1 126.5,222.6C126.5,222.9 126.4,223.7 126.3,224L126.1,225.3Z" style="fill:rgb(0,114,188);fill-rule:nonzero;"/>
    </g>
    <g transform="matrix(0.0977312,0,0,0.0977312,-0.00977312,6)">
        <path d="M143.1,230.4L143.2,230.2C143.3,229.9 143.3,229.2 143.3,229.1C143.3,227.5 142.4,226.6 140.9,226.6C138.5,226.6 136.2,228.5 135.7,231.4C138.1,231.3 141.3,230.9 143.1,230.4M144.2,237.4L144.1,237.6C142.8,238.5 141,239.4 138.7,239.4C135,239.4 133.3,236.7 133.3,233.6C133.3,228.5 136.8,225.1 141.2,225.1C144,225.1 145.4,227 145.4,229.2C145.4,229.8 145.3,230.7 144.9,231.4L144.7,231.6C142.2,232.2 138.6,232.7 135.6,232.8C135.5,233 135.5,233.4 135.5,233.7C135.5,236.1 136.8,237.7 139.2,237.7C141.2,237.7 142.6,236.8 143.6,236.1L143.8,236.1L144.2,237.4Z" style="fill:rgb(0,114,188);fill-rule:nonzero;"/>
    </g>
</svg>
