<svg xmlns="http://www.w3.org/2000/svg" xmlns:xlink="http://www.w3.org/1999/xlink" id="Laag_1" x="0" y="0" enable-background="new 0 0 452.1 286.4" version="1.1" viewBox="0 0 452.1 286.4" xml:space="preserve"><style type="text/css">.st0{fill:#20b6ea}.st1{fill:#f281b1}.st2{fill:#f7ec33}.st3{fill:#8dc640}.st4{fill:#059960}.st5{fill:#6966ac}.st6{fill:#eb4a97}.st7{fill:#e77b35}.st8{fill:#936d3a}.st9{fill:#4c5c4e}.st10{fill:#f9ed32}.st11{fill:#59ad55}.st12{fill:#ebe415}.st13{fill:#86c240}.st14{fill:#0f974a}.st15{fill:#e34b32}.st16{fill:#de7929}.st17{fill:#4b5b3e}.st18{fill:#706546}.st19{fill:#8f6c39}.st20{fill:#896a3a}.st21{fill:#8b4937}.st22{fill:#8ac641}.st23{fill:#00a44c}.st24{fill:#36b24a}.st25{fill:#00944a}.st26{fill:#7ec042}.st27{fill:#30b14a}.st28{fill:#00934a}.st29{fill:#00a44b}.st30{fill:#009e4d}.st31{fill:#79bc43}.st32{fill:#2baf4a}.st33{fill:#24ae4b}.st34{fill:#00a84d}.st35{fill:#00914a}.st36{fill:#45a357}.st37{fill:#636466}.st38{fill:#0072bc}</style><linearGradient id="SVGID_1_" x1="-195.449" x2="-194.742" y1="468.631" y2="467.924" gradientUnits="userSpaceOnUse"><stop offset="0" stop-color="#20AC4B"/><stop offset=".983" stop-color="#19361A"/></linearGradient><polygon points="265.3 86.7 245.6 66.6 245.6 66.6" class="st0"/><polygon points="200.1 112.7 219.8 132.7 225.8 126.7 206.1 106.7" class="st0"/><polygon points="304.7 46.6 285 26.6 285 26.6 304.7 46.6" class="st0"/><polygon points="331 20 311.2 0 304.7 6.6 324.5 26.6" class="st0"/><polygon points="324.5 66.6 324.5 66.6 304.7 46.6 304.7 46.6" class="st1"/><polygon points="285 106.7 265.3 86.7 265.3 86.7 285 106.7" class="st1"/><polygon points="245.6 146.7 239.6 152.8 259.3 172.8 265.3 166.7" class="st2"/><polygon points="370.4 60.1 370.4 60.1 350.7 40 344.2 46.6 363.9 66.6" class="st2"/><polygon points="344.2 86.7 344.2 86.7 324.5 66.7 324.5 66.7" class="st2"/><polygon points="285 106.7 285 106.7 304.7 126.7 304.8 126.7" class="st2"/><path d="M259.3,172.8L259.3,172.8L259.3,172.8z" class="st3"/><polygon points="383.7 86.7 390.2 80.1 370.4 60.1 363.9 66.7" class="st3"/><path d="M279,192.8L279,192.8L279,192.8z" class="st3"/><path d="M304.8,126.7l19.7,20L304.8,126.7z" class="st3"/><polygon points="344.2 86.7 363.9 106.7 363.9 106.7 344.2 86.7" class="st3"/><polygon points="344.2 86.7 344.2 86.7 344.2 86.7 344.2 86.7" class="st3"/><polygon points="363.9 66.6 363.9 66.7 370.4 60.1 370.4 60.1" class="st3"/><polygon points="304.7 126.7 304.8 126.7 304.8 126.7" class="st3"/><polygon points="265.3 166.7 259.3 172.8 259.3 172.8 265.3 166.7" class="st3"/><polygon points="279 192.8 298.8 212.8 304.7 206.7 285 186.7" class="st4"/><polygon points="383.7 86.7 403.4 106.7 409.9 100.1 390.2 80.1 390.2 80.1" class="st4"/><polygon points="324.5 146.7 344.2 166.7 344.2 166.7" class="st4"/><polygon points="363.9 106.7 383.7 126.7 383.7 126.7 363.9 106.7" class="st4"/><polygon points="285 186.7 279 192.8 279 192.8 285 186.7" class="st4"/><ellipse cx="363.9" cy="106.7" class="st4" rx="0" ry="0" transform="matrix(0.2201 -0.9755 0.9755 0.2201 179.7526 438.1801)"/><polygon points="383.7 86.7 390.2 80.1 390.2 80.1 383.7 86.7" class="st4"/><path d="M324.5,146.7L324.5,146.7L324.5,146.7z" class="st4"/><polygon points="363.9 146.7 363.9 146.7 363.9 146.7 344.2 166.7 348.8 171.3 350.3 172.9 370 152.9 368 150.8 363.9 146.7" class="st1"/><polygon points="258.9 40.2 258.9 40.2 239.2 60.2 239.2 60.2 241.3 62.3 245.6 66.6 265.3 46.6" class="st1"/><polygon points="304.7 86.7 304.7 86.7 285 106.7 285 106.7 304.7 86.7" class="st1"/><polygon points="285 66.7 285 66.7 269.2 82.7" class="st1"/><polygon points="285 66.6 265.3 46.6 245.6 66.6 265.3 86.7" class="st0"/><polygon points="265.3 46.6 265.3 46.6 245.6 66.6 260.3 81.7 265.3 86.7 269.2 82.7 285 66.7" class="st5"/><polygon points="304.7 86.7 285 66.6 265.3 86.7 285 106.7" class="st1"/><polygon points="285 66.7 285 66.7 265.3 86.7 285 106.7 285 106.7 304.7 86.7" class="st6"/><polygon points="285 106.7 304.8 126.7 324.5 106.7 304.7 86.7" class="st2"/><polygon points="304.7 86.7 285 106.7 304.7 126.7 304.8 126.7 319.5 111.7 324.5 106.7" class="st7"/><polygon points="304.8 126.7 324.5 146.7 344.2 126.7 324.5 106.7" class="st3"/><polygon points="324.5 106.7 324.5 106.7 304.8 126.7 324.5 146.7 344.2 126.7 344.2 126.7" class="st8"/><polygon points="304.7 126.7 304.8 126.7 324.5 106.7 324.5 106.7" class="st3"/><polygon points="324.5 106.7 319.5 111.7 304.8 126.7 304.8 126.7 304.8 126.7 324.5 106.7" class="st8"/><polygon points="344.2 126.7 324.5 146.7 344.2 166.7 363.9 146.7" class="st4"/><polygon points="344.2 126.7 331 140 324.5 146.7 334.3 156.7 344.2 166.7 363.9 146.7 363.9 146.7 363.9 146.7" class="st9"/><polygon points="324.5 146.7 324.5 146.7 344.2 126.7 344.2 126.7" class="st4"/><polygon points="344.2 126.7 344.2 126.7 324.5 146.7 324.5 146.7 324.5 146.7 344.2 126.7" class="st9"/><polygon points="265.3 86.7 245.6 106.7 265.3 86.7" class="st10"/><g><path d="M265.3,86.7" class="st11"/></g><polygon points="344.2 166.7 344.2 166.7 331 180 324.5 186.7 327.5 189.8 330.6 192.9 330.5 192.9 350.3 172.9 350.3 172.9 348.8 171.3" class="st10"/><path d="M350.3,172.9l-1.5-1.5L350.3,172.9z" class="st7"/><polygon points="285 106.7 285 106.7 265.3 126.7 265.3 126.7 265.3 126.7 265.3 126.7 265.3 126.7 285 106.7" class="st10"/><polygon points="239.2 60.2 239.2 60.2 219.4 80.2 219.5 80.2 225.8 86.6 231.7 80.6 245.6 66.6 241.3 62.3 239.2 60.2" class="st10"/><polygon points="239.2 60.2 241.3 62.3 239.2 60.2" class="st7"/><polygon points="245.6 106.7 265.3 86.7 245.6 66.6 225.8 86.6" class="st0"/><polygon points="245.6 66.6 231.7 80.6 225.8 86.6 231.2 92.1 245.6 106.7 265.3 86.7 260.3 81.7" class="st11"/><polygon points="265.3 86.7 245.6 106.7 265.3 126.7 285 106.7" class="st1"/><polygon points="265.3 86.7 265.3 86.7 245.6 106.7 256.1 117.3 265.3 126.7 285 106.7" class="st7"/><polygon points="207.8 144.8 207.8 144.8 187.6 165 187.6 165 207.8 185.2 228 165" class="st10"/><polygon points="285 106.7 265.3 126.7 285 146.7 304.7 126.7" class="st2"/><polygon points="285 106.7 285 106.7 265.3 126.7 265.3 126.7 265.3 126.7 280.1 141.7 285 146.7 285 146.7 304.7 126.7" class="st12"/><polygon points="285 146.7 304.8 166.7 324.5 146.7 304.8 126.7" class="st3"/><polygon points="304.8 126.7 304.8 126.7 285 146.7 304.8 166.7 324.5 146.7 324.5 146.7" class="st13"/><polygon points="304.7 126.7 285 146.7 285 146.7 304.8 126.7" class="st3"/><polygon points="304.7 126.7 285 146.7 285 146.7 285 146.7 304.8 126.7 304.8 126.7" class="st13"/><polygon points="304.8 166.7 324.5 186.7 344.2 166.7 324.5 146.7" class="st3"/><polygon points="304.7 166.7 304.8 166.7 324.5 146.7 324.5 146.7" class="st4"/><polygon points="324.5 146.7 324.5 146.7 304.8 166.7 304.8 166.7 304.8 166.7 304.8 166.7 324.5 146.7" class="st14"/><polygon points="279 20.5 272.6 14.1 252.9 34.1 259.3 40.5" class="st0"/><path d="M370,152.9L370,152.9L370,152.9z" class="st10"/><polygon points="383.6 126.7 383.6 126.7 363.9 146.7 370 152.9 389.7 132.9" class="st10"/><polygon points="301.9 49.5 294.9 56.6 285 66.6 285 66.6 285 66.6" class="st10"/><path d="M258.9,40.2L258.9,40.2L258.9,40.2z" class="st10"/><polygon points="324.5 66.7 324.5 66.7 314.6 76.7 304.8 86.7 304.8 86.7 304.8 86.7 324.5 66.7" class="st10"/><polygon points="285 66.6 304.7 46.6 285 26.6 265.3 46.6" class="st0"/><polygon points="285 26.6 265.3 46.6 285 66.6 301.9 49.5 304.7 46.6 294.9 36.6" class="st11"/><polygon points="324.5 66.6 304.7 46.6 285 66.6 304.7 86.7" class="st1"/><polygon points="304.7 46.6 301.9 49.5 285 66.6 304.7 86.7 324.5 66.7" class="st7"/><polygon points="324.5 106.7 344.2 86.7 324.5 66.7 304.8 86.7" class="st2"/><polygon points="324.5 66.7 304.8 86.7 304.8 86.7 324.5 106.7 344.2 86.7 344.2 86.7 331 73.3" class="st12"/><polygon points="324.5 106.7 344.2 86.7 344.2 86.7 324.5 106.7" class="st3"/><polygon points="344.2 86.7 344.2 86.7 344.2 86.7 324.5 106.7 324.5 106.7 344.2 86.7" class="st13"/><polygon points="344.2 126.7 363.9 146.7 383.6 126.7 363.9 106.7" class="st4"/><polygon points="402.5 145.8 402.5 145.8 382.7 165.8 402.5 185.8 402.5 185.8 422.2 165.8" class="st10"/><polygon points="344.2 126.7 344.2 126.7 363.9 106.7 363.9 106.7" class="st4"/><polygon points="363.9 106.7 363.9 106.7 344.2 126.7 344.2 126.7 363.9 106.7" class="st14"/><polygon points="363.9 146.7 363.9 146.7 368 150.8 370 152.9 370 152.9" class="st7"/><polygon points="363.9 146.7 368 150.8 363.9 146.7" class="st15"/><polygon points="363.9 146.7 363.9 146.7 370 152.9" class="st16"/><g><path d="M363.9,146.7" class="st17"/></g><ellipse cx="285" cy="66.7" class="st7" rx="0" ry="0" transform="matrix(0.9509 -0.3093 0.3093 0.9509 -6.6392 91.433)"/><ellipse cx="285" cy="66.6" class="st16" rx="0" ry="0" transform="matrix(0.4919 -0.8707 0.8707 0.4919 86.7906 282.005)"/><polygon points="304.7 86.7 304.7 86.7 304.7 86.7 304.7 86.7 304.8 86.7 304.8 86.7 304.7 86.7" class="st7"/><g><path d="M304.7,86.7" class="st15"/></g><polygon points="258.9 40.2 258.9 40.2 265.3 46.6 265.3 46.6" class="st7"/><polygon points="265.3 46.6 265.3 46.6 285 66.7 285 66.6" class="st0"/><polygon points="265.3 46.6 265.3 46.6 285 66.7 285 66.6" class="st18"/><polygon points="304.7 86.7 285 66.6 285 66.6 304.7 86.7" class="st1"/><polygon points="285 66.6 285 66.6 285 66.6 304.7 86.7 304.7 86.7" class="st15"/><polygon points="324.5 106.7 324.5 106.7 304.8 86.7 304.7 86.7" class="st2"/><polygon points="304.8 86.7 304.8 86.7 304.7 86.7 324.5 106.7 324.5 106.7 304.8 86.7" class="st16"/><polygon points="324.5 106.7 344.2 126.7 344.2 126.7 324.5 106.7" class="st3"/><polygon points="324.5 106.7 324.5 106.7 344.2 126.7 344.2 126.7" class="st19"/><ellipse cx="324.5" cy="106.7" class="st3" rx="0" ry="0" transform="matrix(0.2153 -0.9765 0.9765 0.2153 150.4149 400.5546)"/><polygon points="324.5 106.7 324.5 106.7 324.5 106.7" class="st20"/><path d="M324.5,106.7L324.5,106.7L324.5,106.7z" class="st21"/><ellipse cx="324.5" cy="106.7" class="st19" rx="0" ry="0" transform="matrix(0.2153 -0.9765 0.9765 0.2153 150.4149 400.5546)"/><polygon points="363.9 146.7 363.9 146.7 344.2 126.7 344.2 126.7" class="st4"/><polygon points="344.2 126.7 344.2 126.7 344.2 126.7 344.2 126.7 363.9 146.7 363.9 146.7" class="st17"/><polygon points="344.2 126.7 344.2 126.7 344.2 126.7 344.2 126.7" class="st4"/><polygon points="344.2 126.7 344.2 126.7 344.2 126.7" class="st7"/><path d="M344.2,126.7L344.2,126.7L344.2,126.7z" class="st19"/><path d="M344.2,126.7L344.2,126.7L344.2,126.7z" class="st21"/><polygon points="344.2 126.7 344.2 126.7 344.2 126.7 344.2 126.7 344.2 126.7" class="st17"/><polygon points="324.5 186.7 304.8 206.7 304.8 206.7 310.8 212.9 330.5 192.9 327.5 189.8" class="st22"/><polygon points="219.4 80.2 219.4 80.2 199.7 100.2 206.1 106.7 225.8 86.7 225.8 86.7" class="st22"/><g><path d="M219.4,80.2" class="st13"/></g><path d="M245.6,106.7 M245.6,106.7L233,119.4l-7.2,7.3L245.6,106.7z" class="st22"/><polygon points="265.3 126.7 265.3 126.7 245.6 146.7 245.6 146.7 245.6 146.7 245.6 146.7 265.3 126.7" class="st22"/><polygon points="225.8 86.7 206.1 106.7 225.8 126.7 245.6 106.7" class="st0"/><polygon points="225.8 86.7 206.1 106.7 206.1 106.7 225.8 126.7 245.6 106.7" class="st23"/><polygon points="285 146.7 265.3 126.7 245.6 146.7 265.3 166.7" class="st2"/><polygon points="265.3 126.7 265.3 126.7 245.6 146.7 245.6 146.7 265.3 166.7 265.3 166.7 285 146.7" class="st13"/><polygon points="285 146.7 265.3 166.7 285 186.7 304.7 166.7" class="st3"/><polygon points="285 146.7 265.3 166.7 265.3 166.7 285 186.7 304.7 166.7" class="st24"/><polygon points="285 146.7 265.3 166.7 265.3 166.7 285 146.7" class="st3"/><polygon points="285 146.7 265.3 166.7 265.3 166.7 285 146.7" class="st24"/><polygon points="304.7 166.7 285 186.7 304.7 206.7 324.5 186.7" class="st4"/><polygon points="304.7 166.7 285 186.7 285 186.7 304.7 206.7 304.7 206.7 324.5 186.7" class="st25"/><polygon points="285 186.7 285 186.7 304.7 166.7 304.7 166.7" class="st4"/><polygon points="304.7 166.7 304.7 166.7 285 186.7 285 186.7 285 186.7 304.7 166.7" class="st25"/><polygon points="265.3 126.7 265.3 126.7 265.3 126.7 265.3 126.7" class="st13"/><polygon points="265.3 126.7 265.3 126.7 265.3 126.7 265.3 126.7" class="st26"/><polygon points="265.3 126.7 265.3 126.7 265.3 126.7" class="st27"/><polygon points="324.5 186.7 324.5 186.7 324.5 186.7 324.5 186.7 327.5 189.8 330.5 192.9 330.6 192.9 327.5 189.8" class="st13"/><path d="M330.6,192.9l-3-3.1L330.6,192.9z" class="st26"/><polygon points="324.5 186.7 327.5 189.8 324.5 186.7" class="st27"/><path d="M324.5,186.7L324.5,186.7L324.5,186.7z" class="st28"/><path d="M245.6,106.7L245.6,106.7L245.6,106.7L245.6,106.7z M245.6,106.7L245.6,106.7L245.6,106.7L245.6,106.7z" class="st13"/><polygon points="219.5 80.2 219.4 80.2 225.8 86.7 225.8 86.6" class="st13"/><polygon points="219.5 80.2 219.4 80.2 219.5 80.2 225.8 86.6" class="st26"/><g><line x1="225.8" x2="225.8" y1="86.6" y2="86.6" class="st29"/></g><polygon points="219.4 80.2 219.4 80.2 225.8 86.7" class="st27"/><polygon points="225.8 86.6 225.8 86.7 245.6 106.7 245.6 106.7" class="st0"/><g><path d="M225.8,86.6" class="st30"/><path d="M225.8,86.6" class="st30"/></g><polygon points="225.8 86.6 225.8 86.6 225.8 86.7 245.6 106.7 245.6 106.7 245.6 106.7 245.6 106.7 231.2 92.1" class="st29"/><polygon points="245.6 106.7 245.6 106.7 265.3 126.7 265.3 126.7" class="st1"/><polygon points="245.6 106.7 245.6 106.7 245.6 106.7 245.6 106.7 265.3 126.7 265.3 126.7 265.3 126.7 256.1 117.3" class="st19"/><polygon points="265.3 126.7 265.3 126.7 285 146.7 285 146.7" class="st2"/><polygon points="265.3 126.7 265.3 126.7 265.3 126.7 265.3 126.7 280.1 141.7" class="st26"/><polygon points="265.3 126.7 265.3 126.7 265.3 126.7 265.3 126.7 280.1 141.7" class="st31"/><polygon points="265.3 126.7 265.3 126.7 265.3 126.7 265.3 126.7 285 146.7 285 146.7 285 146.7 285 146.7 280.1 141.7" class="st26"/><polygon points="285 146.7 304.7 166.7 304.8 166.7 285 146.7" class="st3"/><polygon points="285 146.7 285 146.7 285 146.7 304.7 166.7 304.7 166.7 304.8 166.7 304.7 166.7" class="st27"/><polygon points="285 146.7 285 146.7 285 146.7 285 146.7" class="st3"/><path d="M285,146.7L285,146.7L285,146.7z" class="st13"/><path d="M285,146.7L285,146.7L285,146.7z" class="st27"/><polygon points="285 146.7 285 146.7 285 146.7" class="st32"/><polygon points="285 146.7 285 146.7 285 146.7 285 146.7" class="st33"/><polygon points="285 146.7 285 146.7 285 146.7 285 146.7 285 146.7" class="st27"/><polygon points="324.5 186.7 324.5 186.7 304.8 166.7 304.7 166.7" class="st4"/><polygon points="304.8 166.7 304.7 166.7 304.7 166.7 324.5 186.7 324.5 186.7 324.5 186.7 324.5 186.7" class="st28"/><polygon points="304.7 166.7 304.7 166.7 304.8 166.7 304.7 166.7" class="st4"/><path d="M304.8,166.7L304.8,166.7L304.8,166.7z" class="st28"/><polygon points="304.8 166.7 304.8 166.7 304.8 166.7" class="st28"/><path d="M304.8,166.7L304.8,166.7L304.8,166.7z" class="st34"/><path d="M304.8,166.7L304.8,166.7L304.8,166.7z" class="st27"/><polygon points="304.7 166.7 304.7 166.7 304.7 166.7" class="st13"/><g><path d="M304.7,166.7" class="st28"/></g><polygon points="304.7 166.7 304.7 166.7 304.8 166.7" class="st35"/><polygon points="304.7 166.7 304.7 166.7 304.7 166.7 304.7 166.7 304.8 166.7 304.8 166.7 304.8 166.7" class="st28"/><polygon points="403.4 106.7 403.4 106.7 383.7 126.7 383.7 126.7 389.7 132.9 409.5 112.8" class="st22"/><g><path d="M403.4,106.7" class="st25"/></g><polygon points="383.7 126.7 383.7 126.7 383.7 126.7" class="st25"/><polygon points="324.5 26.6 324.5 26.6 304.7 46.6 304.7 46.6" class="st22"/><polygon points="344.2 46.6 344.2 46.6 324.5 66.7 324.5 66.7 344.2 46.6" class="st22"/><polygon points="298.4 .1 298.4 .1 278.6 20.1 278.6 20.1 285 26.6 304.7 6.6 304.7 6.6" class="st22"/><polygon points="324.5 26.6 304.7 6.6 285 26.6 304.7 46.6" class="st0"/><polygon points="304.7 6.6 304.7 6.6 285 26.6 304.7 46.6 304.7 46.6 324.5 26.6" class="st23"/><polygon points="324.5 66.6 344.2 46.6 324.5 26.6 304.7 46.6" class="st1"/><polygon points="350 .7 350 .7 344.4 6.4 344.4 6.4 364.1 26.4 369.7 20.8 369.7 20.7" class="st22"/><polygon points="344.2 86.7 363.9 66.6 344.2 46.6 324.5 66.7" class="st2"/><polygon points="344.2 46.6 324.5 66.7 344.2 86.7 350.8 80 363.9 66.7 363.9 66.6 363.9 66.7 363.9 66.6" class="st13"/><polygon points="363.9 106.7 383.7 86.7 363.9 66.7 344.2 86.7" class="st3"/><polygon points="363.9 66.7 363.9 66.7 349.7 81.1 344.2 86.7 363.9 106.7 363.9 106.7 383.7 86.7 383.7 86.7" class="st24"/><polygon points="406.5 23.5 386.7 43.5 406.4 63.5 426.2 43.5" class="st22"/><polygon points="363.9 66.7 363.9 66.6 344.2 86.7 344.2 86.7" class="st3"/><polygon points="363.9 66.7 363.9 66.7 344.2 86.7 344.2 86.7 344.2 86.7 344.2 86.7 363.9 66.7" class="st24"/><polygon points="383.7 86.7 363.9 106.7 383.7 126.7 403.4 106.7" class="st4"/><polygon points="383.7 86.7 363.9 106.7 363.9 106.7 383.7 126.7 403.4 106.7" class="st36"/><polygon points="363.9 106.7 363.9 106.7 383.7 86.7 383.7 86.7" class="st4"/><polygon points="383.7 86.7 383.7 86.7 383.7 86.7 363.9 106.7 363.9 106.7 363.9 106.7 383.7 86.7" class="st25"/><polygon points="324.5 146.7 324.5 146.7 304.8 166.7 304.8 166.7 324.5 186.7 344.2 166.7 344.2 166.7 334.3 156.7" class="st24"/><polygon points="324.5 146.7 324.5 146.7 304.8 166.7 304.8 166.7" class="st28"/><g><path d="M47.1,264.7h-0.2v21l-0.2,0.3c-0.5,0-1.5-0.1-2-0.1c-0.5,0-1.4,0.1-2,0.1l-0.2-0.3v-28.7l0.2-0.3 c0.5,0.1,1.5,0.2,1.9,0.2c0.4,0,1.3-0.1,1.8-0.2l0.3,0.2l14.5,20.9h0.2v-20.7l0.2-0.3c0.5,0.1,1.5,0.2,1.9,0.2c0.5,0,1.5,0,2-0.2 l0.2,0.3v28.7l-0.3,0.3c-0.5,0-1.3-0.1-1.7-0.1c-0.4,0-1.2,0.1-1.6,0.1l-0.4-0.3L47.1,264.7z" class="st37"/><path d="M95.1,272.3c0-8-4.1-12-9.7-12c-5.7,0-9.2,5-9.2,10.2c0,7.7,3.9,11.9,9.8,11.9 C91.3,282.5,95.1,278.2,95.1,272.3 M99.9,271.7c0,8.4-5.5,14.7-14.2,14.7c-8.5,0-14.3-6-14.3-14.7c0-9.1,5.9-15.2,14.3-15.2 C94.2,256.5,99.9,262.6,99.9,271.7" class="st37"/><path d="M128.3,272.3c0-8-4.1-12-9.7-12c-5.7,0-9.2,5-9.2,10.2c0,7.7,3.9,11.9,9.8,11.9 C124.4,282.5,128.3,278.2,128.3,272.3 M133,271.7c0,8.4-5.5,14.7-14.2,14.7c-8.5,0-14.3-6-14.3-14.7c0-9.1,5.9-15.2,14.3-15.2 C127.3,256.5,133,262.6,133,271.7" class="st37"/><path d="M146.5,270.4c3,0,5.7-1.4,5.7-5.3c0-3.7-2.8-5-5.4-5c-1,0-2.9,0-3.6,0.2v9.9 C144.2,270.3,145.5,270.4,146.5,270.4 M143.2,285.8l-0.2,0.3c-0.4,0-1.7-0.1-2.2-0.1c-0.5,0-1.5,0.1-1.9,0.1l-0.2-0.3v-28.7 l0.2-0.3c1.6-0.1,5.6-0.3,8-0.3c6.7,0,10.1,3.2,10.1,8.6c0,4.1-2.5,6.6-5.2,7.8l7.8,12.9l-0.2,0.3c-0.5,0-1.9-0.1-2.5-0.1 c-0.5,0-1.7,0.1-2.2,0.1l-0.3-0.3l-7-12.1c-0.4,0.1-1.2,0.1-1.6,0.1c-0.7,0-2-0.1-2.5-0.2V285.8z" class="st37"/><path d="M167.7,260.5v21.8c1.1,0.2,3.3,0.3,4.5,0.3c5.7,0,10.2-3.3,10.2-11.4c0-8-4.2-10.9-10-10.9 C171,260.3,168.9,260.3,167.7,260.5 M163.1,285.8v-28.7l0.2-0.3c2.6-0.1,7.3-0.2,9.1-0.2c10.2,0,14.8,5.9,14.8,14.9 c0,7.9-4.1,15-14.7,15c-1.8,0-6-0.1-9.2-0.3L163.1,285.8z" class="st37"/><path d="M215.6,272.3c0-8-4.1-12-9.7-12c-5.7,0-9.2,5-9.2,10.2c0,7.7,3.9,11.9,9.8,11.9 C211.8,282.5,215.6,278.2,215.6,272.3 M220.4,271.7c0,8.4-5.5,14.7-14.2,14.7c-8.5,0-14.3-6-14.3-14.7c0-9.1,5.9-15.2,14.3-15.2 C214.7,256.5,220.4,262.6,220.4,271.7" class="st37"/><path d="M248.8,272.3c0-8-4.1-12-9.7-12c-5.7,0-9.2,5-9.2,10.2c0,7.7,3.9,11.9,9.8,11.9 C244.9,282.5,248.8,278.2,248.8,272.3 M253.6,271.7c0,8.4-5.5,14.7-14.2,14.7c-8.5,0-14.3-6-14.3-14.7c0-9.1,5.9-15.2,14.3-15.2 C247.9,256.5,253.6,262.6,253.6,271.7" class="st37"/><path d="M274.3,262.5l-0.4,0.1c-1.9-1.7-4.4-2.4-6.7-2.4c-2.8,0-4.8,1.5-4.8,3.8c0,2.7,1.7,3.8,5.3,4.9 c5.1,1.5,8.6,3.4,8.6,9c0,4.5-3.2,8.5-9.6,8.5c-3.6,0-7.2-1-9.8-3l-0.1-0.4l1.5-3.6l0.4-0.1c2.1,2,5.1,3.4,8,3.4c3.2,0,5-2,5-4.2 c0-3.1-1.9-4.2-5.9-5.3c-4.7-1.3-7.9-3.4-7.9-8.3c0-5.1,4.4-8.3,9.4-8.3c2.9,0,5.5,0.6,8.3,2.4l0.1,0.3L274.3,262.5z" class="st37"/><path d="M300.1,256.7l0.3,0.3l-0.4,4l-0.3,0.2c-1.3-0.5-3.5-0.6-5-0.6h-3.3v25.1l-0.2,0.3c-0.4,0-1.5-0.1-2.1-0.1 c-0.5,0-1.7,0.1-2,0.1l-0.2-0.3v-25.1h-3c-1.6,0-4,0.2-5.3,0.6l-0.3-0.2l0.3-4l0.3-0.3c2.6,0.1,8.3,0.2,10.2,0.2 C291.6,256.9,297,256.9,300.1,256.7" class="st37"/><path d="M312.3,271c3.1,0,5.5-1.9,5.5-5.6c0-3.4-2-5.4-5.5-5.4c-0.9,0-2.6,0-3.3,0.2v10.4 C309.8,270.8,311.2,271,312.3,271 M304.4,285.8v-28.7l0.2-0.3c1.6-0.1,5.6-0.3,7.9-0.3c6.3,0,9.9,3.3,9.9,8.9c0,4.5-2.6,8.9-10,8.9 c-1.2,0-2.6-0.2-3.5-0.4v11.8l-0.2,0.3c-0.3,0-1.5-0.1-2.2-0.1c-0.4,0-1.6,0.1-2,0.1L304.4,285.8z" class="st37"/><path d="M349.6,272.3c0-8-4.1-12-9.7-12c-5.7,0-9.2,5-9.2,10.2c0,7.7,3.9,11.9,9.8,11.9 C345.7,282.5,349.6,278.2,349.6,272.3 M354.4,271.7c0,8.4-5.5,14.7-14.2,14.7c-8.5,0-14.3-6-14.3-14.7c0-9.1,5.9-15.2,14.3-15.2 C348.7,256.5,354.4,262.6,354.4,271.7" class="st37"/><path d="M364.5,282.3h3.7c3.8,0,5.8,0,7.4-0.6l0.3,0.2l-0.3,3.9l-0.3,0.3c-2.4-0.1-5.7-0.1-8.1-0.1 c-1.7,0-6.5,0.1-7,0.1l-0.2-0.3v-28.7l0.2-0.3c0.5,0.1,1.4,0.2,2,0.2c0.7,0,1.6-0.1,2.1-0.2l0.2,0.3V282.3z" class="st37"/><path d="M384.9,260.5v21.8c1.1,0.2,3.3,0.3,4.5,0.3c5.7,0,10.3-3.3,10.3-11.4c0-8-4.2-10.9-10-10.9 C388.3,260.3,386.1,260.3,384.9,260.5 M380.3,285.8v-28.7l0.2-0.3c2.6-0.1,7.3-0.2,9.1-0.2c10.2,0,14.8,5.9,14.8,14.9 c0,7.9-4.1,15-14.7,15c-1.8,0-6-0.1-9.2-0.3L380.3,285.8z" class="st37"/><path d="M426,286.1c-2.3-0.1-5.5-0.1-8.1-0.1c-2,0-6.3,0.1-7.6,0.1l-0.3-0.3v-28.7l0.3-0.3c1,0,5.8,0.2,7,0.2 c1.6,0,6-0.1,8.5-0.2l0.2,0.3l-0.3,4l-0.3,0.2c-1.8-0.5-3.7-0.6-6.5-0.6h-4.3v8.2h9.5l0.3,0.3l-0.2,3.5l-0.3,0.3 c-1.6-0.2-3.9-0.3-5.4-0.3h-3.9v9.7h4.1c4.1,0,5.9-0.1,7.6-0.6l0.2,0.2l-0.3,3.9L426,286.1z" class="st37"/><path d="M439.2,270.4c3,0,5.7-1.4,5.7-5.3c0-3.7-2.8-5-5.4-5c-0.9,0-2.9,0-3.6,0.2v9.9 C436.9,270.3,438.2,270.4,439.2,270.4 M435.8,285.8l-0.2,0.3c-0.4,0-1.7-0.1-2.2-0.1c-0.5,0-1.5,0.1-1.9,0.1l-0.2-0.3v-28.7 l0.2-0.3c1.6-0.1,5.6-0.3,8-0.3c6.6,0,10.1,3.2,10.1,8.6c0,4.1-2.5,6.6-5.2,7.8l7.8,12.9l-0.2,0.3c-0.5,0-1.9-0.1-2.5-0.1 c-0.5,0-1.7,0.1-2.2,0.1l-0.3-0.3l-7-12.1c-0.4,0.1-1.2,0.1-1.6,0.1c-0.7,0-2-0.1-2.5-0.2V285.8z" class="st37"/><path d="M3.9,234c0,2.2,1.2,4,3.3,4c1.5,0,2.6-0.7,3.6-1.7l1.8-8.5c-0.6-0.6-1.6-1-2.7-1C7.3,226.7,3.9,228.6,3.9,234 M9.7,225.2c1.5,0,2.7,0.6,3.2,1.1l0.2-0.8l0.2-0.2c0.5,0,1.3,0,1.8-0.1l0.1,0.1l-3.3,15.9c-0.7,3.5-2.9,5.3-6.5,5.3 c-2.6,0-4.4-1-5.3-1.7v-0.2l0.8-1.4l0.2-0.1c1,0.8,2.3,1.6,4.4,1.6c2.4,0,3.8-1.2,4.3-3.7l0.7-3.2h-0.1c-0.7,0.8-2.2,1.4-3.8,1.4 c-3.2,0-4.9-2.8-4.9-5.3C1.7,228,5.9,225.2,9.7,225.2" class="st38"/><path d="M30.5,230.4l0.1-0.2c0.1-0.3,0.1-1,0.1-1.1c0-1.6-0.9-2.5-2.4-2.5c-2.4,0-4.7,1.9-5.2,4.8 C25.5,231.3,28.7,230.9,30.5,230.4 M31.6,237.4l-0.1,0.2c-1.3,0.9-3.1,1.8-5.4,1.8c-3.7,0-5.4-2.7-5.4-5.8c0-5.1,3.5-8.5,7.9-8.5 c2.8,0,4.2,1.9,4.2,4.1c0,0.6-0.1,1.5-0.5,2.2l-0.2,0.2c-2.5,0.6-6.1,1.1-9.1,1.2c-0.1,0.2-0.1,0.6-0.1,0.9c0,2.4,1.3,4,3.7,4 c2,0,3.4-0.9,4.4-1.6l0.2,0L31.6,237.4z" class="st38"/><path d="M56.3,236.5l1.3-6.3c0.1-0.5,0.1-0.9,0.1-1.3c0-1.3-0.6-2.1-2.3-2.1c-1.6,0-3.1,0.7-4.4,1.6 c0,0.5-0.1,1-0.2,1.5l-2,9.2l-0.2,0.2c-0.5,0-1.3,0-1.8,0.1l-0.1-0.1l1.9-9c0.1-0.5,0.2-1,0.2-1.3c0-1.2-0.7-2-2.4-2 c-1.6,0-3.1,0.8-4.3,1.6l-2.2,10.7l-0.2,0.2c-0.5,0-1.3,0-1.8,0.1l-0.1-0.1l2.4-11.6c0-0.3,0.1-0.6,0.1-0.8c0-0.5-0.3-0.9-0.5-1.1 l0.1-0.2c0.4,0,1.3-0.2,1.8-0.3c0.4,0.2,0.6,1,0.6,1.6h0.1c1.5-0.8,3-1.6,5.1-1.6c1.5,0,2.8,0.5,3.3,1.8c1.9-1.2,3.4-1.8,5.6-1.8 c1.9,0,3.5,0.8,3.5,3.1c0,0.5-0.1,1-0.2,1.6l-1.4,6.8c-0.1,0.2-0.2,1-0.2,1.3c0,0.5,0.1,0.9,0.3,1.2l-0.1,0.2H58 c-0.5,0-1.1,0-1.4,0.1c-0.3-0.2-0.5-0.7-0.5-1.3C56.1,237.6,56.3,236.8,56.3,236.5" class="st38"/><path d="M76,230.4l0.1-0.2c0.1-0.3,0.1-1,0.1-1.1c0-1.6-0.9-2.5-2.4-2.5c-2.4,0-4.7,1.9-5.2,4.8 C71,231.3,74.2,230.9,76,230.4 M77.1,237.4l-0.1,0.2c-1.3,0.9-3.1,1.8-5.4,1.8c-3.7,0-5.4-2.7-5.4-5.8c0-5.1,3.5-8.5,7.9-8.5 c2.8,0,4.2,1.9,4.2,4.1c0,0.6-0.1,1.5-0.5,2.2l-0.2,0.2c-2.5,0.6-6.1,1.1-9.1,1.2c-0.1,0.2-0.1,0.6-0.1,0.9c0,2.4,1.3,4,3.7,4 c2,0,3.4-0.9,4.4-1.6l0.2,0L77.1,237.4z" class="st38"/><path d="M94,230.4l0.1-0.2c0.1-0.3,0.1-1,0.1-1.1c0-1.6-0.9-2.5-2.4-2.5c-2.4,0-4.7,1.9-5.2,4.8 C89,231.3,92.1,230.9,94,230.4 M95.1,237.4l-0.1,0.2c-1.3,0.9-3.1,1.8-5.4,1.8c-3.7,0-5.4-2.7-5.4-5.8c0-5.1,3.5-8.5,7.9-8.5 c2.8,0,4.2,1.9,4.2,4.1c0,0.6-0.1,1.5-0.5,2.2l-0.2,0.2c-2.5,0.6-6.1,1.1-9.1,1.2c-0.1,0.2-0.1,0.6-0.1,0.9c0,2.4,1.3,4,3.7,4 c2,0,3.4-0.9,4.4-1.6l0.2,0L95.1,237.4z" class="st38"/><path d="M111.2,236.5l1.3-6.3c0.1-0.5,0.1-0.9,0.1-1.3c0-1.3-0.6-2.1-2.3-2.1c-1.7,0-3.2,0.7-4.6,1.6l-2.2,10.7 l-0.2,0.2c-0.5,0-1.3,0-1.8,0.1l-0.1-0.2l2.4-11.5l0.1-0.8c0-0.5-0.3-1.1-0.5-1.3l0.1-0.2c0.4,0,1.3-0.2,1.8-0.3 c0.4,0.2,0.6,1.1,0.6,1.6h0.1c1.5-0.9,3.2-1.6,5.4-1.6c2,0,3.5,0.8,3.5,3.1c0,0.5-0.1,1-0.2,1.6l-1.4,6.8c-0.1,0.3-0.2,1.1-0.2,1.3 c0,0.5,0.1,0.9,0.3,1.1l-0.1,0.2h-0.4c-0.5,0-1.1,0-1.4,0.1c-0.3-0.2-0.5-0.7-0.5-1.3C111,237.6,111.1,236.8,111.2,236.5" class="st38"/><path d="M126.1,225.3h3.9l0.1,0.2l-0.5,1.3l-0.2,0.1c-0.4-0.1-1.1-0.1-1.5-0.1h-2.2l-2,8.5c-0.1,0.4-0.1,0.8-0.1,1.1 c0,0.9,0.4,1.4,1.2,1.4c0.9,0,1.8-0.4,2.2-0.7l0.2,0.1l0.4,1.3l-0.1,0.2c-0.5,0.3-1.6,0.8-3.5,0.8c-1.8,0-2.6-1-2.6-2.4 c0-0.4,0.1-1,0.2-1.5l2-8.7h-1.3c-0.3,0-0.8,0-1,0.1l-0.1-0.2l0.5-1.2l0.2-0.1h2.1l0.4-1.6c0-0.2,0.1-0.8,0.1-1 c0-0.3,0-0.7-0.1-1.1l0.1-0.2c0.4,0,1.2-0.1,1.6-0.3h0.2c0.1,0.2,0.2,0.8,0.2,1.3c0,0.3-0.1,1.1-0.2,1.4L126.1,225.3z" class="st38"/><path d="M143.1,230.4l0.1-0.2c0.1-0.3,0.1-1,0.1-1.1c0-1.6-0.9-2.5-2.4-2.5c-2.4,0-4.7,1.9-5.2,4.8 C138.1,231.3,141.3,230.9,143.1,230.4 M144.2,237.4l-0.1,0.2c-1.3,0.9-3.1,1.8-5.4,1.8c-3.7,0-5.4-2.7-5.4-5.8 c0-5.1,3.5-8.5,7.9-8.5c2.8,0,4.2,1.9,4.2,4.1c0,0.6-0.1,1.5-0.5,2.2l-0.2,0.2c-2.5,0.6-6.1,1.1-9.1,1.2c-0.1,0.2-0.1,0.6-0.1,0.9 c0,2.4,1.3,4,3.7,4c2,0,3.4-0.9,4.4-1.6l0.2,0L144.2,237.4z" class="st38"/></g></svg>