<svg viewBox="0 0 45 40" xmlns="http://www.w3.org/2000/svg" fill-rule="evenodd" clip-rule="evenodd" stroke-linejoin="round" stroke-miterlimit="2"><path d="M25.918 14.473l-1.925-1.964 1.925 1.964zM19.546 17.014l1.926 1.955.586-.586-1.925-1.955-.587.586zM29.769 10.554L27.844 8.6l1.925 1.954zM32.34 7.955L30.403 6l-.635.645L31.704 8.6l.635-.645z" fill="#20b6ea" fill-rule="nonzero"/><path d="M31.704 12.509l-1.935-1.955 1.935 1.955zM27.844 16.428l-1.926-1.955 1.926 1.955z" fill="#f281b1" fill-rule="nonzero"/><path d="M23.993 20.337l-.586.596 1.925 1.955.586-.596-1.925-1.955zM36.19 11.874l-1.925-1.965-.636.645 1.926 1.955.635-.635zM33.63 14.473l-1.926-1.954 1.925 1.954zM27.844 16.428l1.925 1.955h.01l-1.935-1.955z" fill="#f7ec33" fill-rule="nonzero"/><path d="M37.49 14.473l.635-.645-1.935-1.954-.635.645 1.935 1.954zM29.779 18.383l1.925 1.954-1.925-1.954zM33.63 14.473l1.925 1.955-1.926-1.955z" fill="#8dc640" fill-rule="nonzero"/><path d="M35.555 12.509v.01l.635-.645-.635.635zM29.769 18.383h.01-.01zM25.918 22.292l-.586.596.586-.596z" fill="#8dc640" fill-rule="nonzero"/><path d="M27.257 24.843l1.935 1.954.577-.596-1.925-1.955-.587.597zM37.49 14.473l1.925 1.955.635-.645-1.925-1.955-.635.645zM31.704 20.337l1.925 1.955-1.925-1.955zM35.555 16.428l1.935 1.955-1.935-1.955zM27.844 24.246l-.587.597.587-.597zM37.49 14.473l.635-.645-.635.645z" fill="#059960" fill-rule="nonzero"/><path d="M35.555 20.337l-1.926 1.955.45.45.146.156 1.926-1.955-.196-.205-.4-.4zM25.293 9.929l-1.925 1.954.625.626 1.925-1.955-.625-.625zM29.769 14.473l-1.925 1.955 1.925-1.955zM27.844 12.519l-1.545 1.563 1.545-1.563z" fill="#f281b1" fill-rule="nonzero"/><path d="M27.844 12.509l-1.926-1.955-1.925 1.955 1.925 1.964 1.926-1.964z" fill="#20b6ea" fill-rule="nonzero"/><path d="M25.918 10.554l-1.925 1.955 1.437 1.476.488.488.381-.39 1.545-1.564-1.926-1.965z" fill="#6966ac" fill-rule="nonzero"/><path d="M29.769 14.473l-1.925-1.964-1.926 1.964 1.926 1.955 1.925-1.955z" fill="#f281b1" fill-rule="nonzero"/><path d="M27.844 12.519l-1.926 1.954 1.926 1.955 1.925-1.955-1.925-1.954z" fill="#eb4a97" fill-rule="nonzero"/><path d="M27.844 16.428l1.935 1.955 1.925-1.955-1.935-1.955-1.925 1.955z" fill="#f7ec33" fill-rule="nonzero"/><path d="M29.769 14.473l-1.925 1.955 1.925 1.955h.01l1.436-1.466.489-.49-1.935-1.954z" fill="#e77b35" fill-rule="nonzero"/><path d="M29.779 18.383l1.925 1.954 1.925-1.954-1.925-1.955-1.925 1.955z" fill="#8dc640" fill-rule="nonzero"/><path d="M31.704 16.428l-1.925 1.955 1.925 1.954 1.925-1.954-1.925-1.955z" fill="#936d3a" fill-rule="nonzero"/><path d="M29.769 18.383h.01l1.925-1.955-1.935 1.955z" fill="#8dc640" fill-rule="nonzero"/><path d="M31.704 16.428l-.489.489-1.436 1.466 1.925-1.955z" fill="#936d3a" fill-rule="nonzero"/><path d="M33.63 18.383l-1.926 1.954 1.925 1.955 1.926-1.955-1.926-1.954z" fill="#059960" fill-rule="nonzero"/><path d="M33.63 18.383l-1.29 1.3-.636.654.958.977.967.978 1.926-1.955-1.926-1.954z" fill="#4c5c4e" fill-rule="nonzero"/><path d="M31.704 20.337l1.925-1.954-1.925 1.954z" fill="#059960" fill-rule="nonzero"/><path d="M33.63 18.383l-1.926 1.954 1.925-1.954z" fill="#4c5c4e" fill-rule="nonzero"/><path d="M25.918 14.473l-1.925 1.955 1.925-1.955zM33.63 22.292l-1.29 1.3-.636.654.293.303.303.303h-.01l1.935-1.954-.146-.157-.45-.45z" fill="#f9ed32" fill-rule="nonzero"/><path d="M34.225 22.898l-.146-.147.146.147z" fill="#e77b35" fill-rule="nonzero"/><path d="M27.844 16.428l-1.926 1.955 1.926-1.955zM23.368 11.883l-1.936 1.955h.01l.616.626.577-.587 1.358-1.368-.625-.626z" fill="#f9ed32" fill-rule="nonzero"/><path d="M23.368 11.883l.205.206-.205-.206z" fill="#e77b35" fill-rule="nonzero"/><path d="M23.993 16.428l1.925-1.955-1.925-1.964-1.935 1.955 1.935 1.964z" fill="#20b6ea" fill-rule="nonzero"/><path d="M23.993 12.509l-1.358 1.368-.577.587.528.537 1.407 1.427 1.925-1.955-.488-.488-1.437-1.476z" fill="#59ad55" fill-rule="nonzero"/><path d="M25.918 14.473l-1.925 1.955 1.925 1.955 1.926-1.955-1.926-1.955z" fill="#f281b1" fill-rule="nonzero"/><path d="M25.918 14.473l-1.925 1.955 1.026 1.036.9.919 1.925-1.955-1.926-1.955z" fill="#e77b35" fill-rule="nonzero"/><path d="M20.299 20.151l-1.974 1.975 1.974 1.974 1.974-1.974-1.974-1.975z" fill="#f9ed32" fill-rule="nonzero"/><path d="M27.844 16.428l-1.926 1.955 1.926 1.954 1.925-1.954-1.925-1.955z" fill="#f7ec33" fill-rule="nonzero"/><path d="M27.844 16.428l-1.926 1.955 1.447 1.466.479.488 1.925-1.954-1.925-1.955z" fill="#ebe415" fill-rule="nonzero"/><path d="M27.844 20.337l1.935 1.955 1.925-1.955-1.925-1.954-1.935 1.954z" fill="#8dc640" fill-rule="nonzero"/><path d="M29.779 18.383l-1.935 1.954 1.935 1.955 1.925-1.955-1.925-1.954z" fill="#86c240" fill-rule="nonzero"/><path d="M29.769 18.383l-1.925 1.954 1.935-1.954h-.01z" fill="#8dc640" fill-rule="nonzero"/><path d="M29.769 18.383l-1.925 1.954 1.935-1.954h-.01z" fill="#86c240" fill-rule="nonzero"/><path d="M29.779 22.292l1.925 1.954 1.925-1.954-1.925-1.955-1.925 1.955z" fill="#8dc640" fill-rule="nonzero"/><path d="M29.769 22.292h.01l1.925-1.955-1.935 1.955z" fill="#059960" fill-rule="nonzero"/><path d="M31.704 20.337l-1.925 1.955 1.925-1.955z" fill="#0f974a" fill-rule="nonzero"/><path d="M27.257 8.003l-.625-.625-1.926 1.955.626.625 1.925-1.955z" fill="#20b6ea" fill-rule="nonzero"/><path d="M37.48 18.383l-1.925 1.954.596.606 1.925-1.955-.596-.605zM29.495 10.838l-.684.694-.967.977 1.651-1.671zM31.704 12.519l-.968.977-.957.977 1.925-1.954z" fill="#f9ed32" fill-rule="nonzero"/><path d="M27.844 12.509l1.925-1.955L27.844 8.6l-1.926 1.954 1.926 1.955z" fill="#20b6ea" fill-rule="nonzero"/><path d="M27.844 8.6l-1.926 1.954 1.926 1.955 1.651-1.671.274-.284-.958-.977-.967-.977z" fill="#59ad55" fill-rule="nonzero"/><path d="M31.704 12.509l-1.935-1.955-1.925 1.955 1.925 1.964 1.935-1.964z" fill="#f281b1" fill-rule="nonzero"/><path d="M29.769 10.554l-.274.284-1.651 1.67 1.925 1.965 1.935-1.954-1.935-1.965z" fill="#e77b35" fill-rule="nonzero"/><path d="M31.704 16.428l1.925-1.955-1.925-1.954-1.925 1.954 1.925 1.955z" fill="#f7ec33" fill-rule="nonzero"/><path d="M31.704 12.519l-1.925 1.954 1.925 1.955 1.925-1.955-1.29-1.31-.635-.644z" fill="#ebe415" fill-rule="nonzero"/><path d="M31.704 16.428l1.925-1.955-1.925 1.955z" fill="#8dc640" fill-rule="nonzero"/><path d="M33.63 14.473l-1.926 1.955 1.925-1.955z" fill="#86c240" fill-rule="nonzero"/><path d="M33.63 18.383l1.925 1.954 1.925-1.954-1.925-1.955-1.926 1.955z" fill="#059960" fill-rule="nonzero"/><path d="M39.327 20.25l-1.935 1.954 1.935 1.954 1.925-1.954-1.925-1.955z" fill="#f9ed32" fill-rule="nonzero"/><path d="M33.63 18.383l1.925-1.955-1.926 1.955z" fill="#059960" fill-rule="nonzero"/><path d="M35.555 16.428l-1.926 1.955 1.926-1.955z" fill="#0f974a" fill-rule="nonzero"/><path d="M35.555 20.337l.4.4.196.206-.596-.606z" fill="#e77b35" fill-rule="nonzero"/><path d="M35.555 20.337l.4.4-.4-.4z" fill="#e34b32" fill-rule="nonzero"/><path d="M35.555 20.337l.596.606-.596-.606z" fill="#de7929" fill-rule="nonzero"/><path d="M29.769 14.473h.01-.01zM25.293 9.929l.625.625-.625-.625z" fill="#e77b35" fill-rule="nonzero"/><path d="M25.918 10.554l1.926 1.965v-.01l-1.926-1.955z" fill="#20b6ea" fill-rule="nonzero"/><path d="M25.918 10.554l1.926 1.965v-.01l-1.926-1.955z" fill="#706546" fill-rule="nonzero"/><path d="M29.769 14.473l-1.925-1.964 1.925 1.964z" fill="#f281b1" fill-rule="nonzero"/><path d="M27.844 12.509l1.925 1.964-1.925-1.964z" fill="#e34b32" fill-rule="nonzero"/><path d="M31.704 16.428l-1.925-1.955h-.01l1.935 1.955z" fill="#f7ec33" fill-rule="nonzero"/><path d="M29.779 14.473h-.01l1.935 1.955-1.925-1.955z" fill="#de7929" fill-rule="nonzero"/><path d="M31.704 16.428l1.925 1.955-1.925-1.955z" fill="#8dc640" fill-rule="nonzero"/><path d="M31.704 16.428l1.925 1.955-1.925-1.955z" fill="#8f6c39" fill-rule="nonzero"/><path d="M35.555 20.337l-1.926-1.954 1.926 1.954z" fill="#059960" fill-rule="nonzero"/><path d="M33.63 18.383l1.925 1.954-1.926-1.954z" fill="#4b5b3e" fill-rule="nonzero"/><path d="M31.704 24.246l-1.925 1.955.586.606 1.925-1.955-.586-.606zM21.432 13.838l-1.925 1.955.626.635 1.925-1.955-.626-.635zM23.993 16.428l-1.231 1.241-.704.714 1.935-1.955zM25.918 18.383l-1.925 1.954 1.925-1.954z" fill="#8ac641" fill-rule="nonzero"/><path d="M22.058 14.473l-1.925 1.955 1.925 1.955 1.935-1.955-1.935-1.955z" fill="#20b6ea" fill-rule="nonzero"/><path d="M22.058 14.473l-1.925 1.955 1.925 1.955 1.935-1.955-1.935-1.955z" fill="#00a44c" fill-rule="nonzero"/><path d="M27.844 20.337l-1.926-1.954-1.925 1.954 1.925 1.955 1.926-1.955z" fill="#f7ec33" fill-rule="nonzero"/><path d="M25.918 18.383l-1.925 1.954 1.925 1.955 1.926-1.955-1.926-1.954z" fill="#86c240" fill-rule="nonzero"/><path d="M27.844 20.337l-1.926 1.955 1.926 1.954 1.925-1.954-1.925-1.955z" fill="#8dc640" fill-rule="nonzero"/><path d="M27.844 20.337l-1.926 1.955 1.926 1.954 1.925-1.954-1.925-1.955z" fill="#36b24a" fill-rule="nonzero"/><path d="M27.844 20.337l-1.926 1.955 1.926-1.955z" fill="#8dc640" fill-rule="nonzero"/><path d="M27.844 20.337l-1.926 1.955 1.926-1.955z" fill="#36b24a" fill-rule="nonzero"/><path d="M29.769 22.292l-1.925 1.954 1.925 1.955 1.935-1.955-1.935-1.954z" fill="#059960" fill-rule="nonzero"/><path d="M29.769 22.292l-1.925 1.954 1.925 1.955 1.935-1.955-1.935-1.954z" fill="#00944a" fill-rule="nonzero"/><path d="M27.844 24.246l1.925-1.954-1.925 1.954z" fill="#059960" fill-rule="nonzero"/><path d="M29.769 22.292l-1.925 1.954 1.925-1.954z" fill="#00944a" fill-rule="nonzero"/><path d="M31.704 24.246l.586.606h.01l-.303-.303-.293-.303z" fill="#86c240" fill-rule="nonzero"/><path d="M32.3 24.852l-.293-.303.293.303z" fill="#7ec042" fill-rule="nonzero"/><path d="M31.704 24.246l.293.303-.293-.303z" fill="#30b14a" fill-rule="nonzero"/><path d="M21.442 13.838h-.01l.626.635v-.01l-.616-.625z" fill="#86c240" fill-rule="nonzero"/><path d="M21.442 13.838h-.01.01l.616.626-.616-.626z" fill="#7ec042" fill-rule="nonzero"/><path d="M21.432 13.838l.626.635-.626-.635z" fill="#30b14a" fill-rule="nonzero"/><path d="M22.058 14.464v.01l1.935 1.954-1.935-1.964z" fill="#20b6ea" fill-rule="nonzero"/><path d="M22.058 14.464v.01l1.935 1.954L22.586 15l-.528-.537z" fill="#00a44b" fill-rule="nonzero"/><path d="M23.993 16.428l1.925 1.955-1.925-1.955z" fill="#f281b1" fill-rule="nonzero"/><path d="M23.993 16.428l1.925 1.955-.899-.92-1.026-1.035z" fill="#8f6c39" fill-rule="nonzero"/><path d="M25.918 18.383l1.926 1.954-1.926-1.954z" fill="#f7ec33" fill-rule="nonzero"/><path d="M25.918 18.383l1.447 1.466-1.447-1.466z" fill="#7ec042" fill-rule="nonzero"/><path d="M25.918 18.383l1.447 1.466-1.447-1.466z" fill="#79bc43" fill-rule="nonzero"/><path d="M25.918 18.383l1.926 1.954-.48-.488-1.446-1.466z" fill="#7ec042" fill-rule="nonzero"/><path d="M27.844 20.337l1.925 1.955h.01l-1.935-1.955z" fill="#8dc640" fill-rule="nonzero"/><path d="M27.844 20.337l1.925 1.955h.01-.01l-1.925-1.955z" fill="#30b14a" fill-rule="nonzero"/><path d="M31.704 24.246l-1.925-1.954h-.01l1.935 1.954z" fill="#059960" fill-rule="nonzero"/><path d="M29.779 22.292h-.01l1.935 1.954-1.925-1.954z" fill="#00934a" fill-rule="nonzero"/><path d="M29.769 22.292h.01-.01z" fill="#059960" fill-rule="nonzero"/><path d="M29.769 22.292h.01-.01z" fill="#00914a" fill-rule="nonzero"/><path d="M29.769 22.292h.01-.01z" fill="#00934a" fill-rule="nonzero"/><path d="M39.415 16.428l-1.925 1.955.586.605 1.935-1.964-.596-.596zM31.704 8.6l-1.935 1.954L31.704 8.6zM33.63 10.554l-1.926 1.965 1.925-1.965zM29.153 6.01l-1.935 1.954.626.636 1.925-1.955-.616-.635z" fill="#8ac641" fill-rule="nonzero"/><path d="M31.704 8.6l-1.935-1.955L27.844 8.6l1.925 1.954L31.704 8.6z" fill="#20b6ea" fill-rule="nonzero"/><path d="M29.769 6.645L27.844 8.6l1.925 1.954L31.704 8.6l-1.935-1.955z" fill="#00a44c" fill-rule="nonzero"/><path d="M31.704 12.509l1.925-1.955L31.704 8.6l-1.935 1.954 1.935 1.955z" fill="#f281b1" fill-rule="nonzero"/><path d="M34.196 6.068l-.547.557 1.925 1.955.547-.547v-.01l-1.925-1.955z" fill="#8ac641" fill-rule="nonzero"/><path d="M33.63 14.473l1.925-1.964-1.926-1.955-1.925 1.965 1.925 1.954z" fill="#f7ec33" fill-rule="nonzero"/><path d="M33.63 10.554l-1.926 1.965 1.925 1.954.645-.655 1.28-1.3v-.01.01-.01l-1.925-1.954z" fill="#86c240" fill-rule="nonzero"/><path d="M35.555 16.428l1.935-1.955-1.935-1.954-1.926 1.954 1.926 1.955z" fill="#8dc640" fill-rule="nonzero"/><path d="M35.555 12.519l-1.388 1.407-.538.547 1.926 1.955 1.935-1.955-1.935-1.954z" fill="#36b24a" fill-rule="nonzero"/><path d="M39.718 8.297l-1.935 1.954 1.925 1.955 1.935-1.955-1.925-1.954z" fill="#8ac641" fill-rule="nonzero"/><path d="M35.555 12.519v-.01l-1.926 1.964 1.926-1.954z" fill="#8dc640" fill-rule="nonzero"/><path d="M35.555 12.519l-1.926 1.954 1.926-1.954z" fill="#36b24a" fill-rule="nonzero"/><path d="M37.49 14.473l-1.935 1.955 1.935 1.955 1.925-1.955-1.925-1.955z" fill="#059960" fill-rule="nonzero"/><path d="M37.49 14.473l-1.935 1.955 1.935 1.955 1.925-1.955-1.925-1.955z" fill="#45a357" fill-rule="nonzero"/><path d="M35.555 16.428l1.935-1.955-1.935 1.955z" fill="#059960" fill-rule="nonzero"/><path d="M37.49 14.473l-1.935 1.955 1.935-1.955z" fill="#00944a" fill-rule="nonzero"/><path d="M31.704 20.337l-1.925 1.955 1.925 1.954 1.925-1.954-.967-.978-.958-.977z" fill="#36b24a" fill-rule="nonzero"/><path d="M31.704 20.337l-1.925 1.955 1.925-1.955z" fill="#00934a" fill-rule="nonzero"/><path d="M4.593 31.87h-.02v2.052l-.019.03c-.049 0-.146-.01-.195-.01-.05 0-.137.01-.196.01l-.02-.03v-2.805l.02-.03c.05.01.147.02.186.02.04 0 .127-.01.176-.02l.03.02L5.97 33.15h.02v-2.023l.02-.03c.048.01.146.02.185.02.049 0 .147 0 .196-.02l.02.03v2.805l-.03.029c-.049 0-.127-.01-.166-.01-.04 0-.118.01-.157.01l-.039-.03-1.427-2.062zM9.284 32.612c0-.782-.4-1.173-.948-1.173-.557 0-.899.49-.899.997 0 .753.381 1.163.958 1.163.518.01.89-.41.89-.987m.469-.058c0 .82-.538 1.436-1.388 1.436-.83 0-1.398-.586-1.398-1.436 0-.89.577-1.486 1.398-1.486.83 0 1.388.596 1.388 1.486M12.53 32.612c0-.782-.402-1.173-.949-1.173-.557 0-.899.49-.899.997 0 .753.381 1.163.958 1.163.508.01.89-.41.89-.987m.458-.058c0 .82-.537 1.436-1.387 1.436-.831 0-1.398-.586-1.398-1.436 0-.89.577-1.486 1.398-1.486.83 0 1.387.596 1.387 1.486M14.308 32.427c.293 0 .557-.137.557-.518 0-.362-.274-.49-.528-.49-.098 0-.283 0-.352.02v.968c.098.01.225.02.323.02m-.323 1.505l-.02.029c-.038 0-.165-.01-.214-.01-.05 0-.147.01-.186.01l-.02-.03v-2.804l.02-.03c.156-.01.547-.029.782-.029.655 0 .987.313.987.84 0 .401-.244.646-.508.763l.762 1.26-.02.03c-.048 0-.185-.01-.244-.01-.049 0-.166.01-.215.01l-.03-.03-.683-1.182c-.04.01-.117.01-.157.01-.068 0-.195-.01-.244-.02v1.193h-.01zM16.38 31.459v2.13c.107.02.322.03.44.03.557 0 .996-.323.996-1.114 0-.782-.41-1.066-.977-1.066-.137 0-.342 0-.46.02m-.449 2.473v-2.805l.02-.03c.254-.01.713-.02.89-.02.996 0 1.446.577 1.446 1.457 0 .772-.401 1.466-1.437 1.466-.176 0-.587-.01-.9-.03l-.019-.038zM21.061 32.612c0-.782-.4-1.173-.948-1.173-.557 0-.899.49-.899.997 0 .753.381 1.163.958 1.163.518.01.89-.41.89-.987m.468-.058c0 .82-.537 1.436-1.388 1.436-.83 0-1.397-.586-1.397-1.436 0-.89.576-1.486 1.397-1.486.831 0 1.388.596 1.388 1.486M24.306 32.612c0-.782-.4-1.173-.948-1.173-.557 0-.9.49-.9.997 0 .753.382 1.163.958 1.163.509.01.89-.41.89-.987m.469-.058c0 .82-.538 1.436-1.388 1.436-.83 0-1.397-.586-1.397-1.436 0-.89.576-1.486 1.397-1.486.83 0 1.388.596 1.388 1.486M26.798 31.654l-.04.01a.982.982 0 00-.654-.234c-.274 0-.47.146-.47.371 0 .264.167.371.519.479.498.147.84.332.84.88 0 .44-.312.83-.938.83-.352 0-.704-.098-.958-.293l-.01-.04.147-.35.04-.01c.205.195.498.332.781.332.313 0 .489-.196.489-.41 0-.304-.186-.411-.577-.519-.46-.127-.772-.332-.772-.811 0-.498.43-.811.919-.811.283 0 .537.058.81.234l.01.03-.136.312zM29.32 31.088l.029.029-.04.39-.029.02c-.127-.048-.342-.058-.488-.058h-.323v2.453l-.02.03c-.039 0-.146-.01-.205-.01-.049 0-.166.01-.195.01l-.02-.03v-2.453h-.293c-.156 0-.39.02-.518.058l-.03-.02.03-.39.03-.03c.254.01.81.02.996.02.245 0 .772 0 1.075-.02M30.512 32.485c.303 0 .537-.186.537-.547 0-.332-.195-.528-.537-.528-.088 0-.254 0-.323.02v1.016c.078.02.215.04.323.04m-.772 1.446v-2.805l.02-.03c.156-.01.546-.029.771-.029.616 0 .968.323.968.87 0 .44-.254.87-.978.87-.117 0-.254-.02-.342-.04v1.154l-.02.03c-.028 0-.146-.01-.214-.01-.04 0-.157.01-.196.01l-.01-.02zM34.157 32.612c0-.782-.4-1.173-.948-1.173-.557 0-.9.49-.9.997 0 .753.382 1.163.959 1.163.508.01.89-.41.89-.987m.468-.058c0 .82-.537 1.436-1.388 1.436-.83 0-1.397-.586-1.397-1.436 0-.89.576-1.486 1.397-1.486.831 0 1.388.596 1.388 1.486M35.613 33.59h.362c.371 0 .567 0 .723-.06l.03.02-.03.382-.03.029c-.234-.01-.556-.01-.79-.01-.167 0-.636.01-.685.01l-.02-.03v-2.804l.02-.03c.049.01.137.02.195.02.069 0 .157-.01.206-.02l.02.03v2.463zM37.607 31.459v2.13c.107.02.322.03.44.03.557 0 1.006-.323 1.006-1.114 0-.782-.41-1.066-.977-1.066-.137 0-.352 0-.469.02m-.45 2.473v-2.805l.02-.03c.254-.01.713-.02.89-.02.996 0 1.446.577 1.446 1.457 0 .772-.401 1.466-1.437 1.466-.176 0-.586-.01-.9-.03l-.019-.038zM41.624 33.96c-.225-.009-.538-.009-.792-.009-.195 0-.616.01-.743.01l-.029-.03v-2.804l.03-.03c.097 0 .566.02.683.02.157 0 .587-.01.831-.02l.02.03-.03.39-.029.02c-.176-.049-.362-.058-.635-.058h-.42v.8h.928l.03.03-.02.342-.03.03a4.91 4.91 0 00-.527-.03h-.381v.948h.4c.401 0 .577-.01.743-.058l.02.02-.03.38-.02.02zM42.914 32.427c.293 0 .557-.137.557-.518 0-.362-.274-.49-.528-.49-.088 0-.283 0-.352.02v.968c.098.01.225.02.323.02m-.333 1.505l-.02.029c-.038 0-.165-.01-.214-.01-.049 0-.147.01-.186.01l-.02-.03v-2.804l.02-.03c.157-.01.548-.029.782-.029.645 0 .987.313.987.84 0 .401-.244.646-.508.763l.762 1.26-.02.03c-.048 0-.185-.01-.244-.01-.048 0-.166.01-.215.01l-.029-.03-.684-1.182c-.04.01-.117.01-.156.01-.069 0-.196-.01-.245-.02v1.193h-.01z" fill="#636466" fill-rule="nonzero"/><path d="M.371 28.87c0 .214.118.39.323.39.146 0 .254-.068.352-.166l.176-.83a.379.379 0 00-.264-.099c-.254-.01-.587.176-.587.704m.567-.86c.147 0 .264.059.313.108l.02-.079.02-.02c.048 0 .126 0 .175-.009l.01.01-.323 1.554c-.068.342-.283.518-.635.518A.844.844 0 010 29.925v-.02l.078-.137.02-.01a.645.645 0 00.43.157c.234 0 .371-.117.42-.362l.068-.313h-.01c-.068.079-.214.137-.37.137-.313 0-.48-.273-.48-.518 0-.576.41-.85.782-.85M2.971 28.517l.01-.02c.01-.029.01-.097.01-.107 0-.156-.088-.244-.235-.244-.235 0-.46.186-.508.469.234-.01.547-.049.723-.098m.108.684l-.01.02a.917.917 0 01-.528.176c-.362 0-.528-.264-.528-.567 0-.498.342-.83.772-.83.274 0 .41.185.41.4 0 .059-.009.147-.048.215l-.02.02a4.896 4.896 0 01-.889.117c-.01.02-.01.058-.01.088 0 .234.127.39.362.39a.724.724 0 00.43-.156h.02l.039.127zM5.492 29.113l.128-.615a.601.601 0 00.01-.127c0-.127-.06-.206-.225-.206a.77.77 0 00-.43.157c0 .049-.01.098-.02.146l-.195.9-.02.02c-.049 0-.127 0-.176.009l-.01-.01.186-.88a.813.813 0 00.02-.127c0-.117-.069-.195-.235-.195-.156 0-.303.078-.42.156l-.215 1.046-.02.02c-.049 0-.127 0-.176.01l-.01-.01.235-1.134c0-.03.01-.059.01-.078a.159.159 0 00-.05-.108l.01-.02c.04 0 .128-.019.177-.029.039.02.058.098.058.157h.01c.147-.078.293-.157.498-.157.147 0 .274.05.323.176.186-.117.332-.176.547-.176.186 0 .342.079.342.303 0 .05-.01.098-.02.157l-.136.664a.495.495 0 00-.02.127c0 .05.01.088.03.118l-.01.02h-.03a.56.56 0 00-.136.009c-.03-.02-.05-.068-.05-.127 0-.088.02-.166.02-.196M7.418 28.517l.01-.02c.01-.029.01-.097.01-.107 0-.156-.089-.244-.235-.244-.235 0-.46.186-.508.469.234-.01.547-.049.723-.098m.107.684l-.01.02a.917.917 0 01-.527.176c-.362 0-.528-.264-.528-.567 0-.498.342-.83.772-.83.274 0 .41.185.41.4 0 .059-.01.147-.048.215l-.02.02a4.896 4.896 0 01-.89.117c-.009.02-.009.058-.009.088 0 .234.127.39.362.39a.724.724 0 00.43-.156h.02l.038.127zM9.177 28.517l.01-.02c.01-.029.01-.097.01-.107 0-.156-.088-.244-.235-.244-.235 0-.46.186-.508.469.234-.01.537-.049.723-.098m.107.684l-.01.02a.917.917 0 01-.527.176c-.362 0-.528-.264-.528-.567 0-.498.342-.83.772-.83.274 0 .41.185.41.4 0 .059-.009.147-.048.215l-.02.02a4.896 4.896 0 01-.889.117c-.01.02-.01.058-.01.088 0 .234.127.39.362.39a.724.724 0 00.43-.156h.02l.038.127zM10.858 29.113l.127-.615c.01-.05.01-.088.01-.127 0-.127-.059-.206-.225-.206a.832.832 0 00-.45.157l-.215 1.046-.02.02c-.048 0-.126 0-.175.009l-.01-.02.235-1.124.01-.078a.218.218 0 00-.05-.127l.01-.02c.04 0 .127-.019.176-.029.04.02.059.108.059.157h.01a.99.99 0 01.527-.157c.196 0 .343.078.343.303 0 .05-.01.098-.02.157l-.137.664a.673.673 0 00-.02.127c0 .05.01.088.03.108l-.01.02h-.039a.56.56 0 00-.137.01c-.03-.02-.049-.07-.049-.128 0-.04.01-.117.02-.147M12.314 28.019h.381l.01.02-.049.126-.02.01c-.038-.01-.107-.01-.146-.01h-.215l-.195.831c-.01.04-.01.078-.01.108 0 .088.039.136.117.136.088 0 .176-.039.215-.068l.02.01.039.127-.01.02a.656.656 0 01-.342.078c-.176 0-.254-.098-.254-.235 0-.039.01-.098.02-.147l.195-.85h-.127c-.03 0-.078 0-.098.01l-.01-.02.05-.117.019-.01h.205l.039-.156c0-.02.01-.078.01-.098 0-.029 0-.068-.01-.107l.01-.02c.039 0 .117-.01.156-.03h.02c.01.02.02.08.02.128a.66.66 0 01-.02.137l-.02.127zM13.976 28.517l.01-.02c.01-.029.01-.097.01-.107 0-.156-.089-.244-.235-.244-.235 0-.46.186-.509.469.235-.01.548-.049.724-.098m.107.684l-.01.02a.917.917 0 01-.527.176c-.362 0-.528-.264-.528-.567 0-.498.342-.83.772-.83.274 0 .41.185.41.4 0 .059-.01.147-.049.215l-.02.02a4.896 4.896 0 01-.888.117c-.01.02-.01.058-.01.088 0 .234.127.39.361.39a.724.724 0 00.43-.156h.02l.04.127z" fill="#0072bc" fill-rule="nonzero"/></svg>