<svg width="59" height="58" fill="none" xmlns="http://www.w3.org/2000/svg"><rect x=".25" width="58" height="58" rx="8" fill="#F7F9FC"/><path d="M40.075 23.5c-.03.1-.07.198-.12.29l1.185 1.185-.025.025h-7.73l-.025-.025 1.185-1.185c-.05-.092-.09-.19-.12-.29H32.75v-2h1.675c.03-.1.07-.198.12-.29l-1.185-1.185 1.415-1.415 1.185 1.185c.093-.05.19-.09.29-.12V18h2v1.675c.1.03.197.07.29.12l1.185-1.185 1.415 1.415-1.185 1.185c.05.092.09.19.12.29h1.675v2h-1.675z" fill="#092DAA"/><path d="M37.25 24a1.5 1.5 0 100-3 1.5 1.5 0 000 3z" fill="#fff"/><path d="M24.75 24.5h8.5V38h-8.5V24.5z" fill="#5279FF"/><path d="M33.25 24.5h8.5V38h-8.5V24.5z" fill="#305DFC"/><path d="M33.25 37v1.5l8.5-.5v-9.5a8.5 8.5 0 01-8.5 8.5z" fill="#1C45D3"/><path d="M43.39 35.7a1.496 1.496 0 00-2.045-.55l-5.335 3.08h-.002a1.494 1.494 0 00-1.047-1.03l-7.46-2a3 3 0 00-1.505-.013L22.75 36v6l1.366.684c.417.208.876.316 1.342.316h7.489c.526 0 1.043-.137 1.5-.4l8.4-4.85a1.5 1.5 0 00.543-2.05z" fill="#C4D1FF"/><path d="M36.008 38.23c-.009-.03-.015-.06-.026-.09-.01.032-.022.062-.034.092a1.495 1.495 0 01-1.763.868l-2.659-.712-2.58-.694a.484.484 0 00-.538.717.484.484 0 00.288.216l5.407 1.45a1.565 1.565 0 001.814-.763c.168-.337.2-.724.091-1.084z" fill="#9CB8F8"/><path d="M29.25 14.79v3.71l-1.5 1-1.5-1v-3.71a4 4 0 00-1.16 6.695 1.968 1.968 0 01.66 1.48V24.5h4v-1.535a1.967 1.967 0 01.66-1.48 4 4 0 00-1.16-6.695z" fill="#8CA3A6"/><path d="M18.75 34.5v9h4v-9h-4z" fill="#315EFD"/><path d="M14.75 35.5h4v7h-4v-7z" fill="#0A33C1"/><path d="M27.75 24.5h-3l-2 4h8.5l2-4h-5.5z" fill="#305DFC"/><path d="M41.115 24.5H33.25l2 4h8.5l-2-4h-.635z" fill="#1C45D3"/><path d="M17.75 35.5h1v7h-1v-7z" fill="#092DAA"/></svg>