<svg width="487" height="449" viewBox="0 0 487 449" fill="none" xmlns="http://www.w3.org/2000/svg">
<path opacity="0.1" fill-rule="evenodd" clip-rule="evenodd" d="M152.344 389.605C280.862 412.052 360.924 395.676 399.187 359.226C423.413 336.148 450.239 320.504 469.615 285.808C506.904 219.031 470 89.9158 470 89.9158C422 29.8288 333.279 -4.0371 251.773 1.35016C119.999 10.06 63.2 19.9169 20 71.7197C-23.2 123.523 20 280.375 20 280.375C20 280.375 23.8272 367.158 152.344 389.605Z" fill="url(#paint0_radial)"/>
<g filter="url(#filter0_f)">
<path fill-rule="evenodd" clip-rule="evenodd" d="M239.895 318.659C297.451 320.989 318.748 313.24 336.133 301.33C353.519 289.42 293.623 280.88 241.184 280.88C188.745 280.88 135.306 289.127 146.234 301.33C157.163 313.533 182.34 316.329 239.895 318.659Z" fill="#1A438F" fill-opacity="0.311538" style="mix-blend-mode:multiply"/>
</g>
<g filter="url(#filter1_d)">
<path fill-rule="evenodd" clip-rule="evenodd" d="M245 298.898C311.606 298.898 365.6 245.118 365.6 178.778C365.6 112.437 311.606 58.6577 245 58.6577C178.394 58.6577 124.4 112.437 124.4 178.778C124.4 245.118 178.394 298.898 245 298.898Z" fill="url(#paint1_linear)"/>
</g>
<g opacity="0.174456" filter="url(#filter2_d)">
<rect width="19.2079" height="19.2113" rx="9.60397" transform="matrix(-0.765728 0.643165 0.64241 0.766361 71.9083 205.204)" fill="url(#paint2_linear)"/>
</g>
<g filter="url(#filter3_d)">
<rect width="19.2079" height="19.2113" rx="9.60397" transform="matrix(-0.765727 0.643165 0.64241 0.766361 121.108 51.4505)" fill="url(#paint3_radial)"/>
</g>
<g filter="url(#filter4_d)">
<path d="M182.748 348.736C176.359 341.115 165.004 340.119 157.389 346.516C149.773 352.912 148.781 364.278 155.17 371.9C161.559 379.522 172.914 380.517 180.529 374.121C188.144 367.724 189.136 356.358 182.748 348.736Z" fill="url(#paint4_radial)"/>
</g>
<g filter="url(#filter5_d)">
<rect width="15.6065" height="15.6092" rx="7.80323" transform="matrix(0.765728 0.643165 -0.64241 0.766361 421.227 169.168)" fill="url(#paint5_radial)"/>
</g>
<g filter="url(#filter6_d)">
<rect width="24.4273" height="24.4316" rx="12.2137" transform="matrix(0.765728 0.643165 -0.642411 0.766361 386.095 298.898)" fill="url(#paint6_radial)" fill-opacity="0.4"/>
</g>
<g opacity="0.554432" filter="url(#filter7_d)">
<rect width="6.00249" height="6.00353" rx="3.00124" transform="matrix(0.765728 0.643164 -0.642411 0.766361 365.857 64.6637)" fill="url(#paint7_radial)"/>
</g>
<g filter="url(#filter8_d)">
<path d="M244.991 261.608C290.36 261.608 327.139 224.793 327.139 179.378C327.139 133.964 290.36 97.1483 244.991 97.1483C199.622 97.1483 162.843 133.964 162.843 179.378C162.843 224.793 199.622 261.608 244.991 261.608ZM244.991 264.063C198.268 264.063 160.391 226.148 160.391 179.378C160.391 132.608 198.268 94.6937 244.991 94.6937C291.715 94.6937 329.591 132.608 329.591 179.378C329.591 226.148 291.715 264.063 244.991 264.063Z" fill="white"/>
</g>
<g filter="url(#filter9_dd)">
<path d="M244.996 259.258C289.723 259.258 325.982 223.226 325.982 178.778C325.982 134.33 289.723 98.2973 244.996 98.2973C200.268 98.2973 164.009 134.33 164.009 178.778C164.009 223.226 200.268 259.258 244.996 259.258ZM244.996 261.661C198.933 261.661 161.591 224.553 161.591 178.778C161.591 133.003 198.933 95.8949 244.996 95.8949C291.059 95.8949 328.4 133.003 328.4 178.778C328.4 224.553 291.059 261.661 244.996 261.661Z" fill="#DDE5FF"/>
</g>
<path d="M315.189 135.879C337.427 169.638 330.816 215.908 298.454 243.063C279.451 259.009 254.871 265.504 231.182 261.435C212.656 258.252 195.898 248.797 183.667 234.22C182.943 233.357 183.022 232.556 183.903 231.817C184.784 231.077 185.587 231.139 186.311 232.002C198.031 245.969 214.08 255.025 231.83 258.074C254.53 261.974 278.074 255.752 296.281 240.474C327.099 214.615 333.542 170.661 312.695 138.371L243.3 207.721C242.269 208.96 240.62 209.58 238.97 209.58H238.764C237.115 209.58 235.672 208.754 234.435 207.514L203.301 173.633C201.033 171.154 201.239 167.229 203.713 164.957C206.188 162.684 210.105 162.891 212.373 165.37L239.177 194.499L313.402 120.333C315.671 117.855 319.588 117.855 322.062 120.333C324.536 122.606 324.536 126.531 322.062 129.01L315.189 135.879Z" fill="url(#paint8_linear)"/>
<defs>
<filter id="filter0_f" x="106.744" y="242.824" width="270.512" height="114.305" filterUnits="userSpaceOnUse" color-interpolation-filters="sRGB">
<feFlood flood-opacity="0" result="BackgroundImageFix"/>
<feBlend mode="normal" in="SourceGraphic" in2="BackgroundImageFix" result="shape"/>
<feGaussianBlur stdDeviation="19.028" result="effect1_foregroundBlur"/>
</filter>
<filter id="filter1_d" x="120.4" y="58.6577" width="249.2" height="248.24" filterUnits="userSpaceOnUse" color-interpolation-filters="sRGB">
<feFlood flood-opacity="0" result="BackgroundImageFix"/>
<feColorMatrix in="SourceAlpha" type="matrix" values="0 0 0 0 0 0 0 0 0 0 0 0 0 0 0 0 0 0 127 0"/>
<feOffset dy="4"/>
<feGaussianBlur stdDeviation="2"/>
<feColorMatrix type="matrix" values="0 0 0 0 1 0 0 0 0 1 0 0 0 0 1 0 0 0 0.1 0"/>
<feBlend mode="normal" in2="BackgroundImageFix" result="effect1_dropShadow"/>
<feBlend mode="normal" in="SourceGraphic" in2="effect1_dropShadow" result="shape"/>
</filter>
<filter id="filter2_d" x="6.12508" y="169.133" width="129.2" height="129.219" filterUnits="userSpaceOnUse" color-interpolation-filters="sRGB">
<feFlood flood-opacity="0" result="BackgroundImageFix"/>
<feColorMatrix in="SourceAlpha" type="matrix" values="0 0 0 0 0 0 0 0 0 0 0 0 0 0 0 0 0 0 127 0"/>
<feOffset dy="15"/>
<feGaussianBlur stdDeviation="27.5"/>
<feColorMatrix type="matrix" values="0 0 0 0 0.615686 0 0 0 0 0.639216 0 0 0 0 0.705882 0 0 0 0.2 0"/>
<feBlend mode="normal" in2="BackgroundImageFix" result="effect1_dropShadow"/>
<feBlend mode="normal" in="SourceGraphic" in2="effect1_dropShadow" result="shape"/>
</filter>
<filter id="filter3_d" x="55.3251" y="15.3792" width="129.2" height="129.219" filterUnits="userSpaceOnUse" color-interpolation-filters="sRGB">
<feFlood flood-opacity="0" result="BackgroundImageFix"/>
<feColorMatrix in="SourceAlpha" type="matrix" values="0 0 0 0 0 0 0 0 0 0 0 0 0 0 0 0 0 0 127 0"/>
<feOffset dy="15"/>
<feGaussianBlur stdDeviation="27.5"/>
<feColorMatrix type="matrix" values="0 0 0 0 0.615686 0 0 0 0 0.639216 0 0 0 0 0.705882 0 0 0 0.2 0"/>
<feBlend mode="normal" in2="BackgroundImageFix" result="effect1_dropShadow"/>
<feBlend mode="normal" in="SourceGraphic" in2="effect1_dropShadow" result="shape"/>
</filter>
<filter id="filter4_d" x="95.9588" y="302.3" width="146" height="146.036" filterUnits="userSpaceOnUse" color-interpolation-filters="sRGB">
<feFlood flood-opacity="0" result="BackgroundImageFix"/>
<feColorMatrix in="SourceAlpha" type="matrix" values="0 0 0 0 0 0 0 0 0 0 0 0 0 0 0 0 0 0 127 0"/>
<feOffset dy="15"/>
<feGaussianBlur stdDeviation="27.5"/>
<feColorMatrix type="matrix" values="0 0 0 0 0.615686 0 0 0 0 0.639216 0 0 0 0 0.705882 0 0 0 0.2 0"/>
<feBlend mode="normal" in2="BackgroundImageFix" result="effect1_dropShadow"/>
<feBlend mode="normal" in="SourceGraphic" in2="effect1_dropShadow" result="shape"/>
</filter>
<filter id="filter5_d" x="359.389" y="132.36" width="125.6" height="125.616" filterUnits="userSpaceOnUse" color-interpolation-filters="sRGB">
<feFlood flood-opacity="0" result="BackgroundImageFix"/>
<feColorMatrix in="SourceAlpha" type="matrix" values="0 0 0 0 0 0 0 0 0 0 0 0 0 0 0 0 0 0 127 0"/>
<feOffset dy="15"/>
<feGaussianBlur stdDeviation="27.5"/>
<feColorMatrix type="matrix" values="0 0 0 0 0.615686 0 0 0 0 0.639216 0 0 0 0 0.705882 0 0 0 0.2 0"/>
<feBlend mode="normal" in2="BackgroundImageFix" result="effect1_dropShadow"/>
<feBlend mode="normal" in="SourceGraphic" in2="effect1_dropShadow" result="shape"/>
</filter>
<filter id="filter6_d" x="320.391" y="263.894" width="134.417" height="134.442" filterUnits="userSpaceOnUse" color-interpolation-filters="sRGB">
<feFlood flood-opacity="0" result="BackgroundImageFix"/>
<feColorMatrix in="SourceAlpha" type="matrix" values="0 0 0 0 0 0 0 0 0 0 0 0 0 0 0 0 0 0 127 0"/>
<feOffset dy="15"/>
<feGaussianBlur stdDeviation="27.5"/>
<feColorMatrix type="matrix" values="0 0 0 0 0.615686 0 0 0 0 0.639216 0 0 0 0 0.705882 0 0 0 0.2 0"/>
<feBlend mode="normal" in2="BackgroundImageFix" result="effect1_dropShadow"/>
<feBlend mode="normal" in="SourceGraphic" in2="effect1_dropShadow" result="shape"/>
</filter>
<filter id="filter7_d" x="308.226" y="25.8914" width="116" height="116.006" filterUnits="userSpaceOnUse" color-interpolation-filters="sRGB">
<feFlood flood-opacity="0" result="BackgroundImageFix"/>
<feColorMatrix in="SourceAlpha" type="matrix" values="0 0 0 0 0 0 0 0 0 0 0 0 0 0 0 0 0 0 127 0"/>
<feOffset dy="15"/>
<feGaussianBlur stdDeviation="27.5"/>
<feColorMatrix type="matrix" values="0 0 0 0 0.615686 0 0 0 0 0.639216 0 0 0 0 0.705882 0 0 0 0.2 0"/>
<feBlend mode="normal" in2="BackgroundImageFix" result="effect1_dropShadow"/>
<feBlend mode="normal" in="SourceGraphic" in2="effect1_dropShadow" result="shape"/>
</filter>
<filter id="filter8_d" x="140.391" y="66.6937" width="209.2" height="209.369" filterUnits="userSpaceOnUse" color-interpolation-filters="sRGB">
<feFlood flood-opacity="0" result="BackgroundImageFix"/>
<feColorMatrix in="SourceAlpha" type="matrix" values="0 0 0 0 0 0 0 0 0 0 0 0 0 0 0 0 0 0 127 0"/>
<feOffset dy="-8"/>
<feGaussianBlur stdDeviation="10"/>
<feColorMatrix type="matrix" values="0 0 0 0 1 0 0 0 0 1 0 0 0 0 1 0 0 0 1 0"/>
<feBlend mode="lighten" in2="BackgroundImageFix" result="effect1_dropShadow"/>
<feBlend mode="normal" in="SourceGraphic" in2="effect1_dropShadow" result="shape"/>
</filter>
<filter id="filter9_dd" x="151.591" y="80.8949" width="186.809" height="194.766" filterUnits="userSpaceOnUse" color-interpolation-filters="sRGB">
<feFlood flood-opacity="0" result="BackgroundImageFix"/>
<feColorMatrix in="SourceAlpha" type="matrix" values="0 0 0 0 0 0 0 0 0 0 0 0 0 0 0 0 0 0 127 0"/>
<feOffset dy="-5"/>
<feGaussianBlur stdDeviation="5"/>
<feColorMatrix type="matrix" values="0 0 0 0 0.945098 0 0 0 0 0.952941 0 0 0 0 0.968627 0 0 0 1 0"/>
<feBlend mode="normal" in2="BackgroundImageFix" result="effect1_dropShadow"/>
<feColorMatrix in="SourceAlpha" type="matrix" values="0 0 0 0 0 0 0 0 0 0 0 0 0 0 0 0 0 0 127 0"/>
<feOffset dy="4"/>
<feGaussianBlur stdDeviation="5"/>
<feColorMatrix type="matrix" values="0 0 0 0 0.192157 0 0 0 0 0.368627 0 0 0 0 0.992157 0 0 0 0.2 0"/>
<feBlend mode="normal" in2="effect1_dropShadow" result="effect2_dropShadow"/>
<feBlend mode="normal" in="SourceGraphic" in2="effect2_dropShadow" result="shape"/>
</filter>
<radialGradient id="paint0_radial" cx="0" cy="0" r="1" gradientUnits="userSpaceOnUse" gradientTransform="translate(245 289.347) rotate(-90) scale(279.946 299.58)">
<stop stop-color="white" stop-opacity="0.261889"/>
<stop offset="1" stop-color="#80869F" stop-opacity="0.19"/>
</radialGradient>
<linearGradient id="paint1_linear" x1="353.6" y1="103.102" x2="137.52" y2="206.237" gradientUnits="userSpaceOnUse">
<stop stop-color="white" stop-opacity="0.40441"/>
<stop offset="0.119107" stop-color="#EEEFF8" stop-opacity="0.385064"/>
<stop offset="0.206489" stop-color="#DEE5FF" stop-opacity="0.370871"/>
<stop offset="0.765" stop-color="white" stop-opacity="0.28217"/>
<stop offset="1" stop-color="#E3EAFF" stop-opacity="0.244848"/>
</linearGradient>
<linearGradient id="paint2_linear" x1="-10.1294" y1="9.18471" x2="9.33397" y2="28.9396" gradientUnits="userSpaceOnUse">
<stop stop-color="#2B2E34"/>
<stop offset="1" stop-color="#2B87DA"/>
</linearGradient>
<radialGradient id="paint3_radial" cx="0" cy="0" r="1" gradientUnits="userSpaceOnUse" gradientTransform="translate(-0.252004 -0.546951) rotate(90) scale(19.7582 19.7548)">
<stop stop-color="#B9BDC7"/>
<stop offset="1" stop-color="#497DFC"/>
</radialGradient>
<radialGradient id="paint4_radial" cx="0" cy="0" r="1" gradientUnits="userSpaceOnUse" gradientTransform="translate(141.769 351.049) rotate(79.2845) scale(36.8465 36.8121)">
<stop stop-color="#9FBDFF"/>
<stop offset="1" stop-color="#056FF8"/>
</radialGradient>
<radialGradient id="paint5_radial" cx="0" cy="0" r="1" gradientUnits="userSpaceOnUse" gradientTransform="translate(7.80323 5.07506) rotate(60.7303) scale(15.9601 15.9586)">
<stop stop-color="#9FBDFF"/>
<stop offset="1" stop-color="#056FF8"/>
</radialGradient>
<radialGradient id="paint6_radial" cx="0" cy="0" r="1" gradientUnits="userSpaceOnUse" gradientTransform="translate(12.2137 7.94352) rotate(60.7303) scale(24.9808 24.9786)">
<stop stop-color="#9FBDFF"/>
<stop offset="1" stop-color="#056FF8"/>
</radialGradient>
<radialGradient id="paint7_radial" cx="0" cy="0" r="1" gradientUnits="userSpaceOnUse" gradientTransform="translate(3.00124 1.95195) rotate(60.7303) scale(6.1385 6.13794)">
<stop stop-color="#9FBDFF"/>
<stop offset="1" stop-color="#056FF8"/>
</radialGradient>
<linearGradient id="paint8_linear" x1="255.2" y1="250.85" x2="207.118" y2="133.166" gradientUnits="userSpaceOnUse">
<stop stop-color="#315EFD"/>
<stop offset="1" stop-color="#6789FF"/>
</linearGradient>
</defs>
</svg>
