<svg xmlns="http://www.w3.org/2000/svg" width="14" height="14" fill="none" viewBox="0 0 14 14"><path fill="#5E636B" fill-rule="evenodd" d="M6.99994 3.64001C6.69082 3.64001 6.43994 3.89089 6.43994 4.20001C6.43994 4.50914 6.69082 4.76001 6.99994 4.76001C7.30906 4.76001 7.55994 4.50914 7.55994 4.20001C7.55994 3.89089 7.30906 3.64001 6.99994 3.64001Z" clip-rule="evenodd"/><path fill="#5E636B" fill-rule="evenodd" d="M6.16003 4.19999C6.16003 3.73686 6.53691 3.35999 7.00003 3.35999C7.46316 3.35999 7.84003 3.73686 7.84003 4.19999C7.84003 4.66311 7.46316 5.03999 7.00003 5.03999C6.53691 5.03999 6.16003 4.66311 6.16003 4.19999ZM6.72005 4.19998C6.72005 4.35455 6.8455 4.47998 7.00005 4.47998C7.1546 4.47998 7.28005 4.35455 7.28005 4.19998C7.28005 4.04543 7.1546 3.91998 7.00005 3.91998C6.8455 3.91998 6.72005 4.04543 6.72005 4.19998Z" clip-rule="evenodd"/><rect width=".56" height="4.48" x="6.72" y="5.88" fill="#5E636B"/><path fill="#5E636B" fill-rule="evenodd" d="M7.27994 5.60004H6.71994C6.56539 5.60004 6.43994 5.72549 6.43994 5.88004V10.36C6.43994 10.5146 6.56539 10.64 6.71994 10.64H7.27994C7.43449 10.64 7.55994 10.5146 7.55994 10.36V5.88004C7.55994 5.72549 7.43449 5.60004 7.27994 5.60004Z" clip-rule="evenodd"/><path fill="#5E636B" fill-rule="evenodd" d="M7.00003 9.52002L6.16003 10.36H7.84003L7.00003 9.52002Z" clip-rule="evenodd"/><path fill="#5E636B" fill-rule="evenodd" d="M7.19768 9.32178L8.03768 10.1618C8.11777 10.2419 8.14186 10.3623 8.09816 10.467C8.0545 10.5717 7.95313 10.64 7.84001 10.64H6.16001C6.04689 10.64 5.94441 10.5717 5.90129 10.467C5.85762 10.3623 5.88168 10.2419 5.96177 10.1618L6.80177 9.32178C6.91095 9.21257 7.08847 9.21257 7.19768 9.32178ZM7 9.91594L6.83591 10.08H7.16409L7 9.91594Z" clip-rule="evenodd"/><path fill="#5E636B" fill-rule="evenodd" d="M6.16003 5.88L7.00003 6.72001V5.88H6.16003Z" clip-rule="evenodd"/><path fill="#5E636B" fill-rule="evenodd" d="M7.00001 5.60004H6.16001C6.04689 5.60004 5.94441 5.66837 5.90129 5.77307C5.85762 5.87779 5.88168 5.99819 5.96177 6.07828L6.80177 6.91828C6.85553 6.97149 6.92722 7.00004 7.00001 7.00004C7.03586 7.00004 7.07225 6.99331 7.10698 6.97876C7.21171 6.93564 7.28001 6.83316 7.28001 6.72004V5.88004C7.28001 5.72549 7.15456 5.60004 7.00001 5.60004Z" clip-rule="evenodd"/><path fill="#5E636B" fill-rule="evenodd" d="M0 7C0 3.13991 3.13991 0 7 0C10.8601 0 14 3.13991 14 7C14 10.8601 10.8601 14 7 14C3.13991 14 0 10.8601 0 7ZM0.560016 6.99999C0.560016 10.551 3.44905 13.44 7.00002 13.44C10.551 13.44 13.44 10.551 13.44 6.99999C13.44 3.44902 10.551 0.559991 7.00002 0.559991C3.44905 0.559991 0.560016 3.44902 0.560016 6.99999Z" clip-rule="evenodd"/></svg>