<svg width="487" height="401" fill="none" xmlns="http://www.w3.org/2000/svg"><path opacity=".1" fill-rule="evenodd" clip-rule="evenodd" d="M152.345 389.605c128.517 22.447 208.579 6.071 246.842-30.379 24.226-23.078 51.052-38.722 70.428-73.418 37.289-66.777.385-195.892.385-195.892C422 29.829 333.279-4.037 251.773 1.35 119.999 10.06 63.2 19.917 20 71.72c-43.2 51.803 0 208.655 0 208.655s3.827 86.783 132.345 109.23z" fill="url(#paint0_radial)"/><g filter="url(#filter0_d)"><path fill-rule="evenodd" clip-rule="evenodd" d="M245 298.898c66.606 0 120.6-53.78 120.6-120.12 0-66.341-53.994-120.12-120.6-120.12-66.605 0-120.6 53.779-120.6 120.12 0 66.34 53.995 120.12 120.6 120.12z" fill="url(#paint1_linear)"/></g><g clip-path="url(#clip0)"><path d="M335 184.858c0 45.057-36.531 81.58-81.593 81.58-45.061 0-81.59-36.523-81.59-81.58 0-45.056 36.529-81.581 81.59-81.581 45.062 0 81.593 36.525 81.593 81.581z" fill="#DDE5FF"/><path d="M302.236 165.611c0 9.252-7.503 16.753-16.758 16.753-9.255 0-16.758-7.501-16.758-16.753 0-9.254 7.503-16.757 16.758-16.757 9.255 0 16.758 7.503 16.758 16.757zM238.862 165.611c0 9.252-7.503 16.753-16.758 16.753-9.255 0-16.758-7.501-16.758-16.753 0-9.254 7.503-16.757 16.758-16.757 9.255 0 16.758 7.503 16.758 16.757z" fill="#fff"/><path d="M275.279 178.784c-11.483 0-20.825-9.341-20.825-20.822s9.342-20.823 20.825-20.823c11.481 0 20.826 9.342 20.826 20.823s-9.345 20.822-20.826 20.822zm0-33.512c-6.998 0-12.69 5.691-12.69 12.69 0 6.996 5.692 12.688 12.69 12.688 6.999 0 12.691-5.692 12.691-12.688 0-6.999-5.692-12.69-12.691-12.69z" fill="url(#paint2_linear)"/><path d="M211.906 178.784c-11.484 0-20.828-9.341-20.828-20.822s9.344-20.823 20.828-20.823c11.481 0 20.825 9.342 20.825 20.823s-9.344 20.822-20.825 20.822zm0-33.512c-6.999 0-12.693 5.691-12.693 12.69 0 6.996 5.694 12.688 12.693 12.688 6.996 0 12.69-5.692 12.69-12.688 0-6.999-5.694-12.69-12.69-12.69z" fill="url(#paint3_linear)"/><path d="M222.175 228.049a4.08 4.08 0 01-1.408-.249 4.07 4.07 0 01-2.41-5.223c4.452-12.08 11.654-20.223 21.413-24.209 17.032-6.953 35.384 1.57 36.16 1.936a4.068 4.068 0 01-3.476 7.354c-.263-.122-16.026-7.338-29.652-1.741-7.536 3.091-13.189 9.645-16.812 19.472a4.066 4.066 0 01-3.815 2.66z" fill="url(#paint4_linear)"/><path d="M282.75 156.953a8.481 8.481 0 01-16.961 0 8.482 8.482 0 018.482-8.482c4.682 0 8.479 3.799 8.479 8.482z" fill="url(#paint5_linear)"/><path d="M219.374 156.953a8.481 8.481 0 01-8.479 8.479 8.482 8.482 0 010-16.961c4.682 0 8.479 3.799 8.479 8.482z" fill="url(#paint6_linear)"/><path d="M240.66 260.301c-47.231 0-85.66-38.424-85.66-85.652C155 127.424 193.429 89 240.66 89c47.231 0 85.657 38.424 85.657 85.649 0 47.228-38.426 85.652-85.657 85.652zm0-163.166c-42.749 0-77.525 34.774-77.525 77.514 0 42.743 34.776 77.515 77.525 77.515 42.746 0 77.523-34.772 77.523-77.515 0-42.74-34.777-77.514-77.523-77.514z" fill="url(#paint7_linear)"/></g><defs><linearGradient id="paint1_linear" x1="353.6" y1="103.102" x2="137.52" y2="206.237" gradientUnits="userSpaceOnUse"><stop stop-color="#fff" stop-opacity=".404"/><stop offset=".119" stop-color="#EEEFF8" stop-opacity=".385"/><stop offset=".206" stop-color="#DEE5FF" stop-opacity=".371"/><stop offset=".765" stop-color="#fff" stop-opacity=".282"/><stop offset="1" stop-color="#E3EAFF" stop-opacity=".245"/></linearGradient><linearGradient id="paint2_linear" x1="275.135" y1="175.384" x2="261.182" y2="141.444" gradientUnits="userSpaceOnUse"><stop stop-color="#315EFD"/><stop offset="1" stop-color="#6789FF"/></linearGradient><linearGradient id="paint3_linear" x1="211.76" y1="175.384" x2="197.808" y2="141.443" gradientUnits="userSpaceOnUse"><stop stop-color="#315EFD"/><stop offset="1" stop-color="#6789FF"/></linearGradient><linearGradient id="paint4_linear" x1="247.972" y1="225.404" x2="241.455" y2="195.977" gradientUnits="userSpaceOnUse"><stop stop-color="#315EFD"/><stop offset="1" stop-color="#6789FF"/></linearGradient><linearGradient id="paint5_linear" x1="274.21" y1="164.048" x2="268.527" y2="150.225" gradientUnits="userSpaceOnUse"><stop stop-color="#315EFD"/><stop offset="1" stop-color="#6789FF"/></linearGradient><linearGradient id="paint6_linear" x1="210.836" y1="164.048" x2="205.152" y2="150.226" gradientUnits="userSpaceOnUse"><stop stop-color="#315EFD"/><stop offset="1" stop-color="#6789FF"/></linearGradient><linearGradient id="paint7_linear" x1="240.065" y1="246.315" x2="182.671" y2="106.708" gradientUnits="userSpaceOnUse"><stop stop-color="#315EFD"/><stop offset="1" stop-color="#6789FF"/></linearGradient><radialGradient id="paint0_radial" cx="0" cy="0" r="1" gradientUnits="userSpaceOnUse" gradientTransform="matrix(0 -279.946 299.58 0 245 289.347)"><stop stop-color="#fff" stop-opacity=".262"/><stop offset="1" stop-color="#80869F" stop-opacity=".19"/></radialGradient><clipPath id="clip0"><path fill="#fff" d="M155 89h180v180H155z"/></clipPath><filter id="filter0_d" x="120.4" y="58.658" width="249.2" height="248.24" filterUnits="userSpaceOnUse" color-interpolation-filters="sRGB"><feFlood flood-opacity="0" result="BackgroundImageFix"/><feColorMatrix in="SourceAlpha" values="0 0 0 0 0 0 0 0 0 0 0 0 0 0 0 0 0 0 127 0"/><feOffset dy="4"/><feGaussianBlur stdDeviation="2"/><feColorMatrix values="0 0 0 0 1 0 0 0 0 1 0 0 0 0 1 0 0 0 0.1 0"/><feBlend in2="BackgroundImageFix" result="effect1_dropShadow"/><feBlend in="SourceGraphic" in2="effect1_dropShadow" result="shape"/></filter></defs></svg>