<svg width="487" height="449" fill="none" xmlns="http://www.w3.org/2000/svg"><path opacity=".1" fill-rule="evenodd" clip-rule="evenodd" d="M152.345 389.605c128.517 22.447 208.579 6.071 246.842-30.379 24.226-23.078 51.052-38.722 70.428-73.418 37.289-66.777.385-195.892.385-195.892C422 29.829 333.279-4.037 251.773 1.35 119.999 10.06 63.2 19.917 20 71.72c-43.2 51.803 0 208.655 0 208.655s3.827 86.783 132.345 109.23z" fill="url(#paint0_radial)"/><g filter="url(#filter0_f)"><path fill-rule="evenodd" clip-rule="evenodd" d="M239.895 318.659c57.556 2.33 78.853-5.419 96.238-17.329 17.386-11.91-42.51-20.45-94.949-20.45s-105.878 8.247-94.95 20.45c10.929 12.203 36.106 14.999 93.661 17.329z" fill="#1A438F" fill-opacity=".312" style="mix-blend-mode:multiply"/></g><g filter="url(#filter1_d)"><path fill-rule="evenodd" clip-rule="evenodd" d="M245 298.898c66.606 0 120.6-53.78 120.6-120.12 0-66.341-53.994-120.12-120.6-120.12-66.605 0-120.6 53.779-120.6 120.12 0 66.34 53.995 120.12 120.6 120.12z" fill="url(#paint1_linear)"/></g><g opacity=".174" filter="url(#filter2_d)"><rect width="19.208" height="19.211" rx="9.604" transform="matrix(-.76573 .64316 .64241 .76636 71.908 205.204)" fill="url(#paint2_linear)"/></g><g filter="url(#filter3_d)"><rect width="19.208" height="19.211" rx="9.604" transform="matrix(-.76573 .64316 .64241 .76636 121.108 51.45)" fill="url(#paint3_radial)"/></g><g filter="url(#filter4_d)"><path d="M182.748 348.736c-6.389-7.621-17.744-8.617-25.359-2.22-7.616 6.396-8.608 17.762-2.219 25.384 6.389 7.622 17.744 8.617 25.359 2.221 7.615-6.397 8.608-17.763 2.219-25.385z" fill="url(#paint4_radial)"/></g><g filter="url(#filter5_d)"><rect width="15.607" height="15.609" rx="7.803" transform="rotate(40.028 -21.601 662.798) skewX(.056)" fill="url(#paint5_radial)"/></g><g filter="url(#filter6_d)"><rect width="24.427" height="24.432" rx="12.214" transform="rotate(40.028 -217.246 679.436) skewX(.056)" fill="url(#paint6_radial)" fill-opacity=".4"/></g><g opacity=".554" filter="url(#filter7_d)"><rect width="6.002" height="6.004" rx="3.001" transform="rotate(40.028 94.166 534.54) skewX(.056)" fill="url(#paint7_radial)"/></g><g filter="url(#filter8_d)"><path d="M244.991 261.608c45.369 0 82.148-36.815 82.148-82.23 0-45.414-36.779-82.23-82.148-82.23-45.369 0-82.147 36.816-82.147 82.23 0 45.415 36.778 82.23 82.147 82.23zm0 2.455c-46.723 0-84.6-37.915-84.6-84.685s37.877-84.684 84.6-84.684c46.724 0 84.6 37.914 84.6 84.684 0 46.77-37.876 84.685-84.6 84.685z" fill="#fff"/></g><g filter="url(#filter9_dd)"><path d="M244.996 259.258c44.727 0 80.987-36.032 80.987-80.48 0-44.448-36.26-80.48-80.987-80.48-44.728 0-80.987 36.032-80.987 80.48 0 44.448 36.259 80.48 80.987 80.48zm0 2.403c-46.063 0-83.405-37.108-83.405-82.883s37.342-82.883 83.405-82.883 83.404 37.108 83.404 82.883-37.341 82.883-83.404 82.883z" fill="#DDE5FF"/></g><path d="M315.189 135.879c22.238 33.759 15.627 80.029-16.735 107.184-19.003 15.946-43.583 22.441-67.272 18.372-18.526-3.183-35.283-12.638-47.514-27.215-.725-.863-.646-1.664.235-2.403.881-.74 1.684-.678 2.408.185 11.72 13.967 27.77 23.023 45.519 26.072 22.7 3.9 46.244-2.322 64.451-17.6 30.818-25.859 37.261-69.813 16.414-102.103l-69.395 69.35c-1.031 1.239-2.68 1.859-4.33 1.859h-.206c-1.649 0-3.092-.826-4.329-2.066l-31.134-33.881c-2.268-2.479-2.061-6.404.413-8.676 2.474-2.273 6.391-2.066 8.659.413l26.804 29.129 74.226-74.166c2.268-2.478 6.185-2.478 8.659 0 2.474 2.273 2.474 6.198 0 8.677l-6.873 6.869z" fill="url(#paint8_linear)"/><defs><filter id="filter0_f" x="106.744" y="242.824" width="270.512" height="114.305" filterUnits="userSpaceOnUse" color-interpolation-filters="sRGB"><feFlood flood-opacity="0" result="BackgroundImageFix"/><feBlend in="SourceGraphic" in2="BackgroundImageFix" result="shape"/><feGaussianBlur stdDeviation="19.028" result="effect1_foregroundBlur"/></filter><filter id="filter1_d" x="120.4" y="58.658" width="249.2" height="248.24" filterUnits="userSpaceOnUse" color-interpolation-filters="sRGB"><feFlood flood-opacity="0" result="BackgroundImageFix"/><feColorMatrix in="SourceAlpha" values="0 0 0 0 0 0 0 0 0 0 0 0 0 0 0 0 0 0 127 0"/><feOffset dy="4"/><feGaussianBlur stdDeviation="2"/><feColorMatrix values="0 0 0 0 1 0 0 0 0 1 0 0 0 0 1 0 0 0 0.1 0"/><feBlend in2="BackgroundImageFix" result="effect1_dropShadow"/><feBlend in="SourceGraphic" in2="effect1_dropShadow" result="shape"/></filter><filter id="filter2_d" x="6.125" y="169.133" width="129.2" height="129.219" filterUnits="userSpaceOnUse" color-interpolation-filters="sRGB"><feFlood flood-opacity="0" result="BackgroundImageFix"/><feColorMatrix in="SourceAlpha" values="0 0 0 0 0 0 0 0 0 0 0 0 0 0 0 0 0 0 127 0"/><feOffset dy="15"/><feGaussianBlur stdDeviation="27.5"/><feColorMatrix values="0 0 0 0 0.615686 0 0 0 0 0.639216 0 0 0 0 0.705882 0 0 0 0.2 0"/><feBlend in2="BackgroundImageFix" result="effect1_dropShadow"/><feBlend in="SourceGraphic" in2="effect1_dropShadow" result="shape"/></filter><filter id="filter3_d" x="55.325" y="15.379" width="129.2" height="129.219" filterUnits="userSpaceOnUse" color-interpolation-filters="sRGB"><feFlood flood-opacity="0" result="BackgroundImageFix"/><feColorMatrix in="SourceAlpha" values="0 0 0 0 0 0 0 0 0 0 0 0 0 0 0 0 0 0 127 0"/><feOffset dy="15"/><feGaussianBlur stdDeviation="27.5"/><feColorMatrix values="0 0 0 0 0.615686 0 0 0 0 0.639216 0 0 0 0 0.705882 0 0 0 0.2 0"/><feBlend in2="BackgroundImageFix" result="effect1_dropShadow"/><feBlend in="SourceGraphic" in2="effect1_dropShadow" result="shape"/></filter><filter id="filter4_d" x="95.959" y="302.3" width="146" height="146.036" filterUnits="userSpaceOnUse" color-interpolation-filters="sRGB"><feFlood flood-opacity="0" result="BackgroundImageFix"/><feColorMatrix in="SourceAlpha" values="0 0 0 0 0 0 0 0 0 0 0 0 0 0 0 0 0 0 127 0"/><feOffset dy="15"/><feGaussianBlur stdDeviation="27.5"/><feColorMatrix values="0 0 0 0 0.615686 0 0 0 0 0.639216 0 0 0 0 0.705882 0 0 0 0.2 0"/><feBlend in2="BackgroundImageFix" result="effect1_dropShadow"/><feBlend in="SourceGraphic" in2="effect1_dropShadow" result="shape"/></filter><filter id="filter5_d" x="359.389" y="132.36" width="125.6" height="125.616" filterUnits="userSpaceOnUse" color-interpolation-filters="sRGB"><feFlood flood-opacity="0" result="BackgroundImageFix"/><feColorMatrix in="SourceAlpha" values="0 0 0 0 0 0 0 0 0 0 0 0 0 0 0 0 0 0 127 0"/><feOffset dy="15"/><feGaussianBlur stdDeviation="27.5"/><feColorMatrix values="0 0 0 0 0.615686 0 0 0 0 0.639216 0 0 0 0 0.705882 0 0 0 0.2 0"/><feBlend in2="BackgroundImageFix" result="effect1_dropShadow"/><feBlend in="SourceGraphic" in2="effect1_dropShadow" result="shape"/></filter><filter id="filter6_d" x="320.391" y="263.894" width="134.417" height="134.442" filterUnits="userSpaceOnUse" color-interpolation-filters="sRGB"><feFlood flood-opacity="0" result="BackgroundImageFix"/><feColorMatrix in="SourceAlpha" values="0 0 0 0 0 0 0 0 0 0 0 0 0 0 0 0 0 0 127 0"/><feOffset dy="15"/><feGaussianBlur stdDeviation="27.5"/><feColorMatrix values="0 0 0 0 0.615686 0 0 0 0 0.639216 0 0 0 0 0.705882 0 0 0 0.2 0"/><feBlend in2="BackgroundImageFix" result="effect1_dropShadow"/><feBlend in="SourceGraphic" in2="effect1_dropShadow" result="shape"/></filter><filter id="filter7_d" x="308.227" y="25.891" width="116" height="116.006" filterUnits="userSpaceOnUse" color-interpolation-filters="sRGB"><feFlood flood-opacity="0" result="BackgroundImageFix"/><feColorMatrix in="SourceAlpha" values="0 0 0 0 0 0 0 0 0 0 0 0 0 0 0 0 0 0 127 0"/><feOffset dy="15"/><feGaussianBlur stdDeviation="27.5"/><feColorMatrix values="0 0 0 0 0.615686 0 0 0 0 0.639216 0 0 0 0 0.705882 0 0 0 0.2 0"/><feBlend in2="BackgroundImageFix" result="effect1_dropShadow"/><feBlend in="SourceGraphic" in2="effect1_dropShadow" result="shape"/></filter><filter id="filter8_d" x="140.391" y="66.694" width="209.2" height="209.369" filterUnits="userSpaceOnUse" color-interpolation-filters="sRGB"><feFlood flood-opacity="0" result="BackgroundImageFix"/><feColorMatrix in="SourceAlpha" values="0 0 0 0 0 0 0 0 0 0 0 0 0 0 0 0 0 0 127 0"/><feOffset dy="-8"/><feGaussianBlur stdDeviation="10"/><feColorMatrix values="0 0 0 0 1 0 0 0 0 1 0 0 0 0 1 0 0 0 1 0"/><feBlend mode="lighten" in2="BackgroundImageFix" result="effect1_dropShadow"/><feBlend in="SourceGraphic" in2="effect1_dropShadow" result="shape"/></filter><filter id="filter9_dd" x="151.591" y="80.895" width="186.809" height="194.766" filterUnits="userSpaceOnUse" color-interpolation-filters="sRGB"><feFlood flood-opacity="0" result="BackgroundImageFix"/><feColorMatrix in="SourceAlpha" values="0 0 0 0 0 0 0 0 0 0 0 0 0 0 0 0 0 0 127 0"/><feOffset dy="-5"/><feGaussianBlur stdDeviation="5"/><feColorMatrix values="0 0 0 0 0.945098 0 0 0 0 0.952941 0 0 0 0 0.968627 0 0 0 1 0"/><feBlend in2="BackgroundImageFix" result="effect1_dropShadow"/><feColorMatrix in="SourceAlpha" values="0 0 0 0 0 0 0 0 0 0 0 0 0 0 0 0 0 0 127 0"/><feOffset dy="4"/><feGaussianBlur stdDeviation="5"/><feColorMatrix values="0 0 0 0 0.192157 0 0 0 0 0.368627 0 0 0 0 0.992157 0 0 0 0.2 0"/><feBlend in2="effect1_dropShadow" result="effect2_dropShadow"/><feBlend in="SourceGraphic" in2="effect2_dropShadow" result="shape"/></filter><radialGradient id="paint0_radial" cx="0" cy="0" r="1" gradientUnits="userSpaceOnUse" gradientTransform="matrix(0 -279.946 299.58 0 245 289.347)"><stop stop-color="#fff" stop-opacity=".262"/><stop offset="1" stop-color="#80869F" stop-opacity=".19"/></radialGradient><radialGradient id="paint3_radial" cx="0" cy="0" r="1" gradientUnits="userSpaceOnUse" gradientTransform="matrix(0 19.7582 -19.7548 0 -.252 -.547)"><stop stop-color="#B9BDC7"/><stop offset="1" stop-color="#497DFC"/></radialGradient><radialGradient id="paint4_radial" cx="0" cy="0" r="1" gradientUnits="userSpaceOnUse" gradientTransform="matrix(6.85096 36.20399 -36.17019 6.84456 141.77 351.049)"><stop stop-color="#9FBDFF"/><stop offset="1" stop-color="#056FF8"/></radialGradient><radialGradient id="paint5_radial" cx="0" cy="0" r="1" gradientUnits="userSpaceOnUse" gradientTransform="matrix(7.80323 13.92244 -13.92113 7.8025 7.803 5.075)"><stop stop-color="#9FBDFF"/><stop offset="1" stop-color="#056FF8"/></radialGradient><radialGradient id="paint6_radial" cx="0" cy="0" r="1" gradientUnits="userSpaceOnUse" gradientTransform="rotate(60.73 -.672 14.395) scale(24.9808 24.9786)"><stop stop-color="#9FBDFF"/><stop offset="1" stop-color="#056FF8"/></radialGradient><radialGradient id="paint7_radial" cx="0" cy="0" r="1" gradientUnits="userSpaceOnUse" gradientTransform="rotate(60.73 -.165 3.537) scale(6.1385 6.13794)"><stop stop-color="#9FBDFF"/><stop offset="1" stop-color="#056FF8"/></radialGradient><linearGradient id="paint1_linear" x1="353.6" y1="103.102" x2="137.52" y2="206.237" gradientUnits="userSpaceOnUse"><stop stop-color="#fff" stop-opacity=".404"/><stop offset=".119" stop-color="#EEEFF8" stop-opacity=".385"/><stop offset=".206" stop-color="#DEE5FF" stop-opacity=".371"/><stop offset=".765" stop-color="#fff" stop-opacity=".282"/><stop offset="1" stop-color="#E3EAFF" stop-opacity=".245"/></linearGradient><linearGradient id="paint2_linear" x1="-10.129" y1="9.185" x2="9.334" y2="28.94" gradientUnits="userSpaceOnUse"><stop stop-color="#2B2E34"/><stop offset="1" stop-color="#2B87DA"/></linearGradient><linearGradient id="paint8_linear" x1="255.2" y1="250.85" x2="207.118" y2="133.166" gradientUnits="userSpaceOnUse"><stop stop-color="#315EFD"/><stop offset="1" stop-color="#6789FF"/></linearGradient></defs></svg>