<svg xmlns="http://www.w3.org/2000/svg" width="196" height="53" viewBox="0 0 196 53" xmlns:xlink="http://www.w3.org/1999/xlink"><defs><polygon id="a" points="104.577 26.578 104.577 .231 .046 .231 .046 26.578"/></defs><g fill="none" fill-rule="evenodd"><g transform="translate(91 19)"><mask id="b" fill="white"><use xlink:href="#a"/></mask><path fill="#CC6633" d="M60.9987438,3.76826538 C61.0283995,3.02888077 61.5579647,2.45253462 62.332189,2.45253462 C63.0862899,2.45253462 63.566076,3.07665 63.6073821,3.76826538 L60.9987438,3.76826538 Z M64.7237056,4.48999615 C64.9101125,2.99980385 63.9293577,1.58749615 62.332189,1.58749615 C60.8229282,1.58749615 59.8813612,2.79834231 59.8813612,4.21168846 C59.8813612,5.74030385 60.773149,6.82653462 62.3607856,6.82653462 C63.468636,6.82653462 64.4091438,6.22111154 64.6559212,5.13488077 L63.5967908,5.13488077 C63.3997925,5.68215 63.0079143,5.96045769 62.3607856,5.96045769 C61.4298099,5.96045769 60.9987438,5.26884231 60.9987438,4.48999615 L64.7237056,4.48999615 L64.7237056,4.48999615 Z M55.616243,2.53872692 L56.4593108,2.53872692 L56.4593108,5.47134231 C56.477316,6.29795769 56.6944377,6.73826538 57.8615995,6.73826538 C58.1062586,6.73826538 58.3413856,6.69984231 58.5860447,6.68218846 L58.5860447,5.83584231 C58.4292934,5.87426538 58.2725421,5.87426538 58.1157908,5.87426538 C57.6148221,5.87426538 57.5756343,5.64372692 57.5756343,5.19095769 L57.5756343,2.53872692 L58.5860447,2.53872692 L58.5860447,1.72145769 L57.5756343,1.72145769 L57.5756343,0.231265385 L56.4593108,0.231265385 L56.4593108,1.72145769 L55.616243,1.72145769 L55.616243,2.53872692 L55.616243,2.53872692 Z M49.762429,1.72145769 L49.762429,6.69153462 L50.8798117,6.69153462 L50.8798117,3.75891923 C50.8798117,3.02888077 51.3606569,2.45253462 52.1052256,2.45253462 C52.7618864,2.45253462 53.075389,2.78899615 53.0965717,3.56680385 L53.0965717,6.69153462 L54.2139543,6.69153462 L54.2139543,3.27915 C54.2139543,2.16384231 53.5170464,1.58749615 52.4197873,1.58749615 C51.7525351,1.58749615 51.1742499,1.92291923 50.841683,2.47122692 L50.8205003,2.45253462 L50.8205003,1.72145769 L49.762429,1.72145769 L49.762429,1.72145769 Z M44.4477125,3.76826538 C44.4773682,3.02888077 45.0069334,2.45253462 45.7822169,2.45253462 C46.5363177,2.45253462 47.017163,3.07665 47.0563508,3.76826538 L44.4477125,3.76826538 Z M48.1737334,4.48999615 C48.3601403,2.99980385 47.3804447,1.58749615 45.7822169,1.58749615 C44.2718969,1.58749615 43.3303299,2.79834231 43.3303299,4.21168846 C43.3303299,5.74030385 44.2231769,6.82653462 45.8108134,6.82653462 C46.919723,6.82653462 47.8602308,6.22111154 48.1048899,5.13488077 L47.0468186,5.13488077 C46.8498203,5.68215 46.4579421,5.96045769 45.8108134,5.96045769 C44.8798377,5.96045769 44.4477125,5.26884231 44.4477125,4.48999615 L48.1737334,4.48999615 L48.1737334,4.48999615 Z M38.2613317,3.76826538 C38.2909873,3.02888077 38.8205525,2.45253462 39.595836,2.45253462 C40.3499369,2.45253462 40.8307821,3.07665 40.8699699,3.76826538 L38.2613317,3.76826538 Z M41.9862934,4.48999615 C42.1737595,2.99980385 41.1919456,1.58749615 39.595836,1.58749615 C38.085516,1.58749615 37.143949,2.79834231 37.143949,4.21168846 C37.143949,5.74030385 38.0357369,6.82653462 39.6244325,6.82653462 C40.732283,6.82653462 41.6738499,6.22111154 41.918509,5.13488077 L40.8604377,5.13488077 C40.6634395,5.68215 40.2705021,5.96045769 39.6244325,5.96045769 C38.6923977,5.96045769 38.2613317,5.26884231 38.2613317,4.48999615 L41.9862934,4.48999615 L41.9862934,4.48999615 Z M28.1233351,1.72145769 L28.1233351,6.69153462 L29.2417769,6.69153462 L29.2417769,3.74022692 C29.2417769,2.91361154 29.7713421,2.45253462 30.3496273,2.45253462 C31.0264117,2.45253462 31.2414151,2.81703462 31.2414151,3.49930385 L31.2414151,6.69153462 L32.3598569,6.69153462 L32.3598569,3.77968846 C32.3598569,2.94165 32.6818325,2.45253462 33.4380517,2.45253462 C34.3118343,2.45253462 34.358436,2.99980385 34.358436,3.78903462 L34.358436,6.69153462 L35.4768777,6.69153462 L35.4768777,3.25941923 C35.4768777,2.04857308 34.8498725,1.58749615 33.7812099,1.58749615 C33.0451143,1.58749615 32.5653282,1.90422692 32.1935734,2.41307308 C31.9679786,1.84711154 31.3896934,1.58749615 30.7711612,1.58749615 C29.9662221,1.58749615 29.5457473,1.92291923 29.2121212,2.41307308 L29.1824656,2.41307308 L29.1824656,1.72145769 L28.1233351,1.72145769 L28.1233351,1.72145769 Z M22.8086186,3.76826538 C22.8382743,3.02888077 23.3678395,2.45253462 24.143123,2.45253462 C24.8993421,2.45253462 25.3791282,3.07665 25.4172569,3.76826538 L22.8086186,3.76826538 Z M26.5356986,4.48999615 C26.7221056,2.99980385 25.7424099,1.58749615 24.143123,1.58749615 C22.632803,1.58749615 21.691236,2.79834231 21.691236,4.21168846 C21.691236,5.74030385 22.584083,6.82653462 24.1727786,6.82653462 C25.280629,6.82653462 26.222196,6.22111154 26.465796,5.13488077 L25.4077247,5.13488077 C25.2117856,5.68215 24.8199073,5.96045769 24.1727786,5.96045769 C23.2407438,5.96045769 22.8086186,5.26884231 22.8086186,4.48999615 L26.5356986,4.48999615 L26.5356986,4.48999615 Z M18.9565612,4.09641923 C18.9565612,3.23968846 18.5636238,2.45253462 17.5934603,2.45253462 C16.6042325,2.45253462 16.258956,3.35599615 16.258956,4.18261154 C16.258956,4.99988077 16.6614256,5.82753462 17.5934603,5.82753462 C18.5848064,5.82753462 18.9565612,4.94172692 18.9565612,4.09641923 L18.9565612,4.09641923 Z M20.0739438,6.43191923 C20.0739438,7.92107308 19.1810969,8.66253462 17.5839282,8.66253462 C16.5650447,8.66253462 15.4169473,8.27726538 15.3184482,7.11522692 L16.4368899,7.11522692 C16.5735177,7.73934231 17.0840186,7.84526538 17.6527717,7.84526538 C18.5540917,7.84526538 18.9565612,7.39249615 18.9565612,6.57522692 L18.9565612,5.81611154 L18.9364377,5.81611154 C18.6229351,6.36441923 18.0446499,6.69153462 17.4165856,6.69153462 C15.8098847,6.69153462 15.1426325,5.49938077 15.1426325,4.07668846 C15.1426325,2.74018846 15.9952325,1.58749615 17.436709,1.58749615 C18.0732464,1.58749615 18.6525908,1.84711154 18.9364377,2.40476538 L18.9565612,2.40476538 L18.9565612,1.72145769 L20.0739438,1.72145769 L20.0739438,6.43191923 L20.0739438,6.43191923 Z M101.702186,21.42315 C101.702186,23.0213423 101.114368,24.5634577 99.1412082,24.5634577 C97.2940847,24.5634577 96.5177421,22.9663038 96.5177421,21.4418423 C96.5177421,19.84365 97.1902899,18.3378808 99.1412082,18.3378808 C101.073062,18.3378808 101.702186,19.84365 101.702186,21.42315 L101.702186,21.42315 Z M101.743492,26.3143038 L104.577725,26.3143038 L104.577725,12.8818038 L101.597332,12.8818038 L101.597332,17.7729577 L101.556026,17.7729577 C100.883478,16.8144577 99.6252308,16.3243038 98.343683,16.3243038 C95.152523,16.3243038 93.5362899,18.7522269 93.5362899,21.3660346 C93.5362899,24.0566885 95.1323995,26.5780731 98.4061717,26.5780731 C99.7936325,26.5780731 101.009514,26.1253038 101.702186,25.0723038 L101.743492,25.0723038 L101.743492,26.3143038 L101.743492,26.3143038 Z M87.9313717,26.3143038 L90.9128238,26.3143038 L90.9128238,12.8818038 L87.9313717,12.8818038 L87.9313717,26.3143038 Z M77.5190603,20.4085731 C77.5603664,19.65465 78.1068777,18.3378808 79.9963664,18.3378808 C81.4441977,18.3378808 82.095563,19.0523423 82.3677595,20.4085731 L77.5190603,20.4085731 Z M85.3492117,22.1002269 C85.5589195,19.1094577 83.7753438,16.3243038 80.0810969,16.3243038 C76.7840238,16.3243038 74.5386673,18.5455731 74.5386673,21.4605346 C74.5386673,24.4710346 76.6590464,26.5780731 80.0810969,26.5780731 C82.5361612,26.5780731 84.3197369,25.5998423 85.1606864,23.3048423 L82.5361612,23.3048423 C82.347636,23.90715 81.3827682,24.5634577 80.1859508,24.5634577 C78.5262934,24.5634577 77.6037908,23.7929192 77.5190603,22.1002269 L85.3492117,22.1002269 L85.3492117,22.1002269 Z M69.4167125,26.3143038 L73.090836,16.5880731 L70.1295073,16.5880731 L67.8428447,23.2290346 L67.7994203,23.2290346 L65.5127577,16.5880731 L62.3830273,16.5880731 L66.099516,26.3143038 L69.4167125,26.3143038 L69.4167125,26.3143038 Z M53.0838621,20.4085731 C53.1251682,19.65465 53.6716795,18.3378808 55.5611682,18.3378808 C57.0100586,18.3378808 57.6603647,19.0523423 57.9336203,20.4085731 L53.0838621,20.4085731 Z M60.9150725,22.1002269 C61.1247803,19.1094577 59.3401456,16.3243038 55.6458986,16.3243038 C52.3498847,16.3243038 50.103469,18.5455731 50.103469,21.4605346 C50.103469,24.4710346 52.2238482,26.5780731 55.6458986,26.5780731 C58.1020221,26.5780731 59.8866569,25.5998423 60.7254882,23.3048423 L58.1020221,23.3048423 C57.9124377,23.90715 56.9465108,24.5634577 55.7507525,24.5634577 C54.0921543,24.5634577 53.1685925,23.7929192 53.0838621,22.1002269 L60.9150725,22.1002269 L60.9150725,22.1002269 Z M37.4458012,16.5880731 L37.4458012,26.3143038 L40.4261943,26.3143038 L40.4261943,21.2154577 C40.4261943,19.2413423 41.1178064,18.4313423 42.7350986,18.4313423 C44.1204412,18.4313423 44.6447108,19.22265 44.6447108,20.8218808 L44.6447108,26.3143038 L47.626163,26.3143038 L47.626163,20.3317269 C47.626163,17.9235346 46.8296969,16.3243038 43.6586603,16.3243038 C42.3993543,16.3243038 41.0987421,16.8518423 40.342523,17.9432654 L40.2789751,17.9432654 L40.2789751,16.5880731 L37.4458012,16.5880731 L37.4458012,16.5880731 Z M28.1582864,16.5880731 L28.1582864,26.3143038 L31.1376203,26.3143038 L31.1376203,21.9299192 C31.1376203,20.2195731 31.8938395,18.8083038 34.0767073,18.8083038 C34.4346934,18.8083038 34.8763508,18.8456885 35.146429,18.9017654 L35.146429,16.4198423 C34.958963,16.3627269 34.7068899,16.3243038 34.496123,16.3243038 C33.0482917,16.3243038 31.5782186,17.17065 31.0327664,18.3939577 L30.9914603,18.3939577 L30.9914603,16.5880731 L28.1582864,16.5880731 L28.1582864,16.5880731 Z M22.1328934,22.5509192 C22.1328934,23.1355731 22.048163,24.7898423 19.718076,24.7898423 C18.752149,24.7898423 17.891076,24.5458038 17.891076,23.5478423 C17.891076,22.57065 18.7320256,22.28715 19.6566464,22.1189192 C20.5802082,21.9683423 21.6287473,21.9506885 22.1328934,21.5550346 L22.1328934,22.5509192 Z M18.2278795,19.5798808 C18.3327334,18.5258423 19.0667108,18.1125346 20.2020986,18.1125346 C21.2506377,18.1125346 22.1328934,18.2818038 22.1328934,19.4293038 C22.1328934,20.5196885 20.4319299,20.4625731 18.605989,20.7086885 C16.7578064,20.9329962 14.910683,21.4605346 14.910683,23.6610346 C14.910683,25.6559192 16.5491577,26.5780731 18.605989,26.5780731 C19.928843,26.5780731 21.3141856,26.2571885 22.259989,25.3744962 C22.2790534,25.6922654 22.3637838,26.01315 22.4686377,26.3143038 L25.491396,26.3143038 C25.2181403,25.91865 25.1143456,25.0359577 25.1143456,24.15015 L25.1143456,19.0907654 C25.1143456,16.7573423 22.511003,16.3243038 20.3482586,16.3243038 C17.9133177,16.3243038 15.4158882,17.0771885 15.2474864,19.5798808 L18.2278795,19.5798808 L18.2278795,19.5798808 Z M3.34074209,20.3317269 L6.93119426,20.3317269 C8.33771948,20.3317269 9.3025873,20.8769192 9.3025873,22.2508038 C9.3025873,23.6433808 8.17037687,24.0182654 6.86764643,24.0182654 L3.34074209,24.0182654 L3.34074209,20.3317269 Z M0.0457873043,26.3143038 L7.3082447,26.3143038 C10.0164412,26.3143038 12.5996603,25.1470731 12.5996603,22.4190346 C12.5996603,20.7450346 11.6750395,19.4853808 9.84909861,19.0159962 C11.1497108,18.4510731 11.8858064,17.5278808 11.8858064,16.21215 C11.8858064,13.7104962 9.95289339,12.8818038 7.09853687,12.8818038 L0.0457873043,12.8818038 L0.0457873043,26.3143038 Z M3.34074209,15.1778423 L6.42704817,15.1778423 C7.60374209,15.1778423 8.69464643,15.4405731 8.69464643,16.7199577 C8.69464643,17.8487654 7.83463252,18.3191885 6.68018035,18.3191885 L3.34074209,18.3191885 L3.34074209,15.1778423 L3.34074209,15.1778423 Z" mask="url(#b)"/></g><path fill="#007377" d="M79.7175467,52.381808 C80.87488,42.174008 74.0151467,32.613868 73.53728,32.072208 C71.8402133,29.795328 74.32128,30.165268 74.32128,30.165268 C74.7415467,30.131348 75.6002133,30.260668 75.8114133,30.326388 C76.0023467,30.151488 73.8050133,28.371748 73.3463467,28.097208 C73.0231467,27.948808 73.1607467,27.850228 72.8994133,27.997568 C73.1938133,28.205328 74.0098133,29.166748 74.3170133,29.568488 C74.3170133,29.568488 72.2839467,29.297128 71.7623467,30.667708 C71.41568,32.771808 78.2594133,41.992748 79.1426133,52.389228 C79.1426133,52.389228 79.09568,52.922408 79.38048,52.994488 C79.66528,53.068688 79.7175467,52.381808 79.7175467,52.381808 M69.4679467,12.849108 C69.0711467,11.412808 67.4946133,11.329068 66.2146133,11.573928 C64.4631467,11.793348 62.1698133,13.242368 63.0050133,15.331628 C63.1554133,15.496988 63.4871467,15.200188 63.8103467,15.059208 C64.9666133,14.179408 66.6466133,12.383768 68.1719467,13.407728 C67.93728,14.810108 66.5986133,16.152068 67.31008,17.606388 C68.3127467,19.547248 70.75648,18.262528 72.4919467,18.356868 C72.4919467,18.356868 72.63168,18.676988 72.6242133,18.834928 C72.4226133,19.609788 72.0738133,20.220348 72.0311467,21.005808 C73.24928,21.854868 74.8098133,22.253428 75.8551467,23.409888 C76.5922133,24.393568 75.8935467,25.612568 75.8338133,26.709668 C76.4482133,27.058408 77.24608,26.941808 77.6034133,26.175428 C77.96928,25.253228 77.8551467,24.460348 77.9063467,23.521188 C77.7986133,22.571428 77.5266133,21.769008 76.92928,21.109688 C76.1826133,20.283948 74.9314133,20.059228 73.8338133,19.842988 C74.5346133,18.623988 74.77568,17.063668 73.3986133,16.202948 C72.0226133,15.345408 70.10368,15.713228 68.7906133,16.586668 C69.1319467,16.132988 69.6311467,15.686728 69.8135467,15.227748 C69.84768,14.599168 70.1890133,14.144428 70.2242133,13.517968 C70.2402133,13.205268 69.9490133,12.717668 69.4679467,12.849108 M43.97568,35.558548 L43.7495467,35.403788 C43.7495467,35.403788 40.2807467,34.001408 39.7890133,33.784108 C39.3026133,33.565748 31.48928,31.154248 28.7575467,30.304128 C26.02368,29.452948 24.9719467,28.284828 24.9719467,28.284828 C25.47648,28.204268 29.9586133,28.810588 29.9586133,28.810588 L27.74848,27.942448 L28.3970133,27.792988 L26.7991467,26.853828 C26.7991467,26.853828 23.18208,26.393788 16.81088,24.385088 C10.43968,22.378508 10.0834133,22.314908 10.0834133,22.314908 L12.2402133,22.471788 C12.2402133,22.471788 9.48928,21.172228 7.81888,21.141488 C6.14634667,21.111808 5.74634667,20.574388 5.74634667,20.574388 C5.74634667,20.574388 4.65194667,20.142968 4.09941333,20.211868 C3.55328,20.279708 2.21994667,18.897468 1.77514667,18.339908 C1.33034667,17.781288 0.931413333,17.408168 0.64448,17.323368 C0.358613333,17.239628 0.905813333,16.637548 0.539946667,16.685248 C0.539946667,16.685248 -0.335786667,15.891308 0.143146667,15.783188 C0.74368,15.645388 0.310613333,15.326328 1.00501333,15.385688 C1.69941333,15.443988 9.25248,15.330568 11.6002133,16.090588 C13.94688,16.852728 13.4423467,15.817108 13.4423467,15.817108 C13.4423467,15.817108 19.9799467,16.548508 25.1287467,18.802068 C25.1287467,18.802068 26.78208,19.502728 25.35808,18.517988 L16.9186133,13.321868 C16.29888,12.958288 14.80448,11.997928 14.0343467,11.785928 C13.2610133,11.573928 12.27008,10.804368 11.9447467,10.416408 C11.6194133,10.029508 10.35648,9.521768 9.24394667,9.311888 C8.13248,9.104128 6.22634667,8.446928 6.57301333,7.881948 C6.57301333,7.881948 5.18208,6.573908 5.75594667,6.005748 C6.32874667,5.440768 9.66314667,5.328408 16.43968,7.592568 C16.43968,7.592568 17.1298133,8.215848 18.4898133,8.659988 C19.8498133,9.104128 25.1447467,9.495268 29.9063467,12.011708 C29.9063467,12.011708 34.5559467,14.529208 35.1415467,14.308728 L30.3287467,10.408988 L32.3234133,11.561208 C32.3234133,11.561208 30.1250133,9.458168 29.6535467,8.943008 C29.1810133,8.426788 27.7879467,7.184468 27.41568,7.057268 L27.40288,6.710648 L26.35008,6.135068 C26.35008,6.135068 26.6562133,6.002568 26.17408,5.595528 C25.6919467,5.188488 24.9367467,4.307628 24.9367467,4.307628 C24.9367467,4.307628 24.8162133,2.945528 24.47488,2.493968 C24.13248,2.041348 23.97248,1.568588 24.2370133,1.413828 C24.4994133,1.261188 24.25408,-0.193132 28.19328,2.654028 C28.19328,2.654028 28.53568,3.432068 28.9986133,3.319708 C28.9986133,3.319708 29.8487467,3.583648 30.0674133,3.250808 L30.0823467,3.188268 C30.1026133,2.974148 30.47168,3.184028 30.47168,3.184028 C30.47168,3.184028 34.5186133,5.122768 36.5634133,6.472148 C38.6082133,7.817288 39.83808,8.478728 40.0898133,8.435268 C40.0898133,8.435268 51.1191467,16.701148 54.2359467,21.069408 C57.35488,25.437668 59.1938133,28.495768 59.4487467,28.904928 C59.7047467,29.313028 61.5202133,34.058648 61.6034133,34.381948 C61.6855467,34.706308 62.1591467,36.410788 61.7143467,37.041488 C61.2727467,37.673248 61.36128,37.433688 61.0914133,37.414608 C60.8215467,37.393408 60.4087467,37.701868 60.5026133,37.915988 C60.5943467,38.132228 60.98048,38.603928 59.8391467,39.174208 C58.7010133,39.745548 58.0151467,39.578068 57.5714133,39.473128 C57.5714133,39.473128 58.9346133,41.109768 57.2791467,41.877208 C55.62368,42.645708 53.81568,43.114228 52.9143467,42.105108 C52.9143467,42.105108 52.44928,42.912828 52.01088,42.111468 C50.9410133,40.161068 47.64608,37.688088 43.97568,35.558548"/></g></svg>