<svg width="16" height="16" viewBox="0 0 16 16" fill="none" xmlns="http://www.w3.org/2000/svg">
<g clip-path="url(#clip0_819_1598)">
<path d="M3.9541 13.2734V14.5919V15.9102H16V14.5919V13.2734H3.9541Z" fill="#167C68"/>
<path d="M3.9541 9.31836V10.6367V11.9551H16V10.6367V9.31836H3.9541Z" fill="#33B69B"/>
<path opacity="0.5" d="M3.9541 9.31836V10.6367V11.9551H16V10.6367V9.31836H3.9541Z" fill="url(#paint0_linear_819_1598)"/>
<path d="M1.31795 15.9091C2.04583 15.9091 2.6359 15.319 2.6359 14.5911C2.6359 13.8633 2.04583 13.2732 1.31795 13.2732C0.590067 13.2732 0 13.8633 0 14.5911C0 15.319 0.590067 15.9091 1.31795 15.9091Z" fill="#39907E"/>
<path d="M1.31795 11.9547C2.04583 11.9547 2.6359 11.3647 2.6359 10.6368C2.6359 9.90891 2.04583 9.31885 1.31795 9.31885C0.590067 9.31885 0 9.90891 0 10.6368C0 11.3647 0.590067 11.9547 1.31795 11.9547Z" fill="#39907E"/>
<path opacity="0.3" d="M1.31795 15.9091C2.04583 15.9091 2.6359 15.319 2.6359 14.5911C2.6359 13.8633 2.04583 13.2732 1.31795 13.2732C0.590067 13.2732 0 13.8633 0 14.5911C0 15.319 0.590067 15.9091 1.31795 15.9091Z" fill="url(#paint1_linear_819_1598)"/>
<path opacity="0.3" d="M1.31795 11.9547C2.04583 11.9547 2.6359 11.3647 2.6359 10.6368C2.6359 9.90891 2.04583 9.31885 1.31795 9.31885C0.590067 9.31885 0 9.90891 0 10.6368C0 11.3647 0.590067 11.9547 1.31795 11.9547Z" fill="url(#paint2_linear_819_1598)"/>
<path d="M11.6074 5.48698C11.9698 4.90533 12.1676 4.21245 12.1371 3.47596C12.0567 1.52697 10.4116 0.0122132 8.46258 0.0926613C6.51359 0.173109 4.99883 1.81822 5.07923 3.76721C5.15968 5.7162 6.80483 7.23095 8.75382 7.15055C9.49026 7.12015 10.1645 6.86607 10.7143 6.45688L12.4568 8.06123L13.3499 7.09137L11.6074 5.48698ZM8.70019 5.85042C7.46922 5.9012 6.4302 4.94455 6.37941 3.71357C6.32858 2.48265 7.28528 1.44363 8.51621 1.3928C9.74714 1.34201 10.7862 2.29871 10.837 3.52964C10.8878 4.76057 9.93107 5.79963 8.70019 5.85042Z" fill="#3C4F4B"/>
<path fill-rule="evenodd" clip-rule="evenodd" d="M11.6074 5.48698C11.9698 4.90533 12.1676 4.21245 12.1371 3.47596C12.0567 1.52697 10.4116 0.0122131 8.46258 0.0926613C6.51359 0.17311 4.99883 1.81822 5.07923 3.76721C5.15968 5.7162 6.80483 7.23096 8.75382 7.15056C9.49026 7.12015 10.1645 6.86607 10.7143 6.45688L11.6074 5.48698ZM6.37944 3.71358C6.43023 4.94455 7.46924 5.90121 8.70022 5.85042C9.9311 5.79963 10.8878 4.76057 10.837 3.52964C10.7862 2.29872 9.74716 1.34201 8.51624 1.3928C7.28531 1.44364 6.3286 2.48265 6.37944 3.71358Z" fill="#39907E"/>
<path fill-rule="evenodd" clip-rule="evenodd" d="M11.6074 5.48698C11.9698 4.90533 12.1676 4.21245 12.1371 3.47596C12.0567 1.52697 10.4116 0.0122131 8.46258 0.0926613C6.51359 0.17311 4.99883 1.81822 5.07923 3.76721C5.15968 5.7162 6.80483 7.23096 8.75382 7.15056C9.49026 7.12015 10.1645 6.86607 10.7143 6.45688L11.6074 5.48698ZM6.37944 3.71358C6.43023 4.94455 7.46924 5.90121 8.70022 5.85042C9.9311 5.79963 10.8878 4.76057 10.837 3.52964C10.7862 2.29872 9.74716 1.34201 8.51624 1.3928C7.28531 1.44364 6.3286 2.48265 6.37944 3.71358Z" fill="url(#paint3_linear_819_1598)"/>
</g>
<defs>
<linearGradient id="paint0_linear_819_1598" x1="9.97703" y1="9.31836" x2="9.97703" y2="11.9551" gradientUnits="userSpaceOnUse">
<stop stop-color="#0FAA8C"/>
<stop offset="0.611377" stop-color="#0FAA8C" stop-opacity="0"/>
</linearGradient>
<linearGradient id="paint1_linear_819_1598" x1="1.31795" y1="13.2732" x2="1.31795" y2="15.9091" gradientUnits="userSpaceOnUse">
<stop stop-color="#0FAA8C"/>
<stop offset="0.611377" stop-color="#0FAA8C" stop-opacity="0"/>
</linearGradient>
<linearGradient id="paint2_linear_819_1598" x1="1.31795" y1="9.31885" x2="1.31795" y2="11.9547" gradientUnits="userSpaceOnUse">
<stop stop-color="#0FAA8C"/>
<stop offset="0.611377" stop-color="#0FAA8C" stop-opacity="0"/>
</linearGradient>
<linearGradient id="paint3_linear_819_1598" x1="8.60818" y1="0.0895996" x2="8.60818" y2="7.15361" gradientUnits="userSpaceOnUse">
<stop stop-color="#0FAA8C"/>
<stop offset="0.611377" stop-color="#0FAA8C" stop-opacity="0"/>
</linearGradient>
<clipPath id="clip0_819_1598">
<rect width="16" height="16" fill="white"/>
</clipPath>
</defs>
</svg>
