<svg xmlns="http://www.w3.org/2000/svg" width="16" height="16" fill="none"><path fill="#3C4F4B" d="M11.607 5.487a3.532 3.532 0 1 0-.893.97l1.743 1.604.893-.97-1.743-1.604ZM8.7 5.85a2.23 2.23 0 1 1-.184-4.457A2.23 2.23 0 0 1 8.7 5.85Z" class="svg_fill_dark"/><path fill="#39907E" fill-rule="evenodd" d="M11.607 5.487a3.532 3.532 0 1 0-.893.97l.893-.97ZM6.38 3.714a2.23 2.23 0 1 0 4.458-.184 2.23 2.23 0 0 0-4.458.184Z" class="svg_fill_medium" clip-rule="evenodd"/><path fill="#39907E" d="M3.954 13.273v2.637H16v-2.637H3.954Z" class="svg_fill_medium"/><path fill="#33B69B" d="M3.954 9.318v2.637H16V9.318H3.954Z" class="svg_fill_light"/><path fill="#39907E" d="M1.318 15.91a1.318 1.318 0 1 0 0-2.637 1.318 1.318 0 0 0 0 2.636ZM1.318 11.955a1.318 1.318 0 1 0 0-2.636 1.318 1.318 0 0 0 0 2.636Z" class="svg_fill_medium"/></svg>