<svg width="16" height="16" fill="none" xmlns="http://www.w3.org/2000/svg">
    <path d="M11.607 5.487a3.532 3.532 0 1 0-.893.97l1.743 1.604.893-.97-1.743-1.604ZM8.7 5.85a2.23 2.23 0 1 1-.184-4.457A2.23 2.23 0 0 1 8.7 5.85Z" fill="#3C4F4B"  class="svg_fill_dark"/>
    <path fill-rule="evenodd" clip-rule="evenodd" d="M11.607 5.487a3.532 3.532 0 1 0-.893.97l.893-.97ZM6.38 3.714a2.23 2.23 0 1 0 4.458-.184 2.23 2.23 0 0 0-4.458.184Z" fill="#39907E" class="svg_fill_medium"/>
    <path d="M3.954 13.273v2.637H16v-2.637H3.954Z" fill="#39907E" class="svg_fill_medium"/>
    <path d="M3.954 9.318v2.637H16V9.318H3.954Z" fill="#33B69B" class="svg_fill_light"/>
    <path d="M1.318 15.91a1.318 1.318 0 1 0 0-2.637 1.318 1.318 0 0 0 0 2.636ZM1.318 11.955a1.318 1.318 0 1 0 0-2.636 1.318 1.318 0 0 0 0 2.636Z" fill="#39907E" class="svg_fill_medium"/>
</svg>