<svg xmlns="http://www.w3.org/2000/svg" width="116" height="36" fill="none"><path fill="#fff" d="M18.037 1.287h79.91c9.255 0 16.756 7.483 16.756 16.714 0 9.232-7.501 16.714-16.755 16.714H18.037c-9.254 0-16.756-7.483-16.756-16.714 0-9.231 7.502-16.714 16.756-16.714Z"/><path fill="#ECECEC" d="M3.859 19.286a16.565 16.565 0 0 0 9.834 14.862C4.753 31.768-.56 22.607 1.828 13.688 3.787 6.367 10.44 1.277 18.037 1.286h79.91c.38-.003.758.014 1.135.051l-77.9.669c-9.567.002-17.32 7.737-17.323 17.28Z"/><path fill="#ECECEC" d="M101.825 6.428H23.203C15.66 6.076 9.26 11.89 8.908 19.414c-.014.313-.018.626-.012.94a14.266 14.266 0 0 0 2.3 7.794c-.281-.245-.55-.489-.807-.745a13.358 13.358 0 0 1-3.942-9.49c.161-7.234 6.173-12.97 13.425-12.81.252.007.503.02.753.04H95.38c2.247 0 4.61-.111 6.445 1.285ZM106.604 27.377l-4.005-3.997a9.02 9.02 0 0 0-1.825-12.649c-4.006-2.99-9.682-2.175-12.68 1.82a9.02 9.02 0 0 0 1.825 12.65 9.078 9.078 0 0 0 10.855 0l4.007 3.997a1.29 1.29 0 0 0 1.823-.032 1.284 1.284 0 0 0 0-1.786v-.003ZM88.937 18c0-3.55 2.886-6.428 6.444-6.428 3.559 0 6.445 2.879 6.445 6.428 0 3.55-2.886 6.43-6.445 6.43-3.557-.005-6.44-2.88-6.444-6.43Z"/><path fill="#A80A2D" d="m105.311 26.092-4.005-3.998a9.02 9.02 0 0 0-1.825-12.649c-4.006-2.99-9.682-2.175-12.68 1.821-2.998 3.996-2.18 9.658 1.825 12.649a9.078 9.078 0 0 0 10.855 0l4.007 3.997a1.29 1.29 0 0 0 1.823-.032 1.283 1.283 0 0 0 0-1.786v-.002Zm-17.667-9.377c0-3.55 2.886-6.429 6.444-6.429 3.559 0 6.445 2.879 6.445 6.429 0 3.55-2.886 6.428-6.445 6.428-3.557-.003-6.44-2.88-6.444-6.428Z" class="svg_color_primary"/><path fill="#353535" d="M97.956 36H18.044C8.08 36 0 27.941 0 18S8.079 0 18.044 0h79.912C107.92 0 116 8.059 116 18s-8.079 18-18.044 18ZM18.044 2.571C9.503 2.571 2.578 9.48 2.578 18s6.925 15.429 15.466 15.429h79.912c8.541 0 15.466-6.909 15.466-15.429S106.497 2.571 97.956 2.571H18.044Z"/></svg>