<svg width="16" height="16" fill="none" xmlns="http://www.w3.org/2000/svg">
    <path d="M1.333 14.756A1.33 1.33 0 0 1 0 13.422V6.49a1.33 1.33 0 0 1 1.333-1.333h13.334A1.33 1.33 0 0 1 16 6.489v6.933a1.33 1.33 0 0 1-1.333 1.334H1.333Z" fill="#3C4F4B" class="svg_fill_dark"/>
    <path d="M1.333 11.022A1.33 1.33 0 0 1 0 9.69V2.756a1.33 1.33 0 0 1 1.333-1.334h13.334A1.33 1.33 0 0 1 16 2.756v6.933a1.33 1.33 0 0 1-1.333 1.333H1.333Z" fill="#89BBB1" class="svg_fill_light"/>
    <path d="M2.488 1.422A2.515 2.515 0 0 1 0 3.786v4.872a2.515 2.515 0 0 1 2.488 2.364h11.024A2.515 2.515 0 0 1 16 8.658V3.786a2.515 2.515 0 0 1-2.488-2.364H2.488Z" fill="#39907E" class="svg_fill_medium"/>
    <path d="M8 2.725a3.413 3.413 0 1 0 0 6.827 3.413 3.413 0 0 0 0-6.827Z" fill="#fff"/>
    <path d="M5.806 5.935v-.53h.61c.13-.44.359-.793.688-1.06.33-.267.703-.4 1.122-.4.623 0 1.116.236 1.48.708l-.416.555A1.754 1.754 0 0 0 8.8 4.8a1.264 1.264 0 0 0-.574-.117c-.227 0-.432.063-.614.188a1.124 1.124 0 0 0-.408.533h1.398v.53H7.08a3.17 3.17 0 0 0 .012.512h1.51v.53H7.251c.211.427.53.64.958.64.211 0 .392-.041.543-.125.15-.085.31-.217.479-.398l.417.53a1.73 1.73 0 0 1-1.44.709 1.72 1.72 0 0 1-1.083-.367 2.014 2.014 0 0 1-.68-.99h-.64v-.53h.53a2.849 2.849 0 0 1-.012-.511h-.517Z" fill="#3C4F4B" class="svg_fill_dark" />
</svg>