<svg xmlns="http://www.w3.org/2000/svg" width="16" height="16" fill="none"><path fill="#ABD2CA" d="M8 2.448a2.448 2.448 0 1 1-4.897 0 2.448 2.448 0 0 1 4.897 0Z" class="svg_fill_light"/><path fill="#ABD2CA" d="M12.897 2.448a2.449 2.449 0 1 1-4.897 0 2.449 2.449 0 0 1 4.897 0Z" class="svg_fill_light"/><path fill="#0A7D67" d="M8 1.492c-.749 0-1.352.603-1.352 1.351v.392H9.35v-.392c0-.748-.602-1.35-1.35-1.35ZM1.332 7.267v7.4A1.33 1.33 0 0 0 2.666 16h10.667a1.33 1.33 0 0 0 1.333-1.333v-7.4H1.333Z" class="svg_fill_dark"/><path fill="#33B69B" d="M1.333 3.042h13.333A1.33 1.33 0 0 1 16 4.376v1.657a1.33 1.33 0 0 1-1.333 1.334H1.333A1.33 1.33 0 0 1 0 6.033V4.376a1.33 1.33 0 0 1 1.333-1.334Z" class="svg_fill_medium"/><path fill="#fff" d="M6.648 3.676V16H9.35V3.676H6.648Z" opacity=".5"/><path fill="#fff" d="M6.648 3.042v4.325H9.35V3.042H6.648Z" opacity=".75"/></svg>