<svg xmlns="http://www.w3.org/2000/svg" width="16" height="16" fill="none"><path fill="#3C4F4B" d="m1.26 8.184.495.494 3.041 3.181 2.425 1.915 1.65-.795c1.127 1.04 2.674-.508 1.634-1.633L6.659 6.678 1.258 2.099a4.305 4.305 0 0 0 .003 6.085Z" class="svg_fill_dark"/><path fill="#3C4F4B" d="m7.866 2.613-.517-.517a4.305 4.305 0 0 0-6.091.003l9.247 9.247c1.127 1.04 2.673-.506 1.633-1.633.852.834 2.237.007 1.929-1.126l-1.154-4.64-5.047-1.334Z" class="svg_fill_dark"/><path fill="#62B6A4" d="M8.63 1.847 6.735 3.744l.69.69a1.91 1.91 0 0 0 2.7 0l1.218 1.217 2.081-1.347 1.486-2.22C13.46.432 10.829-.184 8.63 1.847Z" class="svg_fill_light"/><path fill="#62B6A4" d="m11.342 5.65 2.429 2.43c.146.146.244.321.296.507l.652-.652c1.845-1.998 1.505-4.352.19-5.851L11.342 5.65Z" class="svg_fill_light"/><path fill="#62B6A4" d="M5.128 12.242s.038-.418.053-.433a1.155 1.155 0 0 0-1.678-1.586l.163-.163a1.155 1.155 0 1 0-1.633-1.633l-.462.463a1.155 1.155 0 0 0 1.633 1.633l-.164.163a1.155 1.155 0 1 0 1.643 1.626c.015-.016.445-.07.445-.07Z" class="svg_fill_light"/><path fill="#62B6A4" d="m7.259 13-.435.435a1.155 1.155 0 0 0-1.594-1.673l-.094.095-.408.408-.045.047a1.155 1.155 0 0 0 1.678 1.586l.435-.436a1.155 1.155 0 1 0 1.633 1.633l.463-.462A1.155 1.155 0 0 0 7.26 13Z" class="svg_fill_light"/></svg>