<svg width="102" height="102" viewBox="0 0 102 102" fill="none" xmlns="http://www.w3.org/2000/svg">
<rect x="1" y="1" width="100" height="100" rx="50" fill="#315EFD"/>
<rect x="1" y="1" width="100" height="100" rx="50" stroke="#315EFD" stroke-width="2"/>
<g filter="url(#filter0_d_10_1540)">
<rect x="20" y="31" width="62" height="24" rx="4" fill="white"/>
<rect x="20" y="31" width="62" height="24" rx="4" stroke="white" stroke-width="2"/>
<path d="M35.0535 43.0305C35.0535 44.269 34.7793 45.2234 34.2309 45.8934C33.6853 46.5635 32.917 46.8985 31.9261 46.8985H30V39.4772H32.0605C33.0161 39.4772 33.7532 39.7817 34.2717 40.3909C34.7929 41 35.0535 41.8799 35.0535 43.0305ZM33.3839 43.1015C33.3839 42.4213 33.2754 41.9171 33.0582 41.5888C32.8437 41.2606 32.5166 41.0964 32.0768 41.0964H31.6085V45.2538H31.9668C32.4555 45.2538 32.8138 45.0778 33.0419 44.7259C33.2699 44.3706 33.3839 43.8291 33.3839 43.1015Z" fill="#004D93"/>
<path d="M40.4369 44.0102C40.4369 44.9509 40.2333 45.6853 39.8261 46.2132C39.4216 46.7377 38.8542 47 38.1239 47C37.4235 47 36.8656 46.731 36.4503 46.1929C36.0376 45.6548 35.8313 44.9272 35.8313 44.0102C35.8313 43.0728 36.0335 42.3452 36.438 41.8274C36.8453 41.3063 37.4154 41.0457 38.1483 41.0457C38.6017 41.0457 39.0021 41.1658 39.3496 41.4061C39.6971 41.6464 39.9645 41.9915 40.1518 42.4416C40.3419 42.8883 40.4369 43.4112 40.4369 44.0102ZM37.4479 44.0102C37.4479 44.5042 37.5009 44.8816 37.6067 45.1421C37.7126 45.3993 37.8904 45.5279 38.1402 45.5279C38.3872 45.5279 38.561 45.3993 38.6614 45.1421C38.7646 44.8816 38.8162 44.5042 38.8162 44.0102C38.8162 43.5195 38.7646 43.1489 38.6614 42.8985C38.5583 42.6481 38.3818 42.5228 38.1321 42.5228C37.8877 42.5228 37.7126 42.6481 37.6067 42.8985C37.5009 43.1455 37.4479 43.5161 37.4479 44.0102Z" fill="#004D93"/>
<path d="M45.3194 46.8985L44.7981 44.1574L44.676 43.3299L44.5945 42.665H44.5701C44.4371 43.6125 44.3475 44.2098 44.3013 44.4569L43.833 46.8985H42.1594L40.9011 41.1472H42.4689L42.8435 43.3553C42.963 44.1134 43.0322 44.7428 43.0512 45.2437H43.0756C43.0838 44.9323 43.1584 44.3401 43.2996 43.467L43.7272 41.1472H45.4863L45.8773 43.4975C46.0021 44.2453 46.0809 44.8274 46.1134 45.2437H46.1379C46.1542 44.9865 46.1813 44.6667 46.2193 44.2843C46.2573 43.8985 46.2994 43.5888 46.3456 43.3553L46.7528 41.1472H48.288L47.0215 46.8985H45.3194Z" fill="#004D93"/>
<path d="M51.8511 46.8985V43.7614C51.8511 43.379 51.8063 43.0914 51.7167 42.8985C51.6298 42.7022 51.4887 42.6041 51.2932 42.6041C51.0244 42.6041 50.8303 42.7377 50.7109 43.0051C50.5914 43.2724 50.5317 43.731 50.5317 44.3807V46.8985H48.9395V41.1472H50.1408L50.3403 41.8579H50.434C50.5697 41.5871 50.757 41.3841 50.9959 41.2487C51.2375 41.1134 51.5144 41.0457 51.8266 41.0457C52.337 41.0457 52.7334 41.2301 53.0157 41.599C53.3008 41.9679 53.4433 42.4873 53.4433 43.1574V46.8985H51.8511Z" fill="#004D93"/>
<path d="M56.1187 46.8985H54.5265V39H56.1187V46.8985Z" fill="#004D93"/>
<path d="M61.6283 44.0102C61.6283 44.9509 61.4247 45.6853 61.0175 46.2132C60.613 46.7377 60.0456 47 59.3153 47C58.6149 47 58.057 46.731 57.6417 46.1929C57.229 45.6548 57.0227 44.9272 57.0227 44.0102C57.0227 43.0728 57.2249 42.3452 57.6294 41.8274C58.0366 41.3063 58.6067 41.0457 59.3397 41.0457C59.7931 41.0457 60.1935 41.1658 60.541 41.4061C60.8885 41.6464 61.1559 41.9915 61.3432 42.4416C61.5333 42.8883 61.6283 43.4112 61.6283 44.0102ZM58.6393 44.0102C58.6393 44.5042 58.6923 44.8816 58.7981 45.1421C58.904 45.3993 59.0818 45.5279 59.3316 45.5279C59.5786 45.5279 59.7524 45.3993 59.8528 45.1421C59.956 44.8816 60.0076 44.5042 60.0076 44.0102C60.0076 43.5195 59.956 43.1489 59.8528 42.8985C59.7497 42.6481 59.5732 42.5228 59.3234 42.5228C59.0791 42.5228 58.904 42.6481 58.7981 42.8985C58.6923 43.1455 58.6393 43.5161 58.6393 44.0102Z" fill="#004D93"/>
<path d="M65.5497 46.8985L65.2443 46.1371H65.2118C64.9973 46.4687 64.7787 46.6954 64.5561 46.8173C64.3335 46.9391 64.0458 47 63.6928 47C63.2585 47 62.9164 46.8376 62.6667 46.5127C62.4169 46.1878 62.292 45.731 62.292 45.1421C62.292 44.5296 62.4631 44.0745 62.8051 43.7766C63.1472 43.4755 63.6426 43.3063 64.2914 43.269L65.0611 43.2386V43.1574C65.0611 42.6836 64.8738 42.4467 64.4991 42.4467C64.1625 42.4467 63.7349 42.5888 63.2164 42.8731L62.7563 41.5635C63.2938 41.2183 63.9725 41.0457 64.7923 41.0457C65.3841 41.0457 65.8416 41.2284 66.1646 41.5939C66.4904 41.9594 66.6533 42.4704 66.6533 43.1269V46.8985H65.5497ZM64.3688 45.599C64.5616 45.599 64.7258 45.5228 64.8615 45.3706C65 45.2183 65.0692 45.0203 65.0692 44.7766V44.3299L64.7027 44.3503C64.1788 44.3739 63.9168 44.6142 63.9168 45.0711C63.9168 45.423 64.0675 45.599 64.3688 45.599Z" fill="#004D93"/>
<path d="M69.1699 47C68.8414 47 68.5536 46.8832 68.3066 46.6497C68.0622 46.4162 67.8722 46.0728 67.7365 45.6193C67.6035 45.1658 67.5369 44.6362 67.5369 44.0305C67.5369 43.0964 67.6876 42.3655 67.9889 41.8376C68.2903 41.3096 68.7043 41.0457 69.2309 41.0457C69.4888 41.0457 69.7142 41.11 69.9069 41.2386C70.1024 41.3672 70.2802 41.5838 70.4404 41.8883H70.4729C70.4214 41.4382 70.3956 40.9882 70.3956 40.5381V39H72V46.8985H70.7987L70.4567 46.1726H70.3956C70.1214 46.7242 69.7128 47 69.1699 47ZM69.8214 45.4315C70.0766 45.4315 70.2558 45.3316 70.3589 45.132C70.4648 44.9323 70.5218 44.6244 70.53 44.2081V44.0508C70.53 43.5431 70.4716 43.1827 70.3549 42.9695C70.2381 42.753 70.0549 42.6447 69.8051 42.6447C69.5961 42.6447 69.4332 42.7682 69.3165 43.0152C69.2024 43.2589 69.1454 43.6074 69.1454 44.0609C69.1454 44.5076 69.2038 44.8477 69.3205 45.0812C69.4373 45.3147 69.6042 45.4315 69.8214 45.4315Z" fill="#004D93"/>
</g>
<g clip-path="url(#clip0_10_1540)" filter="url(#filter1_d_10_1540)">
<path fill-rule="evenodd" clip-rule="evenodd" d="M50.9787 71C49.1306 71 47.5134 70.5402 45.8963 69.6207C41.2759 66.8621 39.6588 60.8851 42.2 56.0575C44.0481 53.069 47.2824 51 50.9787 51C52.5959 51 54.444 51.4598 55.8302 52.3793C58.1404 53.7586 59.9885 55.8276 60.6816 58.3563C61.3746 61.1149 60.9126 63.6437 59.5265 65.9425C57.9093 68.931 54.444 71 50.9787 71Z" fill="#7DC97E"/>
<path fill-rule="evenodd" clip-rule="evenodd" d="M50.9824 68.6999C49.5591 68.6999 48.3138 68.3458 47.0684 67.6377C43.5101 65.5132 42.2648 60.9102 44.2218 57.1924C45.6451 54.8909 48.1359 53.2976 50.9824 53.2976C52.2278 53.2976 53.6511 53.6517 54.7186 54.3598C56.4977 55.4221 57.921 57.0154 58.4547 58.9628C58.9885 61.0873 58.6327 63.0347 57.5652 64.8051C56.3198 67.1066 53.6511 68.6999 50.9824 68.6999Z" fill="url(#paint0_linear_10_1540)"/>
<path fill-rule="evenodd" clip-rule="evenodd" d="M49.6975 64.9586C49.1569 64.9586 48.8867 64.9586 48.6164 64.6901L46.4542 62.5421C45.9137 62.0051 45.9137 60.9311 46.4542 60.1256C46.9948 59.5886 48.0759 59.5886 48.6164 60.1256L49.6975 61.1996L53.211 57.4406C54.0218 56.9036 54.8326 56.9036 55.6434 57.4406C56.184 58.2461 56.184 59.3201 55.6434 59.8571L50.7786 64.6901C50.5083 64.9586 49.9677 64.9586 49.6975 64.9586Z" fill="white"/>
</g>
<defs>
<filter id="filter0_d_10_1540" x="11" y="26" width="80" height="42" filterUnits="userSpaceOnUse" color-interpolation-filters="sRGB">
<feFlood flood-opacity="0" result="BackgroundImageFix"/>
<feColorMatrix in="SourceAlpha" type="matrix" values="0 0 0 0 0 0 0 0 0 0 0 0 0 0 0 0 0 0 127 0" result="hardAlpha"/>
<feOffset dy="4"/>
<feGaussianBlur stdDeviation="4"/>
<feColorMatrix type="matrix" values="0 0 0 0 0 0 0 0 0 0 0 0 0 0 0 0 0 0 0.06 0"/>
<feBlend mode="normal" in2="BackgroundImageFix" result="effect1_dropShadow_10_1540"/>
<feBlend mode="normal" in="SourceGraphic" in2="effect1_dropShadow_10_1540" result="shape"/>
</filter>
<filter id="filter1_d_10_1540" x="33" y="47" width="36" height="36" filterUnits="userSpaceOnUse" color-interpolation-filters="sRGB">
<feFlood flood-opacity="0" result="BackgroundImageFix"/>
<feColorMatrix in="SourceAlpha" type="matrix" values="0 0 0 0 0 0 0 0 0 0 0 0 0 0 0 0 0 0 127 0" result="hardAlpha"/>
<feOffset dy="4"/>
<feGaussianBlur stdDeviation="4"/>
<feColorMatrix type="matrix" values="0 0 0 0 0 0 0 0 0 0 0 0 0 0 0 0 0 0 0.06 0"/>
<feBlend mode="normal" in2="BackgroundImageFix" result="effect1_dropShadow_10_1540"/>
<feBlend mode="normal" in="SourceGraphic" in2="effect1_dropShadow_10_1540" result="shape"/>
</filter>
<linearGradient id="paint0_linear_10_1540" x1="50.9988" y1="53.2976" x2="50.9988" y2="68.6999" gradientUnits="userSpaceOnUse">
<stop stop-color="#39B924"/>
<stop offset="1" stop-color="#39B924" stop-opacity="0"/>
</linearGradient>
<clipPath id="clip0_10_1540">
<rect width="20" height="20" fill="white" transform="translate(41 51)"/>
</clipPath>
</defs>
</svg>
