<svg width="128" height="31" fill="none" xmlns="http://www.w3.org/2000/svg"><rect y="13.5" width="4" height="4" rx="2" fill="#DBDCDB"/><rect x="9" y="13.5" width="4" height="4" rx="2" fill="#DBDCDB"/><rect x="18" y="13.5" width="4" height="4" rx="2" fill="#DBDCDB"/><rect x="27" y="13.5" width="4" height="4" rx="2" fill="#DBDCDB"/><rect x="36" y="13.5" width="4" height="4" rx="2" fill="#DBDCDB"/><rect x="45" y="13.5" width="4" height="4" rx="2" fill="#DBDCDB"/><path d="m60 1.5 7.84 13.34c.05.087.09.19.118.303a1.516 1.516 0 0 1 0 .714 1.123 1.123 0 0 1-.119.303L60 29.5" stroke="#DBDCDB" stroke-width="2" stroke-linecap="round" stroke-linejoin="round"/><rect x="79" y="13.5" width="4" height="4" rx="2" fill="#DBDCDB"/><rect x="88" y="13.5" width="4" height="4" rx="2" fill="#DBDCDB"/><rect x="97" y="13.5" width="4" height="4" rx="2" fill="#DBDCDB"/><rect x="106" y="13.5" width="4" height="4" rx="2" fill="#DBDCDB"/><rect x="115" y="13.5" width="4" height="4" rx="2" fill="#DBDCDB"/><rect x="124" y="13.5" width="4" height="4" rx="2" fill="#DBDCDB"/></svg>