<svg xmlns="http://www.w3.org/2000/svg" id="Layer_2" data-name="Layer 2" viewBox="0 0 141.73 141.73"><defs><style>.cls-1,.cls-2,.cls-3{stroke-width:0}.cls-2{fill:#e17000}.cls-3{fill:#fff}</style></defs><g id="Laag_1" data-name="Laag 1"><g><path d="M20,0h101.74c11.04,0,20,8.96,20,20v101.74c0,11.04-8.96,20-20,20H20c-11.04,0-20-8.96-20-20V20C0,8.96,8.96,0,20,0Z" class="cls-1"/><g><path d="M15.75,108.25v-33.49h9.6c11.33,0,17.61,5.67,17.61,15.78,0,12.1-6.84,17.72-17.82,17.72h-9.39ZM21.88,103.19h3.52c6.74,0,11.13-3.62,11.13-12.36,0-7.25-4.39-11.03-11.59-11.03h-3.06v23.38Z" class="cls-3"/><path d="M51.24,72.51c2.2,0,3.42,1.38,3.42,3.32,0,1.79-1.22,3.27-3.42,3.27s-3.37-1.33-3.37-3.27c0-1.79,1.17-3.32,3.37-3.32ZM54.15,108.25h-5.77v-25.12l5.77-.26v25.37Z" class="cls-3"/><path d="M68.13,103.34h6.02c5.41,0,7.71,2.14,7.71,6.23,0,4.8-3.98,8.68-13.17,8.68-7.2,0-10.52-2.55-10.52-6.48,0-2.4,1.33-4.39,3.83-5.46v-.15c-1.17-.61-1.99-1.89-1.99-3.37,0-1.58.97-3.06,2.81-3.78v-.15c-2.3-1.28-3.62-3.42-3.62-6.69,0-6.13,4.14-9.45,10.52-9.45,1.38,0,2.6.15,3.88.51h8.17v3.83h-3.88v.15c1.07.82,1.99,2.55,1.99,4.75,0,5.57-3.78,8.48-10.72,8.48-1.12,0-2.2-.15-3.17-.41-.66.36-1.07.97-1.07,1.58,0,1.12.87,1.74,3.22,1.74ZM69.21,113.96c5.51,0,7.51-1.38,7.51-3.37,0-1.48-.92-2.3-3.42-2.35l-8.37-.25c-.97.66-1.38,1.48-1.38,2.65,0,1.99,1.74,3.32,5.67,3.32ZM74.52,91.5c0-3.06-1.69-4.7-4.9-4.7-2.86,0-4.9,1.63-4.9,5.05s1.84,4.65,4.8,4.65c3.17,0,5-1.48,5-5Z" class="cls-3"/><path d="M88.56,72.51c2.2,0,3.42,1.38,3.42,3.32,0,1.79-1.22,3.27-3.42,3.27s-3.37-1.33-3.37-3.27c0-1.79,1.17-3.32,3.37-3.32ZM91.47,108.25h-5.77v-25.12l5.77-.26v25.37Z" class="cls-2"/><path d="M98.77,108.25v-33.49h9.6c11.34,0,17.62,5.67,17.62,15.78,0,12.1-6.84,17.72-17.82,17.72h-9.39ZM104.89,103.19h3.52c6.74,0,11.13-3.62,11.13-12.36,0-7.25-4.39-11.03-11.59-11.03h-3.06v23.38Z" class="cls-2"/></g></g></g></svg>