<svg width="46" height="46" fill="none" xmlns="http://www.w3.org/2000/svg"><path d="M23 46c12.703 0 23-10.297 23-23S35.703 0 23 0 0 10.297 0 23s10.297 23 23 23Z" fill="#C9CED6"/><path d="M43.43 10.798v22.777a22.979 22.979 0 0 1-2.8 4.196H5.37a22.956 22.956 0 0 1-2.8-4.198V10.798A2.567 2.567 0 0 1 5.136 8.23h35.728a2.567 2.567 0 0 1 2.566 2.568Z" fill="#fff"/><path opacity=".4" d="M23 26.759 38.779 37.77l1.706-4.419.388-20.469L23.194 23.97 23 26.759Z" fill="#CFD8DC"/><path d="M43.43 10.798v22.777a22.979 22.979 0 0 1-2.8 4.196h-1.852V15.746L23 26.759 7.222 15.746V37.77H5.37a22.956 22.956 0 0 1-2.8-4.197V10.798A2.567 2.567 0 0 1 5.136 8.23h.26L23 20.517 40.604 8.23h.26a2.567 2.567 0 0 1 2.566 2.568Z" fill="#757F94"/></svg>