<svg width="46" height="46" fill="none" xmlns="http://www.w3.org/2000/svg"><path fill-rule="evenodd" clip-rule="evenodd" d="M23 3C10.298 3 0 13.101 0 25.561c0 6.25 2.59 11.905 6.774 15.99.27.26.728.2.912-.126 1.96-3.474 5.397-6.191 9.59-7.513-2.736-1.809-4.535-4.875-4.535-8.352 0-5.56 4.593-10.063 10.259-10.063S33.259 20 33.259 25.56c0 3.477-1.8 6.543-4.535 8.352 4.193 1.322 7.63 4.039 9.59 7.513a.585.585 0 0 0 .91.125C43.408 37.466 46 31.81 46 25.561 46 13.101 35.702 3 23 3Z" fill="#315EFD"/></svg>