<svg width="128" height="31" viewBox="0 0 128 31" fill="none" xmlns="http://www.w3.org/2000/svg">
<rect y="13.5" width="4" height="4" rx="2" fill="#DBDCDB"/>
<rect x="9" y="13.5" width="4" height="4" rx="2" fill="#DBDCDB"/>
<rect x="18" y="13.5" width="4" height="4" rx="2" fill="#DBDCDB"/>
<rect x="27" y="13.5" width="4" height="4" rx="2" fill="#DBDCDB"/>
<rect x="36" y="13.5" width="4" height="4" rx="2" fill="#DBDCDB"/>
<rect x="45" y="13.5" width="4" height="4" rx="2" fill="#DBDCDB"/>
<path d="M60 1.5L67.8393 14.8404C67.8902 14.927 67.9307 15.0298 67.9582 15.143C67.9858 15.2562 68 15.3775 68 15.5C68 15.6225 67.9858 15.7438 67.9582 15.857C67.9307 15.9702 67.8902 16.073 67.8393 16.1596L60 29.5" stroke="#DBDCDB" stroke-width="2" stroke-linecap="round" stroke-linejoin="round"/>
<rect x="79" y="13.5" width="4" height="4" rx="2" fill="#DBDCDB"/>
<rect x="88" y="13.5" width="4" height="4" rx="2" fill="#DBDCDB"/>
<rect x="97" y="13.5" width="4" height="4" rx="2" fill="#DBDCDB"/>
<rect x="106" y="13.5" width="4" height="4" rx="2" fill="#DBDCDB"/>
<rect x="115" y="13.5" width="4" height="4" rx="2" fill="#DBDCDB"/>
<rect x="124" y="13.5" width="4" height="4" rx="2" fill="#DBDCDB"/>
</svg>
