<svg width="46" height="46" fill="none" xmlns="http://www.w3.org/2000/svg"><g clip-path="url(#a)"><mask id="b" style="mask-type:alpha" maskUnits="userSpaceOnUse" x="0" y="0" width="46" height="47"><path d="M.02 6.087a6 6 0 0 1 6-6h33.893a6 6 0 0 1 6 6V40a6 6 0 0 1-6 6H6.02a6 6 0 0 1-6-6V6.087Z" fill="#fff"/></mask><g mask="url(#b)"><path fill-rule="evenodd" clip-rule="evenodd" d="M45.914 39.522c0 3.563-2.915 6.478-6.478 6.478H6.478C2.916 46 0 43.085 0 39.522V6.565C0 3.002 2.916.087 6.478.087h32.958c3.563 0 6.478 2.915 6.478 6.478v32.957Z" fill="#010000"/></g><path fill-rule="evenodd" clip-rule="evenodd" d="M7.088 32.374c0 .63.51 1.141 1.141 1.141 2.183 0 3.606-1.174 3.606-4.002 0-2.349-1.423-3.573-3.755-3.573a.992.992 0 0 0-.992.993v5.44Zm1.058 2.779a3.043 3.043 0 0 1-3.043-3.043v-4.697a3.11 3.11 0 0 1 3.11-3.11c3.671 0 5.706 1.836 5.706 5.11 0 3.92-2.217 5.74-5.773 5.74ZM17.54 34.218a.934.934 0 1 1-1.869 0V27.91a.934.934 0 1 1 1.87 0v6.31Zm-.943-10.643c.712 0 1.108.447 1.108 1.075 0 .58-.396 1.059-1.108 1.059-.71 0-1.091-.43-1.091-1.059 0-.578.38-1.075 1.091-1.075ZM24.14 29.728c0-.992-.547-1.522-1.589-1.522-.926 0-1.587.53-1.587 1.638 0 1.058.595 1.505 1.554 1.505 1.026 0 1.621-.48 1.621-1.621Zm-1.72 7.277c1.785 0 2.43-.446 2.43-1.091 0-.48-.297-.745-1.108-.761l-1.697-.052c-.66-.02-1.462.17-1.462.83 0 .644.563 1.074 1.836 1.074Zm-.348-3.44h1.952c1.753 0 2.497.695 2.497 2.018 0 1.555-1.29 2.811-4.267 2.811-2.332 0-3.407-.827-3.407-2.1 0-.77.421-1.41 1.216-1.76a.04.04 0 0 0 .024-.036.04.04 0 0 0-.021-.035 1.227 1.227 0 0 1-.624-1.08c0-.506.306-.979.885-1.214a.04.04 0 0 0 .025-.036.04.04 0 0 0-.02-.035c-.732-.415-1.155-1.106-1.155-2.155 0-1.985 1.34-3.06 3.408-3.06.333 0 .64.028.945.09.208.043.419.076.632.076h1.706a.62.62 0 0 1 0 1.24h-.604a.033.033 0 0 0-.02.06c.342.268.632.825.632 1.528 0 1.802-1.224 2.745-3.473 2.745-.132 0-.261-.006-.388-.018-.415-.04-.985-.019-.985.398 0 .364.28.563 1.042.563Z" fill="#FFFFFE"/><path fill-rule="evenodd" clip-rule="evenodd" d="M29.63 34.218a.934.934 0 0 1-1.869 0V27.91a.934.934 0 1 1 1.869 0v6.31Zm-.943-10.643c.712 0 1.108.447 1.108 1.075 0 .58-.396 1.059-1.108 1.059-.71 0-1.091-.43-1.091-1.059 0-.578.38-1.075 1.091-1.075ZM33.98 32.374c0 .63.51 1.141 1.141 1.141 2.183 0 3.605-1.174 3.605-4.002 0-2.349-1.422-3.573-3.754-3.573a.992.992 0 0 0-.992.993v5.44Zm1.059 2.779a3.043 3.043 0 0 1-3.044-3.044v-4.697a3.11 3.11 0 0 1 3.11-3.109c3.672 0 5.706 1.836 5.706 5.11 0 3.92-2.217 5.74-5.772 5.74Z" fill="#D66E2C"/></g><defs><clipPath id="a"><path fill="#fff" d="M0 0h46v46H0z"/></clipPath></defs></svg>