<svg width="102" height="102" fill="none" xmlns="http://www.w3.org/2000/svg"><rect x="1" y="1" width="100" height="100" rx="50" fill="#fff"/><rect x="1" y="1" width="100" height="100" rx="50" stroke="#E5E5E5"/><g filter="url(#a)"><rect x="20" y="31" width="62" height="23" rx="4" fill="#fff"/><rect x="20" y="31" width="62" height="23" rx="4" stroke="#929EBA" stroke-width="2"/><path d="M52.683 42.25h-3.365c-.456 0-.825.336-.825.75s.37.75.825.75h3.365c.455 0 .825-.336.825-.75s-.37-.75-.825-.75Z" fill="#929EBA"/><path d="m31.497 41.562-.689.242v-.784c0-.563-.422-1.02-.942-1.02s-.943.457-.943 1.02v.784l-.689-.242c-.495-.174-1.027.119-1.188.655-.16.536.11 1.112.606 1.286l.688.242-.425.635c-.306.456-.213 1.094.208 1.425a.891.891 0 0 0 .554.195.92.92 0 0 0 .763-.42l.426-.635.425.634a.92.92 0 0 0 .764.421.89.89 0 0 0 .553-.195c.421-.331.515-.97.209-1.425l-.426-.635.689-.242c.495-.174.766-.75.605-1.286-.161-.536-.693-.829-1.188-.655ZM38.661 41.562l-.688.242v-.784c0-.563-.423-1.02-.943-1.02s-.943.457-.943 1.02v.784l-.689-.242c-.494-.174-1.027.119-1.188.655-.16.536.11 1.112.606 1.286l.688.242-.425.635c-.306.456-.213 1.094.208 1.425a.891.891 0 0 0 .554.195.92.92 0 0 0 .763-.42l.426-.635.425.634a.92.92 0 0 0 .764.421.891.891 0 0 0 .553-.195c.422-.331.515-.97.209-1.425l-.426-.635.689-.242c.495-.174.766-.75.605-1.286-.16-.536-.693-.829-1.188-.655ZM47.013 42.217c-.16-.536-.692-.829-1.188-.655l-.688.242v-.784c0-.563-.422-1.02-.943-1.02-.52 0-.943.457-.943 1.02v.784l-.688-.242c-.495-.174-1.027.119-1.188.655-.161.536.11 1.112.605 1.286l.689.242-.426.635c-.306.456-.213 1.094.209 1.425a.891.891 0 0 0 .553.195.92.92 0 0 0 .763-.42l.426-.635.426.634a.92.92 0 0 0 .763.421.89.89 0 0 0 .553-.195c.422-.331.515-.97.21-1.425l-.427-.635.69-.242c.494-.174.765-.75.604-1.286ZM59.437 41.562l-.688.242v-.784c0-.563-.422-1.02-.943-1.02-.52 0-.943.457-.943 1.02v.784l-.688-.242c-.495-.174-1.027.119-1.188.655-.161.536.11 1.112.605 1.286l.689.242-.426.635c-.306.456-.213 1.094.209 1.425a.891.891 0 0 0 .553.195.92.92 0 0 0 .763-.42l.426-.635.426.634a.92.92 0 0 0 .763.421.891.891 0 0 0 .553-.195c.422-.331.515-.97.209-1.425l-.426-.635.689-.242c.495-.174.766-.75.605-1.286-.16-.536-.692-.829-1.188-.655ZM66.602 41.562l-.69.242v-.784c0-.563-.421-1.02-.942-1.02-.52 0-.943.457-.943 1.02v.784l-.688-.242c-.495-.174-1.027.119-1.188.655-.161.536.11 1.112.605 1.286l.689.242-.426.635c-.306.456-.212 1.094.209 1.425a.891.891 0 0 0 .553.195.92.92 0 0 0 .764-.42l.425-.635.426.634a.92.92 0 0 0 .763.421.891.891 0 0 0 .554-.195c.42-.331.514-.97.208-1.425l-.425-.635.688-.242c.495-.174.766-.75.606-1.286-.162-.536-.693-.829-1.189-.655ZM74.954 42.217c-.161-.536-.693-.829-1.188-.655l-.689.242v-.784c0-.563-.422-1.02-.943-1.02-.52 0-.942.457-.942 1.02v.784l-.689-.242c-.495-.174-1.027.119-1.188.655-.16.536.11 1.112.605 1.286l.689.242-.426.635c-.306.456-.212 1.094.209 1.425a.891.891 0 0 0 .553.195.92.92 0 0 0 .764-.42l.425-.635.426.634a.92.92 0 0 0 .763.421.89.89 0 0 0 .554-.195c.421-.331.514-.97.208-1.425l-.425-.635.688-.242c.496-.174.767-.75.606-1.286Z" fill="#282B39"/></g><path d="m61.488 52.322 1.124-2.513a1.964 1.964 0 0 1 2.591-.938 1.96 1.96 0 0 1 .977 2.573l-1.135 2.57a6.267 6.267 0 0 0-.154 4.685l.028.078-2.801-2.799a3.212 3.212 0 0 1-.63-3.656Z" fill="#F7D3CA"/><path d="M65.21 58.317 54.445 47.564a1.93 1.93 0 0 0-2.726 0 1.923 1.923 0 0 0 0 2.722l5.96 5.953a1.93 1.93 0 0 0-2.663.06 1.923 1.923 0 0 0 0 2.722 1.93 1.93 0 0 0-2.727 0 1.923 1.923 0 0 0-.04 2.681 1.929 1.929 0 0 0-2.683.04 1.923 1.923 0 0 0 0 2.722l4.754 4.749a6.114 6.114 0 0 0 8.656-.017l2.253-2.267a6.096 6.096 0 0 0-.017-8.612Z" fill="#F9E0DA"/><defs><filter id="a" x="11" y="26" width="80" height="41" filterUnits="userSpaceOnUse" color-interpolation-filters="sRGB"><feFlood flood-opacity="0" result="BackgroundImageFix"/><feColorMatrix in="SourceAlpha" values="0 0 0 0 0 0 0 0 0 0 0 0 0 0 0 0 0 0 127 0" result="hardAlpha"/><feOffset dy="4"/><feGaussianBlur stdDeviation="4"/><feColorMatrix values="0 0 0 0 0 0 0 0 0 0 0 0 0 0 0 0 0 0 0.06 0"/><feBlend in2="BackgroundImageFix" result="effect1_dropShadow_10_1631"/><feBlend in="SourceGraphic" in2="effect1_dropShadow_10_1631" result="shape"/></filter></defs></svg>