<svg width="102" height="102" viewBox="0 0 102 102" fill="none" xmlns="http://www.w3.org/2000/svg">
<rect x="1" y="1" width="100" height="100" rx="50" fill="#315EFD"/>
<rect x="1" y="1" width="100" height="100" rx="50" stroke="#315EFD" stroke-width="2"/>
<g filter="url(#filter0_d_10_1612)">
<rect x="20" y="31" width="62" height="24" rx="4" fill="white"/>
<path d="M33.1626 46.5977H30.962L29.5361 43.8682L28.9588 44.21V46.5977H27V39.459H28.9588V42.5596C29.0575 42.3675 29.2565 42.0632 29.5558 41.6465L31.0706 39.459H33.2021L30.9275 42.6572L33.1626 46.5977Z" fill="#315EFD"/>
<path d="M39.1723 43.8193C39.1723 44.7243 38.9256 45.4307 38.4322 45.9385C37.9421 46.443 37.2546 46.6953 36.3697 46.6953C35.5211 46.6953 34.8451 46.4365 34.3419 45.9189C33.8419 45.4014 33.5919 44.7015 33.5919 43.8193C33.5919 42.9176 33.8369 42.2178 34.327 41.7197C34.8205 41.2184 35.5112 40.9678 36.3993 40.9678C36.9487 40.9678 37.4338 41.0833 37.8549 41.3145C38.2759 41.5456 38.5999 41.8776 38.8269 42.3105C39.0571 42.7402 39.1723 43.2432 39.1723 43.8193ZM35.5507 43.8193C35.5507 44.2946 35.6148 44.6576 35.7431 44.9082C35.8714 45.1556 36.0869 45.2793 36.3895 45.2793C36.6888 45.2793 36.8993 45.1556 37.021 44.9082C37.146 44.6576 37.2085 44.2946 37.2085 43.8193C37.2085 43.3473 37.146 42.9909 37.021 42.75C36.896 42.5091 36.6822 42.3887 36.3796 42.3887C36.0836 42.3887 35.8714 42.5091 35.7431 42.75C35.6148 42.9876 35.5507 43.3441 35.5507 43.8193Z" fill="#315EFD"/>
<path d="M43.6326 46.6953C43.3498 46.6953 43.0965 46.6497 42.8728 46.5586C42.6491 46.4642 42.4271 46.2965 42.2067 46.0557H42.1179C42.1771 46.443 42.2067 46.6839 42.2067 46.7783V49H40.2775V41.0654H41.8465L42.1179 41.7686H42.2067C42.5653 41.2347 43.0603 40.9678 43.6919 40.9678C44.3103 40.9678 44.7954 41.2217 45.1474 41.7295C45.4994 42.2373 45.6753 42.9339 45.6753 43.8193C45.6753 44.7113 45.4911 45.4144 45.1227 45.9287C44.7576 46.4398 44.2609 46.6953 43.6326 46.6953ZM42.9863 42.4668C42.7034 42.4668 42.5044 42.5677 42.3893 42.7695C42.2774 42.9681 42.2166 43.2643 42.2067 43.6582V43.8096C42.2067 44.2848 42.2709 44.6283 42.3991 44.8398C42.5274 45.0514 42.7297 45.1572 43.006 45.1572C43.2527 45.1572 43.432 45.0531 43.5438 44.8447C43.6557 44.6331 43.7116 44.2848 43.7116 43.7998C43.7116 43.3245 43.6557 42.9844 43.5438 42.7793C43.432 42.571 43.2461 42.4668 42.9863 42.4668Z" fill="#315EFD"/>
<path d="M50.1357 46.6953C49.8528 46.6953 49.5995 46.6497 49.3759 46.5586C49.1522 46.4642 48.9302 46.2965 48.7098 46.0557H48.621C48.6802 46.443 48.7098 46.6839 48.7098 46.7783V49H46.7806V41.0654H48.3496L48.621 41.7686H48.7098C49.0683 41.2347 49.5634 40.9678 50.1949 40.9678C50.8133 40.9678 51.2985 41.2217 51.6505 41.7295C52.0024 42.2373 52.1784 42.9339 52.1784 43.8193C52.1784 44.7113 51.9942 45.4144 51.6258 45.9287C51.2607 46.4398 50.764 46.6953 50.1357 46.6953ZM49.4894 42.4668C49.2065 42.4668 49.0075 42.5677 48.8923 42.7695C48.7805 42.9681 48.7196 43.2643 48.7098 43.6582V43.8096C48.7098 44.2848 48.7739 44.6283 48.9022 44.8398C49.0305 45.0514 49.2328 45.1572 49.5091 45.1572C49.7558 45.1572 49.9351 45.0531 50.0469 44.8447C50.1587 44.6331 50.2147 44.2848 50.2147 43.7998C50.2147 43.3245 50.1587 42.9844 50.0469 42.7793C49.9351 42.571 49.7492 42.4668 49.4894 42.4668Z" fill="#315EFD"/>
<path d="M55.9825 46.6953C55.0517 46.6953 54.328 46.4512 53.8116 45.9629C53.2984 45.4714 53.0419 44.7731 53.0419 43.8682C53.0419 42.9339 53.2803 42.2178 53.7573 41.7197C54.2343 41.2184 54.9152 40.9678 55.8 40.9678C56.6421 40.9678 57.2917 41.1859 57.7489 41.6221C58.2094 42.055 58.4397 42.68 58.4397 43.4971V44.3467H54.9908C55.004 44.6559 55.1174 44.8984 55.3313 45.0742C55.5484 45.25 55.8428 45.3379 56.2144 45.3379C56.5533 45.3379 56.8641 45.307 57.147 45.2451C57.4332 45.18 57.7424 45.071 58.0746 44.918V46.29C57.772 46.443 57.4595 46.5488 57.1371 46.6074C56.8148 46.666 56.4299 46.6953 55.9825 46.6953ZM55.8691 42.2666C55.6421 42.2666 55.4513 42.3382 55.2967 42.4814C55.1454 42.6214 55.0566 42.8428 55.0303 43.1455H56.6881C56.6815 42.8786 56.6042 42.6654 56.4562 42.5059C56.3115 42.3464 56.1158 42.2666 55.8691 42.2666Z" fill="#315EFD"/>
<path d="M61.4593 46.5977H59.5301V39H61.4593V46.5977Z" fill="#315EFD"/>
<path d="M65.4954 46.6953C64.5645 46.6953 63.8408 46.4512 63.3244 45.9629C62.8113 45.4714 62.5547 44.7731 62.5547 43.8682C62.5547 42.9339 62.7932 42.2178 63.2701 41.7197C63.7471 41.2184 64.428 40.9678 65.3128 40.9678C66.1549 40.9678 66.8045 41.1859 67.2618 41.6221C67.7223 42.055 67.9525 42.68 67.9525 43.4971V44.3467H64.5036C64.5168 44.6559 64.6303 44.8984 64.8441 45.0742C65.0612 45.25 65.3556 45.3379 65.7273 45.3379C66.0661 45.3379 66.3769 45.307 66.6598 45.2451C66.946 45.18 67.2552 45.071 67.5874 44.918V46.29C67.2848 46.443 66.9723 46.5488 66.6499 46.6074C66.3276 46.666 65.9427 46.6953 65.4954 46.6953ZM65.3819 42.2666C65.1549 42.2666 64.9641 42.3382 64.8095 42.4814C64.6582 42.6214 64.5694 42.8428 64.5431 43.1455H66.2009C66.1944 42.8786 66.1171 42.6654 65.969 42.5059C65.8243 42.3464 65.6286 42.2666 65.3819 42.2666Z" fill="#315EFD"/>
<path d="M72.5708 46.5977V43.5801C72.5708 43.2122 72.5165 42.9355 72.408 42.75C72.3027 42.5612 72.1317 42.4668 71.8948 42.4668C71.5692 42.4668 71.334 42.5954 71.1893 42.8525C71.0445 43.1097 70.9722 43.5508 70.9722 44.1758V46.5977H69.043V41.0654H70.4985L70.7403 41.749H70.8537C71.0182 41.4886 71.2452 41.2933 71.5346 41.1631C71.8274 41.0329 72.1629 40.9678 72.5412 40.9678C73.1596 40.9678 73.6398 41.1452 73.9819 41.5C74.3273 41.8548 74.5 42.3545 74.5 42.999V46.5977H72.5708Z" fill="#315EFD"/>
</g>
<g clip-path="url(#clip0_10_1612)" filter="url(#filter1_d_10_1612)">
<path fill-rule="evenodd" clip-rule="evenodd" d="M50.9787 71C49.1306 71 47.5134 70.5402 45.8963 69.6207C41.2759 66.8621 39.6588 60.8851 42.2 56.0575C44.0481 53.069 47.2824 51 50.9787 51C52.5959 51 54.444 51.4598 55.8302 52.3793C58.1404 53.7586 59.9885 55.8276 60.6816 58.3563C61.3746 61.1149 60.9126 63.6437 59.5265 65.9425C57.9093 68.931 54.444 71 50.9787 71Z" fill="#7DC97E"/>
<path fill-rule="evenodd" clip-rule="evenodd" d="M50.9824 68.6999C49.5591 68.6999 48.3138 68.3458 47.0684 67.6377C43.5101 65.5132 42.2648 60.9102 44.2218 57.1924C45.6451 54.8909 48.1359 53.2976 50.9824 53.2976C52.2278 53.2976 53.6511 53.6517 54.7186 54.3598C56.4977 55.4221 57.921 57.0154 58.4547 58.9628C58.9885 61.0873 58.6327 63.0347 57.5652 64.8051C56.3198 67.1066 53.6511 68.6999 50.9824 68.6999Z" fill="url(#paint0_linear_10_1612)"/>
<path fill-rule="evenodd" clip-rule="evenodd" d="M49.6975 64.9586C49.1569 64.9586 48.8867 64.9586 48.6164 64.6901L46.4542 62.5421C45.9137 62.0051 45.9137 60.9311 46.4542 60.1256C46.9948 59.5886 48.0759 59.5886 48.6164 60.1256L49.6975 61.1996L53.211 57.4406C54.0218 56.9036 54.8326 56.9036 55.6434 57.4406C56.184 58.2461 56.184 59.3201 55.6434 59.8571L50.7786 64.6901C50.5083 64.9586 49.9677 64.9586 49.6975 64.9586Z" fill="white"/>
</g>
<defs>
<filter id="filter0_d_10_1612" x="12" y="27" width="78" height="40" filterUnits="userSpaceOnUse" color-interpolation-filters="sRGB">
<feFlood flood-opacity="0" result="BackgroundImageFix"/>
<feColorMatrix in="SourceAlpha" type="matrix" values="0 0 0 0 0 0 0 0 0 0 0 0 0 0 0 0 0 0 127 0" result="hardAlpha"/>
<feOffset dy="4"/>
<feGaussianBlur stdDeviation="4"/>
<feColorMatrix type="matrix" values="0 0 0 0 0 0 0 0 0 0 0 0 0 0 0 0 0 0 0.06 0"/>
<feBlend mode="normal" in2="BackgroundImageFix" result="effect1_dropShadow_10_1612"/>
<feBlend mode="normal" in="SourceGraphic" in2="effect1_dropShadow_10_1612" result="shape"/>
</filter>
<filter id="filter1_d_10_1612" x="33" y="47" width="36" height="36" filterUnits="userSpaceOnUse" color-interpolation-filters="sRGB">
<feFlood flood-opacity="0" result="BackgroundImageFix"/>
<feColorMatrix in="SourceAlpha" type="matrix" values="0 0 0 0 0 0 0 0 0 0 0 0 0 0 0 0 0 0 127 0" result="hardAlpha"/>
<feOffset dy="4"/>
<feGaussianBlur stdDeviation="4"/>
<feColorMatrix type="matrix" values="0 0 0 0 0 0 0 0 0 0 0 0 0 0 0 0 0 0 0.06 0"/>
<feBlend mode="normal" in2="BackgroundImageFix" result="effect1_dropShadow_10_1612"/>
<feBlend mode="normal" in="SourceGraphic" in2="effect1_dropShadow_10_1612" result="shape"/>
</filter>
<linearGradient id="paint0_linear_10_1612" x1="50.9988" y1="53.2976" x2="50.9988" y2="68.6999" gradientUnits="userSpaceOnUse">
<stop stop-color="#39B924"/>
<stop offset="1" stop-color="#39B924" stop-opacity="0"/>
</linearGradient>
<clipPath id="clip0_10_1612">
<rect width="20" height="20" fill="white" transform="translate(41 51)"/>
</clipPath>
</defs>
</svg>
