<svg width="102" height="102" fill="none" xmlns="http://www.w3.org/2000/svg"><rect x="1" y="1" width="100" height="100" rx="50" fill="#fff"/><rect x="1" y="1" width="100" height="100" rx="50" stroke="#E5E5E5"/><g filter="url(#a)"><rect x="20" y="31" width="62" height="24" rx="4" fill="#fff"/><rect x="20" y="31" width="62" height="24" rx="4" stroke="#315EFD" stroke-width="2"/><path d="M33.163 46.598h-2.201l-1.426-2.73-.577.342v2.388H27v-7.139h1.959v3.1c.099-.191.297-.496.597-.912l1.515-2.188h2.131l-2.274 3.198 2.235 3.94ZM39.172 43.82c0 .904-.246 1.61-.74 2.118-.49.505-1.177.757-2.062.757-.849 0-1.525-.258-2.028-.776-.5-.518-.75-1.217-.75-2.1 0-.901.245-1.601.735-2.1.494-.5 1.184-.751 2.072-.751.55 0 1.035.115 1.456.346.42.232.745.564.972.996.23.43.345.933.345 1.51Zm-3.621 0c0 .475.064.838.192 1.088.128.248.344.371.646.371.3 0 .51-.123.632-.37.125-.251.188-.614.188-1.09 0-.472-.063-.828-.188-1.069-.125-.24-.339-.361-.641-.361-.296 0-.509.12-.637.361-.128.238-.192.594-.192 1.07ZM43.633 46.695a2 2 0 0 1-.76-.136c-.224-.095-.446-.262-.666-.503h-.09c.06.387.09.628.09.722V49h-1.93v-7.935h1.57l.27.704h.09c.358-.534.853-.801 1.485-.801.618 0 1.103.254 1.455.761.352.508.528 1.205.528 2.09 0 .892-.184 1.595-.552 2.11-.365.51-.862.766-1.49.766Zm-.647-4.228c-.283 0-.482.1-.597.303-.112.198-.172.494-.182.888v.152c0 .475.064.818.192 1.03.128.211.33.317.607.317a.566.566 0 0 0 .538-.312c.112-.212.168-.56.168-1.045 0-.475-.056-.816-.168-1.02-.112-.209-.298-.313-.558-.313ZM50.136 46.695c-.283 0-.537-.045-.76-.136-.224-.095-.446-.262-.666-.503h-.089c.06.387.089.628.089.722V49h-1.93v-7.935h1.57l.271.704h.089c.358-.534.853-.801 1.485-.801.618 0 1.103.254 1.456.761.351.508.527 1.205.527 2.09 0 .892-.184 1.595-.552 2.11-.365.51-.862.766-1.49.766Zm-.647-4.228c-.282 0-.481.1-.597.303-.111.198-.172.494-.182.888v.152c0 .475.064.818.192 1.03.129.211.33.317.607.317a.566.566 0 0 0 .538-.312c.112-.212.168-.56.168-1.045 0-.475-.056-.816-.168-1.02-.112-.209-.298-.313-.558-.313ZM55.983 46.695c-.931 0-1.655-.244-2.171-.732-.514-.492-.77-1.19-.77-2.095 0-.934.238-1.65.715-2.148.477-.502 1.158-.752 2.043-.752.842 0 1.492.218 1.949.654.46.433.69 1.058.69 1.875v.85h-3.448c.013.309.126.551.34.727.217.176.512.264.883.264.34 0 .65-.031.933-.093.286-.065.595-.174.928-.327v1.372a3.428 3.428 0 0 1-.938.317 6.553 6.553 0 0 1-1.154.088Zm-.114-4.428a.81.81 0 0 0-.572.214c-.152.14-.24.362-.267.664h1.658c-.007-.266-.084-.48-.232-.64-.145-.159-.34-.238-.587-.238ZM61.46 46.598h-1.93V39h1.93v7.598ZM65.495 46.695c-.93 0-1.654-.244-2.17-.732-.514-.492-.77-1.19-.77-2.095 0-.934.238-1.65.715-2.148.477-.502 1.158-.752 2.043-.752.842 0 1.492.218 1.949.654.46.433.69 1.058.69 1.875v.85h-3.448c.013.309.126.551.34.727.217.176.512.264.883.264.34 0 .65-.031.933-.093.286-.065.595-.174.927-.327v1.372a3.428 3.428 0 0 1-.937.317 6.552 6.552 0 0 1-1.155.088Zm-.113-4.428a.81.81 0 0 0-.573.214c-.15.14-.24.362-.266.664h1.658c-.007-.266-.084-.48-.232-.64-.145-.159-.34-.238-.587-.238ZM72.57 46.598V43.58c0-.368-.053-.645-.162-.83-.105-.189-.276-.283-.513-.283-.326 0-.561.128-.706.386-.144.257-.217.698-.217 1.323v2.422h-1.929v-5.533h1.456l.241.684h.114c.164-.26.391-.456.68-.586.293-.13.629-.195 1.007-.195.619 0 1.099.177 1.44.532.346.355.519.855.519 1.499v3.599h-1.93Z" fill="#315EFD"/></g><path d="m61.488 52.322 1.124-2.513a1.964 1.964 0 0 1 2.591-.938 1.96 1.96 0 0 1 .977 2.573l-1.135 2.57a6.267 6.267 0 0 0-.154 4.685l.028.078-2.801-2.799a3.212 3.212 0 0 1-.63-3.656Z" fill="#F7D3CA"/><path d="M65.21 58.317 54.445 47.564a1.93 1.93 0 0 0-2.726 0 1.923 1.923 0 0 0 0 2.722l5.96 5.953a1.93 1.93 0 0 0-2.663.06 1.923 1.923 0 0 0 0 2.722 1.93 1.93 0 0 0-2.727 0 1.923 1.923 0 0 0-.04 2.681 1.929 1.929 0 0 0-2.683.04 1.923 1.923 0 0 0 0 2.722l4.754 4.749a6.114 6.114 0 0 0 8.656-.017l2.253-2.267a6.096 6.096 0 0 0-.017-8.612Z" fill="#F9E0DA"/><defs><filter id="a" x="11" y="26" width="80" height="42" filterUnits="userSpaceOnUse" color-interpolation-filters="sRGB"><feFlood flood-opacity="0" result="BackgroundImageFix"/><feColorMatrix in="SourceAlpha" values="0 0 0 0 0 0 0 0 0 0 0 0 0 0 0 0 0 0 127 0" result="hardAlpha"/><feOffset dy="4"/><feGaussianBlur stdDeviation="4"/><feColorMatrix values="0 0 0 0 0 0 0 0 0 0 0 0 0 0 0 0 0 0 0.06 0"/><feBlend in2="BackgroundImageFix" result="effect1_dropShadow_10_1580"/><feBlend in="SourceGraphic" in2="effect1_dropShadow_10_1580" result="shape"/></filter></defs></svg>