<svg width="59" height="58" fill="none" xmlns="http://www.w3.org/2000/svg"><rect x=".75" width="58" height="58" rx="8" fill="#F7F9FC"/><path d="M43.849 13.577A1.335 1.335 0 0 0 42.75 13H28.417c-2.206 0-4 1.795-4 4v1.039l.161.133 5.333 5.333a3.97 3.97 0 0 1 1.172 2.828 3.97 3.97 0 0 1-1.172 2.828l-5.333 5.334-.161.133V37c0 2.205 1.794 4 4 4h4.666c.554 0 1.05-.341 1.246-.857l9.666-25.334c.158-.41.102-.872-.146-1.232Z" fill="#305DFC"/><path d="M21.24 32.899a1.335 1.335 0 0 1-.823-1.232v-4h-5.334a1.334 1.334 0 0 1 0-2.667h5.334v-4a1.333 1.333 0 0 1 2.276-.943l5.333 5.334a1.332 1.332 0 0 1 0 1.885l-5.333 5.333a1.333 1.333 0 0 1-1.454.29Z" fill="#092DAA"/><path d="m42.234 13.132-8.01 2.67a2.68 2.68 0 0 0-1.807 2.531v24A2.67 2.67 0 0 0 35.083 45c.286 0 .556-.041.85-.132l8.01-2.67a2.68 2.68 0 0 0 1.807-2.531v-24c0-1.756-1.708-3.091-3.516-2.535Z" fill="#9CB8F8"/></svg>