<svg width="59" height="58" viewBox="0 0 59 58" fill="none" xmlns="http://www.w3.org/2000/svg">
    <rect x="0.25" width="58" height="58" rx="8" fill="#F7F9FC"/>
    <path d="M34.8361 19.8267H13.9213C13.5506 19.8267 13.25 19.5262 13.25 19.1555V13.6712C13.25 13.3005 13.5505 13 13.9213 13H34.8361C35.2068 13 35.5074 13.3005 35.5074 13.6712V19.1555C35.5073 19.5262 35.2068 19.8267 34.8361 19.8267Z" fill="#092DAA"/>
    <path d="M39.789 32.4463H18.8741C18.5034 32.4463 18.2029 32.1458 18.2029 31.7751V26.2907C18.2029 25.9201 18.5034 25.6196 18.8741 25.6196H39.789C40.1597 25.6196 40.4603 25.92 40.4603 26.2907V31.7751C40.4602 32.1457 40.1597 32.4463 39.789 32.4463Z" fill="#305DFC"/>
    <path d="M44.5788 45H23.6639C23.2932 45 22.9927 44.6995 22.9927 44.3288V38.8444C22.9927 38.4737 23.2932 38.1733 23.6639 38.1733H44.5788C44.9495 38.1733 45.25 38.4737 45.25 38.8444V44.3288C45.25 44.6995 44.9495 45 44.5788 45Z" fill="#708689"/>
    <path d="M22.9641 26.453L21.724 24.9192C21.6183 24.7884 21.7114 24.5934 21.8797 24.5934H24.3598C24.5281 24.5934 24.6212 24.7884 24.5155 24.9192L23.2754 26.453C23.1952 26.5521 23.0442 26.5521 22.9641 26.453Z" fill="#2E3242"/>
    <path d="M23.1198 25.6266C22.8529 25.6266 22.6365 25.4102 22.6365 25.1433V19.8267C22.6365 19.5598 22.8529 19.3434 23.1198 19.3434C23.3867 19.3434 23.6031 19.5598 23.6031 19.8267V25.1433C23.6031 25.4102 23.3867 25.6266 23.1198 25.6266Z" fill="#2E3242"/>
    <path d="M27.8642 39.0726L26.6242 37.5388C26.5184 37.408 26.6116 37.213 26.7798 37.213H29.26C29.4282 37.213 29.5213 37.4079 29.4156 37.5388L28.1756 39.0726C28.0953 39.1717 27.9443 39.1717 27.8642 39.0726Z" fill="#2E3242"/>
    <path d="M28.0197 38.3315C27.7528 38.3315 27.5364 38.1151 27.5364 37.8482V32.4463C27.5364 32.1794 27.7528 31.963 28.0197 31.963C28.2866 31.963 28.503 32.1794 28.503 32.4463V37.8482C28.503 38.1151 28.2867 38.3315 28.0197 38.3315Z" fill="#2E3242"/>
    <path d="M32.8576 16.875H16.516C16.1954 16.875 15.9355 16.6651 15.9355 16.4062C15.9355 16.1474 16.1954 15.9375 16.516 15.9375H32.8576C33.1782 15.9375 33.438 16.1474 33.438 16.4062C33.438 16.6651 33.1782 16.875 32.8576 16.875Z" fill="white"/>
    <path d="M37.9101 29.5625H21.215C20.8885 29.5625 20.6238 29.3526 20.6238 29.0938C20.6238 28.8349 20.8885 28.625 21.215 28.625H37.9101C38.2366 28.625 38.5013 28.8349 38.5013 29.0938C38.5013 29.3526 38.2366 29.5625 37.9101 29.5625Z" fill="white"/>
    <path d="M42.606 42.0926H25.7995C25.5326 42.0926 25.3162 41.8762 25.3162 41.6093C25.3162 41.3424 25.5326 41.126 25.7995 41.126H42.606C42.8729 41.126 43.0893 41.3424 43.0893 41.6093C43.0893 41.8762 42.8729 42.0926 42.606 42.0926Z" fill="white"/>
</svg>
