<svg width="59" height="58" fill="none" xmlns="http://www.w3.org/2000/svg"><rect x=".25" width="58" height="58" rx="8" fill="#F7F9FC"/><path d="M39.355 26.015h5.053a.842.842 0 1 0 0-1.685h-5.053a.842.842 0 0 0 0 1.685ZM44.408 27.699h-5.053a.842.842 0 1 0 0 1.684h5.053a.842.842 0 1 0 0-1.684ZM44.408 31.068h-5.053a.842.842 0 1 0 0 1.684h5.053a.842.842 0 1 0 0-1.684Z" fill="#2E3242"/><path d="M32.617 23.488a7.58 7.58 0 1 1-15.16 0 7.58 7.58 0 0 1 15.16 0ZM30.093 32.752h-10.63a6.214 6.214 0 0 0-6.213 6.214v1.365c0 .466.377.843.842.843h21.896a.842.842 0 0 0 .842-.843v-.842a6.737 6.737 0 0 0-6.737-6.737Z" fill="#305DFC"/></svg>