<svg width="59" height="58" fill="none" xmlns="http://www.w3.org/2000/svg"><rect x=".25" width="58" height="58" rx="8" fill="#F7F9FC"/><path d="M34.836 19.827H13.921c-.37 0-.671-.3-.671-.672v-5.484c0-.37.3-.671.671-.671h20.915c.37 0 .671.3.671.671v5.485c0 .37-.3.67-.67.67Z" fill="#092DAA"/><path d="M39.789 32.446H18.874c-.37 0-.671-.3-.671-.67V26.29c0-.37.3-.671.671-.671H39.79c.37 0 .671.3.671.67v5.485c0 .37-.3.671-.671.671Z" fill="#305DFC"/><path d="M44.579 45H23.664c-.37 0-.671-.3-.671-.671v-5.485c0-.37.3-.67.67-.67H44.58c.37 0 .671.3.671.67v5.485c0 .37-.3.671-.671.671Z" fill="#708689"/><path d="m22.964 26.453-1.24-1.534a.2.2 0 0 1 .156-.326h2.48a.2.2 0 0 1 .155.326l-1.24 1.534a.2.2 0 0 1-.31 0Z" fill="#2E3242"/><path d="M23.12 25.627a.483.483 0 0 1-.483-.484v-5.316a.483.483 0 0 1 .966 0v5.316a.483.483 0 0 1-.483.484ZM27.864 39.073l-1.24-1.534a.2.2 0 0 1 .156-.326h2.48a.2.2 0 0 1 .156.326l-1.24 1.534a.2.2 0 0 1-.312 0Z" fill="#2E3242"/><path d="M28.02 38.331a.483.483 0 0 1-.484-.483v-5.402a.483.483 0 0 1 .967 0v5.402a.483.483 0 0 1-.483.483Z" fill="#2E3242"/><path d="M32.858 16.875H16.516c-.32 0-.58-.21-.58-.469s.26-.468.58-.468h16.342c.32 0 .58.21.58.468 0 .26-.26.469-.58.469ZM37.91 29.563H21.215c-.326 0-.591-.21-.591-.47 0-.258.265-.468.591-.468H37.91c.327 0 .591.21.591.469s-.264.468-.59.468ZM42.606 42.093H25.799a.483.483 0 0 1 0-.967h16.807a.483.483 0 0 1 0 .967Z" fill="#fff"/></svg>