<svg xmlns="http://www.w3.org/2000/svg" width="386.667" height="386.667" preserveAspectRatio="xMidYMid meet" version="1.0" viewBox="0 0 290 290"><metadata>Created by potrace 1.15, written by Peter Selinger 2001-2017</metadata><g fill="#000" stroke="none"><path fill="#305dfb" d="M233 1789 c-67 -26 -156 -107 -191 -173 -21 -42 -27 -68 -30 -146 -5 -130 17 -191 102 -276 79 -79 142 -104 261 -104 108 0 172 23 247 90 81 72 111 138 116 254 3 76 0 101 -19 151 -31 82 -121 173 -202 203 -78 29 -209 30 -284 1z" transform="translate(0.000000,290.000000) scale(0.100000,-0.100000)"/><path fill="#305dfb" d="M1328 1797 c-103 -39 -173 -102 -217 -197 -22 -47 -26 -69 -26 -150 0 -84 3 -102 28 -152 34 -70 102 -140 171 -176 47 -25 60 -27 166 -27 106 0 119 2 166 27 69 36 137 106 171 176 25 50 28 68 28 152 0 81 -4 103 -26 151 -36 76 -86 129 -161 170 -58 30 -71 34 -163 36 -67 2 -112 -1 -137 -10z" transform="translate(0.000000,290.000000) scale(0.100000,-0.100000)"/><path fill="#305dfb" d="M2380 1788 c-78 -30 -169 -123 -199 -203 -19 -50 -22 -75 -19 -151 5 -116 35 -182 116 -254 75 -67 139 -90 247 -90 119 0 182 25 261 104 85 85 107 146 102 276 -3 78 -9 104 -30 146 -36 68 -124 147 -193 173 -77 29 -208 28 -285 -1z" transform="translate(0.000000,290.000000) scale(0.100000,-0.100000)"/></g></svg>