<svg xmlns="http://www.w3.org/2000/svg" width="386.667" height="386.667" preserveAspectRatio="xMidYMid meet" version="1.0" viewBox="0 0 290 290"><metadata>Created by potrace 1.15, written by Peter Selinger 2001-2017</metadata><g fill="#000" stroke="none"><path fill="#305dfb" d="M1240 2876 c-186 -40 -326 -120 -460 -263 -90 -96 -190 -258 -190 -308 0 -11 409 -182 415 -173 0 2 16 35 35 73 47 99 162 213 245 244 168 63 388 23 489 -89 62 -69 81 -121 81 -225 0 -140 -38 -200 -241 -381 -146 -130 -265 -255 -302 -316 -63 -106 -75 -156 -80 -336 l-4 -162 231 0 231 0 0 68 c0 99 16 177 50 251 27 57 56 90 214 246 323 319 374 415 364 687 -4 101 -10 136 -32 195 -87 235 -260 388 -531 469 -80 24 -110 27 -270 30 -126 2 -199 -1 -245 -10z" transform="translate(0.000000,290.000000) scale(0.100000,-0.100000)"/><path fill="#305dfb" d="M1353 606 c-166 -54 -250 -212 -203 -381 19 -68 113 -164 184 -188 77 -26 198 -23 263 7 112 52 175 149 175 271 1 123 -65 227 -177 276 -62 28 -181 35 -242 15z" transform="translate(0.000000,290.000000) scale(0.100000,-0.100000)"/></g></svg>