<svg width="59" height="58" fill="none" xmlns="http://www.w3.org/2000/svg"><rect x=".75" width="58" height="58" rx="8" fill="#F7F9FC"/><path d="M43.818 22.132l-5.775-5.787v23.188h7.73V26.83a6.626 6.626 0 00-1.955-4.698z" fill="#E6ECFF"/><path d="M18.264 35.308l-4.366-11.334a2.208 2.208 0 011.267-2.855l20.608-7.938a2.208 2.208 0 012.854 1.267l4.366 11.335a2.208 2.208 0 01-1.267 2.854L21.12 36.575a2.21 2.21 0 01-2.855-1.267z" fill="#092DAA"/><path d="M40.202 18.531l-24.71 9.578 1.645 4.271 24.71-9.573-1.645-4.276z" fill="#769AF7"/><path d="M13.75 27.387V15.241c0-1.22.989-2.208 2.208-2.208h22.084c1.22 0 2.208.988 2.208 2.208v12.146c0 1.22-.988 2.208-2.208 2.208H15.958a2.208 2.208 0 01-2.208-2.208z" fill="#305DFC"/><path d="M38.042 13.033h-2.346L19.133 29.595h18.909c1.22 0 2.208-.988 2.208-2.208V15.241c0-1.22-.988-2.208-2.208-2.208z" fill="url(#prefix__paint0_linear_602_55084)"/><path d="M15.957 21.866h2.208v1.104h-2.208v-1.104zM15.957 25.179h2.208v1.104h-2.208v-1.104zM25.895 25.179h2.208v1.104h-2.209v-1.104zM19.27 21.866h2.208v1.104h-2.209v-1.104zM22.582 21.866h2.208v1.104h-2.208v-1.104zM25.895 21.866h2.208v1.104h-2.209v-1.104zM36.387 15.241h1.104v1.656h-1.104v-1.656zM34.176 15.241h1.104v1.656h-1.104v-1.656zM31.969 15.241h1.104v1.656h-1.104v-1.656zM29.762 15.241h1.104v1.656h-1.104v-1.656z" fill="#E6ECFF"/><path d="M35.832 39.533h9.938v5.52h-9.938v-5.52z" fill="#092DAA"/><path d="M34.212 23.006a2.393 2.393 0 00-3.457 3.31l4.525 4.936a7.446 7.446 0 00.15 7.639l.402.642h7.177v-7.73l-8.797-8.797zM37.488 41.19h1.105v1.104h-1.105v-1.105z" fill="#E6ECFF"/><path d="M15.957 18.774v-2.65c0-.488.395-.883.883-.883h2.65c.489 0 .884.395.884.883v2.65a.883.883 0 01-.884.884h-2.65a.883.883 0 01-.883-.884z" fill="#fff"/><path d="M15.957 16.897h1.656v1.105h-1.656v-1.105zM18.719 16.897h1.656v1.105h-1.656v-1.105z" fill="#092DAA"/><path d="M42.46 31.804a.551.551 0 01-.39-.162l-2.208-2.209a.552.552 0 01.78-.78l2.21 2.208a.553.553 0 01-.391.943z" fill="#9CB8F8"/><defs><linearGradient id="prefix__paint0_linear_602_55084" x1="29.692" y1="13.033" x2="29.692" y2="29.595" gradientUnits="userSpaceOnUse"><stop stop-color="#0A33C1"/><stop offset="1" stop-color="#0A33C1" stop-opacity="0"/></linearGradient></defs></svg>