<svg width="59" height="58" fill="none" xmlns="http://www.w3.org/2000/svg"><rect x=".75" width="58" height="58" rx="8" fill="#F7F9FC"/><path d="M25.508 25.952L27.816 15.6h-6.913a.274.274 0 00-.274.275v9.04l4.88 1.037z" fill="#9CB8F8"/><path d="M23.642 17.55a1.213 1.213 0 01-1.063 1.063.163.163 0 00-.142.164v6.139l2.09-1.883 2.244-5.624h-2.966a.163.163 0 00-.163.142z" fill="#E6ECFF"/><path d="M37.438 24.915l3.05-5.283a.274.274 0 00-.1-.374l-10.776-6.221a.274.274 0 00-.374.1l-6.8 11.778 8.333.792 6.666-.792z" fill="#315EFD"/><path d="M36.97 19.373l-5.748-3.319a.163.163 0 00-.212.041c-.334.45-.937.611-1.452.39a.168.168 0 00-.204.07l-4.827 8.36 8.543.792 2.28-.792 2.121-3.674a.163.163 0 00-.04-.212 1.213 1.213 0 01-.39-1.452.163.163 0 00-.07-.204z" fill="#fff"/><path d="M32.63 21.47a1.17 1.17 0 100-2.34 1.17 1.17 0 000 2.34zM33.07 24.916a4.686 4.686 0 00-8.519 0h8.519z" fill="#315EFD"/><path d="M41 27.875a2.96 2.96 0 00-2.96-2.96H18.568a.72.72 0 00-.72.721V44.28c0 .398.322.721.72.721H38.04A2.96 2.96 0 0041 42.04V27.875z" fill="#092DAA"/><path d="M38.04 43.529H19.457a.483.483 0 010-.966H38.04a.523.523 0 00.522-.523v-2.869a.483.483 0 11.966 0v2.869a1.49 1.49 0 01-1.488 1.489zm1.489-12.785v-2.869a1.49 1.49 0 00-1.488-1.488H19.456a.483.483 0 000 .966H38.04c.288 0 .522.234.522.522v2.869a.483.483 0 00.966 0z" fill="#315EFD"/><path d="M38.04 24.915h-.133c.326.476.517 1.052.517 1.673v12.09a5.034 5.034 0 01-5.034 5.034H17.848v.567c0 .398.322.721.72.721H38.04A2.96 2.96 0 0041 42.04V27.875a2.96 2.96 0 00-2.96-2.96z" fill="#0A33C1"/><path d="M39.528 42.04V39.17a.483.483 0 00-.966 0v2.869a.523.523 0 01-.522.523h-1.448a5.02 5.02 0 01-1.85.966h3.298a1.49 1.49 0 001.488-1.49zM38.422 26.436c.002.05.004.1.004.152v.934a.52.52 0 01.138.353v2.869a.483.483 0 10.965 0v-2.869c0-.689-.47-1.27-1.107-1.439z" fill="#4C79ED"/><path d="M41.305 37.564h-4.28a2.572 2.572 0 01-2.572-2.572v-.07a2.572 2.572 0 012.572-2.571h4.28c.191 0 .346.155.346.346v4.522c0 .19-.155.345-.346.345z" fill="#E6ECFF"/><path d="M39.719 32.351v2.145a1.78 1.78 0 01-1.78 1.78h-2.846c-.104 0-.207-.006-.308-.018a2.571 2.571 0 002.24 1.306h4.28c.19 0 .346-.154.346-.345v-4.522a.346.346 0 00-.346-.346h-1.586z" fill="#C4D1FF"/><path d="M37.06 35.936a.978.978 0 100-1.956.978.978 0 000 1.956z" fill="#092DAA"/></svg>