<svg width="59" height="58" fill="none" xmlns="http://www.w3.org/2000/svg"><rect x=".25" width="58" height="58" rx="8" fill="#F7F9FC"/><path d="M24.395 32.041l-3.804-2.213a1.682 1.682 0 00-2.323.684c-.004.007-.006.015-.009.023l-1.577-5.825a1.72 1.72 0 00-.735-1.028 1.746 1.746 0 00-1.244-.254 1.676 1.676 0 00-1.08.752 1.646 1.646 0 00-.192 1.294l2.415 8.933c.116.43.36.814.7 1.103l2.595 2.207a2.207 2.207 0 01.777 1.678v1.191h6.675v-4.738c0-.77-.202-1.526-.588-2.194a4.431 4.431 0 00-1.61-1.613zM44.047 23.428a1.745 1.745 0 00-1.244.254 1.72 1.72 0 00-.736 1.027l-1.576 5.826c-.004-.008-.005-.016-.01-.023a1.659 1.659 0 00-1.013-.836 1.686 1.686 0 00-1.31.152l-3.803 2.213c-.67.39-1.224.946-1.61 1.614a4.387 4.387 0 00-.589 2.193v4.738h6.676v-1.191a2.19 2.19 0 01.779-1.678l2.594-2.207c.34-.289.584-.674.7-1.103l2.413-8.932a1.642 1.642 0 00-.653-1.782 1.678 1.678 0 00-.618-.265z" fill="#E6ECFF"/><path d="M30.488 40.586V45h10.014v-4.414H30.488zM18.25 40.586V45h10.013v-4.414H18.25zM37.72 13v6.952c0 2.4-.659 4.755-1.904 6.813a13.311 13.311 0 01-5.166 4.872l-1.274.673-1.274-.673a13.311 13.311 0 01-5.166-4.872 13.167 13.167 0 01-1.905-6.813V13l.79.447a6.727 6.727 0 006.297.176L29.377 13l1.257.623a6.718 6.718 0 006.292-.176L37.72 13z" fill="#305DFC"/><path d="M33.613 16.531a9.007 9.007 0 01-3.979-.931l-.26-.133-.258.128a8.963 8.963 0 01-5.862.733v3.624c-.002 2 .545 3.963 1.583 5.679a11.067 11.067 0 004.308 4.057l.228.12.23-.12c1.78-.94 3.27-2.342 4.307-4.057a10.946 10.946 0 001.583-5.68V16.33c-.618.133-1.248.201-1.88.202z" fill="#0A33C1"/><path d="M33.614 16.531c-.115 0-.23-.016-.346-.02v3.44a10.935 10.935 0 01-1.33 5.233 11.04 11.04 0 01-3.676 3.976c.286.187.578.366.884.528l.228.12.23-.12c1.78-.94 3.27-2.342 4.307-4.057a10.946 10.946 0 001.583-5.68V16.33c-.618.133-1.248.201-1.88.202zM30.488 40.586h10.014v1.655H30.488v-1.655zM18.25 40.586h10.013v1.655H18.25v-1.655z" fill="#092DAA"/><path d="M32.521 19.03l-4.26 4.224-1.736-1.722a.558.558 0 00-.943.392.55.55 0 00.156.388l2.13 2.112a.558.558 0 00.787 0l4.653-4.614a.551.551 0 00-.606-.904.557.557 0 00-.18.124z" fill="#fff"/><path d="M40.623 30.964a1.767 1.767 0 01-.866 1.221l-3.171 1.736.246.487 2.926-1.671c.308-.175.556-.437.71-.754.154-.316.208-.671.154-1.019zM18.125 30.964a1.767 1.767 0 00.866 1.221l3.17 1.736-.242.486-2.927-1.672a1.744 1.744 0 01-.71-.752 1.726 1.726 0 01-.157-1.019z" fill="#9CB8F8"/></svg>