<svg width="142" height="42" fill="none" xmlns="http://www.w3.org/2000/svg"><rect width="142" height="42" rx="7" fill="#000"/><g fill="#fff"><path d="M71.193 22.931c-2.458 0-4.46 1.878-4.46 4.466 0 2.571 2.002 4.466 4.46 4.466 2.457 0 4.46-1.895 4.46-4.466 0-2.588-2.003-4.466-4.46-4.466Zm0 7.173c-1.347 0-2.509-1.116-2.509-2.707 0-1.608 1.162-2.707 2.509-2.707s2.508 1.1 2.508 2.707c0 1.59-1.161 2.707-2.508 2.707ZM61.46 22.93c-2.457 0-4.46 1.878-4.46 4.466 0 2.571 2.003 4.466 4.46 4.466 2.458 0 4.46-1.895 4.46-4.466.002-2.588-2.002-4.466-4.46-4.466Zm0 7.173c-1.347 0-2.507-1.116-2.507-2.707 0-1.608 1.161-2.707 2.507-2.707 1.347 0 2.508 1.1 2.508 2.707 0 1.59-1.161 2.707-2.508 2.707Zm-11.575-5.802v1.894h4.512c-.135 1.065-.488 1.843-1.027 2.385-.656.66-1.683 1.387-3.485 1.387-2.777 0-4.948-2.25-4.948-5.04 0-2.792 2.171-5.042 4.948-5.042 1.499 0 2.593.592 3.4 1.354l1.33-1.337c-1.127-1.082-2.625-1.912-4.73-1.912-3.804 0-7.002 3.112-7.002 6.935 0 3.823 3.198 6.936 7.002 6.936 2.053 0 3.603-.677 4.815-1.946 1.245-1.252 1.633-3.012 1.633-4.432 0-.44-.033-.847-.101-1.185h-6.347v.003Zm47.34 1.47c-.37-.998-1.498-2.842-3.804-2.842-2.29 0-4.19 1.81-4.19 4.466 0 2.503 1.884 4.465 4.41 4.465 2.036 0 3.215-1.251 3.702-1.979l-1.515-1.015c-.504.744-1.195 1.235-2.188 1.235-.993 0-1.7-.457-2.154-1.354l5.942-2.47-.203-.505Zm-6.06 1.49c-.05-1.726 1.33-2.606 2.323-2.606.774 0 1.43.389 1.65.948l-3.973 1.657Zm-4.831 4.33h1.953V18.466h-1.953v13.126Zm-3.198-7.663h-.067c-.438-.524-1.28-.999-2.34-.999-2.222 0-4.258 1.963-4.258 4.483 0 2.503 2.036 4.448 4.258 4.448 1.06 0 1.902-.473 2.34-1.015h.067v.643c0 1.708-.91 2.622-2.374 2.622-1.196 0-1.936-.863-2.24-1.59l-1.7.71c.489 1.185 1.785 2.64 3.94 2.64 2.289 0 4.225-1.354 4.225-4.652V23.2h-1.851v.728Zm-2.239 6.175c-1.346 0-2.474-1.133-2.474-2.69 0-1.573 1.128-2.724 2.474-2.724 1.33 0 2.373 1.15 2.373 2.724 0 1.556-1.042 2.69-2.373 2.69Zm25.475-11.638h-4.672v13.126h1.949v-4.973h2.722c2.161 0 4.285-1.572 4.285-4.076 0-2.505-2.123-4.077-4.284-4.077Zm.05 6.326h-2.773v-4.5h2.773c1.458 0 2.285 1.213 2.285 2.25 0 1.017-.827 2.25-2.285 2.25Zm12.049-1.885c-1.411 0-2.873.625-3.478 2.01l1.731.726c.37-.726 1.059-.963 1.782-.963 1.008 0 2.033.608 2.05 1.689v.135c-.353-.202-1.11-.507-2.034-.507-1.865 0-3.764 1.03-3.764 2.956 0 1.757 1.53 2.887 3.243 2.887 1.311 0 2.033-.59 2.487-1.283h.067v1.014h1.881v-5.033c0-2.331-1.73-3.63-3.965-3.63Zm-.236 7.194c-.638 0-1.53-.322-1.53-1.114 0-1.014 1.11-1.402 2.067-1.402.857 0 1.26.186 1.782.439-.151 1.216-1.193 2.077-2.319 2.077Zm11.058-6.907-2.235 5.69h-.067l-2.319-5.69h-2.1l3.479 7.954-1.984 4.424h2.034l5.361-12.378h-2.169Zm-17.561 8.398h1.95V18.466h-1.95v13.126Z"/><path fill-rule="evenodd" clip-rule="evenodd" d="M46.098 13.441c.83 0 1.626-.329 2.213-.913h-.01a3.226 3.226 0 0 0 0-4.448 3.125 3.125 0 0 0-4.416 0 3.236 3.236 0 0 0 0 4.448 3.135 3.135 0 0 0 2.213.913Zm0-.731a2.308 2.308 0 0 1-1.64-.683c-.9-.974-.9-2.472 0-3.446a2.308 2.308 0 0 1 3.279 0c.886.98.886 2.467 0 3.446a2.308 2.308 0 0 1-1.64.683Z"/><path d="m48.311 12.528.083.083.2-.2h-.283v.117Zm-.01 0-.085-.081-.188.198h.273v-.117Zm0-4.448.085-.08-.002-.003-.083.083Zm-4.416 0-.083-.083L43.8 8l.085.08Zm0 4.448-.085.08.003.003.082-.083Zm.573-.501-.086.08.003.003.083-.083Zm0-3.446-.083-.083-.003.003.086.08Zm3.279 0 .087-.079-.004-.003-.083.082Zm0 3.446.083.083.004-.004-.087-.079Zm.491.418a3.017 3.017 0 0 1-2.13.879v.234c.861 0 1.687-.34 2.296-.947l-.166-.166Zm.073.2h.01v-.234h-.01v.234Zm-.085-4.484a3.109 3.109 0 0 1 0 4.286l.17.161a3.343 3.343 0 0 0 0-4.609l-.17.162Zm-2.123-.876c.797 0 1.562.316 2.125.878l.166-.166a3.242 3.242 0 0 0-2.29-.947v.235Zm-2.125.878a3.008 3.008 0 0 1 2.125-.878V7.05c-.86 0-1.684.34-2.29.947l.165.166Zm.002 4.284a3.119 3.119 0 0 1 0-4.287L43.8 8a3.353 3.353 0 0 0 0 4.608l.17-.16Zm2.128.877c-.799 0-1.565-.316-2.13-.88l-.166.167a3.252 3.252 0 0 0 2.296.947v-.234Zm-1.723-1.214c.455.459 1.075.717 1.722.717v-.235a2.19 2.19 0 0 1-1.556-.648l-.166.165ZM44.372 8.5a2.654 2.654 0 0 0 0 3.606l.172-.16a2.42 2.42 0 0 1 0-3.286l-.172-.16Zm1.725-.72c-.647 0-1.267.258-1.722.718l.166.164a2.19 2.19 0 0 1 1.556-.648v-.234Zm1.723.718a2.425 2.425 0 0 0-1.723-.718v.234c.585 0 1.146.234 1.557.648l.166-.164Zm.004 3.607a2.684 2.684 0 0 0 0-3.604l-.174.158a2.45 2.45 0 0 1 0 3.288l.174.158Zm-1.727.72c.648 0 1.268-.257 1.723-.716l-.166-.165a2.19 2.19 0 0 1-1.557.647v.235Z"/><path d="M50.282 13.309v-6.01h.946l2.897 4.677V7.298h.774v6.01h-.774L51.107 8.41v4.899h-.825ZM58.38 13.309h-.775v-5.27h-1.69V7.3h4.144v.74h-1.68v5.27Z" stroke="#fff" stroke-width=".234"/><path fill-rule="evenodd" clip-rule="evenodd" d="M61.045 7.298v6.01h1.84a3.025 3.025 0 0 0 2.224-.831c.568-.578.87-1.365.834-2.174a2.918 2.918 0 0 0-.834-2.174 3.025 3.025 0 0 0-2.223-.831h-1.841Zm1.84 5.269H61.82V8.039h1.097a2.107 2.107 0 0 1 1.665.606c.438.436.66 1.043.608 1.658a2.268 2.268 0 0 1-.644 1.673 2.32 2.32 0 0 1-1.66.59Z"/><path d="M61.045 13.308h-.117v.118h.117v-.118Zm0-6.01v-.117h-.117v.117h.117Zm1.84 6.01.006-.117h-.005v.117Zm2.224-.831.08.085.003-.003-.083-.082Zm.834-2.174-.117-.005v.01l.117-.005ZM65.11 8.13l.083-.082-.003-.002-.08.084Zm-2.223-.831v.117h.005l-.005-.117Zm-1.067 5.269h-.117v.117h.117v-.117Zm1.066 0 .006-.117h-.005v.117ZM61.82 8.039v-.117h-.117v.117h.117Zm1.097 0v.118l.01-.001-.01-.117Zm1.665.606-.083.083.083-.083Zm.608 1.658-.117-.01v.015l.117-.005Zm-.644 1.673.079.087.005-.005-.084-.082Zm-3.383 1.332v-6.01h-.234v6.01h.234Zm1.724-.117h-1.841v.235h1.84v-.235Zm2.142-.799a2.907 2.907 0 0 1-2.137.8l-.01.233a3.142 3.142 0 0 0 2.308-.863l-.161-.17Zm.798-2.084a2.801 2.801 0 0 1-.801 2.087l.167.164c.591-.601.906-1.42.869-2.261l-.235.01Zm-.801-2.096c.545.555.835 1.31.801 2.086l.235.01a3.036 3.036 0 0 0-.869-2.26l-.167.164Zm-2.134-.797a2.907 2.907 0 0 1 2.137.8l.161-.17a3.142 3.142 0 0 0-2.309-.864l.01.234Zm-1.846 0h1.84v-.234h-1.84v.234Zm.774 5.27h1.066v-.235H61.82v.234Zm-.117-4.646v4.528h.235V8.039h-.235Zm1.214-.117h-1.097v.234h1.097v-.234Zm1.748.64a2.224 2.224 0 0 0-1.758-.64l.02.234a1.99 1.99 0 0 1 1.572.572l.165-.166Zm.642 1.751c.055-.65-.18-1.29-.642-1.751l-.166.166c.414.412.624.985.574 1.565l.234.02Zm-.677 1.745c.458-.47.703-1.105.677-1.76l-.234.01a2.152 2.152 0 0 1-.61 1.586l.167.164Zm-1.749.626c.64.03 1.267-.193 1.744-.62l-.157-.175c-.43.386-.997.588-1.576.56l-.011.235Z"/><path d="M70.56 8.04h-2.755v1.903h2.484v.721h-2.484v1.904h2.756v.74h-3.53v-6.01h3.53v.742ZM76.254 7.298 74.01 9.883l2.383 3.426H75.39l-2.012-2.805-.935 1.072v1.733h-.775v-6.01h.775v3.095l2.806-3.096h1.006ZM79.201 13.309v-6.01h.785v2.574h3.017V7.298h.775v6.01h-.775v-2.714h-3.017v2.715H79.2ZM88.676 8.04H85.93v1.903h2.484v.721H85.93v1.904h2.746v.74h-3.52v-6.01h3.52v.742ZM91.955 13.309h-.785v-5.27h-1.68V7.3h4.144v.74h-1.68v5.27Z" stroke="#fff" stroke-width=".234"/><path fill-rule="evenodd" clip-rule="evenodd" d="M99.278 13.441c.83 0 1.626-.329 2.212-.913h-.01a3.225 3.225 0 0 0 0-4.448 3.124 3.124 0 0 0-4.415 0 3.206 3.206 0 0 0 0 4.448 3.135 3.135 0 0 0 2.213.913Zm0-.731a2.308 2.308 0 0 1-1.64-.683c-.9-.974-.9-2.472 0-3.446a2.308 2.308 0 0 1 3.279 0c.886.98.886 2.467 0 3.446a2.309 2.309 0 0 1-1.64.683Z"/><path d="m101.49 12.528.083.083.201-.2h-.284v.117Zm-.01 0-.085-.081-.188.198h.273v-.117Zm0-4.448.085-.08-.002-.003-.083.083Zm-4.415 0-.083-.083L96.98 8l.085.081Zm0 4.448-.085.081.002.002.083-.083Zm.573-.501-.086.08.003.002.083-.082Zm0-3.446-.084-.083-.002.003.086.08Zm3.279 0 .087-.079-.004-.004-.083.083Zm0 3.446.083.082.004-.004-.087-.078Zm.491.418a3.018 3.018 0 0 1-2.13.879v.234c.861 0 1.686-.34 2.295-.947l-.165-.166Zm.072.2h.01v-.234h-.01v.234Zm-.085-4.484a3.108 3.108 0 0 1 0 4.286l.17.161a3.342 3.342 0 0 0 0-4.609l-.17.162Zm-2.123-.876c.798 0 1.563.316 2.126.878l.165-.166a3.241 3.241 0 0 0-2.29-.947v.235Zm-2.125.878a3.008 3.008 0 0 1 2.125-.878V7.05c-.859 0-1.683.34-2.29.947l.165.166Zm.002 4.284a3.089 3.089 0 0 1 0-4.286L96.98 8a3.323 3.323 0 0 0 0 4.61l.17-.162Zm2.129.877c-.8 0-1.566-.316-2.13-.88l-.166.167a3.252 3.252 0 0 0 2.296.947v-.234Zm-1.723-1.215a2.425 2.425 0 0 0 1.722.718v-.235a2.19 2.19 0 0 1-1.556-.648l-.166.165Zm-.003-3.608a2.654 2.654 0 0 0 0 3.605l.172-.159a2.42 2.42 0 0 1 0-3.287l-.172-.159Zm1.725-.72c-.647 0-1.268.258-1.722.717l.166.165c.41-.414.971-.648 1.556-.648v-.234Zm1.723.717a2.425 2.425 0 0 0-1.723-.717v.234c.585 0 1.146.234 1.557.648l.166-.165Zm.004 3.607a2.684 2.684 0 0 0 0-3.603l-.174.158a2.45 2.45 0 0 1 0 3.288l.174.157Zm-1.727.722c.648 0 1.268-.259 1.723-.718l-.166-.165a2.192 2.192 0 0 1-1.557.648v.235Z"/><path fill-rule="evenodd" clip-rule="evenodd" d="M103.461 13.309h.774l-.05-2.434h1.288c.492.008.968-.175 1.327-.511a1.75 1.75 0 0 0 0-2.555 1.895 1.895 0 0 0-1.327-.51h-2.012v6.01Zm2.072-3.176h-1.298V8.039h1.298c.296-.013.583.104.784.32a1 1 0 0 1 0 1.453 1.007 1.007 0 0 1-.784.321Z"/><path d="M104.235 13.309v.117h.12l-.002-.12-.118.003Zm-.774 0h-.117v.117h.117v-.117Zm.724-2.434v-.117h-.119l.002.12.117-.003Zm1.288 0 .002-.117h-.002v.117Zm1.327-.511.08.085-.08-.085Zm0-2.555.08-.085-.08.085Zm-1.327-.51v.117h.002l-.002-.117Zm-2.012 0V7.18h-.117V7.3h.117Zm.774 2.834h-.117v.117h.117v-.117Zm1.298 0 .005-.117h-.005v.117Zm-1.298-2.094v-.117h-.117v.117h.117Zm1.298 0v.118h.005l-.005-.118Zm.784.32-.086.08.006.006.08-.085Zm0 1.453-.08-.085-.005.006.085.08Zm-2.082 3.38h-.774v.234h.774v-.234Zm-.167-2.315.05 2.434.235-.004-.051-2.435-.234.005Zm1.405-.12h-1.288v.235h1.288v-.234Zm1.247-.479a1.776 1.776 0 0 1-1.245.48l-.004.234a2.012 2.012 0 0 0 1.409-.543l-.16-.17Zm.518-1.191c0 .45-.187.882-.518 1.191l.16.171c.378-.353.592-.846.592-1.362h-.234Zm-.518-1.192c.331.31.518.74.518 1.192h.234c0-.516-.214-1.01-.592-1.363l-.16.171Zm-1.245-.48c.462-.007.909.165 1.245.48l.16-.171a2.012 2.012 0 0 0-1.409-.543l.004.235Zm-2.014 0h2.012v-.234h-2.012v.235Zm.117 5.894v-6.01h-.234v6.01h.234Zm.657-3.059h1.298v-.234h-1.298v.234Zm-.117-2.21v2.093h.235V8.039h-.235Zm1.415-.118h-1.298v.235h1.298v-.235Zm.87.358a1.123 1.123 0 0 0-.875-.358l.01.234a.892.892 0 0 1 .694.284l.171-.16Zm.345.806c0-.307-.127-.6-.35-.811l-.161.17a.884.884 0 0 1 .276.641h.235Zm-.35.812c.223-.212.35-.505.35-.812h-.235c0 .242-.1.474-.276.641l.161.17Zm-.87.352c.33.015.651-.116.875-.358l-.171-.16a.892.892 0 0 1-.694.284l-.01.234Z"/></g><path d="M10.904 7.915c-.304.323-.484.825-.484 1.475v23.222c0 .651.18 1.152.484 1.475l.077.076 12.945-13.008v-.307L10.98 7.838l-.077.077Z" fill="url(#a)"/><path d="m28.242 25.493-4.314-4.337v-.307l4.315-4.336.097.055 5.113 2.92c1.46.833 1.46 2.197 0 3.032l-5.113 2.919-.098.054Z" fill="url(#b)"/><path d="m28.339 25.436-4.413-4.435-13.023 13.086c.482.512 1.276.575 2.171.064l15.265-8.715Z" fill="url(#c)"/><path d="M28.339 16.566 13.076 7.851c-.896-.511-1.69-.447-2.172.064l13.022 13.086 4.413-4.435Z" fill="url(#d)"/><path opacity=".2" d="m28.241 25.339-15.165 8.66c-.849.483-1.607.452-2.094.01l-.079.08.078.075c.486.441 1.245.474 2.094-.011l15.263-8.715-.097-.1Z" fill="#222"/><path opacity=".12" d="M10.903 33.934c-.304-.323-.483-.825-.483-1.475v.153c0 .65.18 1.152.483 1.475l.078-.078-.078-.075ZM33.45 22.364l-5.209 2.974.097.098 5.113-2.919c.73-.417 1.095-.966 1.095-1.515-.062.497-.434.984-1.095 1.362Z" fill="#222"/><path opacity=".25" d="M13.075 8.004 33.45 19.638c.663.378 1.034.866 1.095 1.363 0-.549-.364-1.1-1.095-1.516L13.075 7.851c-1.46-.834-2.655-.142-2.655 1.54v.154c0-1.681 1.195-2.374 2.655-1.54Z" fill="#fff"/><defs><linearGradient id="a" x1="22.778" y1="9.145" x2="5.157" y2="26.68" gradientUnits="userSpaceOnUse"><stop stop-color="#00A0FF"/><stop offset=".007" stop-color="#00A1FF"/><stop offset=".26" stop-color="#00BEFF"/><stop offset=".512" stop-color="#00D2FF"/><stop offset=".76" stop-color="#00DFFF"/><stop offset="1" stop-color="#00E3FF"/></linearGradient><linearGradient id="b" x1="35.353" y1="21.002" x2="10.071" y2="21.002" gradientUnits="userSpaceOnUse"><stop stop-color="#FFE000"/><stop offset=".409" stop-color="#FFBD00"/><stop offset=".775" stop-color="orange"/><stop offset="1" stop-color="#FF9C00"/></linearGradient><linearGradient id="c" x1="25.941" y1="23.411" x2="2.045" y2="47.19" gradientUnits="userSpaceOnUse"><stop stop-color="#FF3A44"/><stop offset="1" stop-color="#C31162"/></linearGradient><linearGradient id="d" x1="7.625" y1=".185" x2="18.295" y2="10.803" gradientUnits="userSpaceOnUse"><stop stop-color="#32A071"/><stop offset=".069" stop-color="#2DA771"/><stop offset=".476" stop-color="#15CF74"/><stop offset=".801" stop-color="#06E775"/><stop offset="1" stop-color="#00F076"/></linearGradient></defs></svg>