<svg width="142" height="42" fill="none" xmlns="http://www.w3.org/2000/svg"><rect width="142" height="42" rx="7" fill="#000"/><path d="M35.685 19.23c.025-1.792 1.031-3.447 2.666-4.385-1.036-1.382-2.71-2.226-4.515-2.28-1.9-.185-3.742 1.062-4.71 1.062-.987 0-2.477-1.043-4.082-1.012-2.112.064-4.033 1.158-5.06 2.881-2.189 3.537-.557 8.734 1.54 11.593 1.048 1.4 2.273 2.963 3.877 2.907 1.57-.06 2.155-.934 4.05-.934 1.876 0 2.426.934 4.062.9 1.684-.026 2.745-1.407 3.757-2.82a11.28 11.28 0 0 0 1.718-3.266c-2-.79-3.3-2.619-3.303-4.646ZM32.595 10.687c.918-1.03 1.37-2.352 1.26-3.687-1.402.138-2.698.763-3.628 1.753-.919.976-1.384 2.253-1.294 3.55 1.421.013 2.771-.582 3.662-1.616Z" fill="#fff"/><path fill-rule="evenodd" clip-rule="evenodd" d="M49.362 26.595h5.15l1.236 3.409h2.218l-4.878-12.612h-2.266l-4.878 12.612h2.181l1.237-3.41Zm4.615-1.573h-4.082l2.014-5.532h.056l2.012 5.532ZM64.39 30.1c2.473 0 4.111-1.836 4.111-4.694 0-2.85-1.648-4.694-4.148-4.694-1.286-.039-2.491.586-3.136 1.625h-.037v-1.529h-1.957v12.237h2.022v-4.554h.046c.618 1.046 1.822 1.67 3.1 1.608Zm-.57-7.78c1.573 0 2.603 1.225 2.603 3.086 0 1.879-1.03 3.094-2.603 3.094-1.545 0-2.584-1.24-2.584-3.094 0-1.835 1.04-3.085 2.584-3.085ZM75.231 30.1c2.473 0 4.111-1.837 4.111-4.694 0-2.85-1.648-4.694-4.148-4.694-1.286-.039-2.491.586-3.136 1.625h-.038v-1.529h-1.956v12.237h2.021v-4.554h.047c.618 1.046 1.821 1.67 3.1 1.608Zm-.57-7.78c1.573 0 2.603 1.225 2.603 3.086 0 1.879-1.03 3.094-2.603 3.094-1.545 0-2.584-1.241-2.584-3.094 0-1.836 1.04-3.085 2.584-3.085Z" fill="#fff"/><path d="M86.506 26.49c.15 1.25 1.451 2.072 3.23 2.072 1.704 0 2.93-.821 2.93-1.95 0-.978-.74-1.564-2.49-1.966l-1.751-.394c-2.48-.56-3.632-1.642-3.632-3.4 0-2.176 2.03-3.67 4.914-3.67 2.856 0 4.813 1.494 4.879 3.67h-2.04c-.123-1.258-1.238-2.018-2.866-2.018-1.629 0-2.744.769-2.744 1.887 0 .892.712 1.417 2.454 1.818l1.488.342c2.772.612 3.923 1.651 3.923 3.496 0 2.36-2.013 3.837-5.215 3.837-2.996 0-5.019-1.443-5.15-3.724h2.07ZM99.167 18.632v2.176h1.873v1.495h-1.873v5.07c0 .787.375 1.154 1.198 1.154.222-.004.444-.018.665-.044v1.486c-.37.064-.746.094-1.123.087-1.994 0-2.772-.7-2.772-2.483v-5.27h-1.432v-1.495h1.432v-2.176h2.032Z" fill="#fff"/><path fill-rule="evenodd" clip-rule="evenodd" d="M106.794 20.696c-2.847 0-4.672 1.818-4.672 4.71 0 2.902 1.807 4.712 4.672 4.712 2.865 0 4.672-1.81 4.672-4.711 0-2.893-1.817-4.711-4.672-4.711Zm0 1.555c1.638 0 2.613 1.172 2.613 3.156 0 1.993-.975 3.155-2.613 3.155s-2.612-1.162-2.612-3.155c0-1.975.974-3.155 2.612-3.155Z" fill="#fff"/><path d="M113.134 20.809h1.928v1.565h.047c.269-1.008 1.258-1.701 2.369-1.661.233-.001.466.022.693.07v1.765a3.015 3.015 0 0 0-.909-.114 2.11 2.11 0 0 0-1.574.606c-.405.406-.6.958-.532 1.51v5.454h-2.022v-9.195Z" fill="#fff"/><path fill-rule="evenodd" clip-rule="evenodd" d="M123.251 30.118c2.228 0 3.97-1.146 4.242-2.815h-1.92c-.369.853-1.294 1.38-2.275 1.293a2.66 2.66 0 0 1-1.954-.744 2.301 2.301 0 0 1-.696-1.86v-.114h6.957v-.647c0-2.788-1.714-4.535-4.439-4.535-2.771 0-4.559 1.87-4.559 4.755 0 2.875 1.779 4.667 4.644 4.667Zm2.332-5.56h-4.925a2.252 2.252 0 0 1 .734-1.654 2.587 2.587 0 0 1 1.775-.68 2.458 2.458 0 0 1 1.754.675c.458.443.698 1.044.662 1.66ZM51.934 8.728a2.985 2.985 0 0 0-2.29-.83h-2.345v6.06h2.345c1.933 0 3.054-1.114 3.054-3.05a2.57 2.57 0 0 0-.764-2.18ZM49.531 13.1h-1.224V8.753h1.224a2.123 2.123 0 0 1 1.617.613c.415.419.606.99.523 1.554.09.568-.1 1.143-.514 1.566a2.117 2.117 0 0 1-1.626.614ZM54.924 9.62c-.75.435-1.17 1.228-1.087 2.048-.086.82.335 1.616 1.085 2.05.75.436 1.7.436 2.45 0 .75-.434 1.171-1.23 1.086-2.05.084-.82-.337-1.613-1.087-2.047a2.462 2.462 0 0 0-2.447 0Zm1.225.477c.837 0 1.314.58 1.314 1.57 0 .996-.477 1.575-1.314 1.575-.84 0-1.313-.575-1.313-1.574 0-.991.473-1.571 1.313-1.571Z" fill="#fff"/><path d="M64.6 13.957h-1.004l-1.012-3.369h-.077L61.5 13.957h-.993l-1.35-4.574h.98l.877 3.49h.073l1.007-3.49h.927l1.008 3.49h.076l.873-3.49h.967L64.6 13.957ZM67.08 9.384h.93v.726h.073c.251-.535.838-.862 1.462-.814.483-.034.956.139 1.286.47.33.33.48.783.41 1.23v2.961h-.967v-2.734c0-.735-.342-1.1-1.057-1.1a1.166 1.166 0 0 0-.87.328 1.007 1.007 0 0 0-.3.83v2.676h-.967V9.384ZM72.781 7.598h.966v6.359h-.966V7.598Z" fill="#fff"/><path fill-rule="evenodd" clip-rule="evenodd" d="M76.179 9.62c-.75.435-1.17 1.229-1.087 2.048-.085.82.335 1.616 1.085 2.05.75.436 1.7.436 2.45 0 .75-.434 1.172-1.23 1.086-2.05.084-.82-.337-1.613-1.087-2.047a2.462 2.462 0 0 0-2.447 0Zm1.225.478c.837 0 1.314.58 1.314 1.57 0 .996-.477 1.575-1.314 1.575-.84 0-1.313-.575-1.313-1.574 0-.992.473-1.571 1.313-1.571ZM82.553 11.298c-1.165.068-1.822.542-1.822 1.366.002.39.18.761.492 1.022.31.26.725.387 1.141.346a1.684 1.684 0 0 0 1.472-.718h.076v.643h.931v-3.125c0-.966-.693-1.537-1.92-1.537-1.112 0-1.904.504-2.002 1.29h.936c.107-.324.48-.509 1.02-.509.661 0 1.004.273 1.004.756v.395l-1.328.071Zm1.328.593v.383a1.056 1.056 0 0 1-.407.75c-.24.189-.55.279-.862.25-.525 0-.908-.24-.908-.652 0-.403.306-.617.98-.66l1.197-.07ZM88.147 9.308c-1.238 0-2.034.915-2.034 2.36 0 1.449.788 2.364 2.034 2.364.632.022 1.224-.285 1.538-.798h.077v.723h.926V7.598h-.967v2.512h-.072c-.292-.516-.877-.83-1.502-.802Zm.273 3.914c-.819 0-1.309-.583-1.309-1.553 0-.963.495-1.55 1.31-1.55.809 0 1.318.6 1.318 1.554 0 .957-.504 1.55-1.319 1.55ZM95.165 7.466a.58.58 0 0 0-.36.565.54.54 0 0 0 .187.4.62.62 0 0 0 .438.15.627.627 0 0 0 .582-.37.558.558 0 0 0-.153-.64.66.66 0 0 0-.694-.105Zm.746 1.917h-.963v4.574h.963V9.383Z" fill="#fff"/><path d="M97.472 9.384h.93v.726h.073c.25-.535.838-.862 1.462-.814.482-.034.956.139 1.285.47.33.33.481.783.41 1.23v2.961h-.967v-2.734c0-.735-.342-1.1-1.057-1.1a1.166 1.166 0 0 0-.87.328 1.006 1.006 0 0 0-.3.83v2.676h-.966V9.384Z" fill="#fff"/><path fill-rule="evenodd" clip-rule="evenodd" d="M107.576 9.308c-1.237 0-2.033.915-2.033 2.36 0 1.449.787 2.364 2.033 2.364.632.022 1.225-.285 1.539-.798h.076v.723h.927V7.598h-.967v2.512h-.072c-.292-.516-.878-.83-1.503-.802Zm.274 3.914c-.819 0-1.309-.583-1.309-1.553 0-.963.495-1.55 1.309-1.55.81 0 1.318.6 1.318 1.554 0 .957-.503 1.55-1.318 1.55ZM113.724 14.045c.958.097 1.852-.46 2.123-1.323h-.931a1.199 1.199 0 0 1-1.165.555 1.341 1.341 0 0 1-.963-.386 1.164 1.164 0 0 1-.342-.925v-.05h3.46V11.6c0-1.436-.823-2.306-2.186-2.306a2.332 2.332 0 0 0-1.713.714 2.015 2.015 0 0 0-.546 1.676 1.988 1.988 0 0 0 .547 1.67 2.3 2.3 0 0 0 1.716.69Zm1.197-2.797h-2.474a1.127 1.127 0 0 1 .366-.842 1.3 1.3 0 0 1 .902-.343c.333-.007.654.118.884.343.23.226.347.532.322.842Z" fill="#fff"/></svg>