<svg width="142" height="42" viewBox="0 0 142 42" fill="none" xmlns="http://www.w3.org/2000/svg">
<rect width="142" height="42" rx="7" fill="black"/>
<path d="M35.6851 19.2299C35.7099 17.4382 36.7161 15.7832 38.3512 14.8447C37.315 13.4632 35.6416 12.6187 33.8358 12.5659C31.936 12.3798 30.0943 13.6272 29.1262 13.6272C28.1393 13.6272 26.6488 12.5844 25.0437 12.6152C22.9319 12.6789 21.0108 13.7727 19.9833 15.4963C17.7954 19.0327 19.4274 24.23 21.5233 27.0886C22.5719 28.4883 23.7975 30.0519 25.4011 29.9964C26.9704 29.9357 27.5564 29.0623 29.4506 29.0623C31.3273 29.0623 31.8771 29.9964 33.5133 29.9612C35.1972 29.9357 36.2581 28.5552 37.2699 27.1422C38.0234 26.1448 38.6032 25.0425 38.9878 23.8761C36.9879 23.0864 35.6875 21.257 35.6851 19.2299Z" fill="white"/>
<path d="M32.5948 10.6866C33.513 9.65769 33.9653 8.33521 33.8557 7C32.4531 7.13753 31.1574 7.76336 30.2269 8.75278C29.308 9.72898 28.8426 11.0061 28.933 12.3029C30.3544 12.3165 31.7041 11.7208 32.5948 10.6866Z" fill="white"/>
<path fill-rule="evenodd" clip-rule="evenodd" d="M49.3622 26.5947H54.5118L55.7475 30.0036H57.9658L53.0882 17.3916H50.822L45.9443 30.0036H48.1255L49.3622 26.5947ZM53.9774 25.0221H49.8954L51.9088 19.4897H51.9651L53.9774 25.0221Z" fill="white"/>
<path fill-rule="evenodd" clip-rule="evenodd" d="M64.3904 30.0995C66.8627 30.0995 68.501 28.2636 68.501 25.4062C68.501 22.5567 66.8531 20.7119 64.3532 20.7119C63.0668 20.6732 61.8618 21.2978 61.2168 22.3375H61.1797V20.8081H59.2227V33.0452H61.2445V28.4907H61.2913C61.9088 29.537 63.1125 30.1619 64.3904 30.0995ZM63.8202 22.3208C65.3926 22.3208 66.4232 23.5447 66.4232 25.4063C66.4232 27.2849 65.3926 28.4998 63.8202 28.4998C62.2754 28.4998 61.2363 27.2591 61.2363 25.4063C61.2363 23.5705 62.2754 22.3208 63.8202 22.3208Z" fill="white"/>
<path fill-rule="evenodd" clip-rule="evenodd" d="M75.2312 30.0993C77.7035 30.0993 79.3423 28.2635 79.3423 25.4061C79.3423 22.5566 77.6939 20.7118 75.194 20.7118C73.9076 20.6731 72.7026 21.2976 72.0577 22.3374H72.0205V20.808H70.0635V33.045H72.0853V28.4906H72.1321C72.7496 29.5369 73.9533 30.1618 75.2312 30.0993ZM74.661 22.3207C76.2335 22.3207 77.264 23.5446 77.264 25.4062H77.264C77.264 27.2847 76.2335 28.4997 74.661 28.4997C73.1163 28.4997 72.0772 27.259 72.0772 25.4062C72.0772 23.5704 73.1163 22.3207 74.661 22.3207Z" fill="white"/>
<path d="M86.5062 26.4899C86.656 27.7406 87.9575 28.5618 89.736 28.5618C91.4402 28.5618 92.6662 27.7406 92.6662 26.6128C92.6662 25.6339 91.9268 25.0478 90.1759 24.6461L88.425 24.2523C85.9442 23.6929 84.7925 22.6099 84.7925 20.8524C84.7925 18.6763 86.8239 17.1816 89.7073 17.1816C92.5632 17.1816 94.5202 18.6763 94.586 20.8524H92.5451C92.4229 19.5937 91.3084 18.834 89.6797 18.834C88.051 18.834 86.9365 19.6027 86.9365 20.7214C86.9365 21.6131 87.6483 22.1378 89.3896 22.5394L90.8781 22.8806C93.65 23.4926 94.8006 24.532 94.8006 26.3768C94.8006 28.7363 92.7884 30.2141 89.5862 30.2141C86.5901 30.2141 84.5672 28.771 84.4365 26.4898L86.5062 26.4899Z" fill="white"/>
<path d="M99.1667 18.6323V20.8084H101.04V22.303H99.1667V27.3722C99.1667 28.1597 99.5417 28.5267 100.365 28.5267C100.587 28.5231 100.809 28.5085 101.03 28.483V29.9688C100.66 30.0333 100.284 30.0626 99.9072 30.0561C97.913 30.0561 97.1353 29.3568 97.1353 27.5735V22.303H95.7031V20.8084H97.1353V18.6323H99.1667Z" fill="white"/>
<path fill-rule="evenodd" clip-rule="evenodd" d="M106.794 20.6958C103.947 20.6958 102.122 22.5138 102.122 25.4069C102.122 28.308 103.929 30.1181 106.794 30.1181C109.659 30.1181 111.466 28.308 111.466 25.4069C111.466 22.5138 109.649 20.6958 106.794 20.6958ZM106.794 22.2515C108.432 22.2515 109.407 23.4228 109.407 25.4074H109.407C109.407 27.4 108.432 28.5624 106.794 28.5624C105.156 28.5624 104.182 27.4 104.182 25.4074C104.182 23.4317 105.156 22.2515 106.794 22.2515Z" fill="white"/>
<path d="M113.134 20.8088H115.062V22.3738H115.109C115.378 21.3663 116.367 20.6729 117.478 20.7126C117.711 20.7118 117.944 20.7354 118.171 20.783V22.5484C117.877 22.4645 117.57 22.426 117.262 22.4344C116.668 22.4118 116.093 22.633 115.688 23.0397C115.283 23.4464 115.088 23.9981 115.156 24.5499V30.0039H113.134L113.134 20.8088Z" fill="white"/>
<path fill-rule="evenodd" clip-rule="evenodd" d="M123.251 30.1179C125.479 30.1179 127.221 28.9724 127.493 27.3032L125.573 27.3032C125.204 28.1564 124.279 28.6823 123.298 28.5965C122.562 28.6218 121.851 28.3508 121.344 27.8525C120.837 27.3542 120.583 26.6765 120.648 25.992V25.8779H127.605V25.2313C127.605 22.4433 125.891 20.6957 123.166 20.6957C120.395 20.6957 118.607 22.5663 118.607 25.4505C118.607 28.3257 120.386 30.1179 123.251 30.1179ZM125.583 24.5585L120.658 24.5585C120.656 23.9377 120.921 23.342 121.392 22.9037C121.863 22.4655 122.502 22.221 123.167 22.2248C123.826 22.2115 124.462 22.4558 124.921 22.8988C125.379 23.3419 125.619 23.9434 125.583 24.5585Z" fill="white"/>
<path fill-rule="evenodd" clip-rule="evenodd" d="M51.9344 8.72789C51.3427 8.1446 50.5019 7.83976 49.6436 7.89727H47.2988V13.9573H49.6437C51.5773 13.9573 52.6982 12.8444 52.6982 10.9084C52.8064 10.1114 52.5261 9.31118 51.9344 8.72789ZM49.5306 13.0998H48.3066V8.75318H49.5306C50.1407 8.72157 50.7341 8.94616 51.1483 9.36553C51.5626 9.78489 51.7544 10.3551 51.6714 10.9203C51.761 11.4878 51.5718 12.0628 51.1565 12.4856C50.7412 12.9084 50.144 13.1341 49.5306 13.0998Z" fill="white"/>
<path fill-rule="evenodd" clip-rule="evenodd" d="M54.9237 9.62093C54.1742 10.0551 53.7531 10.8484 53.8371 11.6682C53.7515 12.4888 54.1722 13.2836 54.9224 13.7187C55.6726 14.1539 56.6223 14.1539 57.3724 13.7187C58.1226 13.2836 58.5433 12.4888 58.4577 11.6682C58.5417 10.8484 58.1206 10.0551 57.3711 9.62093C56.6216 9.18674 55.6732 9.18674 54.9237 9.62093ZM56.1491 10.0968C56.9863 10.0968 57.4633 10.6765 57.4633 11.6678H57.4633C57.4633 12.6631 56.9863 13.2423 56.1491 13.2423C55.3087 13.2423 54.836 12.6671 54.836 11.6678C54.836 10.6765 55.3087 10.0968 56.1491 10.0968Z" fill="white"/>
<path d="M64.5992 13.9566H63.5963L62.5838 10.5884H62.5073L61.499 13.9566H60.5056L59.1553 9.3833H60.1359L61.0135 12.873H61.0857L62.0929 9.3833H63.0204L64.0276 12.873H64.1041L64.9774 9.3833H65.9442L64.5992 13.9566Z" fill="white"/>
<path d="M67.0801 9.38382H68.0108V10.1103H68.083C68.3343 9.57543 68.9213 9.24822 69.5449 9.29554C70.0278 9.26165 70.5009 9.43457 70.8308 9.76547C71.1607 10.0964 71.3115 10.5494 71.2406 10.9965V13.957H70.2738V11.2232C70.2738 10.4882 69.9317 10.1227 69.2166 10.1227C68.8891 10.1085 68.5713 10.2285 68.3465 10.4512C68.1216 10.674 68.0122 10.9773 68.0469 11.2817V13.9571H67.0801V9.38382Z" fill="white"/>
<path d="M72.7812 7.59839H73.7474V13.9569H72.7812V7.59839Z" fill="white"/>
<path fill-rule="evenodd" clip-rule="evenodd" d="M76.1787 9.62094C75.4292 10.0551 75.0081 10.8485 75.092 11.6683C75.0065 12.4889 75.4272 13.2837 76.1775 13.7188C76.9277 14.1539 77.8774 14.1539 78.6276 13.7188C79.3778 13.2837 79.7986 12.4889 79.7131 11.6683C79.797 10.8485 79.3759 10.0551 78.6263 9.62094C77.8767 9.18674 76.9283 9.18674 76.1787 9.62094ZM77.404 10.0976C78.2412 10.0976 78.7182 10.6773 78.7182 11.6686C78.7182 12.6639 78.2411 13.2431 77.404 13.2431C76.5636 13.2431 76.0909 12.6679 76.0909 11.6686C76.0909 10.6773 76.5636 10.0976 77.404 10.0976Z" fill="white"/>
<path fill-rule="evenodd" clip-rule="evenodd" d="M82.5535 11.2984C81.388 11.3658 80.7314 11.8404 80.7314 12.6636C80.7331 13.0539 80.9115 13.4254 81.2226 13.6862C81.5338 13.9469 81.9485 14.0727 82.3644 14.0323C82.9577 14.0579 83.5198 13.7836 83.8359 13.3143H83.9124V13.957H84.8431V10.8322C84.8431 9.86619 84.1504 9.29541 82.9222 9.29541C81.8109 9.29541 81.0194 9.79925 80.9206 10.5848H81.8566C81.9639 10.2614 82.3379 10.0765 82.8776 10.0765C83.5384 10.0765 83.8805 10.3492 83.8805 10.8322V11.227L82.5535 11.2984ZM83.881 11.8911V12.2735C83.8599 12.5649 83.7129 12.8359 83.4738 13.0244C83.2347 13.2128 82.9239 13.3026 82.6125 13.2732C82.0866 13.2732 81.7041 13.0337 81.7041 12.6221C81.7041 12.2189 82.0101 12.0047 82.6847 11.9625L83.881 11.8911Z" fill="white"/>
<path fill-rule="evenodd" clip-rule="evenodd" d="M88.1468 9.3078C86.9091 9.3078 86.1133 10.2233 86.1133 11.6683C86.1133 13.1169 86.9006 14.0324 88.1468 14.0323C88.7786 14.054 89.3712 13.7467 89.6852 13.2344H89.7617V13.9569H90.6881V7.59839H89.7213V10.1101H89.6491C89.3571 9.59355 88.7718 9.28092 88.1468 9.3078ZM88.4203 13.2223C87.6012 13.2223 87.1114 12.6386 87.1114 11.6686H87.1113C87.1113 10.7065 87.6064 10.1189 88.4203 10.1189C89.2299 10.1189 89.7388 10.7194 89.7388 11.6726C89.7388 12.6302 89.2352 13.2223 88.4203 13.2223Z" fill="white"/>
<path fill-rule="evenodd" clip-rule="evenodd" d="M95.1645 7.46641C94.9321 7.56793 94.7896 7.7916 94.8048 8.0308C94.8063 8.18223 94.8739 8.32653 94.992 8.43034C95.11 8.53414 95.2683 8.58847 95.4302 8.58076C95.6867 8.58055 95.9171 8.43417 96.0116 8.21139C96.1061 7.98862 96.0455 7.73455 95.8587 7.5703C95.672 7.40606 95.3968 7.36488 95.1645 7.46641ZM95.9109 9.38332H94.9479V13.9566H95.9109V9.38332Z" fill="white"/>
<path d="M97.4717 9.38388H98.4024V10.1104H98.4746C98.7259 9.57549 99.313 9.24828 99.9365 9.2956C100.419 9.26171 100.893 9.43463 101.222 9.76553C101.552 10.0964 101.703 10.5494 101.632 10.9966V13.9571H100.665V11.2232C100.665 10.4883 100.323 10.1228 99.6083 10.1228C99.2807 10.1085 98.9629 10.2285 98.7381 10.4513C98.5132 10.6741 98.4038 10.9774 98.4385 11.2817V13.9572H97.4717L97.4717 9.38388Z" fill="white"/>
<path fill-rule="evenodd" clip-rule="evenodd" d="M107.576 9.3078C106.339 9.3078 105.543 10.2233 105.543 11.6683C105.543 13.1169 106.33 14.0324 107.576 14.0323C108.208 14.054 108.801 13.7467 109.115 13.2344H109.191V13.9569H110.118V7.59839H109.151V10.1101H109.079C108.787 9.59355 108.201 9.28092 107.576 9.3078ZM107.85 13.2223C107.031 13.2223 106.541 12.6386 106.541 11.6686H106.541C106.541 10.7065 107.036 10.1189 107.85 10.1189C108.66 10.1189 109.168 10.7194 109.168 11.6726C109.168 12.6302 108.665 13.2223 107.85 13.2223Z" fill="white"/>
<path fill-rule="evenodd" clip-rule="evenodd" d="M113.724 14.0453C114.682 14.1422 115.576 13.5849 115.847 12.7222L114.916 12.7222C114.684 13.1106 114.224 13.3296 113.751 13.2766C113.386 13.2804 113.037 13.1404 112.788 12.8909C112.54 12.6415 112.416 12.3058 112.446 11.9665V11.9159H115.906V11.6009C115.906 10.1649 115.083 9.29549 113.72 9.29549C113.065 9.29027 112.44 9.55059 112.007 10.009C111.573 10.4674 111.374 11.0788 111.461 11.6848C111.372 12.2891 111.572 12.8995 112.008 13.3541C112.443 13.8086 113.071 14.0614 113.724 14.0453ZM114.921 11.2481H112.447C112.442 10.9327 112.574 10.6291 112.813 10.406C113.052 10.1829 113.377 10.0594 113.715 10.0633C114.048 10.0562 114.369 10.1808 114.599 10.4064C114.829 10.632 114.946 10.9377 114.921 11.2481Z" fill="white"/>
</svg>
