<svg width="142" height="42" viewBox="0 0 142 42" fill="none" xmlns="http://www.w3.org/2000/svg">
<rect width="142" height="42" rx="7" fill="white"/>
<path fill-rule="evenodd" clip-rule="evenodd" d="M46.0981 13.4411C46.9282 13.4411 47.7243 13.1125 48.311 12.5277H48.3009C49.4863 11.2801 49.4863 9.32759 48.3009 8.08001C47.7159 7.49581 46.9215 7.16748 46.0931 7.16748C45.2646 7.16748 44.4702 7.49581 43.8852 8.08001C42.7049 9.32958 42.7049 11.2782 43.8852 12.5277C44.472 13.1125 45.268 13.4411 46.0981 13.4411ZM46.0975 12.7097C45.4813 12.7097 44.8908 12.4638 44.4579 12.027C43.5581 11.0531 43.5581 9.55486 44.4579 8.58101C44.8908 8.1442 45.4813 7.8983 46.0975 7.8983C46.7137 7.8983 47.3042 8.1442 47.737 8.58101C48.6227 9.56033 48.6227 11.0477 47.737 12.027C47.3042 12.4638 46.7137 12.7097 46.0975 12.7097Z" fill="#222222"/>
<path d="M48.311 12.5277L48.3937 12.6107L48.5946 12.4105H48.311V12.5277ZM48.3009 12.5277L48.216 12.447L48.0279 12.6449H48.3009V12.5277ZM48.3009 8.08001L48.3859 7.99926L48.3837 7.99708L48.3009 8.08001ZM43.8852 8.08001L43.8024 7.99705L43.8 7.99954L43.8852 8.08001ZM43.8852 12.5277L43.8 12.6082L43.8025 12.6107L43.8852 12.5277ZM44.4579 12.027L44.3718 12.1066L44.3747 12.1095L44.4579 12.027ZM44.4579 8.58101L44.3746 8.49848L44.3719 8.50148L44.4579 8.58101ZM47.737 8.58101L47.824 8.50232L47.8203 8.49853L47.737 8.58101ZM47.737 12.027L47.8204 12.1096L47.8239 12.1056L47.737 12.027ZM48.2283 12.4447C47.6636 13.0076 46.8973 13.3239 46.0981 13.3239V13.5583C46.9591 13.5583 47.785 13.2175 48.3937 12.6107L48.2283 12.4447ZM48.3009 12.6449H48.311V12.4105H48.3009V12.6449ZM48.216 8.16072C49.3583 9.36307 49.3583 11.2447 48.216 12.447L48.3859 12.6084C49.6142 11.3156 49.6142 9.2921 48.3859 7.99929L48.216 8.16072ZM46.0931 7.28467C46.8905 7.28467 47.6551 7.60073 48.2181 8.16293L48.3837 7.99708C47.7767 7.3909 46.9525 7.05029 46.0931 7.05029V7.28467ZM43.968 8.16293C44.531 7.60073 45.2956 7.28467 46.0931 7.28467V7.05029C45.2337 7.05029 44.4095 7.3909 43.8024 7.99708L43.968 8.16293ZM43.9704 12.4473C42.8328 11.2428 42.8328 9.36488 43.9704 8.16048L43.8 7.99954C42.5771 9.29427 42.5771 11.3135 43.8 12.6082L43.9704 12.4473ZM46.0981 13.3239C45.299 13.3239 44.5327 13.0076 43.968 12.4447L43.8025 12.6107C44.4112 13.2175 45.2371 13.5583 46.0981 13.5583V13.3239ZM44.3747 12.1095C44.8296 12.5686 45.4501 12.8269 46.0975 12.8269V12.5925C45.5125 12.5925 44.9519 12.3591 44.5412 11.9445L44.3747 12.1095ZM44.3719 8.50148C43.4305 9.52023 43.4305 11.0878 44.3719 12.1065L44.544 11.9475C43.6856 11.0185 43.6856 9.58949 44.544 8.66054L44.3719 8.50148ZM46.0975 7.78112C45.4501 7.78112 44.8296 8.03945 44.3747 8.49853L44.5412 8.66349C44.9519 8.24894 45.5125 8.01549 46.0975 8.01549V7.78112ZM47.8203 8.49853C47.3654 8.03945 46.7449 7.78112 46.0975 7.78112V8.01549C46.6825 8.01549 47.243 8.24894 47.6538 8.66349L47.8203 8.49853ZM47.8239 12.1056C48.75 11.0817 48.75 9.52635 47.8239 8.50241L47.6501 8.65962C48.4955 9.5943 48.4955 11.0137 47.6501 11.9484L47.8239 12.1056ZM46.0975 12.8269C46.7449 12.8269 47.3654 12.5686 47.8203 12.1095L47.6538 11.9445C47.243 12.3591 46.6825 12.5925 46.0975 12.5925V12.8269Z" fill="#222222"/>
<path d="M50.2812 13.3088V7.2984H51.2268L54.1236 11.9765V10.8145V7.2984H54.8981V13.3088H54.1236L51.106 8.41033V9.56233V13.3088H50.2812Z" fill="#222222" stroke="#222222" stroke-width="0.234375"/>
<path d="M58.3784 13.3088H57.6039V8.03963H55.9141V7.29834H60.0582V8.03963H58.3784V13.3088Z" fill="#222222" stroke="#222222" stroke-width="0.234375"/>
<path fill-rule="evenodd" clip-rule="evenodd" d="M61.0449 7.29823V13.3087H62.8856C63.7096 13.3457 64.5128 13.0453 65.1086 12.4772C65.6768 11.8988 65.979 11.1118 65.9434 10.3034C65.979 9.49504 65.6768 8.70807 65.1086 8.12967C64.5128 7.56162 63.7096 7.26118 62.8856 7.29823H61.0449ZM62.8855 12.5672H61.8193V8.03932H62.9157C63.5333 7.98688 64.1426 8.2085 64.5808 8.64496C65.0191 9.08142 65.2416 9.68823 65.1889 10.3032C65.2133 10.9251 64.9806 11.5297 64.5452 11.9761C64.092 12.3835 63.4954 12.596 62.8855 12.5672Z" fill="#222222"/>
<path d="M61.0449 13.3087H60.9277V13.4258H61.0449V13.3087ZM61.0449 7.29823V7.18104H60.9277V7.29823H61.0449ZM62.8856 13.3087L62.8909 13.1915H62.8856V13.3087ZM65.1086 12.4772L65.1895 12.5621L65.1922 12.5593L65.1086 12.4772ZM65.9434 10.3034L65.8259 10.2983L65.8264 10.3086L65.9434 10.3034ZM65.1086 8.12967L65.1922 8.0475L65.1894 8.04486L65.1086 8.12967ZM62.8856 7.29823V7.41553L62.8909 7.4153L62.8856 7.29823ZM61.8193 12.5672H61.7021V12.6844H61.8193V12.5672ZM62.8855 12.5672L62.8911 12.45H62.8855V12.5672ZM61.8193 8.03932V7.92213H61.7021V8.03932H61.8193ZM62.9157 8.03932V8.15693L62.9256 8.15608L62.9157 8.03932ZM64.5808 8.64496L64.4981 8.72799L64.5808 8.64496ZM65.1889 10.3032L65.0722 10.2932L65.0716 10.3005L65.0718 10.3078L65.1889 10.3032ZM64.5452 11.9761L64.6237 12.0635L64.6291 12.058L64.5452 11.9761ZM61.1621 13.3087V7.29823H60.9277V13.3087H61.1621ZM62.8856 13.1915H61.0449V13.4258H62.8856V13.1915ZM65.0277 12.3924C64.4551 12.9384 63.683 13.2272 62.8909 13.1916L62.8804 13.4257C63.7361 13.4642 64.5705 13.1522 65.1894 12.562L65.0277 12.3924ZM65.8264 10.3086C65.8605 11.0844 65.5705 11.8398 65.025 12.3951L65.1922 12.5593C65.7831 11.9578 66.0975 11.1392 66.0605 10.2983L65.8264 10.3086ZM65.025 8.2118C65.5705 8.76705 65.8605 9.52244 65.8264 10.2983L66.0605 10.3086C66.0975 9.46764 65.7831 8.64908 65.1922 8.04755L65.025 8.2118ZM62.8909 7.4153C63.683 7.37968 64.4551 7.66852 65.0277 8.21448L65.1894 8.04486C64.5705 7.45472 63.7361 7.14268 62.8804 7.18116L62.8909 7.4153ZM61.0449 7.41542H62.8856V7.18104H61.0449V7.41542ZM61.8193 12.6844H62.8855V12.45H61.8193V12.6844ZM61.7021 8.03932V12.5672H61.9365V8.03932H61.7021ZM62.9157 7.92213H61.8193V8.1565H62.9157V7.92213ZM64.6635 8.56192C64.2008 8.1011 63.5576 7.8672 62.9058 7.92255L62.9256 8.15608C63.5089 8.10655 64.0843 8.3159 64.4981 8.72799L64.6635 8.56192ZM65.3057 10.3132C65.3613 9.66362 65.1262 9.02278 64.6635 8.56192L64.4981 8.72799C64.9119 9.14006 65.1219 9.71284 65.0722 10.2932L65.3057 10.3132ZM64.6291 12.058C65.0869 11.5886 65.3316 10.9527 65.306 10.2987L65.0718 10.3078C65.0949 10.8975 64.8743 11.4709 64.4613 11.8943L64.6291 12.058ZM62.88 12.6842C63.5206 12.7145 64.1473 12.4914 64.6235 12.0633L64.4669 11.889C64.0366 12.2757 63.4702 12.4775 62.8911 12.4501L62.88 12.6842Z" fill="#222222"/>
<path d="M70.5618 8.03969H67.8058V9.94299H70.2902V10.6642H67.8058V12.5675H70.5618V13.3088H67.0312V7.2984H70.5618V8.03969Z" fill="#222222" stroke="#222222" stroke-width="0.234375"/>
<path d="M76.2547 7.2984L74.0116 9.88289L76.3955 13.3088H75.3896L73.3779 10.504L72.4425 11.5758V13.3088H71.668V7.2984H72.4425V10.3938L75.2488 7.2984H76.2547Z" fill="#222222" stroke="#222222" stroke-width="0.234375"/>
<path d="M79.2012 13.3088V7.29834H79.9857V9.87281H83.0033V7.29834H83.7778V13.3088H83.0033V10.5941H79.9857V13.3088H79.2012Z" fill="#222222" stroke="#222222" stroke-width="0.234375"/>
<path d="M88.6767 8.03975H85.9308V9.94305H88.4152V10.6643H85.9308V12.5676H88.6767V13.3089H85.1562V7.29846H88.6767V8.03975Z" fill="#222222" stroke="#222222" stroke-width="0.234375"/>
<path d="M91.9546 13.3088H91.17V8.03963H89.4902V7.29834H93.6344V8.03963H91.9546V13.3088Z" fill="#222222" stroke="#222222" stroke-width="0.234375"/>
<path fill-rule="evenodd" clip-rule="evenodd" d="M99.2775 13.4411C100.108 13.4411 100.904 13.1125 101.49 12.5277H101.48C102.666 11.2801 102.666 9.32759 101.48 8.08001C100.895 7.49581 100.101 7.16748 99.2725 7.16748C98.444 7.16748 97.6496 7.49581 97.0646 8.08001C95.8691 9.32352 95.8691 11.2842 97.0646 12.5277C97.6514 13.1125 98.4474 13.4411 99.2775 13.4411ZM99.2773 12.7096C98.6611 12.7096 98.0706 12.4637 97.6378 12.0269C96.7379 11.053 96.7379 9.55475 97.6378 8.5809C98.0706 8.14408 98.6611 7.89819 99.2773 7.89819C99.8935 7.89819 100.484 8.14408 100.917 8.5809C101.803 9.56022 101.803 11.0476 100.917 12.0269C100.484 12.4637 99.8935 12.7096 99.2773 12.7096Z" fill="#222222"/>
<path d="M101.49 12.5277L101.573 12.6107L101.774 12.4105H101.49V12.5277ZM101.48 12.5277L101.395 12.447L101.207 12.6449H101.48V12.5277ZM101.48 8.08001L101.565 7.99926L101.563 7.99708L101.48 8.08001ZM97.0646 8.08001L96.9818 7.99707L96.9802 7.99879L97.0646 8.08001ZM97.0646 12.5277L96.9801 12.609L96.9819 12.6107L97.0646 12.5277ZM97.6378 12.0269L97.5517 12.1065L97.5546 12.1094L97.6378 12.0269ZM97.6378 8.5809L97.5545 8.49837L97.5517 8.50137L97.6378 8.5809ZM100.917 8.5809L101.004 8.50221L101 8.49842L100.917 8.5809ZM100.917 12.0269L101 12.1094L101.004 12.1055L100.917 12.0269ZM101.408 12.4447C100.843 13.0076 100.077 13.3239 99.2775 13.3239V13.5583C100.139 13.5583 100.964 13.2175 101.573 12.6107L101.408 12.4447ZM101.48 12.6449H101.49V12.4105H101.48V12.6449ZM101.395 8.16072C102.538 9.36307 102.538 11.2447 101.395 12.447L101.565 12.6084C102.794 11.3156 102.794 9.2921 101.565 7.99929L101.395 8.16072ZM99.2725 7.28467C100.07 7.28467 100.835 7.60073 101.398 8.16293L101.563 7.99708C100.956 7.3909 100.132 7.05029 99.2725 7.05029V7.28467ZM97.1474 8.16293C97.7104 7.60073 98.475 7.28467 99.2725 7.28467V7.05029C98.413 7.05029 97.5889 7.3909 96.9818 7.99708L97.1474 8.16293ZM97.1491 12.4465C95.9972 11.2484 95.9972 9.35938 97.1491 8.16122L96.9802 7.99879C95.741 9.28767 95.741 11.3201 96.9802 12.6089L97.1491 12.4465ZM99.2775 13.3239C98.4784 13.3239 97.7121 13.0076 97.1474 12.4447L96.9819 12.6107C97.5906 13.2175 98.4165 13.5583 99.2775 13.5583V13.3239ZM97.5546 12.1094C98.0094 12.5684 98.6299 12.8268 99.2773 12.8268V12.5924C98.6923 12.5924 98.1318 12.359 97.721 11.9444L97.5546 12.1094ZM97.5517 8.50137C96.6104 9.52012 96.6104 11.0877 97.5517 12.1064L97.7239 11.9473C96.8655 11.0184 96.8655 9.58938 97.7239 8.66043L97.5517 8.50137ZM99.2773 7.78101C98.6299 7.78101 98.0094 8.03934 97.5546 8.49842L97.721 8.66338C98.1318 8.24883 98.6923 8.01538 99.2773 8.01538V7.78101ZM101 8.49842C100.545 8.03934 99.9247 7.78101 99.2773 7.78101V8.01538C99.8624 8.01538 100.423 8.24883 100.834 8.66338L101 8.49842ZM101.004 12.1055C101.93 11.0815 101.93 9.52624 101.004 8.50229L100.83 8.65951C101.675 9.59419 101.675 11.0136 100.83 11.9483L101.004 12.1055ZM99.2773 12.8268C99.9247 12.8268 100.545 12.5684 101 12.1094L100.834 11.9444C100.423 12.359 99.8624 12.5924 99.2773 12.5924V12.8268Z" fill="#222222"/>
<path fill-rule="evenodd" clip-rule="evenodd" d="M103.461 13.309H104.235L104.185 10.8748H105.473C105.965 10.8832 106.441 10.6999 106.8 10.3639C107.154 10.0326 107.355 9.57042 107.355 9.08672C107.355 8.60302 107.154 8.14082 106.8 7.8095C106.441 7.47349 105.965 7.2902 105.473 7.29862H103.461V13.309ZM105.533 10.133H104.235V8.03938H105.533C105.829 8.02586 106.116 8.14315 106.317 8.35994C106.517 8.54906 106.631 8.81161 106.631 9.0862C106.631 9.36079 106.517 9.62334 106.317 9.81246C106.116 10.0292 105.829 10.1465 105.533 10.133Z" fill="#222222"/>
<path d="M104.235 13.309V13.4262H104.355L104.353 13.3066L104.235 13.309ZM103.461 13.309H103.344V13.4262H103.461V13.309ZM104.185 10.8748V10.7576H104.066L104.068 10.8772L104.185 10.8748ZM105.473 10.8748L105.475 10.7576H105.473V10.8748ZM106.8 10.3639L106.88 10.4495L106.88 10.4495L106.8 10.3639ZM106.8 7.8095L106.88 7.72396L106.88 7.72396L106.8 7.8095ZM105.473 7.29862V7.41582L105.475 7.41579L105.473 7.29862ZM103.461 7.29862V7.18143H103.344V7.29862H103.461ZM104.235 10.133H104.118V10.2502H104.235V10.133ZM105.533 10.133L105.538 10.0158H105.533V10.133ZM104.235 8.03938V7.9222H104.118V8.03938H104.235ZM105.533 8.03938V8.15669L105.538 8.15645L105.533 8.03938ZM106.317 8.35994L106.231 8.43985L106.237 8.44507L106.317 8.35994ZM106.317 9.81246L106.237 9.72716L106.232 9.73272L106.317 9.81246ZM104.235 13.1919H103.461V13.4262H104.235V13.1919ZM104.068 10.8772L104.118 13.3115L104.353 13.3066L104.302 10.8724L104.068 10.8772ZM105.473 10.7576H104.185V10.992H105.473V10.7576ZM106.72 10.2784C106.384 10.5936 105.937 10.7656 105.475 10.7577L105.471 10.992C105.993 11.0009 106.499 10.8063 106.88 10.4495L106.72 10.2784ZM107.238 9.08672C107.238 9.53792 107.051 9.96918 106.72 10.2784L106.88 10.4495C107.258 10.0961 107.472 9.60291 107.472 9.08672H107.238ZM106.72 7.89505C107.051 8.20426 107.238 8.63552 107.238 9.08672H107.472C107.472 8.57053 107.258 8.07738 106.88 7.72396L106.72 7.89505ZM105.475 7.41579C105.937 7.40789 106.384 7.57989 106.72 7.89505L106.88 7.72396C106.499 7.3671 105.993 7.17251 105.471 7.18145L105.475 7.41579ZM103.461 7.41581H105.473V7.18143H103.461V7.41581ZM103.578 13.309V7.29862H103.344V13.309H103.578ZM104.235 10.2502H105.533V10.0158H104.235V10.2502ZM104.118 8.03938V10.133H104.353V8.03938H104.118ZM105.533 7.9222H104.235V8.15657H105.533V7.9222ZM106.403 8.2802C106.179 8.0381 105.858 7.90722 105.528 7.92232L105.538 8.15645C105.8 8.14449 106.054 8.2482 106.232 8.43968L106.403 8.2802ZM106.748 9.0862C106.748 8.77933 106.621 8.48602 106.398 8.27481L106.237 8.44507C106.413 8.61211 106.513 8.8439 106.513 9.0862H106.748ZM106.398 9.89759C106.621 9.68638 106.748 9.39307 106.748 9.0862H106.513C106.513 9.3285 106.413 9.56029 106.237 9.72734L106.398 9.89759ZM105.528 10.2501C105.858 10.2652 106.179 10.1343 106.403 9.8922L106.232 9.73272C106.054 9.9242 105.8 10.0279 105.538 10.016L105.528 10.2501Z" fill="#222222"/>
<path d="M71.1489 22.9311C68.6915 22.9311 66.6885 24.8085 66.6885 27.3967C66.6885 29.9682 68.6915 31.8624 71.1489 31.8624C73.6064 31.8624 75.6094 29.9682 75.6094 27.3967C75.6094 24.8085 73.6064 22.9311 71.1489 22.9311ZM71.1489 30.1036C69.8021 30.1036 68.6403 28.9875 68.6403 27.3967C68.6403 25.7892 69.8021 24.6898 71.1489 24.6898C72.4957 24.6898 73.6566 25.7892 73.6566 27.3967C73.6566 28.9864 72.4957 30.1036 71.1489 30.1036ZM61.4172 22.9311C58.9597 22.9311 56.9568 24.8085 56.9568 27.3967C56.9568 29.9682 58.9597 31.8624 61.4172 31.8624C63.8747 31.8624 65.8777 29.9682 65.8777 27.3967C65.8787 24.8085 63.8747 22.9311 61.4172 22.9311ZM61.4172 30.1036C60.0704 30.1036 58.9096 28.9875 58.9096 27.3967C58.9096 25.7892 60.0715 24.6898 61.4172 24.6898C62.764 24.6898 63.9249 25.7892 63.9249 27.3967C63.9259 28.9864 62.764 30.1036 61.4172 30.1036ZM49.8424 24.3013V26.1955H54.3541C54.2193 27.2613 53.8661 28.0393 53.327 28.5811C52.6708 29.2405 51.6437 29.9682 49.8424 29.9682C47.0652 29.9682 44.894 27.718 44.894 24.9271C44.894 22.1362 47.0652 19.8861 49.8424 19.8861C51.3407 19.8861 52.4347 20.4783 53.2423 21.2395L54.5724 19.9029C53.445 18.8203 51.9467 17.9908 49.8424 17.9908C46.0381 17.9908 42.8398 21.103 42.8398 24.9261C42.8398 28.7491 46.0381 31.8613 49.8424 31.8613C51.8955 31.8613 53.445 31.1851 54.6571 29.9157C55.9025 28.6641 56.2902 26.9043 56.2902 25.4836C56.2902 25.0437 56.2567 24.6373 56.1888 24.2992H49.8424V24.3013ZM97.1824 25.7724C96.8125 24.7738 95.684 22.93 93.3781 22.93C91.0888 22.93 89.1872 24.7402 89.1872 27.3957C89.1872 29.8989 91.0721 31.8613 93.5975 31.8613C95.6339 31.8613 96.8125 30.6097 97.3004 29.8821L95.7854 28.8667C95.2807 29.6112 94.5901 30.1015 93.5975 30.1015C92.6038 30.1015 91.8975 29.6448 91.443 28.7481L97.3851 26.2785L97.1824 25.7724ZM91.1222 27.2613C91.0721 25.5361 92.4523 24.6562 93.4449 24.6562C94.2192 24.6562 94.8753 25.0447 95.0947 25.6033L91.1222 27.2613ZM86.2909 31.5915H88.2437V18.4654H86.2909V31.5915ZM83.0926 23.9286H83.0257C82.5879 23.4046 81.7468 22.93 80.6863 22.93C78.4639 22.93 76.4275 24.8925 76.4275 27.4125C76.4275 29.9157 78.4639 31.8613 80.6863 31.8613C81.7468 31.8613 82.5879 31.3878 83.0257 30.846H83.0926V31.4886C83.0926 33.1969 82.1836 34.1104 80.7187 34.1104C79.5234 34.1104 78.7826 33.2473 78.4796 32.5207L76.7796 33.2316C77.2676 34.416 78.5642 35.8702 80.7187 35.8702C83.0079 35.8702 84.944 34.5168 84.944 31.2187V23.2009H83.0926V23.9286ZM80.8545 30.1036C79.5077 30.1036 78.3803 28.9707 78.3803 27.4135C78.3803 25.8406 79.5077 24.6898 80.8545 24.6898C82.1846 24.6898 83.2274 25.8396 83.2274 27.4135C83.2274 28.9696 82.1846 30.1036 80.8545 30.1036ZM106.329 18.4654H101.657V31.5915H103.606V26.6187H106.328C108.489 26.6187 110.613 25.0468 110.613 22.5426C110.613 20.0383 108.49 18.4654 106.329 18.4654ZM106.379 24.7917H103.606V20.2924H106.379C107.837 20.2924 108.664 21.5052 108.664 22.5426C108.664 23.559 107.837 24.7917 106.379 24.7917ZM118.428 22.9069C117.017 22.9069 115.555 23.5317 114.95 24.9166L116.681 25.6432C117.051 24.9166 117.74 24.6804 118.463 24.6804C119.471 24.6804 120.496 25.2883 120.513 26.3688V26.5042C120.16 26.3016 119.403 25.9971 118.479 25.9971C116.614 25.9971 114.715 27.0271 114.715 28.9528C114.715 30.7095 116.245 31.8403 117.958 31.8403C119.269 31.8403 119.991 31.2492 120.445 30.5572H120.512V31.5705H122.393V26.5378C122.393 24.2068 120.663 22.9069 118.428 22.9069ZM118.192 30.1005C117.554 30.1005 116.662 29.7792 116.662 28.9864C116.662 27.9732 117.772 27.5847 118.729 27.5847C119.586 27.5847 119.989 27.7705 120.511 28.0236C120.36 29.2395 119.318 30.1005 118.192 30.1005ZM129.25 23.1936L127.015 28.8846H126.948L124.629 23.1936H122.529L126.008 31.1473L124.024 35.572H126.058L131.419 23.1936H129.25ZM111.689 31.5915H113.639V18.4654H111.689V31.5915Z" fill="#222222"/>
<path d="M10.8529 7.98223C10.5489 8.30563 10.3691 8.80753 10.3691 9.45748V32.6793C10.3691 33.3303 10.5489 33.8311 10.8529 34.1545L10.9302 34.2301L23.8748 21.2217V21.0684V20.9151L10.9302 7.90558L10.8529 7.98223Z" fill="url(#paint0_linear_14_1216)"/>
<path d="M28.1911 25.5602L23.877 21.2227V21.0694V20.9161L28.1922 16.5796L28.2893 16.6352L33.4018 19.5542C34.8625 20.3879 34.8625 21.7519 33.4018 22.5866L28.2893 25.5056L28.1911 25.5602Z" fill="url(#paint1_linear_14_1216)"/>
<path d="M28.2869 25.5036L23.8745 21.0684L10.8516 34.1545C11.3332 34.6669 12.1273 34.7299 13.0228 34.2186L28.2869 25.5036Z" fill="url(#paint2_linear_14_1216)"/>
<path d="M28.2878 16.6332L13.0247 7.91823C12.1293 7.40688 11.3352 7.47093 10.8535 7.98228L23.8754 21.0684L28.2878 16.6332Z" fill="url(#paint3_linear_14_1216)"/>
<path opacity="0.2" d="M28.1898 25.406L13.0238 34.0654C12.1754 34.5494 11.4168 34.5179 10.9299 34.0769L10.8516 34.1557L10.9289 34.2313C11.4158 34.6723 12.1743 34.7048 13.0228 34.2197L28.2859 25.5047L28.1898 25.406Z" fill="#222222"/>
<path opacity="0.12" d="M10.8519 34.0013C10.5485 33.6779 10.3691 33.176 10.3691 32.526V32.6793C10.3691 33.3293 10.5485 33.8312 10.8519 34.1546L10.9301 34.0758L10.8519 34.0013Z" fill="#222222"/>
<path opacity="0.12" d="M33.401 22.4312L28.1914 25.4058L28.2886 25.5035L33.401 22.5845C34.1314 22.1676 34.496 21.6185 34.496 21.0693C34.4344 21.566 34.0624 22.0532 33.401 22.4312Z" fill="#222222"/>
<path opacity="0.25" d="M13.0241 8.0715L33.3997 19.7055C34.0621 20.0835 34.433 20.5707 34.4947 21.0684C34.4947 20.5193 34.13 19.9691 33.3997 19.5522L13.0241 7.9182C11.5634 7.0845 10.3691 7.77645 10.3691 9.4575V9.61185C10.3691 7.9308 11.5644 7.2378 13.0241 8.0715Z" fill="white"/>
<defs>
<linearGradient id="paint0_linear_14_1216" x1="22.7272" y1="9.21262" x2="5.10586" y2="26.7474" gradientUnits="userSpaceOnUse">
<stop stop-color="#00A0FF"/>
<stop offset="0.0066" stop-color="#00A1FF"/>
<stop offset="0.2601" stop-color="#00BEFF"/>
<stop offset="0.5122" stop-color="#00D2FF"/>
<stop offset="0.7604" stop-color="#00DFFF"/>
<stop offset="1" stop-color="#00E3FF"/>
</linearGradient>
<linearGradient id="paint1_linear_14_1216" x1="35.3027" y1="21.0689" x2="10.0206" y2="21.0689" gradientUnits="userSpaceOnUse">
<stop stop-color="#FFE000"/>
<stop offset="0.4087" stop-color="#FFBD00"/>
<stop offset="0.7754" stop-color="#FFA500"/>
<stop offset="1" stop-color="#FF9C00"/>
</linearGradient>
<linearGradient id="paint2_linear_14_1216" x1="25.8889" y1="23.4783" x2="1.99296" y2="47.257" gradientUnits="userSpaceOnUse">
<stop stop-color="#FF3A44"/>
<stop offset="1" stop-color="#C31162"/>
</linearGradient>
<linearGradient id="paint3_linear_14_1216" x1="7.57395" y1="0.252497" x2="18.2446" y2="10.8706" gradientUnits="userSpaceOnUse">
<stop stop-color="#32A071"/>
<stop offset="0.0685" stop-color="#2DA771"/>
<stop offset="0.4762" stop-color="#15CF74"/>
<stop offset="0.8009" stop-color="#06E775"/>
<stop offset="1" stop-color="#00F076"/>
</linearGradient>
</defs>
</svg>
