<svg width="142" height="42" viewBox="0 0 142 42" fill="none" xmlns="http://www.w3.org/2000/svg">
<rect width="142" height="42" rx="7" fill="white"/>
<path d="M33.6861 21.2299C33.7108 19.4382 34.717 17.7832 36.3522 16.8447C35.316 15.4632 33.6426 14.6187 31.8368 14.5659C29.937 14.3798 28.0953 15.6272 27.1271 15.6272C26.1403 15.6272 24.6498 14.5844 23.0447 14.6152C20.9328 14.6789 19.0118 15.7727 17.9843 17.4963C15.7963 21.0327 17.4284 26.23 19.5243 29.0886C20.5729 30.4883 21.7985 32.0519 23.4021 31.9964C24.9713 31.9357 25.5574 31.0623 27.4516 31.0623C29.3282 31.0623 29.8781 31.9964 31.5143 31.9612C33.1981 31.9357 34.259 30.5552 35.2709 29.1422C36.0244 28.1448 36.6041 27.0425 36.9888 25.8761C34.9888 25.0864 33.6884 23.257 33.6861 21.2299Z" fill="#222222"/>
<path d="M30.5948 12.6866C31.513 11.6577 31.9653 10.3352 31.8557 9C30.4531 9.13753 29.1574 9.76336 28.2269 10.7528C27.308 11.729 26.8426 13.0061 26.933 14.3029C28.3544 14.3165 29.7041 13.7208 30.5948 12.6866Z" fill="#222222"/>
<path fill-rule="evenodd" clip-rule="evenodd" d="M47.3632 28.5947H52.5128L53.7484 32.0036H55.9668L51.0891 19.3916H48.823L43.9453 32.0036H46.1265L47.3632 28.5947ZM51.9783 27.0221H47.8964L49.9098 21.4897H49.9661L51.9783 27.0221Z" fill="#222222"/>
<path fill-rule="evenodd" clip-rule="evenodd" d="M62.3904 32.0992C64.8627 32.0992 66.501 30.2634 66.501 27.4059C66.501 24.5564 64.8531 22.7117 62.3532 22.7117C61.0668 22.6729 59.8618 23.2975 59.2168 24.3373H59.1797V22.8079H57.2227V35.0449H59.2445V30.4905H59.2913C59.9088 31.5368 61.1125 32.1616 62.3904 32.0992ZM61.8202 24.3206C63.3926 24.3206 64.4232 25.5445 64.4232 27.4061C64.4232 29.2846 63.3926 30.4996 61.8202 30.4996C60.2754 30.4996 59.2363 29.2588 59.2363 27.4061C59.2363 25.5702 60.2754 24.3206 61.8202 24.3206Z" fill="#222222"/>
<path fill-rule="evenodd" clip-rule="evenodd" d="M73.2322 32.0993C75.7045 32.0993 77.3433 30.2635 77.3433 27.4061C77.3433 24.5566 75.6949 22.7118 73.195 22.7118C71.9086 22.6731 70.7036 23.2976 70.0587 24.3374H70.0215V22.808H68.0645V35.045H70.0863V30.4906H70.1331C70.7506 31.5369 71.9543 32.1618 73.2322 32.0993ZM72.662 24.3207C74.2344 24.3207 75.265 25.5446 75.265 27.4062H75.2649C75.2649 29.2847 74.2344 30.4997 72.662 30.4997C71.1172 30.4997 70.0782 29.259 70.0782 27.4062C70.0782 25.5704 71.1172 24.3207 72.662 24.3207Z" fill="#222222"/>
<path d="M84.5072 28.4899C84.657 29.7406 85.9585 30.5618 87.737 30.5618C89.4411 30.5618 90.6672 29.7406 90.6672 28.6128C90.6672 27.6339 89.9277 27.0478 88.1768 26.6461L86.4259 26.2523C83.9452 25.6929 82.7935 24.6099 82.7935 22.8524C82.7935 20.6763 84.8249 19.1816 87.7083 19.1816C90.5641 19.1816 92.5211 20.6763 92.587 22.8524H90.5461C90.4239 21.5937 89.3094 20.834 87.6807 20.834C86.0519 20.834 84.9375 21.6027 84.9375 22.7214C84.9375 23.6131 85.6493 24.1378 87.3906 24.5394L88.8791 24.8806C91.651 25.4926 92.8016 26.532 92.8016 28.3768C92.8016 30.7363 90.7894 32.2141 87.5871 32.2141C84.5911 32.2141 82.5682 30.771 82.4375 28.4898L84.5072 28.4899Z" fill="#222222"/>
<path d="M97.1667 20.6323V22.8084H99.0397V24.303H97.1667V29.3722C97.1667 30.1597 97.5417 30.5267 98.3651 30.5267C98.5875 30.5231 98.8095 30.5085 99.0302 30.483V31.9688C98.66 32.0333 98.2837 32.0626 97.9072 32.0561C95.913 32.0561 95.1353 31.3568 95.1353 29.5735V24.303H93.7031V22.8084H95.1353V20.6323H97.1667Z" fill="#222222"/>
<path fill-rule="evenodd" clip-rule="evenodd" d="M104.795 22.6958C101.948 22.6958 100.123 24.5138 100.123 27.4069C100.123 30.308 101.93 32.1181 104.795 32.1181C107.66 32.1181 109.467 30.308 109.467 27.4069C109.467 24.5138 107.65 22.6958 104.795 22.6958ZM104.795 24.2515C106.433 24.2515 107.408 25.4228 107.408 27.4074H107.408C107.408 29.4 106.433 30.5624 104.795 30.5624C103.157 30.5624 102.183 29.4 102.183 27.4074C102.183 25.4317 103.157 24.2515 104.795 24.2515Z" fill="#222222"/>
<path d="M111.135 22.8088H113.063V24.3738H113.11C113.379 23.3663 114.368 22.6729 115.479 22.7126C115.712 22.7118 115.944 22.7354 116.172 22.783V24.5484C115.878 24.4645 115.571 24.426 115.263 24.4344C114.669 24.4118 114.094 24.633 113.689 25.0397C113.284 25.4464 113.089 25.9981 113.157 26.5499V32.0039H111.135L111.135 22.8088Z" fill="#222222"/>
<path fill-rule="evenodd" clip-rule="evenodd" d="M121.253 32.1179C123.481 32.1179 125.223 30.9724 125.495 29.3032L123.575 29.3032C123.206 30.1564 122.281 30.6823 121.3 30.5965C120.564 30.6218 119.853 30.3508 119.346 29.8525C118.839 29.3542 118.585 28.6765 118.65 27.992V27.8779H125.607V27.2313C125.607 24.4433 123.893 22.6957 121.168 22.6957C118.397 22.6957 116.609 24.5663 116.609 27.4505C116.609 30.3257 118.388 32.1179 121.253 32.1179ZM123.585 26.5585L118.66 26.5585C118.658 25.9377 118.922 25.342 119.393 24.9037C119.865 24.4655 120.504 24.221 121.169 24.2248C121.828 24.2115 122.464 24.4558 122.923 24.8988C123.381 25.3419 123.621 25.9434 123.585 26.5585Z" fill="#222222"/>
<path fill-rule="evenodd" clip-rule="evenodd" d="M49.9363 10.7281C49.3446 10.1448 48.5039 9.84 47.6456 9.89751H45.3008V15.9575H47.6456C49.5793 15.9575 50.7001 14.8447 50.7001 12.9086C50.8083 12.1117 50.528 11.3114 49.9363 10.7281ZM47.5325 15.1001H46.3086V10.7534H47.5325C48.1427 10.7218 48.736 10.9464 49.1503 11.3658C49.5646 11.7851 49.7564 12.3554 49.6733 12.9206C49.7629 13.4881 49.5738 14.0631 49.1585 14.4859C48.7432 14.9087 48.1459 15.1343 47.5325 15.1001Z" fill="#222222"/>
<path fill-rule="evenodd" clip-rule="evenodd" d="M52.9237 11.6209C52.1742 12.0551 51.7531 12.8484 51.8371 13.6682C51.7515 14.4888 52.1722 15.2836 52.9224 15.7187C53.6726 16.1539 54.6223 16.1539 55.3724 15.7187C56.1226 15.2836 56.5433 14.4888 56.4577 13.6682C56.5417 12.8484 56.1206 12.0551 55.3711 11.6209C54.6216 11.1867 53.6732 11.1867 52.9237 11.6209ZM54.1491 12.0968C54.9863 12.0968 55.4633 12.6765 55.4633 13.6678H55.4633C55.4633 14.6631 54.9863 15.2423 54.1491 15.2423C53.3087 15.2423 52.836 14.6671 52.836 13.6678C52.836 12.6765 53.3087 12.0968 54.1491 12.0968Z" fill="#222222"/>
<path d="M62.6002 15.9566H61.5972L60.5847 12.5884H60.5082L59.5 15.9566H58.5066L57.1562 11.3834H58.1369L59.0145 14.873H59.0867L60.0939 11.3834H61.0214L62.0286 14.873H62.1051L62.9784 11.3834H63.9452L62.6002 15.9566Z" fill="#222222"/>
<path d="M65.082 11.3838H66.0127V12.1103H66.085C66.3362 11.5754 66.9233 11.2482 67.5469 11.2955C68.0297 11.2617 68.5029 11.4346 68.8328 11.7655C69.1626 12.0964 69.3134 12.5494 69.2425 12.9965V15.957H68.2757V13.2232C68.2757 12.4882 67.9336 12.1227 67.2186 12.1227C66.8911 12.1085 66.5733 12.2285 66.3484 12.4512C66.1236 12.674 66.0142 12.9773 66.0488 13.2817V15.9571H65.082V11.3838Z" fill="#222222"/>
<path d="M70.7832 9.59839H71.7494V15.9569H70.7832V9.59839Z" fill="#222222"/>
<path fill-rule="evenodd" clip-rule="evenodd" d="M74.1797 11.6209C73.4301 12.0551 73.009 12.8485 73.093 13.6683C73.0075 14.4889 73.4282 15.2837 74.1784 15.7188C74.9287 16.1539 75.8784 16.1539 76.6286 15.7188C77.3788 15.2837 77.7995 14.4889 77.714 13.6683C77.798 12.8485 77.3769 12.0551 76.6273 11.6209C75.8777 11.1867 74.9293 11.1867 74.1797 11.6209ZM75.405 12.0976C76.2422 12.0976 76.7192 12.6773 76.7192 13.6686C76.7192 14.6639 76.2421 15.2431 75.405 15.2431C74.5646 15.2431 74.0918 14.6679 74.0918 13.6686C74.0918 12.6773 74.5646 12.0976 75.405 12.0976Z" fill="#222222"/>
<path fill-rule="evenodd" clip-rule="evenodd" d="M80.5545 13.2984C79.389 13.3658 78.7324 13.8404 78.7324 14.6636C78.7341 15.0539 78.9125 15.4254 79.2236 15.6862C79.5347 15.9469 79.9495 16.0727 80.3654 16.0323C80.9586 16.0579 81.5208 15.7836 81.8369 15.3143H81.9134V15.957H82.8441V12.8322C82.8441 11.8662 82.1513 11.2954 80.9232 11.2954C79.8119 11.2954 79.0203 11.7992 78.9215 12.5848H79.8575C79.9649 12.2614 80.3388 12.0765 80.8785 12.0765C81.5394 12.0765 81.8815 12.3492 81.8815 12.8322V13.227L80.5545 13.2984ZM81.882 13.8911V14.2735C81.8608 14.5649 81.7139 14.8359 81.4748 15.0244C81.2357 15.2128 80.9249 15.3026 80.6135 15.2732C80.0876 15.2732 79.7051 15.0337 79.7051 14.6221C79.7051 14.2189 80.0111 14.0047 80.6857 13.9625L81.882 13.8911Z" fill="#222222"/>
<path fill-rule="evenodd" clip-rule="evenodd" d="M86.1468 11.308C84.9091 11.308 84.1133 12.2235 84.1133 13.6686C84.1133 15.1171 84.9006 16.0326 86.1468 16.0325C86.7786 16.0543 87.3712 15.7469 87.6852 15.2346H87.7617V15.9572H88.6881V9.59863H87.7213V12.1104H87.6491C87.3571 11.5938 86.7718 11.2812 86.1468 11.308ZM86.4203 15.2225C85.6012 15.2225 85.1114 14.6389 85.1114 13.6689H85.1113C85.1113 12.7068 85.6064 12.1191 86.4203 12.1191C87.2299 12.1191 87.7388 12.7197 87.7388 13.6728C87.7388 14.6304 87.2352 15.2225 86.4203 15.2225Z" fill="#222222"/>
<path fill-rule="evenodd" clip-rule="evenodd" d="M93.1654 9.46641C92.9331 9.56793 92.7906 9.7916 92.8058 10.0308C92.8073 10.1822 92.8749 10.3265 92.993 10.4303C93.111 10.5341 93.2693 10.5885 93.4312 10.5808C93.6877 10.5805 93.9181 10.4342 94.0126 10.2114C94.1071 9.98862 94.0465 9.73455 93.8597 9.5703C93.6729 9.40606 93.3978 9.36488 93.1654 9.46641ZM93.9118 11.3833H92.9488V15.9566H93.9118V11.3833Z" fill="#222222"/>
<path d="M95.4727 11.3839H96.4034V12.1104H96.4756C96.7268 11.5755 97.3139 11.2483 97.9375 11.2956C98.4204 11.2617 98.8935 11.4346 99.2234 11.7655C99.5533 12.0964 99.704 12.5494 99.6332 12.9966V15.9571H98.6664V13.2232C98.6664 12.4883 98.3243 12.1228 97.6092 12.1228C97.2817 12.1085 96.9639 12.2285 96.739 12.4513C96.5142 12.6741 96.4048 12.9774 96.4395 13.2817V15.9572H95.4727L95.4727 11.3839Z" fill="#222222"/>
<path fill-rule="evenodd" clip-rule="evenodd" d="M105.576 11.308C104.339 11.308 103.543 12.2235 103.543 13.6686C103.543 15.1171 104.33 16.0326 105.576 16.0325C106.208 16.0543 106.801 15.7469 107.115 15.2346H107.191V15.9572H108.118V9.59863H107.151V12.1104H107.079C106.787 11.5938 106.201 11.2812 105.576 11.308ZM105.85 15.2225C105.031 15.2225 104.541 14.6389 104.541 13.6689H104.541C104.541 12.7068 105.036 12.1191 105.85 12.1191C106.66 12.1191 107.168 12.7197 107.168 13.6728C107.168 14.6304 106.665 15.2225 105.85 15.2225Z" fill="#222222"/>
<path fill-rule="evenodd" clip-rule="evenodd" d="M111.725 16.0453C112.683 16.1422 113.577 15.5849 113.848 14.7222L112.917 14.7222C112.685 15.1106 112.225 15.3296 111.752 15.2766C111.387 15.2804 111.038 15.1404 110.789 14.8909C110.541 14.6415 110.417 14.3058 110.447 13.9665V13.9159H113.906V13.6009C113.906 12.1649 113.084 11.2955 111.721 11.2955C111.066 11.2903 110.441 11.5506 110.008 12.009C109.574 12.4674 109.375 13.0788 109.462 13.6848C109.373 14.2891 109.573 14.8995 110.008 15.3541C110.444 15.8086 111.072 16.0614 111.725 16.0453ZM112.922 13.2481H110.448C110.443 12.9327 110.575 12.6291 110.814 12.406C111.053 12.1829 111.378 12.0594 111.716 12.0633C112.049 12.0562 112.37 12.1808 112.6 12.4064C112.83 12.632 112.947 12.9377 112.922 13.2481Z" fill="#222222"/>
</svg>
