<svg width="33" height="36" fill="none" xmlns="http://www.w3.org/2000/svg"><rect x=".25" y=".25" width="32.5" height="35.5" rx="3.75" fill="#fff" stroke="#000" stroke-width=".5"/><path fill-rule="evenodd" clip-rule="evenodd" d="M16 4C9.925 4 5 8.921 5 14.992c0 3.044 1.239 5.8 3.24 7.789a.278.278 0 00.436-.061c.937-1.693 2.58-3.016 4.587-3.66A4.904 4.904 0 0116 10.089a4.904 4.904 0 014.906 4.902 4.9 4.9 0 01-2.169 4.069c2.006.644 3.65 1.967 4.587 3.66a.277.277 0 00.435.06A10.95 10.95 0 0027 14.992C27 8.921 22.075 4 16 4z" fill="#305DFC"/><path d="M11.52 25.89l2.324 5.801 2.324-5.8h1.216V33h-.938v-2.769l.088-2.988L14.2 33h-.718l-2.329-5.742.093 2.973V33h-.937v-7.11h1.21zm9.57 7.208c-.716 0-1.299-.235-1.748-.703-.45-.473-.674-1.102-.674-1.89v-.166c0-.524.1-.991.298-1.401.202-.414.482-.736.84-.967a2.112 2.112 0 011.171-.352c.687 0 1.221.226 1.602.679.381.452.571 1.1.571 1.943v.376h-3.579c.013.521.165.943.454 1.265.293.319.665.478 1.114.478.319 0 .589-.065.81-.195.222-.13.415-.303.581-.517l.552.43c-.443.68-1.107 1.02-1.992 1.02zm-.113-4.737c-.364 0-.67.134-.917.4-.248.264-.4.636-.46 1.114h2.647v-.068c-.026-.46-.15-.814-.371-1.065-.221-.254-.52-.38-.899-.38z" fill="#000"/></svg>