<svg width="142" height="42" viewBox="0 0 142 42" fill="none" xmlns="http://www.w3.org/2000/svg">
<rect width="142" height="42" rx="7" fill="black"/>
<path fill-rule="evenodd" clip-rule="evenodd" d="M76.5874 12.8355C75.971 13.4729 75.2051 13.79 74.2888 13.79C73.3724 13.79 72.6066 13.4718 71.9912 12.8355C71.3747 12.1992 71.0675 11.4201 71.0675 10.4993C71.0675 9.57842 71.3747 8.79932 71.9912 8.16302C72.6066 7.52567 73.3724 7.20752 74.2888 7.20752C75.1999 7.20752 75.9647 7.52777 76.5833 8.16722C77.2018 8.80667 77.5111 9.58367 77.5111 10.4993C77.5111 11.4212 77.2029 12.2003 76.5874 12.8355ZM72.5857 12.3084C73.0496 12.7809 73.6169 13.0161 74.2888 13.0161C74.9606 13.0161 75.528 12.7799 75.9919 12.3084C76.4558 11.8359 76.6888 11.2332 76.6888 10.5003C76.6888 9.76742 76.4558 9.16367 75.9919 8.69222C75.529 8.21972 74.9606 7.98452 74.2888 7.98452C73.6169 7.98452 73.0496 8.22077 72.5857 8.69222C72.1228 9.16472 71.8898 9.76742 71.8898 10.5003C71.8898 11.2332 72.1228 11.8359 72.5857 12.3084Z" fill="white"/>
<path d="M49.2218 10.7555C49.2218 11.6354 48.9627 12.3357 48.4434 12.8586C47.8541 13.4802 47.0851 13.791 46.1406 13.791C45.2357 13.791 44.4657 13.476 43.8336 12.846C43.2004 12.215 42.8838 11.4338 42.8838 10.5014C42.8838 9.56792 43.2004 8.78672 43.8336 8.15672C44.4657 7.52567 45.2357 7.21067 46.1406 7.21067C46.5899 7.21067 47.0193 7.29887 47.4268 7.47422C47.8353 7.65062 48.1624 7.88477 48.4069 8.17772L47.8562 8.73212C47.4414 8.23337 46.8699 7.98452 46.1395 7.98452C45.4792 7.98452 44.9087 8.21762 44.427 8.68382C43.9464 9.15002 43.7061 9.75482 43.7061 10.5003C43.7061 11.2458 43.9464 11.8506 44.4281 12.3179C44.9097 12.7841 45.4802 13.0172 46.1406 13.0172C46.8406 13.0172 47.4247 12.783 47.8917 12.3137C48.1947 12.0081 48.3703 11.5829 48.4173 11.0379H46.1406V10.2798H49.178C49.2083 10.4447 49.2218 10.6032 49.2218 10.7555Z" fill="white"/>
<path d="M54.0386 8.12417H51.1841V10.1213H53.7586V10.8783H51.1841V12.8754H54.0386V13.6503H50.3785V7.35032H54.0386V8.12417Z" fill="white"/>
<path d="M56.6288 13.6503H57.4343V8.12417H59.1855V7.35032H54.8776V8.12417H56.6288V13.6503Z" fill="white"/>
<path d="M62.3033 13.6503V7.35032H63.1089V13.6503H62.3033Z" fill="white"/>
<path d="M65.8746 13.6503H66.6802V8.12417H68.4314V7.35032H64.1235V8.12417H65.8746V13.6503Z" fill="white"/>
<path d="M78.6416 7.35032V13.6503H79.4451V9.72542L79.4106 8.51162H79.4451L82.6329 13.6503H83.474V7.35032H82.6685V11.0379L82.7029 12.2517H82.6685L79.6217 7.35032H78.6416Z" fill="white"/>
<path fill-rule="evenodd" clip-rule="evenodd" d="M76.5874 12.8355C75.971 13.4729 75.2051 13.79 74.2888 13.79C73.3724 13.79 72.6066 13.4718 71.9912 12.8355C71.3747 12.1992 71.0675 11.4201 71.0675 10.4993C71.0675 9.57842 71.3747 8.79932 71.9912 8.16302C72.6066 7.52567 73.3724 7.20752 74.2888 7.20752C75.1999 7.20752 75.9647 7.52777 76.5833 8.16722C77.2018 8.80667 77.5111 9.58367 77.5111 10.4993C77.5111 11.4212 77.2029 12.2003 76.5874 12.8355ZM72.5857 12.3084C73.0496 12.7809 73.6169 13.0161 74.2888 13.0161C74.9606 13.0161 75.528 12.7799 75.9919 12.3084C76.4558 11.8359 76.6888 11.2332 76.6888 10.5003C76.6888 9.76742 76.4558 9.16367 75.9919 8.69222C75.529 8.21972 74.9606 7.98452 74.2888 7.98452C73.6169 7.98452 73.0496 8.22077 72.5857 8.69222C72.1228 9.16472 71.8898 9.76742 71.8898 10.5003C71.8898 11.2332 72.1228 11.8359 72.5857 12.3084Z" stroke="white" stroke-width="0.2" stroke-miterlimit="10"/>
<path d="M49.2218 10.7555C49.2218 11.6354 48.9627 12.3357 48.4434 12.8586C47.8541 13.4802 47.0851 13.791 46.1406 13.791C45.2357 13.791 44.4657 13.476 43.8336 12.846C43.2004 12.215 42.8838 11.4338 42.8838 10.5014C42.8838 9.56792 43.2004 8.78672 43.8336 8.15672C44.4657 7.52567 45.2357 7.21067 46.1406 7.21067C46.5899 7.21067 47.0193 7.29887 47.4268 7.47422C47.8353 7.65062 48.1624 7.88477 48.4069 8.17772L47.8562 8.73212C47.4414 8.23337 46.8699 7.98452 46.1395 7.98452C45.4792 7.98452 44.9087 8.21762 44.427 8.68382C43.9464 9.15002 43.7061 9.75482 43.7061 10.5003C43.7061 11.2458 43.9464 11.8506 44.4281 12.3179C44.9097 12.7841 45.4802 13.0172 46.1406 13.0172C46.8406 13.0172 47.4247 12.783 47.8917 12.3137C48.1947 12.0081 48.3703 11.5829 48.4173 11.0379H46.1406V10.2798H49.178C49.2083 10.4447 49.2218 10.6032 49.2218 10.7555Z" stroke="white" stroke-width="0.2" stroke-miterlimit="10"/>
<path d="M54.0386 8.12417H51.1841V10.1213H53.7586V10.8783H51.1841V12.8754H54.0386V13.6503H50.3785V7.35032H54.0386V8.12417Z" stroke="white" stroke-width="0.2" stroke-miterlimit="10"/>
<path d="M56.6288 13.6503H57.4343V8.12417H59.1855V7.35032H54.8776V8.12417H56.6288V13.6503Z" stroke="white" stroke-width="0.2" stroke-miterlimit="10"/>
<path d="M62.3033 13.6503V7.35032H63.1089V13.6503H62.3033Z" stroke="white" stroke-width="0.2" stroke-miterlimit="10"/>
<path d="M65.8746 13.6503H66.6802V8.12417H68.4314V7.35032H64.1235V8.12417H65.8746V13.6503Z" stroke="white" stroke-width="0.2" stroke-miterlimit="10"/>
<path d="M78.6416 7.35032V13.6503H79.4451V9.72542L79.4106 8.51162H79.4451L82.6329 13.6503H83.474V7.35032H82.6685V11.0379L82.7029 12.2517H82.6685L79.6217 7.35032H78.6416Z" stroke="white" stroke-width="0.2" stroke-miterlimit="10"/>
<path d="M71.1929 22.9315C68.7354 22.9315 66.7324 24.8089 66.7324 27.3971C66.7324 29.9686 68.7354 31.8628 71.1929 31.8628C73.6504 31.8628 75.6534 29.9686 75.6534 27.3971C75.6534 24.8089 73.6504 22.9315 71.1929 22.9315ZM71.1929 30.104C69.8461 30.104 68.6842 28.9879 68.6842 27.3971C68.6842 25.7896 69.8461 24.6902 71.1929 24.6902C72.5397 24.6902 73.7005 25.7896 73.7005 27.3971C73.7005 28.9868 72.5397 30.104 71.1929 30.104ZM61.4612 22.9315C59.0037 22.9315 57.0007 24.8089 57.0007 27.3971C57.0007 29.9686 59.0037 31.8628 61.4612 31.8628C63.9187 31.8628 65.9216 29.9686 65.9216 27.3971C65.9227 24.8089 63.9187 22.9315 61.4612 22.9315ZM61.4612 30.104C60.1144 30.104 58.9536 28.9879 58.9536 27.3971C58.9536 25.7896 60.1154 24.6902 61.4612 24.6902C62.808 24.6902 63.9688 25.7896 63.9688 27.3971C63.9699 28.9868 62.808 30.104 61.4612 30.104ZM49.8864 24.3017V26.1959H54.398C54.2632 27.2617 53.9101 28.0397 53.3709 28.5815C52.7148 29.2409 51.6877 29.9686 49.8864 29.9686C47.1092 29.9686 44.938 27.7184 44.938 24.9275C44.938 22.1366 47.1092 19.8865 49.8864 19.8865C51.3847 19.8865 52.4786 20.4787 53.2863 21.2399L54.6164 19.9033C53.489 18.8207 51.9907 17.9912 49.8864 17.9912C46.0821 17.9912 42.8838 21.1034 42.8838 24.9265C42.8838 28.7495 46.0821 31.8617 49.8864 31.8617C51.9395 31.8617 53.489 31.1855 54.701 29.9161C55.9465 28.6645 56.3341 26.9047 56.3341 25.484C56.3341 25.0441 56.3007 24.6377 56.2328 24.2996H49.8864V24.3017ZM97.2263 25.7728C96.8565 24.7742 95.728 22.9304 93.422 22.9304C91.1328 22.9304 89.2312 24.7406 89.2312 27.3961C89.2312 29.8993 91.1161 31.8617 93.6415 31.8617C95.6779 31.8617 96.8564 30.6101 97.3444 29.8825L95.8294 28.8671C95.3247 29.6116 94.6341 30.1019 93.6415 30.1019C92.6478 30.1019 91.9415 29.6452 91.487 28.7485L97.429 26.2789L97.2263 25.7728ZM91.1662 27.2617C91.1161 25.5365 92.4963 24.6566 93.4889 24.6566C94.2631 24.6566 94.9193 25.0451 95.1387 25.6037L91.1662 27.2617ZM86.3348 31.5919H88.2877V18.4658H86.3348V31.5919ZM83.1366 23.929H83.0697C82.6319 23.405 81.7908 22.9304 80.7303 22.9304C78.5079 22.9304 76.4715 24.8929 76.4715 27.4129C76.4715 29.9161 78.5079 31.8617 80.7303 31.8617C81.7908 31.8617 82.6319 31.3882 83.0697 30.8464H83.1366V31.489C83.1366 33.1973 82.2275 34.1108 80.7627 34.1108C79.5673 34.1108 78.8266 33.2477 78.5235 32.5211L76.8236 33.232C77.3115 34.4163 78.6082 35.8706 80.7627 35.8706C83.0519 35.8706 84.988 34.5172 84.988 31.2191V23.2013H83.1366V23.929ZM80.8985 30.104C79.5517 30.104 78.4243 28.9711 78.4243 27.4139C78.4243 25.841 79.5517 24.6902 80.8985 24.6902C82.2286 24.6902 83.2713 25.84 83.2713 27.4139C83.2713 28.97 82.2286 30.104 80.8985 30.104ZM106.373 18.4658H101.701V31.5919H103.65V26.6191H106.372C108.533 26.6191 110.657 25.0472 110.657 22.543C110.657 20.0387 108.534 18.4658 106.373 18.4658ZM106.423 24.7921H103.65V20.2928H106.423C107.881 20.2928 108.708 21.5056 108.708 22.543C108.708 23.5594 107.881 24.7921 106.423 24.7921ZM118.472 22.9073C117.061 22.9073 115.599 23.5321 114.994 24.917L116.725 25.6436C117.095 24.917 117.784 24.6808 118.507 24.6808C119.515 24.6808 120.54 25.2887 120.557 26.3692V26.5046C120.204 26.302 119.447 25.9975 118.523 25.9975C116.658 25.9975 114.759 27.0275 114.759 28.9532C114.759 30.7099 116.289 31.8407 118.002 31.8407C119.313 31.8407 120.035 31.2496 120.489 30.5576H120.556V31.5709H122.437V26.5382C122.437 24.2072 120.707 22.9073 118.472 22.9073ZM118.236 30.1009C117.598 30.1009 116.706 29.7796 116.706 28.9868C116.706 27.9736 117.816 27.5851 118.773 27.5851C119.63 27.5851 120.033 27.7709 120.555 28.024C120.404 29.2399 119.362 30.1009 118.236 30.1009ZM129.294 23.194L127.059 28.885H126.992L124.673 23.194H122.573L126.052 31.1477L124.068 35.5724H126.102L131.463 23.194H129.294ZM111.733 31.5919H113.683V18.4658H111.733V31.5919Z" fill="white"/>
<path d="M10.9037 7.91503C10.5996 8.23843 10.4199 8.74033 10.4199 9.39028V32.6121C10.4199 33.2631 10.5996 33.7639 10.9037 34.0873L10.981 34.1629L23.9256 21.1545V21.0012V20.8479L10.981 7.83838L10.9037 7.91503Z" fill="url(#paint0_linear_444_14591)"/>
<path d="M28.2419 25.4933L23.9277 21.1558V21.0025V20.8492L28.243 16.5127L28.3401 16.5683L33.4526 19.4873C34.9133 20.321 34.9133 21.685 33.4526 22.5197L28.3401 25.4387L28.2419 25.4933Z" fill="url(#paint1_linear_444_14591)"/>
<path d="M28.3387 25.4362L23.9263 21.001L10.9033 34.0871C11.385 34.5995 12.1791 34.6625 13.0745 34.1512L28.3387 25.4362Z" fill="url(#paint2_linear_444_14591)"/>
<path d="M28.3386 16.566L13.0755 7.85103C12.1801 7.33968 11.386 7.40373 10.9043 7.91508L23.9262 21.0012L28.3386 16.566Z" fill="url(#paint3_linear_444_14591)"/>
<path opacity="0.2" d="M28.2415 25.3389L13.0756 33.9982C12.2271 34.4823 11.4686 34.4508 10.9817 34.0098L10.9033 34.0885L10.9806 34.1641C11.4675 34.6051 12.2261 34.6377 13.0745 34.1526L28.3376 25.4376L28.2415 25.3389Z" fill="#222222"/>
<path opacity="0.12" d="M10.9027 33.9342C10.5993 33.6108 10.4199 33.1089 10.4199 32.459V32.6123C10.4199 33.2622 10.5993 33.7641 10.9027 34.0875L10.9809 34.0088L10.9027 33.9342Z" fill="#222222"/>
<path opacity="0.12" d="M33.4508 22.3638L28.2412 25.3385L28.3384 25.4361L33.4508 22.5171C34.1812 22.1003 34.5458 21.5511 34.5458 21.002C34.4842 21.4986 34.1122 21.9858 33.4508 22.3638Z" fill="#222222"/>
<path opacity="0.25" d="M13.0749 8.00436L33.4504 19.6384C34.1129 20.0164 34.4838 20.5036 34.5454 21.0013C34.5454 20.4521 34.1808 19.9019 33.4504 19.4851L13.0749 7.85106C11.6142 7.01736 10.4199 7.70931 10.4199 9.39036V9.54471C10.4199 7.86366 11.6152 7.17066 13.0749 8.00436Z" fill="white"/>
<defs>
<linearGradient id="paint0_linear_444_14591" x1="22.778" y1="9.14542" x2="5.15665" y2="26.6803" gradientUnits="userSpaceOnUse">
<stop stop-color="#00A0FF"/>
<stop offset="0.0066" stop-color="#00A1FF"/>
<stop offset="0.2601" stop-color="#00BEFF"/>
<stop offset="0.5122" stop-color="#00D2FF"/>
<stop offset="0.7604" stop-color="#00DFFF"/>
<stop offset="1" stop-color="#00E3FF"/>
</linearGradient>
<linearGradient id="paint1_linear_444_14591" x1="35.3535" y1="21.002" x2="10.0714" y2="21.002" gradientUnits="userSpaceOnUse">
<stop stop-color="#FFE000"/>
<stop offset="0.4087" stop-color="#FFBD00"/>
<stop offset="0.7754" stop-color="#FFA500"/>
<stop offset="1" stop-color="#FF9C00"/>
</linearGradient>
<linearGradient id="paint2_linear_444_14591" x1="25.9407" y1="23.4109" x2="2.04473" y2="47.1896" gradientUnits="userSpaceOnUse">
<stop stop-color="#FF3A44"/>
<stop offset="1" stop-color="#C31162"/>
</linearGradient>
<linearGradient id="paint3_linear_444_14591" x1="7.62473" y1="0.185301" x2="18.2953" y2="10.8034" gradientUnits="userSpaceOnUse">
<stop stop-color="#32A071"/>
<stop offset="0.0685" stop-color="#2DA771"/>
<stop offset="0.4762" stop-color="#15CF74"/>
<stop offset="0.8009" stop-color="#06E775"/>
<stop offset="1" stop-color="#00F076"/>
</linearGradient>
</defs>
</svg>
