<svg width="59" height="58" fill="none" xmlns="http://www.w3.org/2000/svg"><rect x=".5" width="58" height="58" rx="8" fill="#F7F9FC"/><path d="M29.5 45c8.837 0 16-7.163 16-16s-7.163-16-16-16-16 7.163-16 16 7.163 16 16 16Z" fill="#092DAA"/><path d="M29.5 42.008c6.223 0 11.267-2.912 11.267-6.504C40.767 31.912 35.723 29 29.5 29s-11.268 2.912-11.268 6.504c0 3.592 5.045 6.504 11.268 6.504Z" fill="#769AF7"/><path d="M29.5 29a6.504 6.504 0 1 0 0-13.008A6.504 6.504 0 0 0 29.5 29Z" fill="#fff"/><path opacity=".5" d="m29.5 39.667 7.155-9.16A17.623 17.623 0 0 0 29.5 29c-2.546 0-4.966.538-7.154 1.508l7.154 9.159Z" fill="url(#a)"/><defs><linearGradient id="a" x1="29.5" y1="29" x2="29.5" y2="39.667" gradientUnits="userSpaceOnUse"><stop stop-color="#0A33C1"/><stop offset="1" stop-color="#0A33C1" stop-opacity="0"/></linearGradient></defs></svg>