<svg width="59" height="58" fill="none" xmlns="http://www.w3.org/2000/svg"><rect x=".5" width="58" height="58" rx="8" fill="#F7F9FC"/><path d="M24.142 31.33h1.583c5.393 0 9.764 4.374 9.764 9.768A3.902 3.902 0 0 1 31.587 45h-13.31a3.902 3.902 0 0 1-3.902-3.902c0-5.395 4.372-9.768 9.765-9.768h.002Z" fill="#092DAA"/><path d="M31.864 24.42a6.9 6.9 0 1 1-13.35-2.444 6.9 6.9 0 0 1 13.35 2.444Z" fill="#9CB8F8"/><path d="m44.474 25.672-.778 1.339c-.308.53-.985.711-1.516.407l-1.192-.688a6.743 6.743 0 0 1-2.76 1.584v1.355c0 .614-.499 1.113-1.113 1.113h-1.568a1.115 1.115 0 0 1-1.113-1.113v-1.355a6.718 6.718 0 0 1-2.76-1.584l-.26.15a6.903 6.903 0 0 0-3.309-8.596c.023-.062.05-.121.083-.178l.774-1.335c.308-.529.985-.71 1.516-.407l1.196.684a6.763 6.763 0 0 1 2.76-1.584v-1.35c0-.615.497-1.113 1.11-1.114h1.571c.614 0 1.112.497 1.113 1.111v1.353a6.79 6.79 0 0 1 2.76 1.584l1.192-.683a1.113 1.113 0 0 1 1.516.406l.778 1.335a1.11 1.11 0 0 1-.4 1.518l-.01.006-1.181.68a6.434 6.434 0 0 1 0 3.163l1.18.675c.533.303.72.98.416 1.514l-.005.01Z" fill="#305DFC"/><path d="M36.33 25.06c1.764 0 3.194-1.42 3.194-3.17s-1.43-3.17-3.194-3.17-3.194 1.42-3.194 3.17 1.43 3.17 3.194 3.17Z" fill="#fff"/></svg>