<svg width="24" height="24" viewBox="0 0 24 24" fill="none" xmlns="http://www.w3.org/2000/svg">
    <path d="M15.9003 18.45C17.2503 18.45 18.3503 17.35 18.3503 16C18.3503 14.65 17.2503 13.55 15.9003 13.55C14.5403 13.55 13.4503 14.65 13.4503 16C13.4503 17.35 14.5403 18.45 15.9003 18.45ZM21.1003 16.68L22.5803 17.84C22.7103 17.95 22.7503 18.13 22.6603 18.29L21.2603 20.71C21.1703 20.86 21.0003 20.92 20.8303 20.86L19.0903 20.16C18.7303 20.44 18.3303 20.67 17.9103 20.85L17.6403 22.7C17.6203 22.87 17.4703 23 17.3003 23H14.5003C14.3203 23 14.1803 22.87 14.1503 22.7L13.8903 20.85C13.4603 20.67 13.0703 20.44 12.7103 20.16L10.9603 20.86C10.8103 20.92 10.6203 20.86 10.5403 20.71L9.14027 18.29C9.05027 18.13 9.09027 17.95 9.22027 17.84L10.7003 16.68L10.6503 16L10.7003 15.31L9.22027 14.16C9.09027 14.05 9.05027 13.86 9.14027 13.71L10.5403 11.29C10.6203 11.13 10.8103 11.07 10.9603 11.13L12.7103 11.84C13.0703 11.56 13.4603 11.32 13.8903 11.15L14.1503 9.29C14.1803 9.13 14.3203 9 14.5003 9H17.3003C17.4703 9 17.6203 9.13 17.6403 9.29L17.9103 11.15C18.3303 11.32 18.7303 11.56 19.0903 11.84L20.8303 11.13C21.0003 11.07 21.1703 11.13 21.2603 11.29L22.6603 13.71C22.7503 13.86 22.7103 14.05 22.5803 14.16L21.1003 15.31L21.1503 16L21.1003 16.68ZM6.69027 8.07C7.56027 8.07 8.26027 7.37 8.26027 6.5C8.26027 5.63 7.56027 4.92 6.69027 4.92C6.27123 4.92 5.86935 5.08646 5.57304 5.38277C5.27673 5.67908 5.11027 6.08096 5.11027 6.5C5.11027 7.37 5.82027 8.07 6.69027 8.07ZM10.0303 6.94L11.0003 7.68C11.0703 7.75 11.0903 7.87 11.0303 7.97L10.1303 9.53C10.0803 9.63 9.96027 9.67 9.86027 9.63L8.74027 9.18L8.00027 9.62L7.81027 10.81C7.79027 10.92 7.70027 11 7.59027 11H5.79027C5.67027 11 5.58027 10.92 5.56027 10.81L5.40027 9.62L4.64027 9.18L3.50027 9.63C3.41027 9.67 3.30027 9.63 3.24027 9.53L2.34027 7.97C2.28027 7.87 2.31027 7.75 2.39027 7.68L3.34027 6.94L3.31027 6.5L3.34027 6.06L2.39027 5.32C2.31027 5.25 2.28027 5.13 2.34027 5.03L3.24027 3.47C3.30027 3.37 3.41027 3.33 3.50027 3.37L4.63027 3.82L5.40027 3.38L5.56027 2.19C5.58027 2.08 5.67027 2 5.79027 2L7.59027 2C7.70027 2 7.79027 2.08 7.81027 2.19L8.00027 3.38L8.74027 3.82L9.86027 3.37C9.96027 3.33 10.0803 3.37 10.1303 3.47L11.0303 5.03C11.0903 5.13 11.0703 5.25 11.0003 5.32L10.0303 6.06L10.0603 6.5L10.0303 6.94Z" fill="white"/>
</svg>
