<svg width="59" height="58" fill="none" xmlns="http://www.w3.org/2000/svg"><rect x=".5" width="58" height="58" rx="8" fill="#F7F9FC"/><path d="M30.379 44.857a2.772 2.772 0 0 1-1.757 0l-.079-.026-.076-.033a19.632 19.632 0 0 1-11.86-18.037v-7.312c0-.31.25-.564.56-.568l1.442-.022a3.898 3.898 0 0 0 3.857-3.863l.02-1.435a.569.569 0 0 1 .569-.561h12.89c.312 0 .565.25.57.56l.019 1.436a3.898 3.898 0 0 0 3.858 3.863l1.441.022c.31.004.56.258.56.568v7.312c0 7.84-4.661 14.93-11.86 18.037l-.076.033-.078.026Z" fill="#092DAA"/><path d="M24.49 14.94a.084.084 0 0 0-.083.083 5.86 5.86 0 0 1-5.768 5.776c-.05 0-.091.041-.091.091v5.87a17.706 17.706 0 0 0 10.688 16.257.835.835 0 0 0 .529 0A17.706 17.706 0 0 0 40.453 26.76v-5.87c0-.051-.04-.091-.09-.092a5.86 5.86 0 0 1-5.769-5.776.084.084 0 0 0-.083-.083H24.49Z" fill="#305DFC"/><path d="M40.362 20.799a5.86 5.86 0 0 1-5.768-5.776.084.084 0 0 0-.083-.083h-3.074c.53.432.983.962 1.327 1.576a5.886 5.886 0 0 0 1.575 1.808c2.203 1.67 3.538 4.24 3.538 7.003v.146A17.706 17.706 0 0 1 27.19 41.73a.836.836 0 0 1-.33.04c.752.471 1.545.889 2.377 1.248a.837.837 0 0 0 .529 0A17.706 17.706 0 0 0 40.453 26.76v-5.87c0-.051-.04-.091-.091-.092Z" fill="#1C45D3"/><path d="m33.667 24.497-5.322 5.23a.132.132 0 0 1-.185 0l-2.826-2.777a.132.132 0 0 0-.186 0l-1.735 1.706a.127.127 0 0 0 0 .182l4.747 4.665c.05.05.134.05.185 0l7.243-7.118a.127.127 0 0 0 0-.182l-1.736-1.706a.132.132 0 0 0-.185 0Z" fill="#fff"/></svg>