<svg width="284" height="306" viewBox="0 0 284 306" fill="none" xmlns="http://www.w3.org/2000/svg">
<path fill-rule="evenodd" clip-rule="evenodd" d="M144.934 244.861C143.665 243.593 142.396 242.324 141.127 241.055C142.396 242.324 143.665 243.593 144.934 244.861Z" fill="white"/>
<path fill-rule="evenodd" clip-rule="evenodd" d="M144.934 246.13C147.472 248.667 150.009 249.936 152.547 252.473C150.009 249.936 147.472 248.667 144.934 246.13Z" fill="white"/>
<path fill-rule="evenodd" clip-rule="evenodd" d="M157.623 255.011C156.354 255.011 155.085 253.742 153.816 252.474C155.085 253.742 156.354 253.742 157.623 255.011Z" fill="white"/>
<path fill-rule="evenodd" clip-rule="evenodd" d="M205.208 2.53738C197.594 22.8368 187.442 48.211 178.56 72.3165C158.256 126.871 143.028 175.082 125.263 209.337C130.339 220.756 136.683 232.174 144.297 241.055C153.18 216.95 162.063 191.575 172.215 163.664C191.249 112.915 210.284 62.1668 215.36 48.211L198.863 46.9423L238.201 10.1497L255.967 49.4797L235.663 48.211C229.319 63.4355 211.553 111.647 192.518 162.395C179.829 195.381 169.677 227.099 159.525 253.742C163.332 255.011 167.139 256.28 170.946 256.28C177.291 256.28 183.635 255.011 188.711 251.205C205.208 216.95 219.167 170.007 238.201 119.259C261.043 58.3607 283.884 0 283.884 0L205.208 2.53738Z" fill="url(#paint0_linear_745_700)"/>
<path fill-rule="evenodd" clip-rule="evenodd" d="M175.118 248.667C142.125 248.667 119.283 167.47 109.131 133.215C101.518 107.841 93.9037 79.9289 88.8278 55.8234H57.1035C64.7174 81.1976 72.3312 107.841 81.214 133.215C95.1727 173.813 126.897 272.773 172.58 272.773C173.849 272.773 175.118 272.773 176.387 272.773C181.463 265.161 186.539 255.011 191.615 244.861C185.27 247.399 180.194 248.667 175.118 248.667Z" fill="white"/>
<path fill-rule="evenodd" clip-rule="evenodd" d="M58.3728 150.977C48.221 120.527 38.0692 85.0036 29.1864 55.8232H0C8.88281 87.541 21.5725 129.408 32.9933 166.201C46.952 206.8 78.6764 305.759 124.359 305.759C138.318 305.759 151.008 299.416 161.16 289.266C157.353 290.535 153.546 290.535 148.47 290.535C104.056 291.803 72.3315 191.575 58.3728 150.977Z" fill="white"/>
<defs>
<linearGradient id="paint0_linear_745_700" x1="152.872" y1="252.496" x2="246.638" y2="-11.2645" gradientUnits="userSpaceOnUse">
<stop stop-color="white" stop-opacity="0.6"/>
<stop offset="0.5" stop-color="white"/>
<stop offset="1" stop-color="white"/>
</linearGradient>
</defs>
</svg>
