<svg width="2120" height="306" viewBox="0 0 2120 306" fill="none" xmlns="http://www.w3.org/2000/svg">
<path d="M1027.07 97.4667C1006.67 97.4667 989.663 104.267 978.327 119C966.992 133.733 960.19 151.867 960.19 175.667C960.19 199.467 965.858 217.6 978.327 232.333C990.797 247.067 1006.67 253.867 1027.07 253.867C1048.61 253.867 1064.48 247.067 1076.95 232.333C1089.42 217.6 1095.09 199.467 1095.09 175.667C1095.09 151.867 1089.42 133.733 1076.95 119C1064.48 104.267 1048.61 97.4667 1027.07 97.4667ZM1062.21 219.867C1054.28 230.067 1042.94 235.733 1028.2 235.733C1013.47 235.733 1002.13 230.067 994.197 219.867C986.262 209.667 982.862 194.933 982.862 175.667C982.862 157.533 986.262 142.8 994.197 131.467C1002.13 121.267 1013.47 115.6 1028.2 115.6C1042.94 115.6 1055.41 121.267 1062.21 131.467C1070.15 141.667 1073.55 156.4 1073.55 175.667C1073.55 193.8 1069.01 208.533 1062.21 219.867Z" fill="white"/>
<path d="M818.494 117.867C806.025 131.467 799.224 149.6 799.224 173.4C799.224 196.067 804.891 213.067 817.361 225.533C829.83 238 845.7 243.667 866.104 243.667C879.707 243.667 892.176 240.267 902.378 234.6V251.6C902.378 262.933 898.978 272 892.176 278.8C885.375 285.6 874.039 287.867 860.436 287.867C845.7 287.867 832.097 285.6 818.494 281.067L813.96 298.067C828.696 303.733 844.566 306 861.57 306C880.84 306 896.71 301.467 908.046 291.267C919.382 281.067 925.05 267.467 925.05 250.467V109.933C910.313 102 893.31 98.6 874.039 98.6C850.234 97.4667 832.097 104.267 818.494 117.867ZM903.512 215.333C893.31 222.133 881.974 225.533 869.505 225.533C854.768 225.533 842.299 221 834.364 210.8C825.296 201.733 821.895 188.133 821.895 171.133C821.895 154.133 826.429 139.4 835.498 130.333C844.566 121.267 857.036 115.6 872.906 115.6C883.108 115.6 894.443 117.867 903.512 121.267V215.333Z" fill="white"/>
<path d="M609.917 97.4667C589.513 97.4667 572.51 104.267 560.04 119C547.571 133.733 541.903 151.867 541.903 174.533C541.903 199.467 548.705 218.733 562.308 232.333C575.91 245.933 595.181 252.733 617.852 252.733C635.99 252.733 652.993 249.333 667.729 242.533L664.329 225.533C648.459 232.333 633.722 235.733 620.12 235.733C603.116 235.733 589.513 231.2 579.311 222.133C569.109 213.067 563.441 198.333 563.441 180.2H669.997C671.13 174.533 671.13 168.867 671.13 163.2C671.13 145.067 665.462 129.2 655.26 116.733C643.924 104.267 629.188 97.4667 609.917 97.4667ZM649.592 164.333H563.441C564.575 149.6 569.109 137.133 577.044 128.067C584.979 119 596.315 114.467 609.917 114.467C623.52 114.467 632.589 119 639.39 126.933C646.192 136 649.592 146.2 649.592 158.667C649.592 162.067 649.592 163.2 649.592 164.333Z" fill="white"/>
<path d="M707.404 113.333V250.467H727.809V125.8C739.144 119 753.881 115.6 769.751 115.6C774.285 115.6 778.819 115.6 782.22 116.733L785.62 98.6C779.953 97.4667 774.285 97.4667 768.617 97.4667C745.946 97.4667 725.541 103.133 707.404 113.333Z" fill="white"/>
<path d="M529.434 0C512.431 70.2666 475.023 175.667 451.218 228.933C427.413 174.533 407.009 113.333 390.006 44.2H368.468C385.471 114.467 408.143 180.2 436.482 243.667C438.749 248.2 443.283 250.467 447.818 250.467H455.752C460.287 250.467 464.821 248.2 465.955 243.667C495.427 177.933 533.969 71.4 550.972 1.13336C550.972 2.5923e-05 529.434 0 529.434 0Z" fill="white"/>
<path d="M1903.32 97.4667C1882.91 97.4667 1865.91 104.267 1853.44 119C1840.97 133.733 1835.3 151.867 1835.3 174.533C1835.3 199.467 1842.11 218.733 1855.71 232.333C1869.31 245.933 1888.58 252.733 1911.25 252.733C1929.39 252.733 1946.39 249.333 1961.13 242.533L1957.73 225.533C1942.99 232.333 1927.12 235.733 1913.52 235.733C1896.52 235.733 1882.91 231.2 1872.71 222.133C1862.51 213.067 1857.98 198.333 1856.84 180.2H1963.4C1964.53 174.533 1964.53 168.867 1964.53 163.2C1964.53 145.067 1958.86 129.2 1948.66 116.733C1937.33 104.267 1922.59 97.4667 1903.32 97.4667ZM1942.99 164.333H1856.84C1857.98 149.6 1862.51 137.133 1870.45 128.067C1878.38 119 1889.72 114.467 1903.32 114.467C1916.92 114.467 1925.99 119 1932.79 126.933C1939.59 136 1942.99 146.2 1942.99 158.667C1942.99 162.067 1942.99 163.2 1942.99 164.333Z" fill="white"/>
<path d="M1693.61 117.867C1680.01 131.467 1674.34 149.6 1674.34 173.4C1674.34 196.067 1680.01 213.067 1692.48 225.533C1704.94 238 1720.81 243.667 1741.22 243.667C1754.82 243.667 1767.29 240.267 1777.49 234.6V251.6C1777.49 262.933 1774.09 272 1767.29 278.8C1760.49 285.6 1749.15 287.867 1735.55 287.867C1720.81 287.867 1707.21 285.6 1693.61 281.067L1689.07 298.067C1703.81 303.733 1719.68 306 1736.68 306C1755.95 306 1771.82 301.467 1783.16 291.267C1794.5 281.067 1800.16 267.467 1800.16 250.467V109.933C1785.43 102 1768.42 98.6 1748.02 98.6C1725.35 97.4667 1707.21 104.267 1693.61 117.867ZM1778.63 215.333C1768.42 222.133 1757.09 225.533 1744.62 225.533C1729.88 225.533 1717.41 221 1709.48 210.8C1700.41 201.733 1697.01 188.133 1697.01 171.133C1697.01 154.133 1701.54 139.4 1710.61 130.333C1719.68 121.267 1732.15 115.6 1748.02 115.6C1759.36 115.6 1769.56 117.867 1778.63 121.267V215.333Z" fill="white"/>
<path d="M2106.23 112.2C2096.03 103.133 2081.29 97.4667 2062.02 97.4667C2040.48 97.4667 2018.94 102 1999.67 112.2V249.333H2020.08V124.667C2032.55 117.867 2046.15 114.467 2062.02 114.467C2074.49 114.467 2084.69 117.867 2090.36 124.667C2097.16 131.467 2099.43 140.533 2099.43 151.867V248.2H2119.83V150.733C2120.96 134.867 2116.43 121.267 2106.23 112.2Z" fill="white"/>
<path d="M1189.17 97.4667C1168.77 97.4667 1151.76 104.267 1139.29 119C1126.82 133.733 1121.16 151.867 1121.16 174.533C1121.16 199.467 1127.96 218.733 1141.56 232.333C1155.16 245.933 1173.3 252.733 1197.11 252.733C1215.24 252.733 1232.25 249.333 1246.98 242.533L1243.58 225.533C1228.85 232.333 1212.98 235.733 1199.37 235.733C1182.37 235.733 1168.77 231.2 1158.56 222.133C1148.36 213.067 1143.83 198.333 1142.69 180.2H1249.25C1250.38 174.533 1250.38 168.867 1250.38 163.2C1250.38 145.067 1244.72 129.2 1234.51 116.733C1223.18 104.267 1208.44 97.4667 1189.17 97.4667ZM1228.85 164.333H1142.69C1143.83 149.6 1148.36 137.133 1156.3 128.067C1164.23 119 1175.57 114.467 1189.17 114.467C1202.77 114.467 1211.84 119 1218.64 126.933C1225.44 134.867 1228.85 146.2 1228.85 158.667C1229.98 162.067 1228.85 163.2 1228.85 164.333Z" fill="white"/>
<path d="M1580.25 97.4667C1558.71 97.4667 1537.18 102 1517.91 112.2V249.333H1538.31V124.667C1550.78 117.867 1564.38 114.467 1580.25 114.467C1592.72 114.467 1602.92 117.867 1608.59 124.667C1615.39 131.467 1618.79 140.533 1618.79 151.867V248.2H1639.2V150.733C1639.2 133.733 1634.66 120.133 1624.46 111.067C1614.26 102 1599.52 97.4667 1580.25 97.4667Z" fill="white"/>
<path d="M1380.74 103.133C1371.67 99.7334 1362.61 98.6001 1353.54 98.6001C1328.6 98.6001 1310.46 105.4 1296.86 120.133C1283.26 134.867 1276.46 154.133 1276.46 179.067C1276.46 202.867 1283.26 221 1296.86 234.6C1310.46 248.2 1328.6 255 1351.27 255C1371.67 255 1388.68 250.467 1402.28 242.533V36.2667L1381.88 37.4C1380.74 37.4 1380.74 103.133 1380.74 103.133ZM1380.74 227.8C1373.94 232.333 1363.74 234.6 1350.14 234.6C1334.27 234.6 1321.8 228.933 1311.6 218.733C1302.53 208.533 1296.86 193.8 1296.86 175.667C1296.86 156.4 1301.39 140.533 1311.6 130.333C1321.8 120.133 1335.4 114.467 1353.54 114.467C1362.61 114.467 1371.67 116.733 1380.74 120.133C1380.74 121.267 1380.74 227.8 1380.74 227.8Z" fill="white"/>
<path d="M1470.3 100.867H1449.89V249.333H1470.3V100.867Z" fill="white"/>
<path d="M1460.09 43.0667C1455.56 43.0667 1452.16 44.2 1449.89 46.4667C1447.62 48.7334 1446.49 52.1333 1446.49 56.6667C1446.49 61.2 1447.62 64.6 1449.89 66.8667C1452.16 69.1333 1455.56 70.2667 1460.09 70.2667C1464.63 70.2667 1468.03 69.1333 1470.3 66.8667C1472.56 64.6 1473.7 61.2 1473.7 56.6667C1473.7 53.2667 1472.56 49.8667 1470.3 46.4667C1468.03 44.2 1464.63 43.0667 1460.09 43.0667Z" fill="white"/>
<path fill-rule="evenodd" clip-rule="evenodd" d="M144.934 244.861C143.665 243.593 142.396 242.324 141.127 241.055C142.396 242.324 143.665 243.593 144.934 244.861Z" fill="white"/>
<path fill-rule="evenodd" clip-rule="evenodd" d="M144.934 246.13C147.472 248.667 150.009 249.936 152.547 252.473C150.009 249.936 147.472 248.667 144.934 246.13Z" fill="white"/>
<path fill-rule="evenodd" clip-rule="evenodd" d="M157.623 255.011C156.354 255.011 155.085 253.742 153.816 252.474C155.085 253.742 156.354 253.742 157.623 255.011Z" fill="white"/>
<path fill-rule="evenodd" clip-rule="evenodd" d="M205.208 2.53738C197.594 22.8368 187.442 48.211 178.56 72.3165C158.256 126.871 143.028 175.082 125.263 209.337C130.339 220.756 136.683 232.174 144.297 241.055C153.18 216.95 162.063 191.575 172.215 163.664C191.249 112.915 210.284 62.1668 215.36 48.211L198.863 46.9423L238.201 10.1497L255.967 49.4797L235.663 48.211C229.319 63.4355 211.553 111.647 192.518 162.395C179.829 195.381 169.677 227.099 159.525 253.742C163.332 255.011 167.139 256.28 170.946 256.28C177.291 256.28 183.635 255.011 188.711 251.205C205.208 216.95 219.167 170.007 238.201 119.259C261.043 58.3607 283.884 0 283.884 0L205.208 2.53738Z" fill="url(#paint0_linear_745_768)"/>
<path fill-rule="evenodd" clip-rule="evenodd" d="M175.118 248.667C142.125 248.667 119.283 167.47 109.131 133.215C101.518 107.841 93.9037 79.9289 88.8279 55.8234H57.1035C64.7174 81.1976 72.3312 107.841 81.214 133.215C95.1727 173.813 126.897 272.773 172.58 272.773C173.849 272.773 175.118 272.773 176.387 272.773C181.463 265.161 186.539 255.011 191.615 244.861C185.27 247.399 180.194 248.667 175.118 248.667Z" fill="white"/>
<path fill-rule="evenodd" clip-rule="evenodd" d="M58.3728 150.977C48.221 120.527 38.0692 85.0036 29.1864 55.8232H0C8.88281 87.541 21.5725 129.408 32.9933 166.201C46.952 206.8 78.6764 305.759 124.359 305.759C138.318 305.759 151.008 299.416 161.16 289.266C157.353 290.535 153.546 290.535 148.47 290.535C104.056 291.803 72.3315 191.575 58.3728 150.977Z" fill="white"/>
<defs>
<linearGradient id="paint0_linear_745_768" x1="152.872" y1="252.496" x2="246.638" y2="-11.2645" gradientUnits="userSpaceOnUse">
<stop stop-color="white" stop-opacity="0.6"/>
<stop offset="0.5" stop-color="white"/>
<stop offset="1" stop-color="white"/>
</linearGradient>
</defs>
</svg>
