<svg width="151" height="46" viewBox="0 0 151 46" fill="none" xmlns="http://www.w3.org/2000/svg">
<g clip-path="url(#clip0_1643_43710)">
<path fill-rule="evenodd" clip-rule="evenodd" d="M25.8857 15.1547C25.611 14.665 25.3665 14.1936 25.1487 13.7435C29.0883 12.1315 29.8521 10.8115 30.6929 9.29083C31.3864 8.04081 32.1736 6.62046 34.6928 5.0663C38.4582 2.74265 39.8082 1.08203 40.3308 0.306471V2.84302C39.3191 3.85581 37.9523 4.93552 35.6542 6.35282C33.5002 7.68192 32.8805 8.8042 32.2239 9.9934C31.316 11.6266 30.3814 13.3177 25.8857 15.1547ZM34.6091 8.76163C35.2824 8.73729 37.7413 8.58218 40.2605 7.60284V9.29996C37.7446 10.1576 35.3829 10.3067 34.6158 10.334C34.6493 9.70142 34.6292 9.15701 34.6091 8.76163ZM30.6494 18.8379C31.6309 19.6986 32.2373 20.8057 32.445 22.1226C32.8235 24.4919 33.4533 26.2224 34.4248 27.5698C34.4851 27.6519 34.5454 27.7371 34.6091 27.8192L33.1016 28.6617C33.0279 28.5643 32.9508 28.464 32.8805 28.3636C31.775 26.8307 31.0648 24.9146 30.6527 22.3294C30.4953 21.3379 30.0564 20.5198 29.3496 19.8993C29.1888 19.7594 28.8806 19.4887 28.2039 19.1542L28.157 19.1359C27.9192 19.0295 27.6612 18.9169 27.41 18.8105C28.1905 18.5976 28.8907 18.3391 29.5138 18.0471C29.9894 18.333 30.4986 18.7071 30.6494 18.8379ZM35.6609 12.1346C36.6994 12.8067 38.093 13.7039 40.2605 13.8013V15.3767C37.5436 15.2794 35.8251 14.1723 34.6593 13.418C34.4684 13.2964 34.2841 13.1778 34.1166 13.0774C34.3042 12.5269 34.4248 11.9825 34.5052 11.4685C34.8737 11.6297 35.2489 11.87 35.6609 12.1346ZM37.6173 18.263C37.9456 18.9838 38.3443 19.8081 38.8937 20.4285C39.2957 20.8787 39.7881 21.1554 40.2605 21.274V22.8799C39.2521 22.7461 38.294 22.2564 37.547 21.417C36.8502 20.6323 36.3912 19.6895 36.016 18.8652C35.3528 17.4084 33.8185 16.0306 32.8034 15.5166C33.1552 15.0756 33.4366 14.6164 33.6677 14.1571C35.0814 14.881 36.81 16.499 37.6173 18.263ZM32.0497 16.3469C33.383 17.2381 35.2288 18.9808 35.7078 21.9766C36.0763 24.279 36.6626 25.6415 37.4297 26.5752C37.614 26.776 38.6592 27.7766 40.2605 28.5278V30.2949C39.7479 30.1002 39.1416 29.8174 38.7262 29.5923C37.8585 29.1179 36.9674 28.5613 36.1969 27.731C36.0763 27.6093 36.006 27.5272 35.9926 27.509H35.9959C35.882 27.3782 35.7748 27.2383 35.6676 27.0923C34.8201 25.9152 34.2607 24.355 33.9156 22.1804C33.6577 20.5654 32.9039 19.1998 31.6778 18.1231C31.3663 17.8494 30.9844 17.5726 30.7063 17.3932C31.2155 17.0677 31.6611 16.7149 32.0497 16.3469ZM28.0431 24.282C27.6679 22.3507 27.3966 20.9547 24.2275 20.9547V19.3823C28.8505 19.3823 29.3697 22.0557 29.7482 24.0083C29.8085 24.3003 29.8621 24.5861 29.9291 24.8568C29.6209 25.1001 29.1151 25.4712 28.4418 25.8818C28.2575 25.3647 28.147 24.8173 28.0431 24.282ZM5.76915 8.76163C5.0958 8.73729 2.64027 8.58218 0.121094 7.60284V9.29996C2.63357 10.1576 4.99865 10.3067 5.76245 10.334C5.7323 9.70142 5.7524 9.15701 5.76915 8.76163ZM9.73216 18.8379C8.75062 19.6986 8.14428 20.8057 7.93323 22.1226C7.55803 24.4919 6.92824 26.2224 5.95675 27.5698C5.89645 27.6519 5.8328 27.7371 5.76915 27.8192L7.27998 28.6617C7.35368 28.5643 7.42738 28.464 7.50108 28.3636C8.60657 26.8307 9.31342 24.9146 9.72546 22.3294C9.88291 21.3379 10.3251 20.5198 11.032 19.8993C11.1928 19.7594 11.5009 19.4887 12.1776 19.1542L12.2245 19.1359C12.4624 19.0295 12.717 18.9169 12.9682 18.8105C12.1877 18.5976 11.4909 18.3391 10.8678 18.0471C10.3921 18.333 9.87956 18.7071 9.73216 18.8379ZM4.72061 12.1346C3.67876 12.8067 2.28853 13.7039 0.121094 13.8013V15.3767C2.83792 15.2794 4.55646 14.1723 5.72225 13.418C5.9132 13.2964 6.09744 13.1778 6.26494 13.0774C6.07734 12.5269 5.95675 11.9825 5.87635 11.4685C5.5045 11.6297 5.13265 11.87 4.72061 12.1346ZM2.76422 18.263C2.43592 18.9838 2.03728 19.8081 1.48788 20.4285C1.08589 20.8787 0.59344 21.1554 0.121094 21.274V22.8799C1.12944 22.7461 2.08753 22.2564 2.83457 21.417C3.52802 20.6323 3.98696 19.6895 4.36216 18.8652C5.0288 17.4084 6.56309 16.0306 7.57478 15.5166C7.22638 15.0756 6.94164 14.6164 6.71049 14.1571C5.30015 14.881 3.57157 16.499 2.76422 18.263ZM8.33188 16.3469C6.99524 17.2381 5.1494 18.9808 4.67371 21.9766C4.30521 24.279 3.71896 25.6415 2.94847 26.5752C2.76757 26.776 1.71903 27.7766 0.121094 28.5278V30.2949C0.630289 30.1002 1.23663 29.8174 1.65538 29.5923C2.52302 29.1179 3.41412 28.5613 4.18126 27.731C4.30186 27.6093 4.37221 27.5272 4.38896 27.509H4.38561C4.49616 27.3782 4.60671 27.2383 4.71056 27.0923C5.56145 25.9152 6.11754 24.355 6.46594 22.1804C6.72389 20.5654 7.47428 19.1998 8.70372 18.1231C9.01527 17.8494 9.39717 17.5726 9.67521 17.3932C9.16267 17.0677 8.72047 16.7149 8.33188 16.3469ZM12.3351 24.282C12.7103 22.3507 12.9816 20.9547 16.1541 20.9547V19.3823C11.5311 19.3823 11.0119 22.0557 10.63 24.0083C10.573 24.3003 10.5194 24.5861 10.4524 24.8568C10.7606 25.1001 11.2665 25.4712 11.9398 25.8818C12.124 25.3647 12.2312 24.8173 12.3351 24.282ZM14.5528 38.8261C13.3334 39.0481 12.7572 39.2671 12.7572 39.2671C11.9833 38.0049 11.7756 37.0469 12.1106 36.253C12.5327 35.2494 13.7052 34.8236 14.7404 34.4495C15.3601 34.2244 16.0033 33.9902 16.4723 33.6526C16.7068 33.4853 17.2462 32.874 17.1993 30.8454C17.1691 29.6075 16.9279 28.4944 16.9246 28.4822L16.7805 27.8374C17.3668 27.9682 18.0032 28.0686 18.69 28.1324C18.7 28.1811 18.9714 29.4311 19.0049 30.7937C19.0551 32.7767 18.5995 34.1301 17.6448 34.8175C16.9681 35.3041 16.1641 35.5961 15.4539 35.8546C14.66 36.1436 13.9732 36.3929 13.8158 36.767C13.7119 37.0104 13.9096 37.7859 14.5528 38.8261ZM35.1384 33.5766C35.2556 33.8077 35.3226 34.0693 35.3226 34.343C35.3226 34.6168 35.2556 34.8783 35.135 35.1125C35.135 35.1125 37.7815 35.3193 37.0009 38.1691C37.0009 38.1691 37.5738 37.7281 37.9557 37.3662C38.5185 36.8279 38.8568 36.3595 38.8568 36.3595C38.1634 33.677 35.1384 33.5766 35.1384 33.5766ZM34.8235 35.5505C34.455 35.9367 33.9089 36.18 33.2992 36.18C33.2557 36.18 33.2155 36.18 33.1719 36.177C33.1719 36.177 33.4299 36.6576 33.4299 37.1046C33.4299 37.5517 33.316 38.309 31.7649 38.9082L32.4617 40.432C34.7699 39.5743 35.259 38.0779 35.259 37.1594C35.259 36.2378 34.8235 35.5505 34.8235 35.5505ZM31.2959 34.5863C31.048 34.7171 30.646 34.9635 30.3177 35.3558C29.8454 35.9124 29.43 36.8522 30.1067 38.1813L31.7683 37.573C31.4969 37.0438 31.4936 36.6211 31.7582 36.2804C31.9123 36.0827 32.1167 35.958 32.2272 35.9002C31.7281 35.6143 31.3797 35.1399 31.2959 34.5863ZM31.3864 33.7469L29.0414 31.8856L30.3479 30.8302L32.5991 32.6185C32.0329 32.8071 31.584 33.2238 31.3864 33.7469ZM33.2992 32.503C33.4969 32.2323 33.8453 31.8095 34.3377 31.4324C35.4734 30.5625 36.8033 30.374 38.0863 30.9062L37.289 32.2779C36.8837 32.1106 36.3242 31.989 35.5806 32.5425C35.2791 32.7676 35.0479 33.0322 34.9039 33.2207C34.532 32.7858 33.9525 32.503 33.2992 32.503ZM31.6075 29.054L30.9844 30.4895C29.2558 29.9512 27.7517 28.8533 26.6629 27.8648C27.487 29.2061 28.2776 30.891 28.2274 32.4969L26.4217 32.4543C26.472 30.8241 25.3095 28.8898 24.4419 27.6306C25.5206 27.3538 26.6596 26.9402 27.544 26.4019C28.5054 27.3478 29.9626 28.543 31.6075 29.054ZM14.5628 15.1547C14.8409 14.665 15.0854 14.1936 15.3032 13.7435C11.3636 12.1315 10.5998 10.8115 9.75896 9.29083C9.06552 8.04081 8.27828 6.62046 5.7591 5.0663C1.99373 2.74265 0.643689 1.08203 0.121094 0.306471V2.84302C1.13279 3.85581 2.49957 4.93552 4.79766 6.35282C6.94834 7.68192 7.57143 8.8042 8.22803 9.9934C9.13252 11.6266 10.0705 13.3177 14.5628 15.1547ZM5.31355 35.1125C5.1963 34.8783 5.1293 34.6168 5.1293 34.343C5.1293 34.0693 5.1963 33.8108 5.31355 33.5766C5.31355 33.5766 2.28853 33.677 1.59173 36.3595C1.59173 36.3595 1.93343 36.8279 2.49622 37.3662C2.87477 37.7281 3.45097 38.1691 3.45097 38.1691C2.67042 35.3193 5.31355 35.1125 5.31355 35.1125ZM7.01869 37.1046C7.01869 36.6576 7.27663 36.177 7.27663 36.177C7.23643 36.18 7.19288 36.18 7.15269 36.18C6.54299 36.18 5.99694 35.9367 5.62845 35.5474C5.62845 35.5474 5.19295 36.2378 5.19295 37.1594C5.19295 38.0779 5.68205 39.5743 7.99018 40.432L8.68697 38.9082C7.13259 38.309 7.01869 37.5517 7.01869 37.1046ZM9.15262 34.5863C9.40387 34.7171 9.80251 34.9635 10.1342 35.3558C10.6032 35.9124 11.0219 36.8522 10.3452 38.1813L8.68362 37.573C8.95497 37.0438 8.95832 36.6211 8.69367 36.2804C8.53957 36.0827 8.33523 35.958 8.22468 35.9002C8.72382 35.6143 9.07222 35.1399 9.15262 34.5863ZM9.06552 33.7469L11.4105 31.8856L10.104 30.8302L7.85283 32.6185C8.41897 32.8071 8.86787 33.2238 9.06552 33.7469ZM7.15269 32.503C6.95504 32.2323 6.60664 31.8095 6.11419 31.4324C4.97855 30.5625 3.64861 30.374 2.36558 30.9062L3.16287 32.2779C3.56822 32.1106 4.12766 31.989 4.87135 32.5425C5.17285 32.7676 5.404 33.0322 5.54805 33.2207C5.9199 32.7858 6.49944 32.503 7.15269 32.503ZM8.84442 29.054L9.46752 30.4895C11.1961 29.9512 12.7002 28.8533 13.789 27.8648C12.9649 29.2061 12.1743 30.891 12.2245 32.4969L14.0302 32.4543C13.9799 30.8241 15.1424 28.8898 16.01 27.6306C14.9313 27.3538 13.7923 26.9402 12.9079 26.4019C11.9465 27.3478 10.4859 28.543 8.84442 29.054ZM21.9127 39.3279C21.7485 40.3529 21.4336 41.8219 20.5995 42.7161C20.4521 42.8742 20.3248 43.0141 20.2109 43.1388C20.097 43.0141 19.9663 42.8742 19.8189 42.7161C18.9848 41.8219 18.6699 40.3529 18.5057 39.3279L16.7135 39.5317C16.9078 40.7361 17.2897 42.4728 18.3985 43.6619C19.1255 44.4436 19.3801 44.7508 19.4538 44.8481C19.6447 45.0975 20.2109 45.8487 20.2109 45.8487C20.2109 45.8487 20.7737 45.0975 20.9646 44.8481C21.0383 44.7538 21.2929 44.4466 22.0199 43.6619C22.5525 43.0932 23.3029 42.0439 23.7049 39.5317L21.9127 39.3279ZM26.1939 11.5749C24.6261 7.28958 26.1169 5.42518 26.1336 5.40694L26.1236 5.41606L24.6797 4.49755C24.6194 4.56446 24.0868 5.191 23.8188 6.44406C23.4771 8.04081 23.6948 9.92041 24.4653 12.0281L26.1939 11.5749ZM16.6599 6.44406C16.3919 5.191 15.8593 4.56446 15.799 4.49755L14.3551 5.41606L14.3451 5.40694C14.3484 5.41302 14.7236 5.86923 14.9079 6.84249C15.2161 8.50006 14.7404 10.331 14.2848 11.5749L16.0134 12.0281C16.7839 9.92041 17.0016 8.04081 16.6599 6.44406ZM21.1321 11.4807C21.1589 8.1868 21.5073 5.65633 22.1639 3.96226C22.6296 2.7609 23.2493 2.00054 23.9528 1.76635C25.0817 1.38922 26.539 2.38376 27.0046 2.80044L27.3262 3.08937L27.7919 3.03463C29.9224 2.77611 30.3311 3.18062 30.3713 3.22928C30.5187 3.40264 30.3713 3.81323 30.2608 3.99572L30.2641 3.99267L31.8587 4.71349C31.9425 4.57967 32.6795 3.35398 31.8554 2.35335C31.2155 1.58083 29.9425 1.28885 27.9761 1.47134C27.7148 1.27668 27.3229 1.006 26.8438 0.765726C25.5943 0.13311 24.3682 -0.0159196 23.2962 0.339927C21.8926 0.805264 20.8675 2.06745 20.2109 4.16299C19.5543 2.06745 18.5292 0.805264 17.1222 0.339927C16.0536 -0.0159196 14.8241 0.13311 13.5746 0.765726C13.0989 1.006 12.7036 1.27668 12.4423 1.47134C10.4759 1.28885 9.20622 1.58083 8.56637 2.35335C7.73893 3.35398 8.47592 4.57967 8.56302 4.71349L10.1543 3.99267L10.1576 3.99572C10.0471 3.81323 9.90301 3.40264 10.0471 3.22928C10.0873 3.18062 10.4993 2.77611 12.6265 3.03463L13.0922 3.08937L13.4138 2.80044C13.4205 2.79435 13.866 2.39897 14.5059 2.07658C15.2663 1.69032 15.9263 1.58691 16.4656 1.76331C17.1691 1.9975 17.7888 2.75482 18.2545 3.95618C18.9111 5.65025 19.2595 8.18375 19.2896 11.4807V15.5257H21.1321V11.4807ZM25.8991 38.8261C27.1185 39.0481 27.6914 39.2671 27.6914 39.2671C28.4686 38.0049 28.6763 37.0469 28.3413 36.253C27.9158 35.2494 26.7467 34.8236 25.7115 34.4495C25.0884 34.2244 24.4486 33.9902 23.9796 33.6526C23.7451 33.4853 23.2058 32.874 23.2527 30.8454C23.2828 29.6075 23.524 28.4944 23.5273 28.4822L23.6714 27.8374C23.0852 27.9682 22.4487 28.0686 21.7619 28.1324C21.7519 28.1811 21.4805 29.4311 21.447 30.7937C21.3934 32.7767 21.8524 34.1301 22.8071 34.8175C23.4838 35.3041 24.2878 35.5961 24.998 35.8546C25.7919 36.1436 26.4787 36.3929 26.6361 36.767C26.74 37.0104 26.539 37.7859 25.8991 38.8261ZM141.215 35.3315H139.051L140.863 24.6926L138.853 24.3672L139.021 23.2723L143.363 22.74L142.997 24.7717C143.895 24.0934 144.743 23.5946 145.533 23.2723C146.324 22.9529 147.101 22.7917 147.858 22.7917C148.589 22.7917 149.148 22.9681 149.537 23.3179C149.925 23.6707 150.119 24.1725 150.119 24.8234C150.119 24.9633 150.109 25.1275 150.093 25.3252C150.073 25.5199 150.036 25.7814 149.979 26.1129L148.686 33.5735H150.877L150.696 34.6928L148.826 35.225C148.518 35.3132 148.237 35.3771 147.986 35.4227C147.731 35.4653 147.533 35.4866 147.393 35.4866C147.068 35.4866 146.82 35.4136 146.656 35.2646C146.491 35.1186 146.411 34.8935 146.411 34.5894C146.411 34.5012 146.418 34.3917 146.431 34.2548C146.445 34.121 146.468 33.9598 146.495 33.7682L147.801 26.1768C147.821 26.0734 147.835 25.967 147.845 25.8575C147.852 25.751 147.858 25.6081 147.858 25.4347C147.858 25.1488 147.785 24.9359 147.64 24.796C147.496 24.6591 147.269 24.5892 146.96 24.5892C146.585 24.5892 146.099 24.6896 145.507 24.8964C144.91 25.1001 144.006 25.4834 142.786 26.046L141.215 35.3315ZM130.422 27.9986C130.525 28.0077 130.629 28.0138 130.737 28.0199C130.844 28.023 131.005 28.026 131.222 28.026C132.626 28.026 133.671 27.8192 134.361 27.4086C135.048 26.995 135.393 26.3623 135.393 25.5138C135.393 25.088 135.256 24.7504 134.978 24.504C134.703 24.2577 134.321 24.133 133.835 24.133C133.001 24.133 132.288 24.4675 131.691 25.1366C131.098 25.8027 130.673 26.7577 130.422 27.9986ZM136.251 33.5462C135.604 34.2153 134.884 34.7293 134.086 35.0882C133.293 35.4501 132.482 35.6296 131.658 35.6296C130.422 35.6296 129.477 35.2585 128.827 34.5164C128.177 33.7743 127.852 32.6946 127.852 31.2803C127.852 28.7559 128.465 26.6908 129.691 25.091C130.917 23.4882 132.482 22.6883 134.381 22.6883C135.383 22.6883 136.153 22.9255 136.686 23.403C137.219 23.8805 137.487 24.5679 137.487 25.4621C137.487 26.6939 136.934 27.661 135.828 28.3575C134.723 29.057 133.189 29.4068 131.222 29.4068C130.951 29.4068 130.74 29.4038 130.596 29.4007C130.452 29.3946 130.314 29.3946 130.184 29.3946C130.144 29.714 130.117 30.006 130.097 30.2706C130.08 30.5382 130.07 30.7572 130.07 30.9306C130.07 31.8916 130.264 32.6216 130.653 33.1173C131.041 33.61 131.614 33.8594 132.375 33.8594C132.834 33.8594 133.323 33.756 133.842 33.5462C134.361 33.3394 134.917 33.017 135.507 32.582L136.251 33.5462ZM117.605 27.3873C117.605 28.0838 117.789 28.613 118.161 28.978C118.529 29.3399 119.065 29.5224 119.769 29.5224C120.556 29.5224 121.172 29.2334 121.621 28.6495C122.073 28.0686 122.298 27.2656 122.298 26.2407C122.298 25.5472 122.12 25.018 121.762 24.6531C121.407 24.2881 120.898 24.1056 120.231 24.1056C119.417 24.1056 118.777 24.3945 118.308 24.9724C117.839 25.5503 117.605 26.3563 117.605 27.3873ZM117.705 34.7171C116.881 35.3163 116.298 35.8333 115.963 36.2682C115.625 36.7001 115.457 37.1351 115.457 37.57C115.457 38.23 115.765 38.7531 116.382 39.1454C117.002 39.5347 117.842 39.7294 118.911 39.7294C120.214 39.7294 121.303 39.4648 122.184 38.9295C123.065 38.3972 123.504 37.7555 123.504 37.0104C123.504 36.2287 122.733 35.6904 121.186 35.3954C121.092 35.3771 121.022 35.3649 120.978 35.3558L117.705 34.7171ZM118.07 30.6447C117.189 30.3831 116.506 29.9451 116.017 29.3338C115.531 28.7225 115.286 27.9925 115.286 27.1409C115.286 25.8392 115.749 24.7747 116.67 23.9505C117.595 23.1263 118.791 22.7126 120.261 22.7126C120.851 22.7126 121.397 22.7978 121.903 22.962C122.408 23.1263 122.924 23.3909 123.45 23.7558C124.02 23.4182 124.583 23.1688 125.142 23.0076C125.698 22.8465 126.278 22.7674 126.877 22.7674C127.092 22.7674 127.4 22.7978 127.802 22.8556C127.859 22.8647 127.906 22.8738 127.943 22.8829L127.648 24.6409H124.08C124.278 24.9177 124.422 25.2279 124.516 25.5655C124.609 25.9031 124.656 26.2681 124.656 26.6574C124.656 27.8922 124.211 28.8989 123.323 29.6805C122.432 30.4622 121.276 30.8515 119.852 30.8515C119.712 30.8515 119.605 30.8484 119.531 30.8454C119.454 30.8393 119.383 30.8332 119.32 30.8241C119.012 31.1374 118.777 31.4293 118.623 31.697C118.469 31.9677 118.392 32.2019 118.392 32.3996C118.392 32.8436 119.042 33.169 120.345 33.3759C120.69 33.4367 120.958 33.4853 121.146 33.5218C123.082 33.8503 124.341 34.2183 124.918 34.6198C125.494 35.0243 125.782 35.5991 125.782 36.3473C125.782 37.6643 125.105 38.7926 123.759 39.7294C122.408 40.6692 120.733 41.1376 118.73 41.1376C117.129 41.1376 115.812 40.8213 114.781 40.1947C113.752 39.5652 113.236 38.7805 113.236 37.8437C113.236 37.1746 113.504 36.5694 114.037 36.028C114.57 35.4836 115.437 34.9391 116.636 34.3917C116.365 34.2275 116.174 34.0571 116.06 33.8777C115.946 33.7013 115.893 33.4823 115.893 33.2207C115.893 32.7341 116.064 32.287 116.405 31.8795C116.747 31.4719 117.3 31.0583 118.07 30.6447ZM106.305 27.9986C106.409 28.0077 106.516 28.0138 106.623 28.0199C106.731 28.023 106.891 28.026 107.106 28.026C108.513 28.026 109.558 27.8192 110.248 27.4086C110.935 26.995 111.28 26.3623 111.28 25.5138C111.28 25.088 111.139 24.7504 110.864 24.504C110.586 24.2577 110.208 24.133 109.719 24.133C108.885 24.133 108.171 24.4675 107.578 25.1366C106.982 25.8027 106.56 26.7577 106.305 27.9986ZM112.134 33.5462C111.491 34.2153 110.767 34.7293 109.973 35.0882C109.176 35.4501 108.365 35.6296 107.541 35.6296C106.305 35.6296 105.364 35.2585 104.714 34.5164C104.061 33.7743 103.736 32.6946 103.736 31.2803C103.736 28.7559 104.349 26.6908 105.575 25.091C106.801 23.4882 108.365 22.6883 110.268 22.6883C111.27 22.6883 112.037 22.9255 112.573 23.403C113.106 23.8805 113.37 24.5679 113.37 25.4621C113.37 26.6939 112.821 27.661 111.715 28.3575C110.61 29.057 109.072 29.4068 107.106 29.4068C106.834 29.4068 106.627 29.4038 106.483 29.4007C106.335 29.3946 106.198 29.3946 106.067 29.3946C106.03 29.714 106.004 30.006 105.984 30.2706C105.963 30.5382 105.957 30.7572 105.957 30.9306C105.957 31.8916 106.151 32.6216 106.54 33.1173C106.925 33.61 107.501 33.8594 108.258 33.8594C108.717 33.8594 109.206 33.756 109.725 33.5462C110.248 33.3394 110.801 33.017 111.39 32.582L112.134 33.5462ZM91.5787 26.1768C91.5988 26.046 91.6155 25.9152 91.6356 25.7814C91.6557 25.6446 91.6624 25.532 91.6624 25.4347C91.6624 25.1488 91.5921 24.9359 91.4447 24.796C91.3006 24.6591 91.0728 24.5892 90.7646 24.5892C90.3157 24.5892 89.7429 24.7108 89.0428 24.9542C88.346 25.1975 87.5587 25.5533 86.6777 26.0217L85.0764 35.3315H82.9123L84.7246 24.6926L82.6611 24.3155L82.8286 23.2753L87.2271 22.74L86.9155 24.6926C87.7765 24.0417 88.5905 23.5612 89.3543 23.254C90.1147 22.9468 90.8685 22.7917 91.6088 22.7917C92.3391 22.7917 92.9053 22.959 93.314 23.2935C93.7227 23.6281 93.9237 24.0934 93.9237 24.6926C94.8148 24.0509 95.6523 23.5734 96.4395 23.2601C97.2267 22.9468 97.9939 22.7917 98.7443 22.7917C99.4846 22.7917 100.044 22.962 100.429 23.3057C100.811 23.6494 101.006 24.1543 101.006 24.8234C101.006 24.9694 100.992 25.1519 100.969 25.3647C100.945 25.5777 100.912 25.8301 100.865 26.1251L99.6019 33.5735H101.793L101.608 34.6928L99.7392 35.225C99.431 35.3132 99.1463 35.3832 98.885 35.4349C98.6203 35.4866 98.4193 35.514 98.2786 35.514C97.9604 35.514 97.7225 35.4349 97.5617 35.2767C97.4043 35.1216 97.3239 34.8905 97.3239 34.5894C97.3239 34.5012 97.3306 34.3917 97.3473 34.2548C97.3607 34.121 97.3808 33.9598 97.4076 33.7682L98.7007 26.189C98.7309 26.0764 98.7476 25.967 98.7577 25.8575C98.7677 25.751 98.7711 25.6081 98.7711 25.4347C98.7711 25.1397 98.7007 24.9237 98.56 24.7899C98.4193 24.6561 98.2016 24.5892 97.9001 24.5892C97.4311 24.5892 96.8314 24.72 96.1012 24.9785C95.3708 25.2401 94.6004 25.605 93.7863 26.0734L92.185 35.3315H89.9908L91.5787 26.1768ZM79.8035 20.8787C79.4384 20.8787 79.1503 20.7874 78.9392 20.6049C78.7282 20.4224 78.6243 20.167 78.6243 19.8354C78.6243 19.3336 78.7617 18.923 79.0364 18.6067C79.3144 18.2904 79.6662 18.1322 80.0983 18.1322C80.4434 18.1322 80.7181 18.2144 80.9191 18.3847C81.1201 18.555 81.2206 18.7892 81.2206 19.0933C81.2206 19.6225 81.0899 20.0544 80.8286 20.3829C80.564 20.7144 80.2223 20.8787 79.8035 20.8787ZM78.6947 34.5346C78.2893 37.202 77.6796 38.966 76.8589 39.8358C76.0415 40.7026 74.7987 41.1376 73.1304 41.1376C72.6982 41.1376 72.3029 41.1011 71.9378 41.0342C71.5726 40.9642 71.2343 40.8608 70.9261 40.7209L71.3181 38.3638H72.7384L73.2577 39.7841C74.2225 39.7476 74.9293 39.4192 75.3849 38.7926C75.8405 38.1691 76.2191 36.767 76.5306 34.5894L77.9644 24.6926L75.9544 24.3155L76.1219 23.2753L80.4065 22.74L78.6947 34.5346ZM72.4771 20.8787C72.112 20.8787 71.8239 20.7874 71.6162 20.6049C71.4052 20.4224 71.298 20.167 71.298 19.8354C71.298 19.3245 71.4286 18.9109 71.6933 18.6006C71.9545 18.2874 72.2996 18.1322 72.7317 18.1322C73.0868 18.1322 73.3682 18.2144 73.5726 18.3847C73.7803 18.555 73.8841 18.7892 73.8841 19.0933C73.8841 19.6225 73.7535 20.0544 73.4955 20.3829C73.2376 20.7144 72.8992 20.8787 72.4771 20.8787ZM71.3549 33.5735H73.5458L73.3347 34.6928L71.4956 35.225C71.1941 35.3132 70.9295 35.3771 70.695 35.4227C70.4605 35.4653 70.2595 35.4866 70.092 35.4866C69.7436 35.4866 69.489 35.4136 69.3248 35.2646C69.1607 35.1186 69.0803 34.8905 69.0803 34.5894C69.0803 34.5012 69.087 34.3856 69.1071 34.2366C69.1272 34.0906 69.1439 33.9324 69.164 33.7682L70.7519 24.6926L68.7419 24.3155L68.9094 23.2753L73.251 22.74L71.3549 33.5735ZM50.3204 35.3315L50.5047 34.1575L52.5147 33.677L54.4643 20.8269L52.5984 20.3434L52.7659 19.1724H57.0639L62.9766 31.8673L64.6483 20.8269L62.7823 20.3434L62.9498 19.1724H68.6816L68.484 20.3434L66.4606 20.8269L64.2831 35.3315H62.4004L56.1661 21.8428L54.3538 33.677L56.1661 34.1575L55.9685 35.3315H50.3204Z" fill="#B03027"/>
</g>
<defs>
<clipPath id="clip0_1643_43710">
<rect width="151" height="45.6974" fill="white" transform="translate(0 0.151367)"/>
</clipPath>
</defs>
</svg>
