<svg xmlns="http://www.w3.org/2000/svg" width="384" height="351" fill="none" viewBox="0 0 384 351"><g filter="url(#filter0_f)"><path fill="#1A438F" fill-opacity=".312" fill-rule="evenodd" d="M195.848 258.098C242.66 259.991 259.981 253.695 274.122 244.018C288.262 234.341 239.547 227.402 196.896 227.402C154.246 227.402 110.782 234.103 119.671 244.018C128.559 253.933 149.036 256.205 195.848 258.098Z" clip-rule="evenodd" style="mix-blend-mode:multiply"/></g><path fill="url(#paint0_linear)" fill-rule="evenodd" d="M200 242.042C254.173 242.042 298.088 198.346 298.088 144.444C298.088 90.5427 254.173 46.8468 200 46.8468C145.828 46.8468 101.912 90.5427 101.912 144.444C101.912 198.346 145.828 242.042 200 242.042Z" clip-rule="evenodd"/><rect width="150.024" height="101.992" x="125.336" y="126.877" fill="#E0E5F6"/><path fill="url(#paint1_linear)" fill-rule="evenodd" d="M200.348 58.5585L125.336 127.292L200.348 196.156L275.36 127.292L200.348 58.5585Z" clip-rule="evenodd"/><path fill="#FCFCFD" fill-rule="evenodd" d="M142.904 142.831L198.839 194.218H202.213L258.148 142.831V79.054H142.904V142.831Z" clip-rule="evenodd"/><rect width="79.295" height="5.478" x="160.3" y="112.622" fill="#F1F3F7"/><rect width="79.295" height="5.478" x="160.3" y="145.805" fill="#F1F3F7"/><path fill="#F1F3F7" fill-rule="evenodd" d="M238.24 161.421H163.228L169.198 167.029H232.27L238.24 161.421Z" clip-rule="evenodd"/><path fill="#F1F3F7" fill-rule="evenodd" d="M219.73 178.012H180.796L186.766 183.49H213.759L219.73 178.012Z" clip-rule="evenodd"/><path fill="url(#paint2_linear)" fill-rule="evenodd" d="M212.936 184.459H187.759L125.336 229.716H275.36L212.936 184.459Z" clip-rule="evenodd"/><g filter="url(#filter1_d)"><rect width="15.616" height="15.616" fill="url(#paint3_radial)" rx="7.808" transform="matrix(0.766052 0.642779 -0.642797 0.766037 319.838 168.844)"/></g><g filter="url(#filter2_d)"><rect width="15.616" height="15.616" fill="url(#paint4_radial)" rx="7.808" transform="matrix(0.766052 0.642778 -0.642797 0.766036 279.822 43.9189)"/></g><g filter="url(#filter3_d)"><rect width="29.28" height="29.28" fill="url(#paint5_radial)" rx="14.64" transform="matrix(0.766052 0.642778 -0.642797 0.766037 258.349 244.97)"/></g><path fill="#D1D4D7" fill-rule="evenodd" d="M200.661 122.973C198.938 122.973 197.646 123.619 196.355 125.126C195.278 126.633 194.632 128.571 194.632 130.939C194.632 132.876 195.063 134.599 195.924 135.89C196.785 137.182 197.862 137.828 199.369 137.828C201.091 137.828 202.598 136.967 204.105 135.244C205.612 133.522 206.258 131.369 206.258 128.571C206.258 127.064 205.612 125.556 204.536 124.48C203.675 123.619 202.383 122.973 200.661 122.973Z" clip-rule="evenodd"/><path fill="#D1D4D7" fill-rule="evenodd" d="M161.448 129.733C161.448 108.204 178.887 90.7658 200.416 90.7658C221.946 90.7658 239.385 108.204 239.385 129.733C239.385 151.262 221.946 168.7 200.416 168.7C178.887 168.7 161.448 151.262 161.448 129.733ZM211.181 143.081C214.626 143.081 217.64 141.574 220.008 138.129C222.592 134.685 223.668 131.025 223.668 126.504C223.668 120.691 221.515 115.739 217.209 111.864C212.904 107.989 207.521 106.051 201.278 106.051C194.604 106.051 188.791 108.204 184.054 112.725C179.318 117.246 176.949 122.844 176.949 129.518C176.949 135.976 179.102 141.574 183.624 146.095C188.145 150.616 194.173 152.984 201.924 152.984C206.445 152.984 210.966 152.123 215.272 150.401L216.779 149.755C217.209 149.54 217.64 149.109 217.855 148.679C218.071 148.248 218.071 147.602 217.855 147.171L217.425 146.31C217.209 145.88 216.779 145.449 216.348 145.234C215.918 145.019 215.272 145.019 214.841 145.234L213.549 145.88C209.674 147.387 205.799 148.248 201.924 148.248C195.68 148.248 190.944 146.31 187.499 142.65C184.054 138.991 182.332 134.469 182.332 129.518C182.332 124.136 184.054 119.615 187.714 115.955C191.374 112.295 195.895 110.357 201.278 110.357C206.229 110.357 210.32 111.864 213.765 114.878C217.209 117.892 218.932 121.767 218.932 126.504C218.932 129.733 218.071 132.532 216.564 134.9C214.841 137.268 213.334 138.345 211.612 138.345C210.535 138.345 210.105 137.699 210.105 136.192C210.105 135.331 210.105 134.254 210.32 133.178L212.042 119.399C212.042 118.969 211.827 118.538 211.612 118.323C211.396 118.107 210.966 117.892 210.535 117.892H208.382C207.952 117.892 207.521 117.892 207.091 118.323C206.66 118.753 206.445 119.184 206.445 119.615V120.045C205.153 118.107 203 117.246 199.986 117.246C196.972 117.246 194.173 118.538 192.02 120.906C189.652 123.274 188.575 126.504 188.575 130.379C188.575 134.254 189.652 137.268 191.589 139.636C193.527 142.005 195.895 143.081 198.694 143.081C201.493 143.081 203.646 142.005 205.584 139.636C206.66 142.005 208.382 143.081 211.181 143.081Z" clip-rule="evenodd"/><g filter="url(#filter4_d)"><rect width="12.688" height="12.688" fill="url(#paint6_radial)" rx="6" transform="matrix(0.766052 0.642779 -0.642797 0.766037 61.2676 196.171)"/></g><g filter="url(#filter5_d)" opacity=".554"><rect width="4.88" height="4.88" fill="url(#paint7_radial)" rx="2.44" transform="matrix(0.766052 0.642778 -0.642797 0.766037 96.2432 87.8163)"/></g><defs><filter id="filter0_f" width="234.224" height="107.144" x="80.448" y="189.346" color-interpolation-filters="sRGB" filterUnits="userSpaceOnUse"><feFlood flood-opacity="0" result="BackgroundImageFix"/><feBlend in="SourceGraphic" in2="BackgroundImageFix" mode="normal" result="shape"/><feGaussianBlur result="effect1_foregroundBlur" stdDeviation="19.028"/></filter><filter id="filter1_d" width="125.616" height="125.616" x="257.992" y="132.036" color-interpolation-filters="sRGB" filterUnits="userSpaceOnUse"><feFlood flood-opacity="0" result="BackgroundImageFix"/><feColorMatrix in="SourceAlpha" type="matrix" values="0 0 0 0 0 0 0 0 0 0 0 0 0 0 0 0 0 0 127 0"/><feOffset dy="15"/><feGaussianBlur stdDeviation="27.5"/><feColorMatrix type="matrix" values="0 0 0 0 0.615686 0 0 0 0 0.639216 0 0 0 0 0.705882 0 0 0 0.2 0"/><feBlend in2="BackgroundImageFix" mode="normal" result="effect1_dropShadow"/><feBlend in="SourceGraphic" in2="effect1_dropShadow" mode="normal" result="shape"/></filter><filter id="filter2_d" width="125.616" height="125.616" x="217.977" y="7.111" color-interpolation-filters="sRGB" filterUnits="userSpaceOnUse"><feFlood flood-opacity="0" result="BackgroundImageFix"/><feColorMatrix in="SourceAlpha" type="matrix" values="0 0 0 0 0 0 0 0 0 0 0 0 0 0 0 0 0 0 127 0"/><feOffset dy="15"/><feGaussianBlur stdDeviation="27.5"/><feColorMatrix type="matrix" values="0 0 0 0 0.615686 0 0 0 0 0.639216 0 0 0 0 0.705882 0 0 0 0.2 0"/><feBlend in2="BackgroundImageFix" mode="normal" result="effect1_dropShadow"/><feBlend in="SourceGraphic" in2="effect1_dropShadow" mode="normal" result="shape"/></filter><filter id="filter3_d" width="139.281" height="139.28" x="190.513" y="210.955" color-interpolation-filters="sRGB" filterUnits="userSpaceOnUse"><feFlood flood-opacity="0" result="BackgroundImageFix"/><feColorMatrix in="SourceAlpha" type="matrix" values="0 0 0 0 0 0 0 0 0 0 0 0 0 0 0 0 0 0 127 0"/><feOffset dy="15"/><feGaussianBlur stdDeviation="27.5"/><feColorMatrix type="matrix" values="0 0 0 0 0.615686 0 0 0 0 0.639216 0 0 0 0 0.705882 0 0 0 0.2 0"/><feBlend in2="BackgroundImageFix" mode="normal" result="effect1_dropShadow"/><feBlend in="SourceGraphic" in2="effect1_dropShadow" mode="normal" result="shape"/></filter><filter id="filter4_d" width="122.969" height="122.969" x=".565" y="158.624" color-interpolation-filters="sRGB" filterUnits="userSpaceOnUse"><feFlood flood-opacity="0" result="BackgroundImageFix"/><feColorMatrix in="SourceAlpha" type="matrix" values="0 0 0 0 0 0 0 0 0 0 0 0 0 0 0 0 0 0 127 0"/><feOffset dy="15"/><feGaussianBlur stdDeviation="27.5"/><feColorMatrix type="matrix" values="0 0 0 0 0.615686 0 0 0 0 0.639216 0 0 0 0 0.705882 0 0 0 0.2 0"/><feBlend in2="BackgroundImageFix" mode="normal" result="effect1_dropShadow"/><feBlend in="SourceGraphic" in2="effect1_dropShadow" mode="normal" result="shape"/></filter><filter id="filter5_d" width="114.88" height="114.88" x="39.104" y="48.814" color-interpolation-filters="sRGB" filterUnits="userSpaceOnUse"><feFlood flood-opacity="0" result="BackgroundImageFix"/><feColorMatrix in="SourceAlpha" type="matrix" values="0 0 0 0 0 0 0 0 0 0 0 0 0 0 0 0 0 0 127 0"/><feOffset dy="15"/><feGaussianBlur stdDeviation="27.5"/><feColorMatrix type="matrix" values="0 0 0 0 0.615686 0 0 0 0 0.639216 0 0 0 0 0.705882 0 0 0 0.2 0"/><feBlend in2="BackgroundImageFix" mode="normal" result="effect1_dropShadow"/><feBlend in="SourceGraphic" in2="effect1_dropShadow" mode="normal" result="shape"/></filter><linearGradient id="paint0_linear" x1="298.088" x2="298.088" y1="242.042" y2="46.847" gradientUnits="userSpaceOnUse"><stop stop-color="#fff" stop-opacity=".404"/><stop offset=".119" stop-color="#F8EEEE" stop-opacity=".385"/><stop offset=".206" stop-color="#DEE5FF" stop-opacity=".371"/><stop offset="1" stop-color="#DEDFE5" stop-opacity=".245"/></linearGradient><linearGradient id="paint1_linear" x1="275.36" x2="275.36" y1="196.156" y2="58.559" gradientUnits="userSpaceOnUse"><stop stop-color="#909ABA"/><stop offset="1" stop-color="#AAB5CF"/></linearGradient><linearGradient id="paint2_linear" x1="125.336" x2="125.336" y1="184.459" y2="229.716" gradientUnits="userSpaceOnUse"><stop stop-color="#B9C8EF"/><stop offset="1" stop-color="#CED4EB"/></linearGradient><radialGradient id="paint3_radial" cx="0" cy="0" r="1" gradientTransform="translate(-0.324732 15.4959) rotate(45.4307) scale(11.272)" gradientUnits="userSpaceOnUse"><stop stop-color="#ECE6E7"/><stop offset="1" stop-color="#E9E4E5"/></radialGradient><radialGradient id="paint4_radial" cx="0" cy="0" r="1" gradientTransform="translate(-0.204876 -0.444586) rotate(90) scale(16.0604)" gradientUnits="userSpaceOnUse"><stop stop-color="#FCF9F9"/><stop offset="1" stop-color="#F5F1F2"/></radialGradient><radialGradient id="paint5_radial" cx="0" cy="0" r="1" gradientTransform="translate(14.6398 9.51977) rotate(60.7259) scale(29.9391)" gradientUnits="userSpaceOnUse"><stop stop-color="#fff"/><stop offset="1" stop-color="#B9A6A9"/></radialGradient><radialGradient id="paint6_radial" cx="0" cy="0" r="1" gradientTransform="translate(6.34394 4.12524) rotate(60.7259) scale(12.9736)" gradientUnits="userSpaceOnUse"><stop stop-color="#F8F1F2"/><stop offset="1" stop-color="#F2EAEB"/></radialGradient><radialGradient id="paint7_radial" cx="0" cy="0" r="1" gradientTransform="translate(2.43998 1.58663) rotate(60.7259) scale(4.98986)" gradientUnits="userSpaceOnUse"><stop stop-color="#E0C7CB"/><stop offset="1" stop-color="#EBEBEB"/></radialGradient></defs></svg>