<svg width="59" height="58" fill="none" xmlns="http://www.w3.org/2000/svg"><rect x=".25" width="58" height="58" rx="8" fill="#F7F9FC"/><path d="M23.204 35.556c1.4 1.4 1.4 3.7 0 5.102-1.4 1.4-5.527 3.226-6.928 1.825-1.4-1.4.425-5.527 1.826-6.927 1.4-1.4 3.676-1.4 5.102 0z" fill="#C4D1FF"/><path d="M19.027 34.88v.15a4.74 4.74 0 004.727 4.727h.1c.7-1.35.476-3.05-.675-4.201-1.1-1.126-2.801-1.35-4.152-.676z" fill="#9CB8F8"/><path d="M30.557 27.703c4.277 4.276 5.127 10.354 1.075 14.405l-1.926 1.926c-4.051 4.051-1.25-5.677-5.527-9.954-4.276-4.276-14.03-1.45-9.954-5.527l1.926-1.925c4.052-4.052 10.13-3.202 14.406 1.075z" fill="#092DAA"/><path d="M44.714 13.548c1.3 1.3.725 9.553-7.253 17.556-5.202 5.177-8.478 7.002-8.478 7.002-3.477 2.351-5.153.75-7.354-1.45-2.2-2.2-3.826-3.876-1.45-7.353 0 0 1.85-3.3 7.028-8.503 7.978-7.977 16.206-8.578 17.507-7.252z" fill="#305DFC"/><path d="M30.358 36.981c-3.627 2.426-5.377.775-7.653-1.5-2.301-2.301-3.977-4.027-1.5-7.653l.374-.6c-.975 1.325-1.4 2.075-1.4 2.075-2.376 3.477-.75 5.152 1.45 7.353 2.201 2.2 3.877 3.776 7.354 1.45 0 0 1.55-.875 4.226-3.1-1.826 1.4-2.851 1.975-2.851 1.975z" fill="#0A33C1"/><path d="M36.334 21.926a3.124 3.124 0 010 4.427 3.125 3.125 0 01-4.427 0 3.124 3.124 0 010-4.427c1.226-1.225 3.227-1.225 4.427 0z" fill="#E6ECFF"/><path d="M29.105 29.678c.626.626-.575 2.851-3.626 5.903-3.051 3.05-4.902 3.876-5.527 3.226-.626-.626.175-2.476 3.226-5.527 3.076-3.051 5.277-4.252 5.927-3.602zM34.132 21.75c.625 0 1.225.25 1.675.701.45.45.7 1.05.7 1.676 0 .625-.25 1.225-.7 1.675-.45.45-1.05.7-1.675.7-.626 0-1.226-.25-1.676-.7-.45-.45-.7-1.05-.7-1.675s.25-1.226.7-1.676c.45-.45 1.05-.7 1.676-.7zm0-.75c-.8 0-1.601.3-2.201.926a3.125 3.125 0 000 4.427c.6.6 1.4.925 2.2.925.801 0 1.601-.3 2.202-.925a3.125 3.125 0 000-4.427c-.6-.625-1.401-.925-2.201-.925zM37.059 14.173c.225 1.676 1.125 3.451 2.6 4.927 1.301 1.275 2.802 2.126 4.277 2.476 1.651-4.102 1.526-7.253.776-8.028-.726-.75-3.727-.875-7.653.625z" fill="#092DAA"/></svg>