<svg width="59" height="58" fill="none" xmlns="http://www.w3.org/2000/svg"><rect x=".25" width="58" height="58" rx="8" fill="#F7F9FC"/><path fill-rule="evenodd" clip-rule="evenodd" d="M22.613 43.042a.281.281 0 00.276-.337 2.182 2.182 0 01-.044-.435v-.002a5.747 5.747 0 012.44-4.699.281.281 0 00.03-.434 5.07 5.07 0 00-1.736-1.07.281.281 0 00-.322.095 2.408 2.408 0 01-3.856 0 .281.281 0 00-.321-.095 5.057 5.057 0 00-3.33 4.754c0 1.228.997 2.223 2.226 2.223h4.637zM33.186 37.136a.28.28 0 00.03.433 5.758 5.758 0 012.44 4.7c0 .15-.015.295-.044.436a.28.28 0 00.276.337h4.637c1.23 0 2.226-.995 2.226-2.222v-.001a5.056 5.056 0 00-3.33-4.754.281.281 0 00-.32.095 2.408 2.408 0 01-3.857 0 .281.281 0 00-.322-.095 5.07 5.07 0 00-1.736 1.07z" fill="#092DAA"/><path fill-rule="evenodd" clip-rule="evenodd" d="M32.062 36.338a.282.282 0 00-.321.096 3.112 3.112 0 01-2.492 1.245 3.112 3.112 0 01-2.492-1.245.281.281 0 00-.322-.096 6.308 6.308 0 00-4.154 5.93v.002A2.733 2.733 0 0025.017 45h8.463a2.733 2.733 0 002.736-2.73v-.002a6.308 6.308 0 00-4.154-5.93zM25.431 13.134a9.446 9.446 0 00-1.77 1.02c-.76.692-.959 1.498-.594 2.417a8.04 8.04 0 00-1.414 2.443c-.98.144-1.579.718-1.799 1.722a9.413 9.413 0 000 2.04c.22 1.003.82 1.578 1.8 1.722a8.043 8.043 0 001.413 2.443c-.365.919-.166 1.724.595 2.417a9.446 9.446 0 001.77 1.02c.98.311 1.779.08 2.394-.695a8.08 8.08 0 002.827 0c.614.775 1.413 1.006 2.394.694a9.446 9.446 0 001.77-1.02c.76-.692.96-1.497.595-2.416a8.041 8.041 0 001.413-2.443c.98-.144 1.58-.719 1.8-1.723a9.413 9.413 0 000-2.04c-.22-1.003-.82-1.577-1.8-1.721a8.042 8.042 0 00-1.413-2.444c.364-.918.166-1.724-.595-2.416a9.446 9.446 0 00-1.77-1.02c-.981-.312-1.78-.08-2.394.694a8.08 8.08 0 00-2.827 0c-.615-.774-1.413-1.005-2.395-.694zm1.944 5.4a3.734 3.734 0 015.092 1.362 3.718 3.718 0 01-1.364 5.081 3.733 3.733 0 01-5.092-1.361 3.718 3.718 0 011.364-5.082z" fill="#305DFC"/><path d="M29.25 38.24a3.672 3.672 0 003.676-3.668 3.672 3.672 0 00-3.676-3.669 3.672 3.672 0 00-3.676 3.669 3.672 3.672 0 003.676 3.668z" fill="#C4D1FF"/><path d="M37.17 37.685a2.968 2.968 0 002.972-2.965 2.968 2.968 0 00-2.972-2.965 2.968 2.968 0 00-2.97 2.965 2.968 2.968 0 002.97 2.965zM21.33 37.685a2.968 2.968 0 002.972-2.965 2.968 2.968 0 00-2.971-2.965 2.968 2.968 0 00-2.972 2.965 2.968 2.968 0 002.972 2.965z" fill="#6892FF"/></svg>