<svg width="59" height="58" fill="none" xmlns="http://www.w3.org/2000/svg"><rect x=".75" width="58" height="58" rx="8" fill="#F7F9FC"/><path d="M27.25 13c-3.812 0-1.187 1.532-4.481 2.923-3.294 1.391-2.638-1.446-5.146 1.095-2.509 2.54.329 1.838-1.012 5.141s-2.891.835-2.86 4.341c-.031 3.506 1.519 1.038 2.86 4.34 1.34 3.304-1.497 2.602 1.011 5.143 2.509 2.54 1.853-.297 5.147 1.094 3.294 1.392.67 2.923 4.48 2.923 3.812 0 1.187-1.532 4.48-2.923 3.295-1.391 2.639 1.446 5.147-1.094 2.509-2.54-.329-1.84 1.012-5.142 1.341-3.303 2.891-.835 2.86-4.34.031-3.507-1.519-1.039-2.86-4.342-1.34-3.302 1.497-2.6-1.012-5.141-2.508-2.54-1.852.296-5.146-1.095C28.436 14.532 31.06 13 27.25 13z" fill="#092DAA"/><path d="M27.249 13c-.405 0-.724.021-.999.054 2.306.274.536 1.626 3.48 2.869 1.399.59 2.076.418 2.595.22a6.597 6.597 0 01-.596-.22C28.437 14.53 31.06 13 27.25 13z" fill="#092DAA"/><path d="M35.234 15.918c-.425-.04-.741.202-1.238.332.246.171.53.413.88.768 2.509 2.54-.33 1.838 1.012 5.141 1.34 3.303 2.89.835 2.86 4.341.03 3.506-1.52 1.038-2.86 4.34-1.341 3.304 1.497 2.602-1.012 5.142a6.41 6.41 0 01-.88.768c.944.247 1.225.909 2.88-.768 2.509-2.54-.33-1.838 1.012-5.141 1.34-3.303 2.89-.835 2.86-4.341.03-3.506-1.52-1.038-2.86-4.34-1.341-3.304 1.497-2.602-1.012-5.142-.784-.794-1.259-1.063-1.642-1.1z" fill="#021C78"/><path d="M31.213 36.677c-.387.027-.866.14-1.483.4-2.944 1.243-1.174 2.595-3.48 2.87.275.032.594.053.999.053 3.811 0 1.187-1.532 4.48-2.923.216-.09.413-.162.596-.22a2.418 2.418 0 00-1.112-.18z" fill="#092DAA"/><path d="M34.688 26.5a7.438 7.438 0 11-14.876 0 7.438 7.438 0 0114.875 0z" fill="#fff"/><path d="M27.25 20.5a6.5 6.5 0 00-2.296.422c-.134.343-.203.709-.204 1.078a3 3 0 105.958-.494A6.5 6.5 0 0027.25 20.5z" fill="#E6ECFF"/><path d="M27.75 24c-2.77 0-5 2.23-5 5v1.645a6.5 6.5 0 004.764 2.345 6.5 6.5 0 005.236-3.04V29c0-2.77-2.23-5-5-5z" fill="#E6ECFF"/><path d="M27.25 23.714a5.702 5.702 0 00-5.715 5.715v1.879A7.428 7.428 0 0027.25 34c2.21 0 4.304-.985 5.715-2.685v-1.886a5.702 5.702 0 00-5.715-5.715z" fill="#315EFD"/><path d="M30.138 24.499c1.747 7.411-5.819 7.804-7.61 7.795A7.428 7.428 0 0027.25 34c2.209 0 4.303-.985 5.714-2.685v-1.886c0-2.11-1.135-3.94-2.827-4.93z" fill="#1C45D3"/><path d="M30.677 21.428a3.428 3.428 0 11-6.857 0 3.428 3.428 0 016.857 0z" fill="#C4D1FF"/><path d="M28.655 18.305c.202.442.307.923.308 1.41a3.428 3.428 0 01-3.428 3.428 3.429 3.429 0 01-1.406-.305 3.428 3.428 0 003.12 2.019 3.429 3.429 0 003.429-3.429 3.428 3.428 0 00-2.022-3.123z" fill="#9CB8F8"/><path d="M26.15 20.276c-.28.288-.652.373-.83.19-.18-.184-.097-.567.184-.855.28-.289.652-.374.83-.19.18.183.097.566-.184.855zM26.797 19.306c-.11.075-.238.076-.283.003-.046-.072.006-.191.117-.265.111-.075.238-.076.284-.003.046.072-.007.191-.118.265z" fill="#fff"/><path d="M45.75 37a8 8 0 11-16 0 8 8 0 0116 0z" fill="#305DFC"/><path d="M33.444 36.383c-.821 0-.821 1.231 0 1.231h8.613c.82 0 .82-1.23 0-1.23h-8.613zM33.444 40.076c-.821 0-.821 1.231 0 1.231h8.613c.82 0 .82-1.23 0-1.23h-8.613zM33.444 32.692c-.821 0-.821 1.231 0 1.231h8.613c.82 0 .82-1.23 0-1.23h-8.613z" fill="#fff"/><path d="M40.203 31.454a.615.615 0 00-.61.623v2.462c0 .82 1.232.82 1.232 0v-2.462a.615.615 0 00-.623-.623zM35.28 35.143a.615.615 0 00-.608.627v2.462c0 .82 1.231.82 1.231 0V35.77a.615.615 0 00-.622-.627zM40.203 38.836a.615.615 0 00-.61.627v2.462c0 .82 1.232.82 1.232 0v-2.462a.615.615 0 00-.622-.627z" fill="#6892FF"/></svg>