<svg width="59" height="58" fill="none" xmlns="http://www.w3.org/2000/svg"><rect x=".75" width="58" height="58" rx="8" fill="#F7F9FC"/><path d="M23.75 13c-5.523 0-10 4.477-10 10s4.477 10 10 10c.177 0 .347-.07.472-.195l9.333-9.333A.667.667 0 0033.75 23c-.006-5.52-4.48-9.994-10-10z" fill="#092DAA"/><path d="M27.55 25.949c-.401 0-.569.238-.87.46-.669.529-1.271.75-2.058.75-1.422 0-2.526-.784-3.062-2.096h2.895a.699.699 0 00.703-.7.703.703 0 00-.703-.715h-3.246a7.94 7.94 0 01-.033-.648c0-.204.016-.392.033-.58h3.965a.693.693 0 00.703-.716.689.689 0 00-.703-.698h-3.647c.535-1.347 1.64-2.165 3.095-2.165.803 0 1.423.221 2.058.75.302.221.469.46.87.46.419 0 .753-.375.753-.818 0-.239-.083-.443-.318-.682-.836-.87-2.058-1.363-3.43-1.363-2.426 0-4.283 1.5-4.952 3.818h-1.071a.699.699 0 00-.703.698c0 .41.318.716.703.716h.82c-.017.188-.017.375-.017.58 0 .222.017.443.034.648h-.854a.693.693 0 00-.703.716c0 .392.302.698.703.698h1.121c.686 2.267 2.544 3.75 4.92 3.75 1.371 0 2.593-.494 3.43-1.363.234-.239.317-.443.317-.682 0-.443-.334-.818-.753-.818z" fill="#fff"/><path d="M34.415 22.333c-6.259 0-11.333 5.074-11.333 11.334C23.082 39.926 28.156 45 34.415 45c6.26 0 11.334-5.074 11.334-11.333-.008-6.257-5.078-11.326-11.334-11.334z" fill="#315EFD"/><path d="M23.75 42.333a6.199 6.199 0 01-5.71-4.776l1.41.706a.667.667 0 10.596-1.194l-2.667-1.333c-.018-.01-.04-.008-.06-.016a.678.678 0 00-.266-.044.621.621 0 00-.064 0 .655.655 0 00-.062.021.667.667 0 00-.412.295c-.01.017-.028.03-.037.048l-1.333 2.667a.667.667 0 00.298.894c.096.047.201.069.307.066a.667.667 0 00.597-.368l.518-1.035a7.444 7.444 0 006.885 5.403.667.667 0 000-1.334zM44.047 18.401a.667.667 0 00-.894.299l-.518 1.035a7.444 7.444 0 00-6.886-5.402.667.667 0 000 1.334 6.198 6.198 0 015.709 4.773l-1.41-.705a.667.667 0 10-.597 1.193l2.667 1.333h.028a.653.653 0 00.27.072.643.643 0 00.343-.096l.012-.01a.656.656 0 00.212-.23c.008-.013.023-.018.03-.032l1.333-2.666a.667.667 0 00-.295-.896l-.004-.002z" fill="#2E3242"/><path fill-rule="evenodd" clip-rule="evenodd" d="M34.406 26.75c-4.09 0-7.406 3.262-7.406 7.285a7.2 7.2 0 002.181 5.162.189.189 0 00.294-.04c.631-1.122 1.738-2 3.088-2.426a3.232 3.232 0 01-1.46-2.697c0-1.795 1.479-3.249 3.303-3.249 1.825 0 3.304 1.454 3.304 3.25 0 1.122-.58 2.112-1.46 2.696 1.35.427 2.456 1.304 3.088 2.426a.188.188 0 00.292.04 7.201 7.201 0 002.182-5.162c0-4.023-3.316-7.285-7.406-7.285z" fill="#fff"/></svg>