<svg width="49" height="48" fill="none" xmlns="http://www.w3.org/2000/svg"><g clip-path="url(#a)"><path d="M5.855 5.202C1.635 9.513.162 19.893.564 27.719c.223 4.38 1.228 12.273 5.425 15.718C9.696 46.517 17.154 48 24.5 48s14.804-1.529 18.51-4.563c4.198-3.445 5.203-11.407 5.426-15.718.402-7.826-1.071-18.251-5.291-22.517-6.788-6.936-30.502-6.936-37.29 0Z" fill="#EC3561"/><g clip-path="url(#b)"><path d="M22.082 13.648a1.51 1.51 0 0 1 .963-1.316l7.13-2.757c.35-.135.737-.135 1.087 0l7.13 2.757a1.51 1.51 0 0 1 .962 1.316l.277 4.494a13.594 13.594 0 0 1-6.514 12.46l-1.617.981a1.508 1.508 0 0 1-1.564 0l-1.617-.98a13.594 13.594 0 0 1-6.514-12.461l.277-4.494Z" fill="#fff"/><path opacity=".6" d="M30.724 31.802c.27 0 .538-.074.777-.219l1.617-.98a13.594 13.594 0 0 0 6.514-12.461l-.277-4.494a1.51 1.51 0 0 0-.962-1.316l-7.13-2.757a1.508 1.508 0 0 0-.539-.101v22.328Z" fill="url(#c)" fill-opacity=".25"/><path d="m18.825 16.733.767.297c.184.071.301.254.289.45l-.033.54a15.56 15.56 0 0 0 5.99 13.253.452.452 0 0 1 .14.545 13.58 13.58 0 0 1-5.298 5.943l-1.617.98a1.508 1.508 0 0 1-1.564 0l-1.617-.98A13.594 13.594 0 0 1 9.368 25.3l.278-4.494a1.51 1.51 0 0 1 .962-1.316l7.13-2.756c.35-.136.737-.136 1.087 0Z" fill="#000" fill-opacity=".5"/></g></g><defs><clipPath id="a"><rect x=".5" width="48" height="48" rx="12.632" fill="#fff"/></clipPath><clipPath id="b"><path fill="#fff" d="M9.342 8.842h30.316v30.316H9.342z"/></clipPath><linearGradient id="c" x1="35.191" y1="9.474" x2="35.191" y2="31.802" gradientUnits="userSpaceOnUse"><stop stop-color="#EC3577"/><stop offset="1" stop-color="#EC3577" stop-opacity=".25"/></linearGradient></defs></svg>