<svg width="48" height="48" fill="none" xmlns="http://www.w3.org/2000/svg"><g clip-path="url(#a)"><path d="M5.355 5.202C1.135 9.513-.338 19.893.064 27.719c.223 4.38 1.228 12.273 5.425 15.718C9.196 46.517 16.654 48 24 48s14.804-1.529 18.51-4.563c4.198-3.445 5.203-11.407 5.426-15.718.402-7.826-1.071-18.251-5.291-22.517-6.788-6.936-30.502-6.936-37.29 0Z" fill="#36C8F6"/><g clip-path="url(#b)"><path d="M23.989 37.759a1.057 1.057 0 0 1-1.057-1.057v-5.636a1.057 1.057 0 0 1 2.114 0v5.636a1.057 1.057 0 0 1-1.057 1.057Z" fill="#fff" fill-opacity=".65"/><path d="M29.625 37.737H18.353a1.056 1.056 0 1 1 0-2.114h11.272a1.056 1.056 0 1 1 0 2.114Z" fill="#fff"/><path d="M35.261 10.261H12.717a3.875 3.875 0 0 0-3.875 3.875v14.09a3.875 3.875 0 0 0 3.875 3.875H35.26a3.875 3.875 0 0 0 3.875-3.875v-14.09a3.875 3.875 0 0 0-3.875-3.875Z" fill="#36C8F6"/><path d="M35.261 10.261H12.717a3.875 3.875 0 0 0-3.875 3.875v14.09a3.875 3.875 0 0 0 3.875 3.875H35.26a3.875 3.875 0 0 0 3.875-3.875v-14.09a3.875 3.875 0 0 0-3.875-3.875Z" fill="#fff" fill-opacity=".5"/><path d="m32.936 19.674-.355-1.407a.468.468 0 0 0-.482-.351l-1.346.087a7.385 7.385 0 0 0-1.766-2.375l.467-1.262a.466.466 0 0 0-.2-.562l-1.243-.742a.467.467 0 0 0-.59.093l-.887 1.008a7.407 7.407 0 0 0-2.929-.425l-.564-1.225a.465.465 0 0 0-.537-.256l-1.405.355a.464.464 0 0 0-.351.482l.085 1.344a7.416 7.416 0 0 0-2.375 1.765l-1.26-.466a.468.468 0 0 0-.564.199l-.742 1.245a.467.467 0 0 0 .093.589l1.01.888a7.438 7.438 0 0 0-.428 2.93l-1.222.561a.465.465 0 0 0-.258.538l.355 1.406a.47.47 0 0 0 .482.352l1.344-.088a7.439 7.439 0 0 0 1.766 2.375l-.465 1.263a.465.465 0 0 0 .197.562l1.245.742c.194.116.44.076.589-.093l.888-1.01a7.37 7.37 0 0 0 2.93.427l.562 1.225c.094.203.32.31.539.256l1.405-.355a.466.466 0 0 0 .35-.482l-.085-1.344a7.416 7.416 0 0 0 2.375-1.766l1.26.467a.466.466 0 0 0 .563-.2l.742-1.245a.464.464 0 0 0-.091-.588l-1.01-.889c.332-.92.482-1.915.425-2.929l1.225-.562a.466.466 0 0 0 .258-.537Z" fill="#fff"/><g opacity=".4"><path d="M29.991 21.186a5.988 5.988 0 1 1-11.972-.001 5.988 5.988 0 0 1 11.972.001Z" fill="url(#c)"/><path d="M29.991 21.186a5.988 5.988 0 1 1-11.972-.001 5.988 5.988 0 0 1 11.972.001Z" fill="url(#d)" style="mix-blend-mode:multiply"/><path d="M29.991 21.186a5.988 5.988 0 1 1-11.972-.001 5.988 5.988 0 0 1 11.972.001Z" fill="url(#e)" style="mix-blend-mode:multiply"/></g><path d="M29.04 21.18a5.027 5.027 0 0 1-5.028 5.029 5.03 5.03 0 0 1-5.033-5.029 5.03 5.03 0 0 1 5.033-5.028 5.026 5.026 0 0 1 5.028 5.028Z" fill="#36C8F6"/><path d="M24.434 18.935h.732l-1.581 4.49h-.733l1.582-4.49ZM22.631 19.94v.62l-1.615.64 1.616.64v.62l-2.177-.904v-.712l2.177-.904ZM25.387 22.42v-.62l1.616-.64-1.616-.639v-.62l2.177.903v.713l-2.177.903Z" fill="#fff"/><path opacity=".2" fill-rule="evenodd" clip-rule="evenodd" d="M32.66 18.58a3.7 3.7 0 0 1-4.576-5.475l1.17.699a.466.466 0 0 1 .2.562l-.467 1.262a7.387 7.387 0 0 1 1.766 2.375l1.346-.087a.468.468 0 0 1 .482.351l.079.313Z" fill="#000" fill-opacity=".4"/><path d="M34.82 15.028a3.513 3.513 0 0 1-3.511 3.512 3.514 3.514 0 0 1-3.518-3.512 3.514 3.514 0 0 1 3.518-3.512 3.513 3.513 0 0 1 3.512 3.512Z" fill="#0080A8"/><path d="M33.045 13.5c-.735.66-1.453 1.491-2.102 3.048a.084.084 0 0 1-.05.047l-.304.105a.084.084 0 0 1-.107-.055 2.44 2.44 0 0 0-.907-1.242c-.046-.034-.05-.103-.003-.136a.661.661 0 0 1 .87.09c.11.121.203.243.266.363.58-1.281 1.363-1.97 2.246-2.36.088-.04.162.075.09.14Z" fill="#fff"/></g></g><defs><linearGradient id="c" x1="24.005" y1="15.2" x2="24.005" y2="27.173" gradientUnits="userSpaceOnUse"><stop stop-color="#0080A8" stop-opacity=".65"/><stop offset="1" stop-color="#A1C2CD" stop-opacity="0"/></linearGradient><linearGradient id="d" x1="24.005" y1="15.2" x2="24.005" y2="27.173" gradientUnits="userSpaceOnUse"><stop stop-color="#0080A8" stop-opacity=".65"/><stop offset="1" stop-color="#A1C2CD" stop-opacity="0"/></linearGradient><linearGradient id="e" x1="24.005" y1="15.2" x2="24.005" y2="27.173" gradientUnits="userSpaceOnUse"><stop stop-color="#0080A8" stop-opacity=".65"/><stop offset="1" stop-color="#A1C2CD" stop-opacity="0"/></linearGradient><clipPath id="a"><rect width="48" height="48" rx="12.632" fill="#fff"/></clipPath><clipPath id="b"><path fill="#fff" d="M8.842 8.842h30.316v30.316H8.842z"/></clipPath></defs></svg>