<svg width="48" height="48" fill="none" xmlns="http://www.w3.org/2000/svg"><g clip-path="url(#a)"><path d="M5.355 5.202C1.135 9.513-.338 19.893.064 27.719c.223 4.38 1.228 12.273 5.425 15.718C9.196 46.517 16.654 48 24 48s14.804-1.529 18.51-4.563c4.198-3.445 5.203-11.407 5.426-15.718.402-7.826-1.071-18.251-5.291-22.517-6.788-6.936-30.502-6.936-37.29 0Z" fill="#2CC678"/><g clip-path="url(#b)" fill="#fff"><path d="M8.849 22.05a.888.888 0 0 0 .881.997h3.614a.888.888 0 0 0 .876-.74 9.86 9.86 0 0 1 8.086-8.087.888.888 0 0 0 .741-.876V9.73a.888.888 0 0 0-.998-.881 15.258 15.258 0 0 0-8.862 4.338 15.259 15.259 0 0 0-4.338 8.863Z" fill-opacity=".65"/><path d="M29.659 31.975a9.787 9.787 0 0 1-5.716 1.84 9.835 9.835 0 0 1-9.723-8.235.888.888 0 0 0-.876-.742H9.73a.888.888 0 0 0-.881.998c.944 7.595 7.433 13.322 15.094 13.322 3.413 0 6.64-1.108 9.334-3.203a.888.888 0 0 0 .082-1.33l-2.556-2.556a.888.888 0 0 0-1.144-.094Z" fill-opacity=".85"/><path d="M25.58 14.22a9.835 9.835 0 0 1 8.234 9.723c0 2.054-.636 4.03-1.84 5.716a.888.888 0 0 0 .095 1.144l2.556 2.556a.888.888 0 0 0 1.33-.082 15.065 15.065 0 0 0 3.203-9.334c0-7.661-5.727-14.15-13.322-15.094a.888.888 0 0 0-.998.881v3.614c0 .434.313.804.741.876Z" fill-opacity=".5"/><path d="M24.534 17.84H23.35a.888.888 0 0 0-.888.888V29.09h2.961V18.728a.888.888 0 0 0-.888-.888ZM27.199 29.09h2.073c.49 0 .888-.398.888-.888v-7.106a.888.888 0 0 0-.888-.888H27.2v8.882ZM20.685 22.577h-2.07a.888.888 0 0 0-.889.888v4.737c0 .49.398.888.888.888h2.071v-6.513Z"/></g></g><defs><clipPath id="a"><rect width="48" height="48" rx="12.632" fill="#fff"/></clipPath><clipPath id="b"><path fill="#fff" d="M8.842 8.842h30.316v30.316H8.842z"/></clipPath></defs></svg>