<svg width="49" height="48" fill="none" xmlns="http://www.w3.org/2000/svg"><g clip-path="url(#a)"><path d="M5.855 5.202C1.635 9.513.162 19.893.564 27.719c.223 4.38 1.228 12.273 5.425 15.718C9.696 46.517 17.154 48 24.5 48s14.804-1.529 18.51-4.563c4.198-3.445 5.203-11.407 5.426-15.718.402-7.826-1.071-18.251-5.291-22.517-6.788-6.936-30.502-6.936-37.29 0Z" fill="#009FDA"/><g clip-path="url(#b)" fill="#fff"><path d="M12.162 9.179c-1.586 0-2.82 1.248-2.82 2.853v15.871c0 1.605 1.234 2.854 2.82 2.854H27.85c1.586 0 2.82-1.249 2.82-2.854v-4.28h-2.82v4.28H12.162v-15.87H27.85v2.852h2.82v-2.853c0-1.605-1.234-2.853-2.82-2.853H12.162Z"/><path d="M21.151 17.917c-1.586 0-2.82 1.248-2.82 2.853v4.28h2.82v-4.28h15.687v15.872H21.15v-2.854h-2.82v2.854c0 1.604 1.234 2.853 2.82 2.853h15.687c1.586 0 2.82-1.249 2.82-2.853V20.77c0-1.605-1.234-2.853-2.82-2.853H21.15Z" fill-opacity=".5"/></g></g><defs><clipPath id="a"><rect x=".5" width="48" height="48" rx="12.632" fill="#fff"/></clipPath><clipPath id="b"><path fill="#fff" d="M9.342 8.842h30.316v30.316H9.342z"/></clipPath></defs></svg>