<svg width="14" height="15" viewBox="0 0 14 15" fill="none" xmlns="http://www.w3.org/2000/svg">
    <path d="M7 0.5C5.61553 0.5 4.26216 0.910543 3.11101 1.67971C1.95987 2.44888 1.06266 3.54213 0.532846 4.82122C0.003033 6.1003 -0.13559 7.50776 0.134506 8.86563C0.404603 10.2235 1.07129 11.4708 2.05026 12.4497C3.02922 13.4287 4.2765 14.0954 5.63437 14.3655C6.99224 14.6356 8.3997 14.497 9.67879 13.9672C10.9579 13.4373 12.0511 12.5401 12.8203 11.389C13.5895 10.2378 14 8.88447 14 7.5C13.9978 5.64415 13.2596 3.86493 11.9474 2.55264C10.6351 1.24035 8.85585 0.502161 7 0.5V0.5ZM11.0408 5.28333L7.04784 10.7019C7.00069 10.7645 6.94157 10.817 6.87391 10.8564C6.80624 10.8959 6.7314 10.9215 6.65375 10.9317C6.5761 10.9419 6.49719 10.9365 6.42163 10.9159C6.34607 10.8953 6.27537 10.8598 6.21367 10.8116L3.36234 8.53192C3.30251 8.48404 3.2527 8.42485 3.21574 8.35772C3.17879 8.29059 3.15542 8.21684 3.14697 8.14068C3.12991 7.98687 3.17464 7.83258 3.27134 7.71175C3.36803 7.59092 3.50876 7.51345 3.66257 7.49639C3.81638 7.47932 3.97067 7.52406 4.0915 7.62075L6.46917 9.523L10.1016 4.59325C10.1453 4.52763 10.2019 4.47156 10.2679 4.42842C10.3339 4.38528 10.408 4.35598 10.4856 4.34228C10.5633 4.32857 10.6429 4.33076 10.7197 4.3487C10.7965 4.36664 10.8689 4.39996 10.9324 4.44666C10.996 4.49335 11.0494 4.55244 11.0894 4.62036C11.1295 4.68828 11.1554 4.76362 11.1655 4.84183C11.1756 4.92003 11.1698 4.99947 11.1484 5.07536C11.1269 5.15124 11.0903 5.22199 11.0408 5.28333Z" fill="#315EFD"/>
</svg>
