<svg width="48" height="48" fill="none" xmlns="http://www.w3.org/2000/svg"><g clip-path="url(#a)"><path d="M5.355 5.202C1.135 9.513-.338 19.893.064 27.719c.223 4.38 1.228 12.273 5.425 15.718C9.196 46.517 16.654 48 24 48s14.804-1.529 18.51-4.563c4.198-3.445 5.203-11.407 5.426-15.718.402-7.826-1.071-18.251-5.291-22.517-6.788-6.936-30.502-6.936-37.29 0Z" fill="#F89728"/><g clip-path="url(#b)"><path d="M30.253 34.737H17.747c-.383 0-.694.176-.694.395V37.5c0 .218.31.395.694.395h12.506c.383 0 .695-.177.695-.395v-2.368c0-.218-.312-.395-.695-.395Z" fill="#000" fill-opacity=".4"/><path d="M33.02 39.158H14.98a.694.694 0 0 1 0-1.388H33.02a.694.694 0 1 1 0 1.388Z" fill="#F89728"/><path d="M33.021 39.158H14.98a.694.694 0 1 1 0-1.388h18.042a.694.694 0 0 1 0 1.388Z" fill="#fff" fill-opacity=".5"/><path d="M38.572 16.258v15.267a3.47 3.47 0 0 1-3.47 3.47H12.898a3.47 3.47 0 0 1-3.47-3.47v-15.96a2.776 2.776 0 0 1 2.776-2.776h22.9a3.47 3.47 0 0 1 3.47 3.47Z" fill="#fff"/><path d="M38.572 30.744v.78a3.47 3.47 0 0 1-3.47 3.47H12.898a3.47 3.47 0 0 1-3.47-3.47v-.78h29.145Z" fill="#F89728"/><path d="M38.572 30.744v.78a3.47 3.47 0 0 1-3.47 3.47H12.898a3.47 3.47 0 0 1-3.47-3.47v-.78h29.145Z" fill="#fff" fill-opacity=".5"/><path d="M34.409 26.721a2.947 2.947 0 0 1-2.938 2.939H16.529a2.947 2.947 0 0 1-2.938-2.939v-14.94a2.947 2.947 0 0 1 2.938-2.939h14.942a2.947 2.947 0 0 1 2.938 2.938v14.941Z" fill="#000"/><path d="M16.06 20.008h1.704c1.292 0 2.35 1.013 2.35 2.32 0 1.308-1.072 2.322-2.35 2.322h-1.705v-4.642Zm1.204 3.614h.265c.72 0 1.336-.397 1.336-1.293 0-.823-.543-1.293-1.322-1.293h-.279v2.586ZM21.672 24.65h-1.117v-3.159h1.117v3.159ZM25.741 24.342c0 1.337-.661 1.88-1.822 1.88-.72 0-1.704-.382-1.792-1.205h1.249c.029.118.117.191.205.235a.86.86 0 0 0 .323.074c.603 0 .72-.397.72-.911v-.147c-.293.294-.587.426-.999.426-.925 0-1.557-.705-1.557-1.616 0-.925.646-1.704 1.616-1.704.367 0 .705.117.926.44h.014v-.337h1.117v2.865Zm-2.512-1.293c0 .396.264.705.72.705.455 0 .72-.309.72-.705 0-.382-.265-.72-.72-.72-.456.014-.72.338-.72.72Z" fill="#fff"/><path d="M27.46 24.65h-1.117v-3.159h1.117v3.159ZM28.106 20.008h1.704c1.293 0 2.351 1.013 2.351 2.32 0 1.308-1.072 2.322-2.35 2.322h-1.705v-4.642Zm1.205 3.614h.264c.72 0 1.337-.397 1.337-1.293 0-.823-.543-1.293-1.322-1.293h-.28v2.586Z" fill="#F89728"/><path d="M21.745 20.287c0 .338-.28.631-.632.631a.636.636 0 0 1-.632-.631c0-.338.28-.632.632-.632a.646.646 0 0 1 .632.632Z" fill="#fff"/><path d="M27.504 20.287c0 .338-.28.631-.632.631a.636.636 0 0 1-.631-.631c0-.338.279-.632.631-.632a.646.646 0 0 1 .632.632Z" fill="#F89728"/></g></g><defs><clipPath id="a"><rect width="48" height="48" rx="12.632" fill="#fff"/></clipPath><clipPath id="b"><path fill="#fff" d="M8.842 8.842h30.316v30.316H8.842z"/></clipPath></defs></svg>