<svg width="49" height="48" fill="none" xmlns="http://www.w3.org/2000/svg"><g clip-path="url(#a)"><path d="M5.855 5.202C1.635 9.513.162 19.893.564 27.719c.223 4.38 1.228 12.273 5.425 15.718C9.696 46.517 17.154 48 24.5 48s14.804-1.529 18.51-4.563c4.198-3.445 5.203-11.407 5.426-15.718.402-7.826-1.071-18.251-5.291-22.517-6.788-6.936-30.502-6.936-37.29 0Z" fill="#009EF4"/><g clip-path="url(#b)"><path d="M24.5 35.277a.371.371 0 0 1-.371-.371v-6.349a.371.371 0 0 1 .742 0v6.349a.371.371 0 0 1-.371.37ZM24.5 19.815a.371.371 0 0 1-.371-.372v-6.348a.371.371 0 1 1 .742 0v6.348a.371.371 0 0 1-.371.372ZM15.056 29.824a.37.37 0 0 1-.185-.693l3.367-1.944a.37.37 0 1 1 .371.643l-3.367 1.944a.364.364 0 0 1-.186.05ZM30.577 20.863a.372.372 0 0 1-.185-.693l3.367-1.944a.372.372 0 0 1 .549.417.37.37 0 0 1-.178.226l-3.367 1.944a.365.365 0 0 1-.186.05ZM18.423 20.863a.371.371 0 0 1-.186-.05l-3.367-1.944a.371.371 0 0 1 .371-.643l3.367 1.944a.372.372 0 0 1-.185.693ZM33.944 29.824a.371.371 0 0 1-.186-.05l-3.367-1.944a.371.371 0 0 1 .371-.642l3.367 1.944a.371.371 0 0 1-.185.692Z" fill="#000" fill-opacity=".4"/><path d="M24.5 12.908a2.033 2.033 0 1 0 0-4.066 2.033 2.033 0 0 0 0 4.066Z" fill="#fff"/><path d="M13.133 19.878a2.033 2.033 0 1 0 0-4.066 2.033 2.033 0 0 0 0 4.066Z" fill="#fff" fill-opacity=".85"/><path d="M13.133 32.388a2.033 2.033 0 1 0 0-4.066 2.033 2.033 0 0 0 0 4.066Z" fill="#fff"/><path d="M24.5 39.158a2.033 2.033 0 1 0 0-4.066 2.033 2.033 0 0 0 0 4.066Z" fill="#fff" fill-opacity=".85"/><path d="M35.867 32.388a2.033 2.033 0 1 0 0-4.066 2.033 2.033 0 0 0 0 4.066Z" fill="#fff"/><path d="M35.867 19.854a2.033 2.033 0 1 0 0-4.066 2.033 2.033 0 0 0 0 4.066Z" fill="#fff" fill-opacity=".85"/><path d="M29.88 18.47H19.121a2.2 2.2 0 0 0-2.201 2.2v6.659a2.2 2.2 0 0 0 2.2 2.2H29.88a2.2 2.2 0 0 0 2.2-2.2V20.67a2.2 2.2 0 0 0-2.2-2.2Z" fill="#009EF4"/><path d="M29.88 18.47H19.121a2.2 2.2 0 0 0-2.201 2.2v6.659a2.2 2.2 0 0 0 2.2 2.2H29.88a2.2 2.2 0 0 0 2.2-2.2V20.67a2.2 2.2 0 0 0-2.2-2.2Z" fill="#fff" fill-opacity=".5"/><path d="M31.464 28.855a2.193 2.193 0 0 1-1.585.676H19.121a2.192 2.192 0 0 1-1.585-.676L21.966 24l.78.857a2.377 2.377 0 0 0 3.513 0l.779-.857 4.426 4.855Z" fill="#fff" fill-opacity=".2"/><path opacity=".1" d="M31.464 28.855a2.193 2.193 0 0 1-1.585.676H19.121a2.192 2.192 0 0 1-1.585-.676L21.966 24l.78.857a2.377 2.377 0 0 0 3.513 0l.779-.857 4.426 4.855Z" fill="url(#c)"/><path d="m31.464 19.145-5.208 5.712a2.375 2.375 0 0 1-3.512 0l-5.208-5.712a2.193 2.193 0 0 1 1.585-.676h10.758a2.193 2.193 0 0 1 1.585.676Z" fill="#fff" fill-opacity=".85"/></g></g><defs><clipPath id="a"><rect x=".5" width="48" height="48" rx="12.632" fill="#fff"/></clipPath><clipPath id="b"><path fill="#fff" d="M9.342 8.842h30.316v30.316H9.342z"/></clipPath><linearGradient id="c" x1="24.5" y1="24" x2="24.5" y2="29.531" gradientUnits="userSpaceOnUse"><stop stop-color="#22398E"/><stop offset=".661" stop-color="#315EFD" stop-opacity="0"/></linearGradient></defs></svg>