<svg width="48" height="48" fill="none" xmlns="http://www.w3.org/2000/svg"><g clip-path="url(#prefix__clip0_1042_74472)"><path d="M5.355 5.202C1.135 9.513-.338 19.893.064 27.719c.223 4.38 1.228 12.273 5.425 15.718C9.196 46.517 16.654 48 24 48s14.804-1.529 18.51-4.563c4.198-3.445 5.203-11.407 5.426-15.718.402-7.826-1.071-18.251-5.291-22.517-6.788-6.936-30.502-6.936-37.29 0z" fill="url(#prefix__paint0_linear_1042_74472)"/><path d="M12.085 26.61h-1.76a.85.85 0 00-.85.851v10.214c0 .47.38.851.85.851h1.76a2.556 2.556 0 002.553-2.553v-6.81a2.556 2.556 0 00-2.553-2.553z" fill="#FB0024"/><path d="M29.165 9.474c-5.158 0-9.362 4.204-9.362 9.362 0 2.247.8 4.307 2.128 5.924a7.596 7.596 0 012.927 1.6c.16.12.251.12.426.137h3.03c1.175 0 2.213.578 2.81 1.498 4.22-.902 7.404-4.665 7.404-9.159 0-5.158-4.205-9.362-9.363-9.362z" fill="#fff"/><path d="M38.271 28.261a1.559 1.559 0 00-.391-.425c-.627-.548-1.683-.497-2.298.17l-3.865 4.46-.119.136a2.511 2.511 0 01-1.872.817h-6.662a.843.843 0 01-.851-.85c0-.477.374-.852.85-.852h5.25c.936 0 1.702-.766 1.702-1.702v-.017a1.704 1.704 0 00-1.702-1.686h-3.138c-.51 0-1.058-.187-1.498-.561-2.077-1.822-5.107-1.941-7.337-.392v10.47c1.685.459 3.422.697 5.175.697h7.649a5.966 5.966 0 004.766-2.383l4.086-5.447c.596-.783.64-1.856.255-2.435z" fill="#fff"/><path d="M33.16 19.893a.908.908 0 00-1.253.283c-.404.64-1.07 1.405-1.95 1.41-.733.006-1.54-.399-2.127-1.346l1.21-.009a.908.908 0 10-.012-1.815l-1.794.012a4.706 4.706 0 01-.006-.908l1.794-.012a.908.908 0 10-.012-1.816l-1.211.008c.573-.955 1.375-1.371 2.11-1.376.878-.006 1.555.75 1.968 1.385a.908.908 0 101.522-.99c-2.374-3.65-6.346-2.403-7.612.995l-.409.003a.908.908 0 10.013 1.815c.038 0 0-.035.003.454.003.49.04.454.003.454a.908.908 0 00-.147 1.803c.106.018.139.013.568.01 1.302 3.358 5.29 4.591 7.625.892a.908.908 0 00-.283-1.252z" fill="#111"/></g><defs><linearGradient id="prefix__paint0_linear_1042_74472" x1="0" y1="0" x2="48" y2="48" gradientUnits="userSpaceOnUse"><stop stop-color="#001DFF"/><stop offset=".5" stop-color="#111"/><stop offset="1" stop-color="#111"/></linearGradient><clipPath id="prefix__clip0_1042_74472"><rect width="48" height="48" rx="20" fill="#fff"/></clipPath></defs></svg>