<svg width="49" height="48" fill="none" xmlns="http://www.w3.org/2000/svg"><g clip-path="url(#prefix__clip0_1006_101366)"><path d="M5.855 5.202C1.635 9.513.162 19.893.564 27.719c.223 4.38 1.228 12.273 5.425 15.718C9.696 46.517 17.154 48 24.5 48s14.804-1.529 18.51-4.563c4.198-3.445 5.203-11.407 5.426-15.718.402-7.826-1.071-18.251-5.291-22.517-6.788-6.936-30.502-6.936-37.29 0z" fill="#7431C9"/><path d="M36.87 22.49H13.628a3.597 3.597 0 01-2.179-.744v13.818a2.908 2.908 0 002.905 2.906H36.87a.726.726 0 00.727-.727V32.66h-5.085a.726.726 0 01-.726-.726v-4.358c0-.401.325-.726.725-.726h5.085v-3.632c0-.401-.324-.726-.725-.726z" fill="#fff"/><path d="M33.238 28.301h4.358v2.905h-4.358v-2.905z" fill="#FFE928"/><path d="M13.628 21.038h21.063v-3.631a.726.726 0 00-.726-.727h-7.263v.727a2.179 2.179 0 01-4.358 0v-.727h-8.716a2.179 2.179 0 100 4.358z" fill="#C6BCD2"/><path d="M21.345 13.616l2.451-1.962v5.752a.726.726 0 101.453 0v-5.752l2.451 1.962a.727.727 0 00.908-1.135l-3.632-2.906a.73.73 0 00-.908 0l-3.631 2.906a.727.727 0 10.908 1.135z" fill="#FFE928"/></g><defs><clipPath id="prefix__clip0_1006_101366"><rect x=".5" width="48" height="48" rx="12.63" fill="#fff"/></clipPath></defs></svg>