<svg width="49" height="48" fill="none" xmlns="http://www.w3.org/2000/svg"><g clip-path="url(#a)"><path d="M5.855 5.202C1.635 9.513.162 19.893.564 27.719c.223 4.38 1.228 12.273 5.425 15.718C9.696 46.517 17.154 48 24.5 48s14.804-1.529 18.51-4.563c4.198-3.445 5.203-11.407 5.426-15.718.402-7.826-1.071-18.251-5.291-22.517-6.788-6.936-30.502-6.936-37.29 0Z" fill="#004388"/><g clip-path="url(#b)"><path d="M24.5 12.208a.458.458 0 0 1-.458-.458V9.3a.458.458 0 1 1 .916 0v2.45a.458.458 0 0 1-.458.458ZM18.375 13.85a.458.458 0 0 1-.397-.23L16.753 11.5a.458.458 0 1 1 .794-.458l1.225 2.121a.458.458 0 0 1-.396.687ZM13.89 18.333a.455.455 0 0 1-.228-.061l-2.121-1.225a.458.458 0 0 1 .458-.794l2.121 1.225a.458.458 0 0 1-.23.855ZM12.25 24.458H9.8a.458.458 0 0 1 0-.916h2.45a.458.458 0 1 1 0 .916ZM11.77 31.808a.458.458 0 0 1-.23-.855l2.122-1.225a.458.458 0 0 1 .458.794L12 31.747a.456.456 0 0 1-.229.061ZM17.15 37.189a.457.457 0 0 1-.397-.688l1.225-2.121a.458.458 0 0 1 .794.458l-1.225 2.121a.458.458 0 0 1-.397.23ZM24.5 39.158a.458.458 0 0 1-.458-.458v-2.45a.458.458 0 1 1 .916 0v2.45a.458.458 0 0 1-.458.458ZM31.85 37.189a.458.458 0 0 1-.397-.23l-1.225-2.121a.458.458 0 1 1 .794-.458l1.225 2.121a.458.458 0 0 1-.397.688ZM37.23 31.808a.455.455 0 0 1-.229-.061l-2.121-1.225a.458.458 0 0 1 .458-.794l2.121 1.225a.458.458 0 0 1-.229.855ZM39.2 24.458h-2.45a.458.458 0 1 1 0-.916h2.45a.458.458 0 1 1 0 .916ZM35.11 18.333a.458.458 0 0 1-.23-.855L37 16.253a.458.458 0 0 1 .459.794l-2.122 1.225a.457.457 0 0 1-.229.061ZM30.625 13.85a.458.458 0 0 1-.396-.687l1.224-2.123a.458.458 0 0 1 .794.459l-1.225 2.121a.458.458 0 0 1-.397.23Z" fill="#fff"/><path opacity=".5" d="M24.5 32.575a8.575 8.575 0 1 0 0-17.15 8.575 8.575 0 0 0 0 17.15Z" fill="#000" fill-opacity=".4"/><path fill-rule="evenodd" clip-rule="evenodd" d="M24.5 15.414c-4.741 0-8.586 3.801-8.586 8.49 0 2.35.967 4.478 2.53 6.015.1.098.27.075.34-.047.731-1.307 2.014-2.33 3.58-2.827a3.772 3.772 0 0 1-1.694-3.143c0-2.091 1.715-3.786 3.83-3.786s3.83 1.695 3.83 3.786a3.774 3.774 0 0 1-1.693 3.143c1.565.497 2.848 1.52 3.58 2.827.067.122.24.145.339.047a8.413 8.413 0 0 0 2.53-6.016c0-4.688-3.845-8.489-8.586-8.489Z" fill="#fff"/><path opacity=".05" d="M24.5 15.425c-.31 0-.617.017-.919.05a8.576 8.576 0 0 1 0 17.05 8.575 8.575 0 1 0 .919-17.1Z" fill="#000"/></g></g><defs><clipPath id="a"><rect x=".5" width="48" height="48" rx="12.632" fill="#fff"/></clipPath><clipPath id="b"><path fill="#fff" d="M9.342 8.842h30.316v30.316H9.342z"/></clipPath></defs></svg>