<svg width="49" height="48" fill="none" xmlns="http://www.w3.org/2000/svg"><g clip-path="url(#a)"><path d="M5.855 5.202C1.635 9.513.162 19.893.564 27.719c.223 4.38 1.228 12.273 5.425 15.718C9.696 46.517 17.154 48 24.5 48s14.804-1.529 18.51-4.563c4.198-3.445 5.203-11.407 5.426-15.718.402-7.826-1.071-18.251-5.291-22.517-6.788-6.936-30.502-6.936-37.29 0Z" fill="#53D8E3"/><g clip-path="url(#b)"><path d="m37.7 28.862-20.85 3.676a2.368 2.368 0 0 1-2.743-1.921L11.812 17.6a2.368 2.368 0 0 1 1.921-2.743l20.85-3.677a2.368 2.368 0 0 1 2.744 1.921l2.294 13.016a2.368 2.368 0 0 1-1.92 2.744Z" fill="#000" fill-opacity=".4"/><path d="M32.434 36.855H11.711a2.368 2.368 0 0 1-2.369-2.368V21.595a2.368 2.368 0 0 1 2.368-2.368h20.724a2.368 2.368 0 0 1 2.369 2.368v12.892a2.368 2.368 0 0 1-2.369 2.368Z" fill="#fff"/><path d="M16.042 22.993H13.54a1 1 0 0 0-1 1.001v2.502a1 1 0 0 0 1 1h2.502a1 1 0 0 0 1-1v-2.502a1 1 0 0 0-1-1ZM16.042 28.497H13.54a1 1 0 0 0-1 1V32a1 1 0 0 0 1 1.001h2.502a1 1 0 0 0 1-1v-2.502a1 1 0 0 0-1-1.001ZM21.545 22.993h-2.501a1 1 0 0 0-1 1.001v2.502a1 1 0 0 0 1 1h2.501a1 1 0 0 0 1.001-1v-2.502a1 1 0 0 0-1-1ZM22.046 33h-3.503a.5.5 0 0 1 0-1h3.503a.5.5 0 1 1 0 1ZM22.046 31.499h-1.501a1 1 0 0 1-1-1v-1.001h-.501v1.5a.5.5 0 0 1-1 0v-1.5a1 1 0 0 1 1-1.001h.5a1 1 0 0 1 1 1v1.001h1.502a.5.5 0 1 1 0 1.001Z" fill="#213B78"/><path d="M21.796 29.998a.75.75 0 1 0 0-1.501.75.75 0 0 0 0 1.501ZM29.788 27.358h-4.23a1.058 1.058 0 0 1 0-2.115h4.23a1.057 1.057 0 1 1 0 2.116ZM27.42 30.835h-1.863a1.058 1.058 0 0 1 0-2.115h1.862a1.058 1.058 0 1 1 0 2.115Z" fill="#213B78"/></g></g><defs><clipPath id="a"><rect x=".5" width="48" height="48" rx="12.632" fill="#fff"/></clipPath><clipPath id="b"><path fill="#fff" d="M9.342 8.842h30.316v30.316H9.342z"/></clipPath></defs></svg>