<svg width="48" height="48" fill="none" xmlns="http://www.w3.org/2000/svg"><g clip-path="url(#a)"><path d="M5.355 5.202C1.135 9.513-.338 19.893.064 27.719c.223 4.38 1.228 12.273 5.425 15.718C9.196 46.517 16.654 48 24 48s14.804-1.529 18.51-4.563c4.198-3.445 5.203-11.407 5.426-15.718.402-7.826-1.071-18.251-5.291-22.517-6.788-6.936-30.502-6.936-37.29 0Z" fill="#14AB8C"/><g clip-path="url(#b)"><path d="m34.396 37.661-2.072 1.396a.592.592 0 0 1-.661 0l-2.334-1.572-2.334 1.572a.592.592 0 0 1-.661 0L24 37.485l-2.334 1.572a.592.592 0 0 1-.661 0l-2.334-1.572-2.334 1.572a.592.592 0 0 1-.661 0l-2.072-1.396a.592.592 0 0 1-.262-.49V9.73c0-.491.398-.889.888-.889h19.54c.49 0 .888.398.888.888v27.44a.592.592 0 0 1-.262.491Z" fill="#fff"/><path d="M26.881 31.85c-.326 0-.462.195-.707.376-.544.43-1.033.61-1.672.61-1.156 0-2.054-.638-2.489-1.708h2.353c.312 0 .57-.25.57-.57a.572.572 0 0 0-.57-.583h-2.638a6.515 6.515 0 0 1-.028-.528c0-.166.014-.32.028-.472h3.222c.327 0 .572-.25.572-.583a.56.56 0 0 0-.572-.57h-2.964c.435-1.097 1.333-1.764 2.516-1.764.652 0 1.155.18 1.672.611.245.18.381.375.707.375.34 0 .612-.305.612-.667 0-.194-.068-.36-.258-.555-.68-.709-1.673-1.111-2.788-1.111-1.971 0-3.481 1.222-4.025 3.111h-.87a.569.569 0 0 0-.571.57c0 .333.258.583.57.583h.667c-.014.153-.014.306-.014.472 0 .18.014.361.028.528h-.694a.564.564 0 0 0-.571.584c0 .32.245.57.571.57h.911c.558 1.847 2.067 3.055 3.998 3.055 1.115 0 2.108-.403 2.788-1.111.19-.195.258-.361.258-.556 0-.36-.272-.667-.612-.667Z" fill="#14AB8C"/><path fill-rule="evenodd" clip-rule="evenodd" d="M16.895 15.116h3.552a.888.888 0 0 0 0-1.776h-3.552a.888.888 0 1 0 0 1.776Zm0 1.777a.888.888 0 0 0 0 1.776h14.21a.888.888 0 0 0 0-1.776h-14.21Zm-.888 4.44c0-.49.397-.888.888-.888h14.21a.888.888 0 0 1 0 1.777h-14.21a.888.888 0 0 1-.888-.889Z" fill="#14AB8C"/></g></g><defs><clipPath id="a"><rect width="48" height="48" rx="12.632" fill="#fff"/></clipPath><clipPath id="b"><path fill="#fff" d="M8.842 8.842h30.316v30.316H8.842z"/></clipPath></defs></svg>