<svg width="48" height="48" fill="none" xmlns="http://www.w3.org/2000/svg"><g clip-path="url(#a)"><path d="M5.355 5.202C1.135 9.513-.338 19.893.064 27.719c.223 4.38 1.228 12.273 5.425 15.718C9.196 46.517 16.654 48 24 48s14.804-1.529 18.51-4.563c4.198-3.445 5.203-11.407 5.426-15.718.402-7.826-1.071-18.251-5.291-22.517-6.788-6.936-30.502-6.936-37.29 0Z" fill="#9D7DFF"/><g clip-path="url(#b)"><path d="M37.353 21.62a2.524 2.524 0 0 0 1.805-2.37v-3.736a2.481 2.481 0 0 0-2.468-2.468H11.31a2.481 2.481 0 0 0-2.468 2.468v3.736a2.524 2.524 0 0 0 1.805 2.37 2.468 2.468 0 0 1 0 4.709 2.523 2.523 0 0 0-1.805 2.369v3.736a2.482 2.482 0 0 0 2.468 2.468h25.38a2.481 2.481 0 0 0 2.468-2.468v-3.736a2.524 2.524 0 0 0-1.805-2.37 2.467 2.467 0 0 1 0-4.709Z" fill="#fff"/><path d="M29.945 28.996v1.696a.85.85 0 0 1-.848.847h-10.17a.847.847 0 0 1-.848-.848v-1.695a.85.85 0 0 1 .847-.847h10.171a.847.847 0 0 1 .848.847Z" fill="#FFC75A"/><path d="M29.945 28.996v1.696a.85.85 0 0 1-.848.847h-10.17a.802.802 0 0 1-.348-.076.801.801 0 0 1-.076-.348V29.42a.85.85 0 0 1 .847-.847h10.17a.8.8 0 0 1 .348.076.801.801 0 0 1 .077.347Z" fill="#FFC75A"/><path d="M22.338 16.45c-.76.245-1.459.651-2.047 1.192.33.16.672.297 1.021.41.298-.56.641-1.096 1.026-1.601ZM20.71 26.151c.491.37 1.042.656 1.628.843-.291-.385-.558-.787-.801-1.203a7.975 7.975 0 0 0-.827.36ZM26.211 19.154a9.912 9.912 0 0 1-1.737.242v1.865h2.284a6.919 6.919 0 0 0-.547-2.107ZM20.346 22.184h-1.843a5.503 5.503 0 0 0 1.479 3.319c.36-.206.735-.383 1.123-.53a7.873 7.873 0 0 1-.759-2.789ZM24.474 16.421v2.051c.443-.02.883-.075 1.318-.165a11.662 11.662 0 0 0-1.318-1.886ZM27.677 21.26h1.844a5.44 5.44 0 0 0-1.14-2.915c-.412.216-.84.4-1.28.55a7.68 7.68 0 0 1 .576 2.366ZM27.732 17.642a5.517 5.517 0 0 0-2.046-1.191c.384.505.727 1.04 1.025 1.602.35-.114.69-.252 1.021-.411ZM20.922 18.896a9.237 9.237 0 0 1-1.28-.551 5.44 5.44 0 0 0-1.14 2.916h1.844c.065-.814.26-1.613.576-2.365ZM25.686 26.994a5.452 5.452 0 0 0 1.627-.843 7.964 7.964 0 0 0-.826-.36c-.243.416-.51.818-.801 1.203ZM24.474 27.02c.4-.469.764-.968 1.089-1.492a6.676 6.676 0 0 0-1.09-.152v1.644ZM21.999 24.693a7.88 7.88 0 0 1 1.55-.237v-2.272h-2.283c.086.875.334 1.726.733 2.51ZM21.266 21.26h2.284v-1.864a9.808 9.808 0 0 1-1.733-.242 6.833 6.833 0 0 0-.551 2.107ZM23.55 27.024v-1.649a6.73 6.73 0 0 0-1.094.153c.325.527.69 1.027 1.094 1.496ZM22.232 18.307c.38.078.765.13 1.153.157.055.004.11.004.165.008v-2.047c-.119.14-.246.293-.373.462-.35.449-.667.923-.945 1.42ZM26.457 23.625c.156-.466.257-.95.3-1.44h-2.283v2.27a7.88 7.88 0 0 1 1.55.238c.17-.345.315-.702.433-1.068ZM27.228 24.231a8.23 8.23 0 0 1-.31.742c.389.147.764.324 1.124.53.158-.165.302-.342.432-.53a5.412 5.412 0 0 0 1.047-2.789h-1.844a7.53 7.53 0 0 1-.449 2.047Z" fill="#5F40C2"/><path d="M23.385 18.464c.055.004.11.004.165.008v-2.047c-.119.14-.246.293-.373.462a9.22 9.22 0 0 0 .208 1.577ZM24.474 16.421v2.051c.443-.02.883-.075 1.318-.165a11.662 11.662 0 0 0-1.318-1.886ZM26.457 23.625c.156-.466.257-.95.3-1.44h-1.656c.397.529.852 1.012 1.356 1.44ZM24.474 19.396v1.848a.022.022 0 0 0 .008.017h2.276a6.919 6.919 0 0 0-.547-2.107 9.912 9.912 0 0 1-1.737.242ZM27.732 17.642a5.517 5.517 0 0 0-2.046-1.191c.384.505.727 1.04 1.025 1.602.35-.114.69-.252 1.021-.411ZM27.228 24.231c.394.281.811.53 1.246.742a5.413 5.413 0 0 0 1.047-2.789h-1.844a7.538 7.538 0 0 1-.449 2.047ZM29.52 21.26a5.44 5.44 0 0 0-1.14-2.915c-.411.216-.84.4-1.279.55a7.68 7.68 0 0 1 .576 2.366h1.844Z" fill="#5F40C2"/></g></g><defs><clipPath id="a"><rect width="48" height="48" rx="12.632" fill="#fff"/></clipPath><clipPath id="b"><path fill="#fff" d="M8.842 8.842h30.316v30.316H8.842z"/></clipPath></defs></svg>