<svg width="148" height="44" fill="none" xmlns="http://www.w3.org/2000/svg"><rect x=".119" y=".817" width="147.161" height="43.022" rx="9" fill="#000"/><path fill-rule="evenodd" clip-rule="evenodd" d="M5.57.817h136.26c3.011 0 5.451 2.408 5.451 5.378v32.267c0 2.97-2.44 5.377-5.451 5.377H5.57c-3.01 0-5.45-2.407-5.45-5.377V6.195C.12 3.225 2.56.817 5.57.817zm140.839 5.378c0-2.495-2.05-4.517-4.579-4.517H5.57C3.04 1.678.99 3.7.99 6.195v32.267c0 2.495 2.05 4.517 4.579 4.517h136.26c2.529 0 4.579-2.022 4.579-4.517V6.195z" fill="#A6A6A6"/><path fill-rule="evenodd" clip-rule="evenodd" d="M52.16 25.62v1.936h4.71a4.03 4.03 0 01-1.09 2.441 4.853 4.853 0 01-3.642 1.42c-2.89 0-5.232-2.312-5.232-5.163 0-2.851 2.342-5.163 5.232-5.163a5.096 5.096 0 013.576 1.388l1.384-1.366a6.917 6.917 0 00-4.938-1.957c-2.64-.102-5.123 1.23-6.473 3.47a7.028 7.028 0 000 7.268c1.35 2.24 3.834 3.57 6.473 3.47a6.664 6.664 0 005.025-1.99 6.404 6.404 0 001.7-4.55 6.654 6.654 0 00-.097-1.204H52.16zm12.078-1.41c-2.565.006-4.639 2.063-4.633 4.593.006 2.53 2.09 4.577 4.655 4.571 2.565-.006 4.639-2.062 4.633-4.592a4.476 4.476 0 00-1.345-3.26 4.6 4.6 0 00-3.31-1.311zm5.527 4.593c-.006-2.53 2.068-4.587 4.633-4.592a4.6 4.6 0 013.31 1.311 4.476 4.476 0 011.344 3.26c.006 2.53-2.068 4.586-4.633 4.592-2.564.006-4.648-2.04-4.654-4.57zm1.899 1.182a2.818 2.818 0 002.734 1.572 2.698 2.698 0 001.901-.843c.493-.523.75-1.22.715-1.932a2.776 2.776 0 00-1.786-2.577 2.839 2.839 0 00-3.086.693 2.747 2.747 0 00-.478 3.087zm-10.16 0a2.819 2.819 0 002.734 1.572 2.698 2.698 0 001.901-.843c.493-.523.75-1.22.715-1.932a2.776 2.776 0 00-1.786-2.577 2.839 2.839 0 00-3.085.693 2.747 2.747 0 00-.479 3.087zm36.08-5.774c1.807.065 3.386 1.225 3.968 2.914l.229.474-6.203 2.527a2.346 2.346 0 002.246 1.388 2.635 2.635 0 002.278-1.259l1.581 1.076c-1.126 1.683-3.24 2.433-5.196 1.845-1.954-.59-3.283-2.378-3.263-4.394a4.268 4.268 0 011.176-3.218 4.389 4.389 0 013.184-1.353zm-2.355 4.442a2.496 2.496 0 01.645-1.843 2.565 2.565 0 011.786-.835 1.792 1.792 0 011.712.978l-4.143 1.7zm-2.998 4.43h-2.038V19.64h2.038v13.444zm-5.374-7.85h-.076a3.224 3.224 0 00-2.442-1.076c-2.474.118-4.419 2.132-4.419 4.576 0 2.444 1.945 4.458 4.42 4.577a3.158 3.158 0 002.441-1.076h.076v.656c0 1.754-.948 2.69-2.474 2.69a2.571 2.571 0 01-2.344-1.625l-1.766.72a4.361 4.361 0 004.11 2.711c2.387 0 4.36-1.387 4.36-4.765V24.48h-1.886v.753zm-4.98 3.554c0 1.466 1.154 2.678 2.637 2.77a2.608 2.608 0 001.844-.863c.47-.524.701-1.215.641-1.912a2.549 2.549 0 00-.649-1.902 2.62 2.62 0 00-1.836-.863c-1.483.092-2.638 1.305-2.638 2.77zM111.1 19.64h-4.884v13.444h2.039v-5.098h2.845a4.257 4.257 0 003.924-1.995 4.134 4.134 0 000-4.356 4.256 4.256 0 00-3.924-1.995zm-2.845 6.453h2.845l.043.021a2.34 2.34 0 002.021-1.15 2.279 2.279 0 000-2.302 2.34 2.34 0 00-2.021-1.151h-2.888v4.582zm15.424-1.925a3.814 3.814 0 00-3.63 2.054l1.799.742a1.947 1.947 0 011.864-.979 1.98 1.98 0 011.458.415c.41.326.67.8.722 1.317v.129a4.603 4.603 0 00-2.125-.516c-1.941 0-3.925 1.075-3.925 3.033.039.84.422 1.63 1.061 2.187a3.177 3.177 0 002.33.77 2.9 2.9 0 002.594-1.312h.065v1.076h1.962V27.91c0-2.355-1.809-3.72-4.131-3.72l-.044-.022zm-1.842 6.227c0 .807.927 1.14 1.592 1.14l.043.022a2.452 2.452 0 002.399-2.151 3.66 3.66 0 00-1.854-.452c-1.024 0-2.18.366-2.18 1.441zm13.168-5.915l-2.332 5.829h-.066l-2.42-5.83h-2.18l3.63 8.153-2.071 4.528h2.126l5.581-12.68h-2.268zm-16.285 8.604h-2.028V19.639h2.028v13.445z" fill="#fff"/><path d="M11.5 8.927c-.36.419-.543.958-.512 1.506v23.791c-.037.549.147 1.09.512 1.506l.076.086L25.082 22.49v-.323L11.576 8.852l-.076.075z" fill="url(#paint0_linear)"/><path d="M29.552 26.932l-4.47-4.442v-.323l4.47-4.442.098.064 5.352 2.99c1.526.85 1.526 2.248 0 3.109l-5.33 2.99-.12.054z" fill="url(#paint1_linear)"/><path d="M29.682 26.867l-4.6-4.539L11.5 35.73c.635.558 1.584.59 2.256.075l15.926-8.938z" fill="url(#paint2_linear)"/><path d="M29.682 17.79L13.756 8.861a1.773 1.773 0 00-2.256.065l13.582 13.401 4.6-4.538z" fill="url(#paint3_linear)"/><path opacity=".2" d="M29.552 26.77l-15.796 8.874c-.645.48-1.535.48-2.18 0l-.076.075.076.086a1.83 1.83 0 002.18 0l15.926-8.938-.13-.097z" fill="#000"/><path opacity=".12" d="M11.5 35.58a2.132 2.132 0 01-.48-1.517v.161c-.037.549.147 1.09.513 1.506l.076-.075-.11-.076zM35.002 23.727l-5.45 3.043.098.097 5.352-2.99a1.885 1.885 0 001.156-1.549 2.007 2.007 0 01-1.156 1.399z" fill="#000"/><path opacity=".25" d="M13.756 9.013L35.002 20.93a2.007 2.007 0 011.156 1.398 1.885 1.885 0 00-1.156-1.548L13.756 8.862c-1.515-.86-2.768-.15-2.768 1.57v.162c.032-1.72 1.253-2.43 2.768-1.581z" fill="#fff"/><path fill-rule="evenodd" clip-rule="evenodd" d="M47.646 15.127c.895 0 1.753-.356 2.385-.988h-.01a3.498 3.498 0 000-4.811 3.362 3.362 0 00-4.76 0 3.509 3.509 0 000 4.81c.632.633 1.49.989 2.385.989zm0-.791c-.665 0-1.301-.266-1.768-.739a2.75 2.75 0 010-3.727 2.484 2.484 0 013.535 0 2.783 2.783 0 010 3.727 2.484 2.484 0 01-1.767.739z" fill="#fff"/><path d="M50.031 14.139l.071.07.17-.17h-.24v.1zm-.01 0l-.073-.069-.16.169h.232v-.1zm0-4.811l.072-.069-.002-.002-.07.07zm-4.76 0l-.072-.07-.002.001.073.069zm0 4.81l-.074.07.003.002.07-.071zm.617-.54l-.073.067.002.002.071-.07zm0-3.728l-.07-.07-.003.002.073.068zm3.535 0l.075-.067-.004-.004-.07.07zm0 3.727l.071.07.003-.003-.074-.067zm.548.471a3.274 3.274 0 01-2.315.959v.2c.921 0 1.805-.366 2.456-1.017l-.141-.142zm.06.17h.01v-.2h-.01v.2zm-.073-4.841a3.398 3.398 0 010 4.673l.145.138a3.598 3.598 0 000-4.949l-.145.138zM47.64 8.44c.867 0 1.698.344 2.31.957l.141-.14a3.462 3.462 0 00-2.45-1.017v.2zm-2.309.957a3.263 3.263 0 012.31-.957v-.2c-.92 0-1.802.365-2.452 1.016l.142.141zm.002 4.672a3.41 3.41 0 010-4.674l-.146-.137a3.609 3.609 0 000 4.948l.146-.137zm2.313.957a3.274 3.274 0 01-2.315-.959l-.142.142a3.473 3.473 0 002.457 1.017v-.2zm-1.839-1.36a2.584 2.584 0 001.839.769v-.2a2.384 2.384 0 01-1.697-.71l-.142.141zm-.002-3.865a2.851 2.851 0 000 3.863l.147-.136a2.651 2.651 0 010-3.592l-.147-.135zm1.84-.77c-.69 0-1.353.276-1.838.767l.142.14a2.384 2.384 0 011.697-.708v-.2zm1.84.767a2.584 2.584 0 00-1.84-.768v.2c.638 0 1.25.255 1.697.709l.142-.14zm.002 3.865a2.883 2.883 0 000-3.861l-.148.134a2.683 2.683 0 010 3.593l.148.134zm-1.841.772c.69 0 1.353-.277 1.838-.769l-.142-.14a2.384 2.384 0 01-1.696.709v.2z" fill="#fff"/><path d="M52.157 14.984V8.483h1.019l3.123 5.06v-5.06h.835v6.501h-.835l-3.253-5.299V14.984h-.89zM60.885 14.984h-.835v-5.7H58.23v-.801h4.467v.801h-1.81v5.7z" fill="#fff" stroke="#fff" stroke-width=".2"/><path fill-rule="evenodd" clip-rule="evenodd" d="M63.759 8.483v6.501h1.984a3.254 3.254 0 002.397-.9 3.162 3.162 0 00.9-2.35 3.162 3.162 0 00-.9-2.352 3.254 3.254 0 00-2.397-.9H63.76zm1.984 5.7h-1.149V9.283h1.182a2.267 2.267 0 012.45 2.45 2.459 2.459 0 01-.694 1.809c-.488.44-1.131.67-1.789.64z" fill="#fff"/><path d="M63.759 14.984h-.1v.1h.1v-.1zm0-6.501v-.1h-.1v.1h.1zm1.984 6.501l.005-.1h-.005v.1zm2.397-.9l.069.073.002-.002-.071-.07zm.9-2.35l-.1-.005v.009l.1-.005zm-.9-2.352l.071-.07-.002-.002-.07.072zm-2.397-.9v.1h.005l-.005-.1zm-1.149 5.7h-.1v.1h.1v-.1zm1.15 0l.004-.1h-.005v.1zm-1.15-4.898v-.1h-.1v.1h.1zm1.182 0v.1h.008l-.008-.1zm1.795.656l-.07.07.07-.07zm.656 1.793l-.1-.008v.012l.1-.004zm-.695 1.81l.068.074.004-.004-.072-.07zm-3.673 1.441V8.483h-.2v6.501h.2zm1.884-.1H63.76v.2h1.984v-.2zm2.328-.872a3.154 3.154 0 01-2.323.872l-.01.2a3.354 3.354 0 002.47-.927l-.137-.145zm.869-2.274a3.063 3.063 0 01-.872 2.277l.143.14a3.263 3.263 0 00.929-2.426l-.2.009zm-.872-2.286c.594.606.909 1.43.872 2.277l.2.009a3.263 3.263 0 00-.929-2.426l-.143.14zm-2.32-.87c.86-.038 1.7.277 2.323.872l.138-.144a3.354 3.354 0 00-2.47-.927l.009.2zm-1.989 0h1.984v-.2H63.76v.2zm.835 5.7h1.15v-.2h-1.15v.2zm-.1-4.998v4.898h.2V9.284h-.2zm1.282-.1h-1.182v.2h1.182v-.2zm1.866.685a2.367 2.367 0 00-1.875-.684l.017.2a2.167 2.167 0 011.716.625l.142-.141zm.684 1.873a2.364 2.364 0 00-.684-1.873l-.142.141c.452.452.681 1.079.627 1.715l.2.017zm-.722 1.87c.489-.502.75-1.182.722-1.883l-.2.008a2.359 2.359 0 01-.665 1.736l.143.14zm-1.865.67a2.595 2.595 0 001.86-.665l-.133-.148a2.395 2.395 0 01-1.718.613l-.01.2z" fill="#fff"/><path d="M74.017 9.284h-2.971v2.06h2.678v.78h-2.678v2.058h2.97v.802h-3.805V8.483h3.806v.801zM80.154 8.483l-2.418 2.795 2.57 3.706h-1.084l-2.17-3.034-1.008 1.16v1.874h-.834V8.483h.834v3.348l3.026-3.348h1.084zM83.331 14.984V8.483h.846v2.784h3.253V8.483h.835v6.501h-.835v-2.936h-3.253v2.936h-.846zM93.546 9.284h-2.96v2.06h2.678v.78h-2.679v2.058h2.96v.802h-3.794V8.483h3.795v.801zM97.08 14.984h-.845v-5.7h-1.81v-.801h4.466v.801h-1.81v5.7z" fill="#fff" stroke="#fff" stroke-width=".2"/><path fill-rule="evenodd" clip-rule="evenodd" d="M104.974 15.127c.895 0 1.754-.356 2.386-.988h-.011a3.498 3.498 0 000-4.811 3.361 3.361 0 00-4.76 0 3.476 3.476 0 000 4.81 3.373 3.373 0 002.385.989zm0-.791c-.664 0-1.3-.266-1.767-.739a2.751 2.751 0 010-3.727 2.484 2.484 0 013.535 0 2.783 2.783 0 010 3.727 2.485 2.485 0 01-1.768.739z" fill="#fff"/><path d="M107.36 14.139l.071.07.17-.17h-.241v.1zm-.011 0l-.072-.069-.16.169h.232v-.1zm0-4.811l.073-.069-.002-.002-.071.07zm-4.76 0l-.071-.07h-.001l.072.07zm0 4.81l-.072.07.001.002.071-.071zm.618-.54l-.074.067.003.002.071-.07zm0-3.728l-.071-.07-.003.002.074.068zm3.535 0l.074-.067-.003-.004-.071.07zm0 3.727l.071.07.003-.003-.074-.067zm.547.471a3.272 3.272 0 01-2.315.959v.2c.922 0 1.805-.366 2.457-1.017l-.142-.142zm.06.17h.011v-.2h-.011v.2zm-.072-4.841a3.399 3.399 0 010 4.673l.145.138a3.599 3.599 0 000-4.949l-.145.138zm-2.308-.956a3.26 3.26 0 012.309.957l.142-.14a3.461 3.461 0 00-2.451-1.017v.2zm-2.309.957a3.263 3.263 0 012.309-.957v-.2c-.92 0-1.801.365-2.451 1.016l.142.141zm.001 4.672a3.376 3.376 0 010-4.673l-.144-.138a3.576 3.576 0 000 4.95l.144-.14zm2.313.957a3.27 3.27 0 01-2.314-.959l-.142.142a3.473 3.473 0 002.456 1.017v-.2zm-1.838-1.36a2.582 2.582 0 001.838.769v-.2a2.385 2.385 0 01-1.696-.71l-.142.141zm-.003-3.865a2.852 2.852 0 000 3.863l.148-.136a2.65 2.65 0 010-3.592l-.148-.135zm1.841-.77c-.691 0-1.353.276-1.838.767l.142.14a2.385 2.385 0 011.696-.708v-.2zm1.839.767a2.584 2.584 0 00-1.839-.768v.2c.638 0 1.249.255 1.697.709l.142-.14zm.003 3.865a2.884 2.884 0 000-3.861l-.148.134a2.685 2.685 0 010 3.593l.148.134zm-1.842.772c.691 0 1.354-.277 1.839-.769l-.142-.14a2.385 2.385 0 01-1.697.709v.2z" fill="#fff"/><path fill-rule="evenodd" clip-rule="evenodd" d="M109.485 14.984h.835l-.054-2.633h1.388c.531.01 1.044-.19 1.431-.553a1.894 1.894 0 000-2.763 2.039 2.039 0 00-1.431-.552h-2.169v6.501zm2.234-3.435h-1.399V9.284h1.399c.319-.014.629.113.846.347a1.085 1.085 0 010 1.571 1.085 1.085 0 01-.846.347z" fill="#fff"/><path d="M110.32 14.984v.1h.102l-.002-.102-.1.002zm-.835 0h-.1v.1h.1v-.1zm.781-2.633v-.1h-.102l.002.102.1-.002zm1.388 0l.002-.1h-.002v.1zm1.431-.553l.069.073-.069-.073zm0-2.763l.069-.073-.069.073zm-1.431-.552v.1h.002l-.002-.1zm-2.169 0v-.1h-.1v.1h.1zm.835 3.066h-.1v.1h.1v-.1zm1.399 0l.005-.1h-.005v.1zm-1.399-2.265v-.1h-.1v.1h.1zm1.399 0v.1h.005l-.005-.1zm.846.347l-.074.068.005.005.069-.073zm0 1.571l-.069-.072-.005.004.074.068zm-2.245 3.682h-.835v.2h.835v-.2zm-.154-2.531l.054 2.633.2-.004-.054-2.633-.2.004zm1.488-.102h-1.388v.2h1.388v-.2zm1.363-.525a1.939 1.939 0 01-1.361.525l-.004.2a2.141 2.141 0 001.502-.58l-.137-.146zm.566-1.31c0 .496-.205.97-.566 1.31l.137.145c.401-.377.629-.903.629-1.454h-.2zm-.566-1.308c.361.34.566.813.566 1.309h.2c0-.551-.228-1.077-.629-1.455l-.137.146zm-1.361-.525c.505-.01.993.18 1.361.525l.137-.146a2.14 2.14 0 00-1.502-.58l.004.2zm-2.171 0h2.169v-.2h-2.169v.2zm.1 6.401V8.483h-.2v6.501h.2zm.735-3.335h1.399v-.2h-1.399v.2zm-.1-2.365v2.265h.2V9.284h-.2zm1.499-.1h-1.399v.2h1.399v-.2zm.919.38a1.184 1.184 0 00-.923-.38l.009.2c.29-.013.57.102.767.315l.147-.136zm.364.853c0-.325-.133-.635-.368-.858l-.138.145a.981.981 0 01.306.713h.2zm-.368.858c.235-.223.368-.534.368-.858h-.2c0 .27-.11.527-.306.713l.138.145zm-.919.374c.348.016.686-.123.923-.379l-.147-.136a.983.983 0 01-.767.315l-.009.2z" fill="#fff"/><defs><linearGradient id="paint0_linear" x1="19.165" y1="-7.305" x2="-2.425" y2="-1.481" gradientUnits="userSpaceOnUse"><stop stop-color="#00A0FF"/><stop offset=".01" stop-color="#00A1FF"/><stop offset=".26" stop-color="#00BEFF"/><stop offset=".51" stop-color="#00D2FF"/><stop offset=".76" stop-color="#00DFFF"/><stop offset="1" stop-color="#00E3FF"/></linearGradient><linearGradient id="paint1_linear" x1="36.997" y1="11.357" x2="10.628" y2="11.357" gradientUnits="userSpaceOnUse"><stop stop-color="#FFE000"/><stop offset=".41" stop-color="#FFBD00"/><stop offset=".78" stop-color="orange"/><stop offset="1" stop-color="#FF9C00"/></linearGradient><linearGradient id="paint2_linear" x1="11.116" y1="15.358" x2="-5.941" y2="44.383" gradientUnits="userSpaceOnUse"><stop stop-color="#FF3A44"/><stop offset="1" stop-color="#C31162"/></linearGradient><linearGradient id="paint3_linear" x1=".899" y1="5.226" x2="8.51" y2="18.188" gradientUnits="userSpaceOnUse"><stop stop-color="#32A071"/><stop offset=".07" stop-color="#2DA771"/><stop offset=".48" stop-color="#15CF74"/><stop offset=".8" stop-color="#06E775"/><stop offset="1" stop-color="#00F076"/></linearGradient></defs></svg>