<svg width="18" height="18" fill="none" xmlns="http://www.w3.org/2000/svg"><path d="M16.439 8.767a.528.528 0 000 .466l.671 1.373a1.563 1.563 0 01-.674 2.076l-1.35.716a.528.528 0 00-.274.377l-.264 1.506a1.562 1.562 0 01-1.766 1.282l-1.513-.214a.528.528 0 00-.444.144l-1.098 1.063a1.565 1.565 0 01-2.182 0l-1.099-1.063a.528.528 0 00-.443-.144l-1.514.214a1.562 1.562 0 01-1.765-1.282l-.264-1.506a.528.528 0 00-.274-.377l-1.35-.716a1.563 1.563 0 01-.675-2.075l.672-1.374a.527.527 0 000-.466L.16 7.394a1.563 1.563 0 01.675-2.075l1.35-.717a.528.528 0 00.274-.377l.264-1.506A1.562 1.562 0 014.49 1.437l1.514.214a.528.528 0 00.443-.144L7.545.444a1.563 1.563 0 012.182 0l1.098 1.063c.119.114.28.167.444.144l1.513-.214a1.563 1.563 0 011.766 1.282l.264 1.506c.028.162.128.3.274.377l1.35.717a1.563 1.563 0 01.674 2.075l-.671 1.373z" fill="#004195"/><path d="M10.712 9.865c-1.05 0-1.903.854-1.903 1.903 0 1.05.854 1.904 1.903 1.904 1.05 0 1.903-.854 1.903-1.904 0-1.05-.853-1.903-1.903-1.903zm0 2.768a.866.866 0 010-1.73.866.866 0 010 1.73zM12.429 5.207a.52.52 0 00-.735 0L4.843 12.06a.52.52 0 00.734.734l6.852-6.852a.52.52 0 000-.734zM6.56 4.328c-1.05 0-1.904.854-1.904 1.904 0 1.05.854 1.903 1.903 1.903 1.05 0 1.904-.854 1.904-1.903 0-1.05-.854-1.904-1.904-1.904zm0 2.769a.866.866 0 010-1.73.866.866 0 010 1.73z" fill="#fff"/></svg>