<svg width="16" height="16" fill="none" xmlns="http://www.w3.org/2000/svg"><path d="M8 16a7.947 7.947 0 01-5.657-2.343A7.948 7.948 0 010 8c0-2.137.832-4.146 2.343-5.657A7.947 7.947 0 018 0c2.136 0 4.145.832 5.656 2.343A7.948 7.948 0 0116 8a7.948 7.948 0 01-2.343 5.657A7.947 7.947 0 018 16z" fill="#004195"/><path d="M10 11.25H9a3.25 3.25 0 01-2.738-1.5H8.5a.5.5 0 000-1H5.837a3.246 3.246 0 010-1.5H8.5a.5.5 0 000-1H6.262A3.25 3.25 0 019 4.75h.75a.5.5 0 100-1H9a4.256 4.256 0 00-3.873 2.5H4.5a.5.5 0 000 1h.316a4.26 4.26 0 000 1.5H4.5a.5.5 0 000 1h.627A4.256 4.256 0 009 12.25h1a.5.5 0 000-1z" fill="#fff"/></svg>