<svg xmlns="http://www.w3.org/2000/svg" width="16" height="16" fill="none" viewBox="0 0 13 13"><path fill="#004195" fill-rule="evenodd" d="M6.125 0C2.72222 0 0 2.72222 0 6.125C0 9.52778 2.72222 12.25 6.125 12.25C9.52778 12.25 12.25 9.52778 12.25 6.125C12.25 2.72222 9.52778 0 6.125 0ZM6.8127 8.8811C6.8127 9.26166 6.50419 9.57017 6.12363 9.57017C5.74307 9.57017 5.43457 9.26166 5.43457 8.8811V6.12485C5.43457 5.7443 5.74307 5.43579 6.12363 5.43579C6.50419 5.43579 6.8127 5.74429 6.8127 6.12485V8.8811ZM6.12363 4.05781C6.50419 4.05781 6.8127 3.74931 6.8127 3.36875C6.8127 2.98819 6.50419 2.67969 6.12363 2.67969C5.74307 2.67969 5.43457 2.98819 5.43457 3.36875C5.43457 3.74931 5.74307 4.05781 6.12363 4.05781Z" clip-rule="evenodd"/></svg>