<svg width="35" height="36" fill="none" xmlns="http://www.w3.org/2000/svg"><path fill-rule="evenodd" clip-rule="evenodd" d="M32.878 17.533a1.055 1.055 0 000 .933l1.342 2.746a3.125 3.125 0 01-1.348 4.15l-2.7 1.434c-.292.154-.492.43-.549.754l-.528 3.011a3.125 3.125 0 01-3.53 2.565l-3.027-.428a1.056 1.056 0 00-.887.288l-2.198 2.126a3.13 3.13 0 01-4.363 0l-2.197-2.126a1.055 1.055 0 00-.887-.288l-3.027.428a3.123 3.123 0 01-3.53-2.565L4.92 27.55a1.055 1.055 0 00-.548-.755l-2.7-1.433a3.125 3.125 0 01-1.35-4.15l1.344-2.746a1.055 1.055 0 000-.933L.323 14.787a3.125 3.125 0 011.348-4.15l2.701-1.433c.291-.155.491-.43.548-.755l.528-3.01a3.125 3.125 0 013.53-2.566l3.028.428c.326.046.65-.058.886-.288L15.09.887a3.125 3.125 0 014.363 0l2.198 2.126c.237.23.56.334.887.288l3.027-.428a3.125 3.125 0 013.53 2.565l.528 3.011c.057.325.257.6.548.755l2.7 1.433a3.125 3.125 0 011.35 4.15l-1.343 2.746zm-3.68 7.428l2.7-1.433c.51-.27.71-.886.457-1.404l-1.343-2.747a3.118 3.118 0 010-2.756l1.343-2.746a1.057 1.057 0 00-.456-1.404l-2.701-1.433a3.118 3.118 0 01-1.62-2.23l-.528-3.011a1.057 1.057 0 00-1.195-.868l-3.027.428a3.118 3.118 0 01-2.621-.852L18.01 2.38c-.414-.4-1.063-.4-1.477 0l-2.197 2.125c-.7.678-1.656.989-2.621.852L8.688 4.93c-.57-.08-1.095.3-1.195.868l-.528 3.011a3.118 3.118 0 01-1.62 2.23l-2.7 1.433c-.51.27-.71.886-.457 1.404l1.343 2.747c.428.875.428 1.88 0 2.756l-1.343 2.746a1.057 1.057 0 00.456 1.404l2.701 1.433a3.118 3.118 0 011.62 2.23l.528 3.011c.1.567.625.949 1.195.868l3.027-.428a3.115 3.115 0 012.621.852l2.197 2.125c.414.4 1.063.4 1.477 0l2.197-2.125a3.118 3.118 0 012.621-.852l3.027.428c.571.08 1.095-.3 1.195-.868l.528-3.011a3.118 3.118 0 011.62-2.23zm-5.81-14.547a1.038 1.038 0 111.469 1.469L11.154 25.584a1.034 1.034 0 01-1.468 0 1.038 1.038 0 010-1.468l13.703-13.703zM13.12 8.656a3.81 3.81 0 00-3.807 3.807 3.811 3.811 0 003.807 3.807 3.811 3.811 0 003.807-3.807 3.811 3.811 0 00-3.807-3.807zm0 5.537c-.954 0-1.73-.776-1.73-1.73s.776-1.73 1.73-1.73 1.73.776 1.73 1.73-.776 1.73-1.73 1.73zm4.498 9.344a3.81 3.81 0 013.807-3.807 3.81 3.81 0 013.807 3.806 3.811 3.811 0 01-3.807 3.807 3.81 3.81 0 01-3.806-3.806zm2.077 0c0 .954.776 1.73 1.73 1.73s1.73-.776 1.73-1.73c0-.955-.776-1.73-1.73-1.73s-1.73.775-1.73 1.73z" fill="#004195"/></svg>