<svg width="36" height="36" fill="none" xmlns="http://www.w3.org/2000/svg"><path fill-rule="evenodd" clip-rule="evenodd" d="M5.272 30.728c3.4 3.4 7.92 5.272 12.727 5.272a17.88 17.88 0 0012.728-5.272c3.4-3.4 5.271-7.92 5.271-12.728s-1.872-9.328-5.271-12.728C27.327 1.872 22.807 0 17.999 0A17.88 17.88 0 005.272 5.272C1.872 8.672 0 13.192 0 18s1.872 9.328 5.272 12.728zM2.25 18C2.25 9.315 9.315 2.25 18 2.25c8.683 0 15.749 7.065 15.749 15.75 0 8.685-7.066 15.75-15.75 15.75-8.684 0-15.75-7.065-15.75-15.75zm18 7.313h2.25a1.125 1.125 0 010 2.25h-2.25c-3.87 0-7.21-2.311-8.714-5.625h-1.411a1.125 1.125 0 010-2.25h.711a9.59 9.59 0 010-3.375h-.711a1.125 1.125 0 010-2.25h1.41c1.504-3.315 4.844-5.626 8.714-5.626h1.688a1.125 1.125 0 010 2.25h-1.688a7.313 7.313 0 00-6.16 3.376h5.035a1.125 1.125 0 110 2.25h-5.99a7.312 7.312 0 000 3.375h5.99a1.125 1.125 0 110 2.25H14.09a7.313 7.313 0 006.16 3.375z" fill="#004195"/></svg>