<svg width="437" height="380" fill="none" xmlns="http://www.w3.org/2000/svg"><path d="M218.5 0C97.96 0 .38 99.235.38 221.514c0 61.451 24.6 116.881 64.165 156.949 2.46 2.491 6.97 1.868 8.61-1.246 18.655-34.047 51.25-60.828 91.02-73.699-26.035-17.647-43.05-47.957-43.05-82.004 0-54.6 43.665-98.82 97.375-98.82s97.375 44.22 97.375 98.82c0 34.255-17.015 64.357-43.05 82.004 39.77 13.079 72.365 39.652 91.02 73.699 1.64 3.114 6.15 3.737 8.61 1.246 39.77-40.068 64.165-95.706 64.165-156.949C436.62 99.234 338.835 0 218.5 0Z" fill="#E0EEFF"/><path d="M218.5 0C97.96 0 .38 99.235.38 221.514c0 61.451 24.6 116.881 64.165 156.949 2.46 2.491 6.97 1.868 8.61-1.246 18.655-34.047 51.25-60.828 91.02-73.699-26.035-17.647-43.05-47.957-43.05-82.004 0-54.6 43.665-98.82 97.375-98.82s97.375 44.22 97.375 98.82c0 34.255-17.015 64.357-43.05 82.004 39.77 13.079 72.365 39.652 91.02 73.699 1.64 3.114 6.15 3.737 8.61 1.246 39.77-40.068 64.165-95.706 64.165-156.949C436.62 99.234 338.835 0 218.5 0Z" fill="url(#a)"/><defs><linearGradient id="a" x1="218.5" y1="0" x2="218.5" y2="380" gradientUnits="userSpaceOnUse"><stop offset=".486" stop-color="#fff" stop-opacity="0"/><stop offset="1" stop-color="#fff"/></linearGradient></defs></svg>