<svg xmlns="http://www.w3.org/2000/svg" width="81" height="38" viewBox="0 0 81 38">
    <g fill="none" fill-rule="nonzero">
        <path fill="#849FFF" d="M17 33C9.447 33 3.261 26.899 3 19h2.668C5.88 25.393 10.886 30.2 17 30.2V33z"/>
        <path fill="#D2DCFF" d="M29.332 19H23v3h5.858C27.45 26.839 23.112 30.2 18 30.2V33c7.553 0 13.739-6.101 14-14h-2.668z"/>
        <path fill="#698AFF" d="M17 4C9.447 4 3.261 10.101 3 18h2.668C5.88 11.607 10.886 6.8 17 6.8V4z"/>
        <path fill="#3561FF" d="M18 4c5.89 0 10.948 3.675 13 9l-2.915-.053C26.212 9.218 22.392 6.761 18 6.761V4zM22.866 34c-.74 0-1.404-.174-1.992-.522a3.669 3.669 0 0 1-1.378-1.44c-.33-.613-.496-1.302-.496-2.068 0-.726.16-1.4.481-2.022a3.805 3.805 0 0 1 1.341-1.485c.573-.368 1.225-.553 1.956-.553.76 0 1.42.17 1.977.508.558.338.983.8 1.274 1.388.292.587.437 1.249.437 1.985 0 .14-.015.313-.044.522H20.63c.059.707.308 1.252.748 1.635s.95.574 1.533.574c.464 0 .867-.107 1.207-.32.341-.214.615-.505.822-.874l1.378.657a4.077 4.077 0 0 1-1.392 1.478c-.573.358-1.26.537-2.06.537zm1.941-4.94a1.907 1.907 0 0 0-.252-.799 1.809 1.809 0 0 0-.674-.664c-.301-.18-.669-.269-1.103-.269-.524 0-.966.157-1.326.47-.36.314-.61.734-.748 1.262h4.103zm2.612-2.91h1.555v1h.074a2.55 2.55 0 0 1 .963-.896c.415-.23.86-.344 1.333-.344.543 0 1.018.127 1.422.381.405.254.697.59.874 1.008.257-.418.6-.754 1.03-1.008.43-.254.936-.38 1.518-.38.87 0 1.529.266 1.978.798.45.532.674 1.256.674 2.172v4.88h-1.63v-4.597c0-1.154-.488-1.731-1.466-1.731-.523 0-.953.214-1.289.642-.336.427-.503.955-.503 1.582v4.104h-1.63v-4.597c0-1.154-.504-1.731-1.511-1.731-.514 0-.936.214-1.267.642-.33.427-.496.955-.496 1.582v4.104h-1.63V26.15zM43.615 34c-.741 0-1.405-.174-1.993-.522a3.669 3.669 0 0 1-1.378-1.44c-.33-.613-.496-1.302-.496-2.068 0-.726.16-1.4.482-2.022a3.805 3.805 0 0 1 1.34-1.485c.573-.368 1.225-.553 1.956-.553.76 0 1.42.17 1.977.508.558.338.983.8 1.274 1.388.292.587.437 1.249.437 1.985 0 .14-.015.313-.044.522h-5.792c.059.707.308 1.252.748 1.635s.95.574 1.533.574c.464 0 .867-.107 1.207-.32.341-.214.615-.505.822-.874l1.378.657a4.077 4.077 0 0 1-1.392 1.478c-.573.358-1.26.537-2.06.537zm1.94-4.94a1.907 1.907 0 0 0-.252-.799 1.809 1.809 0 0 0-.674-.664c-.301-.18-.669-.269-1.103-.269-.524 0-.966.157-1.326.47-.36.314-.61.734-.748 1.262h4.103zM51.692 34c-.74 0-1.404-.174-1.992-.522a3.669 3.669 0 0 1-1.378-1.44c-.33-.613-.496-1.302-.496-2.068 0-.726.16-1.4.481-2.022a3.805 3.805 0 0 1 1.341-1.485c.573-.368 1.225-.553 1.955-.553.76 0 1.42.17 1.978.508.558.338.983.8 1.274 1.388.291.587.437 1.249.437 1.985 0 .14-.015.313-.044.522h-5.793c.06.707.31 1.252.749 1.635s.95.574 1.533.574c.464 0 .866-.107 1.207-.32.34-.214.615-.505.822-.874l1.378.657a4.077 4.077 0 0 1-1.392 1.478c-.573.358-1.26.537-2.06.537zm1.941-4.94a1.907 1.907 0 0 0-.252-.799 1.809 1.809 0 0 0-.674-.664c-.301-.18-.669-.269-1.104-.269-.523 0-.965.157-1.325.47-.36.314-.61.734-.748 1.262h4.103zm2.611-2.91H57.8v1h.074c.217-.359.54-.655.97-.889.43-.234.887-.35 1.37-.35.92 0 1.618.27 2.097.813.479.542.718 1.281.718 2.216v4.821H61.4v-4.597c0-.597-.145-1.035-.436-1.313-.292-.279-.694-.418-1.208-.418-.365 0-.69.102-.977.306a2.033 2.033 0 0 0-.667.813 2.543 2.543 0 0 0-.237 1.09v4.12h-1.63v-7.613zm10.819 7.73c-.336 0-.652-.054-.948-.164a2.078 2.078 0 0 1-.726-.432c-.425-.428-.637-1.01-.637-1.747v-3.94h-1.318v-1.448h1.318V24h1.63v2.15h1.836v1.447h-1.837v3.582c0 .408.08.697.238.866.148.199.404.298.77.298.168 0 .316-.022.444-.067.129-.045.267-.117.415-.216v1.597c-.326.149-.72.224-1.185.224zM72.4 34c-.74 0-1.405-.174-1.992-.522a3.669 3.669 0 0 1-1.378-1.44c-.33-.613-.496-1.302-.496-2.068 0-.726.16-1.4.481-2.022a3.805 3.805 0 0 1 1.34-1.485c.574-.368 1.225-.553 1.956-.553.76 0 1.42.17 1.978.508.558.338.983.8 1.274 1.388.291.587.437 1.249.437 1.985 0 .14-.015.313-.044.522h-5.793c.06.707.309 1.252.748 1.635.44.383.951.574 1.534.574.464 0 .866-.107 1.207-.32.34-.214.615-.505.822-.874l1.378.657a4.077 4.077 0 0 1-1.393 1.478C73.887 33.82 73.2 34 72.4 34zm1.94-4.94a1.907 1.907 0 0 0-.251-.799 1.809 1.809 0 0 0-.674-.664c-.301-.18-.67-.269-1.104-.269-.523 0-.965.157-1.326.47-.36.314-.61.734-.748 1.262h4.104zM12.256 19.018v2.212h-1.358v-2.212H8.7V17.66h2.198v-2.184h1.358v2.184h2.198v1.358h-2.198zm3.444-4.844l3.262-1.442V22H17.24v-6.902l-1.54.616v-1.54z"/>
    </g>
</svg>
