<svg xmlns="http://www.w3.org/2000/svg" width="130" height="40" viewBox="0 0 130 25"><g fill="#000" fill-rule="evenodd"><path d="M38.254.065c-8.033 0-14.536 6.257-14.536 13.966 0 3.874 1.64 7.368 4.276 9.894.164.157.465.118.574-.078 1.243-2.147 3.415-3.835 6.065-4.646-1.735-1.113-2.868-3.024-2.868-5.17 0-3.443 2.91-6.23 6.489-6.23 3.579 0 6.489 2.787 6.489 6.23 0 2.16-1.134 4.057-2.87 5.17 2.651.824 4.823 2.5 6.066 4.646.11.196.41.235.574.078 2.65-2.526 4.276-6.033 4.276-9.894 0-7.71-6.516-13.966-14.535-13.966z"/><path d="M7.082 5.577v3.838h12.39c.204 0 .38.16.38.372v4.794c0 .2-.162.372-.38.372H7.083v9.707H.38A.375.375 0 010 24.288V.412C0 .212.163.04.38.04h19.39c.204 0 .38.16.38.372v4.794c0 .199-.162.371-.38.371H7.083zM72.3 15.617l4.807 8.499a.368.368 0 01-.325.544h-6.54a.363.363 0 01-.325-.199l-4.103-8.06h-3.305v7.9a.36.36 0 01-.365.36h-5.715a.36.36 0 01-.365-.36V.04h12.553c5.565 0 8.72 3.612 8.72 8.193-.04 4.276-2.708 6.574-5.037 7.384zM67.6 5.577h-4.753a.346.346 0 00-.352.346v4.581c0 .2.162.345.352.345H67.6c1.693 0 3.115-.916 3.115-2.656 0-1.66-1.422-2.616-3.115-2.616zm36.996 8.645c0 6.122-3.792 10.438-11.795 10.438-8.07 0-11.862-4.356-11.862-10.411l.04-13.837c0-.2.163-.359.366-.359h5.836a.36.36 0 01.366.359l-.04 13.625c0 2.921 1.76 5.02 5.294 5.02 3.453 0 5.254-2.099 5.254-5.02L98.082.412c0-.2.163-.359.366-.359h5.81a.36.36 0 01.365.359l-.027 13.81zm13.772-8.91c-1.91 0-2.75.717-2.75 1.713 0 3.028 14.368.823 14.368 9.667 0 4.781-3.778 7.955-10.603 7.955-4.983 0-8.504-1.408-11.036-3.559a.347.347 0 01-.054-.478l3.033-4.024c.122-.172.38-.186.542-.053 1.828 1.594 4.536 2.868 7.827 2.868 2.248 0 3.615-.823 3.615-1.965 0-3.253-14.408-.637-14.408-9.814 0-3.997 3.616-7.569 10.143-7.569 3.94 0 7.38 1.062 10.048 3.094.162.12.19.346.054.505l-3.142 3.838a.381.381 0 01-.5.066c-2.073-1.5-4.727-2.244-7.137-2.244z" fill-rule="nonzero"/></g></svg>