<svg xmlns="http://www.w3.org/2000/svg" xmlns:xlink="http://www.w3.org/1999/xlink" width="100%" height="100%" fill-rule="evenodd" stroke-linejoin="round" stroke-miterlimit="2" clip-rule="evenodd" version="1.1" viewBox="0 0 431 177" xml:space="preserve"><g><path fill="#d71920" fill-rule="nonzero" d="M139.568,150.218c0,15.764 -12.46,25.972 -26.422,25.972c-14.637,0 -26.421,-10.059 -26.421,-25.972c0,-14.862 11.634,-26.047 26.421,-26.047c15.688,0 26.422,10.81 26.422,26.047Zm-41.659,0c0,9.984 5.855,18.24 15.237,18.24c9.383,0 15.238,-8.332 15.238,-18.24c0,-9.908 -5.855,-18.314 -15.238,-18.314c-9.457,0 -15.237,7.956 -15.237,18.314Z"/><path fill="#d71920" fill-rule="nonzero" d="M182.942,158.701c0,10.584 -8.857,17.263 -18.916,17.263c-10.057,0 -18.915,-6.679 -18.915,-17.263c0,-10.584 8.858,-17.265 18.915,-17.265c10.059,0 18.916,6.681 18.916,17.265Zm-27.398,0c0,5.63 2.553,10.734 8.482,10.734c4.954,0 8.332,-5.104 8.332,-10.734c0,-5.705 -3.378,-10.735 -8.332,-10.735c-5.929,0 -8.482,5.03 -8.482,10.735Z"/><path fill="#d71920" fill-rule="nonzero" d="M199.866,169.81c1.877,0 3.603,-0.901 3.603,-2.553c0,-2.327 -3.603,-3.752 -6.68,-5.254c-3.003,-1.426 -8.257,-4.428 -8.257,-10.284c0,-6.155 4.804,-10.283 12.01,-10.283c5.855,0 8.857,1.352 11.034,2.327l-2.477,5.704c-1.802,-0.749 -4.728,-1.951 -7.732,-1.951c-1.951,0 -3.903,0.751 -3.903,2.402c0,2.252 3.303,3.453 6.606,5.03c2.702,1.201 8.633,4.428 8.633,9.982c0,6.756 -6.832,11.034 -12.987,11.034c-6.905,0 -10.659,-2.026 -12.61,-2.926l2.477,-5.855c1.877,0.9 6.231,2.627 10.283,2.627Z"/><path fill="#d71920" fill-rule="nonzero" d="M232.858,175.964c-6.231,0 -11.784,-2.176 -11.71,-9.682l0,-18.316l-5.329,0l0,-5.779l5.329,0l3.678,-13.587l5.855,0l0.376,13.587l8.931,0l0,5.779l-8.931,0l0,16.214c-0.077,3.603 1.426,4.954 4.504,5.555c2.175,0.375 4.277,0.3 5.628,0.3l0.451,5.179c-2.101,0.375 -4.353,0.75 -8.782,0.75Z"/><path fill="#d71920" fill-rule="nonzero" d="M289.13,176.19c-15.24,0 -27.25,-10.208 -27.25,-25.972c0,-15.913 12.087,-26.047 27.25,-26.047c9.608,0 14.336,2.404 16.813,3.529l-3.153,7.281c-1.5,-0.676 -6.379,-2.776 -13.21,-2.776c-8.108,0 -16.514,6.753 -16.514,18.013c0,11.26 8.182,17.94 16.963,17.94c4.204,0 5.631,-0.3 7.508,-0.975l0,-13.512l10.131,0l0,18.916c-2.551,1.126 -9.007,3.603 -18.538,3.603Z"/><path fill="#d71920" fill-rule="nonzero" d="M334.456,169.509c4.804,0 7.206,-1.126 8.556,-1.576l1.952,5.48c-2.252,0.901 -4.878,2.551 -14.111,2.551c-10.209,0 -17.188,-6.529 -17.188,-17.113c0,-10.734 7.88,-17.415 16.887,-17.415c8.408,0 16.064,5.555 16.064,18.766l-22.592,0c0,5.255 3.076,9.307 10.432,9.307Zm-4.354,-21.543c-3.753,0 -5.403,2.928 -5.93,6.605l11.936,0c-0.601,-4.201 -2.177,-6.605 -6.006,-6.605Z"/><path fill="#d71920" fill-rule="nonzero" d="M353.468,123.197l9.909,-1.052l0,53.069l-9.909,0l0,-52.017Z"/><path fill="#d71920" fill-rule="nonzero" d="M372.867,175.214l0,-33.027l9.308,0l0.299,4.954c1.126,-1.427 4.654,-5.705 9.008,-5.705c2.929,0 4.879,1.051 5.854,1.727l-3.527,6.906c-0.75,-0.451 -2.252,-0.977 -4.277,-0.977c-2.854,0 -5.556,2.327 -6.831,3.378l0,22.744l-9.834,0Z"/><path fill="#d71920" fill-rule="nonzero" d="M418.665,169.509c4.804,0 7.205,-1.126 8.557,-1.576l1.951,5.48c-2.251,0.901 -4.879,2.551 -14.112,2.551c-10.207,0 -17.189,-6.529 -17.189,-17.113c0,-10.734 7.881,-17.415 16.889,-17.415c8.407,0 16.065,5.555 16.065,18.766l-22.595,0c0,5.255 3.078,9.307 10.434,9.307Zm-4.353,-21.543c-3.755,0 -5.405,2.928 -5.932,6.605l11.937,0c-0.602,-4.201 -2.178,-6.605 -6.005,-6.605Z"/><path fill="#d71920" fill-rule="nonzero" d="M149.681,96.449c-1.12,0 -3.072,0.324 -3.072,1.771c0,1.554 1.771,1.771 2.999,1.771l4.7,0c3.541,0 5.89,2.312 5.312,5.601c-0.759,4.229 -5.53,5.675 -8.71,5.675c-2.891,0 -7.988,-0.398 -8.023,-4.374c0,-2.565 1.988,-3.939 3.144,-4.518c-0.687,-0.324 -2.097,-1.192 -2.097,-3.361c0,-2.349 2.097,-3.615 2.892,-3.83c-0.759,-0.435 -1.951,-1.374 -1.951,-3.76c0,-2.602 1.915,-5.096 5.782,-5.096c1.735,0 2.241,0.218 2.855,0.362l6.036,0l0,1.915l-3.47,0c0.362,0.398 1.157,1.374 1.157,2.819c0,3 -2.747,5.025 -6,5.025l-1.554,0Zm-4.12,10.083c0.072,1.663 2.06,2.602 5.132,2.602c2.422,0 5.892,-1.445 6.108,-3.687c0.217,-2.277 -1.554,-2.855 -3.325,-2.855l-4.807,0c-0.867,0.469 -3.181,1.771 -3.108,3.94Zm2.204,-15.108c0,1.626 1.157,3.073 3.254,3.073c2.204,0 3.289,-1.447 3.289,-3.073c0,-1.445 -0.977,-3.144 -3.289,-3.144c-2.097,0 -3.254,1.699 -3.254,3.144Z"/><path fill="#d71920" fill-rule="nonzero" d="M173.462,100.821c2.639,0 3.759,-0.541 4.59,-0.94l0.796,1.663c-0.796,0.434 -2.566,1.41 -6,1.41c-4.88,0 -7.698,-3.145 -7.698,-8.241c0,-4.517 3.036,-8.385 7.228,-8.385c3.795,0 6.903,2.53 6.903,8.385l-10.879,0c0,4.012 1.844,6.108 5.06,6.108Zm-1.084,-12.468c-2.35,0 -3.65,1.951 -3.903,4.301l7.626,0c-0.109,-2.747 -1.699,-4.301 -3.723,-4.301Z"/><path fill="#d71920" fill-rule="nonzero" d="M198.725,102.592l-2.891,0l0,-10.734c0,-1.662 -0.181,-3.145 -2.169,-3.145c-1.373,0 -3.144,1.339 -3.903,1.917l0,11.962l-3,0l0,-15.902l2.855,0l0.072,1.77c0.76,-0.578 2.386,-2.132 4.771,-2.132c2.025,0 3.073,0.687 3.868,2.206c0.866,-0.652 2.747,-2.206 5.06,-2.206c3.253,0 4.445,2.206 4.445,4.879l0,11.385l-2.999,0l0,-10.734c0,-1.662 -0.326,-3.145 -2.169,-3.145c-1.59,0 -3.108,1.266 -3.94,1.845l0,12.034Z"/><path fill="#d71920" fill-rule="nonzero" d="M223.473,100.821c2.639,0 3.759,-0.541 4.59,-0.94l0.795,1.663c-0.795,0.434 -2.566,1.41 -5.999,1.41c-4.87,0 -7.689,-3.145 -7.689,-8.241c0,-4.517 3.035,-8.385 7.22,-8.385c3.794,0 6.903,2.53 6.903,8.385l-10.873,0c0,4.012 1.842,6.108 5.053,6.108Zm-1.083,-12.468c-2.345,0 -3.644,1.951 -3.895,4.301l7.617,0c-0.11,-2.747 -1.699,-4.301 -3.722,-4.301Z"/><path fill="#d71920" fill-rule="nonzero" d="M244.11,100.821c2.639,0 3.758,-0.541 4.59,-0.94l0.795,1.663c-0.795,0.434 -2.565,1.41 -5.999,1.41c-4.88,0 -7.699,-3.145 -7.699,-8.241c0,-4.517 3.036,-8.385 7.229,-8.385c3.796,0 6.902,2.53 6.902,8.385l-10.877,0c0,4.012 1.842,6.108 5.059,6.108Zm-1.084,-12.468c-2.351,0 -3.65,1.951 -3.904,4.301l7.627,0c-0.108,-2.747 -1.7,-4.301 -3.723,-4.301Z"/><path fill="#d71920" fill-rule="nonzero" d="M267.819,102.592l0,-10.734c0,-1.662 -0.578,-3.109 -2.53,-3.109c-2.097,0 -4.085,1.374 -4.879,1.881l0,11.962l-3,0l0,-15.902l2.854,0l0.074,1.77c0.794,-0.506 2.747,-2.132 5.926,-2.132c3.11,0 4.59,1.916 4.555,4.879l0,11.385l-3,0Z"/><path fill="#d71920" fill-rule="nonzero" d="M284.733,102.954c-2.964,0 -3.866,-1.916 -3.866,-4.409l0,-9.94l-3.145,0l0,-1.915l3.145,0l1.048,-6.543l1.806,0l0.108,6.543l4.193,0l0,1.915l-4.193,0l0,9c0,2.06 0.506,2.855 2.132,3.18c0.978,0.18 2.025,0.072 2.749,-0.035l0.251,1.842c-1.011,0.181 -1.988,0.362 -4.228,0.362Z"/><path fill="#d71920" fill-rule="nonzero" d="M301.678,100.821c2.64,0 3.758,-0.541 4.59,-0.94l0.796,1.663c-0.796,0.434 -2.566,1.41 -6,1.41c-4.879,0 -7.698,-3.145 -7.698,-8.241c0,-4.517 3.037,-8.385 7.229,-8.385c3.795,0 6.902,2.53 6.902,8.385l-10.878,0c0,4.012 1.842,6.108 5.059,6.108Zm-1.083,-12.468c-2.351,0 -3.652,1.951 -3.904,4.301l7.627,0c-0.109,-2.747 -1.7,-4.301 -3.723,-4.301Z"/><path fill="#7f3e98" fill-rule="nonzero" d="M71.763,16.365c-8.503,22.488 2.59,45.9 13.543,56.32c14.719,14.002 17.677,22.939 14.594,39.806c-4.371,-17.058 -7.632,-23.21 -15.259,-32.036c-10.525,-12.175 -26.329,-38.353 -12.878,-64.09Z"/><path fill="#7f3e98" fill-rule="nonzero" d="M33.507,44.105c7.819,-0.684 25.912,0.683 31.3,3.782c0,0 0.829,3.77 1.546,4.924c0,0 -21.891,-9.111 -32.846,-8.706Z"/><path fill="#7f3e98" fill-rule="nonzero" d="M48.346,60.435c-0.041,0.031 -0.878,0.68 -0.878,2.994c0,0.288 0.026,0.625 0.055,0.966c-1.79,-2.696 -4.33,-3.222 -4.356,-3.227c-0.177,0.042 -0.445,0.212 -0.46,0.569c-0.007,0.154 -0.01,0.31 -0.01,0.468c0,2.53 0.794,5.508 1.003,5.93l0.001,0.004l0,-0.003c0.013,0.027 0.032,0.078 0.04,0.082c0.082,-0.028 0.113,-0.053 0.113,-0.115c0,-0.04 -0.013,-0.096 -0.033,-0.177c-0.361,-1.492 -0.412,-3.725 -0.412,-4.862c0,-0.432 0.007,-0.701 0.008,-0.717c0.008,0.069 1.46,0.038 3.349,2.883c0.454,0.684 0.835,1.493 1.203,2.353c-0.735,-0.835 -1.831,-1.721 -3.425,-2.661c-0.035,-0.021 -0.08,-0.012 -0.105,0.021c-0.025,0.033 -0.021,0.078 0.008,0.107c1.39,1.32 3.662,5.336 3.684,5.376c0.013,0.022 0.046,0.043 0.071,0.047c0.026,0.003 0.061,-0.001 0.079,-0.018c0.738,-0.761 1.386,-1.082 1.392,-1.085c-0.837,-2.9 -1.485,-5.326 -1.199,-8.864c0.003,-0.031 -0.014,-0.061 -0.041,-0.076c-0.028,-0.016 -0.062,-0.014 -0.087,0.005Z"/><path fill="#7f3e98" fill-rule="nonzero" d="M89.322,103.882l-0.026,-2.985c1.03,-0.149 1.82,-1.03 1.811,-2.1l-0.257,-2.856l-3.757,0.005l-0.212,2.889c0.01,1.039 0.771,1.895 1.763,2.06l0.025,3.006l-2.047,0.305l0,0.59l2.424,-0.029l2.426,0.016l0.003,-0.621l-2.153,-0.28Z"/><path fill="#7f3e98" fill-rule="nonzero" d="M84.848,92.88l-1.658,2.108c-0.53,0.802 -0.388,1.85 0.288,2.491l-1.425,2.155l-1.928,-0.92l-0.312,0.505l1.877,1.234l1.869,1.245l0.311,-0.507l-1.341,-1.184l1.449,-2.187c0.867,0.419 1.93,0.15 2.474,-0.674l1.297,-2.348l-2.901,-1.918Z"/><path fill="#7f3e98" fill-rule="nonzero" d="M66.477,58.843c-0.725,-0.241 -1.099,-0.909 -1.667,-1.394c-0.049,-0.045 0.198,-0.256 0.379,-0.348c0.089,-0.055 0.282,-0.187 0.122,-0.303c-0.029,-0.034 -0.168,-0.085 -0.212,-0.003c-0.061,0.135 -0.164,0.195 -0.302,0.204c-0.053,-0.001 -0.103,-0.047 -0.152,-0.066c0.113,-0.141 0.331,-0.167 0.373,-0.365c-0.411,0.115 -0.83,0.145 -1.221,0.348c-0.171,0.091 -0.052,0.438 -0.218,0.438c-0.219,0.002 -0.402,-0.378 -0.68,-0.211c-0.067,0.039 -0.081,0.133 -0.128,0.209c-0.157,-0.107 -0.343,-0.091 -0.528,-0.12c-0.927,-0.185 -1.82,0.147 -2.752,-0.027c-0.245,-0.054 -0.518,0.052 -0.732,0.147c-1.095,0.465 -2.196,0.855 -3.335,1.186c-0.977,0.288 -1.937,0.63 -2.937,0.873c-0.701,0.164 -1.419,0.192 -2.074,0.551c-0.382,0.203 -0.789,0.465 -0.773,0.951c0.075,1.816 0.995,3.317 1.261,5.124c0.076,0.511 -0.209,1.259 0.371,1.512c0.052,0.025 0.066,-0.04 0.09,-0.074c0.037,-0.047 0.091,-0.019 0.119,0.015c0.026,0.027 0.025,0.08 0.044,0.108c0.029,0.035 0.089,0.06 0.118,0.015c0.112,-0.141 0.16,-0.323 0.133,-0.464c-0.348,-1.596 -1.01,-3.085 -1.465,-4.638c0.066,-0.011 0.045,-0.242 0.128,-0.094c0.982,1.78 1.267,3.643 2.168,5.439c0.069,0.135 0.302,0.097 0.408,0.235c0.042,0.05 0.855,-0.119 1.522,-0.421c0.006,-0.004 0.022,-0.01 0.032,-0.015c-0.099,-0.035 -0.18,-0.096 -0.227,-0.197c-0.163,-0.122 -0.34,-0.139 -0.485,-0.266c-0.358,-0.324 -0.57,-0.737 -0.847,-1.105c-0.137,-0.183 -0.288,-0.574 0.029,-0.622c0.19,-0.035 0.305,0.401 0.504,0.259c0.09,-0.073 0.071,-0.244 0.036,-0.381c0.186,0.091 0.298,0.133 0.411,-0.088c0.046,-0.076 0.169,0.213 0.355,0.107c0.231,-0.134 0.175,-1.013 0.477,-1.057c1.137,-0.173 2.305,-0.382 3.128,-1.206c0.04,-0.04 0.116,-0.125 0.163,-0.087c0.283,0.197 0.412,0.488 0.498,0.812c0.078,0.298 0.324,0.57 0.387,0.901c0.057,0.262 0.046,0.528 0.191,0.761c0.042,0.075 0.224,0.201 0.233,0.234c0,0 0.11,0.163 0.081,0.207c-0.01,0.018 -0.012,0.038 -0.012,0.056c0.292,-0.102 0.507,-0.203 1.035,-0.365c-0.004,-0.001 -0.013,0.002 -0.015,-0.001c-0.185,-0.131 -0.356,-0.314 -0.548,-0.423c-0.183,-0.108 -0.244,-0.325 -0.308,-0.522c-0.069,-0.242 -0.14,-0.491 -0.13,-0.757c0.013,-0.345 -0.181,-0.678 -0.152,-0.994c0.018,-0.111 0.245,-0.166 0.318,-0.075c0.315,0.328 0.353,0.798 0.53,1.215c0.16,0.387 0.258,0.802 0.515,1.139c0.073,0.09 0.181,0.206 0.323,0.212l0.012,0.041c0.472,-0.131 1.133,-0.306 0.986,-0.344c-0.19,-0.045 -0.346,-0.09 -0.526,-0.137c-0.175,-0.05 -0.413,-0.166 -0.443,-0.315c-0.161,-0.798 -0.281,-1.583 -0.38,-2.383c0.535,-0.462 0.976,-0.998 1.467,-1.54c0.465,-0.519 1.049,-0.969 1.717,-0.991c0.368,-0.022 0.764,0.009 1.152,-0.037c0.101,-0.015 0.25,0.122 0.363,0.12c0.492,-0.027 1.208,-0.389 1.07,-0.983Z"/><path fill="#7f3e98" fill-rule="nonzero" d="M19.321,92.382c0.462,0.701 1.407,0.899 2.11,0.434c0.704,-0.462 0.898,-1.404 0.436,-2.109c-0.462,-0.703 -1.407,-0.899 -2.11,-0.437c-0.704,0.464 -0.899,1.407 -0.436,2.112Z"/><path fill="#7f3e98" fill-rule="nonzero" d="M23.784,89.765c-0.803,1.968 -2.089,3.962 -6.028,5.205c-0.391,0.123 -0.608,0.54 -0.484,0.932c0.123,0.391 0.541,0.608 0.932,0.484c4.536,-1.431 6.062,-3.866 6.956,-6.059c0.155,-0.38 -0.027,-0.814 -0.408,-0.969c-0.379,-0.155 -0.813,0.028 -0.968,0.407Z"/><path fill="#7f3e98" fill-rule="nonzero" d="M22.348,93.213c-0.957,0.891 -0.816,2.335 0.783,5.713l1.608,0.313c-1.768,-3.732 -1.384,-4.934 -1.378,-4.94c0.223,-0.207 1.201,-0.056 4.59,1.851l0.638,0.359l0.719,-1.301l-0.629,-0.351c-2.481,-1.398 -5.046,-2.841 -6.331,-1.644Z"/><path fill="#7f3e98" fill-rule="nonzero" d="M22.36,83.186c0.754,-0.371 1.668,-0.061 2.04,0.694c0.372,0.756 0.062,1.669 -0.694,2.04c-0.754,0.372 -1.668,0.062 -2.04,-0.693c-0.372,-0.755 -0.061,-1.668 0.694,-2.041Z"/><path fill="#7f3e98" fill-rule="nonzero" d="M22.623,79.354c-0.305,0.276 -0.33,0.745 -0.055,1.049c2.735,3.032 2.511,5.377 1.861,7.458c-0.123,0.391 0.096,0.808 0.488,0.93c0.391,0.123 0.808,-0.096 0.93,-0.487c0.7,-2.242 1.086,-5.279 -2.175,-8.896c-0.275,-0.305 -0.745,-0.328 -1.049,-0.054Z"/><path fill="#7f3e98" fill-rule="nonzero" d="M25.051,83.502c0.473,2.557 5.305,4.235 7.779,4.297l0.037,-1.485c-2.348,-0.059 -6.098,-1.693 -6.355,-3.082c-0.116,-0.63 0.726,-1.365 2.31,-2.019l-0.566,-1.373c-2.393,0.986 -3.472,2.218 -3.205,3.662Z"/><path fill="#7f3e98" fill-rule="nonzero" d="M18.172,78.764c0.379,-0.752 0.075,-1.667 -0.677,-2.047c-0.752,-0.375 -1.667,-0.074 -2.046,0.678c-0.377,0.755 -0.074,1.669 0.677,2.046c0.754,0.378 1.669,0.076 2.046,-0.677Z"/><path fill="#7f3e98" fill-rule="nonzero" d="M12.172,74.562c-0.406,0.056 -0.688,0.433 -0.63,0.839c0.057,0.407 0.433,0.689 0.839,0.632c3.503,-0.497 5.704,0.266 8.721,3.027c0.302,0.276 0.772,0.256 1.049,-0.047c0.277,-0.303 0.256,-0.772 -0.046,-1.049c-3.319,-3.037 -6.011,-3.959 -9.933,-3.402Z"/><path fill="#7f3e98" fill-rule="nonzero" d="M8.618,78.493c-0.463,-0.703 -1.406,-0.898 -2.111,-0.437c-0.701,0.463 -0.898,1.408 -0.435,2.112c0.463,0.703 1.408,0.897 2.111,0.435c0.703,-0.463 0.898,-1.407 0.435,-2.11Z"/><path fill="#7f3e98" fill-rule="nonzero" d="M1.128,84.779l0.244,0.051c0.178,-2.611 4.045,-7.474 8.741,-8.458c1.111,-0.286 1.175,-1.524 -0.254,-1.269c-5.331,0.824 -8.822,5.965 -8.731,9.676Z"/><path fill="#7f3e98" fill-rule="nonzero" d="M4.206,86.122c-0.841,0.049 -1.481,0.77 -1.433,1.61c0.049,0.84 0.77,1.481 1.609,1.433c0.842,-0.049 1.482,-0.771 1.433,-1.609c-0.049,-0.841 -0.769,-1.483 -1.609,-1.434Z"/><path fill="#7f3e98" fill-rule="nonzero" d="M18.95,74.96c-0.436,-0.113 -1.065,-2.054 -1.097,-3.857l-1.419,0.752c0.044,2.48 0.877,4.21 2.14,4.541c1.6,0.42 3.469,-1.214 5.781,-5.151l-1.345,-0.6c-2.784,4.745 -3.927,4.35 -4.06,4.315Z"/><path fill="#7f3e98" fill-rule="nonzero" d="M14.609,94.876c-2.025,0.048 -11.758,-0.766 -13.305,-8.786c0,0 -0.184,-0.164 -0.354,0.398c-0.357,1.182 0.14,10.562 14.05,11.998c-1.125,-0.719 -1.011,-3.147 -0.391,-3.61Zm1.324,-0.154c-0.277,-0.111 -0.584,-0.056 -0.824,0.076c-0.008,0.005 -0.095,0.058 -0.108,0.06c-0.538,0.723 -0.539,2.801 0.6,3.666c0.32,0.087 0.492,0.087 0.774,0.065c1.219,-0.095 0.751,-3.201 -0.442,-3.867Zm0.389,3.508c-0.333,0.073 -0.761,-0.583 -0.955,-1.464c-0.194,-0.882 -0.08,-1.657 0.251,-1.729c0.333,-0.075 0.759,0.581 0.953,1.463c0.195,0.882 0.082,1.657 -0.249,1.73Z"/><path fill="#7f3e98" fill-rule="nonzero" d="M71.877,70.361l-0.063,-0.065l-0.031,0.084c0,0 -1.517,4.106 -1.523,4.123c-0.005,-0.109 -1.239,-1.362 -1.239,-1.362c-0.094,0.022 -1.396,3.923 -1.413,3.975c-0.006,-0.112 -1.255,-1.38 -1.255,-1.38c-0.095,0.021 -1.458,4.04 -1.466,4.062c-0.004,-0.117 -3.254,-3.419 -3.254,-3.419c-0.081,0 -2.885,2.76 -2.885,2.76c0,0.081 6.55,6.734 6.55,6.734c0.081,0 11.064,-10.817 11.064,-10.817c0.001,-0.08 -4.485,-4.695 -4.485,-4.695Zm-12.142,8.791l0.04,-0.04c0,0 1.789,-1.76 1.87,-1.76c0,0 0.671,0.681 0.671,0.762c0,0 -1.788,1.76 -1.869,1.76l-0.712,-0.722Zm1.22,1.225l0.041,-0.04c0,0 1.788,-1.762 1.868,-1.761c0,0 0.673,0.681 0.672,0.762c0,0 -1.788,1.759 -1.869,1.759l-0.712,-0.72Zm1.987,1.999l-0.04,-0.04c0,0 -0.672,-0.679 -0.671,-0.76c0,0 1.788,-1.762 1.868,-1.761c0,0 0.672,0.679 0.672,0.76l-1.829,1.801Zm4.758,-1.963l-0.04,-0.04c0,-0.001 -0.889,-0.903 -0.889,-0.984c0,0 1.1,-1.083 1.18,-1.083c0,0 0.889,0.903 0.889,0.984l-1.14,1.123Zm1.804,-1.777l-0.04,-0.041c0,0 -0.889,-0.904 -0.889,-0.984c0,0 1.1,-1.084 1.181,-1.083c0,0 0.889,0.904 0.889,0.984l-1.141,1.124Zm1.805,-1.779l-0.04,-0.04c0,0 -0.889,-0.902 -0.888,-0.983c0,0 1.1,-1.084 1.18,-1.083c0,0 0.889,0.902 0.889,0.983l-1.141,1.123Zm0.836,-2.761l0.04,-0.04c0,0 1.1,-1.083 1.18,-1.083c0,0 0.889,0.904 0.889,0.985c0,0 -1.1,1.082 -1.18,1.082l-0.929,-0.944Z"/><path fill="#7f3e98" fill-rule="nonzero" d="M70.394,67.113c-0.075,-0.103 -0.188,-0.181 -0.314,-0.244c0.217,-0.387 0.145,-0.889 -0.106,-1.221c-0.265,-0.305 -0.768,-0.481 -1.202,-0.388c-0.56,0.134 -0.925,0.51 -1.272,0.902c-0.207,0.262 -0.415,0.53 -0.616,0.802l-0.127,-0.077c0.262,-0.716 0.837,-1.397 0.607,-2.203c-0.133,-0.525 -0.446,-0.902 -0.883,-1.15c-0.367,-0.154 -0.849,-0.086 -1.129,0.203c-0.103,0.075 -0.18,0.186 -0.243,0.313c-0.386,-0.218 -0.89,-0.145 -1.219,0.106c-0.307,0.265 -0.484,0.768 -0.389,1.204c0.132,0.557 0.51,0.922 0.9,1.269c0.493,0.39 0.997,0.782 1.529,1.123l0.033,0.039c-0.251,-0.122 -0.518,-0.276 -0.791,-0.4c-0.73,-0.251 -1.425,-0.859 -2.248,-0.624c-0.525,0.132 -0.904,0.443 -1.151,0.882c-0.154,0.368 -0.085,0.849 0.204,1.129c0.074,0.103 0.187,0.18 0.312,0.242c-0.217,0.386 -0.143,0.89 0.107,1.222c0.266,0.306 0.768,0.483 1.204,0.388c0.426,-0.103 0.741,-0.347 1.02,-0.631c-0.4,0.58 -0.775,1.099 -1.044,1.421c-0.33,0.392 -1.347,1.836 -1.73,2.166c-0.01,0.03 -0.021,0.057 0.005,0.082c0.328,0.133 0.584,0.384 0.82,0.623c0.046,0.024 0.078,0.014 0.111,-0.023l1.124,-2.18l0.71,-1.479c0.177,-0.35 0.572,-0.992 0.992,-1.651c-0.005,0.011 -0.01,0.02 -0.015,0.031c-0.251,0.735 -0.859,1.426 -0.625,2.25c0.134,0.525 0.446,0.905 0.885,1.152c0.366,0.153 0.847,0.083 1.126,-0.205c0.104,-0.071 0.179,-0.187 0.246,-0.312c0.387,0.216 0.887,0.144 1.217,-0.106c0.309,-0.265 0.484,-0.768 0.391,-1.203c-0.134,-0.558 -0.512,-0.924 -0.902,-1.271c-0.494,-0.388 -0.947,-0.799 -1.48,-1.14l-0.047,-0.053c0.254,0.12 0.522,0.274 0.793,0.398c0.732,0.253 1.426,0.86 2.248,0.625c0.523,-0.131 0.904,-0.443 1.152,-0.885c0.154,-0.365 0.086,-0.847 -0.203,-1.126Z"/><path fill="#7f3e98" fill-rule="nonzero" d="M32.793,82.312c0.042,-1.076 -0.104,-2.914 -0.223,-4.756c1.302,0.262 2.468,0.567 3.784,0.834l0.325,-2.682c-1.208,-0.073 -2.49,-0.066 -3.718,-0.126c-0.051,0.051 -0.105,-0.009 -0.159,-0.015c0.229,-0.964 0.479,-1.883 0.679,-2.841l-2.667,-0.322l-0.023,0.032c0.012,0.972 0.024,1.928 0.039,2.874l-0.042,0.031c-1.251,-0.278 -2.513,-0.539 -3.811,-0.82l-0.319,2.666c1.349,0.03 2.632,0.089 3.923,0.138c-0.315,1.52 -0.306,2.38 -0.623,3.92c0.735,0.044 2.263,0.6 2.835,1.067Z"/><path fill="#7f3e98" fill-rule="nonzero" d="M69.5,103.987c-0.341,-0.621 -0.501,-1.136 -0.578,-2.125c-0.048,-0.627 0.09,-1.518 0.007,-1.547c0.147,-0.36 0.175,-0.542 0.439,-0.751c0.25,-0.201 0.446,-0.593 0.85,-0.44c0.118,0.043 0.173,0.371 0.257,0.44c0.3,0.243 0.529,0.305 0.913,0.354c0.515,0.07 0.793,-0.075 1.107,-0.264c0.111,-0.07 0.09,-0.279 0.194,-0.356c0.112,-0.069 0.273,0.093 0.391,0c0.139,-0.105 0.035,-0.605 0,-0.702c0.988,0 2.521,0.132 2.082,-1.596c-0.23,-0.919 -1.087,-0.453 -1.887,-0.62c-0.133,-0.021 -0.216,-0.216 -0.453,-0.522c0.431,0 0.522,-0.167 0.912,-0.362c0.398,-0.196 -0.056,-1.31 -0.397,-1.678c-0.313,-0.349 -0.654,-0.113 -1.1,-0.266c-0.23,-0.076 -0.111,-0.3 -0.258,-0.522c-0.139,-0.216 -0.32,-0.125 -0.529,-0.181c0.118,-0.146 0.376,-0.369 0.335,-0.355c0.132,-0.056 0.243,0.076 0.32,-0.084c0.299,-0.598 0.076,-1.093 -0.126,-1.504c-0.271,-0.551 -0.918,-0.321 -1.566,-0.619c-0.133,-0.063 -0.258,-0.397 -0.328,-0.531c0.188,-0.02 0.543,-0.034 0.39,-0.355c-0.118,-0.271 -0.418,-0.298 -0.647,-0.438c-0.237,-0.148 -0.46,-0.502 -0.718,-0.62c-0.223,-0.097 -0.508,0.083 -0.717,0c-0.257,-0.105 -0.216,-0.719 -0.516,-0.704c-0.933,0.064 -1.037,1.03 -1.566,1.505c-0.209,0.188 -0.411,0.069 -0.718,0.174c-0.299,0.097 -0.362,0.327 -0.647,0.438c-0.377,0.153 -0.62,0.384 -0.391,0.794c-0.793,0 -1.58,0.035 -1.887,0.53c-0.139,0.23 -0.062,0.474 -0.131,0.801c-0.063,0.341 -0.315,0.828 0.131,0.968c-0.446,0.243 -0.912,0.189 -0.842,0.969c-0.369,0.048 -0.655,0.055 -0.787,0.444c-0.07,0.23 -0.119,0.892 -0.063,1.151c0.112,0.481 0.941,0.424 1.239,0.619c-0.201,0.181 0.022,0.976 0.196,1.149c-0.23,0.259 -0.494,0.161 -0.85,0.356c-0.182,0.09 -0.216,0.32 -0.39,0.439c-0.076,0.056 -0.278,-0.07 -0.327,0.181c-0.154,0.961 0.759,1.099 1.24,0.967c0.09,0.364 0.243,0.621 0.522,0.704c0.494,0.153 0.814,-0.306 1.302,-0.083c0.243,0.118 0.327,0.403 0.647,0.529c0.773,0.285 1.094,-0.182 1.631,-0.265c0.543,-0.091 0.71,0.111 1.322,0.111c0.035,1.129 0.334,1.888 0.043,3.163c-0.049,0.23 -0.342,0.634 -0.468,0.745l2.417,-0.041Z"/><path fill="#7f3e98" fill-rule="nonzero" d="M40.704,62.743c0.121,0.075 0.222,0.165 0.27,0.309c0.081,0.347 -0.255,0.582 -0.452,0.794c-0.355,0.232 -0.642,0.548 -0.953,0.83l-1.378,1.434c-0.022,0.022 -0.013,0.047 -0.005,0.074c0.145,0.003 0.286,-0.083 0.417,-0.144c0.704,-0.448 1.482,-0.829 2.306,-1.125c0.34,-0.079 0.753,-0.173 1.001,0.125c0.22,0.356 -0.135,0.688 -0.319,0.948c-0.565,0.671 -1.208,1.246 -1.858,1.82c-0.939,0.674 -2.279,1.233 -3.43,0.961c-0.285,-0.097 -0.569,-0.233 -0.755,-0.448c0.073,0.242 -0.06,0.486 0.051,0.726c0.466,0.662 0.643,1.537 0.945,2.306l0.644,1.782c0.184,0.519 0.393,1.03 0.548,1.558c0.001,0.126 0.005,0.261 -0.081,0.367c-0.081,0.097 -0.233,0.108 -0.344,0.082c-0.09,-0.031 -0.172,-0.081 -0.212,-0.163c-0.518,-1.02 -0.772,-2.151 -1.231,-3.215c-0.196,-0.556 -0.419,-1.12 -0.634,-1.697c-0.163,-0.372 -0.1,-0.839 -0.403,-1.109c-0.122,-0.067 -0.216,-0.16 -0.298,-0.26c0.005,0.54 -0.344,1.124 -0.773,1.432c-0.957,0.699 -2.241,0.926 -3.372,1.039c-0.632,0.058 -1.261,0.083 -1.875,-0.068c-0.238,-0.096 -0.49,-0.215 -0.571,-0.466c-0.08,-0.251 -0.015,-0.519 0.148,-0.728c0.449,-0.468 1.221,-0.563 1.833,-0.68c0.384,-0.041 0.767,-0.069 1.151,-0.171c0.039,-0.017 0.121,-0.066 0.054,-0.107c-0.484,-0.115 -0.974,-0.064 -1.462,-0.14c-0.613,-0.074 -1.237,-0.049 -1.856,-0.008c-0.257,-0.006 -0.607,-0.071 -0.73,-0.34c-0.092,-0.267 -0.007,-0.558 0.167,-0.775c0.724,-0.586 1.756,-0.76 2.65,-0.901c0.996,-0.083 1.967,-0.282 2.962,-0.37c0.307,0.022 0.658,0.16 0.9,0.37c0,-0.146 0.045,-0.289 0.058,-0.436c-0.353,0.05 -0.767,-0.135 -0.989,-0.413c-0.128,-0.183 -0.167,-0.419 -0.041,-0.616c0.106,-0.123 0.318,-0.215 0.481,-0.184c0.182,0.001 0.355,0.113 0.531,0.18c0.161,-0.309 0.343,-0.597 0.682,-0.711c0.098,-0.001 0.221,-0.013 0.291,0.081c0.251,0.343 0.063,0.738 -0.057,1.097c-0.006,0.116 -0.213,0.26 -0.048,0.338c0.123,0.085 0.197,0.221 0.279,0.347c0.145,-1.194 1.346,-1.538 2.129,-2.177c0.581,-0.465 1.22,-0.866 1.862,-1.255c0.51,-0.203 1.052,-0.338 1.567,-0.342l0.2,0.049Zm-5.618,4.111c0.001,0.154 -0.001,0.303 -0.053,0.449c0.084,0.118 0.231,0.193 0.309,0.314c0.004,-0.168 0.104,-0.336 0.213,-0.458c-0.183,-0.064 -0.343,-0.177 -0.469,-0.305Zm-1.126,0.456c-0.026,0.188 -0.121,0.392 -0.191,0.549c0.188,0.002 0.416,0.113 0.533,0.262c0.011,-0.178 -0.023,-0.36 0.027,-0.536c-0.161,-0.059 -0.263,-0.179 -0.369,-0.275Z"/><path fill="#7f3e98" fill-rule="nonzero" d="M35.585,88.232c-0.282,-0.121 -0.678,0.015 -0.928,0.587c-0.16,0.363 -0.275,1.352 -0.147,1.552l0.093,0.147l0.184,-0.054c0.225,-0.072 0.829,-0.771 0.996,-1.151c0.249,-0.576 0.08,-0.958 -0.198,-1.081Zm0.318,-1.337c-0.148,-0.27 -0.542,-0.406 -1.091,-0.112c-0.352,0.187 -1.053,0.894 -1.075,1.129l-0.015,0.171l0.175,0.072c0.221,0.084 1.129,-0.093 1.495,-0.291c0.548,-0.296 0.652,-0.7 0.511,-0.969Zm0.212,-0.723c0.551,-0.294 0.654,-0.698 0.511,-0.968l-0.311,-0.249c-0.216,-0.066 -0.493,-0.018 -0.781,0.136c-0.352,0.19 -1.051,0.897 -1.073,1.129l-0.015,0.17l0.174,0.072c0.221,0.084 1.129,-0.092 1.495,-0.29Zm0.686,-1.596c0.547,-0.294 0.649,-0.708 0.512,-0.97c-0.148,-0.272 -0.542,-0.41 -1.094,-0.113c-0.348,0.188 -1.047,0.892 -1.072,1.125l-0.02,0.174l0.18,0.074c0.221,0.082 1.129,-0.094 1.494,-0.29Zm0.667,-1.559c0.554,-0.297 0.655,-0.702 0.512,-0.972c-0.149,-0.269 -0.543,-0.405 -1.092,-0.11c-0.35,0.187 -1.051,0.892 -1.074,1.128l-0.017,0.172l0.176,0.072c0.221,0.083 1.129,-0.093 1.495,-0.29Zm0.664,-1.598c0.549,-0.295 0.65,-0.709 0.511,-0.97c-0.145,-0.269 -0.539,-0.408 -1.092,-0.113c-0.348,0.188 -1.047,0.892 -1.072,1.126l-0.019,0.174l0.177,0.072c0.221,0.084 1.129,-0.092 1.495,-0.289Zm-1.803,5.611c-0.288,0.081 -0.519,0.441 -0.353,1.041c0.109,0.399 0.608,1.178 0.82,1.282l0.158,0.076l0.131,-0.13c0.153,-0.178 0.18,-1.172 0.075,-1.554c-0.168,-0.602 -0.538,-0.793 -0.831,-0.715Zm0.703,-1.7c-0.296,0.084 -0.517,0.438 -0.353,1.041c0.111,0.4 0.609,1.178 0.821,1.282l0.157,0.076l0.132,-0.128c0.153,-0.181 0.18,-1.175 0.074,-1.557c-0.164,-0.6 -0.536,-0.792 -0.831,-0.714Zm0.667,-1.605c-0.002,0 -0.314,0.251 -0.314,0.251c-0.113,0.198 -0.126,0.478 -0.039,0.789c0.11,0.4 0.609,1.179 0.821,1.281l0.155,0.074l0.131,-0.127c0.154,-0.178 0.183,-1.171 0.078,-1.553c-0.167,-0.603 -0.538,-0.794 -0.832,-0.715Zm0.651,-1.567c-0.297,0.084 -0.519,0.438 -0.352,1.042c0.11,0.401 0.608,1.179 0.819,1.28l0.156,0.075l0.131,-0.127c0.155,-0.18 0.183,-1.173 0.077,-1.554c-0.168,-0.604 -0.538,-0.794 -0.831,-0.716Zm1.514,-0.875c-0.166,-0.601 -0.537,-0.792 -0.831,-0.714c-0.296,0.084 -0.517,0.438 -0.354,1.041c0.112,0.402 0.611,1.181 0.823,1.283l0.159,0.077l0.131,-0.133c0.151,-0.184 0.177,-1.176 0.072,-1.554Z"/><path fill="#7f3e98" fill-rule="nonzero" d="M39.322,80.269l-0.631,-0.252l3.417,-8.555l0.63,0.252l-3.416,8.555Z"/><path fill="#7f3e98" fill-rule="nonzero" d="M44.579,74.86l-0.673,-0.088l0.349,-2.668l0.671,0.088l-0.347,2.668Z"/><path fill="#7f3e98" fill-rule="nonzero" d="M43.107,83.55c-0.302,-0.047 -0.649,0.185 -0.745,0.804c-0.061,0.394 0.083,1.379 0.258,1.539l0.128,0.116l0.163,-0.097c0.212,-0.135 0.607,-0.989 0.666,-1.368c0.093,-0.623 -0.169,-0.948 -0.47,-0.994Zm-0.039,-1.376c-0.211,-0.221 -0.626,-0.252 -1.082,0.173c-0.294,0.276 -0.789,1.142 -0.745,1.373l0.031,0.165l0.184,0.024c0.234,0.025 1.066,-0.38 1.369,-0.666c0.457,-0.429 0.451,-0.846 0.243,-1.069Zm-1.349,-0.087c0.235,0.024 1.067,-0.38 1.37,-0.664c0.455,-0.428 0.451,-0.845 0.244,-1.068c0,-0.001 -0.366,-0.161 -0.366,-0.161c-0.227,-0.008 -0.482,0.111 -0.719,0.333c-0.289,0.273 -0.784,1.134 -0.746,1.365l0.027,0.17l0.19,0.025Zm0.253,-1.719c0.237,0.021 1.068,-0.384 1.368,-0.666c0.455,-0.427 0.451,-0.844 0.245,-1.068c-0.211,-0.224 -0.627,-0.257 -1.087,0.172c-0.28,0.265 -0.78,1.137 -0.746,1.364l0.027,0.174l0.193,0.024Zm0.243,-1.678c0.234,0.022 1.065,-0.382 1.369,-0.666c0.457,-0.43 0.451,-0.847 0.243,-1.07c-0.214,-0.223 -0.63,-0.254 -1.084,0.175c-0.29,0.27 -0.785,1.134 -0.745,1.368l0.028,0.168l0.189,0.025Zm0.23,-1.716c0.235,0.022 1.065,-0.381 1.367,-0.663c0.457,-0.429 0.452,-0.847 0.245,-1.071c-0.21,-0.222 -0.626,-0.254 -1.085,0.173c-0.291,0.274 -0.784,1.137 -0.746,1.367l0.028,0.172l0.191,0.022Zm1.071,5.222c-0.265,0.161 -0.387,0.56 -0.071,1.097c0.205,0.353 0.885,0.977 1.119,1.026l0.172,0.037l0.096,-0.161c0.102,-0.212 -0.128,-1.18 -0.329,-1.523c-0.317,-0.539 -0.724,-0.627 -0.987,-0.476Zm0.241,-1.823c-0.264,0.158 -0.386,0.557 -0.072,1.096c0.21,0.359 0.893,0.983 1.125,1.027l0.169,0.032l0.094,-0.157c0.103,-0.211 -0.127,-1.18 -0.327,-1.523c-0.316,-0.54 -0.724,-0.628 -0.989,-0.475Zm0.231,-1.725c-0.258,0.152 -0.389,0.559 -0.072,1.097c0.209,0.359 0.892,0.983 1.124,1.027l0.169,0.032l0.093,-0.158c0.1,-0.208 -0.131,-1.188 -0.326,-1.52c-0.317,-0.539 -0.724,-0.628 -0.988,-0.478Zm0.225,-1.68c-0.265,0.157 -0.388,0.556 -0.071,1.096c0.208,0.357 0.888,0.98 1.12,1.026l0.172,0.034l0.094,-0.16c0.102,-0.214 -0.128,-1.18 -0.328,-1.52c-0.316,-0.539 -0.723,-0.628 -0.987,-0.476Zm1.239,-1.236c-0.319,-0.539 -0.726,-0.628 -0.989,-0.476c-0.264,0.159 -0.387,0.558 -0.072,1.097c0.21,0.358 0.893,0.983 1.124,1.027l0.174,0.034l0.092,-0.164c0.092,-0.2 -0.115,-1.151 -0.329,-1.518Z"/><path fill="#7f3e98" fill-rule="nonzero" d="M25.242,101.332c5.022,1.868 8.936,4.258 12.615,6.519l0.307,-1.871l-2.522,-1.623c1.278,0 3.009,0.356 4.156,-1.445c1.149,-1.806 1.626,-2.992 1.29,-4.101c-0.057,-0.188 -0.149,-0.374 -0.264,-0.556c0.015,-0.039 0.036,-0.084 0.068,-0.137c0.124,-0.199 0.041,-0.657 0.041,-0.657c0,0 1.101,-0.879 1.78,-1.476c0.68,-0.597 1.447,-1.616 1.447,-1.616l-0.689,-0.681c0,0 0.079,-0.132 0.183,-0.159c0.103,-0.024 0.333,-0.338 0.406,-0.455c0.072,-0.119 0.476,-0.217 0.595,-0.297c0.129,-0.083 0.369,-0.371 0.466,-0.315c0.095,0.056 0.557,0.256 0.621,0.244c0,-0.001 0.304,0.018 0.385,-0.342c0.035,-0.156 0.167,-0.242 0.292,-0.278c0.1,-0.03 -0.045,-0.087 -0.049,-0.171l-0.288,-0.32c-0.015,0.002 -0.031,0.004 -0.044,-0.004c-0.123,-0.072 0.36,-0.756 0.468,-0.786c0.084,-0.027 0.209,0.089 0.26,0.14c0.131,0.063 0.331,0.14 0.53,0.21c0.04,-0.007 0.099,-0.025 0.205,-0.083c0.059,-0.033 0.021,-0.137 0.073,-0.152c0.36,-0.106 0.291,-0.296 0.198,-0.507c-0.137,-0.306 -0.508,-0.487 -0.413,-0.622c0.15,-0.211 -0.149,-0.341 -0.174,-0.451c-0.027,-0.11 0.239,-0.074 0.172,-0.358c-0.071,-0.282 -0.11,-0.306 -0.218,-0.747c-0.106,-0.438 -0.247,-0.31 -0.363,-0.378c-0.116,-0.065 -0.219,-0.289 -0.391,-0.387c-0.174,-0.102 -0.64,0.045 -0.961,-0.052c-0.394,-0.119 -0.349,-0.151 -0.564,-0.085c-0.219,-0.021 -0.429,-0.012 -0.592,0.062c-0.604,0.278 -0.46,0.336 -0.457,0.419c0.001,0.085 -0.72,0.308 -0.943,0.539c-0.222,0.231 0.154,0.282 0.068,0.372c-0.087,0.09 -0.32,0.294 -0.561,0.546c-0.241,0.252 -0.095,0.393 -0.095,0.393l0.002,0c-0.043,0.05 -0.081,0.102 -0.108,0.148c-0.038,0.07 -0.012,0.109 -0.102,0.171c-0.322,0.22 -0.823,0.38 -1.291,0.498c0,0 -1.332,0.107 -1.841,0.271c-0.816,0.267 -1.838,0.66 -2.631,0.861c-0.791,0.2 -1.36,0.657 -2.047,1.177c-0.479,0.365 -0.603,0.927 -0.658,1.337c-0.124,0.001 -0.238,0.012 -0.333,0.036c0,0 -0.49,-0.159 -1.32,0.707c-0.716,0.746 -1.33,1.717 -2.108,2.977c-0.855,1.386 1.08,3.446 1.08,3.446l-2.338,-1.375c-0.951,0.957 -3.343,1.414 -3.343,1.414Zm12.22,-6.606c0.063,-0.015 0.502,-0.094 0.904,-0.196c0.402,-0.103 1.587,0.243 1.587,0.243c0,0 -0.145,0.625 -0.242,0.786c-0.098,0.157 -0.487,0.901 -0.553,1.007c-0.011,0.016 -0.018,0.032 -0.024,0.046c-0.36,-0.263 -0.732,-0.51 -1.087,-0.74c-0.027,-0.076 -0.065,-0.187 -0.097,-0.357c-0.088,-0.421 -0.55,-0.774 -0.488,-0.789Z"/><path fill="#7f3e98" fill-rule="nonzero" d="M52.877,69.6c0.266,0.119 0.387,0.431 0.267,0.696c-0.119,0.266 -0.431,0.386 -0.697,0.267c-0.267,-0.118 -0.386,-0.432 -0.268,-0.697c0.119,-0.266 0.432,-0.386 0.698,-0.266Z"/><path fill="#7f3e98" fill-rule="nonzero" d="M58.657,69.61c0.265,0.12 0.386,0.432 0.267,0.698c-0.119,0.267 -0.431,0.386 -0.698,0.267c-0.266,-0.118 -0.386,-0.43 -0.266,-0.697c0.118,-0.267 0.431,-0.387 0.697,-0.268Z"/><path fill="#7f3e98" fill-rule="nonzero" d="M58.667,72.626c-0.023,-0.209 -0.471,-0.639 -0.475,-0.643c0,0.009 0.029,0.097 -0.167,0.566c-0.667,1.598 -1.384,2.535 -2.115,3.726c-0.242,0.393 -0.576,0.848 -0.935,1.309c-0.301,0.378 -0.603,0.755 -0.934,1.122l-0.83,1.035c-0.112,0.137 -0.213,0.262 -0.293,0.366c-0.137,0.178 -0.291,0.448 -0.448,0.756c-0.552,0.982 -0.872,1.842 -1.05,2.501c-0.058,0.167 -0.107,0.311 -0.131,0.395c-0.146,0.512 -0.204,1.106 0.225,0.884c1.021,-0.525 2.688,0.457 2.688,0.457c0,0 0.956,-1.31 1.771,-2.764c0.815,-1.454 2.265,-6.096 2.451,-7.252c0.117,-0.722 0.325,-1.707 0.243,-2.458Zm-8.149,13.268c-0.102,-0.045 -0.69,-0.805 -0.502,-1.505c0.106,-0.394 0.474,-0.498 0.778,-0.516c0.182,-0.871 0.382,-2.41 1.43,-3.78c-0.002,-0.001 0.246,0.107 0.245,0.106c-0.354,-0.145 -1.78,-1.088 -2.468,-3.055c-0.827,-2.363 0.921,-4.602 0.921,-4.602c0.287,1.506 0.79,2.548 1.7,3.246c0.995,0.762 2.111,0.86 2.135,0.863c0.157,-0.193 2.077,-2.652 2.796,-3.92c-0.454,-0.31 -0.633,-0.308 -0.771,-1.19c-0.234,-1.509 1.459,-1.489 1.144,-1.639c-1.535,-0.726 -2.581,-0.355 -3.48,0.762c-0.847,1.054 -1.242,3.247 -1.242,3.247c0,0 -0.329,-0.258 -0.604,-0.683c-0.734,-1.133 -0.454,-2.33 -0.376,-2.811c0.027,-0.16 -0.16,-0.155 -0.16,-0.155c0,0 -1.396,0.533 -2.596,2.022c-0.968,1.199 -1.504,2.577 -1.455,4.186c0.042,1.4 1.424,3.198 1.424,3.198c0,0 -0.507,0.361 -0.719,0.71c-0.314,0.521 -0.574,0.809 -0.68,2.054c-0.104,1.245 0.484,2.065 1.097,2.639c0.756,0.708 1.323,0.92 1.323,0.92l0.195,0.41l1.56,0.934l0.463,-0.931l-1.724,-0.583l-0.434,0.073Z"/><path fill="#7f3e98" fill-rule="nonzero" d="M76.262,80.072c-0.234,0.754 -1.086,2.807 -4.178,3.407l-1.332,1.332c2.826,-0.175 5.503,-1.3 6.411,-4.459c0.297,-1.03 1.597,-1.018 2.458,-0.907l-0.693,-0.932c-0.784,-0.101 -2.098,-0.269 -2.666,1.559Z"/><path fill="#7f3e98" fill-rule="nonzero" d="M75.191,78.442c-0.504,1.2 -0.471,2.334 -2.349,2.684l-1.29,1.317c2.401,-0.1 3.802,-1 4.538,-3.72c0.281,-1.037 1.398,-1.183 2.535,-0.984l-0.77,-0.858c-0.784,-0.1 -1.924,-0.204 -2.664,1.561Z"/><path fill="#7f3e98" fill-rule="nonzero" d="M93.994,111.98c0,2.033 -1.646,3.68 -3.68,3.68c-2.031,0 -3.678,-1.647 -3.678,-3.68c0,-2.032 1.647,-3.679 3.678,-3.679c2.034,0 3.68,1.647 3.68,3.679Zm-3.68,-2.972c-1.642,0 -2.973,1.332 -2.973,2.972c0,1.643 1.331,2.975 2.973,2.975c1.643,0 2.974,-1.332 2.974,-2.975c0,-1.64 -1.331,-2.972 -2.974,-2.972Z"/><path fill="#7f3e98" fill-rule="nonzero" d="M85.251,115.79c0,2.032 -1.647,3.679 -3.68,3.679c-2.031,0 -3.678,-1.647 -3.678,-3.679c0,-2.033 1.647,-3.68 3.678,-3.68c2.033,0 3.68,1.647 3.68,3.68Zm-3.68,-2.973c-1.642,0 -2.973,1.332 -2.973,2.973c0,1.642 1.331,2.974 2.973,2.974c1.642,0 2.973,-1.332 2.973,-2.974c0,-1.641 -1.331,-2.973 -2.973,-2.973Z"/><path fill="#7f3e98" fill-rule="nonzero" d="M90.992,111.982c0,0.373 -0.303,0.678 -0.677,0.678c-0.375,0 -0.679,-0.305 -0.679,-0.678c0,-0.376 0.304,-0.678 0.679,-0.678c0.374,0 0.677,0.302 0.677,0.678Z"/><path fill="#7f3e98" fill-rule="nonzero" d="M82.249,115.79c0,0.375 -0.303,0.678 -0.678,0.678c-0.374,0 -0.678,-0.303 -0.678,-0.678c0,-0.374 0.304,-0.678 0.678,-0.678c0.375,0 0.678,0.304 0.678,0.678Z"/><path fill="#7f3e98" fill-rule="nonzero" d="M10.394,87.33c4.025,-0.127 5.947,-3.633 6.567,-5.073c-0.618,-0.692 -1.419,-1.234 -2.369,-1.53c-0.969,-0.304 -1.958,-0.311 -2.877,-0.081l-0.312,0.687c-0.747,1.562 -1.8,3.773 -1.009,5.997Zm0.481,-6.248l0.088,-0.192c-1.407,0.583 -2.557,1.761 -3.047,3.33c-0.291,0.929 -0.31,1.875 -0.108,2.76c0.697,0.2 1.346,0.307 1.954,0.341c-0.733,-2.375 0.38,-4.707 1.113,-6.239Zm-0.23,6.833c0.273,0.535 0.663,1.065 1.199,1.584c3.837,-0.266 5.689,-3.633 6.3,-5.051c-0.161,-0.599 -0.421,-1.167 -0.773,-1.675c-0.767,1.648 -2.778,4.915 -6.726,5.142Zm-0.655,0.01c-0.618,-0.016 -1.281,-0.108 -1.988,-0.287c0.195,0.533 0.478,1.032 0.83,1.478c0.792,0.239 1.525,0.363 2.202,0.393c-0.465,-0.521 -0.806,-1.051 -1.044,-1.584Zm8.321,-2.47c-0.857,1.627 -2.664,4.114 -5.851,4.58c0.432,0.344 0.93,0.683 1.517,1.012c1.873,-0.352 3.498,-1.698 4.107,-3.645c0.203,-0.65 0.27,-1.308 0.227,-1.947Zm-8.684,4.47c0.512,0.423 1.107,0.76 1.782,0.969c0.526,0.167 1.058,0.245 1.582,0.245c-0.524,-0.334 -0.969,-0.68 -1.357,-1.031c-0.622,0.018 -1.29,-0.036 -2.007,-0.183Z"/><path fill="#7f3e98" fill-rule="nonzero" d="M78.033,102.382c1.042,-1 2.009,-1.024 3.11,0.925l0.523,0.347l-1.613,0.988l-0.812,-0.683l-0.245,-0.808l-0.963,-0.769Z"/><path fill="#7f3e98" fill-rule="nonzero" d="M81.23,103.942l3.533,2.042c0,0 0.162,0.111 0.512,0.315c0.434,0.253 0.857,0.622 0.87,1.328c0,0 0.505,-0.317 0.752,-0.51c0,0 0.552,0.201 0.036,1.377l-0.878,0.409l4.201,2.65l-0.384,0.17l-4.405,-2.409l-0.075,1.249l1.519,1.227l-0.031,1.015c0,0 -0.39,0.404 -1.113,-0.123l-0.48,-0.377l-0.203,3.24l-0.417,0.417c-0.396,0.019 -0.71,-0.131 -0.706,-0.846l0.019,-3.784l-0.894,-0.665l-1.988,0.84c0.522,0.989 1.096,2.763 0.938,3.855l-0.475,-0.087c-0.099,-0.841 0.136,-1.62 -1.376,-3.849l-1.3,-0.845c-0.233,-0.152 -0.727,-0.509 -0.159,-0.822l1.06,-0.467c0.035,0.238 0.357,0.372 0.678,0.347l-1.177,0.504l1.616,0.965l1.846,-0.726c-0.156,-0.343 -0.032,-0.485 0.078,-0.709l0.725,-1.404c-0.06,-0.528 -0.119,-1 -0.892,-1.227c0,0 -1.293,1.671 -1.532,2.033c-0.361,0.548 -1.344,0.307 -0.772,-0.68l1.079,-1.557c-0.584,-0.107 -0.835,-0.459 -0.613,-1.284l0.408,-1.612Z"/><path fill="#7f3e98" fill-rule="nonzero" d="M64.262,113.624c0.001,0.001 -0.049,-0.176 -0.134,-0.483l-12.318,-5.324l-0.281,0.153c-0.004,0 -3.639,1.143 -3.639,1.143c-0.002,0.004 -0.003,0.009 -0.003,0.014c0,0.129 0.345,0.646 0.345,0.646c0.059,0.02 0.469,-0.099 0.646,-0.151c-0.101,0.227 -1.12,2.508 -1.12,2.508c0.014,0.035 2.827,1.276 6.094,2.708l0.972,-2.24c0.4,-0.92 1.47,-1.343 2.391,-0.943l1.111,0.482c0.921,0.401 1.343,1.47 0.943,2.392l-0.977,2.25c3.033,1.324 5.542,2.416 5.542,2.416c0.073,-0.029 0.957,-2.059 1.178,-2.568c0.092,0.157 0.366,0.62 0.366,0.62c0.091,0.019 0.568,-0.311 0.568,-0.311c0.02,-0.083 -1.684,-3.312 -1.684,-3.312Zm-12.167,-1.94l-0.384,0.908l-1.161,-0.504l0.384,-0.908c0.104,-0.241 0.383,-0.351 0.624,-0.247l0.291,0.126c0.24,0.105 0.35,0.384 0.246,0.625Zm10.702,4.353l-0.383,0.908l-1.162,-0.504l0.384,-0.909c0.105,-0.241 0.384,-0.351 0.625,-0.246l0.29,0.126c0.241,0.104 0.351,0.383 0.246,0.625Zm-1.56,-13.257l-0.021,-0.077l-0.07,0.038l-8.533,4.639l11.269,4.88c-0.812,-2.913 -2.645,-9.48 -2.645,-9.48Z"/><path fill="#7f3e98" fill-rule="nonzero" d="M70.881,108.79l-0.036,-0.038c0,0 -0.901,-0.698 -1.554,-0.72c0.474,-0.485 0.646,-1.641 0.646,-1.641l-0.054,0c0,0 -1.131,0.142 -1.609,0.59c-0.004,-0.676 -0.702,-1.617 -0.702,-1.617l-0.038,0.036c0,0 -0.698,0.9 -0.721,1.554c-0.483,-0.474 -1.639,-0.645 -1.639,-0.645l-0.002,0.052c0,0 0.142,1.132 0.59,1.609c-0.677,0.007 -1.616,0.701 -1.616,0.701l0.037,0.039c0,0 0.899,0.699 1.553,0.722c-0.474,0.483 -0.646,1.639 -0.646,1.639l0.053,0.002c0,0 1.13,-0.142 1.609,-0.59c0.006,0.676 0.703,1.617 0.703,1.617l0.038,-0.035c0,0 0.698,-0.901 0.721,-1.555c0.484,0.473 1.639,0.645 1.639,0.645l0.002,-0.054c0,0 -0.143,-1.131 -0.59,-1.609c0.676,-0.006 1.616,-0.702 1.616,-0.702Zm-3.333,0.788c-0.501,0 -0.907,-0.408 -0.907,-0.909c0,-0.501 0.406,-0.908 0.907,-0.908c0.501,0 0.909,0.407 0.909,0.908c0,0.501 -0.408,0.909 -0.909,0.909Z"/><path fill="#7f3e98" fill-rule="nonzero" d="M77.178,104.472l-0.045,-0.026c0,0 -1.049,-0.446 -1.687,-0.3c0.335,-0.589 0.205,-1.752 0.205,-1.752l-0.051,0.014c0,0 -1.057,0.427 -1.405,0.982c-0.177,-0.653 -1.091,-1.384 -1.091,-1.384l-0.029,0.045c0,0 -0.444,1.049 -0.3,1.687c-0.588,-0.335 -1.75,-0.205 -1.75,-0.205l0.012,0.05c0,0 0.428,1.058 0.983,1.406c-0.653,0.179 -1.384,1.09 -1.384,1.09l0.046,0.029c0,0 1.048,0.446 1.686,0.3c-0.335,0.589 -0.206,1.75 -0.206,1.75l0.052,-0.012c0,0 1.057,-0.426 1.405,-0.981c0.179,0.652 1.093,1.383 1.093,1.383l0.027,-0.043c0,0 0.446,-1.05 0.3,-1.688c0.589,0.334 1.75,0.205 1.75,0.205l-0.013,-0.053c0,0 -0.426,-1.056 -0.981,-1.405c0.652,-0.178 1.383,-1.092 1.383,-1.092Zm-3.021,1.614c-0.484,0.128 -0.981,-0.162 -1.109,-0.646c-0.129,-0.484 0.161,-0.982 0.644,-1.11c0.485,-0.128 0.983,0.161 1.111,0.646c0.128,0.484 -0.161,0.982 -0.646,1.11Z"/><path fill="#7f3e98" fill-rule="nonzero" d="M76.899,113.693l-0.024,-0.046c0,0 -0.662,-0.928 -1.282,-1.137c0.594,-0.327 1.091,-1.386 1.091,-1.386l-0.052,-0.015c0,0 -1.124,-0.189 -1.71,0.102c0.19,-0.649 -0.207,-1.75 -0.207,-1.75l-0.047,0.023c0,0 -0.927,0.663 -1.138,1.281c-0.327,-0.593 -1.385,-1.089 -1.385,-1.089l-0.016,0.049c0,0 -0.188,1.125 0.102,1.712c-0.649,-0.189 -1.749,0.206 -1.749,0.206l0.024,0.049c0,0 0.661,0.928 1.281,1.137c-0.594,0.327 -1.091,1.384 -1.091,1.384l0.051,0.017c0,0 1.123,0.189 1.711,-0.102c-0.189,0.65 0.209,1.75 0.209,1.75l0.045,-0.022c0,0 0.928,-0.662 1.138,-1.282c0.327,0.593 1.384,1.09 1.384,1.09l0.018,-0.052c0,0 0.188,-1.124 -0.103,-1.711c0.649,0.189 1.75,-0.208 1.75,-0.208Zm-3.419,-0.202c-0.479,-0.145 -0.752,-0.652 -0.607,-1.132c0.143,-0.481 0.65,-0.752 1.129,-0.61c0.48,0.145 0.753,0.652 0.609,1.131c-0.144,0.481 -0.651,0.754 -1.131,0.611Z"/><path fill="#7f3e98" fill-rule="nonzero" d="M86.273,88.715c-0.802,-0.53 -4.012,-2.901 -4.012,-2.901c0,0 -1.754,-4.323 -1.994,-4.89c-0.243,-0.576 -1.087,-0.985 -1.639,-0.263c-0.756,0.988 -3.039,4.036 -3.039,4.036c0,0 -3.766,1.515 -4.763,2.07c-0.999,0.552 -0.842,1.125 -0.076,1.72c0.639,0.496 2.97,2.329 3.726,2.925l1.109,-0.846l-1.091,-1.435l-0.808,0.615l-2.656,-2.125l3.045,-1.316l0.634,0.788l3.169,-2.514l-0.645,-0.849l2.029,-2.649l1.403,3.114l-0.74,0.697l2.451,3.218l0.854,-0.549l2.744,1.891l-3.086,1.481l-0.64,-0.751l-3.268,2.558l0.531,0.699l-1.944,2.586l-1.299,-2.892l0.754,-0.676l-1.059,-1.394l-1.116,0.851c0.379,0.911 1.479,3.53 1.866,4.26c0.469,0.89 1.19,0.79 1.851,-0.025c0.661,-0.815 2.865,-3.742 2.865,-3.742c0,0 3.797,-1.729 4.687,-2.06c0.89,-0.332 0.868,-1.161 0.157,-1.632Zm-7.932,-3.487l-2.937,2.339c-0.492,0.437 -0.842,0.475 -1.084,0.158l-0.424,-0.513l-1.544,0.651l1.375,1.015l0.566,-0.398c0.493,-0.275 0.783,0.14 1.089,0.544l2.142,2.818c0.531,0.65 0.129,1.005 0.129,1.005l-0.507,0.52l0.539,1.363l0.948,-1.258c-0.725,-0.854 -0.048,-1.336 -0.048,-1.336l3.233,-2.564c0.364,-0.311 0.45,-0.376 0.863,0.078l0.45,0.461l1.549,-0.778l-1.39,-0.948c-0.726,0.586 -1.237,0.474 -1.577,0.03l-2.36,-3.088c-0.318,-0.458 -0.287,-0.683 -0.012,-0.893c0.275,-0.209 0.551,-0.42 0.551,-0.42l-0.769,-1.623l-0.953,1.429l0.296,0.476c0.281,0.496 0.315,0.604 -0.125,0.932Z"/><path fill="#7f3e98" fill-rule="nonzero" d="M51.062,96.347c0,0.192 0.031,0.376 0.056,0.561l4.224,-4.666c-0.054,-0.002 -0.105,-0.016 -0.16,-0.016c-2.276,0 -4.12,1.845 -4.12,4.121Zm9.551,-12.461c-0.935,-0.851 -1.812,-1.411 -1.949,-1.259c-0.061,0.067 -0.039,0.296 0.156,0.561l-1.141,1.253l-2.039,2.251l-8.292,9.16c-0.478,0.556 -1.02,0.973 -0.453,1.623c0.566,0.65 1.347,1.275 1.347,1.275c0,0 0.598,0.659 1.839,-0.697l0.306,-0.339c-0.125,-0.437 -0.213,-0.889 -0.213,-1.367c0,-2.762 2.243,-5.003 5.008,-5.003c0.306,0 0.601,0.038 0.892,0.09l2.15,-2.375l2.03,-2.243l1.157,-1.282c0.329,0.209 0.583,0.241 0.649,0.168c0.138,-0.154 -0.509,-0.961 -1.447,-1.816Z"/><path fill="#7f3e98" fill-rule="nonzero" d="M56.63,91.947l2.038,-2.248l0.772,0.69l-8.383,9.293c0,0 1.163,2.184 -2.257,6.01c-2.62,2.933 -3.511,5.348 -3.511,5.348l-0.98,-0.449c0,0 0.511,-2.043 3.348,-5.267c3.849,-4.376 1.998,-5.673 1.998,-5.673l1.374,-1.521l5.601,-6.183Z"/><path fill="#7f3e98" fill-rule="nonzero" d="M46.801,97.924c-0.57,0.694 0.249,1.547 0.936,0.85l-0.936,-0.85Z"/><path fill="#7f3e98" fill-rule="nonzero" d="M55.182,91.86c-2.477,0 -4.487,2.01 -4.487,4.487c0,2.478 2.01,4.487 4.487,4.487c2.478,0 4.487,-2.009 4.487,-4.487c0,-2.477 -2.009,-4.487 -4.487,-4.487Zm0,8.179c-2.039,0 -3.692,-1.654 -3.692,-3.692c0,-2.042 1.653,-3.696 3.692,-3.696c2.042,0 3.695,1.654 3.695,3.696c0,2.038 -1.653,3.692 -3.695,3.692Z"/><path fill="#7f3e98" fill-rule="nonzero" d="M58.773,94.754c0.019,-0.072 0.006,-0.151 -0.034,-0.214l-0.193,-0.303c-0.038,-0.062 -0.103,-0.107 -0.173,-0.121c-0.072,-0.015 -0.147,-0.002 -0.208,0.04l-1.909,1.276c-0.236,-0.278 -0.577,-0.461 -0.963,-0.491l-0.422,-2.302c-0.014,-0.075 -0.058,-0.14 -0.121,-0.182c-0.064,-0.04 -0.143,-0.052 -0.215,-0.034l-0.349,0.09c-0.07,0.018 -0.132,0.066 -0.168,0.128c-0.037,0.063 -0.046,0.139 -0.026,0.211l0.621,2.198c-0.341,0.15 -0.61,0.43 -0.747,0.777l-2.334,-0.311c-0.075,-0.01 -0.151,0.011 -0.21,0.059c-0.059,0.048 -0.094,0.118 -0.099,0.194l-0.023,0.359c-0.005,0.073 0.022,0.146 0.07,0.199c0.049,0.054 0.118,0.087 0.191,0.09l2.32,0.09c0.042,0.367 0.221,0.688 0.488,0.915l-1.034,2.158c-0.032,0.068 -0.035,0.147 -0.008,0.218c0.028,0.07 0.084,0.126 0.153,0.153l0.334,0.133c0.069,0.026 0.145,0.025 0.213,-0.004c0.066,-0.031 0.118,-0.086 0.144,-0.155l0.808,-2.195c0.098,0.022 0.199,0.035 0.303,0.035c0.261,0 0.503,-0.076 0.713,-0.199l1.733,1.649c0.054,0.053 0.128,0.079 0.204,0.075c0.075,-0.003 0.145,-0.04 0.193,-0.098l0.23,-0.276c0.046,-0.058 0.069,-0.13 0.06,-0.203c-0.006,-0.073 -0.043,-0.14 -0.102,-0.186l-1.827,-1.44c0.133,-0.215 0.214,-0.467 0.214,-0.74c0,-0.103 -0.013,-0.203 -0.034,-0.301l2.072,-1.121c0.067,-0.035 0.115,-0.097 0.135,-0.171Z"/><path fill="#7f3e98" fill-rule="nonzero" d="M83.742,37.806c0.006,0.031 0.029,0.056 0.06,0.064c3.447,0.842 5.545,2.223 8.033,3.93c0.006,-0.005 0.514,-0.518 1.469,-0.978c0.022,-0.012 0.036,-0.045 0.041,-0.07c0.005,-0.024 -0.004,-0.063 -0.021,-0.082c-0.032,-0.034 -3.127,-3.455 -3.942,-5.19c-0.017,-0.037 -0.059,-0.055 -0.098,-0.043c-0.039,0.015 -0.063,0.055 -0.054,0.094c0.391,1.809 0.886,3.129 1.447,4.089c-0.7,-0.62 -1.348,-1.237 -1.855,-1.882c-2.104,-2.691 -1.616,-4.059 -1.68,-4.087c0.015,0.003 0.273,0.082 0.683,0.218c1.079,0.358 3.182,1.11 4.484,1.922c0.071,0.046 0.12,0.076 0.158,0.087c0.059,0.021 0.093,-0.001 0.144,-0.07c-0.001,-0.009 -0.043,-0.043 -0.065,-0.064c0.001,0 0.002,0.001 0.003,0.001l-0.004,-0.001c-0.334,-0.332 -2.91,-2.025 -5.311,-2.822c-0.149,-0.05 -0.299,-0.096 -0.447,-0.137c-0.344,-0.098 -0.59,0.102 -0.685,0.255c-0.004,0.028 -0.305,2.605 1.69,5.152c-0.315,-0.134 -0.626,-0.265 -0.9,-0.356c-2.196,-0.729 -3.076,-0.14 -3.118,-0.111c-0.025,0.019 -0.038,0.05 -0.032,0.081Z"/><path fill="#7f3e98" fill-rule="nonzero" d="M112.095,90.305l-2.825,-0.965c-0.466,0.931 -1.552,1.403 -2.563,1.057l-2.63,-1.144l1.188,-3.564l2.809,0.71c0.983,0.336 1.555,1.328 1.4,2.322l2.844,0.971l0.935,-1.848l0.56,0.186l-0.791,2.292l-0.75,2.307l-0.59,-0.192l0.413,-2.132Z"/><path fill="#7f3e98" fill-rule="nonzero" d="M103.063,82.592l2.523,-0.909c0.927,-0.251 1.878,0.215 2.274,1.059l2.494,-0.675l-0.266,-2.118l0.578,-0.138l0.579,2.171l0.593,2.165l-0.579,0.136l-0.701,-1.645l-2.533,0.685c0.124,0.955 -0.466,1.879 -1.419,2.135l-2.637,0.491l-0.906,-3.357Z"/><path fill="#7f3e98" fill-rule="nonzero" d="M76.549,54.43c0.001,-0.764 -0.516,-1.329 -0.797,-2.02c-0.027,-0.062 -0.305,0.108 -0.45,0.25c-0.08,0.066 -0.265,0.208 -0.325,0.019c-0.024,-0.037 -0.028,-0.185 0.064,-0.201c0.147,-0.016 0.236,-0.094 0.288,-0.223c0.015,-0.049 -0.012,-0.112 -0.015,-0.165c-0.169,0.063 -0.262,0.262 -0.463,0.24c0.237,-0.354 0.399,-0.743 0.714,-1.049c0.141,-0.135 0.433,0.089 0.485,-0.07c0.07,-0.207 -0.232,-0.5 0.014,-0.712c0.059,-0.051 0.151,-0.035 0.237,-0.055c-0.051,-0.183 0.024,-0.355 0.055,-0.539c0.116,-0.938 0.712,-1.681 0.841,-2.62c0.025,-0.249 0.212,-0.476 0.369,-0.649c0.787,-0.892 1.504,-1.814 2.178,-2.791c0.58,-0.837 1.208,-1.639 1.754,-2.513c0.376,-0.613 0.629,-1.285 1.176,-1.793c0.313,-0.299 0.69,-0.603 1.146,-0.435c1.7,0.644 2.834,1.989 4.465,2.811c0.462,0.234 1.261,0.199 1.318,0.83c0.008,0.056 -0.058,0.049 -0.099,0.062c-0.056,0.02 -0.046,0.079 -0.022,0.117c0.017,0.033 0.068,0.049 0.088,0.075c0.025,0.04 0.029,0.103 -0.023,0.118c-0.169,0.061 -0.357,0.049 -0.482,-0.021c-1.405,-0.833 -2.609,-1.931 -3.94,-2.851c-0.032,0.059 -0.245,-0.035 -0.13,0.091c1.38,1.495 3.059,2.351 4.479,3.773c0.106,0.107 -0.003,0.316 0.095,0.461c0.034,0.055 -0.383,0.773 -0.879,1.31c-0.006,0.005 -0.017,0.019 -0.024,0.027c-0.003,-0.105 -0.036,-0.2 -0.117,-0.278c-0.063,-0.193 -0.024,-0.366 -0.099,-0.544c-0.195,-0.442 -0.52,-0.774 -0.782,-1.152c-0.13,-0.187 -0.453,-0.455 -0.6,-0.168c-0.092,0.169 0.286,0.415 0.087,0.56c-0.097,0.061 -0.253,-0.009 -0.372,-0.086c0.028,0.205 0.032,0.325 -0.213,0.362c-0.087,0.02 0.148,0.227 -0.011,0.371c-0.199,0.176 -1.016,-0.153 -1.153,0.119c-0.522,1.025 -1.088,2.068 -2.13,2.588c-0.051,0.026 -0.156,0.071 -0.135,0.128c0.099,0.33 0.334,0.545 0.614,0.729c0.258,0.168 0.439,0.487 0.734,0.65c0.231,0.137 0.487,0.211 0.662,0.422c0.058,0.063 0.121,0.276 0.148,0.294c0,0 0.12,0.156 0.171,0.142c0.021,-0.003 0.04,0 0.057,0.007c-0.189,0.245 -0.352,0.417 -0.672,0.867c0,-0.003 0.005,-0.012 0.004,-0.015c-0.066,-0.216 -0.187,-0.436 -0.229,-0.653c-0.045,-0.207 -0.232,-0.333 -0.399,-0.457c-0.207,-0.141 -0.422,-0.288 -0.677,-0.361c-0.332,-0.098 -0.586,-0.386 -0.895,-0.459c-0.112,-0.017 -0.236,0.181 -0.172,0.279c0.212,0.403 0.646,0.587 0.985,0.886c0.318,0.274 0.681,0.498 0.92,0.848c0.062,0.097 0.138,0.236 0.099,0.373l0.035,0.024c-0.273,0.407 -0.647,0.979 -0.636,0.828c0.017,-0.194 0.023,-0.357 0.034,-0.543c0.009,-0.181 -0.027,-0.444 -0.158,-0.519c-0.707,-0.404 -1.415,-0.765 -2.142,-1.111c-0.608,0.362 -1.255,0.611 -1.924,0.906c-0.639,0.278 -1.25,0.69 -1.482,1.317c-0.137,0.342 -0.232,0.729 -0.398,1.082c-0.046,0.091 0.037,0.277 0,0.383c-0.181,0.458 -0.75,1.023 -1.271,0.704Z"/><path fill="#7f3e98" fill-rule="nonzero" d="M123.24,20.247c0.52,0.659 0.41,1.619 -0.253,2.139c-0.66,0.523 -1.616,0.41 -2.139,-0.25c-0.521,-0.66 -0.409,-1.619 0.25,-2.14c0.662,-0.522 1.619,-0.411 2.142,0.251Z"/><path fill="#7f3e98" fill-rule="nonzero" d="M119.35,23.658c2.121,-0.142 4.418,-0.735 6.839,-4.08c0.241,-0.333 0.705,-0.407 1.038,-0.166c0.332,0.24 0.406,0.705 0.165,1.037c-2.788,3.853 -5.579,4.534 -7.942,4.692c-0.409,0.026 -0.764,-0.283 -0.792,-0.692c-0.028,-0.409 0.283,-0.764 0.692,-0.791Z"/><path fill="#7f3e98" fill-rule="nonzero" d="M123.075,23.382c1.147,-0.627 2.473,-0.039 5.175,2.543l-0.209,1.624c-2.986,-2.852 -4.247,-2.868 -4.254,-2.864c-0.267,0.147 -0.432,1.123 0.31,4.939l0.139,0.718l-1.461,0.274l-0.135,-0.708c-0.545,-2.794 -1.106,-5.685 0.435,-6.526Z"/><path fill="#7f3e98" fill-rule="nonzero" d="M113.556,20.233c-0.591,0.599 -0.585,1.563 0.014,2.154c0.601,0.591 1.565,0.585 2.155,-0.014c0.591,-0.599 0.585,-1.564 -0.014,-2.156c-0.6,-0.591 -1.564,-0.583 -2.155,0.016Z"/><path fill="#7f3e98" fill-rule="nonzero" d="M109.835,19.275c0.358,-0.202 0.811,-0.077 1.013,0.278c2.016,3.552 4.312,4.077 6.492,4.117c0.41,0.006 0.736,0.346 0.728,0.756c-0.006,0.41 -0.344,0.737 -0.755,0.73c-2.348,-0.042 -5.352,-0.633 -7.757,-4.868c-0.202,-0.358 -0.077,-0.811 0.279,-1.013Z"/><path fill="#7f3e98" fill-rule="nonzero" d="M113.007,22.887c2.278,1.255 2.348,6.369 1.627,8.736l-1.421,-0.432c0.684,-2.247 0.315,-6.321 -0.923,-7.002c-0.561,-0.311 -1.524,0.259 -2.643,1.556l-1.125,-0.971c1.689,-1.96 3.198,-2.596 4.485,-1.887Z"/><path fill="#7f3e98" fill-rule="nonzero" d="M110.678,14.866c-0.833,0.122 -1.606,-0.454 -1.729,-1.288c-0.119,-0.832 0.455,-1.607 1.288,-1.729c0.835,-0.12 1.608,0.455 1.728,1.287c0.122,0.835 -0.454,1.609 -1.287,1.73Z"/><path fill="#7f3e98" fill-rule="nonzero" d="M108.581,7.847c0.181,-0.368 0.628,-0.516 0.995,-0.334c0.368,0.182 0.517,0.629 0.335,0.996c-1.576,3.167 -1.545,5.497 0.125,9.229c0.166,0.375 -0.001,0.814 -0.376,0.982c-0.374,0.168 -0.813,0 -0.981,-0.375c-1.836,-4.106 -1.863,-6.952 -0.098,-10.498Z"/><path fill="#7f3e98" fill-rule="nonzero" d="M113.431,5.712c-0.521,-0.66 -0.409,-1.617 0.251,-2.14c0.661,-0.52 1.619,-0.409 2.141,0.252c0.522,0.661 0.408,1.619 -0.252,2.14c-0.66,0.522 -1.618,0.409 -2.14,-0.252Z"/><path fill="#7f3e98" fill-rule="nonzero" d="M121.757,0.584l-0.028,0.248c-2.534,-0.654 -8.367,1.484 -10.782,5.631c-0.621,0.965 -1.816,0.634 -1.124,-0.641c2.463,-4.8 8.442,-6.492 11.934,-5.238Z"/><path fill="#7f3e98" fill-rule="nonzero" d="M122.062,3.929c0.312,-0.782 1.197,-1.163 1.98,-0.852c0.781,0.311 1.163,1.197 0.853,1.979c-0.312,0.782 -1.199,1.163 -1.979,0.853c-0.783,-0.312 -1.165,-1.199 -0.854,-1.98Z"/><path fill="#7f3e98" fill-rule="nonzero" d="M106.823,14.405c0.03,-0.45 -1.613,-1.658 -3.315,-2.258l1.161,-1.109c2.339,0.824 3.719,2.159 3.635,3.462c-0.106,1.652 -2.246,2.911 -6.711,3.863l-0.145,-1.465c5.381,-1.147 5.366,-2.357 5.375,-2.493Z"/><path fill="#7f3e98" fill-rule="nonzero" d="M130.395,18.069c3.02,-13.653 -5.725,-17.08 -6.959,-17.114c-0.587,-0.016 -0.49,0.21 -0.49,0.21c7.124,3.996 4.829,13.489 4.146,15.396c0.635,-0.442 2.975,0.214 3.303,1.508Zm-0.336,1.338c0.11,-0.261 0.164,-0.423 0.183,-0.755c-0.463,-1.354 -2.435,-2.007 -3.29,-1.725c-0.007,0.012 -0.085,0.077 -0.092,0.084c-0.2,0.187 -0.35,0.46 -0.332,0.758c0.257,1.342 3.057,2.765 3.531,1.638Zm-2.044,-0.472c-0.777,-0.462 -1.264,-1.074 -1.089,-1.366c0.173,-0.291 0.945,-0.154 1.721,0.307c0.775,0.461 1.263,1.075 1.088,1.368c-0.174,0.291 -0.944,0.154 -1.72,-0.309Z"/><path fill="#7f3e98" fill-rule="nonzero" d="M98.248,53.492c0,0 -3.504,1.792 -3.529,1.868c0,0 2.109,4.125 2.219,4.166c-0.023,0 -4.267,0.027 -4.317,0.111c0,0 0.81,1.585 0.914,1.626c-0.055,0 -4.167,0.006 -4.218,0.088c0,0 0.801,1.566 0.903,1.605c-0.019,0.001 -4.393,0.147 -4.393,0.147l-0.09,0.003l0.042,0.081c0,0 2.966,5.71 3.042,5.734c0,0 13.727,-7.014 13.753,-7.09c0,-0.001 -4.25,-8.314 -4.326,-8.339Zm-9.804,13.084c-0.077,-0.026 -0.655,-1.155 -0.655,-1.155c0.025,-0.077 1.4,-0.778 1.4,-0.778l0.05,-0.026l0.603,1.179c-0.025,0.077 -1.398,0.78 -1.398,0.78Zm2.253,-1.154c-0.076,-0.024 -0.653,-1.153 -0.653,-1.153c0.025,-0.077 1.401,-0.778 1.401,-0.778c0.076,0.024 0.652,1.152 0.652,1.152l0.027,0.052l-1.427,0.727Zm2.258,-1.153c-0.078,-0.024 -0.655,-1.152 -0.655,-1.152c0.025,-0.077 1.4,-0.781 1.4,-0.781c0.077,0.026 0.654,1.155 0.654,1.155l0.025,0.05l-1.424,0.728Zm2.255,-1.152c-0.077,-0.025 -0.654,-1.154 -0.654,-1.154c0.026,-0.077 1.401,-0.778 1.401,-0.778c0.076,0.025 0.652,1.153 0.652,1.153l0.026,0.051l-1.425,0.728Zm0.429,-7.44c0.025,-0.076 2.259,-1.219 2.259,-1.219l0.051,-0.026l0.46,0.904c-0.025,0.077 -2.259,1.219 -2.259,1.219c-0.077,-0.025 -0.511,-0.878 -0.511,-0.878Zm1.288,2.422c-0.077,-0.024 -0.511,-0.879 -0.511,-0.879c0.024,-0.076 2.259,-1.217 2.259,-1.217l0.052,-0.026l0.458,0.901c-0.025,0.078 -2.258,1.221 -2.258,1.221Zm0.276,0.685c0.024,-0.077 2.26,-1.219 2.26,-1.219c0.076,0.024 0.508,0.878 0.508,0.878l0.027,0.05l-2.287,1.168c-0.076,-0.027 -0.508,-0.877 -0.508,-0.877Z"/><path fill="#7f3e98" fill-rule="nonzero" d="M83.164,60.754c-0.074,-0.103 -0.113,-0.235 -0.133,-0.375c-0.435,0.084 -0.89,-0.142 -1.125,-0.485c-0.206,-0.348 -0.215,-0.88 0.011,-1.263c0.302,-0.489 0.775,-0.716 1.256,-0.923c0.314,-0.114 0.633,-0.226 0.955,-0.332l-0.033,-0.144c-0.761,0.022 -1.589,0.354 -2.281,-0.119c-0.457,-0.291 -0.716,-0.707 -0.814,-1.199c-0.031,-0.398 0.187,-0.833 0.549,-1.009c0.103,-0.073 0.233,-0.112 0.373,-0.131c-0.085,-0.435 0.143,-0.891 0.485,-1.124c0.348,-0.208 0.882,-0.218 1.265,0.011c0.488,0.3 0.715,0.774 0.921,1.254c0.215,0.59 0.428,1.193 0.584,1.804l0.027,0.044c-0.037,-0.276 -0.1,-0.578 -0.131,-0.876c-0.008,-0.772 -0.366,-1.624 0.116,-2.331c0.292,-0.457 0.706,-0.72 1.2,-0.813c0.398,-0.032 0.833,0.185 1.007,0.547c0.075,0.105 0.113,0.235 0.131,0.374c0.435,-0.085 0.891,0.144 1.126,0.486c0.208,0.348 0.217,0.881 -0.011,1.265c-0.231,0.372 -0.562,0.594 -0.92,0.77c0.676,-0.197 1.287,-0.391 1.679,-0.544c0.476,-0.188 2.166,-0.699 2.6,-0.959c0.031,0 0.061,-0.002 0.076,0.03c0.023,0.354 0.18,0.676 0.334,0.975c0.007,0.051 -0.012,0.079 -0.058,0.098l-2.423,0.38l-1.627,0.208c-0.388,0.058 -1.122,0.23 -1.879,0.421c0.011,-0.002 0.022,-0.003 0.033,-0.005c0.776,-0.005 1.625,-0.366 2.332,0.117c0.457,0.292 0.718,0.708 0.814,1.202c0.031,0.395 -0.187,0.831 -0.549,1.004c-0.099,0.076 -0.233,0.111 -0.373,0.136c0.083,0.435 -0.143,0.886 -0.484,1.122c-0.349,0.209 -0.881,0.216 -1.265,-0.009c-0.488,-0.303 -0.716,-0.778 -0.922,-1.257c-0.213,-0.591 -0.461,-1.149 -0.615,-1.764l-0.036,-0.061c0.034,0.279 0.096,0.583 0.128,0.879c0.009,0.774 0.367,1.623 -0.116,2.33c-0.289,0.455 -0.705,0.718 -1.203,0.814c-0.394,0.031 -0.831,-0.185 -1.004,-0.548Z"/><path fill="#7f3e98" fill-rule="nonzero" d="M109.438,29.86c-1.035,-0.299 -2.732,-1.017 -4.444,-1.711c-0.161,1.318 -0.24,2.52 -0.401,3.854l-2.647,-0.537c0.311,-1.17 0.721,-2.384 1.053,-3.568c0.064,-0.032 0.023,-0.102 0.034,-0.156c-0.987,-0.087 -1.938,-0.138 -2.909,-0.251l0.535,-2.632l0.037,-0.012c0.918,0.318 1.822,0.63 2.715,0.943l0.043,-0.031c0.131,-1.275 0.28,-2.554 0.423,-3.875l2.631,0.537c-0.398,1.29 -0.746,2.527 -1.106,3.768c1.541,0.18 2.355,0.459 3.917,0.643c-0.191,0.711 -0.145,2.337 0.119,3.028Z"/><path fill="#7f3e98" fill-rule="nonzero" d="M118.44,71.526c-0.481,-0.52 -0.92,-0.833 -1.834,-1.218c-0.58,-0.243 -1.469,-0.393 -1.47,-0.48c-0.389,0.025 -0.57,-0.005 -0.851,0.179c-0.27,0.174 -0.703,0.237 -0.685,0.668c0.003,0.126 0.297,0.282 0.336,0.383c0.136,0.361 0.122,0.599 0.048,0.979c-0.096,0.509 -0.322,0.728 -0.6,0.965c-0.1,0.084 -0.292,-0.003 -0.399,0.074c-0.1,0.084 0.002,0.288 -0.122,0.37c-0.143,0.098 -0.586,-0.157 -0.667,-0.221c-0.312,0.939 -0.67,2.434 -2.171,1.474c-0.799,-0.509 -0.086,-1.175 0.007,-1.987c0.022,-0.132 -0.137,-0.274 -0.353,-0.595c-0.136,0.41 -0.323,0.443 -0.631,0.752c-0.311,0.316 -1.225,-0.466 -1.467,-0.906c-0.234,-0.407 0.099,-0.657 0.094,-1.128c0,-0.242 -0.25,-0.2 -0.415,-0.409c-0.16,-0.2 -0.016,-0.344 -0.005,-0.559c-0.174,0.066 -0.468,0.241 -0.442,0.206c-0.094,0.107 -0.005,0.255 -0.181,0.278c-0.661,0.095 -1.061,-0.273 -1.386,-0.594c-0.438,-0.431 -0.016,-0.973 -0.095,-1.681c-0.018,-0.147 -0.296,-0.37 -0.4,-0.478c-0.079,0.172 -0.205,0.504 -0.46,0.257c-0.22,-0.197 -0.152,-0.49 -0.212,-0.752c-0.065,-0.271 -0.332,-0.595 -0.363,-0.877c-0.022,-0.241 0.24,-0.456 0.227,-0.68c-0.019,-0.277 -0.613,-0.431 -0.506,-0.712c0.355,-0.865 1.305,-0.659 1.922,-1.011c0.245,-0.139 0.195,-0.369 0.391,-0.627c0.187,-0.253 0.425,-0.24 0.621,-0.477c0.263,-0.308 0.559,-0.468 0.876,-0.12c0.25,-0.753 0.531,-1.488 1.096,-1.624c0.263,-0.06 0.471,0.09 0.803,0.128c0.344,0.048 0.886,-0.037 0.877,0.43c0.372,-0.347 0.467,-0.806 1.185,-0.494c0.162,-0.336 0.258,-0.604 0.67,-0.607c0.24,0.007 0.883,0.168 1.112,0.302c0.421,0.259 0.106,1.027 0.197,1.372c0.234,-0.135 0.919,0.328 1.028,0.548c0.319,-0.137 0.309,-0.419 0.606,-0.695c0.143,-0.143 0.372,-0.104 0.539,-0.231c0.078,-0.055 0.022,-0.287 0.275,-0.255c0.961,0.158 0.804,1.067 0.529,1.483c0.315,0.2 0.511,0.426 0.502,0.717c-0.011,0.518 -0.547,0.677 -0.489,1.209c0.035,0.269 0.28,0.438 0.298,0.782c0.027,0.823 -0.517,0.981 -0.765,1.463c-0.257,0.488 -0.118,0.708 -0.312,1.29c1.061,0.39 1.687,0.913 2.989,1.038c0.233,0.025 0.709,-0.125 0.854,-0.208l-0.801,2.279Z"/><path fill="#7f3e98" fill-rule="nonzero" d="M88.39,30.996c0.165,-0.488 0.465,-0.961 0.818,-1.381c0.571,-0.487 1.153,-0.966 1.777,-1.37c0.853,-0.543 1.559,-1.574 2.737,-1.335c-0.094,-0.118 -0.2,-0.232 -0.242,-0.374c-0.021,-0.181 -0.223,-0.031 -0.335,-0.061c-0.378,0 -0.812,0.055 -1.06,-0.293c-0.066,-0.095 -0.016,-0.208 0.016,-0.301c0.215,-0.286 0.545,-0.367 0.89,-0.423c-0.009,-0.188 -0.061,-0.388 -0.004,-0.561c0.022,-0.164 0.177,-0.337 0.326,-0.399c0.227,-0.057 0.439,0.055 0.572,0.234c0.194,0.298 0.239,0.75 0.081,1.069c0.143,0.033 0.293,0.036 0.431,0.081c-0.123,-0.296 -0.143,-0.672 -0.066,-0.969c0.396,-0.918 0.89,-1.777 1.283,-2.696c0.416,-0.803 0.906,-1.728 1.691,-2.23c0.26,-0.097 0.563,-0.086 0.788,0.086c0.216,0.201 0.168,0.553 0.093,0.799c-0.234,0.575 -0.454,1.16 -0.578,1.764c-0.081,0.488 -0.284,0.936 -0.328,1.432c0.017,0.077 0.09,0.014 0.119,-0.018c0.217,-0.332 0.365,-0.687 0.524,-1.038c0.305,-0.544 0.639,-1.247 1.224,-1.525c0.249,-0.089 0.524,-0.066 0.736,0.089c0.214,0.156 0.248,0.433 0.264,0.688c-0.05,0.632 -0.272,1.22 -0.526,1.802c-0.464,1.036 -1.085,2.183 -2.049,2.872c-0.428,0.31 -1.092,0.458 -1.604,0.283c0.07,0.109 0.129,0.227 0.154,0.364c0.161,0.373 0.624,0.46 0.925,0.733c0.479,0.385 0.946,0.774 1.411,1.136c0.865,0.771 1.859,1.369 2.664,2.181c0.065,0.064 0.087,0.157 0.087,0.252c-0.01,0.114 -0.069,0.255 -0.186,0.301c-0.128,0.049 -0.254,0.003 -0.374,-0.039c-0.452,-0.315 -0.871,-0.672 -1.307,-1.011l-1.487,-1.173c-0.634,-0.528 -1.409,-0.971 -1.891,-1.623c-0.193,-0.18 -0.465,-0.132 -0.672,-0.277c0.145,0.245 0.185,0.557 0.186,0.857c-0.103,1.178 -1.057,2.275 -1.993,2.953c-0.749,0.436 -1.497,0.865 -2.313,1.19c-0.304,0.093 -0.731,0.325 -0.999,0.003c-0.205,-0.329 0.014,-0.691 0.197,-0.989c0.54,-0.689 1.147,-1.307 1.795,-1.833c0.098,-0.106 0.224,-0.212 0.267,-0.351c-0.023,-0.017 -0.044,-0.032 -0.072,-0.019l-1.795,0.857c-0.366,0.206 -0.757,0.377 -1.088,0.642c-0.264,0.12 -0.592,0.366 -0.895,0.178c-0.122,-0.09 -0.176,-0.215 -0.209,-0.353l0.017,-0.204Zm5.796,-3.29c0.15,-0.066 0.341,-0.108 0.502,-0.058c-0.09,-0.112 -0.114,-0.276 -0.201,-0.393c-0.154,0.003 -0.296,-0.041 -0.443,-0.091c0.083,0.161 0.139,0.348 0.142,0.542Zm0.791,-1.03c0.183,0.009 0.345,0.098 0.517,0.144c-0.105,-0.159 -0.138,-0.41 -0.08,-0.589c-0.171,0.017 -0.395,0.043 -0.582,0.009c0.058,0.13 0.139,0.264 0.145,0.436Z"/><path fill="#7f3e98" fill-rule="nonzero" d="M115.14,34.903c0.413,-0.038 1.267,-0.392 1.405,-0.581l0.11,-0.159l-0.11,-0.134c-0.149,-0.185 -1.124,-0.388 -1.52,-0.35c-0.621,0.057 -0.875,0.39 -0.848,0.695c0.029,0.303 0.337,0.584 0.963,0.529Zm-1.252,-0.827c0.303,-0.286 0.757,-1.092 0.748,-1.328l-0.014,-0.188l-0.167,-0.04c-0.23,-0.054 -1.122,0.39 -1.411,0.664c-0.451,0.429 -0.446,0.846 -0.237,1.071c0.211,0.218 0.627,0.247 1.081,-0.179Zm-1.087,-1.175l-0.013,-0.189l-0.167,-0.038c-0.228,-0.052 -1.119,0.389 -1.41,0.662c-0.236,0.225 -0.37,0.472 -0.375,0.699l0.139,0.373c0.211,0.221 0.627,0.251 1.079,-0.179c0.303,-0.285 0.757,-1.092 0.747,-1.328Zm-1.732,0.149l-0.013,-0.194l-0.171,-0.036c-0.23,-0.049 -1.118,0.391 -1.406,0.663c-0.456,0.43 -0.449,0.848 -0.238,1.073c0.205,0.213 0.631,0.247 1.082,-0.18c0.301,-0.285 0.754,-1.09 0.746,-1.326Zm-1.69,0.141l-0.012,-0.19l-0.169,-0.038c-0.231,-0.052 -1.121,0.391 -1.408,0.663c-0.454,0.428 -0.449,0.846 -0.24,1.072c0.211,0.22 0.627,0.252 1.084,-0.179c0.302,-0.286 0.755,-1.093 0.745,-1.328Zm-1.726,0.127l-0.013,-0.193l-0.17,-0.036c-0.23,-0.049 -1.118,0.392 -1.407,0.663c-0.454,0.432 -0.446,0.849 -0.236,1.072c0.204,0.214 0.628,0.25 1.081,-0.179c0.302,-0.286 0.756,-1.092 0.745,-1.327Zm5.564,2.398c0.33,0.219 1.282,0.507 1.499,0.419l0.165,-0.085l-0.023,-0.173c-0.031,-0.234 -0.614,-0.953 -0.958,-1.181c-0.517,-0.347 -0.931,-0.241 -1.099,0.006c-0.166,0.253 -0.102,0.664 0.416,1.014Zm-1.835,0.132c0.329,0.22 1.281,0.508 1.5,0.419l0.164,-0.085l-0.023,-0.173c-0.032,-0.234 -0.613,-0.952 -0.958,-1.182c-0.521,-0.346 -0.926,-0.248 -1.099,0.006c-0.167,0.255 -0.102,0.668 0.416,1.015Zm-1.733,0.127c0.33,0.221 1.281,0.507 1.498,0.415l0.162,-0.083l-0.021,-0.171c-0.03,-0.233 -0.612,-0.952 -0.957,-1.182c-0.268,-0.181 -0.538,-0.256 -0.761,-0.212c0,0 -0.337,0.217 -0.338,0.218c-0.167,0.254 -0.103,0.667 0.417,1.015Zm-1.691,0.125c0.329,0.22 1.28,0.506 1.499,0.415l0.162,-0.084l-0.022,-0.171c-0.03,-0.233 -0.611,-0.95 -0.957,-1.182c-0.52,-0.348 -0.927,-0.248 -1.099,0.006c-0.167,0.253 -0.102,0.664 0.417,1.016Zm-0.227,0.566l0.167,-0.082l-0.023,-0.174c-0.03,-0.233 -0.612,-0.953 -0.958,-1.185c-0.521,-0.347 -0.926,-0.247 -1.1,0.007c-0.166,0.254 -0.103,0.667 0.416,1.014c0.325,0.218 1.275,0.506 1.498,0.42Z"/><path fill="#7f3e98" fill-rule="nonzero" d="M105.441,35.412l-0.041,-0.679l-9.195,0.548l0.04,0.677l9.196,-0.546Z"/><path fill="#7f3e98" fill-rule="nonzero" d="M98.651,38.696l0.128,-0.665l-2.641,-0.511l-0.129,0.665l2.642,0.511Z"/><path fill="#7f3e98" fill-rule="nonzero" d="M108.157,40.797c0.379,0.063 1.314,-0.043 1.508,-0.202l0.144,-0.124l-0.07,-0.157c-0.096,-0.216 -0.986,-0.664 -1.378,-0.73c-0.619,-0.104 -0.947,0.153 -0.999,0.454c-0.051,0.299 0.175,0.651 0.795,0.759Zm-0.997,-1.123c0.367,-0.197 1.012,-0.86 1.064,-1.091l0.034,-0.181l-0.146,-0.081c-0.205,-0.114 -1.184,0.082 -1.538,0.273c-0.547,0.3 -0.649,0.703 -0.505,0.973c0.145,0.267 0.54,0.404 1.091,0.107Zm-0.713,-1.602l-0.153,-0.08c-0.207,-0.109 -1.18,0.09 -1.53,0.278c-0.286,0.154 -0.478,0.36 -0.543,0.577c0,0 0.037,0.398 0.037,0.399c0.147,0.266 0.542,0.401 1.091,0.104c0.365,-0.197 1.011,-0.86 1.062,-1.091l0.036,-0.187Zm-1.709,-0.305l-0.157,-0.08c-0.204,-0.105 -1.189,0.096 -1.529,0.277c-0.552,0.302 -0.651,0.707 -0.505,0.978c0.147,0.265 0.541,0.401 1.09,0.103c0.363,-0.195 1.009,-0.855 1.063,-1.088l0.038,-0.19Zm-1.671,-0.294l-0.15,-0.081c-0.209,-0.111 -1.186,0.086 -1.534,0.276c-0.55,0.296 -0.652,0.702 -0.507,0.974c0.146,0.268 0.54,0.405 1.091,0.107c0.366,-0.199 1.011,-0.86 1.064,-1.089l0.036,-0.187Zm-1.698,-0.324l-0.154,-0.08c-0.206,-0.11 -1.18,0.088 -1.533,0.276c-0.55,0.301 -0.65,0.706 -0.506,0.976c0.148,0.267 0.543,0.403 1.094,0.104c0.362,-0.196 1.006,-0.857 1.06,-1.088l0.039,-0.188Zm4.72,3.938c0.263,0.297 1.109,0.821 1.342,0.791l0.182,-0.04l0.02,-0.175c0.027,-0.238 -0.35,-1.079 -0.621,-1.385c-0.41,-0.468 -0.827,-0.48 -1.063,-0.279c-0.227,0.202 -0.271,0.616 0.14,1.088Zm-1.808,-0.345c0.263,0.298 1.11,0.822 1.343,0.79l0.178,-0.04l0.023,-0.17c0.031,-0.235 -0.345,-1.079 -0.619,-1.391c-0.413,-0.469 -0.831,-0.478 -1.064,-0.277c-0.228,0.203 -0.273,0.618 0.139,1.088Zm-1.706,-0.325c0.254,0.29 1.111,0.818 1.34,0.789l0.179,-0.039l0.023,-0.17c0.032,-0.234 -0.346,-1.08 -0.621,-1.391c-0.411,-0.469 -0.838,-0.474 -1.064,-0.276c-0.225,0.203 -0.268,0.618 0.143,1.087Zm-1.667,-0.316c0.259,0.296 1.104,0.819 1.34,0.789l0.181,-0.039l0.022,-0.174c0.029,-0.234 -0.348,-1.075 -0.621,-1.386c-0.412,-0.47 -0.83,-0.479 -1.063,-0.278c-0.227,0.202 -0.271,0.617 0.141,1.088Zm-0.367,0.489l0.184,-0.035l0.023,-0.176c0.031,-0.234 -0.347,-1.079 -0.621,-1.392c-0.412,-0.467 -0.83,-0.476 -1.064,-0.276c-0.226,0.202 -0.27,0.616 0.141,1.088c0.281,0.32 1.118,0.815 1.337,0.791Z"/><path fill="#7f3e98" fill-rule="nonzero" d="M127.473,31.415l0.568,2.651c0,0 -1.346,-2.485 -2.93,-2.11c-1.441,0.34 -2.556,0.618 -3.49,1.061c-1.083,0.516 -1.087,1.03 -1.087,1.03c-0.053,0.082 -0.098,0.188 -0.138,0.304c-0.408,-0.076 -0.979,-0.136 -1.476,0.204c-0.71,0.488 -1.323,0.885 -1.763,1.572c-0.442,0.689 -1.136,1.536 -1.646,2.226c-0.317,0.432 -0.838,1.662 -0.838,1.662c-0.259,0.406 -0.569,0.831 -0.88,1.068c-0.086,0.066 -0.115,0.029 -0.193,0.042c-0.054,0.012 -0.114,0.032 -0.175,0.056l0.001,-0.001c0,0 -0.089,-0.183 -0.403,-0.034c-0.315,0.15 -0.583,0.307 -0.696,0.359c-0.113,0.055 -0.042,-0.318 -0.33,-0.18c-0.291,0.138 -0.73,0.753 -0.809,0.724c-0.079,-0.028 -0.088,-0.184 -0.543,0.303c-0.122,0.13 -0.196,0.326 -0.245,0.542c-0.13,0.183 -0.086,0.15 -0.097,0.562c-0.01,0.335 -0.296,0.732 -0.254,0.928c0.039,0.195 0.22,0.363 0.245,0.493c0.028,0.131 -0.139,0.225 0.244,0.464c0.384,0.241 0.394,0.285 0.64,0.442c0.248,0.154 0.298,-0.112 0.395,-0.051c0.096,0.058 0.124,0.384 0.372,0.308c0.158,-0.047 0.213,0.363 0.461,0.587c0.171,0.157 0.329,0.282 0.543,-0.028c0.031,-0.044 0.117,0.024 0.167,-0.021c0.09,-0.082 0.125,-0.132 0.143,-0.167c-0.003,-0.212 -0.013,-0.426 -0.032,-0.571c-0.032,-0.063 -0.102,-0.218 -0.051,-0.289c0.063,-0.094 0.865,-0.337 0.894,-0.198c0.003,0.016 -0.004,0.029 -0.01,0.042l0.213,0.376c0.079,0.029 0.087,0.186 0.147,0.101c0.073,-0.108 0.197,-0.207 0.356,-0.19c0.366,0.037 0.446,-0.259 0.446,-0.259c0.031,-0.056 -0.013,-0.557 -0.036,-0.666c-0.023,-0.109 0.326,-0.246 0.446,-0.342c0.114,-0.088 0.333,-0.441 0.468,-0.472c0.135,-0.032 0.505,-0.152 0.561,-0.24c0.058,-0.091 0.208,-0.125 0.208,-0.125l0.429,0.869c0,0 1.209,-0.407 1.99,-0.864c0.78,-0.457 1.962,-1.225 1.962,-1.225c0,0 0.409,0.223 0.635,0.169c0.061,-0.014 0.111,-0.021 0.153,-0.022c0.136,0.167 0.283,0.313 0.443,0.426c0.948,0.668 2.224,0.589 4.299,0.067c2.071,-0.52 2.279,-2.275 2.681,-3.488l0.747,2.905l1.871,0.298c-0.985,-4.204 -2.021,-8.671 -2.211,-14.027c0,0 -1.187,2.127 -2.395,2.729Zm-7.131,7.5c0.151,0.083 0.245,0.155 0.309,0.204c0.106,0.41 0.224,0.84 0.36,1.265c-0.015,0 -0.033,0.003 -0.051,0.008c-0.121,0.028 -0.951,0.164 -1.131,0.208c-0.182,0.041 -0.821,-0.018 -0.821,-0.018c0,0 0.044,-1.235 0.268,-1.584c0.224,-0.348 0.438,-0.741 0.472,-0.795c0.034,-0.054 0.223,0.496 0.594,0.712Z"/><path fill="#7f3e98" fill-rule="nonzero" d="M91.044,44.914c0.029,0.29 0.288,0.502 0.577,0.473c0.29,-0.028 0.501,-0.287 0.473,-0.577c-0.028,-0.291 -0.288,-0.504 -0.577,-0.475c-0.291,0.03 -0.503,0.288 -0.473,0.579Z"/><path fill="#7f3e98" fill-rule="nonzero" d="M89.233,50.403c0.029,0.29 0.288,0.503 0.578,0.472c0.29,-0.028 0.502,-0.287 0.473,-0.577c-0.028,-0.29 -0.287,-0.503 -0.577,-0.473c-0.291,0.028 -0.503,0.287 -0.474,0.578Z"/><path fill="#7f3e98" fill-rule="nonzero" d="M94.501,51.906c1.156,0.188 6.018,0.274 7.655,-0.04c1.637,-0.316 3.18,-0.811 3.18,-0.811c0,0 -0.407,-1.89 0.415,-2.694c0.345,-0.337 -0.236,-0.47 -0.769,-0.492c-0.086,-0.004 -0.239,-0.003 -0.416,0c-0.682,-0.039 -1.599,-0.006 -2.704,0.209c-0.341,0.05 -0.647,0.111 -0.859,0.186c-0.124,0.042 -0.274,0.099 -0.44,0.163l-1.244,0.46c-0.452,0.199 -0.905,0.366 -1.358,0.534c-0.55,0.195 -1.088,0.369 -1.538,0.475c-1.36,0.318 -2.475,0.704 -4.203,0.834c-0.507,0.037 -0.581,-0.017 -0.589,-0.021c0.002,0.005 0.269,0.566 0.46,0.654c0.687,0.314 1.688,0.427 2.41,0.543Zm12.545,-3.707l0.009,1.819l1.03,-0.145l-0.395,-1.776l-0.328,-0.313c0,0 -0.022,-0.606 -0.456,-1.546c-0.351,-0.762 -0.945,-1.58 -2.158,-1.873c-1.215,-0.291 -1.572,-0.135 -2.164,-0.001c-0.398,0.091 -0.901,0.459 -0.901,0.459c0,0 -1.271,-1.879 -2.586,-2.361c-1.512,-0.552 -2.987,-0.478 -4.431,0.062c-1.791,0.67 -2.737,1.827 -2.737,1.827c0,0 -0.064,0.176 0.096,0.2c0.482,0.077 1.706,0.19 2.55,1.243c0.316,0.395 0.458,0.789 0.458,0.789c0,0 -2.206,-0.316 -3.474,0.155c-1.343,0.502 -2.024,1.378 -1.82,3.063c0.044,0.347 0.558,-1.267 1.916,-0.569c0.794,0.408 0.736,0.578 0.888,1.107c1.429,-0.284 4.369,-1.331 4.601,-1.419c0.004,-0.023 0.263,-1.114 -0.146,-2.297c-0.376,-1.084 -1.206,-1.891 -2.546,-2.637c0,0 2.676,-0.953 4.657,0.575c1.651,1.273 2.097,2.925 2.123,3.306c0,0.002 -0.023,-0.268 -0.024,-0.267c1.631,-0.562 3.155,-0.268 4.039,-0.165c0.112,-0.282 0.327,-0.6 0.734,-0.575c0.724,0.041 1.26,0.838 1.271,0.951l-0.206,0.388Z"/><path fill="#7f3e98" fill-rule="nonzero" d="M93.613,70.408c0.789,0.015 3.006,-0.146 4.551,-2.892l1.684,-0.846c-1.057,2.628 -2.969,4.814 -6.253,4.681c-1.071,-0.043 -1.469,1.194 -1.635,2.047l-0.667,-0.952c0.152,-0.777 0.407,-2.075 2.32,-2.038Z"/><path fill="#7f3e98" fill-rule="nonzero" d="M92.404,68.876c1.298,-0.099 2.363,0.29 3.287,-1.381l1.657,-0.809c-0.852,2.246 -2.147,3.292 -4.961,3.133c-1.073,-0.06 -1.563,0.955 -1.733,2.096l-0.571,-1.001c0.152,-0.775 0.413,-1.891 2.321,-2.038Z"/><path fill="#7f3e98" fill-rule="nonzero" d="M115.976,92.64c0.64,-1.928 2.722,-2.972 4.651,-2.332c1.928,0.641 2.972,2.724 2.333,4.65c-0.642,1.931 -2.723,2.974 -4.652,2.333c-1.929,-0.639 -2.973,-2.721 -2.332,-4.651Zm2.554,3.982c1.559,0.516 3.242,-0.327 3.76,-1.885c0.518,-1.559 -0.327,-3.241 -1.886,-3.759c-1.557,-0.518 -3.24,0.326 -3.757,1.885c-0.518,1.558 0.326,3.241 1.883,3.759Z"/><path fill="#7f3e98" fill-rule="nonzero" d="M122.346,85.542c0.639,-1.927 2.722,-2.972 4.651,-2.331c1.929,0.641 2.973,2.723 2.333,4.651c-0.641,1.929 -2.723,2.971 -4.651,2.332c-1.929,-0.641 -2.973,-2.723 -2.333,-4.652Zm2.555,3.981c1.559,0.518 3.242,-0.325 3.759,-1.884c0.518,-1.558 -0.326,-3.242 -1.885,-3.76c-1.557,-0.516 -3.24,0.328 -3.758,1.886c-0.517,1.559 0.327,3.241 1.884,3.758Z"/><path fill="#7f3e98" fill-rule="nonzero" d="M119.255,94.443c0.355,0.117 0.74,-0.073 0.857,-0.429c0.118,-0.355 -0.075,-0.741 -0.429,-0.857c-0.357,-0.119 -0.74,0.074 -0.858,0.429c-0.117,0.355 0.074,0.739 0.43,0.857Z"/><path fill="#7f3e98" fill-rule="nonzero" d="M125.625,87.345c0.356,0.119 0.739,-0.073 0.856,-0.43c0.119,-0.355 -0.073,-0.738 -0.429,-0.856c-0.355,-0.118 -0.738,0.074 -0.857,0.429c-0.118,0.356 0.075,0.739 0.43,0.857Z"/><path fill="#7f3e98" fill-rule="nonzero" d="M115.25,9.25l-0.75,0.081c-0.509,0.799 -0.814,1.74 -0.831,2.755c-0.018,0.995 0.244,1.926 0.706,2.731c1.561,-0.135 5.495,-0.855 6.884,-4.635c-1.862,-1.451 -4.291,-1.148 -6.009,-0.932Zm6.199,0.331c0.16,-0.588 0.262,-1.238 0.293,-1.963c-0.777,-0.47 -1.681,-0.749 -2.654,-0.768c-1.644,-0.028 -3.125,0.691 -4.121,1.843l0.21,-0.024c1.686,-0.212 4.249,-0.532 6.272,0.912Zm-6.714,5.788c0.371,0.494 0.829,0.92 1.346,1.26c1.538,-0.132 5.317,-0.83 6.779,-4.386c-0.323,-0.673 -0.704,-1.21 -1.125,-1.638c-1.459,3.676 -5.194,4.556 -7,4.764Zm8.39,-3.892c0.185,-0.651 0.298,-1.388 0.32,-2.214c-0.312,-0.474 -0.696,-0.9 -1.14,-1.254c-0.053,0.728 -0.175,1.386 -0.354,1.978c0.43,0.393 0.825,0.886 1.174,1.49Zm-4.222,6.027c2.04,0.035 3.83,-1.084 4.755,-2.75c-0.128,-0.66 -0.292,-1.24 -0.484,-1.758c-1.445,2.877 -4.375,3.809 -6.189,4.109c0.592,0.243 1.238,0.386 1.918,0.399Zm4.601,-5.269c0.211,0.478 0.399,1.011 0.551,1.613c0.166,-0.497 0.259,-1.026 0.267,-1.579c0.013,-0.706 -0.119,-1.377 -0.359,-1.996c-0.087,0.726 -0.246,1.377 -0.459,1.962Z"/><path fill="#7f3e98" fill-rule="nonzero" d="M114.229,79.119c-1.278,0.673 -1.605,1.584 -0.102,3.243l0.163,0.605l1.446,-1.219l-0.392,-0.986l-0.69,-0.487l-0.425,-1.156Z"/><path fill="#7f3e98" fill-rule="nonzero" d="M114.702,82.644l0.824,3.997c0,0 0.054,0.189 0.137,0.585c0.104,0.491 0.321,1.01 0.987,1.244c0,0 -0.46,0.38 -0.722,0.553c0,0 0.018,0.587 1.296,0.468l0.665,-0.704l1.192,4.822l0.281,-0.311l-0.898,-4.939l1.21,0.322l0.685,1.827l0.973,0.292c0,0 0.507,-0.243 0.234,-1.095l-0.206,-0.575l3.14,0.828l0.526,-0.264c0.143,-0.369 0.099,-0.715 -0.58,-0.937l-3.598,-1.174l-0.349,-1.058l1.424,-1.622c0.774,0.807 2.277,1.911 3.363,2.106l0.067,-0.478c-0.768,-0.361 -1.581,-0.382 -3.219,-2.52l-0.394,-1.5c-0.07,-0.269 -0.253,-0.85 -0.729,-0.41l-0.777,0.859c0.215,0.109 0.24,0.455 0.115,0.753l0.85,-0.959l0.407,1.838l-1.272,1.524c-0.275,-0.256 -0.449,-0.184 -0.697,-0.151l-1.561,0.246c-0.482,-0.222 -0.911,-0.427 -0.883,-1.232c0,0 1.994,-0.701 2.412,-0.814c0.633,-0.169 0.715,-1.178 -0.401,-0.947l-1.819,0.533c0.083,-0.588 -0.173,-0.936 -1.026,-0.985l-1.657,-0.122Z"/><path fill="#7f3e98" fill-rule="nonzero" d="M131.85,72.234c0,0 0.464,-0.349 0.473,-0.442c0,0 -0.353,-0.405 -0.471,-0.543c0.552,-0.047 2.756,-0.248 2.808,-0.308c0,0 -0.246,-2.725 -0.547,-6.021l-2.443,0.218c-1.002,0.09 -1.883,-0.648 -1.973,-1.647l-0.108,-1.207c-0.088,-0.999 0.649,-1.882 1.649,-1.972l2.432,-0.217c-0.329,-3.552 -0.621,-6.612 -0.65,-6.637c0,0 -2.485,0.249 -2.733,0.273c0.106,-0.152 0.348,-0.503 0.347,-0.565c0,0 -0.382,-0.491 -0.504,-0.532c-0.005,-0.001 -0.01,-0.002 -0.014,-0.002c0,0 -2.231,3.09 -2.232,3.094l-0.234,0.219l1.172,13.367c0.263,0.179 0.416,0.281 0.415,0.28c0,0 2.529,2.636 2.613,2.642Zm-1.135,-15.232l-0.028,-0.314c-0.023,-0.262 0.169,-0.491 0.431,-0.516l0.983,-0.077l0.113,1.26l-0.983,0.079c-0.262,0.023 -0.492,-0.171 -0.516,-0.432Zm0.758,11.53l-0.028,-0.316c-0.023,-0.26 0.169,-0.491 0.431,-0.513l0.983,-0.079l0.113,1.26l-0.983,0.078c-0.262,0.023 -0.492,-0.17 -0.516,-0.43Zm-3.41,0.27l-1.08,-12.233l-7.092,6.636l-0.059,0.054l0.067,0.045c0,0 5.655,3.81 8.164,5.498Z"/><path fill="#7f3e98" fill-rule="nonzero" d="M123.739,73.038c0.313,0.575 1.341,1.068 1.341,1.068l0.052,0.015c0,0 0.202,-1.151 -0.095,-1.759c0.627,0.183 1.703,-0.196 1.703,-0.196l0.045,-0.024c0,0 -0.674,-0.958 -1.313,-1.177c0.575,-0.312 1.067,-1.341 1.067,-1.341l0.014,-0.051c0,0 -1.151,-0.2 -1.759,0.097c0.185,-0.629 -0.195,-1.702 -0.195,-1.702l-0.026,-0.048c0,0 -0.954,0.674 -1.175,1.315c-0.311,-0.576 -1.341,-1.069 -1.341,-1.069l-0.05,-0.014c0,0 -0.201,1.151 0.096,1.759c-0.627,-0.184 -1.702,0.195 -1.702,0.195l-0.045,0.025c0,0 0.672,0.958 1.312,1.176c-0.575,0.312 -1.066,1.34 -1.066,1.34l-0.017,0.052c0,0 1.151,0.201 1.76,-0.097c-0.184,0.628 0.194,1.702 0.194,1.702l0.025,0.047c0,0 0.957,-0.674 1.175,-1.313Zm-0.526,-1.026c-0.475,-0.158 -0.733,-0.674 -0.576,-1.148c0.158,-0.476 0.673,-0.734 1.148,-0.575c0.476,0.158 0.735,0.671 0.577,1.147c-0.158,0.475 -0.673,0.733 -1.149,0.576Z"/><path fill="#7f3e98" fill-rule="nonzero" d="M117.954,77.998c0.156,0.636 1.023,1.374 1.023,1.374l0.046,0.029c0,0 0.49,-1.062 0.358,-1.726c0.559,0.339 1.696,0.247 1.696,0.247l0.05,-0.012c0,0 -0.406,-1.098 -0.968,-1.473c0.636,-0.156 1.374,-1.024 1.374,-1.024l0.028,-0.046c0,0 -1.062,-0.488 -1.726,-0.356c0.339,-0.559 0.246,-1.694 0.246,-1.694l-0.013,-0.054c0,0 -1.095,0.407 -1.471,0.97c-0.155,-0.636 -1.024,-1.375 -1.024,-1.375l-0.044,-0.026c0,0 -0.489,1.059 -0.357,1.724c-0.56,-0.338 -1.695,-0.247 -1.695,-0.247l-0.052,0.013c0,0 0.406,1.097 0.97,1.472c-0.637,0.156 -1.374,1.024 -1.374,1.024l-0.03,0.045c0,0 1.062,0.489 1.726,0.357c-0.339,0.559 -0.246,1.695 -0.246,1.695l0.01,0.051c0,0 1.098,-0.406 1.473,-0.968Zm-0.246,-1.127c-0.419,-0.274 -0.537,-0.838 -0.263,-1.257c0.274,-0.419 0.838,-0.537 1.257,-0.263c0.419,0.274 0.537,0.838 0.263,1.257c-0.274,0.419 -0.838,0.536 -1.257,0.263Z"/><path fill="#7f3e98" fill-rule="nonzero" d="M126.069,80.011c0.465,0.462 1.592,0.638 1.592,0.638l0.054,0c0,0 -0.137,-1.16 -0.598,-1.658c0.655,-0.004 1.576,-0.676 1.576,-0.676l0.036,-0.036c0,0 -0.92,-0.724 -1.596,-0.75c0.461,-0.466 0.637,-1.592 0.637,-1.592l-0.001,-0.053c0,0 -1.16,0.139 -1.658,0.599c-0.003,-0.655 -0.675,-1.573 -0.675,-1.573l-0.039,-0.039c0,0 -0.721,0.919 -0.746,1.595c-0.466,-0.46 -1.593,-0.636 -1.593,-0.636l-0.052,-0.001c0,0 0.138,1.161 0.598,1.658c-0.654,0.005 -1.575,0.676 -1.575,0.676l-0.036,0.039c0,0 0.919,0.722 1.595,0.747c-0.461,0.465 -0.635,1.591 -0.635,1.591l-0.002,0.053c0,0 1.161,-0.137 1.658,-0.598c0.004,0.654 0.675,1.574 0.675,1.574l0.036,0.039c0,0 0.724,-0.92 0.749,-1.597Zm-0.799,-0.832c-0.5,-0.014 -0.895,-0.432 -0.881,-0.933c0.016,-0.5 0.433,-0.895 0.934,-0.88c0.502,0.013 0.897,0.431 0.883,0.932c-0.016,0.502 -0.435,0.897 -0.936,0.881Z"/><path fill="#7f3e98" fill-rule="nonzero" d="M100.259,82.998c0.595,-0.741 3.432,-3.8 3.432,-3.8c0,0 3.474,-1.169 4.455,-1.539c0.982,-0.37 1.305,-1.024 0.606,-1.749c-0.57,-0.598 -2.709,-2.466 -3.454,-3.114l-1.159,0.791l0.988,1.445l0.88,-0.504l2.334,2.145l-3.065,1.031l-0.497,-0.725l-3.457,2.295l0.511,0.845l-2.378,2.462l-0.931,-3.202l0.791,-0.636l-2.281,-3.34l-0.896,0.482l-2.513,-2.312l3.154,-1.09l0.602,0.879l3.385,-2.216l-0.548,-0.85l2.209,-2.475l1.179,3.19l-0.838,0.572l1.018,1.488l1.152,-0.784c-0.327,-0.906 -1.332,-3.696 -1.602,-4.459c-0.323,-0.913 -0.817,-1.244 -1.656,-0.47c-0.84,0.772 -3.466,3.869 -3.466,3.869c0,0 -3.612,1.205 -4.788,1.611c-0.859,0.296 -0.737,1.227 -0.266,1.638c0.462,0.407 4.013,3.435 4.013,3.435c0,0 1.238,3.794 1.488,4.721c0.222,0.824 1.003,1.106 1.598,0.366Zm-3.332,-9.167l-0.358,-0.431l-1.656,0.454l1.298,1.24c0,0 0.286,-0.195 0.571,-0.389c0.287,-0.196 0.51,-0.154 0.845,0.293l2.187,3.211c0.314,0.464 0.259,0.983 -0.525,1.487l0.461,1.619l1.226,-1.225l-0.295,-0.572c-0.301,-0.535 -0.212,-0.596 0.197,-0.844l3.453,-2.259c0,0 0.671,-0.493 1.252,0.466l1.494,-0.504l-1.124,-0.941l-0.655,0.318c0,0 -0.463,0.269 -0.912,-0.44l-1.999,-2.921c-0.288,-0.417 -0.591,-0.823 -0.174,-1.205l0.557,-0.412l-0.53,-1.624l-1.105,1.261l0.353,0.563c0.224,0.329 0.079,0.649 -0.491,0.98l-3.146,2.05c-0.449,0.314 -0.541,0.247 -0.924,-0.175Z"/><path fill="#7f3e98" fill-rule="nonzero" d="M111.792,54.232c-0.018,0.052 -0.021,0.104 -0.037,0.157l5.76,-2.538c-0.167,-0.083 -0.332,-0.171 -0.514,-0.23c-2.16,-0.718 -4.493,0.451 -5.209,2.611Zm-8.361,4.472c0.091,-0.04 0.14,-0.291 0.046,-0.669l1.581,-0.695l2.769,-1.219l2.932,-1.292c0.042,-0.292 0.098,-0.585 0.195,-0.874c0.871,-2.625 3.705,-4.048 6.326,-3.178c0.454,0.151 0.856,0.378 1.231,0.635l0.418,-0.185c1.677,-0.751 1.24,-1.526 1.24,-1.526c0,0 -0.346,-0.938 -0.785,-1.681c-0.438,-0.741 -1.005,-0.359 -1.683,-0.08l-11.306,4.982l-2.779,1.226l-1.548,0.688c-0.191,-0.268 -0.401,-0.362 -0.484,-0.326c-0.188,0.084 0.067,1.092 0.58,2.248c0.516,1.159 1.078,2.027 1.267,1.946Z"/><path fill="#7f3e98" fill-rule="nonzero" d="M111.07,55.518l-2.776,1.226l0.412,0.95l11.461,-5.028c0,0 1.706,1.792 6.416,-0.248c3.609,-1.562 6.181,-1.647 6.181,-1.647l-0.117,-1.071c0,0 -2.1,-0.159 -6.054,1.517c-5.366,2.275 -6.014,0.11 -6.014,0.11l-1.875,0.825l-7.634,3.366Z"/><path fill="#7f3e98" fill-rule="nonzero" d="M119.84,48.074c0.838,-0.322 1.389,0.723 0.511,1.156l-0.511,-1.156Z"/><path fill="#7f3e98" fill-rule="nonzero" d="M114.288,59.789c2.351,0.781 4.891,-0.493 5.672,-2.844c0.781,-2.352 -0.493,-4.892 -2.844,-5.672c-2.351,-0.781 -4.891,0.492 -5.672,2.844c-0.781,2.351 0.493,4.89 2.844,5.672Zm0.25,-0.751c-1.938,-0.644 -2.987,-2.735 -2.344,-4.672c0.643,-1.936 2.733,-2.984 4.671,-2.34c1.935,0.642 2.983,2.733 2.341,4.668c-0.643,1.937 -2.734,2.986 -4.668,2.344Z"/><path fill="#7f3e98" fill-rule="nonzero" d="M113.059,58.437c-0.075,-0.005 -0.145,-0.042 -0.193,-0.101l-0.227,-0.278c-0.047,-0.057 -0.069,-0.131 -0.06,-0.202c0.008,-0.073 0.045,-0.141 0.104,-0.186l1.812,-1.409c-0.188,-0.312 -0.255,-0.692 -0.163,-1.068l-2.051,-1.127c-0.067,-0.036 -0.114,-0.099 -0.134,-0.172c-0.019,-0.073 -0.004,-0.151 0.035,-0.214l0.195,-0.303c0.04,-0.061 0.104,-0.105 0.175,-0.12c0.071,-0.013 0.146,0.001 0.208,0.042l1.891,1.283c0.249,-0.276 0.6,-0.443 0.973,-0.464l0.439,-2.314c0.015,-0.075 0.058,-0.139 0.123,-0.18c0.064,-0.042 0.142,-0.053 0.214,-0.034l0.349,0.092c0.07,0.019 0.131,0.067 0.167,0.129c0.036,0.064 0.045,0.141 0.024,0.21l-0.645,2.23c0.336,0.156 0.583,0.426 0.715,0.751l2.374,-0.3c0.075,-0.009 0.15,0.012 0.209,0.06c0.057,0.049 0.093,0.119 0.097,0.195l0.021,0.358c0.004,0.074 -0.022,0.146 -0.071,0.2c-0.05,0.054 -0.118,0.086 -0.192,0.089l-2.338,0.075c-0.01,0.099 -0.03,0.199 -0.063,0.298c-0.082,0.248 -0.23,0.454 -0.413,0.614l1.019,2.164c0.034,0.069 0.035,0.147 0.008,0.218c-0.028,0.07 -0.084,0.124 -0.155,0.152l-0.335,0.132c-0.069,0.025 -0.145,0.024 -0.211,-0.008c-0.067,-0.029 -0.119,-0.084 -0.144,-0.155l-0.791,-2.187c-0.246,0.057 -0.511,0.054 -0.77,-0.032c-0.097,-0.032 -0.189,-0.075 -0.274,-0.127l-1.718,1.614c-0.054,0.053 -0.129,0.08 -0.204,0.075Z"/></g></svg>