<svg xmlns="http://www.w3.org/2000/svg" width="26" height="26" viewBox="0 0 26 26">
  <metadata><?xpacket begin="﻿" id="W5M0MpCehiHzreSzNTczkc9d"?>
<x:xmpmeta xmlns:x="adobe:ns:meta/" x:xmptk="Adobe XMP Core 5.6-c142 79.160924, 2017/07/13-01:06:39        ">
   <rdf:RDF xmlns:rdf="http://www.w3.org/1999/02/22-rdf-syntax-ns#">
      <rdf:Description rdf:about=""/>
   </rdf:RDF>
</x:xmpmeta>
                                                                                                    
                                                                                                    
                                                                                                    
                                                                                                    
                                                                                                    
                                                                                                    
                                                                                                    
                                                                                                    
                                                                                                    
                                                                                                    
                                                                                                    
                                                                                                    
                                                                                                    
                                                                                                    
                                                                                                    
                                                                                                    
                                                                                                    
                                                                                                    
                                                                                                    
                                                                                                    
                           
<?xpacket end="w"?></metadata>
<defs>
    <style>
      .cls-1 {
        fill: #646f79;
        fill-rule: evenodd;
      }
    </style>
  </defs>
  <path id="icon-menu-my-records" class="cls-1" d="M21,3.234A0.518,0.518,0,0,0,20.5,2.7H17.7a0.477,0.477,0,0,0-.35.157L11.214,9.5a5.163,5.163,0,0,0-5.532,1.436,6.253,6.253,0,0,0,0,8.342,5.169,5.169,0,0,0,7.709,0,6.244,6.244,0,0,0,1.328-5.986l0.424-.459,1.605-.347a0.517,0.517,0,0,0,.389-0.421l0.286-1.545,1.428-.309a0.517,0.517,0,0,0,.389-0.421L19.51,8.311H20.5A0.517,0.517,0,0,0,21,7.775V3.235h0ZM20.009,7.239H19.1a0.507,0.507,0,0,0-.486.432L18.331,9.225,16.9,9.534a0.517,0.517,0,0,0-.389.421L16.229,11.5l-1.428.309a0.485,0.485,0,0,0-.253.147L13.8,12.77a0.568,0.568,0,0,0-.111.574,5.118,5.118,0,0,1-.995,5.172,4.23,4.23,0,0,1-6.307,0,5.117,5.117,0,0,1,0-6.825,4.218,4.218,0,0,1,4.78-1.076,0.469,0.469,0,0,0,.531-0.12l6.213-6.723h1.4l-6.162,6.668a0.568,0.568,0,0,0,0,.758,0.47,0.47,0,0,0,.7,0L20.009,4.53V7.239ZM9.186,15.483a1.409,1.409,0,0,0-2.1,0,1.705,1.705,0,0,0,0,2.275,1.41,1.41,0,0,0,2.1,0A1.705,1.705,0,0,0,9.186,15.483ZM8.485,17a0.469,0.469,0,0,1-.7,0,0.568,0.568,0,0,1,0-.758,0.47,0.47,0,0,1,.7,0A0.569,0.569,0,0,1,8.485,17Z" transform="translate(0.453 1.156)"/>
</svg>
