<?xml version="1.0" encoding="UTF-8" standalone="no"?>
<!DOCTYPE svg PUBLIC "-//W3C//DTD SVG 1.1//EN" "http://www.w3.org/Graphics/SVG/1.1/DTD/svg11.dtd">
<svg width="100%" height="100%" viewBox="0 0 80 80" version="1.1" xmlns="http://www.w3.org/2000/svg" xmlns:xlink="http://www.w3.org/1999/xlink" xml:space="preserve" xmlns:serif="http://www.serif.com/" style="fill-rule:evenodd;clip-rule:evenodd;stroke-linejoin:round;stroke-miterlimit:2;">
    <g transform="matrix(2.68413e-16,-4.38352,4.92689,3.01685e-16,-13843.9,3880.03)">
        <clipPath id="_clip1">
            <path d="M871.75,2823.49L877.247,2817.99L871.75,2812.5C871.485,2812.23 871.336,2811.87 871.336,2811.5C871.336,2811.12 871.485,2810.76 871.75,2810.5C872.302,2809.95 873.195,2809.95 873.747,2810.5L880.25,2817C880.802,2817.55 880.802,2818.45 880.25,2819L873.747,2825.5C873.195,2826.05 872.302,2826.05 871.75,2825.5C871.212,2824.95 871.198,2824.04 871.75,2823.49Z" clip-rule="nonzero"/>
        </clipPath>
        <g clip-path="url(#_clip1)">
            <g transform="matrix(1,0,0,1,0,-753)">
                <rect x="871" y="3562" width="10" height="18" style="fill:rgb(255,75,153);"/>
            </g>
        </g>
    </g>
</svg>
