<svg width="56" height="56" fill="none" xmlns="http://www.w3.org/2000/svg"><rect width="56" height="56" rx="28" fill="#F3F8FE"/><path d="M13.695 26.159c-.062.5.328.942.832.942h3.412c.41 0 .76-.296.827-.7a9.309 9.309 0 0 1 7.635-7.635.838.838 0 0 0 .7-.827v-3.412a.839.839 0 0 0-.942-.832 14.407 14.407 0 0 0-8.368 4.096 14.407 14.407 0 0 0-4.096 8.368Z" fill="#646F79"/><path d="M33.343 35.529a9.24 9.24 0 0 1-5.397 1.737 9.285 9.285 0 0 1-9.18-7.775.838.838 0 0 0-.827-.7h-3.412a.839.839 0 0 0-.832.942c.891 7.17 7.018 12.578 14.251 12.578 3.222 0 6.27-1.046 8.812-3.024a.839.839 0 0 0 .078-1.255l-2.413-2.413a.839.839 0 0 0-1.08-.09Z" fill="#2987FD"/><path d="M29.491 18.766a9.285 9.285 0 0 1 7.775 9.18c0 1.94-.6 3.805-1.737 5.397-.238.333-.2.79.09 1.08l2.413 2.413a.838.838 0 0 0 1.255-.078 14.223 14.223 0 0 0 3.024-8.812c0-7.233-5.407-13.36-12.578-14.25a.839.839 0 0 0-.942.831v3.412c0 .41.296.76.7.827ZM28.504 22.184h-1.118a.839.839 0 0 0-.839.838v9.783h2.796v-9.783a.838.838 0 0 0-.839-.838Z" fill="#134478"/><path d="M31.02 32.805h1.957a.839.839 0 0 0 .839-.838v-6.708a.839.839 0 0 0-.839-.839H31.02v8.385ZM24.87 26.656h-1.955a.838.838 0 0 0-.838.839v4.472c0 .463.375.838.838.838h1.955v-6.149Z" fill="#134478"/></svg>