<svg xmlns="http://www.w3.org/2000/svg" width="96" height="96" preserveAspectRatio="xMidYMid meet" version="1.0" viewBox="0 0 72 72"><metadata>Created by potrace 1.15, written by Peter Selinger 2001-2017</metadata><g fill="#000" stroke="none"><path d="M243 702 c-101 -36 -188 -124 -224 -229 -30 -84 -23 -207 15 -281 37 -73 96 -134 160 -168 68 -36 86 -29 86 32 0 39 -3 45 -16 40 -34 -13 -86 5 -103 37 -9 17 -24 38 -34 49 -13 14 -14 18 -3 18 8 0 27 -16 42 -35 23 -30 32 -35 69 -35 32 0 44 4 48 17 2 10 8 25 11 34 6 13 -1 18 -33 23 -22 3 -53 17 -68 30 -51 43 -68 145 -35 201 12 20 17 43 14 71 -2 23 1 45 7 48 5 4 27 -1 48 -10 26 -11 67 -16 133 -16 66 0 107 5 133 16 21 9 43 14 48 10 6 -3 9 -25 7 -48 -3 -28 2 -51 14 -71 34 -56 17 -157 -33 -199 -17 -14 -48 -29 -70 -32 -32 -5 -39 -10 -33 -23 5 -9 10 -52 13 -96 7 -95 15 -100 91 -59 62 34 119 94 157 166 26 48 28 62 28 158 0 94 -3 111 -27 160 -35 71 -107 143 -177 177 -72 36 -192 42 -268 15z" transform="translate(0.000000,72.000000) scale(0.100000,-0.100000)"/></g></svg>