<svg xmlns="http://www.w3.org/2000/svg" xmlns:xlink="http://www.w3.org/1999/xlink" width="18" height="18" version="1.1" viewBox="0 0 18 18"><title>C2F396B0-7149-4CB1-B414-967E6824F283</title><desc>Created with sketchtool.</desc><g id="Page-1" fill="none" fill-rule="evenodd" stroke="none" stroke-width="1"><g id="Home-v3.4-+-Contact-form" fill="#CCD0E0" transform="translate(-915.000000, -320.000000)"><g id="Icon-/-Clear-Field" transform="translate(915.000000, 320.000000)"><g id="error-(3)"><path id="Shape" fill-rule="nonzero" d="M15.3598846,2.63180769 C11.8509231,-0.877153846 6.14111538,-0.8775 2.63180769,2.63180769 C-0.8775,6.14111538 -0.877153846,11.8505769 2.63180769,15.3598846 C6.14076923,18.8691923 11.8505769,18.8691923 15.3598846,15.3598846 C18.8688462,11.8505769 18.8688462,6.14076923 15.3598846,2.63180769 Z M12.5449615,12.5449615 C12.2746154,12.8153077 11.8363846,12.8153077 11.5660385,12.5449615 L8.99584615,9.97476923 L6.30346154,12.6671538 C6.03311538,12.9375 5.59488462,12.9375 5.32453846,12.6671538 C5.05419231,12.3968077 5.05419231,11.9585769 5.32453846,11.6882308 L8.01692308,8.99584615 L5.44673077,6.42565385 C5.17638462,6.15530769 5.17638462,5.71673077 5.44673077,5.44673077 C5.71707692,5.17638462 6.15530769,5.17638462 6.42565385,5.44673077 L8.99584615,8.01692308 L11.4435,5.56926923 C11.7138462,5.29892308 12.1520769,5.29892308 12.4224231,5.56926923 C12.6927692,5.83961538 12.6927692,6.27784615 12.4224231,6.54819231 L9.97476923,8.99584615 L12.5449615,11.5660385 C12.8153077,11.8363846 12.8153077,12.2746154 12.5449615,12.5449615 Z"/></g></g></g></g></svg>