<svg xmlns="http://www.w3.org/2000/svg" xmlns:xlink="http://www.w3.org/1999/xlink" width="24" height="24" version="1.1" viewBox="0 0 24 24"><title>76242519-2DA2-46BF-9CF7-45C777147CE8</title><desc>Created with sketchtool.</desc><g id="Page-1" fill="none" fill-rule="evenodd" stroke="none" stroke-width="1"><g id="Home-v3.4-+-Contact-form" fill="#454545" transform="translate(-1300.000000, -111.000000)"><g id="Group-7" transform="translate(570.000000, 86.000000)"><g id="Icon-/-Pop-up-/-Close-" transform="translate(730.000000, 25.000000)"><g id="Group"><path id="Path" fill-rule="nonzero" d="M14.5798901,12.0102175 L23.4687908,20.8991182 C24.1786512,21.6082762 24.1786512,22.7584467 23.4687908,23.4675408 C22.7596329,24.1774012 21.6102286,24.1774012 20.9003682,23.4675408 L12.0114036,14.5786401 L3.12173661,23.4676047 C2.41334496,24.1774651 1.26240809,24.1774651 0.553313987,23.4676047 C-0.155843974,22.7584467 -0.155843974,21.6082762 0.553313987,20.8991821 L9.44298101,12.0102175 L0.533645311,3.10088179 C-0.176215104,2.39102138 -0.176215104,1.24155327 0.533645311,0.53245917 C0.888192362,0.177145807 1.35321607,-0.000127718678 1.81823978,-0.000127718678 C2.28249717,-0.000127718678 2.74752088,0.177145807 3.10213179,0.53245917 L12.0114036,9.44173101 L20.9003682,0.55276644 C21.2556816,0.198219389 21.719939,0.0201795512 22.1849627,0.0201795512 C22.6492201,0.0201795512 23.1142438,0.198219389 23.4688547,0.55276644 C24.1787151,1.2619244 24.1787151,2.41132865 23.4688547,3.12118906 L14.5798901,12.0102175 Z"/></g></g></g></g></g></svg>