<svg xmlns="http://www.w3.org/2000/svg" width="120" height="120" viewBox="0 0 120 120"><path fill="#3561FF" fill-rule="nonzero" d="M95.57 14.36c-2.915-2.913-6.453-4.37-10.616-4.37-4.16 0-7.698 1.456-10.612 4.37-2.913 2.913-4.37 6.45-4.37 10.614 0 2.705.675 5.215 2.028 7.53 1.352 2.316 3.172 4.124 5.463 5.424 0 2.706-.22 5.087-.662 7.141-.443 2.055-1.171 3.862-2.185 5.424-1.017 1.561-2.068 2.887-3.162 3.98-1.093 1.093-2.628 2.12-4.605 3.083a70.89 70.89 0 0 1-5.502 2.42c-1.69.649-3.968 1.416-6.83 2.3-5.203 1.614-9.208 3.096-12.018 4.45V27.937c2.29-1.3 4.11-3.108 5.463-5.423 1.352-2.316 2.029-4.826 2.029-7.532 0-4.161-1.456-7.7-4.37-10.613C42.708 1.457 39.17 0 35.008 0c-4.163 0-7.7 1.456-10.615 4.37-2.913 2.913-4.37 6.452-4.37 10.613 0 2.706.676 5.216 2.029 7.532 1.352 2.315 3.173 4.123 5.463 5.423v63.995c-2.29 1.3-4.11 3.11-5.463 5.424-1.353 2.316-2.029 4.827-2.029 7.531 0 4.162 1.456 7.7 4.37 10.613 2.914 2.913 6.452 4.37 10.615 4.37 4.162 0 7.7-1.457 10.613-4.37 2.913-2.913 4.37-6.451 4.37-10.613 0-2.704-.677-5.215-2.029-7.53-1.353-2.315-3.173-4.125-5.463-5.425v-2.029c0-3.589 1.08-6.19 3.239-7.802 2.159-1.615 6.568-3.461 13.228-5.542 7.025-2.237 12.307-4.346 15.844-6.323 11.654-6.606 17.534-17.377 17.637-32.31 2.291-1.299 4.11-3.108 5.463-5.423 1.352-2.315 2.03-4.825 2.03-7.53 0-4.163-1.457-7.7-4.37-10.614zm-55.254 95.837c-1.458 1.457-3.227 2.185-5.307 2.185-2.082 0-3.85-.728-5.308-2.185-1.456-1.455-2.185-3.225-2.185-5.306 0-2.082.728-3.85 2.185-5.307 1.457-1.457 3.226-2.186 5.308-2.186 2.08 0 3.85.73 5.307 2.186 1.456 1.457 2.184 3.225 2.184 5.307 0 2.08-.728 3.85-2.184 5.306zm0-89.906c-1.458 1.457-3.227 2.185-5.307 2.185-2.082 0-3.85-.728-5.308-2.185-1.456-1.457-2.185-3.225-2.185-5.307 0-2.08.728-3.85 2.185-5.306s3.226-2.185 5.308-2.185c2.08 0 3.85.729 5.307 2.185 1.456 1.456 2.184 3.225 2.184 5.306 0 2.082-.728 3.851-2.184 5.307zm49.946 9.99c-1.456 1.456-3.224 2.185-5.306 2.185s-3.851-.729-5.306-2.185c-1.457-1.456-2.186-3.225-2.186-5.307 0-2.08.73-3.85 2.186-5.306 1.456-1.458 3.224-2.185 5.306-2.185s3.85.728 5.306 2.185c1.456 1.456 2.185 3.225 2.185 5.306 0 2.082-.727 3.851-2.185 5.307z"/></svg>