<svg xmlns="http://www.w3.org/2000/svg" xmlns:xlink="http://www.w3.org/1999/xlink" width="24" height="24" version="1.1" viewBox="0 0 24 24"><title>4BD652C9-A044-49EC-89CC-DDFCBABCC3FE</title><desc>Created with sketchtool.</desc><g id="Page-1" fill="none" fill-rule="evenodd" stroke="none" stroke-width="1"><g id="Home-v3.4" fill-rule="nonzero" transform="translate(-1427.000000, -6018.000000)"><g id="FOOTER" transform="translate(1.000000, 5304.000000)"><g id="f-ogo_RGB_HEX-58" transform="translate(1426.000000, 714.000000)"><path id="Path" fill="#4267B2" d="M22.6758621,0 L1.32413793,0 C0.592836745,-4.47792828e-17 8.95585657e-17,0.592836745 0,1.32413793 L0,22.6758621 C8.95585657e-17,23.4071633 0.592836745,24 1.32413793,24 L12.8275862,24 L12.8275862,14.7186207 L9.70344828,14.7186207 L9.70344828,11.0855172 L12.8275862,11.0855172 L12.8275862,8.41241379 C12.8275862,5.31310345 14.7227586,3.62482759 17.4868966,3.62482759 C18.4183753,3.62279621 19.3493164,3.66975762 20.2758621,3.76551724 L20.2758621,7.00551724 L18.3724138,7.00551724 C16.8662069,7.00551724 16.5724138,7.71724138 16.5724138,8.76827586 L16.5724138,11.0813793 L20.1724138,11.0813793 L19.7048276,14.7144828 L16.5517241,14.7144828 L16.5517241,24 L22.6758621,24 C23.4071633,24 24,23.4071633 24,22.6758621 L24,1.32413793 C24,0.592836745 23.4071633,4.47792828e-17 22.6758621,0 Z"/><path id="f" fill="#FFF" d="M16.5517241,24 L16.5517241,14.7186207 L19.6841379,14.7186207 L20.1517241,11.0855172 L16.5517241,11.0855172 L16.5517241,8.77241379 C16.5517241,7.72137931 16.8455172,7.00965517 18.3517241,7.00965517 L20.2758621,7.00965517 L20.2758621,3.76551724 C19.3479436,3.66961261 18.4156175,3.622651 17.4827586,3.62482759 C14.7144828,3.62482759 12.8275862,5.31310345 12.8275862,8.41241379 L12.8275862,11.0855172 L9.70344828,11.0855172 L9.70344828,14.7186207 L12.8275862,14.7186207 L12.8275862,24 L16.5517241,24 Z"/></g></g></g></g></svg>