<svg xmlns="http://www.w3.org/2000/svg" xmlns:xlink="http://www.w3.org/1999/xlink" width="100" height="19" version="1.1" viewBox="0 0 100 19"><title>916F6521-D6F1-45F3-B53F-2F21D91FC6F7</title><desc>Created with sketchtool.</desc><g id="Page-1" fill="none" fill-rule="evenodd" stroke="none" stroke-width="1"><g id="Home-v3.4" fill="#393B41" transform="translate(-406.000000, -6018.000000)"><g id="FOOTER" transform="translate(1.000000, 5304.000000)"><g id="forus-logo-footer" transform="translate(405.000000, 714.000000)"><g id="Symbol_9_" transform="translate(18.181818, 0.000000)"><path id="Shape" d="M11.2440191,0.0503396739 C5.06506283,0.0503396739 0.0630505746,4.8628125 0.0630505746,10.7928261 C0.0630505746,13.7729348 1.32406207,16.4610734 3.35218888,18.4041848 C3.47829003,18.525 3.70947547,18.4947962 3.79354291,18.3437772 C4.74980995,16.6926359 6.42065018,15.3938723 8.45928543,14.7696603 C7.12471493,13.9138859 6.25251532,12.4439674 6.25251532,10.7928261 C6.25251532,8.14495924 8.49081071,6.00048913 11.2440191,6.00048913 C13.9972276,6.00048913 16.235523,8.14495924 16.235523,10.7928261 C16.235523,12.4540353 15.3633233,13.9138859 14.0287529,14.7696603 C16.0673881,15.4039402 17.7382283,16.6926359 18.6944954,18.3437772 C18.7785628,18.4947962 19.0097482,18.525 19.1358494,18.4041848 C21.1744846,16.4610734 22.4249877,13.7628668 22.4249877,10.7928261 C22.4249877,4.8628125 17.412467,0.0503396739 11.2440191,0.0503396739 Z"/></g><g id="Forus_9_" fill-rule="nonzero"><path id="Shape" d="M5.44791667,4.29032258 L5.44791667,7.24247312 L14.9791667,7.24247312 C15.1354167,7.24247312 15.2708333,7.36505376 15.2708333,7.52849462 L15.2708333,11.216129 C15.2708333,11.3693548 15.1458333,11.5021505 14.9791667,11.5021505 L5.44791667,11.5021505 L5.44791667,18.9693548 L0.291666667,18.9693548 C0.135416667,18.9693548 0,18.8467742 0,18.6833333 L0,17.661828 L0,1.16451613 L0,0.316666667 C0,0.16344086 0.125,0.0306451613 0.291666667,0.0306451613 L15.2083333,0.0306451613 C15.3645833,0.0306451613 15.5,0.153225806 15.5,0.316666667 L15.5,4.00430108 C15.5,4.15752688 15.375,4.29032258 15.2083333,4.29032258 L5.44791667,4.29032258 L5.44791667,4.29032258 Z M55.6145833,12.0129032 L59.3125,18.5505376 C59.4166667,18.7344086 59.28125,18.9693548 59.0625,18.9693548 L54.03125,18.9693548 C53.9270833,18.9693548 53.8229167,18.9080645 53.78125,18.816129 L50.625,12.6155914 L48.0833333,12.6155914 L48.0833333,18.6935484 C48.0833333,18.8467742 47.9583333,18.9693548 47.8020833,18.9693548 L43.40625,18.9693548 C43.25,18.9693548 43.125,18.8467742 43.125,18.6935484 L43.125,0.0306451613 L52.78125,0.0306451613 C57.0625,0.0306451613 59.4895833,2.80913978 59.4895833,6.33333333 C59.4583333,9.62258065 57.40625,11.3897849 55.6145833,12.0129032 L55.6145833,12.0129032 Z M52,4.29032258 L48.34375,4.29032258 C48.1875,4.29032258 48.0729167,4.41290323 48.0729167,4.55591398 L48.0729167,8.08010753 C48.0729167,8.23333333 48.1979167,8.34569892 48.34375,8.34569892 L52,8.34569892 C53.3020833,8.34569892 54.3958333,7.64086022 54.3958333,6.30268817 C54.3958333,5.02580645 53.3020833,4.29032258 52,4.29032258 L52,4.29032258 Z M80.4583333,10.9403226 C80.4583333,15.6494624 77.5416667,18.9693548 71.3854167,18.9693548 C65.1770833,18.9693548 62.2604167,15.6188172 62.2604167,10.9607527 L62.2916667,0.316666667 C62.2916667,0.16344086 62.4166667,0.0408602151 62.5729167,0.0408602151 L67.0625,0.0408602151 C67.21875,0.0408602151 67.34375,0.16344086 67.34375,0.316666667 L67.3125,10.7973118 C67.3125,13.0446237 68.6666667,14.6586022 71.3854167,14.6586022 C74.0416667,14.6586022 75.4270833,13.0446237 75.4270833,10.7973118 L75.4479167,0.316666667 C75.4479167,0.16344086 75.5729167,0.0408602151 75.7291667,0.0408602151 L80.1979167,0.0408602151 C80.3541667,0.0408602151 80.4791667,0.16344086 80.4791667,0.316666667 L80.4583333,10.9403226 L80.4583333,10.9403226 Z M91.0520833,4.08602151 C89.5833333,4.08602151 88.9375,4.63763441 88.9375,5.40376344 C88.9375,7.7327957 99.9895833,6.03709677 99.9895833,12.8403226 C99.9895833,16.5177419 97.0833333,18.9591398 91.8333333,18.9591398 C88,18.9591398 85.2916667,17.8763441 83.34375,16.2215054 C83.2291667,16.1295699 83.21875,15.966129 83.3020833,15.8537634 L85.6354167,12.7586022 C85.7291667,12.6258065 85.9270833,12.6155914 86.0520833,12.7177419 C87.4583333,13.9435484 89.5416667,14.9241935 92.0729167,14.9241935 C93.8020833,14.9241935 94.8541667,14.2908602 94.8541667,13.4123656 C94.8541667,10.9096774 83.7708333,12.922043 83.7708333,5.86344086 C83.7708333,2.78870968 86.5520833,0.0408602151 91.5729167,0.0408602151 C94.6041667,0.0408602151 97.25,0.858064516 99.3020833,2.42096774 C99.4270833,2.51290323 99.4479167,2.68655914 99.34375,2.80913978 L96.9270833,5.76129032 C96.8333333,5.87365591 96.6666667,5.89408602 96.5416667,5.81236559 C94.9479167,4.65806452 92.90625,4.08602151 91.0520833,4.08602151 L91.0520833,4.08602151 Z"/></g></g></g></g></g></svg>