<?xml version="1.0" encoding="UTF-8"?>
<svg viewBox="0 0 940 803" version="1.1" xmlns="http://www.w3.org/2000/svg" xmlns:xlink="http://www.w3.org/1999/xlink">
    <!-- Generator: sketchtool 53.2 (72643) - https://sketchapp.com -->
    <title>E1D4F89C-0399-433C-83AB-9C80BC06E2EE</title>
    <desc>Created with sketchtool.</desc>
    <defs>
        <path d="M349.786315,0 C156.483351,0 0,151.251008 0,337.625157 C0,431.286869 39.4495844,515.772265 102.897666,576.842232 C106.842625,580.639329 114.075048,579.690055 116.70502,574.943684 C146.620955,523.050033 198.891654,482.231246 262.668482,462.612914 C220.917672,435.716815 193.63171,389.518809 193.63171,337.625157 C193.63171,254.40546 263.654722,187.006999 349.786315,187.006999 C435.917908,187.006999 505.94092,254.40546 505.94092,337.625157 C505.94092,389.835233 478.654957,435.716815 436.904147,462.612914 C500.680975,482.547671 552.951675,523.050033 582.867609,574.943684 C585.497581,579.690055 592.730005,580.639329 596.674964,576.842232 C660.451792,515.772265 699.57263,430.970444 699.57263,337.625157 C699.57263,151.251008 542.760532,0 349.786315,0 Z" id="path-1"></path>
        <filter x="-29.2%" y="-34.9%" width="158.3%" height="170.4%" filterUnits="objectBoundingBox" id="filter-2">
            <feGaussianBlur stdDeviation="48" in="SourceGraphic"></feGaussianBlur>
        </filter>
        <filter x="-33.6%" y="-40.2%" width="167.2%" height="181.1%" filterUnits="objectBoundingBox" id="filter-3">
            <feOffset dx="0" dy="2" in="SourceAlpha" result="shadowOffsetOuter1"></feOffset>
            <feGaussianBlur stdDeviation="30" in="shadowOffsetOuter1" result="shadowBlurOuter1"></feGaussianBlur>
            <feComposite in="shadowBlurOuter1" in2="SourceAlpha" operator="out" result="shadowBlurOuter1"></feComposite>
            <feColorMatrix values="0 0 0 0 0.639752359   0 0 0 0 0.655700795   0 0 0 0 0.678102355  0 0 0 0.0264696241 0" type="matrix" in="shadowBlurOuter1"></feColorMatrix>
        </filter>
        <radialGradient cx="48.6451666%" cy="54.0557557%" fx="48.6451666%" fy="54.0557557%" r="63.1100545%" gradientTransform="translate(0.486452,0.540558),scale(0.827913,1.000000),rotate(-90.000000),translate(-0.486452,-0.540558)" id="radialGradient-4">
            <stop stop-color="#FFFFFF" offset="0%"></stop>
            <stop stop-color="#FBFCFC" offset="42.4613232%"></stop>
            <stop stop-color="#F4F9FC" offset="67.8394215%"></stop>
            <stop stop-color="#F5F7F8" offset="100%"></stop>
        </radialGradient>
        <path d="M349.786315,0 C156.483351,0 0,151.251008 0,337.625157 C0,431.286869 39.4495844,515.772265 102.897666,576.842232 C106.842625,580.639329 114.075048,579.690055 116.70502,574.943684 C146.620955,523.050033 198.891654,482.231246 262.668482,462.612914 C220.917672,435.716815 193.63171,389.518809 193.63171,337.625157 C193.63171,254.40546 263.654722,187.006999 349.786315,187.006999 C435.917908,187.006999 505.94092,254.40546 505.94092,337.625157 C505.94092,389.835233 478.654957,435.716815 436.904147,462.612914 C500.680975,482.547671 552.951675,523.050033 582.867609,574.943684 C585.497581,579.690055 592.730005,580.639329 596.674964,576.842232 C660.451792,515.772265 699.57263,430.970444 699.57263,337.625157 C699.57263,151.251008 542.760532,0 349.786315,0 Z" id="path-5"></path>
        <filter x="-14.4%" y="-13.6%" width="128.9%" height="134.9%" filterUnits="objectBoundingBox" id="filter-6">
            <feOffset dx="0" dy="22" in="SourceAlpha" result="shadowOffsetOuter1"></feOffset>
            <feGaussianBlur stdDeviation="30" in="shadowOffsetOuter1" result="shadowBlurOuter1"></feGaussianBlur>
            <feComposite in="shadowBlurOuter1" in2="SourceAlpha" operator="out" result="shadowBlurOuter1"></feComposite>
            <feColorMatrix values="0 0 0 0 0.323213228   0 0 0 0 0.553706371   0 0 0 0 0.877462636  0 0 0 0.0948972902 0" type="matrix" in="shadowBlurOuter1"></feColorMatrix>
        </filter>
    </defs>
    <g id="Page-1" stroke="none" stroke-width="1" fill="none" fill-rule="evenodd">
        <g id="Home-v3.4" transform="translate(-489.000000, 0.000000)">
            <g id="HEADER" transform="translate(0.000000, -1.000000)">
                <g id="HERO">
                    <g id="BG" transform="translate(0.000000, 118.000000)">
                        <g id="header-fig" transform="translate(610.000000, 0.000000)">
                            <g id="Shape" filter="url(#filter-2)">
                                <use fill="black" fill-opacity="1" filter="url(#filter-3)" xlink:href="#path-1"></use>
                                <use fill="#E8EAF2" fill-rule="evenodd" xlink:href="#path-1"></use>
                            </g>
                            <g id="Shape">
                                <use fill="black" fill-opacity="1" filter="url(#filter-6)" xlink:href="#path-5"></use>
                                <use fill-opacity="0.9" fill="url(#radialGradient-4)" fill-rule="evenodd" xlink:href="#path-5"></use>
                            </g>
                        </g>
                    </g>
                </g>
            </g>
        </g>
    </g>
</svg>