<svg xmlns="http://www.w3.org/2000/svg" width="50" height="50" fill="none" viewBox="0 0 100 100"><path fill="#626161" d="M50 0C22.3857 0 0 22.3857 0 50C0 77.6143 22.3857 100 50 100C77.6143 100 100 77.6143 100 50C99.9679 22.399 77.601 0.0320565 50 0ZM50 96.7742C24.1673 96.7742 3.22581 75.8327 3.22581 50C3.22581 24.1673 24.1673 3.22581 50 3.22581C75.8327 3.22581 96.7742 24.1673 96.7742 50C96.7458 75.821 75.821 96.7458 50 96.7742Z"/><path fill="#626161" d="M74.6662 31.9242L41.9356 64.6549L25.334 48.0532C24.6932 47.4343 23.6723 47.452 23.0533 48.0928C22.4497 48.7178 22.4497 49.7087 23.0533 50.3339L40.7952 68.0758C41.4251 68.7055 42.4461 68.7055 43.0759 68.0758L76.9469 34.2049C77.5658 33.5641 77.5481 32.5432 76.9073 31.9242C76.2821 31.3206 75.2912 31.3206 74.6662 31.9242Z"/></svg>