<svg xmlns="http://www.w3.org/2000/svg" xmlns:xlink="http://www.w3.org/1999/xlink" width="100%" height="100%" version="1.1" viewBox="0 0 48 48" xml:space="preserve" style="fill-rule:evenodd;clip-rule:evenodd;stroke-linejoin:round;stroke-miterlimit:2"><path d="M42,37C42,39.762 39.762,42 37,42L11,42C8.239,42 6,39.762 6,37L6,11C6,8.238 8.239,6 11,6L37,6C39.762,6 42,8.238 42,11L42,37Z" style="fill:#0288d1;fill-rule:nonzero"/><path d="M12,19L17,19L17,36L12,36L12,19ZM14.485,17L14.457,17C12.965,17 12,15.888 12,14.499C12,13.08 12.995,12 14.514,12C16.035,12 16.972,13.08 17,14.499C17,15.887 16.035,17 14.485,17ZM36,36L31,36L31,26.901C31,24.703 29.775,23.203 27.808,23.203C26.307,23.203 25.495,24.215 25.101,25.193C24.957,25.543 25,26.511 25,27L25,36L20,36L20,19L25,19L25,21.616C25.721,20.5 26.85,19 29.738,19C33.316,19 35.999,21.25 35.999,26.274L36,36Z" style="fill:#fff;fill-rule:nonzero"/></svg>