<svg xmlns="http://www.w3.org/2000/svg" width="120" height="99" viewBox="0 0 120 99"><path fill="#3561FF" fill-rule="nonzero" d="M60 0C26.842 0 0 25.853 0 57.71 0 73.72 6.767 88.16 17.65 98.6c.677.649 1.918.486 2.369-.325 5.131-8.87 14.098-15.847 25.037-19.2-7.161-4.598-11.842-12.495-11.842-21.365 0-14.225 12.012-25.745 26.786-25.745 14.774 0 26.786 11.52 26.786 25.745 0 8.924-4.68 16.767-11.842 21.364 10.94 3.408 19.906 10.33 25.037 19.201.451.811 1.692.974 2.369.325C113.29 88.16 120 73.666 120 57.71 120 25.853 93.102 0 60 0z"/></svg>