<svg width="50" height="50" fill="none" xmlns="http://www.w3.org/2000/svg"><path fill-rule="evenodd" clip-rule="evenodd" d="M33.023 23.656v10.698a2.08 2.08 0 01-2.08 2.08h-16.64a2.08 2.08 0 01-2.08-2.08V23.656c0-1.149.931-2.08 2.08-2.08h16.64c1.148 0 2.08.931 2.08 2.08zm-17.342 6.24h.69a.892.892 0 000-1.782h-.69a.892.892 0 000 1.783zm13.194 0h.689a.892.892 0 000-1.782h-.69a.892.892 0 000 1.783z" fill="#134478"/><path d="M26.09 30.58a.777.777 0 00-1.057.234c-.341.528-.904 1.158-1.646 1.163-.62.004-1.3-.33-1.796-1.111l1.022-.007a.757.757 0 00.761-.753.758.758 0 00-.771-.744l-1.514.01a3.798 3.798 0 01-.006-.748l1.515-.01a.757.757 0 00.76-.754.758.758 0 00-.77-.744l-1.023.007c.484-.788 1.161-1.13 1.78-1.135.743-.005 1.314.618 1.663 1.142a.777.777 0 001.06.22.738.738 0 00.224-1.037c-2.004-3.008-5.357-1.98-6.425.821l-.345.003a.757.757 0 00-.761.753.758.758 0 00.771.744c.032 0 0-.029.003.374s.034.374.003.374a.757.757 0 00-.762.754.754.754 0 00.638.733c.09.015.117.01.479.008 1.1 2.769 4.465 3.786 6.436.736a.738.738 0 00-.239-1.033z" fill="#fff"/><path fill-rule="evenodd" clip-rule="evenodd" d="M17.97 20.388l12.328-5.749a2.08 2.08 0 012.763 1.007l4.522 9.695a2.081 2.081 0 01-1.007 2.764l-2.364 1.104v-5.553a3.268 3.268 0 00-3.27-3.268H17.97z" fill="#2987FD"/></svg>