<svg width="50" height="50" fill="none" xmlns="http://www.w3.org/2000/svg"><path fill-rule="evenodd" clip-rule="evenodd" d="M21.35 30.403v4.564a2.74 2.74 0 002.738 2.738H35.04a2.74 2.74 0 002.738-2.738v-4.564H21.35zm10.952 2.738h1.825a.913.913 0 010 1.826h-1.825a.913.913 0 010-1.826zm-8.214-8.214a2.74 2.74 0 00-2.738 2.738v.913h16.428v-.913a2.74 2.74 0 00-2.738-2.738H24.088z" fill="#134478"/><path fill-rule="evenodd" clip-rule="evenodd" d="M22.262 12.222c-5.54 0-10.04 4.499-10.04 10.04 0 4.491 2.956 8.299 7.028 9.58a.913.913 0 00.549-1.74 8.225 8.225 0 01-5.703-7h4.526c.034.992.158 1.971.373 2.936a.913.913 0 101.782-.396 14.22 14.22 0 01-.327-2.54h10.58a.913.913 0 001.271-.84c.001-5.541-4.498-10.04-10.039-10.04zm-1.633 1.99c-1.141 2.378-1.791 4.747-1.965 7.064h-4.556a8.227 8.227 0 016.521-7.064zm3.264 0a8.224 8.224 0 016.523 7.064h-4.551c-.175-2.315-.83-4.686-1.972-7.064zm-1.633.814c1.007 2.105 1.6 4.2 1.772 6.25h-3.54c.172-2.05.763-4.145 1.768-6.25z" fill="#8CA3A6"/></svg>