<svg xmlns="http://www.w3.org/2000/svg" width="24" height="24" viewBox="0 0 24 24"><g fill="#1E90FF" fill-rule="evenodd"><path d="M17.452 11.197l-6.911-4.55a.987.987 0 0 0-.54-.17c-.49 0-.858.4-.858.93v9.186c0 .53.368.93.857.93.184 0 .37-.058.54-.17l6.912-4.551a.957.957 0 0 0 .453-.802.957.957 0 0 0-.453-.803zm-6.981 4.606V8.197L16.247 12l-5.776 3.803z"/><path d="M12 0C5.383 0 0 5.383 0 12s5.383 12 12 12 12-5.383 12-12S18.617 0 12 0zm0 22.644C6.131 22.644 1.356 17.869 1.356 12S6.131 1.356 12 1.356 22.644 6.131 22.644 12 17.869 22.644 12 22.644z"/></g></svg>