<svg xmlns="http://www.w3.org/2000/svg" width="20" height="20" fill="none" viewBox="0 0 24 24"><path fill="#3561FF" d="M12 0C5.3832 0 0 5.38327 0 12.0001C0 18.6169 5.3832 24 12 24C18.6168 24 24 18.6169 24 12.0001C24 5.38327 18.6168 0 12 0ZM12 21.8182C6.58618 21.8182 2.18182 17.4138 2.18182 12.0001C2.18182 6.58633 6.58618 2.18182 12 2.18182C17.4138 2.18182 21.8182 6.58633 21.8182 12.0001C21.8182 17.4138 17.4137 21.8182 12 21.8182Z"/><path fill="#3561FF" d="M11.9999 5.091C11.198 5.091 10.5457 5.7438 10.5457 6.5462C10.5457 7.34788 11.198 8.00009 11.9999 8.00009C12.8018 8.00009 13.4542 7.34788 13.4542 6.5462C13.4542 5.7438 12.8018 5.091 11.9999 5.091Z"/><path fill="#3561FF" d="M11.9999 10.182C11.3974 10.182 10.909 10.6704 10.909 11.2729V17.8184C10.909 18.4208 11.3974 18.9093 11.9999 18.9093C12.6024 18.9093 13.0908 18.4208 13.0908 17.8184V11.2729C13.0908 10.6704 12.6024 10.182 11.9999 10.182Z"/></svg>