<svg xmlns="http://www.w3.org/2000/svg" xmlns:xlink="http://www.w3.org/1999/xlink" width="100%" height="100%" version="1.1" viewBox="0 0 72 72" xml:space="preserve" style="fill-rule:evenodd;clip-rule:evenodd;stroke-linejoin:round;stroke-miterlimit:2"><g id="Shape"><path d="M7.227,0.933C7.966,1.343 8.665,1.863 9.262,2.44C10.224,2.266 11.216,2.178 12.222,2.178C15.234,2.178 18.089,2.968 20.262,4.403C21.387,5.146 22.282,6.028 22.92,7.024C23.631,8.134 23.991,9.328 23.991,10.607C23.991,11.852 23.631,13.046 22.92,14.156C22.282,15.152 21.387,16.034 20.262,16.777C18.089,18.211 15.234,19.001 12.222,19.001C11.216,19.001 10.224,18.913 9.262,18.739C8.665,19.317 7.966,19.836 7.227,20.247C3.278,22.225 0.003,20.293 0.003,20.293C0.003,20.293 3.048,17.708 2.553,15.441C1.19,14.045 0.452,12.36 0.452,10.573C0.452,8.819 1.19,7.135 2.553,5.738C3.048,3.472 0.004,0.887 0.003,0.886C0.004,0.886 3.279,-1.045 7.227,0.933Z" transform="matrix(2.98787,0,0,2.98787,-0.00539319,3.91811)" style="fill:#db2323;fill-rule:nonzero"/></g><g id="Path"><path d="M4.867,14.523C3.512,13.453 2.698,12.084 2.698,10.592C2.698,7.167 6.982,4.392 12.267,4.392C17.551,4.392 21.835,7.167 21.835,10.592C21.835,14.016 17.551,16.792 12.267,16.792C10.964,16.792 9.723,16.623 8.591,16.318L7.763,17.117C7.314,17.551 6.787,17.944 6.238,18.254C5.51,18.612 4.791,18.807 4.079,18.867C4.12,18.794 4.156,18.72 4.196,18.647C5.025,17.117 5.249,15.742 4.867,14.523Z" transform="matrix(2.98787,0,0,2.98787,-0.00539319,3.91811)" style="fill:#fff;fill-rule:nonzero"/></g><g id="Shape1"><path d="M7.689,11.976C6.91,11.976 6.279,11.347 6.279,10.571C6.279,9.795 6.91,9.165 7.689,9.165C8.468,9.165 9.099,9.795 9.099,10.571C9.099,11.347 8.468,11.976 7.689,11.976L7.689,11.976ZM12.228,11.976C11.449,11.976 10.818,11.347 10.818,10.571C10.818,9.795 11.449,9.165 12.228,9.165C13.007,9.165 13.638,9.795 13.638,10.571C13.638,11.347 13.007,11.976 12.228,11.976L12.228,11.976ZM16.767,11.976C15.988,11.976 15.357,11.347 15.357,10.571C15.357,9.795 15.988,9.165 16.767,9.165C17.546,9.165 18.177,9.795 18.177,10.571C18.177,11.347 17.546,11.976 16.767,11.976L16.767,11.976Z" transform="matrix(2.98787,0,0,2.98787,-0.00539319,3.91811)" style="fill:#db2323;fill-rule:nonzero"/></g></svg>