<svg xmlns="http://www.w3.org/2000/svg" xmlns:xlink="http://www.w3.org/1999/xlink" width="24" height="22" version="1.1" viewBox="0 0 24 22"><title>DF5EB43C-93CD-49B6-8A27-6BAEE51B54F9</title><desc>Created with sketchtool.</desc><g id="Page-1" fill="none" fill-rule="evenodd" stroke="none" stroke-width="1"><g id="Home-v3.4" fill-rule="nonzero" transform="translate(-1492.000000, -6020.000000)"><g id="rocketchat" transform="translate(1492.000000, 6020.000000)"><path id="Shape" fill="#DB2323" d="M7.22733913,0.932730435 C7.96646957,1.34337391 8.66525217,1.86281739 9.26191304,2.4402087 C10.2237913,2.26601739 11.2155826,2.17815652 12.2217043,2.17815652 C15.2337391,2.17815652 18.0893913,2.96841739 20.2620522,4.40292174 C21.3872696,5.14615652 22.2816,6.02796522 22.9199304,7.02413913 C23.630887,8.1341913 23.9912348,9.32786087 23.9912348,10.6069565 C23.9912348,11.8516174 23.630887,13.0457739 22.9199304,14.1555478 C22.2816,15.1522087 21.3872696,16.0338087 20.2621217,16.7770435 C18.0893913,18.2114783 15.2339478,19.0013217 12.2217739,19.0013217 C11.2155826,19.0013217 10.224,18.9134609 9.26191304,18.7394087 C8.66497391,19.3165913 7.96646957,19.8363826 7.22733913,20.246887 C3.27791304,22.2251826 0.00271304348,20.2934957 0.00271304348,20.2934957 C0.00271304348,20.2934957 3.0477913,17.7078957 2.55262609,15.4413217 C1.19012174,14.0446609 0.451965217,12.3602087 0.451965217,10.5730087 C0.451965217,8.81947826 1.1904,7.13509565 2.55262609,5.73822609 C3.04772174,3.4722087 0.00375652174,0.887095652 0.00271304348,0.88626087 C0.00368695652,0.885634783 3.27853913,-1.04542609 7.22733913,0.932730435 Z"/><path id="Path" fill="#FFF" d="M4.86706087,14.5228522 C3.51165217,13.4529391 2.69801739,12.0838261 2.69801739,10.5915826 C2.69801739,7.16737391 6.98198261,4.39151304 12.2665043,4.39151304 C17.5510261,4.39151304 21.8349913,7.16737391 21.8349913,10.5915826 C21.8349913,14.0157913 17.5510261,16.7916522 12.2665043,16.7916522 C10.9641043,16.7916522 9.72250435,16.6230261 8.59074783,16.3176348 L7.76333913,17.1169391 C7.3138087,17.5511652 6.78685217,17.9442087 6.23763478,18.2538435 C5.50956522,18.6119652 4.79067826,18.8073739 4.07944348,18.8669913 C4.11951304,18.7939478 4.15645217,18.7199304 4.19617391,18.6467478 C5.02518261,17.1170783 5.24883478,15.7424 4.86706087,14.5228522 Z"/><path id="Shape" fill="#DB2323" d="M7.68890435,11.9757217 C6.91026087,11.9757217 6.27902609,11.3466435 6.27902609,10.5705043 C6.27902609,9.79450435 6.91026087,9.16535652 7.68890435,9.16535652 C8.46754783,9.16535652 9.09878261,9.79450435 9.09878261,10.5705739 C9.09878261,11.3466435 8.46754783,11.9757913 7.68890435,11.9757913 L7.68890435,11.9757217 L7.68890435,11.9757217 Z M12.2280348,11.9757217 C11.4493913,11.9757217 10.8181565,11.3466435 10.8181565,10.5705043 C10.8181565,9.79450435 11.4493913,9.16535652 12.2280348,9.16535652 C13.0066783,9.16535652 13.637913,9.79450435 13.637913,10.5705739 C13.637913,11.3466435 13.0066783,11.9757913 12.2280348,11.9757913 L12.2280348,11.9757217 L12.2280348,11.9757217 Z M16.7671652,11.9757217 C15.9884522,11.9757217 15.357287,11.3466435 15.357287,10.5705043 C15.357287,9.79450435 15.9884522,9.16535652 16.7671652,9.16535652 C17.5458087,9.16535652 18.1770435,9.79450435 18.1770435,10.5705739 C18.1770435,11.3466435 17.5458087,11.9757913 16.7671652,11.9757913 L16.7671652,11.9757217 L16.7671652,11.9757217 Z"/></g></g></g></svg>