<svg xmlns="http://www.w3.org/2000/svg" width="120" height="120" viewBox="0 0 120 120"><g fill="none" fill-rule="nonzero"><path fill="#3561FF" d="M39.844 120H0v-15.234c0-7.109 5.782-12.891 12.89-12.891h14.063c7.108 0 12.89 5.782 12.89 12.89V120zM120 120H80.156v-15.234c0-7.109 5.783-12.891 12.89-12.891h14.063c7.109 0 12.891 5.782 12.891 12.89V120z"/><path fill="#FF7815" d="M56.484 48.047h7.032V69.14h-7.032zM30.472 80.359l21.329-7.5 2.332 6.634-21.329 7.5z"/><path fill="#3561FF" d="M79.922 51.563H40.078V36.328c0-7.108 5.783-12.89 12.89-12.89h14.063c7.108 0 12.89 5.782 12.89 12.89v15.234z"/><path fill="#FF7815" d="M65.864 79.484l2.333-6.634 21.328 7.5-2.332 6.633z"/><path fill="#FFB900" d="M60 86.719c-5.815 0-10.547-4.732-10.547-10.547 0-5.816 4.732-10.547 10.547-10.547s10.547 4.731 10.547 10.547c0 5.815-4.732 10.547-10.547 10.547z"/><g fill="#F9E0DA"><path d="M100.078 98.906c-8.4 0-15.234-6.834-15.234-15.234s6.834-15.234 15.234-15.234 15.234 6.834 15.234 15.234-6.834 15.234-15.234 15.234zM19.922 98.906c-8.4 0-15.235-6.834-15.235-15.234s6.835-15.234 15.235-15.234c8.4 0 15.234 6.834 15.234 15.234s-6.834 15.234-15.234 15.234zM60 30.469c-8.4 0-15.234-6.835-15.234-15.235C44.766 6.834 51.6 0 60 0s15.234 6.834 15.234 15.234S68.4 30.47 60 30.47z"/></g></g></svg>