<svg xmlns="http://www.w3.org/2000/svg" xmlns:xlink="http://www.w3.org/1999/xlink" width="24" height="24" version="1.1" viewBox="0 0 24 24"><title>93E22D91-1AB8-4F3A-BEFA-02664D783EDB</title><desc>Created with sketchtool.</desc><defs><path id="path-1" d="M3.63,3.635 C3.24,4.025 3.24,4.655 3.63,5.045 L7.29,8.705 L7,9.005 L4,9.005 C3.45,9.005 3,9.455 3,10.005 L3,14.005 C3,14.555 3.45,15.005 4,15.005 L7,15.005 L10.29,18.295 C10.92,18.925 12,18.475 12,17.585 L12,13.415 L16.18,17.595 C15.69,17.965 15.16,18.275 14.58,18.505 C14.22,18.655 14,19.035 14,19.425 C14,20.145 14.73,20.605 15.39,20.335 C16.19,20.005 16.94,19.565 17.61,19.025 L18.95,20.365 C19.34,20.755 19.97,20.755 20.36,20.365 C20.75,19.975 20.75,19.345 20.36,18.955 L5.05,3.635 C4.66,3.245 4.03,3.245 3.63,3.635 Z M19,12.005 C19,12.825 18.85,13.615 18.59,14.345 L20.12,15.875 C20.68,14.705 21,13.395 21,12.005 C21,8.175 18.6,4.895 15.22,3.605 C14.63,3.375 14,3.835 14,4.465 L14,4.655 C14,5.035 14.25,5.365 14.61,5.505 C17.18,6.545 19,9.065 19,12.005 Z M10.29,5.715 L10.12,5.885 L12,7.765 L12,6.415 C12,5.525 10.92,5.085 10.29,5.715 Z M16.5,12.005 C16.5,10.235 15.48,8.715 14,7.975 L14,9.765 L16.48,12.245 C16.49,12.165 16.5,12.085 16.5,12.005 Z"/></defs><g id="Rounded-icons" fill="none" fill-rule="evenodd" stroke="none" stroke-width="1"><g id="icon/av/volume_off_24px"><mask id="mask-2" fill="#fff"><use xlink:href="#path-1"/></mask><g id="✱-/-Color-/-Icons-/-Black-/-Inactive" fill="#000" fill-opacity=".54" mask="url(#mask-2)"><rect id="Rectangle" width="24" height="24" x="0" y="0"/></g></g></g></svg>