<?xml version="1.0" encoding="UTF-8" standalone="no"?><!DOCTYPE svg PUBLIC "-//W3C//DTD SVG 1.1//EN" "http://www.w3.org/Graphics/SVG/1.1/DTD/svg11.dtd"><svg width="100%" height="100%" viewBox="0 0 895 281" version="1.1" xmlns="http://www.w3.org/2000/svg" xmlns:xlink="http://www.w3.org/1999/xlink" xml:space="preserve" xmlns:serif="http://www.serif.com/" style="fill-rule:evenodd;clip-rule:evenodd;stroke-linejoin:round;stroke-miterlimit:2;"><path d="M210.844,172.425l24.465,0c14.194,0 20.532,1.062 25.969,4.681c6.647,4.235 10.269,11.475 10.269,20.844c0,12.678 -7.553,21.737 -20.984,25.359c15.699,1.963 24.762,11.475 24.762,26.119c0,11.325 -5.594,20.994 -15.106,25.672c-6.041,3.019 -11.769,3.928 -25.663,3.928l-23.712,0l0,-106.603Zm23.862,46.959c14.953,0 22.5,-6.647 22.5,-19.931c0,-13.431 -6.497,-18.575 -23.406,-18.575l-9.663,0l0,38.506l10.569,0Zm0,51.185c10.416,0 15.1,-1.05 19.472,-4.528c4.228,-3.475 6.8,-9.663 6.8,-17.057c0,-14.653 -7.25,-20.993 -24.456,-20.993l-12.385,0l0,42.578l10.569,0Z" style="fill:#00539c;fill-rule:nonzero;"/><path d="M353.534,276.156c-13.128,3.025 -20.681,4.231 -26.118,4.231c-22.797,0 -35.188,-13.137 -35.188,-37.446c0,-26.275 12.991,-41.975 34.431,-41.975c14.947,0 24.757,7.093 28.388,20.837c1.362,4.678 1.809,9.213 1.966,18.878l-50.885,0c0.144,0.441 0.144,0.9 0.144,1.053l0,2.716c0.306,18.116 8.762,26.119 27.644,26.119c5.118,0 10.712,-0.45 19.618,-1.653l0,7.24Zm-10.715,-43.175c0,-17.218 -4.982,-24.018 -17.366,-24.018c-12.381,0 -19.181,8.456 -19.325,24.018l36.691,0Z" style="fill:#00539c;fill-rule:nonzero;"/><path d="M390.831,202.322l0,5.737c11.019,-4.834 16.61,-6.8 19.622,-6.8c3.178,0 5.75,0.613 8.16,1.966l0,12.231c-4.076,-2.109 -9.21,-3.168 -15.404,-3.168c-3.475,0 -8.15,0.609 -12.075,1.512l0,65.228l-12.834,0l0,-76.706l12.531,0Z" style="fill:#00539c;fill-rule:nonzero;"/><path d="M434.3,162.156l12.844,0l0,116.872l-12.844,0l0,-116.872Zm14.494,74.291l32.469,-34.125l15.393,0l-33.515,32.622l33.515,44.084l-16.759,0l-31.103,-42.581Z" style="fill:#00539c;fill-rule:nonzero;"/><path d="M565.081,276.156c-13.147,3.025 -20.69,4.231 -26.128,4.231c-22.803,0 -35.178,-13.137 -35.178,-37.446c0,-26.275 12.975,-41.975 34.425,-41.975c14.947,0 24.766,7.093 28.381,20.837c1.363,4.678 1.816,9.213 1.969,18.878l-50.888,0c0.15,0.441 0.15,0.9 0.15,1.053l0,2.716c0.301,18.116 8.754,26.119 27.635,26.119c5.137,0 10.719,-0.45 19.634,-1.653l0,7.24Zm-10.728,-43.175c0,-17.218 -4.984,-24.018 -17.365,-24.018c-12.385,0 -19.176,8.456 -19.326,24.018l36.691,0Z" style="fill:#00539c;fill-rule:nonzero;"/><rect x="589.831" y="162.156" width="12.838" height="116.872" style="fill:#00539c;fill-rule:nonzero;"/><rect x="628.641" y="162.156" width="12.834" height="116.872" style="fill:#00539c;fill-rule:nonzero;"/><path d="M707.466,279.028l0,-4.681c-0.613,0.15 -1.063,0.306 -1.363,0.453c-15.55,5.284 -15.706,5.284 -20.534,5.284c-13.744,0 -22.803,-8.603 -22.803,-21.587c0,-12.991 7.55,-20.391 22.347,-21.897c7.246,-0.753 10.725,-0.909 21.89,-0.909l0,-10.722c0,-10.106 -4.072,-14.041 -14.491,-14.041c-6.346,0 -14.053,0.909 -22.956,2.419l0,-7.547c14.8,-3.619 21.603,-4.834 27.485,-4.834c7.843,0 14.046,2.118 17.821,6.187c3.769,4.078 4.985,8.61 4.985,19.934l0,51.941l-12.381,0Zm-0.463,-36.241c-10.415,0.46 -11.472,0.46 -16.45,1.213c-9.512,1.212 -14.047,5.588 -14.047,13.438c0,8.603 5.588,12.984 16.453,12.984c4.528,0 8.772,-0.453 14.044,-1.66l0,-25.975Z" style="fill:#00539c;fill-rule:nonzero;"/><path d="M745.506,202.322l12.535,0l0,4.831c14.193,-5.281 18.878,-6.494 25.221,-6.494c7.394,0 14.638,3.025 18.416,7.557c3.778,4.681 5.285,10.568 5.285,21.737l0,49.075l-12.832,0l0,-46.353c0,-16.912 -4.234,-22.047 -17.972,-22.047c-5.437,0 -11.321,0.756 -17.812,2.413l0,65.987l-12.841,0l0,-76.706Z" style="fill:#00539c;fill-rule:nonzero;"/><path d="M881.856,279.028l0,-4.531c-0.6,0.156 -1.053,0.303 -1.359,0.45c-12.075,4.387 -16.609,5.587 -21.138,5.587c-19.175,0 -31.862,-15.096 -31.862,-37.747c0,-23.556 16.003,-41.368 37.15,-41.368c5.891,0 11.625,1.212 17.209,3.772l0,-43.035l12.838,0l0,116.872l-12.838,0Zm0,-67.041c-3.622,-0.906 -8.759,-1.506 -12.981,-1.506c-17.369,0 -27.337,11.322 -27.337,31.1c0,18.419 9.215,28.988 25.068,28.988c5.438,0 10.566,-0.6 15.25,-1.807l0,-56.775Z" style="fill:#00539c;fill-rule:nonzero;"/><path d="M83.484,246.441l-13.115,2.215l-14.035,-6.772l-14.856,2.194l-41.478,-17.45l37.481,-4.8l46.003,24.613Z" style="fill:#e8821c;fill-rule:nonzero;"/><path d="M94.019,195.072l-14.781,3.328l-16.429,-15.35l-20.156,2.741l-28.116,-22.516l46.004,-9.287l33.478,41.084Z" style="fill:#e8821c;fill-rule:nonzero;"/><path d="M76.534,131.262l20.472,-5.35l12.35,14.657l11.819,-4.253l-27.806,-46.257l-49.988,11.41l33.153,29.793Z" style="fill:#e8821c;fill-rule:nonzero;"/><path d="M123.569,90.891l24.931,-7.138l9.813,18.572l15.34,-3.513l-27.494,-59.609l-48.981,12.878l26.391,38.81Z" style="fill:#e8821c;fill-rule:nonzero;"/><path d="M177.119,56.978l28.125,-5.103l4.987,12.941l15.707,-1.666l-15.432,-55.503l-46.39,8.369l13.003,40.962Z" style="fill:#e8821c;fill-rule:nonzero;"/><path d="M232.788,44.806l24.931,0.047l0.55,7.584l19.778,1.847l-1.997,-54.284l-44.45,1.234l1.188,43.572Z" style="fill:#e8821c;fill-rule:nonzero;"/><path d="M294.497,16.141l-0.663,24.687l8.919,2.272l0.113,8.137l24.272,9.291l10.862,-49.315l-43.503,4.928Z" style="fill:#e8821c;fill-rule:nonzero;"/><path d="M349.253,52.403l42.588,-2.303l-26.319,40.084l-23.922,-20.478l7.653,-17.303Z" style="fill:#e8821c;fill-rule:nonzero;"/><path d="M376.862,106.087l16.226,20.607l34.543,-28.825l-40.909,-8.232l-9.86,16.45Z" style="fill:#e8821c;fill-rule:nonzero;"/></svg>