<svg xmlns="http://www.w3.org/2000/svg" width="72" height="72" fill="none" viewBox="0 0 72 72"><g clip-path="url(#clip0)"><path fill="url(#paint0_linear)" d="M71.9996 24.6495C71.9813 26.0321 71.4257 27.3246 70.4341 28.288L35.9993 61.8059L28.6532 68.9564C28.5955 69.0126 28.5365 69.0647 28.476 69.1153L28.4563 69.1336C28.4001 69.1842 28.3438 69.2334 28.2862 69.2798C28.2215 69.3318 28.1568 69.3797 28.0907 69.4275L28.0541 69.4542C27.9937 69.4978 27.9332 69.5414 27.8699 69.5822C27.801 69.6272 27.7307 69.6693 27.6604 69.7087L27.6238 69.7312C27.5605 69.7692 27.4958 69.8057 27.4312 69.8395C27.3566 69.8789 27.2821 69.9126 27.2076 69.9464L27.1724 69.9618C27.1063 69.9928 27.0402 70.0223 26.9741 70.049C26.8926 70.0828 26.8124 70.1109 26.7308 70.1376L26.7041 70.1461C26.6352 70.1714 26.5691 70.1939 26.503 70.2136C26.4116 70.2403 26.3216 70.2614 26.2302 70.2825L26.2162 70.2853C26.1472 70.3036 26.0854 70.3176 26.0221 70.3303C25.8927 70.3542 25.783 70.3682 25.7001 70.3781C25.6424 70.3879 25.589 70.395 25.5341 70.3992C25.371 70.4147 25.2065 70.4231 25.0432 70.4231C24.8773 70.4231 24.7099 70.4147 24.5438 70.3992C24.4862 70.3936 24.4285 70.3851 24.3695 70.3767C24.2879 70.3654 24.1768 70.3514 24.0474 70.3261C23.9828 70.3134 23.9167 70.2979 23.8506 70.2811L23.8351 70.2768C23.7423 70.2558 23.6509 70.2333 23.5609 70.2065C23.4906 70.1854 23.4245 70.1629 23.3598 70.139L23.3288 70.1278C23.2459 70.0997 23.1629 70.0701 23.0799 70.0364C23.0152 70.0097 22.9477 69.9787 22.8802 69.9464L22.8437 69.9295C22.7677 69.8943 22.6918 69.8592 22.6187 69.8198C22.5526 69.7847 22.4851 69.7453 22.419 69.7059L22.3824 69.6834C22.3121 69.6426 22.2418 69.6004 22.1729 69.554C22.1096 69.5118 22.0463 69.4654 21.9831 69.4176L21.9451 69.3895C21.8804 69.3417 21.8157 69.2939 21.7524 69.2418C21.6934 69.1926 21.6343 69.1392 21.5767 69.0858L21.5584 69.0689C21.4965 69.014 21.4388 68.962 21.3826 68.9058L1.51369 49.0378C-0.504562 47.0196 -0.504562 43.7368 1.51369 41.7184C2.49117 40.741 3.79083 40.2022 5.17331 40.2022C6.5558 40.2022 7.85545 40.741 8.83294 41.7184L25.0919 57.9774L35.9992 47.3613L63.2146 20.8716C65.261 18.8801 68.5437 18.9251 70.534 20.9701C71.4974 21.9603 72.0193 23.2669 71.9996 24.6495Z"/><path fill="#9BDDD0" d="M27.6027 30.0525C25.4419 28.8668 23.673 27.0979 22.4872 24.9373C22.0545 24.1485 21.227 23.6584 20.3271 23.6584C20.327 23.6584 20.327 23.6584 20.327 23.6584C19.4274 23.6584 18.5995 24.1484 18.1665 24.937C16.9808 27.0979 15.2119 28.8668 13.0509 30.0527C12.2621 30.4856 11.7723 31.3134 11.7725 32.2132C11.7725 33.1128 12.2627 33.9407 13.051 34.3732C15.2119 35.559 16.9808 37.3279 18.1667 39.4889C18.5997 40.2776 19.4274 40.7674 20.3272 40.7673C21.2268 40.7673 22.0547 40.2771 22.4872 39.4887C23.6731 37.3278 25.442 35.5588 27.6029 34.3731C28.3915 33.9404 28.8814 33.1128 28.8814 32.2131C28.8814 31.3135 28.3915 30.4855 27.6027 30.0525Z"/><path fill="#9BDDD0" d="M49.98 22.7901C49.98 23.6889 49.4891 24.5173 48.7016 24.9491C46.5397 26.1347 44.7718 27.9041 43.5848 30.0659C43.1529 30.8536 42.3246 31.3443 41.4258 31.3443C41.4243 31.3443 41.4243 31.3443 41.4243 31.3443C40.5242 31.3443 39.6972 30.8534 39.2641 30.0645C38.4385 28.5595 37.3288 27.2431 36.001 26.184C35.4243 25.7212 34.8055 25.3077 34.1501 24.9491C33.361 24.5173 32.8701 23.689 32.8701 22.7901C32.8701 21.89 33.361 21.0616 34.1485 20.6297C34.804 20.2697 35.4227 19.8561 36.0009 19.3949C37.3286 18.3344 38.4383 17.0193 39.2653 15.5129C39.697 14.7253 40.5241 14.2345 41.4243 14.2345C41.4243 14.2345 41.4243 14.2345 41.4258 14.2345C42.3245 14.2345 43.1529 14.7254 43.5848 15.5129C44.7718 17.6747 46.5397 19.4441 48.7016 20.6297C49.4891 21.0616 49.98 21.89 49.98 22.7901Z"/><path fill="#9BDDD0" d="M31.8225 7.97074C29.6616 6.78499 27.8927 5.01607 26.707 2.8555C26.2743 2.06674 25.4467 1.57666 24.5468 1.57666C24.5467 1.57666 24.5467 1.57666 24.5467 1.57666C23.6471 1.57666 22.8193 2.0666 22.3863 2.85522C21.2005 5.01607 19.4316 6.78499 17.2706 7.97088C16.4818 8.40387 15.992 9.23159 15.9922 10.1314C15.9922 11.031 16.4824 11.8589 17.2708 12.2914C19.4316 13.4772 21.2005 15.2461 22.3864 17.4071C22.8194 18.1959 23.6471 18.6857 24.547 18.6855C25.4465 18.6855 26.2744 18.1953 26.707 17.407C27.8929 15.246 29.6618 13.4771 31.8226 12.2913C32.6113 11.8585 33.1012 11.031 33.1012 10.1313C33.1012 9.23173 32.6113 8.40373 31.8225 7.97074Z"/><path fill="#197E6A" d="M71.9993 24.6495C71.981 26.0321 71.4254 27.3246 70.4338 28.288L35.999 61.8059V47.3613L63.2143 20.8716C65.2607 18.8801 68.5434 18.9251 70.5337 20.9701C71.4971 21.9603 72.0189 23.2669 71.9993 24.6495Z"/><path fill="#197E6A" d="M49.978 22.7901C49.978 23.6888 49.4871 24.5172 48.6996 24.9491C46.5377 26.1347 44.7698 27.904 43.5828 30.0658C43.1509 30.8535 42.3227 31.3443 41.4238 31.3443C41.4224 31.3443 41.4224 31.3443 41.4224 31.3443C40.5222 31.3443 39.6952 30.8534 39.2621 30.0644C38.4365 28.5595 37.3268 27.2431 35.999 26.1839V19.3948C37.3268 18.3344 38.4365 17.0192 39.2635 15.5129C39.6952 14.7252 40.5222 14.2344 41.4225 14.2344C41.4225 14.2344 41.4225 14.2344 41.4239 14.2344C42.3226 14.2344 43.1511 14.7254 43.5829 15.5129C44.7699 17.6747 46.5379 19.444 48.6997 20.6296C49.4871 21.0615 49.978 21.8899 49.978 22.7901Z"/></g><defs><linearGradient id="paint0_linear" x1="-44" x2="36" y1="19" y2="70.423" gradientUnits="userSpaceOnUse"><stop stop-color="#9BDDD0"/><stop offset="1" stop-color="#197E6A"/></linearGradient><clipPath id="clip0"><rect width="72" height="72" fill="#fff"/></clipPath></defs></svg>