<svg xmlns="http://www.w3.org/2000/svg" width="230" height="77" fill="none" viewBox="0 0 230 77"><g clip-path="url(#clip0)"><path fill="#A80A2D" d="M76.6125 59.2851L76.8831 57.3289L79.9671 56.5138L82.9428 34.8321L80.0753 34.017L80.3458 32.0607H86.8925L95.928 53.4708L98.4709 34.8864L95.6034 34.0713L95.8739 32.1151H104.585L104.26 34.0713L101.176 34.8864L97.8758 59.3395H95.0082L85.4858 36.6253L82.7264 56.5681L85.4858 57.3832L85.1611 59.3395H76.6125V59.2851Z"/><path fill="#A80A2D" d="M108.643 56.2964H111.997L111.672 58.1983L108.859 59.1221C108.426 59.2851 107.993 59.3938 107.615 59.4482C107.236 59.5025 106.965 59.5568 106.695 59.5568C106.154 59.5568 105.775 59.4482 105.504 59.1765C105.234 58.9048 105.126 58.5244 105.126 58.0353C105.126 57.8723 105.126 57.7093 105.18 57.4376C105.234 57.1659 105.234 56.9485 105.288 56.6225L107.723 41.3529L104.639 40.7008L104.909 38.9619L111.51 38.0381L108.643 56.2964ZM110.374 34.9408C109.833 34.9408 109.4 34.7777 109.075 34.506C108.751 34.18 108.588 33.7453 108.588 33.2019C108.588 32.3324 108.805 31.626 109.184 31.1369C109.562 30.6479 110.103 30.3218 110.753 30.3218C111.294 30.3218 111.727 30.4849 112.051 30.7566C112.376 31.0283 112.538 31.463 112.538 31.952C112.538 32.8215 112.322 33.5822 111.943 34.1256C111.564 34.6147 111.023 34.9408 110.374 34.9408Z"/><path fill="#A80A2D" d="M120.383 57.9266C119.788 62.4369 118.814 65.3712 117.57 66.8384C116.326 68.3056 114.432 69.012 111.889 69.012C111.24 69.012 110.645 68.9577 110.049 68.849C109.454 68.7403 108.967 68.5773 108.48 68.3056L109.076 64.3388H111.24L112.051 66.7297C113.512 66.6754 114.594 66.132 115.298 65.0452C116.001 64.0127 116.596 61.6218 117.029 57.981L119.193 41.2985L116.109 40.6465L116.38 38.9076L122.926 37.9838L120.383 57.9266ZM122.061 34.9408C121.52 34.9408 121.087 34.7777 120.762 34.506C120.438 34.18 120.275 33.7453 120.275 33.2019C120.275 32.3324 120.492 31.6803 120.924 31.1369C121.357 30.5935 121.898 30.3218 122.548 30.3218C123.089 30.3218 123.467 30.4849 123.792 30.7566C124.117 31.0283 124.279 31.463 124.279 31.952C124.279 32.8215 124.063 33.5822 123.684 34.1256C123.251 34.6147 122.71 34.9408 122.061 34.9408Z"/><path fill="#A80A2D" d="M140.564 43.8525C140.619 43.6352 140.619 43.4178 140.673 43.2005C140.727 42.9831 140.727 42.7657 140.727 42.6027C140.727 42.1137 140.619 41.7876 140.402 41.5159C140.186 41.2986 139.861 41.1899 139.374 41.1899C138.671 41.1899 137.805 41.4072 136.723 41.7876C135.641 42.2223 134.451 42.8201 133.098 43.5808L130.663 59.2851H127.363L130.122 41.3529L126.984 40.7008L127.255 38.9619L133.964 38.0381L133.477 41.3529C134.775 40.2661 136.02 39.451 137.21 38.9076C138.4 38.3642 139.536 38.1468 140.673 38.1468C141.809 38.1468 142.675 38.4185 143.27 39.0163C143.865 39.5597 144.19 40.3748 144.19 41.3529C145.542 40.2661 146.841 39.451 148.031 38.9619C149.221 38.4185 150.412 38.1468 151.548 38.1468C152.684 38.1468 153.55 38.4185 154.145 39.0163C154.74 39.614 155.011 40.4291 155.011 41.5703C155.011 41.842 155.011 42.1137 154.956 42.494C154.902 42.8744 154.848 43.2548 154.794 43.7982L152.846 56.3508H156.201L155.93 58.2527L153.063 59.1765C152.576 59.3395 152.143 59.4482 151.764 59.5025C151.385 59.6112 151.061 59.6112 150.844 59.6112C150.357 59.6112 149.979 59.5025 149.762 59.2308C149.492 58.9591 149.384 58.5787 149.384 58.0897C149.384 57.9266 149.384 57.7636 149.438 57.5463C149.438 57.3289 149.492 57.0572 149.546 56.7312L151.494 43.9612C151.548 43.7982 151.548 43.5808 151.602 43.4178C151.656 43.2548 151.602 42.9831 151.602 42.7114C151.602 42.2223 151.494 41.842 151.277 41.6246C151.061 41.4072 150.736 41.2986 150.249 41.2986C149.546 41.2986 148.626 41.5159 147.49 41.9506C146.354 42.3854 145.218 42.9831 143.973 43.7982L141.538 59.3938H138.13L140.564 43.8525Z"/><path fill="#A80A2D" d="M170.917 56.2964C169.944 57.4375 168.807 58.307 167.617 58.9047C166.427 59.5025 165.182 59.8285 163.884 59.8285C161.99 59.8285 160.583 59.1764 159.555 57.9266C158.582 56.6768 158.041 54.8836 158.041 52.4926C158.041 48.2541 158.96 44.7763 160.854 42.0593C162.748 39.3423 165.128 37.9838 167.996 37.9838C169.511 37.9838 170.701 38.3641 171.513 39.1792C172.324 39.9943 172.757 41.1355 172.757 42.657C172.757 44.7219 171.891 46.3521 170.214 47.5476C168.537 48.7431 166.21 49.3409 163.18 49.3409H161.557C161.503 49.8843 161.449 50.3733 161.449 50.808C161.395 51.2428 161.395 51.6231 161.395 51.8948C161.395 53.525 161.666 54.7749 162.261 55.59C162.856 56.4051 163.722 56.8398 164.912 56.8398C165.615 56.8398 166.373 56.6768 167.13 56.2964C167.942 55.9704 168.753 55.427 169.673 54.6662L170.917 56.2964ZM162.044 46.8956C162.207 46.8956 162.369 46.8956 162.531 46.9499H163.289C165.453 46.9499 167.022 46.6238 168.104 45.9174C169.132 45.211 169.673 44.1785 169.673 42.7114C169.673 42.0049 169.457 41.4072 169.024 41.0268C168.591 40.5921 167.996 40.3747 167.292 40.3747C165.994 40.3747 164.912 40.9181 164.046 42.0593C163.072 43.2004 162.423 44.8306 162.044 46.8956Z"/><path fill="#A80A2D" d="M180.007 51.3514C178.655 50.9167 177.627 50.156 176.869 49.1235C176.112 48.091 175.733 46.8412 175.733 45.4284C175.733 43.2548 176.436 41.4615 177.843 40.0487C179.25 38.6358 181.089 37.9838 183.308 37.9838C184.227 37.9838 185.039 38.1468 185.796 38.4185C186.554 38.6902 187.365 39.1249 188.177 39.777C189.043 39.1792 189.908 38.7989 190.774 38.5272C191.64 38.2555 192.505 38.1468 193.425 38.1468C193.75 38.1468 194.237 38.2011 194.832 38.3098C194.94 38.3098 194.994 38.3641 195.048 38.3641L194.616 41.3529H189.151C189.476 41.8419 189.692 42.331 189.8 42.9287C189.962 43.4721 190.017 44.1242 190.017 44.7763C190.017 46.8412 189.313 48.5258 187.961 49.8843C186.608 51.1884 184.823 51.8405 182.658 51.8405H182.171C182.063 51.8405 181.955 51.8405 181.847 51.7862C181.36 52.3296 181.035 52.8186 180.765 53.2534C180.548 53.6881 180.386 54.1228 180.386 54.4488C180.386 55.2096 181.36 55.753 183.362 56.079C183.903 56.1877 184.281 56.2421 184.606 56.2964C187.582 56.8398 189.476 57.4919 190.341 58.144C191.207 58.8504 191.64 59.7742 191.64 61.024C191.64 63.2519 190.612 65.1538 188.556 66.7297C186.5 68.3056 183.957 69.1207 180.873 69.1207C178.438 69.1207 176.436 68.5773 174.867 67.5448C173.298 66.458 172.487 65.1538 172.487 63.578C172.487 62.4368 172.919 61.4044 173.731 60.5349C174.543 59.6112 175.841 58.6874 177.681 57.7636C177.248 57.4919 176.977 57.2202 176.815 56.8941C176.653 56.5681 176.544 56.2421 176.544 55.8073C176.544 54.9922 176.815 54.2315 177.302 53.5251C178.005 52.7643 178.817 52.0579 180.007 51.3514ZM179.466 58.2526C178.222 59.2851 177.302 60.1546 176.815 60.861C176.328 61.5674 176.058 62.3282 176.058 63.0346C176.058 64.1214 176.544 65.0452 177.464 65.6972C178.384 66.3493 179.683 66.6754 181.306 66.6754C183.308 66.6754 184.931 66.2406 186.283 65.3169C187.636 64.3931 188.285 63.3606 188.285 62.0565C188.285 60.7523 187.095 59.8285 184.768 59.3394C184.606 59.2851 184.498 59.2851 184.444 59.2851L179.466 58.2526ZM179.304 45.9174C179.304 47.1129 179.574 47.9824 180.169 48.5801C180.711 49.1778 181.576 49.5039 182.604 49.5039C183.795 49.5039 184.768 49.0148 185.418 48.0367C186.067 47.0586 186.446 45.7001 186.446 43.9612C186.446 42.7657 186.175 41.8963 185.634 41.2985C185.093 40.7008 184.336 40.3747 183.308 40.3747C182.063 40.3747 181.089 40.8638 180.386 41.8419C179.683 42.82 179.304 44.1242 179.304 45.9174Z"/><path fill="#A80A2D" d="M207.817 56.2964C206.843 57.4375 205.707 58.307 204.517 58.9047C203.326 59.5025 202.082 59.8285 200.783 59.8285C198.89 59.8285 197.483 59.1764 196.455 57.9266C195.481 56.6768 194.94 54.8836 194.94 52.4926C194.94 48.2541 195.86 44.7763 197.754 42.0593C199.647 39.3423 202.028 37.9838 204.895 37.9838C206.41 37.9838 207.601 38.3641 208.412 39.1792C209.224 39.9943 209.657 41.1355 209.657 42.657C209.657 44.7219 208.791 46.3521 207.114 47.5476C205.436 48.7431 203.11 49.3409 200.08 49.3409H198.457C198.403 49.8843 198.349 50.3733 198.349 50.808C198.295 51.2428 198.295 51.6231 198.295 51.8948C198.295 53.525 198.565 54.7749 199.16 55.59C199.755 56.4051 200.621 56.8398 201.811 56.8398C202.515 56.8398 203.272 56.6768 204.03 56.2964C204.787 55.916 205.653 55.427 206.573 54.6662L207.817 56.2964ZM198.89 46.8956C199.052 46.8956 199.214 46.8956 199.377 46.9499C199.539 47.0042 199.81 46.9499 200.134 46.9499C202.298 46.9499 203.867 46.6238 204.949 45.9174C205.977 45.211 206.519 44.1785 206.519 42.7114C206.519 42.0049 206.302 41.4072 205.869 41.0268C205.436 40.5921 204.841 40.3747 204.138 40.3747C202.893 40.3747 201.757 40.9181 200.892 42.0593C199.918 43.2004 199.268 44.8306 198.89 46.8956Z"/><path fill="#A80A2D" d="M215.283 59.2851H211.983L214.742 41.3528L211.658 40.8094L211.929 38.9619L218.53 38.0381L217.989 41.4615C219.341 40.3204 220.64 39.5053 221.83 38.9619C223.02 38.4185 224.211 38.1468 225.401 38.1468C226.537 38.1468 227.349 38.4185 227.944 39.0162C228.539 39.614 228.81 40.4291 228.81 41.5702C228.81 41.7876 228.81 42.0593 228.756 42.4396C228.701 42.7657 228.647 43.2004 228.593 43.7438L226.646 56.2964H230L229.729 58.1983L226.862 59.1221C226.375 59.2851 225.942 59.3938 225.563 59.4481C225.185 59.5024 224.86 59.5568 224.644 59.5568C224.157 59.5568 223.778 59.4481 223.507 59.1764C223.237 58.9047 223.129 58.5243 223.129 58.0353C223.129 57.8722 223.129 57.7092 223.183 57.4919C223.183 57.2745 223.237 57.0028 223.291 56.6768L225.293 43.9068C225.347 43.7438 225.347 43.5264 225.347 43.3634V42.657C225.347 42.1679 225.239 41.8419 225.022 41.5702C224.806 41.2985 224.481 41.2442 223.994 41.2442C223.399 41.2442 222.696 41.4072 221.776 41.7332C220.856 42.0593 219.504 42.7113 217.61 43.6895L215.283 59.2851Z"/><path fill="#A80A2D" d="M39.3342 65.1539C41.1738 65.5343 42.0936 65.9146 42.0936 65.9146C43.2839 63.7954 43.6085 62.1652 43.0675 60.861C42.4182 59.1765 40.6328 58.47 39.0637 57.818C38.0898 57.4376 37.1159 57.0572 36.4126 56.4594C36.0339 56.1877 35.2223 55.1553 35.3305 51.7319C35.3846 49.6669 35.7633 47.765 35.7633 47.765L35.9797 46.6782C35.06 46.8956 34.1402 47.0586 33.0581 47.1673C33.0581 47.276 32.6252 49.3409 32.5711 51.6775C32.517 55.0466 33.2204 57.3289 34.6271 58.47C35.6551 59.2851 36.8995 59.7742 37.9816 60.2089C39.1719 60.698 40.254 61.1327 40.4705 61.7304C40.6328 62.1108 40.3081 63.415 39.3342 65.1539Z"/><path fill="#A80A2D" d="M32.0842 19.0734C32.0842 13.5307 32.6252 9.23785 33.6532 6.41216C34.3566 4.40158 35.3305 3.09741 36.3585 2.71703C38.0898 2.06495 40.3081 3.7495 41.0115 4.45592L41.4984 4.94498L42.2018 4.8363C45.4481 4.40158 46.0973 5.108 46.1515 5.16234C46.3679 5.43404 46.1515 6.14046 45.9891 6.4665L48.4239 7.66199C48.5321 7.44463 49.6683 5.3797 48.4239 3.69516C47.45 2.39099 45.5022 1.90193 42.5264 2.22797C42.1477 1.90193 41.5525 1.46721 40.7951 1.03249C38.9014 -0.0543151 37.0077 -0.271676 35.3846 0.326066C33.2204 1.08683 31.6513 3.26043 30.6774 6.79255C29.6495 3.26043 28.1345 1.14117 25.9703 0.326066C24.3472 -0.271676 22.4535 2.51203e-05 20.5598 1.03249C19.8565 1.41287 19.2072 1.90193 18.8285 2.22797C15.8527 1.90193 13.9049 2.39099 12.931 3.69516C11.6866 5.3797 12.7687 7.44463 12.931 7.66199L15.3658 6.4665C15.2034 6.14046 14.987 5.48838 15.2034 5.16234C15.2575 5.108 15.9068 4.40158 19.1531 4.8363L19.8565 4.94498L20.3434 4.45592C20.3434 4.45592 21.0468 3.80384 22.0207 3.26044C23.1569 2.60835 24.1849 2.44533 24.9964 2.71703C26.0785 3.09741 26.9983 4.40158 27.7017 6.41216C28.7297 9.29219 29.2166 13.5307 29.2707 19.0734V25.8659H32.0842V19.0734Z"/><path fill="#A80A2D" d="M25.267 10.5964C24.8342 8.47714 24.0226 7.44468 23.9685 7.336L21.7502 8.91186C21.7502 8.91186 22.3453 9.67263 22.6159 11.3028C23.1028 14.0742 22.3453 17.1716 21.642 19.2908L24.2931 20.0516C25.4293 16.4651 25.7539 13.2591 25.267 10.5964Z"/><path fill="#A80A2D" d="M39.7671 19.2365C37.3865 12.0093 39.6589 8.85754 39.6589 8.85754L37.4406 7.28168C37.3324 7.39036 36.5208 8.47716 36.142 10.5421C35.601 13.2591 35.9797 16.4108 37.1159 19.9429L39.7671 19.2365Z"/><path fill="#A80A2D" d="M33.2745 66.0233C33.0039 67.7622 32.517 70.2075 31.2726 71.729C31.0562 72.0007 30.8397 72.2181 30.6774 72.4355C30.5151 72.2181 30.2987 72.0007 30.0823 71.729C28.7838 70.2075 28.3509 67.7622 28.0804 66.0233L25.321 66.3494C25.5916 68.3599 26.1867 71.2943 27.9181 73.3049C29.0002 74.6091 29.433 75.1525 29.5412 75.3155C29.8118 75.7502 30.6774 77 30.6774 77C30.6774 77 31.5431 75.7502 31.8136 75.3155C31.9218 75.1525 32.3006 74.6091 33.4368 73.3049C34.2484 72.3268 35.3846 70.5879 36.0338 66.3494L33.2745 66.0233Z"/><path fill="#A80A2D" d="M13.3098 48.6888L14.2837 51.1341C16.9348 50.2103 19.2073 48.3627 20.8845 46.7325C19.6401 49.0148 18.3957 51.8405 18.5039 54.5575L21.2632 54.5032C21.2091 51.7318 22.9405 48.4714 24.2931 46.3522C22.67 45.8631 20.8845 45.211 19.586 44.2872C18.071 45.8088 15.7986 47.8193 13.3098 48.6888Z"/><path fill="#A80A2D" d="M10.7127 54.5032C10.3881 54.0685 9.90116 53.3077 9.14369 52.71C7.41233 51.2428 5.35635 50.9168 3.40857 51.8405L4.59888 54.1772C5.19403 53.9055 6.05971 53.6881 7.19591 54.6119C7.62875 54.9923 8.00749 55.427 8.22391 55.753C8.87316 54.9923 9.73884 54.5032 10.7127 54.5032Z"/><path fill="#A80A2D" d="M13.6345 56.6224L17.2054 53.4707L15.2035 51.6774L11.7949 54.6661C12.6606 55.0465 13.364 55.6986 13.6345 56.6224Z"/><path fill="#A80A2D" d="M13.7967 58.0353C14.1755 58.2526 14.7706 58.6874 15.3117 59.3394C16.015 60.2632 16.6643 61.8391 15.6363 64.1214L13.0934 63.0889C13.5262 62.2195 13.5262 61.4587 13.0934 60.9153C12.877 60.5893 12.5523 60.3719 12.39 60.2632C13.1475 59.7742 13.6885 58.9591 13.7967 58.0353Z"/><path fill="#A80A2D" d="M10.5504 62.2738C10.5504 61.5131 10.9291 60.6979 10.9291 60.6979H10.7127C9.79292 60.6979 8.92725 60.2632 8.3862 59.6111C8.3862 59.6111 7.73694 60.7523 7.73694 62.3282C7.73694 63.904 8.49441 66.4037 12.0112 67.8708L13.0933 65.3169C10.7127 64.2844 10.5504 63.0346 10.5504 62.2738Z"/><path fill="#A80A2D" d="M7.95335 58.9048C7.79104 58.5244 7.68283 58.0897 7.68283 57.6006C7.68283 57.1659 7.79104 56.6768 7.95335 56.2964C7.95335 56.2964 3.35444 56.4595 2.27234 60.9697C2.27234 60.9697 2.81339 61.7848 3.62496 62.6543C4.22012 63.252 5.08579 64.0128 5.08579 64.0128C3.89549 59.2308 7.95335 58.9048 7.95335 58.9048Z"/><path fill="#A80A2D" d="M22.0207 25.2682C22.4535 24.4531 22.8323 23.638 23.1569 22.8773C17.1513 20.1602 15.961 17.9323 14.7165 15.3783C13.6344 13.259 12.4441 10.8681 8.60268 8.25975C2.86756 4.34726 0.811574 1.57591 0 0.217407V4.51028C1.56904 6.19482 3.62503 8.04239 7.14185 10.4334C10.4423 12.6613 11.362 14.5632 12.39 16.5738C13.7427 19.3451 15.2035 22.1708 22.0207 25.2682Z"/><path fill="#A80A2D" d="M48.0452 48.6888L47.0713 51.1341C44.4202 50.2103 42.1478 48.3627 40.4705 46.7325C41.7149 49.0148 42.9593 51.8405 42.8511 54.5575L40.0918 54.5032C40.1459 51.7318 38.4145 48.4714 37.0619 46.3522C38.685 45.8631 40.4705 45.211 41.769 44.2872C43.3381 45.8088 45.5564 47.8193 48.0452 48.6888Z"/><path fill="#A80A2D" d="M50.6422 54.5032C50.9668 54.0685 51.4538 53.3077 52.2113 52.71C53.9426 51.2428 55.9986 50.9168 57.9464 51.8405L56.7561 54.1772C56.1609 53.9055 55.2952 53.6881 54.159 54.6119C53.7262 54.9923 53.3475 55.427 53.131 55.753C52.5359 54.9923 51.6161 54.5032 50.6422 54.5032Z"/><path fill="#A80A2D" d="M47.7206 56.6224L44.1497 53.4707L46.1515 51.6774L49.5601 54.6661C48.6945 55.0465 47.9911 55.6986 47.7206 56.6224Z"/><path fill="#A80A2D" d="M47.5583 58.0353C47.1795 58.2526 46.5844 58.6874 46.0433 59.3394C45.34 60.2632 44.6907 61.8391 45.7187 64.1214L48.2616 63.0889C47.8288 62.2195 47.8288 61.4587 48.2616 60.9153C48.4781 60.5893 48.8027 60.3719 48.965 60.2632C48.2075 59.7742 47.7206 58.9591 47.5583 58.0353Z"/><path fill="#A80A2D" d="M52.9686 59.6655C52.4276 60.3175 51.5619 60.7523 50.6421 60.7523H50.4257C50.4257 60.7523 50.8044 61.5674 50.8044 62.3281C50.8044 63.0889 50.6421 64.3387 48.2615 65.3712L49.3436 67.9252C52.8604 66.458 53.6179 63.9583 53.6179 62.3825C53.6179 60.8066 52.9686 59.6655 52.9686 59.6655Z"/><path fill="#A80A2D" d="M53.4557 56.2964C53.618 56.6768 53.7262 57.1116 53.7262 57.6006C53.7262 58.0897 53.618 58.5244 53.4557 58.9048C53.4557 58.9048 57.5135 59.2308 56.3232 64.0671C56.3232 64.0671 57.1889 63.3063 57.7841 62.7086C58.6498 61.7848 59.1908 61.024 59.1908 61.024C58.0546 56.5138 53.4557 56.2964 53.4557 56.2964Z"/><path fill="#A80A2D" d="M39.3343 25.2682C38.9015 24.4531 38.5227 23.638 38.1981 22.8773C44.2038 20.1602 45.3941 17.9323 46.6385 15.3783C47.7206 13.259 48.9109 10.8681 52.7523 8.25975C58.4875 4.34726 60.5434 1.52157 61.355 0.217407V4.51028C59.786 6.19482 57.73 8.04239 54.2132 10.4334C50.9128 12.6613 49.993 14.5632 48.965 16.5738C47.6124 19.3451 46.1515 22.1708 39.3343 25.2682Z"/><path fill="#A80A2D" d="M22.0208 65.1539C20.1812 65.5343 19.2614 65.9146 19.2614 65.9146C18.0711 63.7954 17.7465 62.1652 18.2876 60.861C18.9368 59.1765 20.7223 58.47 22.2913 57.818C23.2652 57.4376 24.2391 57.0572 24.9425 56.4594C25.3212 56.1877 26.1328 55.1553 26.0246 51.7319C25.9705 49.6669 25.5917 47.765 25.5917 47.765L25.3753 46.6782C26.2951 46.8956 27.2149 47.0586 28.297 47.1673C28.297 47.276 28.7298 49.3409 28.7839 51.6775C28.838 55.0466 28.1347 57.3289 26.7279 58.47C25.6999 59.2851 24.4555 59.7742 23.3734 60.2089C22.1831 60.698 21.101 61.1327 20.8846 61.7304C20.7223 62.1108 21.0469 63.415 22.0208 65.1539Z"/><path fill="#A80A2D" d="M18.6661 40.6465C19.2613 37.3861 19.64 35.0495 24.5095 35.0495V32.3868C17.4758 32.3868 16.6643 36.8971 16.0691 40.1575C15.9609 40.6465 15.9068 41.1356 15.7986 41.5703C16.2855 42.005 17.043 42.6028 18.071 43.3092C18.3415 42.4941 18.5038 41.5703 18.6661 40.6465Z"/><path fill="#A80A2D" d="M12.5523 27.2789C10.4964 28.8004 7.6829 31.7348 6.97953 36.7884C6.43848 40.6465 5.5187 42.9832 4.32839 44.559C4.05787 44.8851 2.43472 46.5696 0 47.8738V50.8625C0.757469 50.5364 1.67725 50.0474 2.32651 49.667C3.62503 48.8519 5.03176 47.9281 6.16796 46.5153C6.33027 46.2979 6.43848 46.1892 6.49259 46.1349C6.6549 45.9175 6.81722 45.7002 6.97953 45.4285C8.27805 43.4179 9.14373 40.8096 9.63067 37.1688C10.0094 34.4518 11.1456 32.1695 13.0393 30.3219C13.5262 29.8329 14.1214 29.3981 14.5001 29.0721C13.7968 28.4744 13.1475 27.8766 12.5523 27.2789Z"/><path fill="#A80A2D" d="M4.05787 30.4849C3.57092 31.6804 2.92167 33.0932 2.11009 34.1257C1.51494 34.8864 0.757469 35.3755 0 35.5385V38.2555C1.51494 38.0382 2.97577 37.2231 4.16608 35.8102C5.24818 34.506 5.95154 32.8758 6.49259 31.5173C7.52058 29.072 9.8471 26.7354 11.4161 25.866C10.8751 25.1052 10.4422 24.3444 10.1176 23.5837C7.89932 24.8335 5.24818 27.5505 4.05787 30.4849Z"/><path fill="#A80A2D" d="M7.03364 20.1602C5.4646 21.3013 3.3004 22.8229 0 22.9859V25.6485C4.16608 25.4855 6.76311 23.638 8.54858 22.3338C8.8191 22.1164 9.14373 21.9534 9.36015 21.7361C9.08963 20.8123 8.87321 19.8885 8.765 19.019C8.22395 19.3451 7.62879 19.7255 7.03364 20.1602Z"/><path fill="#A80A2D" d="M14.6624 31.4629C13.1475 32.9301 12.2277 34.7777 11.9031 37.0056C11.3079 40.9724 10.3881 43.9068 8.87319 46.1891C8.76498 46.3521 8.71087 46.4608 8.60266 46.6238L10.9292 48.0367L11.2538 47.5476C12.9311 44.9393 14.0132 41.7332 14.6624 37.386C14.8788 35.7015 15.5822 34.3429 16.6643 33.3105C16.9348 33.0931 17.3677 32.6041 18.3956 32.0607L18.4498 32.0063C18.8285 31.8433 19.2072 31.6259 19.586 31.4629C18.3956 31.0825 17.3136 30.6478 16.3938 30.1588C15.6904 30.6478 14.8788 31.2456 14.6624 31.4629Z"/><path fill="#A80A2D" d="M8.60268 14.5089C7.57469 14.4546 3.84145 14.1829 0 12.5527V15.4327C3.84145 16.8999 7.41237 17.1172 8.60268 17.1716C8.54858 16.0848 8.60268 15.161 8.60268 14.5089Z"/><path fill="#A80A2D" d="M42.6346 40.6465C42.0394 37.3861 41.6607 35.0495 36.7913 35.0495V32.3868C43.8249 32.3868 44.6365 36.8971 45.2316 40.1575C45.3398 40.6465 45.3939 41.1356 45.5022 41.5703C45.0152 42.005 44.2577 42.6028 43.2297 43.3092C42.9592 42.4941 42.7428 41.5703 42.6346 40.6465Z"/><path fill="#A80A2D" d="M48.6944 27.2789C50.7503 28.8004 53.5638 31.7348 54.2672 36.7884C54.8082 40.6465 55.728 42.9832 56.9183 44.559C57.1888 44.8851 58.812 46.5696 61.2467 47.8738V50.8625C60.4892 50.5364 59.5694 50.0474 58.9202 49.667C57.6217 48.8519 56.2149 47.9281 55.0787 46.5153C54.9164 46.2979 54.8082 46.1892 54.7541 46.1349C54.5918 45.9175 54.4295 45.7002 54.2672 45.4285C52.9686 43.4179 52.103 40.8096 51.616 37.1688C51.2373 34.4518 50.1011 32.1695 48.2074 30.3219C47.7205 29.8329 47.1253 29.3981 46.7466 29.0721C47.4499 28.4744 48.1533 27.8766 48.6944 27.2789Z"/><path fill="#A80A2D" d="M57.189 30.4849C57.6759 31.6804 58.2711 33.0932 59.1367 34.1257C59.7319 34.8864 60.4894 35.3755 61.2468 35.5385V38.2555C59.7319 38.0382 58.2711 37.2231 57.0807 35.8102C55.9987 34.506 55.2953 32.8758 54.7542 31.5173C53.7262 29.072 51.3997 26.7354 49.8307 25.866C50.3717 25.1052 50.8046 24.3444 51.1292 23.5837C53.3475 24.8335 55.9986 27.5505 57.189 30.4849Z"/><path fill="#A80A2D" d="M54.2131 20.1602C55.7821 21.3013 57.9463 22.8229 61.2467 22.9859V25.6485C57.0807 25.4855 54.4836 23.638 52.6982 22.3338C52.4276 22.1164 52.103 21.9534 51.8866 21.7361C52.1571 20.8123 52.3735 19.8885 52.4817 19.019C53.0228 19.3451 53.6179 19.7255 54.2131 20.1602Z"/><path fill="#A80A2D" d="M46.5843 31.4629C48.0993 32.9301 49.019 34.7777 49.3437 37.0056C49.9388 40.9724 50.8586 43.9068 52.3735 46.1891C52.4818 46.3521 52.5359 46.4608 52.6441 46.6238L50.3176 48.0367L49.9929 47.5476C48.3157 44.9393 47.2336 41.7332 46.5843 37.386C46.3679 35.7015 45.6645 34.3429 44.5824 33.3105C44.3119 33.0931 43.8791 32.6041 42.8511 32.0607L42.797 32.0063C42.4182 31.8433 42.0395 31.6259 41.6608 31.4629C42.8511 31.0825 43.9332 30.6478 44.853 30.1588C45.5563 30.6478 46.3679 31.2456 46.5843 31.4629Z"/><path fill="#A80A2D" d="M52.644 14.5089C53.672 14.4546 57.4053 14.1829 61.2467 12.5527V15.4327C57.4053 16.8999 53.8343 17.1172 52.644 17.1716C52.6981 16.0848 52.644 15.161 52.644 14.5089Z"/></g><defs><clipPath id="clip0"><rect width="230" height="77" fill="#fff"/></clipPath></defs></svg>