<svg xmlns="http://www.w3.org/2000/svg" width="250" height="250" fill="none" viewBox="0 0 250 250"><g filter="url(#filter0_d)"><path fill="url(#paint0_linear)" fill-rule="evenodd" d="M125 242C191.826 242 246 187.826 246 121C246 54.1735 191.826 0 125 0C58.1735 0 4 54.1735 4 121C4 187.826 58.1735 242 125 242Z" clip-rule="evenodd"/></g><g clip-path="url(#clip0)"><path fill="#FFE2C7" d="M215 126.201C215 171.257 178.469 207.78 133.407 207.78C88.3456 207.78 51.8174 171.257 51.8174 126.201C51.8174 81.1444 88.3456 44.6189 133.407 44.6189C178.469 44.6189 215 81.1444 215 126.201Z"/><path fill="#fff" d="M182.235 106.954C182.235 116.206 174.732 123.706 165.478 123.706C156.223 123.706 148.72 116.206 148.72 106.954C148.72 97.6989 156.223 90.1958 165.478 90.1958C174.732 90.1958 182.235 97.6989 182.235 106.954Z"/><path fill="#fff" d="M118.862 106.954C118.862 116.206 111.359 123.706 102.104 123.706C92.8497 123.706 85.3467 116.206 85.3467 106.954C85.3467 97.6989 92.8497 90.1958 102.104 90.1958C111.359 90.1958 118.862 97.6989 118.862 106.954Z"/><path fill="url(#paint1_linear)" d="M155.279 120.127C143.796 120.127 134.454 110.785 134.454 99.3042C134.454 87.8232 143.796 78.4817 155.279 78.4817C166.76 78.4817 176.105 87.8232 176.105 99.3042C176.105 110.785 166.76 120.127 155.279 120.127ZM155.279 86.6138C148.281 86.6138 142.589 92.3055 142.589 99.3042C142.589 106.3 148.281 111.992 155.279 111.992C162.278 111.992 167.97 106.3 167.97 99.3042C167.97 92.3055 162.278 86.6138 155.279 86.6138Z"/><path fill="url(#paint2_linear)" d="M91.9061 120.127C80.4224 120.127 71.0781 110.785 71.0781 99.3042C71.0781 87.8232 80.4224 78.4817 91.9061 78.4817C103.387 78.4817 112.731 87.8232 112.731 99.3042C112.731 110.785 103.387 120.127 91.9061 120.127ZM91.9061 86.6138C84.9074 86.6138 79.213 92.3055 79.213 99.3042C79.213 106.3 84.9074 111.992 91.9061 111.992C98.9021 111.992 104.596 106.3 104.596 99.3042C104.596 92.3055 98.9021 86.6138 91.9061 86.6138Z"/><path fill="url(#paint3_linear)" d="M102.175 169.391C101.706 169.391 101.231 169.313 100.767 169.142C98.6605 168.364 97.5813 166.026 98.3568 163.919C102.809 151.839 110.011 143.696 119.77 139.71C136.802 132.757 155.154 141.28 155.93 141.646C157.958 142.609 158.826 145.033 157.863 147.064C156.903 149.092 154.476 149.957 152.454 149C152.191 148.878 136.428 141.662 122.802 147.259C115.266 150.35 109.613 156.904 105.99 166.731C105.385 168.375 103.829 169.391 102.175 169.391Z"/><path fill="url(#paint4_linear)" d="M162.75 98.2954C162.75 102.976 158.953 106.775 154.271 106.775C149.585 106.775 145.789 102.976 145.789 98.2954C145.789 93.6125 149.585 89.8135 154.271 89.8135C158.953 89.8135 162.75 93.6125 162.75 98.2954Z"/><path fill="url(#paint5_linear)" d="M99.374 98.2954C99.374 102.976 95.5777 106.775 90.8948 106.775C86.2118 106.775 82.4155 102.976 82.4155 98.2954C82.4155 93.6125 86.2118 89.8135 90.8948 89.8135C95.5777 89.8135 99.374 93.6125 99.374 98.2954Z"/><path fill="url(#paint6_linear)" d="M120.66 201.643C73.4291 201.643 35 163.22 35 115.991C35 68.7659 73.4291 30.3423 120.66 30.3423C167.891 30.3423 206.317 68.7659 206.317 115.991C206.317 163.22 167.891 201.643 120.66 201.643ZM120.66 38.4771C77.9114 38.4771 43.1349 73.2509 43.1349 115.991C43.1349 158.735 77.9114 193.506 120.66 193.506C163.406 193.506 198.183 158.735 198.183 115.991C198.183 73.2509 163.406 38.4771 120.66 38.4771Z"/></g><defs><filter id="filter0_d" width="250" height="250" x="0" y="0" color-interpolation-filters="sRGB" filterUnits="userSpaceOnUse"><feFlood flood-opacity="0" result="BackgroundImageFix"/><feColorMatrix in="SourceAlpha" type="matrix" values="0 0 0 0 0 0 0 0 0 0 0 0 0 0 0 0 0 0 127 0"/><feOffset dy="4"/><feGaussianBlur stdDeviation="2"/><feColorMatrix type="matrix" values="0 0 0 0 1 0 0 0 0 1 0 0 0 0 1 0 0 0 0.1 0"/><feBlend in2="BackgroundImageFix" mode="normal" result="effect1_dropShadow"/><feBlend in="SourceGraphic" in2="effect1_dropShadow" mode="normal" result="shape"/></filter><linearGradient id="paint0_linear" x1="233.96" x2="16.843" y1="44.77" y2="147.988" gradientUnits="userSpaceOnUse"><stop stop-color="#fff" stop-opacity=".404"/><stop offset=".119" stop-color="#FFF2E6"/><stop offset=".206" stop-color="#FFF5EB"/><stop offset=".765" stop-color="#fff" stop-opacity=".282"/><stop offset="1" stop-color="#FFF3E7"/></linearGradient><linearGradient id="paint1_linear" x1="155.135" x2="141.182" y1="116.727" y2="82.786" gradientUnits="userSpaceOnUse"><stop stop-color="#EE8016"/><stop offset="1" stop-color="#FEB167"/></linearGradient><linearGradient id="paint2_linear" x1="91.76" x2="77.808" y1="116.727" y2="82.786" gradientUnits="userSpaceOnUse"><stop stop-color="#EE8016"/><stop offset="1" stop-color="#FEB167"/></linearGradient><linearGradient id="paint3_linear" x1="127.972" x2="121.455" y1="166.746" y2="137.319" gradientUnits="userSpaceOnUse"><stop stop-color="#EE8016"/><stop offset="1" stop-color="#FEB167"/></linearGradient><linearGradient id="paint4_linear" x1="154.21" x2="148.527" y1="105.39" y2="91.567" gradientUnits="userSpaceOnUse"><stop stop-color="#EE8016"/><stop offset="1" stop-color="#FEB167"/></linearGradient><linearGradient id="paint5_linear" x1="90.836" x2="85.152" y1="105.39" y2="91.568" gradientUnits="userSpaceOnUse"><stop stop-color="#EE8016"/><stop offset="1" stop-color="#FEB167"/></linearGradient><linearGradient id="paint6_linear" x1="120.065" x2="62.671" y1="187.658" y2="48.05" gradientUnits="userSpaceOnUse"><stop stop-color="#EE8016"/><stop offset="1" stop-color="#FEB167"/></linearGradient><clipPath id="clip0"><rect width="180" height="180" fill="#fff" transform="translate(35 30.3423)"/></clipPath></defs></svg>