<svg xmlns="http://www.w3.org/2000/svg" width="48" height="78" fill="none" viewBox="0 0 48 78"><path fill="#EE8016" d="M42.0104 46.8306C40.3809 48.5675 38.4977 50.0443 36.4257 51.2102C37.5252 52.1772 38.413 53.3633 39.033 54.6935C39.653 56.0237 39.9915 57.4689 40.0272 58.9376C40.0272 65.7631 32.695 71.3121 23.6911 71.3121C14.6873 71.3121 7.35504 65.7325 7.35504 58.9146C7.3986 57.3679 7.77345 55.8488 8.45402 54.4611C9.13458 53.0735 10.1048 51.8498 11.2985 50.8739C13.9199 48.5809 17.6734 47.1363 21.8828 46.7771C22.9009 46.7236 23.1289 46.7159 23.7823 46.7159C33.5764 46.7159 41.5469 40.2497 41.5469 32.3006C41.5469 32.0178 41.5469 31.735 41.5469 31.4599V31.2076C41.5469 31.0166 41.5089 30.8178 41.4785 30.6191C41.4481 30.4204 41.4785 30.4433 41.4785 30.3516L41.3645 29.7631C41.3645 29.6943 41.3645 29.6178 41.3113 29.5414C41.2505 29.2917 41.1822 29.0369 41.1062 28.7771C41.015 28.5019 40.9238 28.2267 40.8175 27.9516C40.7212 27.6968 40.6148 27.442 40.4983 27.1873C40.4812 27.1425 40.4609 27.0991 40.4375 27.0573C40.3312 26.8357 40.2172 26.6217 40.0956 26.4076C40.0784 26.3679 40.058 26.3296 40.0348 26.293C38.7314 24.0765 36.9045 22.2178 34.7161 20.8815C36.0119 19.8607 37.0664 18.5634 37.8035 17.083C38.5406 15.6027 38.942 13.9763 38.9787 12.321C38.9669 10.298 38.3703 8.32219 37.2615 6.63439H47.3595V0.0764331H25.4387C24.8917 0 24.3142 0 23.7823 0C15.4775 0 8.72272 5.51083 8.72272 12.2904C8.76083 13.9462 9.16361 15.5729 9.90202 17.0531C10.6404 18.5334 11.6961 19.8305 12.9929 20.851C16.0476 23.3216 19.8631 24.6433 23.7823 24.5885C27.9461 24.5885 31.5401 26.4153 33.1965 29.0446C33.3457 29.2739 33.4778 29.514 33.5916 29.7631C33.593 29.7809 33.593 29.7988 33.5916 29.8166C33.6448 29.9312 33.6979 30.0535 33.7435 30.1758C33.7891 30.2981 33.8575 30.4815 33.9031 30.6344L33.9715 30.879C34.0171 31.0777 34.0627 31.2688 34.0931 31.4675C34.0931 31.5134 34.0931 31.5516 34.0931 31.5898C34.0931 31.8268 34.1386 32.056 34.1386 32.3006C34.1386 36.5503 29.4734 40.0127 23.7367 40.0127C18.0001 40.0127 13.3728 36.5503 13.3728 32.3006C13.3861 31.1426 13.7289 30.0127 14.3606 29.0446C12.1047 28.2053 9.99046 27.022 8.09207 25.5363C6.75284 27.5361 6.03116 29.8895 6.01776 32.3006C6.01776 36.3439 8.07687 39.9974 11.3973 42.6191C9.36785 43.6171 7.49206 44.9042 5.82781 46.4408C2.20347 49.758 0 54.1299 0 58.9146C0 69.4395 10.6375 78.0229 23.6911 78.0229C36.7448 78.0229 47.3823 69.4624 47.3823 58.9146C47.3436 56.6401 46.8477 54.3969 45.9245 52.3201C45.0013 50.2434 43.6699 48.3761 42.0104 46.8306ZM23.7747 17.8777C19.5273 17.8777 16.0778 15.3707 16.0778 12.2904C16.0778 9.21019 19.5273 6.71083 23.7747 6.71083C28.0221 6.71083 31.4717 9.21019 31.4717 12.2904C31.4717 15.3707 28.0221 17.8777 23.7823 17.8777H23.7747Z"/></svg>