<svg xmlns="http://www.w3.org/2000/svg" width="308" height="78" fill="none" viewBox="0 0 308 78"><g clip-path="url(#clip0)"><path fill="#20201E" d="M88.2529 18.7491C87.4773 19.5027 86.5741 20.111 85.5859 20.5453C84.1462 21.1599 82.5901 21.4495 81.027 21.3937C79.7614 21.4337 78.5025 21.1937 77.3392 20.6905C76.1759 20.1873 75.1367 19.4332 74.2951 18.4816C72.5051 16.3853 71.5736 13.6833 71.6889 10.9223V10.586C71.5641 7.82302 72.4876 5.11552 74.2723 3.0115C75.1306 2.05305 76.1884 1.2966 77.3703 0.795925C78.5522 0.295254 79.8292 0.0626633 81.1106 0.114689C82.4819 0.0853625 83.8455 0.329551 85.1225 0.83316C86.2102 1.26444 87.202 1.90875 88.0402 2.7287V6.48157H86.095L85.4188 3.62297C84.9127 3.22124 84.3457 2.90383 83.7396 2.68284C82.9813 2.41222 82.181 2.2802 81.3766 2.29303C80.4011 2.23886 79.4268 2.41849 78.5338 2.81713C77.6408 3.21577 76.8547 3.82204 76.2402 4.58603C74.9862 6.3127 74.3587 8.41965 74.4622 10.5555V10.9223C74.3606 13.0592 74.9731 15.1688 76.2022 16.9147C76.7587 17.6608 77.4875 18.2594 78.3254 18.6589C79.1634 19.0584 80.0854 19.2468 81.0118 19.2077C81.9413 19.2345 82.8692 19.1159 83.7624 18.8561C84.3666 18.6743 84.946 18.4176 85.4872 18.0918V13.5363L82.1136 13.3911V11.3351H88.2681L88.2529 18.7491Z"/><path fill="#20201E" d="M99.7414 21.4013C98.7908 21.4432 97.8428 21.273 96.9653 20.903C96.0878 20.533 95.3025 19.9723 94.6658 19.2611C93.367 17.7153 92.6943 15.7342 92.7814 13.7121V13.093C92.7175 11.0951 93.41 9.14729 94.719 7.64331C95.2795 6.96332 95.9819 6.4157 96.7763 6.03924C97.5707 5.66279 98.4377 5.46673 99.3159 5.46497C100.184 5.40569 101.055 5.54316 101.864 5.86725C102.673 6.19133 103.399 6.69378 103.989 7.33758C105.11 8.74463 105.687 10.5118 105.615 12.3134V14.0637H95.7371L95.6915 14.1325C95.6678 15.4365 96.0591 16.714 96.8085 17.7783C97.1598 18.2484 97.621 18.624 98.1511 18.872C98.6813 19.12 99.264 19.2326 99.8477 19.2C100.69 19.218 101.529 19.0834 102.325 18.8025C102.978 18.5424 103.578 18.1642 104.095 17.6866L105.182 19.5057C104.55 20.0848 103.815 20.5386 103.016 20.8433C101.971 21.2402 100.859 21.4297 99.7414 21.4013ZM99.3159 7.64331C98.8549 7.64585 98.4006 7.75383 97.9872 7.95908C97.5739 8.16434 97.2124 8.46148 96.93 8.82802C96.2489 9.68085 95.8268 10.7132 95.7143 11.8013V11.8777H102.758V11.5032C102.793 10.5118 102.484 9.53893 101.884 8.75159C101.571 8.37844 101.176 8.08393 100.73 7.89152C100.285 7.6991 99.8002 7.61411 99.3159 7.64331Z"/><path fill="#20201E" d="M108.806 19.3071L111.085 18.902V7.92617L108.806 7.52872V5.7249H113.6L113.79 7.72745C114.266 7.00987 114.918 6.42801 115.682 6.03827C116.516 5.62599 117.436 5.42151 118.365 5.4421C119.286 5.41709 120.195 5.66421 120.978 6.15292C121.742 6.66687 122.32 7.4147 122.627 8.28541C123.08 7.44265 123.735 6.72777 124.534 6.20643C125.362 5.68456 126.324 5.41878 127.3 5.4421C127.998 5.40743 128.695 5.53486 129.337 5.81451C129.979 6.09416 130.548 6.51855 131 7.05483C131.904 8.1249 132.353 9.74528 132.353 11.9007V18.902L134.632 19.3071V21.0956H127.232V19.3071L129.511 18.902V11.8778C129.511 10.3491 129.253 9.28668 128.751 8.65993C128.468 8.3376 128.116 8.08462 127.721 7.92035C127.326 7.75609 126.898 7.68487 126.472 7.71216C126.031 7.69602 125.592 7.78046 125.188 7.95916C124.784 8.13785 124.425 8.40616 124.139 8.74401C123.521 9.47122 123.153 10.3802 123.091 11.3351V18.902L125.37 19.3071V21.0956H117.985V19.3071L120.264 18.902V11.8778C120.365 10.7675 120.098 9.65499 119.504 8.71343C119.227 8.38046 118.877 8.11672 118.482 7.94297C118.086 7.76923 117.656 7.69021 117.225 7.71216C116.492 7.68146 115.767 7.86462 115.135 8.23955C114.582 8.59665 114.146 9.10974 113.882 9.71471V18.8867L116.161 19.2918V21.0956H108.806V19.3071Z"/><path fill="#20201E" d="M144.548 21.4012C143.597 21.4421 142.65 21.2714 141.772 20.9015C140.895 20.5316 140.11 19.9715 139.472 19.2611C138.174 17.7152 137.501 15.7342 137.588 13.7121V13.093C137.523 11.0936 138.219 9.14452 139.533 7.64328C140.093 6.96289 140.796 6.41498 141.59 6.03849C142.385 5.66201 143.252 5.46618 144.13 5.46494C144.997 5.40573 145.867 5.54326 146.674 5.86737C147.482 6.19149 148.207 6.69391 148.795 7.33755C149.908 8.75599 150.472 10.5317 150.383 12.3363V14.0637H140.506L140.468 14.1325C140.438 15.4361 140.827 16.7147 141.577 17.7783C141.93 18.2468 142.391 18.6214 142.921 18.8692C143.451 19.117 144.033 19.2306 144.616 19.2C145.459 19.218 146.298 19.0833 147.093 18.8025C147.773 18.5508 148.4 18.1722 148.94 17.6866L150.026 19.5057C149.395 20.0848 148.66 20.5386 147.861 20.8433C146.803 21.2451 145.678 21.4347 144.548 21.4012ZM144.13 7.64328C143.668 7.64466 143.212 7.75209 142.797 7.95739C142.382 8.16268 142.02 8.46044 141.737 8.828C141.068 9.68413 140.662 10.7171 140.566 11.8012V11.8777H147.618V11.5032C147.65 10.5108 147.339 9.53788 146.736 8.75156C146.421 8.37156 146.02 8.07276 145.566 7.88C145.113 7.68724 144.621 7.60609 144.13 7.64328Z"/><path fill="#20201E" d="M161.135 21.4013C160.184 21.4421 159.237 21.2714 158.359 20.9015C157.482 20.5316 156.697 19.9715 156.059 19.2611C154.76 17.7152 154.088 15.7342 154.175 13.7121V13.093C154.11 11.0936 154.806 9.14453 156.12 7.6433C156.676 6.96744 157.372 6.4222 158.159 6.04587C158.947 5.66954 159.807 5.47126 160.679 5.46495C161.547 5.40513 162.418 5.54234 163.227 5.86646C164.036 6.19058 164.762 6.69332 165.352 7.33756C166.464 8.756 167.028 10.5317 166.94 12.3363V14.0637H157.054V14.1325C157.025 15.4362 157.414 16.7147 158.164 17.7783C158.516 18.2479 158.977 18.6231 159.507 18.871C160.037 19.119 160.619 19.2319 161.203 19.2C162.046 19.218 162.885 19.0834 163.68 18.8025C164.36 18.5508 164.986 18.1722 165.526 17.6866L166.613 19.5057C165.981 20.0848 165.247 20.5386 164.447 20.8433C163.39 21.2451 162.265 21.4347 161.135 21.4013ZM160.709 7.6433C160.248 7.64584 159.794 7.75382 159.381 7.95907C158.967 8.16432 158.606 8.46146 158.323 8.82801C157.642 9.67969 157.222 10.713 157.115 11.8013V11.8777H164.166V11.5032C164.199 10.5108 163.888 9.53789 163.285 8.75158C162.973 8.37594 162.577 8.07978 162.129 7.8872C161.681 7.69461 161.195 7.61105 160.709 7.6433Z"/><path fill="#20201E" d="M170.336 19.307L172.616 18.9019V7.92612L170.336 7.52866V5.72484H175.123L175.321 8.01783C175.795 7.23627 176.453 6.583 177.235 6.11465C178.033 5.65708 178.939 5.42469 179.857 5.44204C180.556 5.4011 181.256 5.50932 181.911 5.75959C182.565 6.00987 183.16 6.39655 183.656 6.89427C184.557 7.86242 185.011 9.36051 185.016 11.3885V18.9019L187.295 19.307V21.0955H179.91V19.307L182.189 18.9019V11.465C182.289 10.4381 182.004 9.41081 181.391 8.58344C181.067 8.27722 180.682 8.04283 180.262 7.89539C179.842 7.74794 179.396 7.69071 178.952 7.72739C178.205 7.71593 177.471 7.91732 176.833 8.30828C176.21 8.70314 175.699 9.25349 175.351 9.90573V18.9019L177.63 19.307V21.0955H170.245L170.336 19.307Z"/><path fill="#20201E" d="M195.273 2.01782V5.72483H198.168V7.79616H195.273V17.1286C195.215 17.6767 195.373 18.226 195.714 18.6573C195.871 18.8062 196.056 18.922 196.259 18.9981C196.461 19.0742 196.676 19.1091 196.892 19.1006C197.169 19.0984 197.446 19.0754 197.72 19.0318C198.024 18.9936 198.282 18.9478 198.48 18.9019L198.867 20.8204C198.506 21.0236 198.113 21.1632 197.705 21.2331C197.206 21.3451 196.696 21.4014 196.185 21.4013C195.69 21.426 195.196 21.347 194.733 21.1694C194.27 20.9918 193.848 20.7194 193.495 20.3694C192.753 19.4653 192.393 18.3045 192.492 17.1363V7.79616H190.076V5.72483H192.492V2.01782H195.273Z"/><path fill="#20201E" d="M209.003 21.4013C208.053 21.4432 207.105 21.273 206.227 20.903C205.35 20.533 204.564 19.9723 203.928 19.2611C202.629 17.7153 201.956 15.7342 202.043 13.7121V13.093C201.978 11.0936 202.674 9.14455 203.988 7.64331C204.544 6.96746 205.24 6.42221 206.028 6.04588C206.816 5.66956 207.675 5.47127 208.547 5.46497C209.416 5.40569 210.287 5.54316 211.095 5.86725C211.904 6.19133 212.63 6.69378 213.22 7.33758C214.333 8.75601 214.897 10.5318 214.808 12.3363V14.0637H204.923L204.885 14.1325C204.855 15.4362 205.244 16.7147 205.994 17.7783C206.346 18.2479 206.807 18.6231 207.337 18.8711C207.868 19.119 208.45 19.2319 209.034 19.2C209.876 19.218 210.715 19.0834 211.511 18.8025C212.19 18.5508 212.817 18.1722 213.357 17.6866L214.444 19.5057C213.812 20.0848 213.077 20.5386 212.278 20.8433C211.233 21.2402 210.12 21.4297 209.003 21.4013ZM208.578 7.64331C208.117 7.64585 207.662 7.75383 207.249 7.95908C206.836 8.16434 206.474 8.46148 206.192 8.82802C205.51 9.67971 205.09 10.713 204.984 11.8013V11.8777H212.035V11.5032C212.068 10.5108 211.756 9.5379 211.154 8.75159C210.84 8.3769 210.444 8.08141 209.997 7.88891C209.549 7.69641 209.063 7.61229 208.578 7.64331Z"/><path fill="#20201E" d="M88.7164 47.2663C87.8632 48.0422 86.8738 48.6513 85.7987 49.0625C84.2423 49.6318 82.5907 49.8914 80.9358 49.8268C79.6729 49.8702 78.4152 49.6425 77.2466 49.1588C76.078 48.6752 75.0252 47.9466 74.1583 47.0217C72.3782 45.0317 71.4428 42.4201 71.5521 39.7453V39.0345C71.4334 36.2806 72.3534 33.5833 74.1279 31.4829C74.9657 30.5285 76.0031 29.7724 77.1657 29.269C78.3283 28.7655 79.5873 28.5271 80.8523 28.5708C82.358 28.5507 83.8544 28.8098 85.2668 29.3351C86.5069 29.7968 87.6396 30.5096 88.5948 31.4294V35.6179H85.5555L84.9629 32.8663C84.5112 32.5136 83.9948 32.2539 83.4432 32.102C82.7525 31.8988 82.0354 31.8009 81.3158 31.8115C80.5072 31.7753 79.7022 31.9389 78.971 32.288C78.2399 32.6371 77.6049 33.161 77.1216 33.8141C76.0564 35.3466 75.5224 37.1892 75.6019 39.0574V39.8217C75.5107 41.6203 76.0305 43.3966 77.076 44.8587C77.5816 45.4884 78.2294 45.9876 78.9656 46.3147C79.7017 46.6417 80.5049 46.7872 81.3082 46.7389C81.9858 46.7572 82.6628 46.6852 83.3217 46.5249C83.7469 46.4213 84.1542 46.2538 84.5298 46.0281V42.4587L81.5893 42.237V39.3249H88.6632L88.7164 47.2663Z"/><path fill="#20201E" d="M99.2323 49.865C98.2518 49.9087 97.2734 49.7411 96.3626 49.3733C95.4519 49.0055 94.6298 48.446 93.9516 47.7325C92.6161 46.2572 91.9071 44.3151 91.976 42.321V41.7554C91.8953 39.7089 92.5599 37.7031 93.8452 36.1146C95.109 34.7682 96.8503 33.9783 98.6902 33.9167C100.53 33.8552 102.32 34.527 103.67 35.786C104.865 37.1946 105.477 39.0115 105.379 40.8611V43.1159H96.2614V43.2C96.2984 44.1233 96.6498 45.0057 97.2568 45.6994C97.5693 46.0295 97.949 46.2879 98.37 46.4568C98.7909 46.6256 99.2432 46.701 99.6958 46.6777C100.465 46.6972 101.233 46.6045 101.975 46.4025C102.662 46.1819 103.324 45.8898 103.951 45.5312L105.068 48.0841C104.315 48.6473 103.472 49.0764 102.576 49.3529C101.495 49.7018 100.367 49.8747 99.2323 49.865ZM98.8676 37.1083C98.5177 37.095 98.1699 37.1682 97.8547 37.3214C97.5394 37.4747 97.2663 37.7033 97.0592 37.9873C96.5874 38.6644 96.3041 39.456 96.2386 40.2803L96.2842 40.349H101.337V39.9822C101.375 39.2292 101.158 38.4855 100.722 37.8726C100.495 37.6069 100.208 37.3991 99.8859 37.2662C99.5637 37.1333 99.2147 37.0792 98.8676 37.1083Z"/><path fill="#20201E" d="M115.682 49.865C114.702 49.9118 113.722 49.7455 112.811 49.3776C111.9 49.0096 111.078 48.4485 110.402 47.7325C109.063 46.2585 108.352 44.3162 108.418 42.3211V41.7555C108.34 39.708 109.007 37.7021 110.295 36.1147C111.558 34.7688 113.298 33.979 115.136 33.9175C116.975 33.8559 118.763 34.5275 120.112 35.7861C121.308 37.1947 121.92 39.0116 121.822 40.8612V43.116H112.704V43.2001C112.741 44.1261 113.099 45.01 113.714 45.6994C114.025 46.0303 114.403 46.2891 114.823 46.4581C115.243 46.627 115.694 46.702 116.146 46.6778C116.915 46.6973 117.683 46.6046 118.425 46.4026C119.115 46.1821 119.779 45.8901 120.408 45.5313L121.518 48.0841C120.78 48.6444 119.953 49.0735 119.071 49.3529C117.977 49.7083 116.832 49.8813 115.682 49.865ZM115.31 37.1083C114.96 37.0964 114.613 37.1702 114.298 37.3233C113.983 37.4764 113.71 37.7043 113.502 37.9873C113.03 38.664 112.749 39.4563 112.689 40.2803L112.727 40.3491H117.772V39.9822C117.808 39.2306 117.595 38.4881 117.164 37.8727C116.936 37.6079 116.65 37.4008 116.328 37.268C116.006 37.1352 115.657 37.0805 115.31 37.1083Z"/><path fill="#20201E" d="M125.119 47.0752L127.095 46.6548V37.1236L124.907 36.688V34.1962H130.94L131.122 36.4434C131.426 35.7183 131.901 35.0783 132.505 34.5784C133.063 34.1375 133.755 33.9028 134.465 33.9134C134.696 33.9142 134.927 33.9295 135.157 33.9593C135.359 33.9896 135.559 34.0304 135.757 34.0816L135.316 37.8574L133.622 37.8192C133.093 37.7939 132.567 37.9156 132.102 38.1708C131.706 38.4075 131.391 38.7592 131.198 39.1797V46.6243L133.173 47.0446V49.5364H125.119V47.0752Z"/><path fill="#20201E" d="M144.449 30.428V34.1961H147.131V37.1082H144.449V44.935C144.405 45.3916 144.535 45.8481 144.814 46.2114C144.943 46.3401 145.098 46.4405 145.268 46.5063C145.438 46.572 145.62 46.6018 145.802 46.5936C146.055 46.607 146.308 46.607 146.561 46.5936C146.774 46.5936 147.01 46.5248 147.276 46.4713L147.625 49.4675C147.176 49.6017 146.719 49.7089 146.257 49.7885C145.769 49.8611 145.277 49.8969 144.783 49.8955C144.185 49.934 143.585 49.8487 143.02 49.6449C142.456 49.4412 141.939 49.1233 141.501 48.7108C140.731 47.9312 140.349 46.6878 140.354 44.9808V37.1082H138.112V34.1961H140.354V30.428H144.449Z"/><path fill="#20201E" d="M150.497 47.0752L152.48 46.6548V37.1236L150.292 36.688V34.1962H156.317L156.5 36.4434C156.804 35.7183 157.278 35.0783 157.883 34.5784C158.444 34.1375 159.138 33.9028 159.851 33.9134C160.284 33.9117 160.716 33.9683 161.135 34.0816L160.694 37.8574L159 37.8192C158.471 37.7939 157.945 37.9156 157.48 38.1708C157.084 38.4075 156.769 38.7592 156.576 39.1797V46.6243L158.551 47.0446V49.5364H150.497V47.0752Z"/><path fill="#20201E" d="M174.09 47.6178C173.63 48.3134 173.006 48.8833 172.274 49.2764C171.515 49.6767 170.668 49.879 169.812 49.865C169.106 49.9084 168.399 49.7939 167.742 49.5295C167.085 49.2652 166.494 48.8577 166.013 48.3363C165.101 47.3172 164.645 45.7044 164.645 43.4981V37.1541L162.981 36.6879V34.1962H168.778V43.4981C168.709 44.3402 168.906 45.1827 169.341 45.9057C169.535 46.1585 169.787 46.3601 170.075 46.4933C170.364 46.6264 170.68 46.6871 170.997 46.6701C171.576 46.6848 172.151 46.5754 172.684 46.349C173.144 46.1499 173.545 45.8338 173.846 45.4318V37.1236L172.046 36.6879V34.1962H177.972V46.6242L179.826 47.0446V49.5363H174.356L174.09 47.6178Z"/><path fill="#20201E" d="M182.356 47.0752L184.347 46.6548V37.1236L182.144 36.6956V34.1962H188.465V46.6242L190.441 47.0446V49.5363H182.356V47.0752ZM188.435 30.5198H184.317V27.4089H188.435V30.5198Z"/><path fill="#20201E" d="M202.788 47.6866C202.355 48.354 201.772 48.9092 201.086 49.307C200.399 49.6834 199.627 49.8756 198.845 49.865C198.002 49.9042 197.162 49.7353 196.399 49.3729C195.636 49.0105 194.973 48.4657 194.468 47.786C193.36 46.183 192.809 44.2562 192.903 42.3057V42.0382C192.804 39.9677 193.351 37.9179 194.468 36.1758C194.954 35.458 195.613 34.8764 196.384 34.486C197.155 34.0955 198.012 33.909 198.875 33.944C199.593 33.932 200.302 34.1057 200.934 34.4484C201.569 34.7996 202.119 35.2877 202.545 35.8777V30.3363L200.341 29.9083V27.4089H206.671V46.6242L208.646 47.0446V49.5363H203.099L202.788 47.6866ZM197.029 42.3363C196.972 43.4343 197.203 44.5279 197.697 45.5083C197.925 45.8804 198.251 46.1817 198.638 46.3787C199.026 46.5758 199.46 46.6607 199.893 46.6242C200.437 46.6379 200.976 46.5116 201.458 46.2573C201.908 46.0035 202.283 45.6343 202.545 45.1873V38.6828C202.288 38.2165 201.917 37.8243 201.466 37.544C201.007 37.2675 200.481 37.127 199.946 37.1389C199.487 37.1132 199.031 37.228 198.637 37.4681C198.244 37.7082 197.932 38.0624 197.743 38.4841C197.237 39.5867 197 40.7946 197.051 42.0077L197.029 42.3363Z"/><path fill="#20201E" d="M218.319 49.865C217.338 49.9118 216.359 49.7455 215.447 49.3776C214.536 49.0096 213.714 48.4485 213.038 47.7325C211.7 46.2585 210.988 44.3162 211.055 42.3211V41.7555C210.976 39.708 211.644 37.7021 212.932 36.1147C214.194 34.7688 215.934 33.979 217.773 33.9175C219.611 33.8559 221.4 34.5275 222.748 35.7861C223.944 37.1947 224.556 39.0116 224.458 40.8612V43.116H215.34V43.2001C215.378 44.1261 215.735 45.01 216.351 45.6994C216.661 46.0303 217.039 46.2891 217.459 46.4581C217.879 46.627 218.331 46.702 218.782 46.6778C219.551 46.6973 220.319 46.6046 221.062 46.4026C221.749 46.1834 222.411 45.8913 223.037 45.5313L224.146 48.0841C223.409 48.6444 222.581 49.0735 221.7 49.3529C220.608 49.7075 219.466 49.8805 218.319 49.865ZM217.946 37.1083C217.597 37.0964 217.249 37.1702 216.934 37.3233C216.619 37.4764 216.346 37.7043 216.138 37.9873C215.667 38.664 215.386 39.4563 215.325 40.2803L215.363 40.3491H220.416V39.9822C220.452 39.2306 220.238 38.4881 219.808 37.8727C219.579 37.6068 219.292 37.399 218.968 37.2662C218.645 37.1334 218.295 37.0793 217.946 37.1083Z"/><path fill="#20201E" d="M227.224 47.0752L229.199 46.6548V37.1236L227.011 36.6879V34.1962H233.036L233.219 36.3975C233.694 35.6446 234.339 35.0159 235.103 34.5631C235.863 34.1232 236.726 33.8986 237.603 33.9134C238.274 33.8765 238.945 33.9881 239.568 34.2404C240.192 34.4926 240.753 34.8793 241.212 35.3732C242.078 36.3516 242.511 37.8803 242.511 39.9592V46.6242L244.487 47.0446V49.5363H236.607V47.0752L238.378 46.6548V39.9745C238.452 39.1905 238.229 38.4074 237.755 37.7809C237.502 37.5516 237.205 37.3764 236.882 37.266C236.559 37.1557 236.218 37.1124 235.878 37.1389C235.37 37.128 234.867 37.2407 234.412 37.4675C233.978 37.6924 233.603 38.0171 233.317 38.4153V46.6242L234.989 47.0446V49.5363H227.224V47.0752Z"/><path fill="#20201E" d="M261.613 42.3057C261.715 44.2552 261.181 46.1847 260.093 47.8013C259.584 48.4831 258.915 49.028 258.147 49.388C257.378 49.7479 256.533 49.9118 255.687 49.865C254.887 49.8919 254.096 49.7026 253.394 49.3167C252.692 48.9309 252.106 48.3626 251.697 47.6714L251.401 49.5669H247.838V30.3363L245.649 29.9083V27.4089H251.948V35.8166C252.358 35.2253 252.899 34.7385 253.529 34.3949C254.186 34.0545 254.917 33.8838 255.656 33.8981C256.521 33.8537 257.382 34.0335 258.158 34.4203C258.934 34.8071 259.597 35.3879 260.086 36.107C261.181 37.8653 261.712 39.9202 261.605 41.9924L261.613 42.3057ZM257.502 42.0382C257.556 40.819 257.332 39.6035 256.849 38.4841C256.65 38.0551 256.325 37.6985 255.917 37.4631C255.508 37.2278 255.038 37.1252 254.57 37.1694C254.001 37.1486 253.437 37.289 252.944 37.5745C252.493 37.85 252.131 38.2508 251.903 38.7287V45.2178C252.164 45.672 252.552 46.0389 253.02 46.2726C253.53 46.532 254.097 46.6581 254.668 46.6395C255.109 46.6819 255.552 46.5982 255.947 46.398C256.343 46.1979 256.674 45.8894 256.902 45.5083C257.374 44.5103 257.591 43.4094 257.533 42.3057L257.502 42.0382Z"/><path fill="#20201E" d="M271.871 49.865C270.89 49.9087 269.912 49.7411 269.001 49.3733C268.09 49.0055 267.268 48.446 266.59 47.7325C265.254 46.2572 264.546 44.3151 264.614 42.321V41.7554C264.534 39.7089 265.198 37.7031 266.484 36.1146C267.747 34.7682 269.489 33.9783 271.329 33.9167C273.168 33.8552 274.958 34.527 276.308 35.786C277.504 37.1946 278.116 39.0115 278.018 40.8611V43.1159H268.9V43.2C268.934 44.1252 269.289 45.0092 269.903 45.6994C270.215 46.0295 270.595 46.2879 271.016 46.4568C271.437 46.6256 271.889 46.701 272.342 46.6777C273.111 46.6972 273.879 46.6045 274.621 46.4025C275.308 46.1819 275.97 45.8898 276.597 45.5312L277.714 48.0841C276.976 48.6443 276.149 49.0734 275.267 49.3529C274.17 49.7088 273.023 49.8818 271.871 49.865ZM271.506 37.1083C271.162 37.1013 270.822 37.1775 270.514 37.3304C270.206 37.4834 269.939 37.7087 269.736 37.9873C269.264 38.6644 268.98 39.456 268.915 40.2803L268.961 40.349H274.013V39.9822C274.051 39.2292 273.834 38.4855 273.398 37.8726C273.167 37.6013 272.874 37.3902 272.545 37.2571C272.216 37.124 271.859 37.073 271.506 37.1083Z"/><path fill="#20201E" d="M281.315 47.0752L283.291 46.6548V37.1236L281.133 36.6879V34.1962H287.166L287.348 36.4433C287.652 35.7182 288.127 35.0783 288.731 34.5784C289.289 34.1363 289.981 33.9015 290.691 33.9134C290.92 33.9139 291.148 33.9292 291.375 33.9593C291.578 33.988 291.778 34.0289 291.975 34.0816L291.542 37.8573L289.848 37.8191C289.319 37.7931 288.793 37.9148 288.328 38.1707C287.933 38.4074 287.617 38.7592 287.424 39.1796V46.6242L289.4 47.0446V49.5363H281.315V47.0752Z"/><path fill="#20201E" d="M294.202 42.0382C294.105 39.9669 294.655 37.917 295.775 36.1758C296.262 35.4579 296.923 34.8764 297.695 34.486C298.467 34.0956 299.326 33.9091 300.189 33.9439C300.987 33.9221 301.775 34.1203 302.469 34.5172C303.146 34.9256 303.719 35.4885 304.14 36.1605L304.436 34.2267H308.023V49.1083C308.063 50.0061 307.914 50.9024 307.587 51.7386C307.26 52.5749 306.761 53.3324 306.123 53.9618C304.687 55.2432 302.805 55.9024 300.888 55.7962C300.06 55.7886 299.236 55.6808 298.434 55.4752C297.604 55.274 296.799 54.9818 296.033 54.6038L296.793 51.6917C297.433 51.9659 298.094 52.1907 298.768 52.3643C299.452 52.5325 300.154 52.6146 300.858 52.6089C301.282 52.6429 301.709 52.5778 302.104 52.4187C302.5 52.2596 302.853 52.0108 303.137 51.6917C303.678 50.9467 303.946 50.0369 303.897 49.1159V48.0841C303.475 48.6443 302.929 49.0971 302.301 49.4064C301.645 49.7222 300.924 49.8793 300.197 49.865C299.352 49.902 298.512 49.7313 297.748 49.3677C296.984 49.0041 296.32 48.4585 295.813 47.7783C294.699 46.1801 294.146 44.2549 294.24 42.3057L294.202 42.0382ZM298.328 42.3363C298.269 43.4352 298.503 44.53 299.004 45.5083C299.227 45.8895 299.551 46.2004 299.941 46.4057C300.33 46.611 300.769 46.7026 301.207 46.6701C301.762 46.688 302.313 46.5672 302.81 46.3185C303.25 46.0881 303.614 45.7352 303.859 45.3019V38.5987C303.614 38.1499 303.251 37.7772 302.81 37.521C302.33 37.253 301.787 37.1209 301.238 37.1389C300.777 37.1116 300.319 37.2257 299.924 37.4658C299.53 37.706 299.216 38.0611 299.027 38.4841C298.515 39.585 298.276 40.7937 298.328 42.0076V42.3363Z"/><path fill="#EE8016" d="M42.0104 46.8306C40.3809 48.5675 38.4977 50.0443 36.4257 51.2102C37.5252 52.1772 38.413 53.3633 39.033 54.6935C39.653 56.0237 39.9915 57.4689 40.0272 58.9376C40.0272 65.7631 32.695 71.3121 23.6911 71.3121C14.6873 71.3121 7.35504 65.7325 7.35504 58.9146C7.3986 57.3679 7.77345 55.8488 8.45402 54.4611C9.13458 53.0735 10.1048 51.8498 11.2985 50.8739C13.9199 48.5809 17.6734 47.1363 21.8828 46.7771C22.9009 46.7236 23.1289 46.7159 23.7823 46.7159C33.5764 46.7159 41.5469 40.2497 41.5469 32.3006C41.5469 32.0178 41.5469 31.735 41.5469 31.4599V31.2076C41.5469 31.0166 41.5089 30.8178 41.4785 30.6191C41.4481 30.4204 41.4785 30.4433 41.4785 30.3516L41.3645 29.7631C41.3645 29.6943 41.3645 29.6178 41.3113 29.5414C41.2505 29.2917 41.1822 29.0369 41.1062 28.7771C41.015 28.5019 40.9238 28.2267 40.8175 27.9516C40.7212 27.6968 40.6148 27.442 40.4983 27.1873C40.4812 27.1425 40.4609 27.0991 40.4375 27.0573C40.3312 26.8357 40.2172 26.6217 40.0956 26.4076C40.0784 26.3679 40.058 26.3296 40.0348 26.293C38.7314 24.0765 36.9045 22.2178 34.7161 20.8815C36.0119 19.8607 37.0664 18.5634 37.8035 17.083C38.5406 15.6027 38.942 13.9763 38.9787 12.321C38.9669 10.298 38.3703 8.32219 37.2615 6.63439H47.3595V0.0764331H25.4387C24.8917 0 24.3142 0 23.7823 0C15.4775 0 8.72272 5.51083 8.72272 12.2904C8.76083 13.9462 9.16361 15.5729 9.90202 17.0531C10.6404 18.5334 11.6961 19.8305 12.9929 20.851C16.0476 23.3216 19.8631 24.6433 23.7823 24.5885C27.9461 24.5885 31.5401 26.4153 33.1965 29.0446C33.3457 29.2739 33.4778 29.514 33.5916 29.7631C33.593 29.7809 33.593 29.7988 33.5916 29.8166C33.6448 29.9312 33.6979 30.0535 33.7435 30.1758C33.7891 30.2981 33.8575 30.4815 33.9031 30.6344L33.9715 30.879C34.0171 31.0777 34.0627 31.2688 34.0931 31.4675C34.0931 31.5134 34.0931 31.5516 34.0931 31.5898C34.0931 31.8268 34.1386 32.056 34.1386 32.3006C34.1386 36.5503 29.4734 40.0127 23.7367 40.0127C18.0001 40.0127 13.3728 36.5503 13.3728 32.3006C13.3861 31.1426 13.7289 30.0127 14.3606 29.0446C12.1047 28.2053 9.99046 27.022 8.09207 25.5363C6.75284 27.5361 6.03116 29.8895 6.01776 32.3006C6.01776 36.3439 8.07687 39.9974 11.3973 42.6191C9.36785 43.6171 7.49206 44.9042 5.82781 46.4408C2.20347 49.758 0 54.1299 0 58.9146C0 69.4395 10.6375 78.0229 23.6911 78.0229C36.7448 78.0229 47.3823 69.4624 47.3823 58.9146C47.3436 56.6401 46.8477 54.3969 45.9245 52.3201C45.0013 50.2434 43.6699 48.3761 42.0104 46.8306ZM23.7747 17.8777C19.5273 17.8777 16.0778 15.3707 16.0778 12.2904C16.0778 9.21019 19.5273 6.71083 23.7747 6.71083C28.0221 6.71083 31.4717 9.21019 31.4717 12.2904C31.4717 15.3707 28.0221 17.8777 23.7823 17.8777H23.7747Z"/></g><defs><clipPath id="clip0"><rect width="308" height="78" fill="#fff"/></clipPath></defs></svg>