<svg width="51" height="58" fill="none" xmlns="http://www.w3.org/2000/svg"><rect x=".313" width="50.375" height="58" rx="8" fill="#F7F9FC"/><path d="M36.75 16.75c-5.453 0-9.092-2.478-10.463-3.41l-.267-.182a.934.934 0 0 0-1.04 0l-.27.182c-1.498 1.02-5.008 3.41-10.46 3.41a.937.937 0 0 0-.938.938v9.985c0 7.486 3.96 13.324 11.769 17.228a.936.936 0 0 0 .838 0c7.809-3.904 11.768-9.742 11.768-17.228v-9.985a.937.937 0 0 0-.937-.938Z" fill="#092DAA"/><path d="M33.156 20.202a21.32 21.32 0 0 1-7.185-2.618.933.933 0 0 0-.943 0 21.33 21.33 0 0 1-7.185 2.618.938.938 0 0 0-.78.925v6.546c0 6.705 3.809 10.175 7.925 12.86a.933.933 0 0 0 1.024 0c4.116-2.685 7.925-6.155 7.925-12.86v-6.546a.938.938 0 0 0-.781-.925Z" fill="#305DFC"/><path d="M33.937 27.673v-6.546a.938.938 0 0 0-.781-.925 21.32 21.32 0 0 1-7.185-2.618.933.933 0 0 0-.471-.127v23.227c.178 0 .356-.05.512-.152 4.116-2.684 7.925-6.154 7.925-12.86Z" fill="url(#a)"/><path d="M28.975 26.462a.937.937 0 0 0-1.325 0l-2.15 2.15-.938.938-1.212-1.213a.937.937 0 1 0-1.326 1.326l1.875 1.875a.934.934 0 0 0 1.326 0l.275-.275 3.475-3.475a.937.937 0 0 0 0-1.326Z" fill="#fff"/><defs><linearGradient id="a" x1="29.719" y1="17.457" x2="29.719" y2="40.684" gradientUnits="userSpaceOnUse"><stop stop-color="#0A33C1"/><stop offset="1" stop-color="#0A33C1" stop-opacity="0"/></linearGradient></defs></svg>