<svg width="59" height="58" fill="none" xmlns="http://www.w3.org/2000/svg"><rect x=".5" width="58" height="58" rx="8" fill="#F7F9FC"/><path d="M41.455 29c0-.47-.027-.935-.08-1.392a1.802 1.802 0 0 1 .608-1.559l1.83-1.604a1.7 1.7 0 0 0 .33-2.162l-1.956-3.212a1.7 1.7 0 0 0-2.073-.698l-2.28.895a1.8 1.8 0 0 1-1.664-.19 11.938 11.938 0 0 0-1.67-.94 1.798 1.798 0 0 1-1.024-1.32l-.421-2.41A1.7 1.7 0 0 0 31.38 13h-3.76a1.7 1.7 0 0 0-1.675 1.407l-.421 2.41a1.798 1.798 0 0 1-1.024 1.32c-.584.27-1.142.585-1.67.94a1.8 1.8 0 0 1-1.664.191l-2.28-.895a1.7 1.7 0 0 0-2.073.698l-1.956 3.212a1.7 1.7 0 0 0 .33 2.162l1.83 1.604c.444.39.677.972.608 1.56a12.022 12.022 0 0 0 0 2.783 1.802 1.802 0 0 1-.608 1.559l-1.83 1.604a1.7 1.7 0 0 0-.33 2.162l1.956 3.212a1.7 1.7 0 0 0 2.073.698l2.28-.895a1.8 1.8 0 0 1 1.664.19c.528.356 1.086.67 1.67.94.537.248.922.737 1.024 1.32l.421 2.41c.143.814.849 1.157 1.675 1.157h3.76c.826 0 1.532-.343 1.675-1.156l.421-2.41a1.798 1.798 0 0 1 1.024-1.32c.584-.27 1.142-.585 1.67-.94a1.8 1.8 0 0 1 1.664-.191l2.28.895a1.7 1.7 0 0 0 2.073-.698l1.956-3.212a1.7 1.7 0 0 0-.33-2.162l-1.83-1.604a1.802 1.802 0 0 1-.608-1.56c.053-.456.08-.92.08-1.391Z" fill="#0A33C1"/><path d="M29.5 38.773c5.397 0 9.773-4.376 9.773-9.773 0-5.397-4.376-9.773-9.773-9.773-5.397 0-9.773 4.376-9.773 9.773 0 5.397 4.376 9.773 9.773 9.773Z" fill="#305DFC"/><path opacity=".3" d="M31.38 45a1.7 1.7 0 0 0 1.675-1.407l.421-2.41a1.798 1.798 0 0 1 1.025-1.32c.583-.27 1.141-.585 1.67-.94a1.8 1.8 0 0 1 1.663-.191l2.28.895a1.7 1.7 0 0 0 2.073-.698l1.956-3.212a1.7 1.7 0 0 0-.33-2.162l-1.83-1.604a1.802 1.802 0 0 1-.608-1.56c.032-.273.053-.55.066-.829l-6.023-6.023a8.093 8.093 0 0 0-1.242-1.095.551.551 0 0 0-.87.45v5.316c0 .549-.249 1.062-.667 1.402-.08-.075-7.013-6.997-7.07-7.067-.174-.21-.496-.154-.75.027-2.045 1.464-3.251 3.735-3.246 6.443.004 2.33.87 4.426 2.451 5.892l1.732 1.738.063 4.044c0 .973-.041 1.945.126 2.904A1.7 1.7 0 0 0 27.62 45h3.76Z" fill="url(#a)"/><path opacity=".3" d="m44.143 35.717-1.956 3.212c-.43.705-1.304 1-2.073.698l-2.28-.895a1.799 1.799 0 0 0-1.664.19c-.528.356-1.086.671-1.67.94a1.797 1.797 0 0 0-1.024 1.32l-.422 2.411c-.142.813-.848 1.219-1.674 1.219h-3.76c-.413 0-.796-.148-1.094-.399-.151-.127-.28-.092-.38-.266.25.144.54.226.846.226h3.761a1.7 1.7 0 0 0 1.674-1.407 16.988 16.988 0 0 0 .252-2.905v-4.59a8.052 8.052 0 0 0 4.246-7.098 8.02 8.02 0 0 0-2.048-5.366c.188.168.369.345.54.532l6.024 6.023c-.013.28-.035.556-.067.83a1.803 1.803 0 0 0 .61 1.559l1.828 1.604a1.7 1.7 0 0 1 .33 2.162Z" fill="url(#b)"/><path d="M33.055 43.593c.167-.96.252-1.93.252-2.904V34.04h-7.614v6.648c0 .973.085 1.945.252 2.904A1.7 1.7 0 0 0 27.62 45h3.76a1.7 1.7 0 0 0 1.675-1.407Z" fill="#E6ECFF"/><path opacity=".3" d="m25.694 36.1 7.38 7.38a16.86 16.86 0 0 0 .233-2.791V34.04h-7.614v2.06Z" fill="url(#c)"/><path d="M37.553 29a8.053 8.053 0 0 1-8.053 8.053 8.045 8.045 0 0 1-8.053-8.038 8.042 8.042 0 0 1 3.372-6.568.552.552 0 0 1 .874.447v5.316c0 .646.345 1.243.905 1.566l1.997 1.154a1.81 1.81 0 0 0 1.81 0l1.997-1.154c.56-.323.905-.92.905-1.567v-5.315c0-.447.506-.71.87-.45A8.042 8.042 0 0 1 37.552 29Z" fill="#E6ECFF"/><path opacity=".7" d="M23.54 29.678c0 1.012.54 1.947 1.417 2.453l3.127 1.806a2.832 2.832 0 0 0 2.832 0l3.127-1.806a2.833 2.833 0 0 0 1.416-2.453v-6.093a8.101 8.101 0 0 0-1.283-1.141.551.551 0 0 0-.87.45v5.316a1.81 1.81 0 0 1-.904 1.566l-1.997 1.154a1.81 1.81 0 0 1-1.81 0l-1.997-1.154a1.81 1.81 0 0 1-.905-1.567v-5.315c0-.45-.508-.709-.874-.447a8.098 8.098 0 0 0-1.278 1.138v6.093Z" fill="#C4D1FF"/><defs><linearGradient id="a" x1="32.982" y1="22.341" x2="32.982" y2="45" gradientUnits="userSpaceOnUse"><stop stop-color="#0A33C1"/><stop offset="1" stop-color="#0A33C1" stop-opacity="0"/></linearGradient><linearGradient id="b" x1="35.268" y1="23.007" x2="35.268" y2="44.812" gradientUnits="userSpaceOnUse"><stop stop-color="#0A33C1"/><stop offset="1" stop-color="#0A33C1" stop-opacity="0"/></linearGradient><linearGradient id="c" x1="29.5" y1="34.041" x2="29.5" y2="43.48" gradientUnits="userSpaceOnUse"><stop stop-color="#0A33C1"/><stop offset="1" stop-color="#0A33C1" stop-opacity="0"/></linearGradient></defs></svg>