<svg width="59" height="58" fill="none" xmlns="http://www.w3.org/2000/svg"><rect x=".5" width="58" height="58" rx="8" fill="#F7F9FC"/><path d="M45.5 36.37V18.563a.938.938 0 0 0-.938-.938h-4.25a.937.937 0 0 0-.937.938V36.37H45.5Z" fill="#0A33C1"/><path d="M39.375 36.263v.112c0 .188.056.372.162.527l2.125 3.125a.937.937 0 0 0 1.55 0l2.126-3.125a.938.938 0 0 0 .162-.527v-.112h-6.125Z" fill="#D4D9DD"/><path d="M44.563 17.625h-2.126V36.37H45.5V18.563a.937.937 0 0 0-.938-.938Z" fill="#315EFD"/><path opacity=".4" d="M42.438 36.263v4.175c.31 0 .6-.154.775-.41l2.125-3.126a.938.938 0 0 0 .162-.527v-.112h-3.063Z" fill="#8CA3A6"/><path d="M31.219 20.5H19.406c-.544 0-.984-.42-.984-.938s.44-.937.984-.937c.543 0 .985-.42.985-.938v-1.875c0-.518.44-.937.984-.937h1.153C22.934 13.784 24.029 13 25.313 13c1.283 0 2.378.784 2.784 1.875h1.153c.544 0 .984.42.984.938v1.874c0 .518.442.938.985.938.544 0 .984.42.984.938s-.44.937-.984.937Z" fill="#092DAA"/><path d="M36.14 14.875h-4.118c.11.295.181.607.181.938v1.097c1.146.387 1.969 1.43 1.969 2.652 0 1.551-1.325 2.813-2.953 2.813H19.406c-1.628 0-2.953-1.262-2.953-2.813 0-1.222.823-2.265 1.969-2.652v-1.098c0-.33.07-.642.181-.937h-4.119c-.544 0-.984.42-.984.938v28.25c0 .518.44.937.984.937h21.657c.544 0 .984-.42.984-.938v-28.25c0-.518-.44-.937-.984-.937Z" fill="#315EFD"/><path d="M23.394 25h-3.951c-.341 0-.617.263-.617.588v3.763c0 .325.276.588.617.588h3.951c.341 0 .618-.263.618-.588v-3.763c0-.325-.277-.588-.618-.588Zm-.617 3.763H20.06v-2.587h2.717v2.587ZM23.394 31.468h-3.951c-.341 0-.617.263-.617.588v3.763c0 .325.276.588.617.588h3.951c.341 0 .618-.263.618-.588v-3.763c0-.325-.277-.588-.618-.588Zm-.617 3.763H20.06v-2.587h2.717v2.587ZM23.394 37.936h-3.951c-.341 0-.617.263-.617.588v3.763c0 .325.276.588.617.588h3.951c.341 0 .618-.263.618-.588v-3.763c0-.325-.277-.588-.618-.588Zm-.617 3.763H20.06v-2.587h2.717v2.587ZM27.813 29.213c.121.114.279.172.437.172a.632.632 0 0 0 .436-.172l2.788-2.655a.569.569 0 0 0 0-.831.64.64 0 0 0-.873 0l-2.351 2.238-.937-.892a.64.64 0 0 0-.873 0 .569.569 0 0 0 0 .831l1.373 1.309ZM27.813 35.68c.116.11.273.173.437.173.164 0 .32-.062.436-.172l2.788-2.655a.569.569 0 0 0 0-.832.64.64 0 0 0-.873 0l-2.351 2.24-.937-.893a.64.64 0 0 0-.873 0 .569.569 0 0 0 0 .832l1.373 1.308ZM28.957 41.237l.957.911c.12.115.279.173.437.173a.632.632 0 0 0 .436-.172.568.568 0 0 0 0-.832l-.957-.912.957-.911a.568.568 0 0 0 0-.832.64.64 0 0 0-.873 0l-.957.912-.957-.912a.64.64 0 0 0-.873 0 .569.569 0 0 0 0 .832l.957.911-.957.912a.569.569 0 0 0 0 .831c.12.115.278.173.436.173a.632.632 0 0 0 .437-.172l.957-.912Z" fill="#fff"/></svg>