<svg xmlns="http://www.w3.org/2000/svg" xml:space="preserve" width="150" height="150" xmlns:xlink="http://www.w3.org/1999/xlink" shape-rendering="geometricPrecision" text-rendering="geometricPrecision" image-rendering="optimizeQuality" fill-rule="evenodd" clip-rule="evenodd"><defs><clipPath id="prefix__id0"><path d="M-1625.702-1590.313h760.001v760.002h-760.001z"/></clipPath><style>.prefix__str0{stroke:#000;stroke-width:.667;stroke-miterlimit:2.61313}.prefix__fil1{fill:none}.prefix__fil0{fill:#000}</style></defs><g id="prefix__Layer_x0020_1"><g clip-path="url(#prefix__id0)"><image x="-1625.702" y="-1590.313" width="760.001" height="760.001" xlink:href="dots_Images\dots_ImgID1.png"/></g><path class="prefix__fil0" d="M0 10.833c5.983 0 10.833-4.85 10.833-10.833H0v10.833zm100 0c5.983 0 10.833-4.85 10.833-10.833H89.166c0 5.983 4.851 10.833 10.834 10.833zM139.166 0H150v10.833c-5.983 0-10.834-4.85-10.834-10.833zM150 39.167v21.667c-5.983 0-10.834-4.851-10.834-10.834S144.017 39.167 150 39.167zm-50 0c5.983 0 10.833 4.85 10.833 10.833 0 5.983-4.85 10.834-10.833 10.834-5.983 0-10.834-4.851-10.834-10.834S94.017 39.167 100 39.167zm24.999-9.07a5.098 5.098 0 1 0 0-10.196 5.098 5.098 0 0 0 0 10.196zM150 89.167v21.666c-5.983 0-10.834-4.85-10.834-10.833 0-5.983 4.851-10.833 10.834-10.833zm-50 0c5.983 0 10.833 4.85 10.833 10.833 0 5.983-4.85 10.833-10.833 10.833-5.983 0-10.834-4.85-10.834-10.833 0-5.983 4.851-10.833 10.834-10.833zm24.999-9.07a5.098 5.098 0 1 0 0-10.196 5.098 5.098 0 0 0 0 10.196zm-75-69.264c5.984 0 10.834-4.85 10.834-10.833H39.166c0 5.983 4.85 10.833 10.833 10.833zm0 28.334c5.984 0 10.834 4.85 10.834 10.833 0 5.983-4.85 10.834-10.834 10.834-5.983 0-10.833-4.851-10.833-10.834s4.85-10.833 10.833-10.833zm25-9.07a5.097 5.097 0 1 0 .002-10.194 5.097 5.097 0 0 0-.002 10.194zm-25 59.07c5.984 0 10.834 4.85 10.834 10.833 0 5.983-4.85 10.833-10.834 10.833-5.983 0-10.833-4.85-10.833-10.833 0-5.983 4.85-10.833 10.833-10.833zm25-9.07a5.097 5.097 0 1 0 .002-10.194 5.097 5.097 0 0 0-.002 10.194zM0 60.834c5.983 0 10.833-4.851 10.833-10.834S5.983 39.167 0 39.167v21.667zm24.999-30.737a5.097 5.097 0 1 0 0-10.194 5.097 5.097 0 0 0 0 10.194zM0 110.833c5.983 0 10.833-4.85 10.833-10.833 0-5.983-4.85-10.833-10.833-10.833v21.666zm24.999-30.736a5.097 5.097 0 1 0 0-10.194 5.097 5.097 0 0 0 0 10.194zM150 139.167V150h-10.834c0-5.983 4.851-10.833 10.834-10.833zM110.833 150H89.166c0-5.983 4.851-10.833 10.834-10.833s10.833 4.85 10.833 10.833zm14.166-19.903a5.098 5.098 0 1 0 0-10.196 5.098 5.098 0 0 0 0 10.196zM60.833 150H39.166c0-5.983 4.85-10.833 10.833-10.833 5.984 0 10.834 4.85 10.834 10.833zm14.166-19.903a5.097 5.097 0 1 0 .002-10.194 5.097 5.097 0 0 0-.002 10.194zM10.833 150H0v-10.833c5.983 0 10.833 4.85 10.833 10.833zm14.166-19.903a5.097 5.097 0 1 0 0-10.194 5.097 5.097 0 0 0 0 10.194zM621.037-31.434a4.9 4.9 0 1 0 0-9.8 4.9 4.9 0 0 0 0 9.8zm75.001 78.235a4.9 4.9 0 1 1 0 9.8 4.9 4.9 0 0 1 0-9.8zm-15.859 35.883h8.028c0-16.386-13.283-29.668-29.668-29.668h-.003c-16.385 0-29.668 13.282-29.668 29.668h8.027c0-11.952 9.689-21.641 21.641-21.641h.003c11.952 0 21.64 9.689 21.64 21.641zm23.689 0h8.027c0-11.952 9.689-21.641 21.641-21.641h.003v-8.027h-.003c-16.385 0-29.668 13.282-29.668 29.668zm13.81-75.001c0 11.952-9.689 21.641-21.64 21.641-11.952 0-21.641-9.689-21.641-21.641 0-11.951 9.689-21.64 21.641-21.64 11.951 0 21.64 9.689 21.64 21.64zm-51.309 0c0 16.386 13.283 29.669 29.669 29.669 16.385 0 29.668-13.283 29.668-29.669 0-16.385-13.283-29.668-29.668-29.668-16.386 0-29.669 13.283-29.669 29.668zm29.669-39.117a4.9 4.9 0 1 0 0-9.8 4.9 4.9 0 0 0 0 9.8zm-15.859-35.883h8.028c0 16.385-13.283 29.668-29.668 29.668h-.003c-16.385 0-29.668-13.283-29.668-29.668h8.027c0 11.952 9.689 21.641 21.641 21.641h.003c11.952 0 21.64-9.689 21.64-21.641zm23.689 0h8.027c0 11.952 9.689 21.641 21.641 21.641h.003v8.027h-.003c-16.385 0-29.668-13.283-29.668-29.668zM621.037 46.801a4.9 4.9 0 1 1 0 9.8 4.9 4.9 0 0 1 0-9.8zm-15.858 35.883h8.028c0-16.386-13.283-29.668-29.668-29.668v8.027c11.952 0 21.64 9.689 21.64 21.641zm37.499-75.001c0 11.952-9.689 21.641-21.641 21.641-11.951 0-21.64-9.689-21.64-21.641 0-11.951 9.689-21.64 21.64-21.64 11.952 0 21.641 9.689 21.641 21.64zm-51.309 0c0 16.386 13.283 29.669 29.668 29.669 16.386 0 29.669-13.283 29.669-29.669 0-16.385-13.283-29.668-29.669-29.668-16.385 0-29.668 13.283-29.668 29.668zm13.81-75h8.028c0 16.385-13.283 29.668-29.668 29.668v-8.027c11.952 0 21.64-9.689 21.64-21.641z"/><path class="prefix__fil0 prefix__str0" d="M588.801 102.705h18.75l-18.75 37.624v-37.624zm75 0h18.75c-24.926 50.017-49.951 99.983-74.876 150h-18.75c24.95-50.067 49.925-99.933 74.876-150zm75 0v37.624c-18.683 37.491-37.424 74.847-56.126 112.376h-18.75c24.951-50.067 49.925-99.933 74.876-150zm-150 75h.124l37.376-75h18.75c-18.744 37.612-37.526 75.051-56.25 112.625v-37.625zm56.374 75h-18.75c24.951-50.067 49.925-99.933 74.876-150h18.75c-24.925 50.016-49.95 99.983-74.876 150zm93.626-75v37.625l-18.626 37.375h-18.75l37.376-75z"/><path class="prefix__fil1 prefix__str0" d="M-2693.634-399.475h30l-30 60.2v-60.2zm120 0v60.2l-29.801 59.8h-30l59.801-120zM-2813.634-399.475h30l-30 60.2v-60.2zm120 0v60.2l-29.801 59.8h-30l59.801-120z"/><path class="prefix__fil1 prefix__str0" transform="matrix(1.00986 0 -.45998 .923 -2633.63 -399.475)" d="M0 0h29.707v130.01H0z"/><path class="prefix__fil1 prefix__str0" transform="matrix(1.00986 0 -.45998 .923 -2753.63 -399.475)" d="M0 0h29.707v130.01H0z"/><path class="prefix__fil1 prefix__str0" d="M-2693.634-279.475h30l-30 60.2v-60.2zm120 0v60.2l-29.801 59.8h-30l59.801-120zM-2813.634-279.475h30l-30 60.2v-60.2zm120 0v60.2l-29.801 59.8h-30l59.801-120z"/><path class="prefix__fil1 prefix__str0" transform="matrix(1.00986 0 -.45998 .923 -2633.63 -279.475)" d="M0 0h29.707v130.01H0z"/><path class="prefix__fil1 prefix__str0" transform="matrix(1.00986 0 -.45998 .923 -2753.63 -279.475)" d="M0 0h29.707v130.01H0z"/></g></svg>