<svg xmlns="http://www.w3.org/2000/svg" xml:space="preserve" width="150" height="150" xmlns:xlink="http://www.w3.org/1999/xlink" shape-rendering="geometricPrecision" text-rendering="geometricPrecision" image-rendering="optimizeQuality" fill-rule="evenodd" clip-rule="evenodd"><defs><clipPath id="prefix__id0"><path d="M-1625.702-1590.313h760.001v760.002h-760.001z"/></clipPath><style>.prefix__str0{stroke:#000;stroke-width:.667;stroke-miterlimit:2.61313}.prefix__fil1{fill:none}.prefix__fil0{fill:#000}</style></defs><g id="prefix__Layer_x0020_1"><g clip-path="url(#prefix__id0)"><image x="-1625.702" y="-1590.313" width="760.001" height="760.001" xlink:href="lines_Images\lines_ImgID1.png"/></g><path class="prefix__fil0" d="M-250.001-83.167c5.983 0 10.833-4.85 10.833-10.833h-10.833v10.833zm100 0c5.983 0 10.833-4.85 10.833-10.833h-21.666c0 5.983 4.85 10.833 10.833 10.833zM-110.835-94h10.834v10.833c-5.983 0-10.834-4.85-10.834-10.833zm10.834 39.166v21.667c-5.983 0-10.834-4.85-10.834-10.833 0-5.983 4.851-10.834 10.834-10.834zm-50 0c5.983 0 10.833 4.851 10.833 10.834s-4.85 10.833-10.833 10.833c-5.983 0-10.833-4.85-10.833-10.833 0-5.983 4.85-10.834 10.833-10.834zm25-9.069a5.097 5.097 0 1 0 0-10.194 5.097 5.097 0 0 0 0 10.194zm25 59.07v21.666c-5.983 0-10.834-4.85-10.834-10.833 0-5.983 4.851-10.833 10.834-10.833zm-50 0c5.983 0 10.833 4.85 10.833 10.833 0 5.983-4.85 10.833-10.833 10.833-5.983 0-10.833-4.85-10.833-10.833 0-5.983 4.85-10.833 10.833-10.833zm25-9.07a5.097 5.097 0 1 0 0-10.194 5.097 5.097 0 0 0 0 10.194zm-75-69.264c5.983 0 10.833-4.85 10.833-10.833h-21.667c0 5.983 4.851 10.833 10.834 10.833zm0 28.333c5.983 0 10.833 4.851 10.833 10.834s-4.85 10.833-10.833 10.833c-5.983 0-10.834-4.85-10.834-10.833 0-5.983 4.851-10.834 10.834-10.834zm24.999-9.069A5.097 5.097 0 1 0-175-74.097a5.097 5.097 0 0 0-.002 10.194zm-24.999 59.07c5.983 0 10.833 4.85 10.833 10.833 0 5.983-4.85 10.833-10.833 10.833-5.983 0-10.834-4.85-10.834-10.833 0-5.983 4.851-10.833 10.834-10.833zm24.999-9.07A5.097 5.097 0 1 0-175-24.097a5.097 5.097 0 0 0-.002 10.194zm-74.999-19.264c5.983 0 10.833-4.85 10.833-10.833 0-5.983-4.85-10.834-10.833-10.834v21.667zm24.999-30.736a5.098 5.098 0 1 0 0-10.196 5.098 5.098 0 0 0 0 10.196zm-24.999 80.736c5.983 0 10.833-4.85 10.833-10.833 0-5.983-4.85-10.833-10.833-10.833v21.666zm24.999-30.736a5.098 5.098 0 1 0 0-10.196 5.098 5.098 0 0 0 0 10.196zm125.001 59.07V56h-10.834c0-5.983 4.851-10.833 10.834-10.833zM-139.168 56h-21.666c0-5.983 4.85-10.833 10.833-10.833 5.983 0 10.833 4.85 10.833 10.833zm14.167-19.903a5.097 5.097 0 1 0 0-10.194 5.097 5.097 0 0 0 0 10.194zM-189.168 56h-21.667c0-5.983 4.851-10.833 10.834-10.833s10.833 4.85 10.833 10.833zm14.166-19.903A5.097 5.097 0 1 0-175 25.903a5.097 5.097 0 0 0-.002 10.194zM-239.168 56h-10.833V45.167c5.983 0 10.833 4.85 10.833 10.833zm14.166-19.903a5.098 5.098 0 1 0 0-10.196 5.098 5.098 0 0 0 0 10.196zM-245.501 133.371a4.9 4.9 0 1 0 0-9.8 4.9 4.9 0 0 0 0 9.8zm75 78.236a4.9 4.9 0 1 1 0 9.8 4.9 4.9 0 0 1 0-9.8zm-15.858 35.882h8.028c0-16.385-13.283-29.668-29.669-29.668h-.003c-16.385 0-29.668 13.283-29.668 29.668h8.028c0-11.952 9.689-21.64 21.64-21.64h.003c11.952 0 21.641 9.688 21.641 21.64zm23.688 0h8.028c0-11.952 9.689-21.64 21.641-21.64h.003v-8.028h-.003c-16.386 0-29.669 13.283-29.669 29.668zm13.811-75c0 11.952-9.689 21.64-21.641 21.64-11.952 0-21.641-9.688-21.641-21.64s9.689-21.64 21.641-21.64c11.952 0 21.641 9.688 21.641 21.64zm-51.309 0c0 16.385 13.283 29.668 29.668 29.668 16.385 0 29.668-13.283 29.668-29.668 0-16.385-13.283-29.668-29.668-29.668-16.385 0-29.668 13.283-29.668 29.668zm29.668-39.118a4.9 4.9 0 1 0 0-9.8 4.9 4.9 0 0 0 0 9.8zm-15.858-35.882h8.028c0 16.385-13.283 29.668-29.669 29.668h-.003c-16.385 0-29.668-13.283-29.668-29.668h8.028c0 11.952 9.689 21.64 21.64 21.64h.003c11.952 0 21.641-9.688 21.641-21.64zm23.688 0h8.028c0 11.952 9.689 21.64 21.641 21.64h.003v8.028h-.003c-16.386 0-29.669-13.283-29.669-29.668zm-82.83 114.118a4.9 4.9 0 1 1 0 9.8 4.9 4.9 0 0 1 0-9.8zm-15.858 35.882h8.027c0-16.385-13.283-29.668-29.668-29.668v8.028c11.952 0 21.641 9.688 21.641 21.64zm37.499-75c0 11.952-9.69 21.64-21.641 21.64-11.952 0-21.641-9.688-21.641-21.64s9.689-21.64 21.641-21.64c11.951 0 21.641 9.688 21.641 21.64zm-51.309 0c0 16.385 13.282 29.668 29.668 29.668 16.385 0 29.668-13.283 29.668-29.668 0-16.385-13.283-29.668-29.668-29.668-16.386 0-29.668 13.283-29.668 29.668zm13.81-75h8.027c0 16.385-13.283 29.668-29.668 29.668v-8.028c11.952 0 21.641-9.688 21.641-21.64z"/><path class="prefix__fil0 prefix__str0" d="M0 0h18.75L0 37.625V0zm75 0h18.75C68.825 50.017 43.8 99.983 18.874 150H.124C25.075 99.933 50.049 50.067 75 0zm75 0v37.625C131.317 75.115 112.577 112.471 93.874 150h-18.75C100.075 99.933 125.049 50.067 150 0zM0 75h.124L37.5 0h18.75C37.506 37.612 18.724 75.051 0 112.625V75zm56.374 75h-18.75C62.575 99.933 87.55 50.067 112.5 0h18.75C106.325 50.016 81.3 99.983 56.374 150zM150 75v37.625L131.374 150h-18.75L150 75z"/><path class="prefix__fil1 prefix__str0" d="M-2693.634-399.475h30l-30 60.2v-60.2zm120 0v60.2l-29.801 59.8h-30l59.801-120zM-2813.634-399.475h30l-30 60.2v-60.2zm120 0v60.2l-29.801 59.8h-30l59.801-120z"/><path class="prefix__fil1 prefix__str0" transform="matrix(1.00986 0 -.45998 .923 -2633.63 -399.475)" d="M0 0h29.707v130.01H0z"/><path class="prefix__fil1 prefix__str0" transform="matrix(1.00986 0 -.45998 .923 -2753.63 -399.475)" d="M0 0h29.707v130.01H0z"/><path class="prefix__fil1 prefix__str0" d="M-2693.634-279.475h30l-30 60.2v-60.2zm120 0v60.2l-29.801 59.8h-30l59.801-120zM-2813.634-279.475h30l-30 60.2v-60.2zm120 0v60.2l-29.801 59.8h-30l59.801-120z"/><path class="prefix__fil1 prefix__str0" transform="matrix(1.00986 0 -.45998 .923 -2633.63 -279.475)" d="M0 0h29.707v130.01H0z"/><path class="prefix__fil1 prefix__str0" transform="matrix(1.00986 0 -.45998 .923 -2753.63 -279.475)" d="M0 0h29.707v130.01H0z"/></g></svg>