<svg width="59" height="58" fill="none" xmlns="http://www.w3.org/2000/svg"><rect x=".5" width="58" height="58" rx="8" fill="#F7F9FC"/><path d="M27.1 31.733c.6.8 1.467 1.2 2.4 1.2.933 0 1.867-.466 2.4-1.2.067-.066.067-.133.133-.2l-.6-.2c-.466.6-1.133.934-1.866.934-.667 0-1.4-.334-1.867-.934l-.667.2c0 .067 0 .2.067.2Z" fill="#F8B64C"/><path d="M45.5 31.867v-5.734l-3-1.266c-.2-.734-.533-1.467-.867-2.134l1.2-3.066-4.066-4-3 1.2c-.667-.334-1.4-.667-2.134-.867l-1.266-3h-5.734l-1.266 3c-.734.267-1.467.533-2.134.867l-3-1.2-4.066 4.066 1.266 3.067c-.333.667-.666 1.4-.866 2.133l-3.067 1.2v5.734l3 1.266c.267.734.533 1.467.867 2.134l-1.2 3 4.066 4.066 3.067-1.2c.667.334 1.4.667 2.133.867l1.267 3h5.733l1.267-3c.733-.267 1.467-.533 2.133-.867l3 1.2 4.067-4.066-1.2-3c.333-.667.667-1.4.867-2.134l2.933-1.266Zm-16 4.266A7.141 7.141 0 0 1 22.367 29c0-3.933 3.2-7.133 7.133-7.133s7.133 3.2 7.133 7.133-3.2 7.133-7.133 7.133Z" fill="#092DAA"/><circle cx="29.5" cy="29" r="10" fill="#092DAA"/><path d="M24.433 34.067c-2.8-2.8-2.8-7.334 0-10.067 2.8-2.8 7.333-2.8 10.067 0l2.133-2.133c-3.933-3.934-10.4-3.934-14.333 0-3.934 3.933-3.934 10.4 0 14.333l2.133-2.133ZM36.7 36.2c3.933-3.933 3.933-10.4 0-14.333L34.566 24c2.8 2.8 2.8 7.333 0 10.067-2.8 2.8-7.333 2.8-10.066 0L22.366 36.2c3.934 3.933 10.334 3.933 14.334 0Z" fill="#305DFC"/><path d="M27.099 27.93c-.054-.608-.439-1.072-.86-1.035-.422.037-.72.56-.668 1.17.054.609.439 1.073.86 1.036.422-.037.72-.561.668-1.17ZM33.407 28.066c.053-.61-.245-1.133-.667-1.17-.422-.037-.807.427-.86 1.036-.054.61.245 1.133.667 1.17.422.037.806-.427.86-1.036Z" fill="#C4D1FF"/><path d="M26.217 24.875c-.256.424-.342.933-.342 1.528v1.103c0 .255 0 .51.086.849.17 1.357.77 2.63 1.71 3.734l.343.34c.343.339.77.508 1.198.508h.513c.428 0 .942-.17 1.198-.509l.343-.34a6.577 6.577 0 0 0 1.71-3.733c0-.255.087-.51.087-.85v-1.102c0-.51-.086-1.019-.343-1.528h-6.503Z" fill="#fff"/><path d="m31.281 32.02-.34.343c-.338.343-.762.514-1.186.514h-.51c-.424 0-.933-.17-1.187-.514l-.34-.342c-.254-.257-.423-.514-.593-.771v1.37l2.375 3.255 2.375-3.255v-1.37c-.17.257-.34.514-.594.77Z" fill="#C4D1FF"/><path d="m25.965 28.206.426.169c-.085-.422 0-1.014.17-1.352 0 0-.255-2.028 1.276-1.859 0 0 1.19.423 3.402 0 0 0 .935-.084.765.93 0 0 0 1.098.51 1.352v.929l.51-.085c.086-.338 0-2.703 0-2.703-.34-1.69-2.38-2.62-2.38-2.62.17-.253.51-.168.51-.168-2.637-1.606-4.338-.085-4.338-.085-1.871 1.69-.85 3.633-.85 3.633a4.478 4.478 0 0 0 0 1.859Z" fill="#769AF7"/><path fill-rule="evenodd" clip-rule="evenodd" d="M37.22 35.356A9.98 9.98 0 0 1 29.5 39a9.977 9.977 0 0 1-7.572-3.468c.29-.474.714-.868 1.211-1.094l4.084-1.876c.595.768 1.531 1.194 2.382 1.194.936 0 1.787-.426 2.382-1.194l4.084 1.876c.486.202.875.52 1.15.918Z" fill="#fff"/></svg>