<svg width="59" height="58" viewBox="0 0 59 58" fill="none" xmlns="http://www.w3.org/2000/svg">
    <rect x="0.5" width="58" height="58" rx="8" fill="#F7F9FC"/>
    <path d="M16.4767 13C14.8023 13 13.5 14.3176 13.5 16.0117V32.7646C13.5 34.4587 14.8023 35.7764 16.4767 35.7764H33.0349C34.7093 35.7764 36.0117 34.4587 36.0117 32.7646V28.247H33.0349V32.7646H16.4767V16.0117H33.0349V19.0235H36.0117V16.0117C36.0117 14.3176 34.7093 13 33.0349 13H16.4767Z" fill="#315EFD"/>
    <path d="M25.965 22.2236C24.2906 22.2236 22.9883 23.5412 22.9883 25.2353V29.7529H25.965V25.2353H42.5232V41.9882H25.965V38.9764H22.9883V41.9882C22.9883 43.6823 24.2906 44.9999 25.965 44.9999H42.5232C44.1976 44.9999 45.4999 43.6823 45.4999 41.9882V25.2353C45.4999 23.5412 44.1976 22.2236 42.5232 22.2236H25.965Z" fill="#2E3242"/>
</svg>
