<svg width="59" height="58" fill="none" xmlns="http://www.w3.org/2000/svg"><rect x=".5" width="58" height="58" rx="8" fill="#F7F9FC"/><path d="M16.477 13c-1.675 0-2.977 1.318-2.977 3.012v16.753c0 1.694 1.302 3.011 2.977 3.011h16.558c1.674 0 2.977-1.317 2.977-3.011v-4.518h-2.977v4.518H16.477V16.012h16.558v3.011h2.977v-3.011c0-1.694-1.303-3.012-2.977-3.012H16.477Z" fill="#315EFD"/><path d="M25.965 22.224c-1.674 0-2.977 1.317-2.977 3.011v4.518h2.977v-4.518h16.558v16.753H25.965v-3.012h-2.977v3.012c0 1.694 1.303 3.012 2.977 3.012h16.558c1.675 0 2.977-1.318 2.977-3.012V25.235c0-1.694-1.302-3.011-2.977-3.011H25.965Z" fill="#2E3242"/></svg>