<svg width="59" height="58" viewBox="0 0 59 58" fill="none" xmlns="http://www.w3.org/2000/svg">
    <rect x="0.5" width="58" height="58" rx="8" fill="#F7F9FC"/>
    <path d="M45.5 36.3697V18.5625C45.5 18.0447 45.0802 17.625 44.5625 17.625H40.3125C39.7947 17.625 39.375 18.0447 39.375 18.5625V36.3697H45.5Z" fill="#0A33C1"/>
    <path d="M39.375 36.2633V36.375C39.375 36.563 39.4315 36.7467 39.5373 36.9022L41.6623 40.0272C41.8368 40.2839 42.1271 40.4375 42.4375 40.4375C42.7479 40.4375 43.0382 40.2839 43.2127 40.0272L45.3377 36.9022C45.4434 36.7467 45.5 36.5631 45.5 36.375V36.2633H39.375Z" fill="#D4D9DD"/>
    <path d="M44.5625 17.625H42.4375V36.3697H45.5V18.5625C45.5 18.0447 45.0803 17.625 44.5625 17.625Z" fill="#315EFD"/>
    <path opacity="0.4" d="M42.4375 36.2633V40.4375C42.7479 40.4375 43.0382 40.2839 43.2127 40.0272L45.3377 36.9022C45.4434 36.7467 45.5 36.5631 45.5 36.375V36.2633H42.4375Z" fill="#8CA3A6"/>
    <path d="M31.2187 20.5H19.4062C18.8622 20.5 18.4219 20.0807 18.4219 19.5625C18.4219 19.0443 18.8622 18.625 19.4062 18.625C19.9494 18.625 20.3906 18.2048 20.3906 17.6875V15.8125C20.3906 15.2943 20.8309 14.875 21.375 14.875H22.5276C22.9342 13.7837 24.0291 13 25.3125 13C26.5959 13 27.6908 13.7837 28.0974 14.875H29.25C29.7941 14.875 30.2344 15.2943 30.2344 15.8125V17.6875C30.2344 18.2048 30.6756 18.625 31.2187 18.625C31.7628 18.625 32.2031 19.0443 32.2031 19.5625C32.2031 20.0807 31.7628 20.5 31.2187 20.5Z" fill="#092DAA"/>
    <path d="M36.1406 14.875H32.0218C32.1321 15.1697 32.2031 15.4822 32.2031 15.8125V16.9102C33.349 17.2974 34.1719 18.3403 34.1719 19.5625C34.1719 21.1134 32.8472 22.375 31.2188 22.375H19.4062C17.7778 22.375 16.4531 21.1134 16.4531 19.5625C16.4531 18.3403 17.276 17.2975 18.4219 16.9102V15.8125C18.4219 15.4822 18.4929 15.1697 18.6032 14.875H14.4844C13.9403 14.875 13.5 15.2943 13.5 15.8125V44.0625C13.5 44.5807 13.9403 45 14.4844 45H36.1406C36.6847 45 37.125 44.5807 37.125 44.0625V15.8125C37.125 15.2943 36.6847 14.875 36.1406 14.875Z" fill="#315EFD"/>
    <path d="M23.3949 25H19.4436C19.1026 25 18.8262 25.2632 18.8262 25.588V29.3512C18.8262 29.6759 19.1026 29.9391 19.4436 29.9391H23.3949C23.7359 29.9391 24.0123 29.6759 24.0123 29.3512V25.588C24.0123 25.2632 23.7359 25 23.3949 25ZM22.7775 28.7632H20.061V26.176H22.7775V28.7632Z" fill="white"/>
    <path d="M23.3949 31.4679H19.4436C19.1026 31.4679 18.8262 31.7311 18.8262 32.0559V35.8191C18.8262 36.1439 19.1026 36.4071 19.4436 36.4071H23.3949C23.7359 36.4071 24.0123 36.1439 24.0123 35.8191V32.0559C24.0123 31.7311 23.7359 31.4679 23.3949 31.4679ZM22.7775 35.2311H20.061V32.6439H22.7775V35.2311Z" fill="white"/>
    <path d="M23.3949 37.9359H19.4436C19.1026 37.9359 18.8262 38.1991 18.8262 38.5238V42.287C18.8262 42.6118 19.1026 42.875 19.4436 42.875H23.3949C23.7359 42.875 24.0123 42.6118 24.0123 42.287V38.5238C24.0123 38.1991 23.7359 37.9359 23.3949 37.9359ZM22.7775 41.699H20.061V39.1118H22.7775V41.699Z" fill="white"/>
    <path d="M27.8142 29.2127C27.9347 29.3275 28.0927 29.3849 28.2507 29.3849C28.4086 29.3849 28.5666 29.3275 28.6872 29.2127L31.4746 26.558C31.7156 26.3285 31.7156 25.9562 31.4746 25.7265C31.2335 25.4968 30.8425 25.4968 30.6014 25.7265L28.2507 27.9652L27.3137 27.0729C27.0726 26.8432 26.6819 26.8432 26.4405 27.0729C26.1995 27.3026 26.1995 27.6749 26.4405 27.9044L27.8142 29.2127Z" fill="white"/>
    <path d="M27.8142 35.6806C27.9299 35.7908 28.0869 35.8529 28.2507 35.8529C28.4144 35.8529 28.5714 35.7908 28.6872 35.6806L31.4746 33.0261C31.7156 32.7964 31.7156 32.4241 31.4746 32.1944C31.2335 31.965 30.8425 31.965 30.6014 32.1944L28.2507 34.4334L27.3137 33.5411C27.0726 33.3114 26.6819 33.3114 26.4405 33.5411C26.1995 33.7705 26.1995 34.1428 26.4405 34.3725L27.8142 35.6806Z" fill="white"/>
    <path d="M28.9582 41.2371L29.9154 42.1485C30.036 42.2633 30.1939 42.3208 30.3519 42.3208C30.5099 42.3208 30.6678 42.2633 30.7884 42.1485C31.0296 41.9188 31.0296 41.5465 30.7884 41.317L29.8315 40.4054L30.7884 39.4938C31.0296 39.2643 31.0296 38.892 30.7884 38.6623C30.5473 38.4327 30.1566 38.4327 29.9154 38.6623L28.9582 39.5737L28.0012 38.6623C27.7601 38.4329 27.3694 38.4327 27.128 38.6623C26.887 38.892 26.887 39.2643 27.128 39.4938L28.0852 40.4054L27.128 41.317C26.887 41.5465 26.887 41.9188 27.128 42.1485C27.2485 42.2633 27.4068 42.3208 27.5647 42.3208C27.7227 42.3208 27.8807 42.2633 28.0012 42.1485L28.9582 41.2371Z" fill="white"/>
</svg>
