<svg width="59" height="58" viewBox="0 0 59 58" fill="none" xmlns="http://www.w3.org/2000/svg">
    <rect x="0.5" width="58" height="58" rx="8" fill="#F7F9FC"/>
    <path fill-rule="evenodd" clip-rule="evenodd" d="M25.7472 15.7039L19.385 22.0661C18.7488 22.7023 17.7945 22.7023 17.1583 22.0661L13.9772 18.885C13.3409 18.2488 13.3409 17.2945 13.9772 16.6583C14.6134 16.022 15.5677 16.022 16.2039 16.6583L18.4307 18.726L23.6795 13.4772C24.3157 12.8409 25.27 12.8409 25.9063 13.4772C26.3834 14.1134 26.3834 15.0677 25.7472 15.7039ZM25.7472 26.8377L19.385 33.1999C18.7488 33.8361 17.7945 33.8361 17.1583 33.1999L13.9772 30.0188C13.3409 29.3826 13.3409 28.4283 13.9772 27.792C14.6134 27.1558 15.5677 27.1558 16.2039 27.792L18.4307 29.8598L23.6795 24.611C24.3157 23.9747 25.27 23.9747 25.9063 24.611C26.3834 25.2472 26.3834 26.2015 25.7472 26.8377ZM17.1583 44.3342C17.7945 44.9704 18.7488 44.9704 19.385 44.3342L25.7472 37.972C26.3834 37.3358 26.3834 36.3814 25.9063 35.7452C25.27 35.109 24.3157 35.109 23.6795 35.7452L18.4307 40.994L16.2039 38.9263C15.5677 38.2901 14.6134 38.2901 13.9772 38.9263C13.3409 39.5625 13.3409 40.5169 13.9772 41.1531L17.1583 44.3342Z" fill="#2E3242"/>
    <path fill-rule="evenodd" clip-rule="evenodd" d="M43.562 19.3621H31.792C30.8376 19.5212 30.0424 19.044 29.8833 18.0897C29.5652 17.1353 30.0424 16.3401 30.9967 16.181H31.6329H43.4029C44.3573 16.022 45.1525 16.4991 45.3116 17.4535C45.4706 18.4078 45.1525 19.044 44.1982 19.3621H43.562ZM43.562 30.4949H31.792C30.8376 30.654 30.0424 30.1768 29.8833 29.2225C29.5652 28.2682 30.0424 27.4729 30.9967 27.3138H31.6329H43.4029C44.3573 27.1548 45.1525 27.6319 45.3116 28.5863C45.4706 29.5406 44.9935 30.3359 44.0392 30.4949H43.562ZM31.7918 41.6298H43.5619H44.1981C45.1524 41.4707 45.6296 40.6755 45.4705 39.7211C45.3115 38.7668 44.5162 38.2896 43.5619 38.4487H31.7918H31.1556C30.2013 38.6077 29.7241 39.403 29.8832 40.3573C30.0422 41.3117 30.8375 41.7888 31.7918 41.6298Z" fill="#305DFC"/>
</svg>
