<svg width="59" height="58" fill="none" xmlns="http://www.w3.org/2000/svg"><rect x=".5" width="58" height="58" rx="8" fill="#F7F9FC"/><path opacity=".2" d="M29.352 43c6.698 0 12.128-1.345 12.128-3.005s-5.43-3.004-12.128-3.004c-6.7 0-12.13 1.345-12.13 3.004 0 1.66 5.43 3.005 12.13 3.005Z" fill="#2E3242"/><path d="M18.316 23.98c-.153 0-.28-.052-.432-.128-.33-.23-3.382-2.317-3.382-4.71 0-.154 0-.28.025-.408-.737-.611-1.093-1.554-1.017-2.7a.752.752 0 0 1 .814-.712.752.752 0 0 1 .712.815c-.026.28 0 .534.05.763.382-.61.89-.993 1.4-1.145.838-.28 1.703-.026 2.211.636.509.688.56 1.477.102 2.088-.534.713-1.653 1.044-2.72.917.228 1.273 2.034 2.75 2.695 3.183.356.229.432.713.203 1.07a.806.806 0 0 1-.661.33Zm-2.034-6.087c.56.077 1.119-.101 1.271-.305.025-.026.05-.076-.102-.255-.152-.203-.407-.152-.508-.101-.229.05-.483.28-.661.662Z" fill="#092DAA"/><path d="M43.743 24.921H42.37c-.33-2.088-1.45-3.997-3.153-5.5l.229-3.666-3.077 1.757c-2.009-.994-4.399-1.58-6.967-1.58-7.247-.025-13.12 4.584-13.12 10.262 0 3.183 1.83 6.01 4.703 7.894l-.508 1.324c-.56 1.451.178 3.056 1.602 3.616 1.45.56 3.051-.178 3.61-1.605l.483-1.247c1.018.203 2.086.305 3.179.305 1.043 0 2.06-.102 3.051-.28l.483 1.222a2.778 2.778 0 0 0 3.611 1.605 2.784 2.784 0 0 0 1.602-3.616l-.458-1.248c1.399-.89 2.569-2.011 3.408-3.31h2.695a1.02 1.02 0 0 0 1.017-1.018V25.94a1.02 1.02 0 0 0-1.017-1.019Z" fill="#305DFC"/><path d="M32.53 17.028c1.525 0 3 .152 4.398.458-2.11-1.095-4.678-1.732-7.424-1.732-7.298 0-13.223 4.508-13.223 10.058 0 .357.026.688.077 1.044 1.678-5.627 8.263-9.828 16.171-9.828Z" fill="#6892FF"/><g opacity=".2" fill="#092DAA"><path opacity=".2" d="M40.87 31.109c-3.484 1.451-6.281 1.96-11.24 1.706-6.814-.357-12.383-4.202-12.815-9.523-.33.916-.534 1.884-.534 2.902 0 3.183 1.831 6.01 4.704 7.894l-.508 1.324c-.56 1.451.178 3.056 1.602 3.616 1.45.56 3.051-.178 3.61-1.604l.483-1.248c1.018.204 2.086.305 3.179.305 1.043 0 2.06-.101 3.051-.28l.483 1.223a2.778 2.778 0 0 0 3.611 1.604 2.784 2.784 0 0 0 1.602-3.616l-.458-1.248c1.322-.84 2.416-1.884 3.23-3.055ZM40.691 30.523l3.052.331a1.02 1.02 0 0 0 1.017-1.018v-.84h-3.306s-.28 1.349-.763 1.527Z"/></g><path d="M25.436 19.32a12.415 12.415 0 0 1 3.94-.637c1.298 0 2.543.204 3.688.56" fill="#305DFC"/><path d="M25.435 20.083a.74.74 0 0 1-.712-.509c-.127-.407.076-.84.483-.968 1.323-.458 2.721-.662 4.196-.662 1.348 0 2.67.204 3.916.586a.774.774 0 0 1-.458 1.477 11.962 11.962 0 0 0-3.458-.51c-1.297 0-2.543.204-3.687.586h-.28ZM37.767 25.685a1.145 1.145 0 1 0-.001-2.29 1.145 1.145 0 0 0 .001 2.29ZM29.122 36.634a.51.51 0 0 1 0-1.018c1.958 0 3.814-.357 5.543-1.019a.516.516 0 0 1 .661.28.517.517 0 0 1-.28.662 16.428 16.428 0 0 1-5.924 1.095ZM23.91 35.616c-.05 0-.102 0-.178-.026a14.161 14.161 0 0 1-3.967-2.139c-.229-.178-.254-.483-.076-.713.178-.229.483-.254.712-.076 1.068.84 2.314 1.502 3.662 1.986a.52.52 0 0 1 .305.662c-.051.178-.23.306-.458.306Z" fill="#092DAA"/><path d="M35.505 39.97c-.483 0-.991-.102-1.449-.306-.864-.382-1.525-1.095-1.881-1.986l-.255-.662a17.368 17.368 0 0 1-5.263-.025l-.255.662a3.52 3.52 0 0 1-1.881 1.986 3.595 3.595 0 0 1-2.72.076 3.519 3.519 0 0 1-1.984-1.884 3.61 3.61 0 0 1-.076-2.725l.28-.764c-2.849-2.062-4.502-5.016-4.502-8.148 0-6.085 6.205-11.025 13.859-11.025 2.44 0 4.83.51 6.941 1.477l2.772-1.554a.793.793 0 0 1 .788.026c.229.153.381.407.356.688l-.203 3.31c1.525 1.451 2.542 3.183 2.975 5.041h.737c.483 0 .915.179 1.246.535.33.331.534.79.508 1.273v3.896a1.77 1.77 0 0 1-1.78 1.782h-2.263c-.762 1.07-1.729 2.012-2.873 2.827l.255.687a3.61 3.61 0 0 1-.077 2.725c-.381.866-1.093 1.528-1.983 1.884-.407.128-.84.204-1.272.204Zm-3.076-4.558c.305 0 .585.178.712.484l.483 1.222c.203.51.585.917 1.068 1.12.508.23 1.042.23 1.55.051a2.01 2.01 0 0 0 1.12-1.07c.228-.508.228-1.043.05-1.552l-.483-1.248a.775.775 0 0 1 .306-.917c1.322-.84 2.39-1.884 3.178-3.08.153-.204.381-.357.636-.357h2.695c.153 0 .254-.102.254-.255v-3.87c0-.102-.05-.153-.076-.178-.025-.026-.076-.077-.178-.077h-1.373a.79.79 0 0 1-.763-.636c-.305-1.86-1.297-3.616-2.899-5.042a.713.713 0 0 1-.254-.611l.153-2.266-1.882 1.069a.782.782 0 0 1-.712.025c-1.983-.993-4.272-1.502-6.637-1.502-6.789-.05-12.332 4.227-12.332 9.472 0 2.801 1.602 5.424 4.374 7.257a.775.775 0 0 1 .305.917l-.509 1.324c-.203.51-.178 1.07.051 1.553.229.484.61.866 1.119 1.07a1.934 1.934 0 0 0 1.551-.051c.509-.23.864-.611 1.068-1.12l.483-1.248a.746.746 0 0 1 .865-.484c1.932.382 3.966.382 5.95.026.025-.026.076-.026.127-.026Z" fill="#092DAA"/><path d="M32.801 29.28c-.346 0-.49.208-.75.401-.578.46-1.098.654-1.777.654-1.227 0-2.18-.684-2.643-1.827h2.498a.606.606 0 0 0 .607-.61.61.61 0 0 0-.607-.623h-2.801a7.033 7.033 0 0 1-.029-.564c0-.178.015-.342.029-.505h3.422c.347 0 .607-.268.607-.624a.597.597 0 0 0-.607-.609h-3.148c.462-1.173 1.416-1.886 2.672-1.886.693 0 1.227.193 1.776.653.26.193.405.401.751.401.361 0 .65-.326.65-.713 0-.207-.072-.386-.274-.594-.722-.757-1.777-1.188-2.96-1.188-2.095 0-3.698 1.307-4.275 3.327h-.925a.606.606 0 0 0-.606.609.61.61 0 0 0 .606.624h.708c-.014.163-.014.326-.014.505 0 .193.014.386.029.564h-.737c-.347 0-.607.267-.607.624 0 .341.26.609.607.609h.968c.592 1.975 2.195 3.267 4.245 3.267 1.184 0 2.239-.43 2.96-1.188.203-.208.275-.386.275-.594 0-.386-.289-.713-.65-.713Z" fill="#fff"/></svg>