<svg width="59" height="58" fill="none" xmlns="http://www.w3.org/2000/svg"><rect x=".5" width="58" height="58" rx="8" fill="#F7F9FC"/><path fill-rule="evenodd" clip-rule="evenodd" d="M41.854 43.316h-24.71c-.965 0-1.89-.385-2.573-1.07a3.676 3.676 0 0 1-1.071-2.585V18.339c.003-.97.388-1.9 1.07-2.585a3.632 3.632 0 0 1 2.574-1.07h24.71c.965 0 1.891.384 2.575 1.07a3.676 3.676 0 0 1 1.071 2.585v21.322c-.003.97-.388 1.9-1.072 2.586a3.632 3.632 0 0 1-2.574 1.069Z" fill="#092DAA"/><path fill-rule="evenodd" clip-rule="evenodd" d="M17.145 16.232c-.557 0-1.09.221-1.484.616a2.12 2.12 0 0 0-.618 1.491v21.322a2.12 2.12 0 0 0 .618 1.49c.394.395.927.617 1.484.617h24.71c.556 0 1.09-.221 1.484-.617a2.12 2.12 0 0 0 .617-1.49V18.339a2.12 2.12 0 0 0-.617-1.49 2.094 2.094 0 0 0-1.484-.617h-24.71Z" fill="#305DFC"/><path fill-rule="evenodd" clip-rule="evenodd" d="M35.417 20.488a1.021 1.021 0 0 1-.945-.64 1.039 1.039 0 0 1 .224-1.123 1.024 1.024 0 0 1 1.75.73 1.04 1.04 0 0 1-.303.73 1.027 1.027 0 0 1-.726.303Zm2.571 0a1.021 1.021 0 0 1-.945-.64 1.039 1.039 0 0 1 .224-1.123 1.024 1.024 0 0 1 1.75.73 1.04 1.04 0 0 1-.303.73 1.027 1.027 0 0 1-.726.303Zm2.573 0a1.02 1.02 0 0 1-.945-.64 1.039 1.039 0 0 1 .224-1.123 1.024 1.024 0 0 1 1.75.73 1.04 1.04 0 0 1-.303.73 1.027 1.027 0 0 1-.726.303Z" fill="#E6ECFF"/><path d="M39.231 29.718c0 5.338-4.327 9.666-9.665 9.666-5.338 0-9.666-4.328-9.666-9.666 0-5.337 4.328-9.665 9.666-9.665s9.665 4.328 9.665 9.665Z" fill="url(#a)"/><path d="M39.231 29.718c0 5.338-4.327 9.666-9.665 9.666-5.338 0-9.666-4.328-9.666-9.666 0-5.337 4.328-9.665 9.666-9.665s9.665 4.328 9.665 9.665Z" fill="url(#b)"/><path d="M35.497 24.587a1.562 1.562 0 0 0-2.262 0l-3.669 3.793-1.6 1.655-2.069-2.14a1.563 1.563 0 0 0-2.262 0 1.694 1.694 0 0 0 0 2.34l3.2 3.309c.312.323.722.485 1.13.485.41 0 .82-.162 1.132-.485l.469-.485 5.931-6.133a1.693 1.693 0 0 0 0-2.34Z" fill="#fff"/><defs><linearGradient id="a" x1="29.566" y1="20.053" x2="29.566" y2="39.384" gradientUnits="userSpaceOnUse"><stop stop-color="#0A33C1"/><stop offset="1" stop-color="#0A33C1" stop-opacity="0"/></linearGradient><linearGradient id="b" x1="29.566" y1="20.053" x2="29.566" y2="39.384" gradientUnits="userSpaceOnUse"><stop stop-color="#0A33C1"/><stop offset="1" stop-color="#0A33C1" stop-opacity="0"/></linearGradient></defs></svg>