<svg width="24" height="24" viewBox="0 0 24 25" fill="none" xmlns="http://www.w3.org/2000/svg"><path d="M9 1.965v4.91H7v-4.91c-2.84.48-5 2.94-5 5.91 0 2.22 1.21 4.15 3 5.19v8.81c0 .55.45 1 1 1h4c.55 0 1-.45 1-1v-8.81c1.79-1.04 3-2.97 3-5.19 0-2.97-2.16-5.43-5-5.91Zm1 9.37-1 .58v8.96H7v-8.96l-1-.58c-1.23-.72-2-2.04-2-3.46 0-1 .37-1.94 1-2.65v3.65h6v-3.65c.63.71 1 1.65 1 2.65 0 1.42-.77 2.74-2 3.46Zm10.94 7.48a3.253 3.253 0 0 0 0-.89l.97-.73a.22.22 0 0 0 .06-.29l-.92-1.56c-.05-.1-.18-.14-.29-.1l-1.15.45c-.24-.17-.49-.32-.78-.44l-.17-1.19a.235.235 0 0 0-.23-.19h-1.85c-.12 0-.22.08-.24.19l-.17 1.19c-.29.12-.54.27-.78.44l-1.15-.45c-.1-.04-.24 0-.28.1l-.93 1.56c-.06.1-.03.22.06.29l.97.73c-.01.15-.03.3-.03.45 0 .15.02.29.03.44l-.97.74a.22.22 0 0 0-.06.29l.93 1.56c.04.1.18.13.28.1l1.15-.46c.24.18.49.33.78.45l.17 1.19c.02.11.12.19.24.19h1.85c.11 0 .21-.08.23-.19l.17-1.19c.29-.12.54-.27.78-.45l1.15.46c.11.03.24 0 .29-.1l.92-1.56a.22.22 0 0 0-.06-.29l-.97-.74Zm-3.44 1.06c-.83 0-1.5-.67-1.5-1.5s.67-1.5 1.5-1.5 1.5.67 1.5 1.5-.67 1.5-1.5 1.5Z" fill="#fff"/></svg>