<svg width="59" height="59" fill="none" xmlns="http://www.w3.org/2000/svg"><rect x=".5" y=".875" width="58" height="58" rx="8" fill="#F7F9FC"/><path d="M23.35 30.512c-.021 0-.041 0-.062-.002l-8.81-.55a.976.976 0 0 1-.791-1.451c.046-.083 1.157-2.04 3.271-3.748 2.857-2.307 6.18-3.055 9.606-2.164a.977.977 0 0 1 .629 1.378l-2.97 5.994a.977.977 0 0 1-.874.543ZM30.452 45.875a.973.973 0 0 1-.975-.916l-.55-8.81a.977.977 0 0 1 .542-.935l5.994-2.97a.976.976 0 0 1 1.378.63c.892 3.426.143 6.748-2.164 9.605-1.707 2.115-3.665 3.225-3.748 3.272a.976.976 0 0 1-.477.124Z" fill="#305DFC"/><path d="m43.997 21.754-6.313-6.313a.977.977 0 0 0-.967-.246c-4.226 1.25-7.695 3.21-10.311 5.827a19.832 19.832 0 0 0-1.558 1.758c-1.418 1.803-2.603 3.936-3.521 6.338a31.926 31.926 0 0 0-1.415 4.875c-.619 2.975-.652 5.108-.653 5.198a.977.977 0 0 0 .976.988h.012c.09-.001 2.223-.034 5.198-.653a31.887 31.887 0 0 0 4.875-1.415c2.402-.918 4.534-2.103 6.337-3.52a19.758 19.758 0 0 0 1.759-1.559c2.616-2.616 4.577-6.085 5.827-10.311a.976.976 0 0 0-.246-.967Z" fill="#E6ECFF"/><path d="m26.111 38.055-4.73-4.73a.976.976 0 0 0-1.292-.077 9.5 9.5 0 0 0-.854.756c-3.29 3.29-3.392 8.39-3.395 8.605a.975.975 0 0 0 .976.988h.012c.216-.003 5.315-.104 8.605-3.395a9.5 9.5 0 0 0 .756-.854.976.976 0 0 0-.078-1.293Z" fill="#C4D1FF"/><path d="M21.402 28.923 18.5 31.825a.975.975 0 0 0 0 1.38l7.732 7.732a.975.975 0 0 0 1.38 0l2.902-2.902-9.112-9.112Z" fill="#092DAA"/><path d="M34.069 28.347a2.96 2.96 0 0 1-2.106-.872 2.982 2.982 0 0 1 0-4.212 2.96 2.96 0 0 1 2.106-.872c.795 0 1.543.31 2.106.872.562.562.872 1.31.872 2.106 0 .795-.31 1.543-.872 2.106a2.96 2.96 0 0 1-2.106.872Z" fill="#fff"/><path d="M34.069 29.302c-1.051 0-2.038-.41-2.781-1.152a3.937 3.937 0 0 1 0-5.562 3.907 3.907 0 0 1 2.78-1.152c1.051 0 2.039.41 2.782 1.152A3.907 3.907 0 0 1 38 25.368c0 1.051-.408 2.039-1.151 2.782a3.908 3.908 0 0 1-2.782 1.152Zm0-5.914c-.53 0-1.027.206-1.4.58a1.983 1.983 0 0 0 0 2.801c.373.374.87.58 1.4.58.529 0 1.026-.206 1.4-.58.374-.374.58-.871.58-1.4 0-.53-.206-1.026-.58-1.4a1.968 1.968 0 0 0-1.4-.58Z" fill="#092DAA"/><path d="M45.277 14.161a.972.972 0 0 0-.703-.286c-.145.002-3.596.06-7.857 1.32l7.525 7.526c1.26-4.262 1.319-7.713 1.32-7.857a.976.976 0 0 0-.285-.703Z" fill="#305DFC"/><path d="m45.276 14.16-4.797 4.798 3.763 3.763c1.26-4.262 1.319-7.713 1.32-7.857a.976.976 0 0 0-.286-.703Z" fill="#305DFC"/></svg>