<svg width="26" height="25" fill="none" xmlns="http://www.w3.org/2000/svg"><path clip-rule="evenodd" d="M22.266 23.612H3.733a2.724 2.724 0 0 1-1.93-.802A2.757 2.757 0 0 1 1 20.87V4.88c.002-.728.29-1.426.803-1.94a2.724 2.724 0 0 1 1.93-.802h18.533c.723 0 1.418.288 1.93.802.513.514.802 1.211.804 1.94v15.99a2.757 2.757 0 0 1-.804 1.94 2.724 2.724 0 0 1-1.93.802Z" stroke="#fff" stroke-width="1.5"/><path fill-rule="evenodd" clip-rule="evenodd" d="M17.438 6.49a.766.766 0 0 1-.71-.479.778.778 0 0 1 .563-1.053.765.765 0 0 1 .789.329.777.777 0 0 1-.642 1.204Zm1.928 0a.766.766 0 0 1-.709-.479.778.778 0 0 1 .169-.842.767.767 0 0 1 1.312.548.78.78 0 0 1-.227.547.77.77 0 0 1-.545.227Zm1.93 0a.766.766 0 0 1-.709-.479.778.778 0 0 1 .562-1.053.765.765 0 0 1 .79.329.777.777 0 0 1-.098.977.77.77 0 0 1-.545.227Z" fill="#E6ECFF"/><path d="M18.598 13.414a5.549 5.549 0 1 1-11.098 0 5.549 5.549 0 0 1 11.098 0Z" fill="#fff"/><path d="M18.598 13.414a5.549 5.549 0 1 1-11.098 0 5.549 5.549 0 0 1 11.098 0Z" fill="#fff"/><path d="M16.454 10.468a.897.897 0 0 0-1.299 0l-2.106 2.178-.918.95-1.188-1.229a.897.897 0 0 0-1.299 0 .973.973 0 0 0 0 1.343l1.837 1.9a.9.9 0 0 0 1.299 0l.27-.278 3.404-3.521a.972.972 0 0 0 0-1.343Z" fill="#315EFD"/></svg>