<svg width="59" height="59" fill="none" xmlns="http://www.w3.org/2000/svg"><rect x=".5" y=".875" width="58" height="58" rx="8" fill="#F7F9FC"/><path d="m29.5 35.797 15.224 9.587c.473-.39.769-.977.769-1.638V25.718L29.5 35.797Z" fill="#305DFC"/><path d="M13.501 25.718v18.028c0 .661.302 1.247.775 1.638.371.302.844.491 1.36.491h27.728c.517 0 .989-.183 1.36-.491L13.502 25.718Z" fill="#5279FF"/><path d="M30.288 14.135a1.333 1.333 0 0 0-1.582 0L13.501 25.718l3.137 1.978 1.543.977 11.32 7.124 11.318-7.13 1.543-.97 3.137-1.979-15.211-11.583Z" fill="#092DAA"/><path d="M36.87 16.006H17.973a1.33 1.33 0 0 0-1.335 1.329v10.361l1.543.977 11.32 7.124 11.318-7.13 1.543-.97v-6.224l-5.492-5.467Z" fill="#E6ECFF"/><path d="M36.87 16.006v4.144c0 .731.599 1.33 1.336 1.33h4.157l-5.493-5.474ZM33.072 20.194H22.131v1.28h10.941v-1.28ZM36.87 24.024H22.13v1.279h14.74v-1.279ZM36.87 27.854H22.13v1.279h14.74v-1.28Z" fill="#9CB8F8"/></svg>