<svg width="59" height="59" viewBox="0 0 59 59" fill="none" xmlns="http://www.w3.org/2000/svg">
    <rect x="0.5" y="0.875" width="58" height="58" rx="8" fill="#F7F9FC"/>
    <path d="M29.5 35.7967L44.7245 45.3837C45.1969 44.9931 45.4929 44.4073 45.4929 43.746V25.7185L29.5 35.7967Z" fill="#305DFC"/>
    <path d="M13.501 25.7185V43.746C13.501 44.4074 13.8033 44.9931 14.2757 45.3837C14.6474 45.686 15.1198 45.875 15.6363 45.875H43.3641C43.8806 45.875 44.353 45.6923 44.7246 45.3837L13.501 25.7185Z" fill="#5279FF"/>
    <path d="M30.2876 14.1348C29.8151 13.7884 29.1789 13.7884 28.7065 14.1348L13.501 25.7185L16.6378 27.6964L18.1811 28.6727L29.5002 35.7968L40.8193 28.6664L42.3625 27.6964L45.4994 25.7185L30.2876 14.1348Z" fill="#092DAA"/>
    <path d="M36.8698 16.0056H17.9731C17.2361 16.0056 16.6377 16.5977 16.6377 17.3347V27.6964L18.1809 28.6727L29.5001 35.7968L40.8192 28.6664L42.3624 27.6964V21.4731L36.8698 16.0056Z" fill="#E6ECFF"/>
    <path d="M36.8701 16.0056V20.1503C36.8701 20.881 37.4685 21.4794 38.2055 21.4794H42.3628L36.8701 16.0056Z" fill="#9CB8F8"/>
    <path d="M33.072 20.1944H22.1309V21.4731H33.072V20.1944Z" fill="#9CB8F8"/>
    <path d="M36.8703 24.0241H22.1309V25.3028H36.8703V24.0241Z" fill="#9CB8F8"/>
    <path d="M36.8703 27.8539H22.1309V29.1325H36.8703V27.8539Z" fill="#9CB8F8"/>
</svg>
