<svg width="59" height="56" fill="none" xmlns="http://www.w3.org/2000/svg"><rect x=".5" width="58" height="55.875" rx="8" fill="#F7F9FC"/><path d="M43.77 15.524a1.442 1.442 0 1 1 0 2.884 1.442 1.442 0 0 1 0-2.884ZM17.464 37.157a1.802 1.802 0 1 1-.001 3.605 1.802 1.802 0 0 1 0-3.605Z" fill="#305DFC"/><path d="M36.659 29.22a4.808 4.808 0 0 1 4.806 4.81 4.807 4.807 0 1 1-9.613 0 4.808 4.808 0 0 1 4.807-4.81Zm2.869 4.81a2.87 2.87 0 1 0-2.87 2.87 2.87 2.87 0 0 0 2.87-2.87Z" fill="#0A33C1"/><path d="M39.806 25.72c.19.072.377.15.56.235l.087 1.498 1.335-.675a8.89 8.89 0 0 1 2.114 2.115l-.674 1.34 1.5.083c.41.894.678 1.866.771 2.89l-1.251.823 1.252.82a8.773 8.773 0 0 1-.775 2.89l-1.497.087.674 1.336a8.926 8.926 0 0 1-2.11 2.114l-1.339-.674-.087 1.498a8.737 8.737 0 0 1-2.885.775l-.823-1.256-.823 1.256a8.733 8.733 0 0 1-2.884-.775l-.087-1.498-1.34.674a8.845 8.845 0 0 1-2.11-2.114l.672-1.336-1.497-.087a8.84 8.84 0 0 1-.772-2.887l1.252-.823-1.252-.823c.088-.97.342-1.954.772-2.89l1.497-.083-.671-1.34a8.92 8.92 0 0 1 2.11-2.115l1.339.675.087-1.498a8.8 8.8 0 0 1 2.884-.772l.823 1.253.823-1.253c.81.075 1.591.26 2.325.537Zm1.322 8.31a4.471 4.471 0 1 0-8.94 0 4.471 4.471 0 1 0 8.94 0Z" fill="#305DFC"/><path d="m32.952 25.955-.087 1.498-1.34-.675a8.918 8.918 0 0 0-2.11 2.115l.672 1.34-1.497.083a8.844 8.844 0 0 0-.718 2.439h-12.28c-.64 0-1.215-.29-1.598-.744l9.844-8.953 3.046 2.77 3.138-2.77 2.93 2.897Z" fill="#C4D1FF"/><path d="M39.806 15.454V25.72a8.83 8.83 0 0 0-2.325-.537l-.822 1.253-.823-1.253a8.803 8.803 0 0 0-2.885.772l-2.93-2.898 9.597-8.47c.121.263.188.558.188.867ZM13.994 14.104l9.843 8.954-9.843 8.953a2.081 2.081 0 0 1-.494-1.35V15.455c0-.514.185-.985.494-1.35Z" fill="#E6ECFF"/><path d="M13.994 14.104a2.086 2.086 0 0 1 1.599-.743h22.122c.846 0 1.574.502 1.904 1.225L26.884 25.83l-12.89-11.725Z" fill="#305DFC"/><path d="M43.95 14.082a.54.54 0 1 0 0-1.082.54.54 0 0 0 0 1.082ZM43.95 22.374a.54.54 0 1 0 0-1.08.54.54 0 0 0 0 1.08ZM43.95 41.484a.54.54 0 1 1 0 1.082.54.54 0 0 1 0-1.082ZM28.815 41.484a.54.54 0 1 1 0 1.082.54.54 0 0 1 0-1.082ZM23.41 35.715a.54.54 0 1 1-.001 1.082.54.54 0 0 1 0-1.082ZM14.761 41.484a.54.54 0 1 1 0 1.082.54.54 0 0 1 0-1.082Z" fill="#9CB8F8"/><path d="M32.422 15.309H21.346a.36.36 0 0 0 0 .721h11.076a.36.36 0 0 0 0-.721ZM31.038 17.156H22.73a.36.36 0 0 0 0 .72h8.308a.36.36 0 0 0 0-.72ZM29.192 19.003h-4.616a.36.36 0 0 0 0 .721h4.616a.36.36 0 0 0 0-.72Z" fill="#fff"/></svg>