<svg width="59" height="58" fill="none" xmlns="http://www.w3.org/2000/svg"><rect x=".5" width="58" height="58" rx="8" fill="#F7F9FC"/><path d="m24.645 32.041-3.804-2.213a1.682 1.682 0 0 0-2.323.684c-.004.007-.006.015-.009.023l-1.577-5.825a1.72 1.72 0 0 0-.735-1.028 1.746 1.746 0 0 0-1.244-.254 1.676 1.676 0 0 0-1.08.752 1.646 1.646 0 0 0-.192 1.294l2.415 8.933c.116.43.36.814.7 1.103l2.595 2.207a2.207 2.207 0 0 1 .777 1.678v1.191h6.675v-4.738c0-.77-.202-1.526-.588-2.194a4.431 4.431 0 0 0-1.61-1.613ZM44.297 23.428a1.745 1.745 0 0 0-1.244.254 1.72 1.72 0 0 0-.736 1.027l-1.576 5.826c-.004-.008-.005-.016-.01-.023a1.659 1.659 0 0 0-1.013-.836 1.686 1.686 0 0 0-1.31.152l-3.803 2.213c-.67.39-1.224.946-1.61 1.614a4.387 4.387 0 0 0-.589 2.193v4.738h6.676v-1.191a2.19 2.19 0 0 1 .779-1.678l2.594-2.207c.34-.289.584-.674.7-1.103l2.413-8.932a1.642 1.642 0 0 0-.653-1.782 1.678 1.678 0 0 0-.618-.265Z" fill="#E6ECFF"/><path d="M30.737 40.586V45h10.014v-4.414H30.737ZM18.499 40.586V45h10.013v-4.414H18.5ZM37.97 13v6.952c-.001 2.4-.66 4.755-1.905 6.813a13.312 13.312 0 0 1-5.166 4.872l-1.274.673-1.274-.673a13.311 13.311 0 0 1-5.166-4.872 13.167 13.167 0 0 1-1.905-6.813V13l.79.447a6.727 6.727 0 0 0 6.297.176L29.625 13l1.257.623a6.718 6.718 0 0 0 6.292-.176l.795-.447Z" fill="#305DFC"/><path d="M33.865 16.531a9.006 9.006 0 0 1-3.979-.931l-.26-.133-.258.128a8.962 8.962 0 0 1-5.862.733v3.624c-.002 2 .545 3.963 1.583 5.679a11.067 11.067 0 0 0 4.308 4.057l.228.12.23-.12c1.78-.94 3.27-2.342 4.307-4.057a10.947 10.947 0 0 0 1.583-5.68V16.33c-.618.133-1.248.201-1.88.202Z" fill="#0A33C1"/><path d="M33.864 16.531c-.115 0-.23-.016-.346-.02v3.44a10.935 10.935 0 0 1-1.33 5.233 11.04 11.04 0 0 1-3.676 3.976c.286.187.578.366.884.528l.228.12.23-.12c1.78-.94 3.27-2.342 4.307-4.057a10.946 10.946 0 0 0 1.583-5.68V16.33c-.618.133-1.248.201-1.88.202ZM30.737 40.586h10.014v1.655H30.737v-1.655ZM18.499 40.586h10.013v1.655H18.5v-1.655Z" fill="#092DAA"/><path d="m32.771 19.03-4.26 4.224-1.736-1.722a.558.558 0 0 0-.943.392.55.55 0 0 0 .156.388l2.13 2.112a.558.558 0 0 0 .787 0l4.653-4.614a.551.551 0 0 0-.606-.904.557.557 0 0 0-.18.124Z" fill="#fff"/><path d="M40.873 30.964a1.767 1.767 0 0 1-.866 1.221l-3.171 1.736.246.487 2.926-1.671c.308-.175.556-.437.71-.754.154-.316.208-.671.154-1.019ZM18.377 30.964a1.766 1.766 0 0 0 .866 1.221l3.17 1.736-.242.486-2.927-1.672a1.744 1.744 0 0 1-.71-.752 1.726 1.726 0 0 1-.157-1.019Z" fill="#9CB8F8"/></svg>