<svg xmlns="http://www.w3.org/2000/svg" width="139.97" height="140" viewBox="0 0 139.97 140">
  <metadata><?xpacket begin="﻿" id="W5M0MpCehiHzreSzNTczkc9d"?>
<x:xmpmeta xmlns:x="adobe:ns:meta/" x:xmptk="Adobe XMP Core 5.6-c142 79.160924, 2017/07/13-01:06:39        ">
   <rdf:RDF xmlns:rdf="http://www.w3.org/1999/02/22-rdf-syntax-ns#">
      <rdf:Description rdf:about=""/>
   </rdf:RDF>
</x:xmpmeta>
                                                                                                    
                                                                                                    
                                                                                                    
                                                                                                    
                                                                                                    
                                                                                                    
                                                                                                    
                                                                                                    
                                                                                                    
                                                                                                    
                                                                                                    
                                                                                                    
                                                                                                    
                                                                                                    
                                                                                                    
                                                                                                    
                                                                                                    
                                                                                                    
                                                                                                    
                                                                                                    
                           
<?xpacket end="w"?></metadata>
<defs>
    <style>
      .cls-1 {
        fill-rule: evenodd;
      }
    </style>
  </defs>
  <path id="QR" class="cls-1" d="M1357.51,308h4.24v4.242h-4.24V308Zm4.24,0h4.24v4.242h-4.24V308Zm4.24,0h4.24v4.242h-4.24V308Zm4.24,0h4.24v4.242h-4.24V308Zm4.24,0h4.24v4.242h-4.24V308Zm4.24,0h4.24v4.242h-4.24V308Zm4.24,0h4.24v4.242h-4.24V308Zm12.73,0h4.24v4.242h-4.24V308Zm8.48,0h4.24v4.242h-4.24V308Zm25.44,0h4.25v4.242h-4.25V308Zm4.25,0h4.24v4.242h-4.24V308Zm4.24,0h4.24v4.242h-4.24V308Zm4.24,0h4.24v4.242h-4.24V308Zm12.72,0h4.24v4.242h-4.24V308Zm12.72,0h4.24v4.242h-4.24V308Zm4.24,0h4.25v4.242h-4.25V308Zm4.25,0h4.24v4.242h-4.24V308Zm4.24,0h4.24v4.242h-4.24V308Zm4.24,0h4.24v4.242h-4.24V308Zm4.24,0h4.24v4.242h-4.24V308Zm4.24,0h4.24v4.242h-4.24V308Zm-135.71,4.242h4.24v4.243h-4.24v-4.243Zm25.44,0h4.24v4.243h-4.24v-4.243Zm8.48,0h4.25v4.243h-4.25v-4.243Zm4.25,0h4.24v4.243h-4.24v-4.243Zm4.24,0h4.24v4.243h-4.24v-4.243Zm12.72,0h4.24v4.243h-4.24v-4.243Zm4.24,0h4.24v4.243h-4.24v-4.243Zm4.24,0h4.24v4.243h-4.24v-4.243Zm4.24,0h4.24v4.243h-4.24v-4.243Zm16.97,0h4.24v4.243h-4.24v-4.243Zm4.24,0h4.24v4.243h-4.24v-4.243Zm21.2,0h4.24v4.243h-4.24v-4.243Zm25.45,0h4.24v4.243h-4.24v-4.243Zm-135.71,4.243h4.24v4.242h-4.24v-4.242Zm8.48,0h4.24v4.242h-4.24v-4.242Zm4.24,0h4.24v4.242h-4.24v-4.242Zm4.24,0h4.24v4.242h-4.24v-4.242Zm8.48,0h4.24v4.242h-4.24v-4.242Zm12.73,0h4.24v4.242h-4.24v-4.242Zm4.24,0h4.24v4.242h-4.24v-4.242Zm4.24,0h4.24v4.242h-4.24v-4.242Zm4.24,0h4.24v4.242h-4.24v-4.242Zm38.17,0h4.24v4.242h-4.24v-4.242Zm4.24,0h4.24v4.242h-4.24v-4.242Zm4.24,0h4.24v4.242h-4.24v-4.242Zm4.24,0h4.24v4.242h-4.24v-4.242Zm8.48,0h4.24v4.242h-4.24v-4.242Zm8.49,0h4.24v4.242h-4.24v-4.242Zm4.24,0h4.24v4.242h-4.24v-4.242Zm4.24,0h4.24v4.242h-4.24v-4.242Zm8.48,0h4.24v4.242h-4.24v-4.242Zm-135.71,4.242h4.24v4.242h-4.24v-4.242Zm8.48,0h4.24v4.242h-4.24v-4.242Zm4.24,0h4.24v4.242h-4.24v-4.242Zm4.24,0h4.24v4.242h-4.24v-4.242Zm8.48,0h4.24v4.242h-4.24v-4.242Zm8.48,0h4.25v4.242h-4.25v-4.242Zm8.49,0h4.24v4.242h-4.24v-4.242Zm4.24,0h4.24v4.242h-4.24v-4.242Zm4.24,0h4.24v4.242h-4.24v-4.242Zm4.24,0h4.24v4.242h-4.24v-4.242Zm4.24,0h4.24v4.242h-4.24v-4.242Zm4.24,0h4.24v4.242h-4.24v-4.242Zm4.24,0h4.24v4.242h-4.24v-4.242Zm4.24,0h4.25v4.242h-4.25v-4.242Zm21.21,0h4.24v4.242h-4.24v-4.242Zm4.24,0h4.24v4.242h-4.24v-4.242Zm4.24,0h4.24v4.242h-4.24v-4.242Zm8.48,0h4.24v4.242h-4.24v-4.242Zm8.49,0h4.24v4.242h-4.24v-4.242Zm4.24,0h4.24v4.242h-4.24v-4.242Zm4.24,0h4.24v4.242h-4.24v-4.242Zm8.48,0h4.24v4.242h-4.24v-4.242Zm-135.71,4.242h4.24v4.243h-4.24v-4.243Zm8.48,0h4.24v4.243h-4.24v-4.243Zm4.24,0h4.24v4.243h-4.24v-4.243Zm4.24,0h4.24v4.243h-4.24v-4.243Zm8.48,0h4.24v4.243h-4.24v-4.243Zm12.73,0h4.24v4.243h-4.24v-4.243Zm4.24,0h4.24v4.243h-4.24v-4.243Zm4.24,0h4.24v4.243h-4.24v-4.243Zm12.72,0h4.24v4.243h-4.24v-4.243Zm8.48,0h4.24v4.243h-4.24v-4.243Zm12.73,0h4.24v4.243h-4.24v-4.243Zm4.24,0h4.24v4.243h-4.24v-4.243Zm12.72,0h4.24v4.243h-4.24v-4.243Zm12.72,0h4.24v4.243h-4.24v-4.243Zm8.49,0h4.24v4.243h-4.24v-4.243Zm4.24,0h4.24v4.243h-4.24v-4.243Zm4.24,0h4.24v4.243h-4.24v-4.243Zm8.48,0h4.24v4.243h-4.24v-4.243Zm-135.71,4.243h4.24v4.242h-4.24v-4.242Zm25.44,0h4.24v4.242h-4.24v-4.242Zm8.48,0h4.25v4.242h-4.25v-4.242Zm4.25,0h4.24v4.242h-4.24v-4.242Zm4.24,0h4.24v4.242h-4.24v-4.242Zm21.2,0h4.24v4.242h-4.24v-4.242Zm12.73,0h4.24v4.242h-4.24v-4.242Zm8.48,0h4.24v4.242h-4.24v-4.242Zm8.48,0h4.24v4.242h-4.24v-4.242Zm16.96,0h4.24v4.242h-4.24v-4.242Zm25.45,0h4.24v4.242h-4.24v-4.242Zm-135.71,4.242h4.24V337.7h-4.24v-4.243Zm4.24,0h4.24V337.7h-4.24v-4.243Zm4.24,0h4.24V337.7h-4.24v-4.243Zm4.24,0h4.24V337.7h-4.24v-4.243Zm4.24,0h4.24V337.7h-4.24v-4.243Zm4.24,0h4.24V337.7h-4.24v-4.243Zm4.24,0h4.24V337.7h-4.24v-4.243Zm8.48,0h4.25V337.7h-4.25v-4.243Zm8.49,0h4.24V337.7h-4.24v-4.243Zm8.48,0h4.24V337.7h-4.24v-4.243Zm8.48,0h4.24V337.7h-4.24v-4.243Zm8.48,0h4.24V337.7h-4.24v-4.243Zm8.49,0h4.24V337.7h-4.24v-4.243Zm8.48,0h4.24V337.7h-4.24v-4.243Zm8.48,0h4.24V337.7h-4.24v-4.243Zm8.48,0h4.24V337.7h-4.24v-4.243Zm8.48,0h4.24V337.7h-4.24v-4.243Zm4.24,0h4.25V337.7h-4.25v-4.243Zm4.25,0h4.24V337.7h-4.24v-4.243Zm4.24,0h4.24V337.7h-4.24v-4.243Zm4.24,0h4.24V337.7h-4.24v-4.243Zm4.24,0h4.24V337.7h-4.24v-4.243Zm4.24,0h4.24V337.7h-4.24v-4.243Zm-97.54,4.243h4.24v4.242h-4.24V337.7Zm8.48,0h4.24v4.242h-4.24V337.7Zm4.24,0h4.24v4.242h-4.24V337.7Zm12.72,0h4.24v4.242h-4.24V337.7Zm4.24,0h4.24v4.242h-4.24V337.7Zm8.49,0h4.24v4.242h-4.24V337.7Zm4.24,0h4.24v4.242h-4.24V337.7Zm8.48,0h4.24v4.242h-4.24V337.7Zm8.48,0h4.24v4.242h-4.24V337.7Zm-97.54,4.242h4.24v4.243h-4.24v-4.243Zm4.24,0h4.24v4.243h-4.24v-4.243Zm4.24,0h4.24v4.243h-4.24v-4.243Zm4.24,0h4.24v4.243h-4.24v-4.243Zm4.24,0h4.24v4.243h-4.24v-4.243Zm8.48,0h4.24v4.243h-4.24v-4.243Zm4.24,0h4.24v4.243h-4.24v-4.243Zm4.24,0h4.25v4.243h-4.25v-4.243Zm4.25,0h4.24v4.243h-4.24v-4.243Zm8.48,0h4.24v4.243h-4.24v-4.243Zm4.24,0h4.24v4.243h-4.24v-4.243Zm4.24,0h4.24v4.243h-4.24v-4.243Zm4.24,0h4.24v4.243h-4.24v-4.243Zm4.24,0h4.24v4.243h-4.24v-4.243Zm4.24,0h4.24v4.243h-4.24v-4.243Zm4.24,0h4.25v4.243h-4.25v-4.243Zm21.21,0h4.24v4.243h-4.24v-4.243Zm4.24,0h4.24v4.243h-4.24v-4.243Zm4.24,0h4.24v4.243h-4.24v-4.243Zm4.24,0h4.24v4.243h-4.24v-4.243Zm8.48,0h4.25v4.243h-4.25v-4.243Zm8.49,0h4.24v4.243h-4.24v-4.243Zm8.48,0h4.24v4.243h-4.24v-4.243Zm-131.47,4.243h4.24v4.242h-4.24v-4.242Zm8.48,0h4.24v4.242h-4.24v-4.242Zm4.24,0h4.24v4.242h-4.24v-4.242Zm4.24,0h4.24v4.242h-4.24v-4.242Zm4.24,0h4.24v4.242h-4.24v-4.242Zm12.72,0h4.25v4.242h-4.25v-4.242Zm12.73,0h4.24v4.242h-4.24v-4.242Zm8.48,0h4.24v4.242h-4.24v-4.242Zm12.72,0h4.24v4.242h-4.24v-4.242Zm8.49,0h4.24v4.242h-4.24v-4.242Zm4.24,0h4.24v4.242h-4.24v-4.242Zm4.24,0h4.24v4.242h-4.24v-4.242Zm4.24,0h4.24v4.242h-4.24v-4.242Zm8.48,0h4.24v4.242h-4.24v-4.242Zm4.24,0h4.24v4.242h-4.24v-4.242Zm8.48,0h4.24v4.242h-4.24v-4.242Zm16.97,0h4.24v4.242h-4.24v-4.242Zm4.24,0h4.24v4.242h-4.24v-4.242Zm4.24,0h4.24v4.242h-4.24v-4.242Zm-135.71,4.242h4.24v4.242h-4.24v-4.242Zm4.24,0h4.24v4.242h-4.24v-4.242Zm12.72,0h4.24v4.242h-4.24v-4.242Zm8.48,0h4.24v4.242h-4.24v-4.242Zm16.97,0h4.24v4.242h-4.24v-4.242Zm12.72,0h4.24v4.242h-4.24v-4.242Zm8.48,0h4.24v4.242h-4.24v-4.242Zm4.24,0h4.24v4.242h-4.24v-4.242Zm8.49,0h4.24v4.242h-4.24v-4.242Zm8.48,0h4.24v4.242h-4.24v-4.242Zm4.24,0h4.24v4.242h-4.24v-4.242Zm4.24,0h4.24v4.242h-4.24v-4.242Zm12.72,0h4.24v4.242h-4.24v-4.242Zm4.24,0h4.24v4.242h-4.24v-4.242Zm4.24,0h4.25v4.242h-4.25v-4.242Zm4.25,0h4.24v4.242h-4.24v-4.242Zm4.24,0h4.24v4.242h-4.24v-4.242Zm8.48,0h4.24v4.242h-4.24v-4.242Zm-122.99,4.242h4.24v4.243h-4.24v-4.243Zm4.24,0h4.24v4.243h-4.24v-4.243Zm8.48,0h4.24v4.243h-4.24v-4.243Zm8.48,0h4.24v4.243h-4.24v-4.243Zm4.24,0h4.25v4.243h-4.25v-4.243Zm16.97,0h4.24v4.243h-4.24v-4.243Zm8.48,0h4.24v4.243h-4.24v-4.243Zm21.21,0h4.24v4.243h-4.24v-4.243Zm4.24,0h4.24v4.243h-4.24v-4.243Zm4.24,0h4.24v4.243h-4.24v-4.243Zm8.48,0h4.24v4.243h-4.24v-4.243Zm12.72,0h4.24v4.243h-4.24v-4.243Zm4.24,0h4.25v4.243h-4.25v-4.243Zm12.73,0h4.24v4.243h-4.24v-4.243Zm-127.23,4.243h4.24v4.242h-4.24v-4.242Zm4.24,0h4.24v4.242h-4.24v-4.242Zm4.24,0h4.24v4.242h-4.24v-4.242Zm16.96,0h4.24v4.242h-4.24v-4.242Zm4.24,0h4.24v4.242h-4.24v-4.242Zm4.24,0h4.25v4.242h-4.25v-4.242Zm4.25,0h4.24v4.242h-4.24v-4.242Zm4.24,0h4.24v4.242h-4.24v-4.242Zm8.48,0h4.24v4.242h-4.24v-4.242Zm8.48,0h4.24v4.242h-4.24v-4.242Zm4.24,0h4.24v4.242h-4.24v-4.242Zm8.48,0h4.25v4.242h-4.25v-4.242Zm8.49,0h4.24v4.242h-4.24v-4.242Zm4.24,0h4.24v4.242h-4.24v-4.242Zm8.48,0h4.24v4.242h-4.24v-4.242Zm4.24,0h4.24v4.242h-4.24v-4.242Zm4.24,0h4.24v4.242h-4.24v-4.242Zm16.97,0h4.24v4.242h-4.24v-4.242Zm4.24,0h4.24v4.242h-4.24v-4.242Zm-118.75,4.242h4.24v4.243h-4.24v-4.243Zm4.24,0h4.24v4.243h-4.24v-4.243Zm8.48,0h4.24v4.243h-4.24v-4.243Zm21.21,0h4.24v4.243h-4.24v-4.243Zm8.48,0h4.24v4.243h-4.24v-4.243Zm8.48,0h4.24v4.243h-4.24v-4.243Zm4.24,0h4.24v4.243h-4.24v-4.243Zm8.48,0h4.24v4.243h-4.24v-4.243Zm4.24,0h4.25v4.243h-4.25v-4.243Zm4.25,0h4.24v4.243h-4.24v-4.243Zm8.48,0h4.24v4.243h-4.24v-4.243Zm4.24,0h4.24v4.243h-4.24v-4.243Zm4.24,0h4.24v4.243h-4.24v-4.243Zm4.24,0h4.24v4.243h-4.24v-4.243Zm12.72,0h4.24v4.243h-4.24v-4.243Zm21.21,0h4.24v4.243h-4.24v-4.243Zm4.24,0h4.24v4.243h-4.24v-4.243Zm-114.51,4.243h4.24v4.242h-4.24v-4.242Zm4.24,0h4.24v4.242h-4.24v-4.242Zm4.24,0h4.24v4.242h-4.24v-4.242Zm4.24,0h4.25v4.242h-4.25v-4.242Zm4.25,0h4.24v4.242h-4.24v-4.242Zm12.72,0h4.24v4.242h-4.24v-4.242Zm4.24,0h4.24v4.242h-4.24v-4.242Zm4.24,0h4.24v4.242h-4.24v-4.242Zm4.24,0h4.24v4.242h-4.24v-4.242Zm4.24,0h4.24v4.242h-4.24v-4.242Zm8.49,0h4.24v4.242h-4.24v-4.242Zm8.48,0h4.24v4.242h-4.24v-4.242Zm4.24,0h4.24v4.242h-4.24v-4.242Zm16.96,0h4.24v4.242h-4.24v-4.242Zm4.24,0h4.24v4.242h-4.24v-4.242Zm8.49,0h4.24v4.242h-4.24v-4.242Zm12.72,0h4.24v4.242h-4.24v-4.242Zm-131.47,4.242h4.24v4.243h-4.24v-4.243Zm8.48,0h4.24v4.243h-4.24v-4.243Zm4.24,0h4.24v4.243h-4.24v-4.243Zm16.96,0h4.24v4.243h-4.24v-4.243Zm21.21,0h4.24v4.243h-4.24v-4.243Zm8.48,0h4.24v4.243h-4.24v-4.243Zm4.24,0h4.24v4.243h-4.24v-4.243Zm4.24,0h4.24v4.243h-4.24v-4.243Zm12.73,0h4.24v4.243h-4.24v-4.243Zm8.48,0h4.24v4.243h-4.24v-4.243Zm12.72,0h4.24v4.243h-4.24v-4.243Zm8.48,0h4.24v4.243h-4.24v-4.243Zm8.49,0h4.24v4.243h-4.24v-4.243Zm8.48,0h4.24v4.243h-4.24v-4.243Zm-118.75,4.243h4.24v4.242h-4.24v-4.242Zm8.48,0h4.24v4.242h-4.24v-4.242Zm4.24,0h4.24v4.242h-4.24v-4.242Zm4.24,0h4.24v4.242h-4.24v-4.242Zm4.24,0h4.24v4.242h-4.24v-4.242Zm4.24,0h4.25v4.242h-4.25v-4.242Zm21.21,0h4.24v4.242h-4.24v-4.242Zm4.24,0h4.24v4.242h-4.24v-4.242Zm4.24,0h4.24v4.242h-4.24v-4.242Zm8.48,0h4.25v4.242h-4.25v-4.242Zm8.49,0h4.24v4.242h-4.24v-4.242Zm12.72,0h4.24v4.242h-4.24v-4.242Zm4.24,0h4.24v4.242h-4.24v-4.242Zm4.24,0h4.24v4.242h-4.24v-4.242Zm4.24,0h4.24v4.242h-4.24v-4.242Zm8.48,0h4.25v4.242h-4.25v-4.242Zm4.25,0h4.24v4.242h-4.24v-4.242Zm12.72,0h4.24v4.242h-4.24v-4.242Zm-131.47,4.242h4.24v4.242h-4.24v-4.242Zm16.96,0h4.24v4.242h-4.24v-4.242Zm12.72,0h4.24v4.242h-4.24v-4.242Zm4.24,0h4.25v4.242h-4.25v-4.242Zm8.49,0h4.24v4.242h-4.24v-4.242Zm4.24,0h4.24v4.242h-4.24v-4.242Zm8.48,0h4.24v4.242h-4.24v-4.242Zm12.72,0h4.24v4.242h-4.24v-4.242Zm8.49,0h4.24v4.242h-4.24v-4.242Zm4.24,0h4.24v4.242h-4.24v-4.242Zm4.24,0h4.24v4.242h-4.24v-4.242Zm4.24,0h4.24v4.242h-4.24v-4.242Zm8.48,0h4.24v4.242h-4.24v-4.242Zm12.72,0h4.24v4.242h-4.24v-4.242Zm12.73,0h4.24v4.242h-4.24v-4.242Zm8.48,0h4.24v4.242h-4.24v-4.242Zm4.24,0h4.24v4.242h-4.24v-4.242Zm-127.23,4.242h4.24v4.243h-4.24v-4.243Zm4.24,0h4.24v4.243h-4.24v-4.243Zm4.24,0h4.24v4.243h-4.24v-4.243Zm4.24,0h4.24v4.243h-4.24v-4.243Zm4.24,0h4.24v4.243h-4.24v-4.243Zm12.73,0h4.24v4.243h-4.24v-4.243Zm4.24,0h4.24v4.243h-4.24v-4.243Zm8.48,0h4.24v4.243h-4.24v-4.243Zm4.24,0h4.24v4.243h-4.24v-4.243Zm8.48,0h4.24v4.243h-4.24v-4.243Zm8.48,0h4.25v4.243h-4.25v-4.243Zm16.97,0h4.24v4.243h-4.24v-4.243Zm12.72,0h4.24v4.243h-4.24v-4.243Zm4.24,0h4.24v4.243h-4.24v-4.243Zm8.48,0h4.25v4.243h-4.25v-4.243Zm8.49,0h4.24v4.243h-4.24v-4.243Zm8.48,0h4.24v4.243h-4.24v-4.243Zm-131.47,4.243h4.24v4.242h-4.24v-4.242Zm4.24,0h4.24v4.242h-4.24v-4.242Zm4.24,0h4.24v4.242h-4.24v-4.242Zm12.72,0h4.24v4.242h-4.24v-4.242Zm8.48,0h4.24v4.242h-4.24v-4.242Zm4.24,0h4.25v4.242h-4.25v-4.242Zm4.25,0h4.24v4.242h-4.24v-4.242Zm21.2,0h4.24v4.242h-4.24v-4.242Zm29.69,0h4.24v4.242h-4.24v-4.242Zm4.24,0h4.24v4.242h-4.24v-4.242Zm4.24,0h4.24v4.242h-4.24v-4.242Zm12.72,0h4.24v4.242h-4.24v-4.242Zm4.24,0h4.25v4.242h-4.25v-4.242Zm4.25,0h4.24v4.242h-4.24v-4.242Zm8.48,0h4.24v4.242h-4.24v-4.242Zm-127.23,4.242h4.24v4.243h-4.24v-4.243Zm16.96,0h4.24v4.243h-4.24v-4.243Zm4.24,0h4.24v4.243h-4.24v-4.243Zm4.24,0h4.24v4.243h-4.24v-4.243Zm12.73,0h4.24v4.243h-4.24v-4.243Zm4.24,0h4.24v4.243h-4.24v-4.243Zm8.48,0h4.24v4.243h-4.24v-4.243Zm4.24,0h4.24v4.243h-4.24v-4.243Zm4.24,0h4.24v4.243h-4.24v-4.243Zm4.24,0h4.24v4.243h-4.24v-4.243Zm4.24,0h4.24v4.243h-4.24v-4.243Zm4.24,0h4.25v4.243h-4.25v-4.243Zm12.73,0h4.24v4.243h-4.24v-4.243Zm8.48,0h4.24v4.243h-4.24v-4.243Zm4.24,0h4.24v4.243h-4.24v-4.243Zm4.24,0h4.24v4.243h-4.24v-4.243Zm4.24,0h4.24v4.243h-4.24v-4.243Zm8.48,0h4.25v4.243h-4.25v-4.243Zm4.25,0h4.24v4.243h-4.24v-4.243Zm12.72,0h4.24v4.243h-4.24v-4.243Zm-131.47,4.243h4.24v4.242h-4.24v-4.242Zm4.24,0h4.24v4.242h-4.24v-4.242Zm8.48,0h4.24v4.242h-4.24v-4.242Zm4.24,0h4.24v4.242h-4.24v-4.242Zm4.24,0h4.24v4.242h-4.24v-4.242Zm16.97,0h4.24v4.242h-4.24v-4.242Zm8.48,0h4.24v4.242h-4.24v-4.242Zm12.72,0h4.24v4.242h-4.24v-4.242Zm8.48,0h4.24v4.242h-4.24v-4.242Zm4.24,0h4.25v4.242h-4.25v-4.242Zm4.25,0h4.24v4.242h-4.24v-4.242Zm4.24,0h4.24v4.242h-4.24v-4.242Zm4.24,0h4.24v4.242h-4.24v-4.242Zm12.72,0h4.24v4.242h-4.24v-4.242Zm4.24,0h4.24v4.242h-4.24v-4.242Zm8.48,0h4.24v4.242h-4.24v-4.242Zm12.73,0h4.24v4.242h-4.24v-4.242Zm8.48,0h4.24v4.242h-4.24v-4.242Zm4.24,0h4.24v4.242h-4.24v-4.242Zm-135.71,4.242h4.24v4.243h-4.24v-4.243Zm8.48,0h4.24v4.243h-4.24v-4.243Zm12.72,0h4.24v4.243h-4.24v-4.243Zm4.24,0h4.24v4.243h-4.24v-4.243Zm4.24,0h4.24v4.243h-4.24v-4.243Zm12.73,0h4.24v4.243h-4.24v-4.243Zm8.48,0h4.24v4.243h-4.24v-4.243Zm4.24,0h4.24v4.243h-4.24v-4.243Zm4.24,0h4.24v4.243h-4.24v-4.243Zm4.24,0h4.24v4.243h-4.24v-4.243Zm4.24,0h4.24v4.243h-4.24v-4.243Zm4.24,0h4.25v4.243h-4.25v-4.243Zm12.73,0h4.24v4.243h-4.24v-4.243Zm21.2,0h4.24v4.243h-4.24v-4.243Zm4.24,0h4.24v4.243h-4.24v-4.243Zm4.24,0h4.25v4.243h-4.25v-4.243Zm8.49,0h4.24v4.243h-4.24v-4.243Zm8.48,0h4.24v4.243h-4.24v-4.243Zm-131.47,4.243h4.24v4.242h-4.24v-4.242Zm21.2,0h4.24v4.242h-4.24v-4.242Zm8.48,0h4.24v4.242h-4.24v-4.242Zm4.24,0h4.25v4.242h-4.25v-4.242Zm12.73,0h4.24v4.242h-4.24v-4.242Zm12.72,0h4.24v4.242h-4.24v-4.242Zm4.24,0h4.24v4.242h-4.24v-4.242Zm12.73,0h4.24v4.242h-4.24v-4.242Zm4.24,0h4.24v4.242h-4.24v-4.242Zm4.24,0h4.24v4.242h-4.24v-4.242Zm4.24,0h4.24v4.242h-4.24v-4.242Zm4.24,0h4.24v4.242h-4.24v-4.242Zm4.24,0h4.24v4.242h-4.24v-4.242Zm4.24,0h4.24v4.242h-4.24v-4.242Zm4.24,0h4.24v4.242h-4.24v-4.242Zm4.24,0h4.24v4.242h-4.24v-4.242Zm12.73,0h4.24v4.242h-4.24v-4.242Zm4.24,0h4.24v4.242h-4.24v-4.242Zm-127.23,4.242h4.24v4.242h-4.24v-4.242Zm8.48,0h4.24v4.242h-4.24v-4.242Zm4.24,0h4.24v4.242h-4.24v-4.242Zm8.48,0h4.24v4.242h-4.24v-4.242Zm4.24,0h4.24v4.242h-4.24v-4.242Zm12.73,0h4.24v4.242h-4.24v-4.242Zm8.48,0h4.24v4.242h-4.24v-4.242Zm4.24,0h4.24v4.242h-4.24v-4.242Zm4.24,0h4.24v4.242h-4.24v-4.242Zm4.24,0h4.24v4.242h-4.24v-4.242Zm12.72,0h4.25v4.242h-4.25v-4.242Zm4.25,0h4.24v4.242h-4.24v-4.242Zm4.24,0h4.24v4.242h-4.24v-4.242Zm4.24,0h4.24v4.242h-4.24v-4.242Zm8.48,0h4.24v4.242h-4.24v-4.242Zm8.48,0h4.24v4.242h-4.24v-4.242Zm4.24,0h4.24v4.242h-4.24v-4.242Zm4.24,0h4.24v4.242h-4.24v-4.242Zm4.24,0h4.25v4.242h-4.25v-4.242Zm4.25,0h4.24v4.242h-4.24v-4.242Zm4.24,0h4.24v4.242h-4.24v-4.242Zm12.72,0h4.24v4.242h-4.24v-4.242Zm-101.79,4.242h4.25V418.3h-4.25V414.06Zm12.73,0h4.24V418.3h-4.24V414.06Zm21.2,0h4.24V418.3h-4.24V414.06Zm4.24,0h4.25V418.3h-4.25V414.06Zm8.49,0h4.24V418.3h-4.24V414.06Zm16.96,0h4.24V418.3h-4.24V414.06Zm4.24,0h4.24V418.3h-4.24V414.06Zm16.97,0h4.24V418.3h-4.24V414.06Zm16.96,0h4.24V418.3h-4.24V414.06ZM1357.51,418.3h4.24v4.242h-4.24V418.3Zm4.24,0h4.24v4.242h-4.24V418.3Zm4.24,0h4.24v4.242h-4.24V418.3Zm4.24,0h4.24v4.242h-4.24V418.3Zm4.24,0h4.24v4.242h-4.24V418.3Zm4.24,0h4.24v4.242h-4.24V418.3Zm4.24,0h4.24v4.242h-4.24V418.3Zm8.48,0h4.25v4.242h-4.25V418.3Zm8.49,0h4.24v4.242h-4.24V418.3Zm16.96,0h4.24v4.242h-4.24V418.3Zm4.24,0h4.24v4.242h-4.24V418.3Zm21.21,0h4.24v4.242h-4.24V418.3Zm12.72,0h4.24v4.242h-4.24V418.3Zm4.24,0h4.24v4.242h-4.24V418.3Zm8.48,0h4.24v4.242h-4.24V418.3Zm8.49,0h4.24v4.242h-4.24V418.3Zm12.72,0h4.24v4.242h-4.24V418.3Zm-131.47,4.242h4.24v4.243h-4.24v-4.243Zm25.44,0h4.24v4.243h-4.24v-4.243Zm16.97,0h4.24v4.243h-4.24v-4.243Zm8.48,0h4.24v4.243h-4.24v-4.243Zm12.72,0h4.24v4.243h-4.24v-4.243Zm4.24,0h4.24v4.243h-4.24v-4.243Zm12.73,0h4.24v4.243h-4.24v-4.243Zm4.24,0h4.24v4.243h-4.24v-4.243Zm4.24,0h4.24v4.243h-4.24v-4.243Zm4.24,0h4.24v4.243h-4.24v-4.243Zm4.24,0h4.24v4.243h-4.24v-4.243Zm4.24,0h4.24v4.243h-4.24v-4.243Zm16.97,0h4.24v4.243h-4.24v-4.243Zm4.24,0h4.24v4.243h-4.24v-4.243Zm4.24,0h4.24v4.243h-4.24v-4.243Zm4.24,0h4.24v4.243h-4.24v-4.243Zm-131.47,4.243h4.24v4.242h-4.24v-4.242Zm8.48,0h4.24v4.242h-4.24v-4.242Zm4.24,0h4.24v4.242h-4.24v-4.242Zm4.24,0h4.24v4.242h-4.24v-4.242Zm8.48,0h4.24v4.242h-4.24v-4.242Zm8.48,0h4.25v4.242h-4.25v-4.242Zm4.25,0h4.24v4.242h-4.24v-4.242Zm4.24,0h4.24v4.242h-4.24v-4.242Zm4.24,0h4.24v4.242h-4.24v-4.242Zm4.24,0h4.24v4.242h-4.24v-4.242Zm4.24,0h4.24v4.242h-4.24v-4.242Zm8.48,0h4.24v4.242h-4.24v-4.242Zm16.97,0h4.24v4.242h-4.24v-4.242Zm12.72,0h4.24v4.242h-4.24v-4.242Zm8.48,0h4.24v4.242h-4.24v-4.242Zm4.24,0h4.24v4.242h-4.24v-4.242Zm4.24,0h4.24v4.242h-4.24v-4.242Zm4.24,0h4.25v4.242h-4.25v-4.242Zm4.25,0h4.24v4.242h-4.24v-4.242Zm4.24,0h4.24v4.242h-4.24v-4.242Zm8.48,0h4.24v4.242h-4.24v-4.242Zm4.24,0h4.24v4.242h-4.24v-4.242Zm-135.71,4.242h4.24v4.242h-4.24V431.03Zm8.48,0h4.24v4.242h-4.24V431.03Zm4.24,0h4.24v4.242h-4.24V431.03Zm4.24,0h4.24v4.242h-4.24V431.03Zm8.48,0h4.24v4.242h-4.24V431.03Zm8.48,0h4.25v4.242h-4.25V431.03Zm4.25,0h4.24v4.242h-4.24V431.03Zm8.48,0h4.24v4.242h-4.24V431.03Zm8.48,0h4.24v4.242h-4.24V431.03Zm4.24,0h4.24v4.242h-4.24V431.03Zm8.48,0h4.24v4.242h-4.24V431.03Zm12.73,0h4.24v4.242h-4.24V431.03Zm8.48,0h4.24v4.242h-4.24V431.03Zm8.48,0h4.24v4.242h-4.24V431.03Zm4.24,0h4.24v4.242h-4.24V431.03Zm4.24,0h4.24v4.242h-4.24V431.03Zm8.48,0h4.25v4.242h-4.25V431.03Zm4.25,0h4.24v4.242h-4.24V431.03Zm4.24,0h4.24v4.242h-4.24V431.03Zm4.24,0h4.24v4.242h-4.24V431.03Zm-127.23,4.242h4.24v4.243h-4.24v-4.243Zm8.48,0h4.24v4.243h-4.24v-4.243Zm4.24,0h4.24v4.243h-4.24v-4.243Zm4.24,0h4.24v4.243h-4.24v-4.243Zm8.48,0h4.24v4.243h-4.24v-4.243Zm8.48,0h4.25v4.243h-4.25v-4.243Zm4.25,0h4.24v4.243h-4.24v-4.243Zm21.2,0h4.24v4.243h-4.24v-4.243Zm4.24,0h4.24v4.243h-4.24v-4.243Zm4.24,0h4.24v4.243h-4.24v-4.243Zm4.24,0h4.25v4.243h-4.25v-4.243Zm4.25,0h4.24v4.243h-4.24v-4.243Zm12.72,0h4.24v4.243h-4.24v-4.243Zm4.24,0h4.24v4.243h-4.24v-4.243Zm4.24,0h4.24v4.243h-4.24v-4.243Zm4.24,0h4.24v4.243h-4.24v-4.243Zm4.24,0h4.24v4.243h-4.24v-4.243Zm4.24,0h4.24v4.243h-4.24v-4.243Zm12.73,0h4.24v4.243h-4.24v-4.243Zm4.24,0h4.24v4.243h-4.24v-4.243Zm4.24,0h4.24v4.243h-4.24v-4.243Zm-131.47,4.243h4.24v4.242h-4.24v-4.242Zm25.44,0h4.24v4.242h-4.24v-4.242Zm8.48,0h4.25v4.242h-4.25v-4.242Zm8.49,0h4.24v4.242h-4.24v-4.242Zm4.24,0h4.24v4.242h-4.24v-4.242Zm4.24,0h4.24v4.242h-4.24v-4.242Zm8.48,0h4.24v4.242h-4.24v-4.242Zm4.24,0h4.24v4.242h-4.24v-4.242Zm4.24,0h4.24v4.242h-4.24v-4.242Zm8.49,0h4.24v4.242h-4.24v-4.242Zm8.48,0h4.24v4.242h-4.24v-4.242Zm4.24,0h4.24v4.242h-4.24v-4.242Zm4.24,0h4.24v4.242h-4.24v-4.242Zm4.24,0h4.24v4.242h-4.24v-4.242Zm25.45,0h4.24v4.242h-4.24v-4.242Zm4.24,0h4.24v4.242h-4.24v-4.242Zm-127.23,4.242h4.24V448h-4.24v-4.243Zm4.24,0h4.24V448h-4.24v-4.243Zm4.24,0h4.24V448h-4.24v-4.243Zm4.24,0h4.24V448h-4.24v-4.243Zm4.24,0h4.24V448h-4.24v-4.243Zm4.24,0h4.24V448h-4.24v-4.243Zm4.24,0h4.24V448h-4.24v-4.243Zm8.48,0h4.25V448h-4.25v-4.243Zm12.73,0h4.24V448h-4.24v-4.243Zm4.24,0h4.24V448h-4.24v-4.243Zm4.24,0h4.24V448h-4.24v-4.243Zm4.24,0h4.24V448h-4.24v-4.243Zm4.24,0h4.24V448h-4.24v-4.243Zm8.48,0h4.25V448h-4.25v-4.243Zm12.73,0h4.24V448h-4.24v-4.243Zm8.48,0h4.24V448h-4.24v-4.243Zm4.24,0h4.24V448h-4.24v-4.243Zm4.24,0h4.24V448h-4.24v-4.243Zm8.48,0h4.24V448h-4.24v-4.243Zm4.24,0h4.25V448h-4.25v-4.243Zm4.25,0h4.24V448h-4.24v-4.243Zm12.72,0h4.24V448h-4.24v-4.243Z" transform="translate(-1357.5 -308)"/>
</svg>
