<svg width="59" height="58" fill="none" xmlns="http://www.w3.org/2000/svg"><rect x=".75" width="58" height="58" rx="8" fill="#F7F9FC"/><path d="M30.49 17.988H19.543v-3.117A1.87 1.87 0 0121.413 13h7.206a1.87 1.87 0 011.871 1.87v3.118z" fill="#305DFC"/><path d="M27.676 17.988H16.729v-3.117A1.87 1.87 0 0118.599 13h7.206a1.87 1.87 0 011.87 1.87v3.118z" fill="#9CB8F8"/><path d="M24.697 16.55v-1.68a1.87 1.87 0 00-1.87-1.87H15.62a1.87 1.87 0 00-1.871 1.87v20.2a2.665 2.665 0 002.665 2.665h26.67a2.665 2.665 0 002.665-2.665V20.03a2.665 2.665 0 00-2.665-2.665H25.51a.814.814 0 01-.814-.814z" fill="#092DAA"/><path d="M38.053 21.031h-.642a.667.667 0 01-.667-.666v-.642c0-.368.299-.666.667-.666h.642c.368 0 .666.298.666.666v.642a.667.667 0 01-.666.666zM40.57 21.031h-.642a.667.667 0 01-.666-.666v-.642c0-.368.298-.666.666-.666h.642c.368 0 .667.298.667.666v.642a.667.667 0 01-.667.666zM43.088 21.031h-.642a.667.667 0 01-.667-.666v-.642c0-.368.299-.666.667-.666h.642c.368 0 .666.298.666.666v.642a.667.667 0 01-.666.666z" fill="#9CB8F8"/><path opacity=".3" d="M13.75 32.123v2.947a2.665 2.665 0 002.665 2.665h26.67a2.665 2.665 0 002.665-2.665v-2.947h-32z" fill="#092DAA"/><path d="M36.145 30.797h-1.86v-5.98c0-.876-.71-1.585-1.584-1.585H29.75V45c.652 0 1.305-.313 1.697-.939l6.395-10.196c.837-1.335-.122-3.069-1.697-3.069z" fill="url(#prefix__paint0_linear_536_22682)" opacity=".3"/><path d="M24.008 35.204h1.86v5.98c0 .875.71 1.584 1.584 1.584h5.528c.875 0 1.584-.71 1.584-1.584v-5.98h2.234c1.575 0 2.534-1.734 1.697-3.069L32.1 21.94a2.004 2.004 0 00-3.395 0L22.31 32.135c-.837 1.335.123 3.069 1.698 3.069z" fill="#C4D1FF"/><path d="M24.007 35.204h1.86v5.98c0 .875.71 1.584 1.585 1.584h2.95V21c-.652 0-1.304.313-1.697.94L22.31 32.134c-.837 1.335.122 3.069 1.697 3.069z" fill="url(#prefix__paint1_linear_536_22682)" opacity=".3"/><defs><linearGradient id="prefix__paint0_linear_536_22682" x1="33.951" y1="23.232" x2="33.951" y2="45" gradientUnits="userSpaceOnUse"><stop stop-color="#0A33C1"/><stop offset="1" stop-color="#0A33C1" stop-opacity="0"/></linearGradient><linearGradient id="prefix__paint1_linear_536_22682" x1="26.201" y1="42.768" x2="26.201" y2="21" gradientUnits="userSpaceOnUse"><stop stop-color="#0A33C1"/><stop offset="1" stop-color="#0A33C1" stop-opacity="0"/></linearGradient></defs></svg>