<svg width="59" height="58" fill="none" xmlns="http://www.w3.org/2000/svg"><rect x=".25" width="58" height="58" rx="8" fill="#F7F9FC"/><path fill-rule="evenodd" clip-rule="evenodd" d="M25.497 15.704l-6.362 6.362c-.636.636-1.59.636-2.227 0l-3.18-3.181c-.637-.636-.637-1.59 0-2.227.635-.636 1.59-.636 2.226 0l2.227 2.068 5.248-5.249c.637-.636 1.591-.636 2.227 0 .477.636.477 1.59-.159 2.227zm0 11.134L19.135 33.2c-.636.636-1.59.636-2.227 0l-3.18-3.181c-.637-.636-.637-1.59 0-2.227.635-.636 1.59-.636 2.226 0l2.227 2.068 5.248-5.249c.637-.636 1.591-.636 2.227 0 .477.636.477 1.59-.159 2.227zm-8.589 17.496c.636.636 1.59.636 2.227 0l6.362-6.362c.636-.636.636-1.59.16-2.227-.637-.636-1.591-.636-2.227 0l-5.25 5.249-2.226-2.068c-.636-.636-1.59-.636-2.227 0-.636.636-.636 1.59 0 2.227l3.181 3.181z" fill="#2E3242"/><path fill-rule="evenodd" clip-rule="evenodd" d="M43.312 19.362h-11.77c-.954.16-1.75-.318-1.909-1.272-.318-.954.16-1.75 1.114-1.909H43.153c.954-.159 1.75.318 1.909 1.273.159.954-.16 1.59-1.114 1.908h-.636zm0 11.133h-11.77c-.954.16-1.75-.318-1.909-1.272-.318-.954.16-1.75 1.114-1.909H43.153c.954-.159 1.75.318 1.909 1.273.159.954-.319 1.75-1.273 1.908h-.477zM31.542 41.63H43.948c.954-.16 1.432-.954 1.273-1.909-.16-.954-.955-1.431-1.91-1.272H30.907c-.955.159-1.432.954-1.273 1.909.16.954.954 1.431 1.909 1.272z" fill="#305DFC"/></svg>