<svg width="59" height="58" fill="none" xmlns="http://www.w3.org/2000/svg"><rect x=".75" width="58" height="58" rx="8" fill="#F7F9FC"/><path d="M43.17 18.82v8.94C43.17 35.9 37.641 43 29.744 45c-7.885-1.993-13.414-9.099-13.414-17.24v-8.94c6.209-.7 9.725-3.062 13.42-5.82 3.695 2.758 7.212 5.12 13.42 5.82z" fill="#305DFC"/><path d="M29.75 41.47a14.373 14.373 0 01-10.03-13.71v-6.057c4.177-.91 7.245-2.593 10.03-4.513 2.843 1.973 5.852 3.622 10.028 4.52v6.056A14.37 14.37 0 0129.75 41.47z" fill="#092DAA"/><path d="M27.526 34.47l-3.305-3.306 1.676-1.682 1.63 1.623 6.076-6.07 1.676 1.675-7.753 7.76z" fill="#fff"/></svg>