<svg width="59" height="58" fill="none" xmlns="http://www.w3.org/2000/svg"><rect x=".25" width="58" height="58" rx="8" fill="#F7F9FC"/><path d="M40.25 25.938a3.437 3.437 0 100-6.875 3.437 3.437 0 000 6.875z" fill="#092DAA"/><path d="M40.25 25.938v-6.875a3.441 3.441 0 013.438 3.437 3.441 3.441 0 01-3.438 3.438z" fill="url(#prefix__paint0_linear_536_22675)"/><path d="M45.25 32.28v6.761a1.902 1.902 0 01-1.904 1.897h-6.592a.938.938 0 01-.938-.938c0-.911-.504-5.53-.504-7.72 0-2.325 1.904-4.218 4.244-4.218h1.45c2.34 0 4.244 1.893 4.244 4.219z" fill="#092DAA"/><path d="M45.25 32.28v6.761a1.902 1.902 0 01-1.904 1.897H40.25V28.062h.756c2.34 0 4.244 1.893 4.244 4.219z" fill="url(#prefix__paint1_linear_536_22675)"/><path d="M18.25 25.938a3.437 3.437 0 100-6.875 3.437 3.437 0 000 6.875z" fill="#092DAA"/><path d="M18.25 25.938v-6.875a3.441 3.441 0 013.438 3.437 3.441 3.441 0 01-3.438 3.438z" fill="url(#prefix__paint2_linear_536_22675)"/><path d="M23.188 32.28c0 2.26-.504 6.767-.504 7.72 0 .517-.42.938-.938.938h-6.658a1.836 1.836 0 01-1.838-1.832v-6.825c0-2.326 1.904-4.218 4.244-4.218h1.45c2.34 0 4.244 1.892 4.244 4.218z" fill="#092DAA"/><path d="M23.188 32.28c0 2.26-.504 6.767-.504 7.72 0 .517-.42.938-.938.938H18.25V28.062h.694c2.34 0 4.244 1.893 4.244 4.219z" fill="url(#prefix__paint3_linear_536_22675)"/><path d="M29.25 25.938a5.438 5.438 0 100-10.876 5.438 5.438 0 000 10.876zM37.688 35.626v5.123a2.191 2.191 0 01-2.19 2.188H23.002a2.191 2.191 0 01-2.189-2.188v-5.123c0-4.17 3.394-7.563 7.564-7.563h1.748c4.17 0 7.564 3.393 7.564 7.563z" fill="#305DFC"/><path opacity=".5" d="M37.688 35.626v5.123a2.191 2.191 0 01-2.19 2.188H29.25V28.063h.874c4.17 0 7.564 3.393 7.564 7.563z" fill="url(#prefix__paint4_linear_536_22675)"/><defs><linearGradient id="prefix__paint0_linear_536_22675" x1="41.969" y1="19.063" x2="41.969" y2="25.938" gradientUnits="userSpaceOnUse"><stop stop-color="#0A33C1"/><stop offset="1" stop-color="#0A33C1" stop-opacity="0"/></linearGradient><linearGradient id="prefix__paint1_linear_536_22675" x1="42.75" y1="28.063" x2="42.75" y2="40.938" gradientUnits="userSpaceOnUse"><stop stop-color="#0A33C1"/><stop offset="1" stop-color="#0A33C1" stop-opacity="0"/></linearGradient><linearGradient id="prefix__paint2_linear_536_22675" x1="19.969" y1="19.063" x2="19.969" y2="25.938" gradientUnits="userSpaceOnUse"><stop stop-color="#0A33C1"/><stop offset="1" stop-color="#0A33C1" stop-opacity="0"/></linearGradient><linearGradient id="prefix__paint3_linear_536_22675" x1="20.719" y1="28.063" x2="20.719" y2="40.938" gradientUnits="userSpaceOnUse"><stop stop-color="#0A33C1"/><stop offset="1" stop-color="#0A33C1" stop-opacity="0"/></linearGradient><linearGradient id="prefix__paint4_linear_536_22675" x1="33.469" y1="28.063" x2="33.469" y2="42.938" gradientUnits="userSpaceOnUse"><stop stop-color="#0A33C1"/><stop offset="1" stop-color="#0A33C1" stop-opacity="0"/></linearGradient></defs></svg>