<svg width="90" height="90" fill="none" xmlns="http://www.w3.org/2000/svg"><path d="M16.46 35.338v29.513M74.54 64.851V35.338M56.302 64.851c0 3.55-4.84 6.453-10.802 6.453-5.963 0-10.803-2.904-10.803-6.453h-24.69a16.456 16.456 0 0015.81 12.906h39.365a16.456 16.456 0 0015.81-12.906h-24.69zM75.139 11.73A3.226 3.226 0 0072.28 10H18.72a3.226 3.226 0 00-2.86 1.73l-5.852 11.176h70.984L75.139 11.73z" stroke="#2E57F8" stroke-width="2" stroke-linecap="round" stroke-linejoin="round"/><path d="M10.008 22.906v3.227a9.212 9.212 0 0016.133 6.453c4.84 7.35 13.064 8.895 19.359 2.065 6.295 6.83 14.52 5.285 19.36-2.065a9.212 9.212 0 0016.132-6.453v-3.227H10.008z" stroke="#2E57F8" stroke-width="2" stroke-linecap="round" stroke-linejoin="round"/><path d="M26.14 32.586v-9.68L29.368 10M64.86 32.586v-9.68L61.632 10M45.5 10v24.2" stroke="#2E57F8" stroke-width="2" stroke-linecap="round" stroke-linejoin="round"/></svg>