<svg width="73" height="70" viewBox="0 0 73 70" fill="none" xmlns="http://www.w3.org/2000/svg">
<path d="M7.46094 26.3381V55.8514" stroke="black" stroke-width="2" stroke-linecap="round" stroke-linejoin="round"/>
<path d="M65.5391 55.8514V26.3381" stroke="black" stroke-width="2" stroke-linecap="round" stroke-linejoin="round"/>
<path d="M47.3023 55.8513C47.3023 59.4005 42.4625 62.3044 36.4999 62.3044C30.5372 62.3044 25.6974 59.4005 25.6974 55.8513H1.00781C1.80618 59.4679 3.80126 62.7094 6.67034 65.0515C9.53941 67.3936 13.1147 68.6993 16.8179 68.7575H56.1818C59.885 68.6993 63.4603 67.3936 66.3294 65.0515C69.1984 62.7094 71.1935 59.4679 71.9919 55.8513H47.3023Z" stroke="black" stroke-width="2" stroke-linecap="round" stroke-linejoin="round"/>
<path d="M66.1389 2.72943C65.8657 2.2077 65.4548 1.77073 64.9509 1.46587C64.4469 1.16102 63.8692 0.999903 63.2802 1H9.71949C9.13053 0.999903 8.55277 1.16102 8.04885 1.46587C7.54492 1.77073 7.13405 2.2077 6.86077 2.72943L1.00781 13.9062H71.9919L66.1389 2.72943Z" stroke="black" stroke-width="2" stroke-linecap="round" stroke-linejoin="round"/>
<path d="M1.00796 13.9062V17.1328C0.928725 19.0375 1.44238 20.9199 2.47811 22.5204C3.51383 24.1209 5.0206 25.3606 6.79062 26.0686C8.56065 26.7766 10.5067 26.9181 12.3605 26.4734C14.2143 26.0287 15.8845 25.0198 17.1407 23.5859C21.9805 30.936 30.205 32.4815 36.5 25.6509C42.795 32.4815 51.0195 30.936 55.8593 23.5859C57.1155 25.0198 58.7857 26.0287 60.6395 26.4734C62.4933 26.9181 64.4394 26.7766 66.2094 26.0686C67.9794 25.3606 69.4862 24.1209 70.5219 22.5204C71.5576 20.9199 72.0713 19.0375 71.992 17.1328V13.9062H1.00796Z" stroke="black" stroke-width="2" stroke-linecap="round" stroke-linejoin="round"/>
<path d="M17.1406 23.5858V13.9062L20.3672 1" stroke="black" stroke-width="2" stroke-linecap="round" stroke-linejoin="round"/>
<path d="M55.8594 23.5858V13.9062L52.6328 1" stroke="black" stroke-width="2" stroke-linecap="round" stroke-linejoin="round"/>
<path d="M36.5 1V25.1991" stroke="black" stroke-width="2" stroke-linecap="round" stroke-linejoin="round"/>
</svg>
