<svg width="73" height="49" viewBox="0 0 73 49" fill="none" xmlns="http://www.w3.org/2000/svg">
<path d="M21.5156 23.7018C21.8616 23.3553 22.2726 23.0804 22.7249 22.8929C23.1773 22.7054 23.6622 22.6089 24.1519 22.6089C24.6415 22.6089 25.1264 22.7054 25.5788 22.8929C26.0311 23.0804 26.4421 23.3553 26.7881 23.7018L33.4128 30.3295L61.6462 2.0961C61.9922 1.74963 62.4032 1.47477 62.8555 1.28723C63.3079 1.0997 63.7928 1.00317 64.2824 1.00317C64.7721 1.00317 65.257 1.0997 65.7094 1.28723C66.1617 1.47477 66.5727 1.74963 66.9187 2.0961L70.9071 6.08755C71.2534 6.43333 71.5282 6.84402 71.7157 7.29612C71.9032 7.74821 71.9997 8.23284 71.9997 8.72227C71.9997 9.21171 71.9032 9.69633 71.7157 10.1484C71.5282 10.6005 71.2534 11.0112 70.9071 11.357L36.049 46.215C35.3489 46.9125 34.401 47.3041 33.4128 47.3041C32.4245 47.3041 31.4766 46.9125 30.7765 46.215L17.5272 32.9627C17.1809 32.6169 16.9061 32.2062 16.7186 31.7541C16.5311 31.302 16.4346 30.8174 16.4346 30.328C16.4346 29.8385 16.5311 29.3539 16.7186 28.9018C16.9061 28.4497 17.1809 28.039 17.5272 27.6932L21.5156 23.7018Z" stroke="black" stroke-width="2" stroke-linecap="round" stroke-linejoin="round"/>
<path d="M12.1531 24.5042L11.3536 23.7016C11.0075 23.3551 10.5966 23.0802 10.1442 22.8927C9.69186 22.7052 9.20698 22.6086 8.71729 22.6086C8.22761 22.6086 7.74272 22.7052 7.29037 22.8927C6.83802 23.0802 6.42707 23.3551 6.08102 23.7016L2.09266 27.693C1.74628 28.0388 1.47149 28.4495 1.284 28.9016C1.09651 29.3537 1 29.8383 1 30.3277C1 30.8172 1.09651 31.3018 1.284 31.7539C1.47149 32.206 1.74628 32.6167 2.09266 32.9625L15.3419 46.2148C16.042 46.9123 16.99 47.3039 17.9782 47.3039C18.9664 47.3039 19.9144 46.9123 20.6145 46.2148L21.3306 45.4956" stroke="black" stroke-width="2" stroke-linecap="round" stroke-linejoin="round"/>
<path d="M52.2001 2.8091L51.4839 2.09292C51.1379 1.74645 50.7269 1.47159 50.2746 1.28406C49.8222 1.09653 49.3374 1 48.8477 1C48.358 1 47.8731 1.09653 47.4207 1.28406C46.9684 1.47159 46.5574 1.74645 46.2114 2.09292L29.9678 18.3365" stroke="black" stroke-width="2" stroke-linecap="round" stroke-linejoin="round"/>
</svg>
