<svg width="90" height="90" fill="none" xmlns="http://www.w3.org/2000/svg"><path d="M30.516 43.702a3.725 3.725 0 015.272 0l6.625 6.628 28.233-28.234a3.727 3.727 0 015.273 0l3.988 3.991a3.724 3.724 0 010 5.27L45.05 66.215a3.735 3.735 0 01-5.273 0L26.527 52.963a3.724 3.724 0 010-5.27l3.989-3.991zM21.153 44.504l-.8-.802a3.725 3.725 0 00-5.272 0l-3.988 3.991a3.723 3.723 0 000 5.27l13.249 13.252a3.735 3.735 0 005.273 0l.716-.72M61.2 22.81l-.716-.717a3.726 3.726 0 00-5.273 0L38.968 38.337" stroke="#000" stroke-width="2" stroke-linecap="round" stroke-linejoin="round"/></svg>