<svg width="300" height="300" viewBox="0 0 300 300" fill="none" xmlns="http://www.w3.org/2000/svg">
<path d="M194.151 300C180.089 300 164.009 295.326 150.615 295.326C136.553 295.326 120.807 300 106.745 300C66.2211 300 66.2211 261.508 52.152 238.732C41.7731 220.309 20 205.227 20 181.803C20 158.379 41.7731 143.621 52.152 125.212C65.5498 102.102 66.5584 63.9269 106.745 63.9269C122.48 63.9269 136.553 68.2804 150.615 68.2804C166.357 68.2804 180.089 63.9269 194.151 63.9269C233.353 63.9269 236.685 102.45 248.748 125.212C259.457 142.626 280.896 158.713 280.896 181.803C280.896 204.573 259.457 221.656 248.748 238.735C235.346 262.5 233.339 300 194.154 300" fill="#77B431"/>
<path d="M110.561 299.894C123.615 299.213 137.82 295.326 150.615 295.326C162.81 295.326 177.233 299.199 190.331 299.894H197.678C233.479 297.699 235.769 261.777 248.748 238.728C259.457 221.659 280.896 204.573 280.896 181.796C280.896 158.693 259.457 142.592 248.748 125.205C236.685 102.429 233.339 63.9133 194.151 63.9133C180.089 63.9133 166.357 68.2701 150.615 68.2701C136.553 68.2701 122.484 63.9133 106.745 63.9133C66.5584 63.9133 65.5498 102.095 52.152 125.202C41.7731 143.615 20 158.356 20 181.803C20 205.251 41.7731 220.326 52.152 238.735C65.7815 260.823 66.204 297.678 103.154 299.901L110.561 299.894ZM59.5256 234.368C49.818 216.624 28.7161 201.893 28.7161 181.803C28.7161 162.031 49.818 146.628 59.5256 129.215C74.6032 104.43 72.9234 72.6236 106.755 72.6236C120.484 72.6236 135.888 76.9736 150.625 76.9736C164.687 76.9736 180.433 72.6236 194.161 72.6236C227.99 72.6236 227.99 107.451 241.381 129.215C251.095 146.628 272.194 162.027 272.194 181.803C272.194 201.893 251.095 216.624 241.381 234.368C226.647 258.487 227.656 291.3 194.161 291.3C180.433 291.3 164.687 286.616 150.625 286.616C135.888 286.616 120.146 291.3 106.755 291.3C73.2471 291.3 73.5844 257.475 59.5256 234.368Z" fill="url(#paint0_linear_407_1738)"/>
<path d="M163.642 166.8C144.369 160.544 117.008 151.306 117.008 135C117.008 119.339 130.518 114.886 142.877 114.886C161.825 114.886 188.195 131.199 198.574 153.45H203.849L201.538 125.928C195.443 117.354 181.776 109.612 172.375 106.814C162.879 104.161 153.063 102.829 143.204 102.856C116.017 102.856 96.5707 119.168 96.5707 146.192C96.5707 171.733 119.141 183.593 148.145 193.326C166.766 199.602 194.117 207.829 194.117 228.6C194.117 239.693 186.025 246.154 174.804 248.499C166.879 245.662 159.817 240.832 154.299 234.474C149.806 229.35 145.653 223.938 141.868 218.271H125.101C122.631 215.121 120.317 211.931 118.156 208.701H101.46C100.438 207.304 99.4908 205.919 98.5606 204.549H93.2859L96.2538 250.514C103.345 252.007 113.062 253.977 122.46 256.456C133.79 259.546 145.472 261.15 157.215 261.229C185.892 261.229 215.059 253.33 215.059 216.569C215.059 190.2 190.004 175.531 163.645 166.797" fill="white"/>
<path d="M101.467 208.701C108.088 218.309 116.05 226.919 125.111 234.269C133.13 241.024 142.617 245.811 152.813 248.247C152.84 248.247 152.847 248.247 152.813 248.226C142.969 243.576 134.059 237.161 126.525 229.299C120.384 222.969 114.861 216.067 110.03 208.688L101.467 208.701ZM125.08 218.26C130.543 225.385 136.821 231.845 143.787 237.508C148.724 241.59 154.154 245.036 159.948 247.766C159.982 247.766 159.985 247.766 159.948 247.746C156.348 245.051 152.962 242.08 149.821 238.862C143.709 232.555 138.241 225.654 133.5 218.26H125.08Z" fill="#0071B8"/>
<path d="M61.9107 169.029C59.6154 167.349 56.9837 166.186 54.1964 165.62C50.9815 166.535 48.1299 168.427 46.0358 171.034C47.4402 170.355 48.9304 169.871 50.4654 169.595C53.7739 168.971 56.3635 170.887 59.529 172.708C62.346 174.553 65.61 175.6 68.9743 175.738C70.8646 175.711 72.7209 175.231 74.3886 174.341C73.7103 173.158 72.911 172.05 72.0034 171.034C71.0054 171.473 69.9284 171.705 68.838 171.716C66.3336 171.473 63.9447 170.543 61.9346 169.029M76.0309 180.054C74.0741 181.885 71.5477 182.986 68.8754 183.174C66.3552 182.927 63.9502 181.996 61.921 180.48C58.8792 178.323 55.2916 177.068 51.5693 176.856C50.9753 176.843 50.381 176.87 49.7907 176.938C47.9234 177.184 44.5672 178.704 42.4614 179.042C42.1311 179.911 41.9838 180.84 42.0287 181.769V183.474C44.1378 183.095 47.7735 181.858 49.7907 181.462C50.4641 181.331 51.149 181.267 51.8351 181.271C54.6078 181.44 57.2726 182.407 59.5085 184.056C62.3119 185.94 65.5801 187.013 68.9538 187.159C71.3697 187.173 73.7309 186.439 75.7141 185.059C75.9657 183.976 76.0621 182.862 76.0003 181.752L76.0309 180.054ZM61.9346 191.85C58.9548 189.763 55.4526 188.55 51.8215 188.345C51.1467 188.348 50.4728 188.396 49.8043 188.488C47.8071 188.754 45.8659 189.341 44.0561 190.227C44.8092 191.448 45.7264 192.559 46.782 193.53C48.2836 193.125 49.8273 192.896 51.3819 192.849C54.2824 193.036 57.0873 193.959 59.5324 195.532C61.1116 196.52 62.8005 197.321 64.5651 197.918C66.7961 197.156 68.8732 196.001 70.6984 194.509C70.1774 194.598 69.6494 194.641 69.1208 194.635C66.5219 194.325 64.0451 193.357 61.9244 191.822M241.48 178.268V173.836H227.366C226.565 175.221 225.966 176.713 225.588 178.268H241.48ZM230.413 188.151C230.994 188.152 231.563 187.981 232.047 187.659C232.531 187.337 232.909 186.879 233.133 186.342C233.357 185.805 233.417 185.214 233.305 184.643C233.193 184.072 232.915 183.547 232.505 183.134C232.095 182.722 231.572 182.44 231.002 182.325C230.432 182.21 229.841 182.266 229.303 182.487C228.765 182.708 228.305 183.083 227.98 183.566C227.655 184.049 227.481 184.617 227.479 185.199C227.479 185.978 227.788 186.725 228.338 187.276C228.888 187.828 229.634 188.139 230.413 188.141M254.786 193.149C257.463 190.113 258.941 186.203 258.941 182.154C258.941 178.105 257.463 174.196 254.786 171.16V193.149ZM246.107 198.508C247.665 198.119 249.158 197.502 250.537 196.677V167.611C249.158 166.79 247.665 166.178 246.107 165.794V198.508ZM242.022 193.636C242.019 192.857 241.708 192.11 241.156 191.56C240.604 191.01 239.856 190.701 239.077 190.703C238.298 190.704 237.551 191.014 237 191.566C236.45 192.117 236.14 192.865 236.14 193.645C236.14 194.424 236.45 195.172 237 195.723C237.551 196.275 238.298 196.585 239.077 196.587C239.856 196.588 240.604 196.279 241.156 195.729C241.708 195.179 242.019 194.433 242.022 193.653V193.636ZM241.48 169.581V165.283C237.521 165.407 233.734 166.93 230.791 169.581H241.48ZM232.219 195.91C232.545 195.658 232.814 195.34 233.008 194.977C233.201 194.613 233.316 194.213 233.343 193.802C233.37 193.391 233.31 192.978 233.166 192.592C233.021 192.207 232.797 191.856 232.507 191.563C232.217 191.271 231.868 191.044 231.483 190.896C231.098 190.749 230.687 190.686 230.276 190.71C229.865 190.734 229.464 190.845 229.099 191.037C228.734 191.228 228.414 191.495 228.16 191.819C229.273 193.401 230.645 194.784 232.219 195.91ZM239.095 182.267C238.513 182.267 237.945 182.441 237.461 182.764C236.978 183.088 236.602 183.548 236.38 184.086C236.158 184.624 236.1 185.215 236.215 185.786C236.329 186.357 236.609 186.881 237.021 187.292C237.433 187.702 237.957 187.982 238.528 188.095C239.098 188.208 239.689 188.149 240.226 187.926C240.764 187.702 241.222 187.325 241.545 186.84C241.867 186.356 242.039 185.787 242.039 185.205C242.038 184.819 241.962 184.437 241.813 184.08C241.665 183.723 241.448 183.399 241.175 183.126C240.902 182.853 240.577 182.637 240.22 182.489C239.863 182.342 239.481 182.266 239.095 182.267Z" fill="white"/>
<path d="M150.588 48.661C162.725 48.661 184.897 52.6769 188.311 52.6769C190.138 52.4361 191.817 51.5407 193.035 50.1567C194.253 48.7726 194.928 46.9937 194.935 45.1497C194.97 43.5373 194.635 41.9384 193.955 40.4762C193.275 39.014 192.268 37.7274 191.013 36.7156L156.803 2.50531C155.13 0.897756 152.901 0 150.581 0C148.262 0 146.032 0.897756 144.359 2.50531C144.359 2.50531 111.25 35.6178 110.146 36.7156C108.893 37.7282 107.889 39.0154 107.212 40.4777C106.535 41.9401 106.203 43.5385 106.241 45.1497C106.245 46.993 106.918 48.7721 108.134 50.1566C109.351 51.541 111.028 52.4366 112.855 52.6769C116.262 52.6769 138.441 48.661 150.588 48.661Z" fill="#E72F36"/>
<defs>
<linearGradient id="paint0_linear_407_1738" x1="134.312" y1="155.189" x2="203.607" y2="270.622" gradientUnits="userSpaceOnUse">
<stop stop-color="#76B828"/>
<stop offset="0.127" stop-color="#6FB430"/>
<stop offset="0.326" stop-color="#5EA946"/>
<stop offset="0.571" stop-color="#40976A"/>
<stop offset="0.85" stop-color="#187F9C"/>
<stop offset="1" stop-color="#0070BA"/>
</linearGradient>
</defs>
</svg>
