<svg xmlns="http://www.w3.org/2000/svg" width="194" height="88" aria-labelledby="site-logo-title site-logo-desc" class="logo__svg logo__svg--schagen"><defs><linearGradient id="a" x1="-910.65" y1="151.585" x2="-910.401" y2="151.585" gradientTransform="matrix(81.613 136.022 -158.419 95.052 98368.371 109505.499)" gradientUnits="userSpaceOnUse"><stop offset="0" stop-color="#76b828"/><stop offset=".127" stop-color="#6fb430"/><stop offset=".326" stop-color="#5ea946"/><stop offset=".571" stop-color="#40976a"/><stop offset=".85" stop-color="#187f9c"/><stop offset="1" stop-color="#0070ba"/></linearGradient></defs><g class="logo__svg--text" fill="#0070ba"><path d="M141.166 40.885c.007.322.021.566.021.744 0 2.266-1.364 3.546-3.681 3.546a4.11 4.11 0 0 1-3.091-1.16 4.239 4.239 0 0 1-1.171-3.021 4.069 4.069 0 0 1 1.212-3.011 4.338 4.338 0 0 1 3.05-1.171 3.679 3.679 0 0 1 3.011 1.4l-.947.713a2.56 2.56 0 0 0-2.044-.931 3.009 3.009 0 0 0 .012 6.018c1.494 0 2.384-.747 2.384-1.929v-.11h-1.914v-1.088ZM143.217 36.991h4.449v1.105h-3.154v1.996h3.154v1.138h-3.154v2.573h3.154v1.159h-4.449v-7.971zM156.181 39.933a4.089 4.089 0 0 1-.375 1.1l-2.081 4.248-2.089-4.336a5.821 5.821 0 0 1-.388-1.017 5.83 5.83 0 0 1-.147 1.1l-.856 3.924h-1.2l1.886-8.283 2.357 5.009c.063.142.21.5.434 1.078.158-.449.336-.8.458-1.078l2.3-5.009 1.925 8.283h-1.2l-.879-3.934c-.034-.143-.068-.5-.143-1.095M160.113 36.991h4.451v1.105h-3.156v1.996h3.156v1.138h-3.156v2.573h3.156v1.159h-4.451v-7.971zM166.721 36.991h4.452v1.105h-3.16v1.996h3.16v1.138h-3.16v2.573h3.16v1.159h-4.452v-7.971zM173.324 36.679l5.063 4.872a10.244 10.244 0 0 1 .87.97v-5.527h1.195v8.285l-5.165-4.964a5.991 5.991 0 0 1-.771-.89v5.54h-1.192ZM185.527 44.962h-1.298v-6.866h-2.117v-1.105h5.523v1.105h-2.108v6.866zM189.299 36.991h4.449v1.105h-3.156v1.996h3.156v1.138h-3.156v2.573h3.156v1.159h-4.449v-7.971zM99.616 46.431a4.032 4.032 0 0 0-3.785-2.388 3.486 3.486 0 0 0-3.639 3.325v.082c0 1.888 1.953 2.764 3.435 3.434l1.459.642c2.851 1.253 5.275 2.678 5.275 6.172A6.936 6.936 0 0 1 88.6 58.8l2.4-.673a4.525 4.525 0 0 0 4.4 4.079 4.416 4.416 0 0 0 4.517-4.284c0-2.558-1.981-3.46-4.048-4.364l-1.341-.583c-2.592-1.133-4.777-2.476-4.777-5.618 0-3.405 2.883-5.59 6.146-5.59a6.3 6.3 0 0 1 5.681 3.407ZM116.105 54.491h-.055a5.282 5.282 0 0 0-4.256-2.3 4.9 4.9 0 0 0-4.84 4.961v.108a4.8 4.8 0 0 0 4.531 5.055c.063 0 .127.006.191.007a5.32 5.32 0 0 0 4.458-2.356h.058v3.115a7.482 7.482 0 0 1-4.34 1.4 7.092 7.092 0 0 1-7.283-6.894v-.324a7.223 7.223 0 0 1 7.22-7.227h.095a7.367 7.367 0 0 1 4.219 1.372ZM121.874 40.085V52.02l.059.06a4.6 4.6 0 0 1 3.9-2.044c3.79 0 4.663 2.743 4.663 5.943v8.126h-2.328v-7.722c0-2.212-.175-4.189-2.887-4.189-3.2 0-3.408 2.971-3.408 5.413v6.5h-2.328V40.085ZM135.884 57.118c0 2.676 1.578 5.207 4.49 5.207 3 0 4.573-2.414 4.573-5.183 0-2.739-1.72-4.948-4.6-4.948a4.643 4.643 0 0 0-4.464 4.815l.006.109m11.267 6.982h-2.332v-1.889h-.059a5.743 5.743 0 0 1-4.712 2.269c-4.022 0-6.555-3.4-6.555-7.192 0-3.9 2.477-7.252 6.582-7.252a5.912 5.912 0 0 1 4.69 2.333h.059v-1.951h2.327ZM152.551 57.118c0 2.676 1.575 5.207 4.487 5.207 3 0 4.573-2.413 4.573-5.183 0-2.739-1.719-4.948-4.6-4.948a4.64 4.64 0 0 0-4.46 4.924m11.273 6.315c0 2.186 0 4.075-1.4 5.879a6.645 6.645 0 0 1-5.3 2.418c-3.82 0-6.638-2.418-6.727-6.289h2.328a4.067 4.067 0 0 0 3.991 4.142c.126 0 .253 0 .379-.01 3.613 0 4.4-2.649 4.4-5.734v-1.628h-.061a6.067 6.067 0 0 1-4.744 2.27c-3.991 0-6.527-3.35-6.527-7.161 0-3.843 2.563-7.284 6.614-7.284a5.7 5.7 0 0 1 4.657 2.333h.061v-1.951h2.33ZM177.689 55.775a4.178 4.178 0 0 0-4.023-3.583 4.331 4.331 0 0 0-4.166 3.581Zm-8.3 1.981a4.432 4.432 0 0 0 4.292 4.568h.189a4.684 4.684 0 0 0 4.169-2.828l1.982 1.139a6.908 6.908 0 0 1-6.321 3.845c-4.079 0-6.7-3.116-6.7-7.046 0-4.046 2.359-7.4 6.642-7.4 4.4 0 6.729 3.642 6.493 7.72ZM185.377 52.08h.061a4.6 4.6 0 0 1 3.9-2.044c3.789 0 4.661 2.743 4.661 5.943V64.1h-2.327v-7.717c0-2.211-.175-4.189-2.883-4.189-3.207 0-3.411 2.971-3.411 5.413v6.5h-2.331V50.418h2.331Z"/></g><g class="logo__svg--emblem"><path d="M51.11 88c-4.127 0-8.846-1.371-12.777-1.371-4.127 0-8.748 1.371-12.875 1.371-11.893 0-11.893-11.291-16.022-17.972C6.39 64.624 0 60.2 0 53.329s6.39-11.2 9.436-16.6c3.932-6.779 4.228-17.977 16.022-17.977 4.618 0 8.748 1.277 12.875 1.277 4.62 0 8.65-1.277 12.777-1.277 11.505 0 12.483 11.3 16.023 17.977 3.143 5.108 9.435 9.827 9.435 16.6 0 6.679-6.292 11.69-9.435 16.7C63.2 77 62.611 88 51.111 88" fill="#76b828"/><path d="M26.578 87.969c3.831-.2 8-1.34 11.755-1.34 3.579 0 7.812 1.136 11.656 1.34h2.156c10.507-.644 11.179-11.181 14.988-17.942 3.143-5.007 9.435-10.019 9.435-16.7 0-6.777-6.292-11.5-9.435-16.6-3.54-6.681-4.522-17.979-16.023-17.979-4.127 0-8.157 1.278-12.777 1.278-4.127 0-8.256-1.278-12.875-1.278-11.794 0-12.09 11.2-16.022 17.978C6.39 42.127 0 46.451 0 53.329s6.39 11.3 9.436 16.7c4 6.479 4.124 17.29 14.968 17.942ZM11.6 68.748c-2.849-5.205-9.042-9.526-9.042-15.419 0-5.8 6.193-10.318 9.042-15.426 4.425-7.27 3.932-16.6 13.861-16.6 4.029 0 8.55 1.276 12.875 1.276 4.127 0 8.748-1.276 12.777-1.276 9.928 0 9.928 10.216 13.858 16.6 2.851 5.108 9.043 9.625 9.043 15.426 0 5.893-6.192 10.214-9.043 15.419-4.324 7.075-4.028 16.7-13.858 16.7-4.029 0-8.65-1.374-12.777-1.374-4.325 0-8.945 1.374-12.875 1.374-9.834 0-9.735-9.922-13.861-16.7Z" fill="url(#a)"/><path d="M42.156 48.928C36.5 47.093 28.47 44.383 28.47 39.6c0-4.594 3.965-5.9 7.592-5.9 5.561 0 13.3 4.785 16.346 11.312h1.548l-.678-8.073c-1.789-2.515-5.8-4.786-8.559-5.607a31.518 31.518 0 0 0-8.561-1.161c-7.979 0-13.686 4.785-13.686 12.712 0 7.492 6.624 10.971 15.136 13.826C43.073 58.55 51.1 60.963 51.1 67.056c0 3.254-2.375 5.149-5.668 5.837a14.392 14.392 0 0 1-6.018-4.114 45.755 45.755 0 0 1-3.648-4.753h-4.921q-1.087-1.386-2.038-2.807h-4.9c-.3-.41-.578-.816-.851-1.218h-1.548l.871 13.483c2.081.438 4.933 1.016 7.691 1.743a39.8 39.8 0 0 0 10.2 1.4c8.416 0 16.976-2.317 16.976-13.1 0-7.735-7.353-12.038-15.089-14.6" fill="#fff"/><path d="M23.909 61.219a35.865 35.865 0 0 0 6.939 7.5 19.745 19.745 0 0 0 8.13 4.1c.008 0 .01 0 0-.006a26.165 26.165 0 0 1-7.715-5.552 40.714 40.714 0 0 1-4.841-6.046ZM30.839 64.023a33.716 33.716 0 0 0 5.49 5.646 22.493 22.493 0 0 0 4.743 3.009c.01 0 .011 0 0-.006a25.514 25.514 0 0 1-2.972-2.606 38.706 38.706 0 0 1-4.79-6.043Z" fill="#0070ba"/><path d="M12.3 49.582a5.782 5.782 0 0 0-2.264-1 4.736 4.736 0 0 0-2.395 1.588 5.046 5.046 0 0 1 1.3-.422c.971-.183 1.731.379 2.66.913a5.47 5.47 0 0 0 2.772.889 3.482 3.482 0 0 0 1.589-.41 5.762 5.762 0 0 0-.7-.97 2.36 2.36 0 0 1-.929.2 4.011 4.011 0 0 1-2.026-.788m4.137 3.234a3.426 3.426 0 0 1-2.1.915 4.074 4.074 0 0 1-2.041-.79 5.824 5.824 0 0 0-3.038-1.063 3.787 3.787 0 0 0-.522.024c-.548.072-1.533.518-2.151.617a1.983 1.983 0 0 0-.127.8v.5c.619-.111 1.686-.474 2.278-.59a3.029 3.029 0 0 1 .6-.056 4.228 4.228 0 0 1 2.252.817 5.388 5.388 0 0 0 2.772.91 3.439 3.439 0 0 0 1.984-.616 3.439 3.439 0 0 0 .084-.97Zm-4.137 3.46a5.74 5.74 0 0 0-2.968-1.028 4.507 4.507 0 0 0-.592.042 5.483 5.483 0 0 0-1.687.51 4.594 4.594 0 0 0 .8.969 5.865 5.865 0 0 1 1.35-.2 5.024 5.024 0 0 1 2.392.787 7.033 7.033 0 0 0 1.477.7 5.809 5.809 0 0 0 1.8-1 2.567 2.567 0 0 1-.463.037 4.516 4.516 0 0 1-2.112-.825M65 52.292v-1.3h-4.142a4.918 4.918 0 0 0-.522 1.3ZM61.752 55.191a.863.863 0 1 0-.861-.866.863.863 0 0 0 .861.863M68.905 56.657a4.874 4.874 0 0 0 0-6.45ZM66.358 58.229a4.792 4.792 0 0 0 1.3-.537v-8.526a4.782 4.782 0 0 0-1.3-.533ZM65.159 56.8a.863.863 0 1 0 0 .005V56.8M65 49.744v-1.261a4.918 4.918 0 0 0-3.137 1.261ZM62.282 57.467a.852.852 0 1 0-1.191-1.2 5.045 5.045 0 0 0 1.191 1.2M64.3 53.465a.863.863 0 1 0 .864.862.863.863 0 0 0-.864-.862" fill="#fff"/><path d="M38.325 14.274c3.562 0 10.069 1.178 11.071 1.178a2.236 2.236 0 0 0 1.944-2.208 3.091 3.091 0 0 0-1.151-2.474L40.149.735a2.636 2.636 0 0 0-3.652 0S26.78 10.448 26.456 10.77a3.086 3.086 0 0 0-1.146 2.474 2.232 2.232 0 0 0 1.941 2.208c1 0 7.509-1.178 11.074-1.178" fill="#e72f36"/></g></svg>