<svg xmlns="http://www.w3.org/2000/svg" width="26" height="26" fill="none" viewBox="0 0 26 26"><path fill="#3561FF" d="M13 0C5.8318 0 0 5.83188 0 13.0001C0 20.1683 5.8318 26 13 26C20.1682 26 26 20.1683 26 13.0001C26 5.83188 20.1682 0 13 0ZM13 23.6364C7.13503 23.6364 2.36364 18.865 2.36364 13.0001C2.36364 7.13519 7.13503 2.36364 13 2.36364C18.865 2.36364 23.6364 7.13519 23.6364 13.0001C23.6364 18.865 18.8649 23.6364 13 23.6364Z"/><path fill="#3561FF" d="M12.281 19.5443C11.6467 19.5443 11.042 19.2736 10.6269 18.7999L5.39932 12.8305C4.61652 11.9363 4.72234 10.5907 5.63584 9.82447C6.54894 9.05743 7.92374 9.161 8.70748 10.0556L12.125 13.9578L22.926 1.20974C24.598 -1.0825 26.3479 0.186847 24.6686 2.48888L14.0531 18.6514C13.6637 19.1848 13.0455 19.5132 12.3768 19.5422C12.3445 19.5435 12.3128 19.5443 12.281 19.5443Z"/></svg>