<svg width="51" height="51" viewBox="0 0 51 51" fill="none" xmlns="http://www.w3.org/2000/svg">
<rect x="0.5" y="0.500122" width="50" height="50" rx="25" fill="#F3F4F5"/>
<path d="M26.5 31.0001H30.5V27.0001H32.5V31.0001H36.5V33.0001H32.5V37.0001H30.5V33.0001H26.5V31.0001ZM24.5 31.0001V33.0001H22.5V31.0001H24.5ZM20.5 31.0001V33.0001H18.5V31.0001H20.5ZM32.5 23.0001V25.0001H30.5V23.0001H32.5ZM32.5 19.0001V21.0001H30.5V19.0001H32.5ZM28.5 19.0001V21.0001H26.5V19.0001H28.5ZM24.5 19.0001V21.0001H22.5V19.0001H24.5ZM20.5 19.0001V21.0001H18.5V19.0001H20.5ZM20.5 27.0001V29.0001H18.5V27.0001H20.5ZM20.5 23.0001V25.0001H18.5V23.0001H20.5Z" fill="#646F79"/>
</svg>
