<svg xmlns="http://www.w3.org/2000/svg" id="Icon" width="70" height="70" viewBox="0 0 70 70"><metadata><?xpacket begin="﻿" id="W5M0MpCehiHzreSzNTczkc9d"?><x:xmpmeta xmlns:x="adobe:ns:meta/" x:xmptk="Adobe XMP Core 5.6-c142 79.160924, 2017/07/13-01:06:39"><rdf:RDF xmlns:rdf="http://www.w3.org/1999/02/22-rdf-syntax-ns#"><rdf:Description/></rdf:RDF></x:xmpmeta><?xpacket end="w"?></metadata><defs><style>.cls-1,.cls-2{fill:#d91d46;fill-rule:evenodd}.cls-2{fill:#134478}</style></defs><path id="Shape_1389_copy_2" d="M57.677,61.75a1.011,1.011,0,0,1-.717-0.3L41,45.492a1.015,1.015,0,0,1,.075-1.5A19.451,19.451,0,0,0,43.8,41.262a1.012,1.012,0,0,1,.735-0.371,1.027,1.027,0,0,1,.768.3L61.265,57.148a1.014,1.014,0,0,1,0,1.435l-2.87,2.87A1.011,1.011,0,0,1,57.677,61.75ZM43.2,44.829L57.677,59.3l1.435-1.435L44.64,43.394Q43.957,44.143,43.2,44.829ZM16.7,11.815a1.015,1.015,0,1,1-1.015,1.015A1.015,1.015,0,0,1,16.7,11.815Z" class="cls-1" data-name="Shape 1389 copy 2"/><path id="Shape_1389_copy_3" d="M28.873,50.372a21.308,21.308,0,0,1-15.982-35.4,1.015,1.015,0,1,1,1.521,1.343,19.232,19.232,0,1,0,6.749-4.923,1.015,1.015,0,0,1-.813-1.86A21.311,21.311,0,1,1,28.873,50.372Z" class="cls-2" data-name="Shape 1389 copy 3"/></svg>