<svg xmlns="http://www.w3.org/2000/svg" width="100" height="100" fill="none" viewBox="0 0 100 100"><path fill="url(#paint0_linear)" fill-rule="evenodd" d="M99.7994 49.8997C99.7994 77.4589 77.4589 99.7994 49.8997 99.7994C22.3405 99.7994 0 77.4589 0 49.8997C0 22.3405 22.3405 0 49.8997 0C77.4589 0 99.7994 22.3405 99.7994 49.8997Z" clip-rule="evenodd"/><path fill="#C0C5D4" fill-rule="evenodd" d="M71.2173 0H29.2035C24.1066 0 19.96 4.14664 19.96 9.24351V89.5813C28.353 95.9901 38.8376 99.7994 50.213 99.7994C61.5862 99.7994 72.0685 95.9916 80.4608 89.5851V9.24351C80.4608 4.14664 76.3141 0 71.2173 0Z" clip-rule="evenodd"/><path fill="#9E9FAA" fill-rule="evenodd" d="M29.9978 9.24351C29.9978 4.14664 34.1445 0 39.2406 0H28.89C23.7931 0 19.6465 4.14664 19.6465 9.24351V89.5813C22.8193 92.0041 26.2921 94.0546 29.9978 95.6696V9.24351Z" clip-rule="evenodd"/><path fill="#EFF2F9" fill-rule="evenodd" d="M49.9526 100C59.1066 100 67.6837 97.5369 75.0637 93.2411V9.25209C75.0637 7.00881 73.2446 5.19052 71.0014 5.19052H62.4784C61.6032 5.19052 60.8333 5.77042 60.5914 6.61127L59.775 9.45277C59.5606 10.2021 58.8754 10.7179 58.0963 10.7179H41.8043C41.0252 10.7179 40.34 10.2021 40.1249 9.45277L39.3191 6.64713C39.0711 5.78415 38.2821 5.19052 37.3848 5.19052H28.8985C26.6552 5.19052 24.8369 7.00881 24.8369 9.25209V93.2388C32.2176 97.5354 40.7963 100 49.9526 100Z" clip-rule="evenodd"/><path fill="url(#paint1_linear)" fill-rule="evenodd" d="M49.9526 100C59.1066 100 67.6837 97.5369 75.0637 93.2411V9.25209C75.0637 7.00881 73.2446 5.19052 71.0014 5.19052H62.4784C61.6032 5.19052 60.8333 5.77042 60.5914 6.61127L59.775 9.45277C59.5606 10.2021 58.8754 10.7179 58.0963 10.7179H41.8043C41.0252 10.7179 40.34 10.2021 40.1249 9.45277L39.3191 6.64713C39.0711 5.78415 38.2821 5.19052 37.3848 5.19052H28.8985C26.6552 5.19052 24.8369 7.00881 24.8369 9.25209V93.2388C32.2176 97.5354 40.7963 100 49.9526 100Z" clip-rule="evenodd" style="mix-blend-mode:lighten"/><path fill="#E7EAF6" fill-rule="evenodd" d="M29.9977 9.2435C29.9977 7.79073 30.3358 6.41487 30.9358 5.19052H28.8899C26.6514 5.19052 24.8369 7.00496 24.8369 9.2435V93.0503C26.5021 94.0196 28.1864 94.8754 29.9977 95.6673V9.2435Z" clip-rule="evenodd"/><path fill="#5E636B" fill-rule="evenodd" d="M52.0625 6.98897H48.3773C47.3783 6.98897 46.5674 6.17883 46.5674 5.1791C46.5674 4.17937 47.3783 3.36923 48.3773 3.36923H52.0625C53.0622 3.36923 53.8723 4.17937 53.8723 5.1791C53.8723 6.17883 53.0622 6.98897 52.0625 6.98897Z" clip-rule="evenodd"/><g clip-path="url(#clip0)"><path fill="url(#paint2_linear)" d="M62.3745 21.5156C62.3682 21.9947 62.1757 22.4426 61.8321 22.7765L49.8995 34.3913L47.3539 36.8691C47.3339 36.8886 47.3134 36.9066 47.2925 36.9242L47.2857 36.9305C47.2662 36.948 47.2467 36.9651 47.2267 36.9812C47.2043 36.9992 47.1819 37.0158 47.159 37.0323L47.1463 37.0416C47.1253 37.0567 47.1044 37.0718 47.0824 37.086C47.0586 37.1015 47.0342 37.1162 47.0098 37.1298L46.9972 37.1376C46.9752 37.1508 46.9528 37.1634 46.9304 37.1751C46.9046 37.1888 46.8788 37.2005 46.8529 37.2122L46.8407 37.2175C46.8178 37.2282 46.7949 37.2385 46.772 37.2477C46.7438 37.2594 46.716 37.2692 46.6877 37.2784L46.6785 37.2814C46.6546 37.2901 46.6317 37.2979 46.6088 37.3048C46.5771 37.314 46.5459 37.3213 46.5143 37.3286L46.5094 37.3296C46.4855 37.3359 46.4641 37.3408 46.4421 37.3452C46.3973 37.3535 46.3593 37.3584 46.3305 37.3618C46.3106 37.3652 46.292 37.3676 46.273 37.3691C46.2165 37.3744 46.1595 37.3774 46.1029 37.3774C46.0454 37.3774 45.9874 37.3744 45.9299 37.3691C45.9099 37.3671 45.8899 37.3642 45.8695 37.3613C45.8412 37.3574 45.8027 37.3525 45.7579 37.3437C45.7354 37.3393 45.7125 37.334 45.6896 37.3281L45.6843 37.3267C45.6521 37.3194 45.6204 37.3116 45.5893 37.3023C45.5649 37.295 45.542 37.2872 45.5196 37.2789L45.5089 37.275C45.4801 37.2653 45.4514 37.255 45.4226 37.2434C45.4002 37.2341 45.3768 37.2234 45.3534 37.2122L45.3407 37.2063C45.3144 37.1941 45.2881 37.1819 45.2628 37.1683C45.2399 37.1561 45.2165 37.1425 45.1936 37.1288L45.1809 37.121C45.1565 37.1069 45.1322 37.0923 45.1083 37.0762C45.0864 37.0616 45.0644 37.0455 45.0425 37.0289L45.0293 37.0192C45.0069 37.0026 44.9845 36.9861 44.9626 36.968C44.9421 36.951 44.9217 36.9325 44.9017 36.9139L44.8953 36.9081C44.8739 36.8891 44.8539 36.8711 44.8344 36.8516L37.9493 29.9668C37.25 29.2674 37.25 28.1299 37.9493 27.4305C38.2881 27.0917 38.7384 26.905 39.2175 26.905C39.6966 26.905 40.1469 27.0917 40.4856 27.4305L46.1198 33.0646L49.8994 29.3858L59.3303 20.2065C60.0394 19.5164 61.177 19.532 61.8667 20.2406C62.2005 20.5838 62.3813 21.0365 62.3745 21.5156Z"/><path fill="#3561FF" d="M62.3744 21.5156C62.3681 21.9947 62.1756 22.4426 61.832 22.7765L49.8994 34.3913V29.3859L59.3302 20.2065C60.0393 19.5164 61.1769 19.532 61.8666 20.2406C62.2004 20.5838 62.3812 21.0365 62.3744 21.5156Z"/></g><path fill="#5E636B" d="M70.3585 42.4148V52.0049H67.8811V44.8123H60.6885V42.4148H70.3585Z"/><path fill="#5E636B" d="M70.3585 73.5826V83.3326H60.6885V80.7752H67.8811V73.5826H70.3585Z"/><path fill="#5E636B" d="M31.9179 44.8123H39.1105V42.4148H29.4404V52.0049H31.9179V44.8123Z"/><path fill="#5E636B" d="M31.9179 73.5826H29.4404V83.3326H39.1105V80.7752H31.9179V73.5826Z"/><path fill="#5E636B" d="M46.3031 49.6073V47.2098H34.3154V59.1974H46.3031V52.0049H48.7006V49.6073H46.3031ZM41.508 54.4024H39.1105V52.0049H41.508V54.4024Z"/><path fill="#7C8388" d="M60.6878 66.39V63.9925H58.2902V66.39H51.0977V68.7875H53.4952V71.1851H51.0977V73.5826H53.4952V78.3776H65.4828V66.39H60.6878ZM60.6878 73.5826H58.2902V71.1851H60.6878V73.5826Z"/><path fill="#5E636B" d="M51.0981 75.9801V78.3777H39.1105V75.9801H36.713V73.5826H39.1105V68.7875H36.713C36.713 68.7804 36.713 68.7772 36.713 68.7772V66.39H39.1105V63.9925H34.3154V61.595H46.3031V63.9925H41.508V71.1851H43.9055V73.5826H41.508V75.9801H46.3031V73.5826H48.7006V75.9801H51.0981Z"/><path fill="#7C8388" d="M53.4961 47.2098V59.1974H58.2911V61.595H60.6887V59.1974H65.4837V47.2098H53.4961ZM60.6887 54.4024H58.2911V52.0049H60.6887V54.4024Z"/><path fill="#7C8388" d="M65.4835 61.595V63.9925C65.4835 63.9925 60.9523 63.9925 60.6885 63.9925V61.595H65.4835Z"/><path fill="#5E636B" d="M48.7002 68.7875H51.0977V71.1851H48.7002V68.7875Z"/><path fill="#5E636B" d="M43.9053 68.7875V71.1851H46.3028V66.39H43.9053V68.7875Z"/><path fill="#5E636B" d="M46.3027 63.9925H48.7003V66.39H46.3027V63.9925Z"/><path fill="#5E636B" d="M36.713 68.7875H34.3154C34.3154 69.0538 34.3154 73.842 34.3154 73.5826H36.713C36.713 73.3163 36.713 68.5281 36.713 68.7875Z"/><path fill="#5E636B" d="M34.3154 75.9801H36.713V78.3776H34.3154V75.9801Z"/><path fill="#5E636B" d="M48.7002 47.2098H51.0977V49.6073H48.7002V47.2098Z"/><path fill="#5E636B" d="M51.0977 52.0049V56.7999H48.7002C48.7002 56.7999 48.7002 52.2686 48.7002 52.0049H51.0977Z"/><path fill="#5E636B" d="M58.2903 61.595V63.9925H48.7002V59.1974H51.0977V61.595H58.2903Z"/><path fill="#7C8388" d="M49.8994 47.2098H51.0982V49.6073H49.8994V47.2098Z"/><path fill="#7C8388" d="M51.0982 56.7999H49.8994V52.0049H51.0982V56.7999Z"/><path fill="#7C8388" d="M49.8994 75.9801H51.0982V78.3777H49.8994V75.9801Z"/><path fill="#7C8388" d="M49.8994 68.7875H51.0982V71.1851H49.8994V68.7875Z"/><path fill="#7C8388" d="M58.2908 61.595V63.9925H49.8994V59.1974H51.0982V61.595H58.2908Z"/><path fill="#7C8388" d="M53.4961 47.2098V59.1974H58.2911V61.595H60.6887V59.1974H65.4837V47.2098H53.4961ZM60.6887 54.4024H58.2911V52.0049H60.6887V54.4024Z"/><path fill="#7C8388" d="M60.6885 63.9925V61.595H65.4835V63.9925C65.4835 63.9925 60.9523 63.9925 60.6885 63.9925Z"/><path fill="#7C8388" d="M60.6878 66.39V63.9925H58.2902V66.39H51.0977V68.7875H53.4952V71.1851H51.0977V73.5826H53.4952V78.3776H65.4828V66.39H60.6878ZM60.6878 73.5826H58.2902V71.1851H60.6878V73.5826Z"/><defs><linearGradient id="paint0_linear" x1="0" x2="0" y1="0" y2="99.799" gradientUnits="userSpaceOnUse"><stop stop-color="#E0E8FF" stop-opacity=".01"/><stop offset="1" stop-color="#BDCBFF" stop-opacity=".4"/></linearGradient><linearGradient id="paint1_linear" x1="-4.663" x2="-49.571" y1="-7.135" y2="191.855" gradientUnits="userSpaceOnUse"><stop stop-color="#fff" stop-opacity=".597"/><stop offset="1" stop-opacity=".5"/></linearGradient><linearGradient id="paint2_linear" x1="49.9" x2="49.9" y1="19.699" y2="37.377" gradientUnits="userSpaceOnUse"><stop stop-color="#3561FF"/><stop offset="1" stop-color="#446DFF"/></linearGradient><clipPath id="clip0"><rect width="24.95" height="24.95" fill="#fff" transform="translate(37.4248 12.9739)"/></clipPath></defs></svg>