<svg xmlns="http://www.w3.org/2000/svg" width="52" height="52" fill="none" viewBox="0 0 52 52"><path fill="#010000" fill-rule="evenodd" d="M51.9019 44.6777C51.9019 48.7051 48.6068 52.0005 44.5794 52.0005H7.32284C3.29541 52.0005 0 48.7051 0 44.6777V7.42184C0 3.39404 3.29541 0.0986328 7.32284 0.0986328H44.5794C48.6068 0.0986328 51.9019 3.39404 51.9019 7.42184V44.6777Z" clip-rule="evenodd"/><path fill="#FFFFFE" fill-rule="evenodd" d="M8.01224 37.8872H9.30236C11.7702 37.8872 13.3781 36.5597 13.3781 33.3628C13.3781 30.7079 11.7702 29.3244 9.13391 29.3244H8.01224V37.8872ZM5.76855 39.7383V27.4736H9.28368C13.4342 27.4736 15.7339 29.5489 15.7339 33.2504C15.7339 37.6817 13.2287 39.7383 9.20861 39.7383H5.76855Z" clip-rule="evenodd"/><path fill="#FFFFFE" fill-rule="evenodd" d="M19.828 39.7379H17.7154V30.5394L19.828 30.4457V39.7379ZM18.762 26.6504C19.5662 26.6504 20.0148 27.1554 20.0148 27.8654C20.0148 28.5198 19.5662 29.0622 18.762 29.0622C17.9582 29.0622 17.5283 28.5762 17.5283 27.8654C17.5283 27.2114 17.9582 26.6504 18.762 26.6504Z" clip-rule="evenodd"/><path fill="#FFFFFE" fill-rule="evenodd" d="M27.2876 33.6056C27.2876 32.4839 26.6702 31.8856 25.4925 31.8856C24.4456 31.8856 23.6978 32.4839 23.6978 33.7363C23.6978 34.9331 24.3709 35.4377 25.4552 35.4377C26.6145 35.4377 27.2876 34.8957 27.2876 33.6056ZM25.3431 41.8322C27.362 41.8322 28.0914 41.3272 28.0914 40.5981C28.0914 40.0558 27.7549 39.7566 26.8383 39.7379L23.7729 39.6446C23.4173 39.8873 23.2679 40.1869 23.2679 40.6168C23.2679 41.3459 23.9036 41.8322 25.3431 41.8322ZM24.9505 37.9432H27.1569C29.1387 37.9432 29.9799 38.7283 29.9799 40.2239C29.9799 41.9816 28.5213 43.4025 25.156 43.4025C22.5201 43.4025 21.3047 42.4676 21.3047 41.028C21.3047 40.1492 21.7906 39.4201 22.7069 39.0275V38.9711C22.2769 38.747 21.9778 38.2797 21.9778 37.7374C21.9778 37.1577 22.333 36.6157 23.006 36.3539V36.2979C22.1645 35.8302 21.6786 35.0451 21.6786 33.8484C21.6786 31.6051 23.1928 30.3896 25.5302 30.3896C26.0349 30.3896 26.4838 30.4457 26.9507 30.5768H29.9425V31.9789H28.5213V32.035C28.9143 32.3342 29.2508 32.9699 29.2508 33.7737C29.2508 35.8116 27.8669 36.8776 25.3244 36.8776C24.9132 36.8776 24.5203 36.8212 24.1651 36.7278C23.9223 36.8589 23.7729 37.083 23.7729 37.3071C23.7729 37.7187 24.0904 37.9432 24.9505 37.9432Z" clip-rule="evenodd"/><path fill="#D66E2C" fill-rule="evenodd" d="M33.4947 39.7379H31.3821V30.5394L33.4947 30.4457V39.7379ZM32.429 26.6504C33.2332 26.6504 33.6814 27.1554 33.6814 27.8654C33.6814 28.5198 33.2332 29.0622 32.429 29.0622C31.6252 29.0622 31.1953 28.5762 31.1953 27.8654C31.1953 27.2114 31.6252 26.6504 32.429 26.6504Z" clip-rule="evenodd"/><path fill="#D66E2C" fill-rule="evenodd" d="M38.4121 37.8872H39.7023C42.1701 37.8872 43.7777 36.5597 43.7777 33.3628C43.7777 30.7079 42.1701 29.3244 39.5338 29.3244H38.4121V37.8872ZM36.1685 39.7383V27.4736H39.6832C43.8344 27.4736 46.1338 29.5489 46.1338 33.2504C46.1338 37.6817 43.6283 39.7383 39.6089 39.7383H36.1685Z" clip-rule="evenodd"/></svg>