<svg width="133" height="44" fill="none" xmlns="http://www.w3.org/2000/svg"><path d="M122.158 0H10.576c-.407 0-.809 0-1.215.002-.34.003-.676.009-1.019.014-.745.009-1.488.074-2.223.195A7.436 7.436 0 004.011.9a7.138 7.138 0 00-1.795 1.296c-.53.52-.971 1.123-1.307 1.783a7.22 7.22 0 00-.693 2.094c-.124.728-.19 1.464-.2 2.202-.01.337-.01.676-.016 1.013v25.426c.005.341.007.672.017 1.014.009.738.075 1.474.199 2.202.122.729.355 1.435.693 2.095A6.831 6.831 0 002.216 41.8c.524.525 1.13.963 1.795 1.297a7.475 7.475 0 002.108.694c.735.12 1.478.184 2.223.194.343.008.68.012 1.02.012.405.002.807.002 1.213.002h111.583c.398 0 .804 0 1.202-.002.338 0 .685-.004 1.023-.012.743-.009 1.485-.074 2.218-.194a7.597 7.597 0 002.117-.694 6.952 6.952 0 001.793-1.297c.528-.52.971-1.12 1.311-1.776.335-.66.566-1.365.687-2.094a14.78 14.78 0 00.205-2.202c.005-.342.005-.673.005-1.014.008-.4.008-.798.008-1.204V10.49c0-.403 0-.803-.008-1.201 0-.337 0-.676-.005-1.013a14.781 14.781 0 00-.205-2.202 7.27 7.27 0 00-.687-2.094A7.144 7.144 0 00128.718.9a7.555 7.555 0 00-2.117-.69 14.582 14.582 0 00-2.218-.194c-.338-.005-.685-.012-1.023-.014C122.962 0 122.556 0 122.158 0z" fill="#000"/><path d="M9.167 43.264c-.339 0-.67-.004-1.006-.012a14.121 14.121 0 01-2.08-.18 6.555 6.555 0 01-1.845-.61 6.018 6.018 0 01-1.555-1.13 5.918 5.918 0 01-1.135-1.553 6.358 6.358 0 01-.605-1.843 13.79 13.79 0 01-.185-2.085C.749 35.617.74 34.836.74 34.836V9.15s.01-.769.016-.995c.008-.697.07-1.393.184-2.081.106-.644.31-1.267.605-1.849a6.194 6.194 0 012.69-2.691c.58-.292 1.2-.496 1.841-.605.69-.112 1.388-.173 2.088-.182L9.168.733h114.389l1.016.014c.693.009 1.385.07 2.069.181.647.11 1.273.315 1.86.61a6.224 6.224 0 012.688 2.69c.29.578.491 1.196.595 1.834.116.694.181 1.395.194 2.098.003.315.003.653.003.99.009.417.009.814.009 1.214v23.271c0 .404 0 .798-.009 1.196 0 .361 0 .692-.004 1.033-.013.691-.077 1.38-.19 2.061a6.367 6.367 0 01-.602 1.857 6.072 6.072 0 01-1.13 1.54c-.455.461-.981.845-1.558 1.138a6.522 6.522 0 01-1.856.611c-.688.113-1.384.173-2.081.181-.326.008-.667.012-.999.012l-1.206.003-113.189-.003z" fill="#fff"/><path d="M27.725 21.878a5.651 5.651 0 012.718-4.75 5.856 5.856 0 00-4.603-2.467c-1.937-.202-3.814 1.15-4.802 1.15-1.006 0-2.525-1.13-4.162-1.097a6.138 6.138 0 00-5.159 3.12c-2.23 3.83-.567 9.46 1.57 12.556 1.07 1.516 2.319 3.21 3.954 3.15 1.6-.066 2.197-1.012 4.128-1.012 1.913 0 2.474 1.011 4.142.973 1.717-.027 2.799-1.523 3.83-3.053a12.497 12.497 0 001.752-3.538 5.47 5.47 0 01-3.368-5.032zM24.575 12.624a5.543 5.543 0 001.285-3.992 5.734 5.734 0 00-3.7 1.898 5.276 5.276 0 00-1.319 3.845 4.743 4.743 0 003.734-1.75z" fill="#000"/><path fill-rule="evenodd" clip-rule="evenodd" d="M41.67 29.854h5.25l1.26 3.692h2.261l-4.973-13.66h-2.31l-4.973 13.66h2.224l1.26-3.692zm4.705-1.704h-4.162l2.053-5.992h.057l2.052 5.992zM56.99 33.65c2.52 0 4.19-1.988 4.19-5.083 0-3.087-1.68-5.085-4.228-5.085a3.569 3.569 0 00-3.197 1.761h-.038v-1.656H51.72V36.84h2.062v-4.933h.047a3.41 3.41 0 003.16 1.743zm-.582-8.425c1.603 0 2.654 1.325 2.654 3.342 0 2.034-1.05 3.35-2.654 3.35-1.575 0-2.634-1.344-2.634-3.35 0-1.989 1.06-3.342 2.634-3.342zM68.043 33.65c2.52 0 4.191-1.988 4.191-5.083 0-3.087-1.68-5.085-4.23-5.085a3.569 3.569 0 00-3.197 1.761h-.038v-1.656h-1.995V36.84h2.061v-4.933h.048a3.41 3.41 0 003.16 1.743zm-.582-8.425c1.603 0 2.654 1.325 2.654 3.342 0 2.034-1.05 3.35-2.654 3.35-1.575 0-2.634-1.344-2.634-3.35 0-1.989 1.06-3.342 2.634-3.342z" fill="#000"/><path d="M79.538 29.74c.153 1.354 1.48 2.244 3.293 2.244 1.737 0 2.987-.89 2.987-2.111 0-1.06-.754-1.695-2.539-2.13l-1.785-.427c-2.53-.606-3.703-1.779-3.703-3.682 0-2.357 2.07-3.976 5.01-3.976 2.912 0 4.907 1.619 4.974 3.976h-2.08c-.125-1.363-1.261-2.186-2.922-2.186-1.66 0-2.796.832-2.796 2.044 0 .966.725 1.534 2.5 1.969l1.518.37c2.826.662 4 1.788 4 3.786 0 2.556-2.052 4.156-5.317 4.156-3.055 0-5.117-1.563-5.25-4.033h2.11zM92.445 21.23v2.357h1.91v1.619h-1.91v5.49c0 .853.382 1.25 1.222 1.25.227-.004.453-.02.678-.047v1.61c-.378.069-.761.1-1.145.094-2.033 0-2.826-.758-2.826-2.69v-5.707h-1.46v-1.62h1.46V21.23h2.071z" fill="#000"/><path fill-rule="evenodd" clip-rule="evenodd" d="M100.222 23.464c-2.902 0-4.763 1.97-4.763 5.103 0 3.142 1.843 5.102 4.763 5.102 2.921 0 4.764-1.96 4.764-5.102 0-3.134-1.853-5.103-4.764-5.103zm0 1.684c1.67 0 2.663 1.27 2.663 3.419 0 2.158-.993 3.417-2.663 3.417s-2.664-1.26-2.664-3.417c0-2.14.994-3.419 2.664-3.419z" fill="#000"/><path d="M106.685 23.587h1.966v1.695h.048a2.392 2.392 0 012.415-1.8c.238 0 .475.025.707.077v1.912c-.3-.091-.613-.133-.926-.124a2.087 2.087 0 00-1.606.656 2.047 2.047 0 00-.542 1.636v5.907h-2.062v-9.96z" fill="#000"/><path fill-rule="evenodd" clip-rule="evenodd" d="M117 33.67c2.272 0 4.047-1.242 4.324-3.05h-1.957a2.274 2.274 0 01-2.319 1.401 2.628 2.628 0 01-1.993-.806 2.58 2.58 0 01-.708-2.014v-.124h7.092v-.7c0-3.02-1.747-4.913-4.525-4.913-2.825 0-4.648 2.026-4.648 5.15 0 3.114 1.813 5.055 4.734 5.055zm2.377-6.022h-5.021a2.515 2.515 0 01.748-1.792 2.553 2.553 0 011.81-.735 2.425 2.425 0 011.788.73c.468.48.712 1.131.675 1.797zM44.29 10.504a2.94 2.94 0 00-2.334-.9h-2.391v6.564h2.39c1.972 0 3.115-1.206 3.115-3.303a2.888 2.888 0 00-.78-2.361zm-2.45 4.735h-1.247v-4.707h1.248a2.095 2.095 0 011.649.663c.422.454.618 1.072.533 1.684a2.052 2.052 0 01-.525 1.695 2.09 2.09 0 01-1.657.665zM47.338 11.472a2.34 2.34 0 00-1.107 2.217 2.34 2.34 0 001.106 2.22 2.383 2.383 0 002.498 0 2.34 2.34 0 001.106-2.22 2.34 2.34 0 00-1.107-2.217 2.383 2.383 0 00-2.496 0zm1.25.515c.853 0 1.34.628 1.34 1.702 0 1.078-.487 1.705-1.34 1.705-.857 0-1.34-.623-1.34-1.705 0-1.074.483-1.702 1.34-1.702z" fill="#000"/><path d="M57.203 16.168h-1.022l-1.032-3.648h-.078l-1.028 3.648H53.03l-1.377-4.954h1l.895 3.78h.073l1.027-3.78h.946l1.026 3.78h.079l.89-3.78h.986l-1.372 4.954zM59.732 11.214h.95v.787h.073c.256-.58.855-.933 1.49-.882.493-.037.975.15 1.311.509.337.358.49.849.418 1.333v3.207h-.986v-2.961c0-.796-.348-1.192-1.077-1.192a1.15 1.15 0 00-.888.355c-.229.242-.34.57-.305.9v2.898h-.986v-4.954zM65.545 9.28h.986v6.888h-.986V9.28z" fill="#000"/><path fill-rule="evenodd" clip-rule="evenodd" d="M69.009 11.471A2.34 2.34 0 0067.9 13.69a2.34 2.34 0 001.106 2.22 2.383 2.383 0 002.498 0 2.341 2.341 0 001.107-2.22 2.34 2.34 0 00-1.108-2.218 2.383 2.383 0 00-2.495 0zm1.249.516c.853 0 1.34.628 1.34 1.702 0 1.078-.487 1.705-1.34 1.705-.857 0-1.339-.623-1.339-1.705 0-1.074.482-1.702 1.339-1.702zM75.507 13.288c-1.188.073-1.857.587-1.857 1.479.001.423.183.825.5 1.107.318.283.74.419 1.164.375a1.684 1.684 0 001.5-.778h.079v.697h.948v-3.385c0-1.046-.706-1.664-1.958-1.664-1.133 0-1.94.545-2.04 1.396h.954c.11-.35.49-.55 1.04-.55.674 0 1.023.295 1.023.818v.428l-1.353.077zm1.353.641v.415c-.021.315-.171.609-.415.813-.244.204-.56.301-.878.27-.536 0-.926-.26-.926-.706 0-.437.312-.669 1-.714l1.22-.078zM81.21 11.132c-1.262 0-2.073.992-2.073 2.557 0 1.569.803 2.56 2.073 2.56a1.736 1.736 0 001.569-.864h.078v.783h.944V9.28h-.986V12h-.073a1.649 1.649 0 00-1.532-.869zm.28 4.24c-.835 0-1.335-.633-1.335-1.683 0-1.042.505-1.679 1.335-1.679.825 0 1.344.65 1.344 1.683 0 1.037-.514 1.678-1.344 1.678zM88.365 9.138a.633.633 0 00-.367.612.6.6 0 00.191.432.61.61 0 00.447.163.639.639 0 00.594-.4.63.63 0 00-.156-.694.643.643 0 00-.709-.113zm.762 2.076h-.982v4.954h.982v-4.954z" fill="#000"/><path d="M90.717 11.214h.949v.787h.074c.256-.58.854-.933 1.49-.882.492-.037.975.15 1.311.509.336.358.49.849.418 1.333v3.207h-.986v-2.961c0-.796-.349-1.192-1.078-1.192a1.15 1.15 0 00-.887.355c-.23.242-.34.57-.305.9v2.898h-.986v-4.954z" fill="#000"/><path fill-rule="evenodd" clip-rule="evenodd" d="M101.019 11.132c-1.262 0-2.073.992-2.073 2.557 0 1.569.803 2.56 2.073 2.56a1.737 1.737 0 001.569-.864h.078v.783h.944V9.28h-.986V12h-.073a1.65 1.65 0 00-1.532-.869zm.28 4.24c-.835 0-1.335-.633-1.335-1.683 0-1.042.505-1.679 1.335-1.679.825 0 1.344.65 1.344 1.683 0 1.037-.514 1.678-1.344 1.678zM107.286 16.263a2.028 2.028 0 002.165-1.433h-.949a1.2 1.2 0 01-1.188.6 1.326 1.326 0 01-.982-.417 1.305 1.305 0 01-.349-1.001v-.055h3.527v-.341c0-1.556-.838-2.497-2.228-2.497a2.312 2.312 0 00-1.747.773 2.277 2.277 0 00-.556 1.815 2.239 2.239 0 00.557 1.807 2.276 2.276 0 001.75.75zm1.22-3.03h-2.523c-.004-.34.131-.67.374-.911.244-.242.575-.376.92-.371a1.21 1.21 0 01.901.371c.234.245.353.576.328.912z" fill="#000"/></svg>