<svg width="51" height="50" fill="none" xmlns="http://www.w3.org/2000/svg"><path d="M34.012 14.718h-.626v-.531a1.967 1.967 0 0 0-1.964-1.965H29.86a1.967 1.967 0 0 0-1.965 1.965v2.028h6.116c.48 0 .872.392.872.872v9.96a.749.749 0 0 0 1.497 0v-9.96a2.372 2.372 0 0 0-2.37-2.369Z" fill="#8FA2A5"/><path d="M25.1 12.222h-9.732a.749.749 0 0 0-.749.749v9.733c0 .413.336.749.749.749H25.1a.749.749 0 0 0 .749-.749v-9.733a.749.749 0 0 0-.75-.749Z" fill="#607D8B"/><path d="m22.636 17.101-2.401 2.402c-.168.193-.403.36-.66.349a.747.747 0 0 1-.53-.22l-1.212-1.212a.75.75 0 0 1 1.06-1.059l.682.683 2.002-2.001a.749.749 0 0 1 1.059 1.058Z" fill="#fff"/><path d="M25.1 26.547h-9.732a.749.749 0 0 0-.749.75v9.732c0 .413.336.749.749.749H25.1a.749.749 0 0 0 .749-.749v-9.733a.749.749 0 0 0-.75-.749ZM27.896 17.713h5.49v12.933h-5.49V17.713Z" fill="#8FA2A5"/><path d="M27.896 32.737a2.757 2.757 0 0 0 1.996 2.641v1.651a.749.749 0 0 0 1.498 0v-1.65a2.757 2.757 0 0 0 1.996-2.642v-.593h-5.49v.593Z" fill="#607D8B"/></svg>