<svg xmlns="http://www.w3.org/2000/svg" id="Without_Image" width="100" height="100" data-name="Without Image" viewBox="0 0 100 100"><metadata><?xpacket begin="﻿" id="W5M0MpCehiHzreSzNTczkc9d"?><x:xmpmeta xmlns:x="adobe:ns:meta/" x:xmptk="Adobe XMP Core 5.6-c142 79.160924, 2017/07/13-01:06:39"><rdf:RDF xmlns:rdf="http://www.w3.org/1999/02/22-rdf-syntax-ns#"><rdf:Description/></rdf:RDF></x:xmpmeta><?xpacket end="w"?></metadata><defs><style>.cls-1{fill:#9ca6af;fill-rule:evenodd}</style></defs><path id="Icon" d="M35.079,59.484v2.355l30.841,0s0-.2,0-0.577l-5.97-5.091a0.365,0.365,0,0,0-.362.006l-3.056,2.681a3.269,3.269,0,0,1-4.352-.072L45.2,52.23a0.432,0.432,0,0,0-.418-0.026Zm0-3.915,7.875-5.911a3.431,3.431,0,0,1,4.327.245l6.985,6.554a0.26,0.26,0,0,0,.26,0l3.056-2.681a3.369,3.369,0,0,1,4.344-.034l4,3.41c0-6.9,0-18.989,0-18.989l-30.841,0S35.08,48.555,35.08,55.569ZM31.995,38.157A3.123,3.123,0,0,1,35.087,35H65.92a3.121,3.121,0,0,1,3.093,3.154V61.846A3.123,3.123,0,0,1,65.92,65H35.087a3.12,3.12,0,0,1-3.092-3.153V38.157ZM59.758,49.212a4.737,4.737,0,1,1,4.627-4.736A4.683,4.683,0,0,1,59.758,49.212Zm0-3.158a1.579,1.579,0,1,0-1.542-1.579A1.561,1.561,0,0,0,59.758,46.055Z" class="cls-1"/></svg>