<svg width="72" height="72" viewBox="0 0 72 72" fill="none" xmlns="http://www.w3.org/2000/svg">
<rect width="72" height="72" rx="36" fill="#E6ECFF"/>
<path d="M23 36C23 39.4478 24.3696 42.7544 26.8076 45.1924C29.2456 47.6304 32.5522 49 36 49C39.4478 49 42.7544 47.6304 45.1924 45.1924C47.6304 42.7544 49 39.4478 49 36C49 32.5522 47.6304 29.2456 45.1924 26.8076C42.7544 24.3696 39.4478 23 36 23C32.5522 23 29.2456 24.3696 26.8076 26.8076C24.3696 29.2456 23 32.5522 23 36Z" fill="#305DFC"/>
<path d="M29.0667 37.4143L31.8978 41.4322C32.0052 41.5926 32.1493 41.725 32.3182 41.8185C32.4871 41.9119 32.6759 41.9637 32.8689 41.9695C33.0618 41.9752 33.2533 41.9348 33.4275 41.8516C33.6017 41.7684 33.7535 41.6448 33.8703 41.4911L42.9333 30.0245" stroke="white" stroke-width="2" stroke-linecap="round" stroke-linejoin="round"/>
</svg>
