<svg width="148" height="149" fill="none" xmlns="http://www.w3.org/2000/svg"><path fill-rule="evenodd" clip-rule="evenodd" d="M148 74.13c0 40.94-33.13 74.129-74 74.129S0 115.07 0 74.129C0 33.19 33.13 0 74 0s74 33.188 74 74.13z" fill="url(#prefix__paint0_linear)"/><path fill-rule="evenodd" clip-rule="evenodd" d="M105.613 0H43.308C35.749 0 29.6 6.16 29.6 13.732v119.347c12.447 9.521 27.995 15.18 44.865 15.18 16.866 0 32.411-5.657 44.856-15.174V13.732C119.321 6.16 113.172 0 105.613 0z" fill="#C0C5D4"/><path fill-rule="evenodd" clip-rule="evenodd" d="M44.486 13.732C44.486 6.16 50.636 0 58.193 0h-15.35c-7.558 0-13.708 6.16-13.708 13.732v119.347a74 74 0 0015.351 9.044V13.732z" fill="#9E9FAA"/><path fill-rule="evenodd" clip-rule="evenodd" d="M74.079 148.557c13.575 0 26.295-3.659 37.239-10.041V13.745a6.03 6.03 0 00-6.024-6.034h-12.64c-1.297 0-2.44.861-2.798 2.11l-1.21 4.222a2.59 2.59 0 01-2.49 1.88h-24.16a2.592 2.592 0 01-2.491-1.88L58.31 9.875A2.985 2.985 0 0055.44 7.71H42.856a6.028 6.028 0 00-6.023 6.034v124.768c10.945 6.382 23.667 10.044 37.246 10.044z" fill="#EFF2F9"/><path fill-rule="evenodd" clip-rule="evenodd" d="M74.079 148.557c13.575 0 26.295-3.659 37.239-10.041V13.745a6.03 6.03 0 00-6.024-6.034h-12.64c-1.297 0-2.44.861-2.798 2.11l-1.21 4.222a2.59 2.59 0 01-2.49 1.88h-24.16a2.592 2.592 0 01-2.491-1.88L58.31 9.875A2.985 2.985 0 0055.44 7.71H42.856a6.028 6.028 0 00-6.023 6.034v124.768c10.945 6.382 23.667 10.044 37.246 10.044z" fill="url(#prefix__paint1_linear)" style="mix-blend-mode:lighten"/><path fill-rule="evenodd" clip-rule="evenodd" d="M44.486 13.732c0-2.158.502-4.202 1.392-6.021h-3.035a6.015 6.015 0 00-6.01 6.02v124.501a73.7 73.7 0 007.653 3.888V13.732z" fill="#DCDCE0"/><path fill-rule="evenodd" clip-rule="evenodd" d="M97.609 71.961c0 13.645-11.042 24.705-24.662 24.705s-24.662-11.06-24.662-24.705c0-13.643 11.042-24.703 24.662-24.703s24.662 11.06 24.662 24.703z" fill="#FCFCFE"/><path fill-rule="evenodd" clip-rule="evenodd" d="M77.662 96.22c-14.724-6.86-23.087-23.416-19.223-39.703a35.138 35.138 0 011.712-5.292c-6.66 4.423-11.054 11.997-11.054 20.601 0 13.644 11.042 24.705 24.661 24.705 1.33 0 2.633-.108 3.904-.31z" fill="#FEFEFF"/><path fill-rule="evenodd" clip-rule="evenodd" d="M77.207 10.383h-5.465a2.687 2.687 0 01-2.684-2.69 2.687 2.687 0 012.684-2.688h5.465a2.686 2.686 0 012.684 2.689 2.686 2.686 0 01-2.684 2.689z" fill="#5E636B"/><path fill-rule="evenodd" clip-rule="evenodd" d="M83.458 125.474H63.963a5.19 5.19 0 00-5.185 5.194 5.19 5.19 0 005.185 5.193h19.495a5.188 5.188 0 005.184-5.193 5.189 5.189 0 00-5.184-5.194z" fill="#fff"/><path fill-rule="evenodd" clip-rule="evenodd" d="M78.895 125.474H63.963a5.189 5.189 0 00-5.184 5.194 5.188 5.188 0 005.184 5.193h14.932a5.19 5.19 0 01-5.185-5.193 5.19 5.19 0 015.185-5.194z" fill="#9EA7B6"/><path fill-rule="evenodd" clip-rule="evenodd" d="M73.26 89.652c-11.306 0-20.798-8.527-22.026-19.785a22.544 22.544 0 00-.132 2.413c0 12.259 9.92 22.197 22.158 22.197 12.238 0 22.159-9.938 22.159-22.197a22.593 22.593 0 00-.132-2.413C94.059 81.125 84.566 89.652 73.26 89.652z" fill="#303442" fill-opacity=".223" opacity=".08"/><path fill-rule="evenodd" clip-rule="evenodd" d="M58.457 89.429a22.995 22.995 0 0015.52 6.013H74c6.508 0 12.75-2.769 17.123-7.596 8.57-9.458 7.86-24.137-1.582-32.722-4.573-4.159-10.487-6.286-16.659-5.985-6.17.299-11.853 2.987-16.005 7.569-8.57 9.458-7.86 24.137 1.58 32.721zm14.518-38.362c.351-.017.7-.026 1.05-.026 5.273 0 10.29 1.937 14.222 5.512 8.655 7.87 9.305 21.325 1.45 29.996a21.22 21.22 0 01-15.698 6.962h-.021a21.077 21.077 0 01-14.224-5.51c-8.656-7.87-9.306-21.326-1.45-29.996a21.045 21.045 0 0114.671-6.938z" fill="#E6E8EE"/><path fill-rule="evenodd" clip-rule="evenodd" d="M73.434 50.509c-11.889 0-21.513 9.646-21.513 21.533a21.482 21.482 0 006.329 15.256c.242.242.687.182.849-.12 1.84-3.31 5.054-5.914 8.977-7.165a9.579 9.579 0 01-4.246-7.971c0-5.308 4.306-9.606 9.604-9.606 5.297 0 9.603 4.298 9.603 9.606a9.552 9.552 0 01-4.246 7.971c3.923 1.271 7.137 3.855 8.977 7.164.162.303.607.363.85.121a21.434 21.434 0 006.328-15.256c0-11.887-9.644-21.533-21.512-21.533z" fill="#3561FF"/><defs><linearGradient id="prefix__paint0_linear" x1="0" y1="0" x2="0" y2="148.259" gradientUnits="userSpaceOnUse"><stop stop-color="#E0E8FF" stop-opacity=".01"/><stop offset="1" stop-color="#BDCBFF" stop-opacity=".4"/></linearGradient><linearGradient id="prefix__paint1_linear" x1="-6.914" y1="-10.599" x2="-73.734" y2="284.964" gradientUnits="userSpaceOnUse"><stop stop-color="#fff" stop-opacity=".597"/><stop offset="1" stop-opacity=".5"/></linearGradient></defs></svg>