<svg xmlns="http://www.w3.org/2000/svg" id="voucher-type-code" width="60" height="60" viewBox="0 0 60 60"><metadata><?xpacket begin="﻿" id="W5M0MpCehiHzreSzNTczkc9d"?><x:xmpmeta xmlns:x="adobe:ns:meta/" x:xmptk="Adobe XMP Core 5.6-c140 79.160451, 2017/05/06-01:08:21"><rdf:RDF xmlns:rdf="http://www.w3.org/1999/02/22-rdf-syntax-ns#"><rdf:Description/></rdf:RDF></x:xmpmeta><?xpacket end="w"?></metadata><defs><style>.cls-1,.cls-2{fill:#009ef4;fill-rule:evenodd}.cls-2{fill:#004195}</style></defs><path d="M13.456,23.944a1.433,1.433,0,0,0-1.964-.41l-1.324.872v-2a1.422,1.422,0,0,0-2.844,0v2l-1.3-.857a1.434,1.434,0,0,0-1.968.408,1.4,1.4,0,0,0,.393,1.932l1.736,1.143L4.447,28.174a1.4,1.4,0,0,0-.437,1.882l0.042,0.065,0.015,0.021a1.435,1.435,0,0,0,1.958.37l1.3-.856v2a1.422,1.422,0,0,0,2.844,0v-2l1.3,0.855a1.434,1.434,0,0,0,1.976-.372,1.4,1.4,0,0,0-.38-1.955l-1.752-1.154,1.734-1.142A1.4,1.4,0,0,0,13.456,23.944Zm13.656,4.248-1.761-1.16,1.733-1.142a1.4,1.4,0,0,0,.417-1.944,1.435,1.435,0,0,0-1.972-.41l-1.32.87v-2a1.422,1.422,0,0,0-2.844,0v2l-1.3-.855a1.433,1.433,0,0,0-1.976.367,1.394,1.394,0,0,0,.364,1.949l0.023,0.016,1.745,1.149-1.735,1.143a1.4,1.4,0,0,0-.437,1.882l0.041,0.065,0.015,0.021a1.435,1.435,0,0,0,1.958.37l1.3-.856v2a1.422,1.422,0,0,0,2.844,0v-2l1.3,0.855a1.435,1.435,0,0,0,1.977-.367A1.395,1.395,0,0,0,27.112,28.191Zm14.041,0-1.761-1.16,1.733-1.142a1.4,1.4,0,0,0,.418-1.944,1.434,1.434,0,0,0-1.967-.413l-1.325.873v-2a1.422,1.422,0,0,0-2.844,0v2l-1.3-.854a1.436,1.436,0,0,0-1.977.367,1.4,1.4,0,0,0,.372,1.953l1.761,1.16-1.735,1.143a1.394,1.394,0,0,0-.437,1.883L32.117,30.1l0.016,0.024,0.037,0.055,0,0a1.435,1.435,0,0,0,1.932.334l1.3-.856v2a1.422,1.422,0,0,0,2.844,0v-2l1.3,0.854a1.432,1.432,0,0,0,1.976-.366A1.4,1.4,0,0,0,41.153,28.191Zm4.812,0.876a1.382,1.382,0,0,0,.21,1.055l0.016,0.023a1.435,1.435,0,0,0,1.957.368l1.3-.856v2a1.422,1.422,0,0,0,2.844,0v-2l1.3,0.855a1.434,1.434,0,0,0,1.976-.372,1.4,1.4,0,0,0-.378-1.954l-1.754-1.155,1.734-1.142a1.4,1.4,0,0,0,.412-1.945,1.434,1.434,0,0,0-1.97-.406l-1.317.868v-2a1.422,1.422,0,0,0-2.844,0v2l-1.3-.857a1.434,1.434,0,0,0-1.968.408,1.4,1.4,0,0,0,.393,1.932l1.735,1.144L46.57,28.174A1.4,1.4,0,0,0,45.964,29.067Z" class="cls-1" transform="translate(0.188 -0.5)"/><path id="Shape_1590_copy" d="M12.256,37.189H5.236a1.406,1.406,0,1,0,0,2.811h7.02A1.405,1.405,0,1,0,12.256,37.189Zm14.041,0h-7.02a1.405,1.405,0,1,0,0,2.811H26.3A1.406,1.406,0,1,0,26.3,37.189Zm14.041,0h-7.02a1.405,1.405,0,1,0,0,2.811h7.02A1.406,1.406,0,1,0,40.339,37.189Zm14.042,0H47.359a1.405,1.405,0,1,0,0,2.811H54.38A1.405,1.405,0,1,0,54.38,37.189Z" class="cls-2" data-name="Shape 1590 copy" transform="translate(0.188 -0.5)"/></svg>