<svg xmlns="http://www.w3.org/2000/svg" id="voucher-type-giftcard" width="60" height="60" viewBox="0 0 60 60"><metadata><?xpacket begin="﻿" id="W5M0MpCehiHzreSzNTczkc9d"?><x:xmpmeta xmlns:x="adobe:ns:meta/" x:xmptk="Adobe XMP Core 5.6-c140 79.160451, 2017/05/06-01:08:21"><rdf:RDF xmlns:rdf="http://www.w3.org/1999/02/22-rdf-syntax-ns#"><rdf:Description/></rdf:RDF></x:xmpmeta><?xpacket end="w"?></metadata><defs><style>.cls-1,.cls-2{fill:#004195;fill-rule:evenodd}.cls-2{fill:#009ef4}</style></defs><path d="M45.469,13.031a7.032,7.032,0,0,0-14.063,0V17.25H22.968V29.915l1.287,1.491h0.237l4.928-5.715a8.561,8.561,0,0,1,12.315-.1,8.4,8.4,0,0,1,2.328,5.819h1.406v11.25H42.657V54H54V17.25H45.469V13.031ZM42.657,17.25H34.219V13.031a4.219,4.219,0,0,1,8.438,0V17.25ZM30.994,45.881L29.006,47.87l-4.631-4.631L19.744,47.87l-1.989-1.989,3.225-3.225H8.812V54H39.844V42.657H27.77Z" class="cls-1"/><path id="Shape_1733_copy" d="M22.968,34.219L17.2,27.528a5.785,5.785,0,0,0-4.167-1.747,5.631,5.631,0,0,0-5.625,5.625,5.561,5.561,0,0,0,.782,2.813H6v5.625H22.968V34.219Zm-9.938,0a2.813,2.813,0,1,1,0-5.625,3,3,0,0,1,2.132.873l4.157,4.752H13.031ZM39.7,27.528a5.759,5.759,0,0,0-8.149,0l-5.769,6.691v5.625H42.657V34.219H40.468A5.553,5.553,0,0,0,39.7,27.528Zm-4.075,6.691H29.431l4.158-4.752a2.879,2.879,0,0,1,4.075,0A2.813,2.813,0,0,1,35.625,34.219Z" class="cls-2" data-name="Shape 1733 copy"/></svg>