<svg xmlns="http://www.w3.org/2000/svg" width="30" height="30" viewBox="-5.5 -5 30 30"><path fill="#134478" d="M5 20a1.667 1.667 0 100-3.333A1.667 1.667 0 005 20zM15 20a1.666 1.666 0 100-3.333A1.666 1.666 0 0015 20z"/><path fill="#2987FD" d="M16.991 3.333h-.741a.417.417 0 00-.416.417v1.667c0 .389-.178.749-.484.987a.418.418 0 00-.158.381c.049.385-.08.764-.355 1.039l-1.179 1.178a1.223 1.223 0 01-1.038.356.419.419 0 00-.383.159 1.242 1.242 0 01-.987.483H9.583c-.388 0-.748-.176-.987-.483a.417.417 0 00-.382-.158 1.229 1.229 0 01-1.038-.357L5.998 7.824a1.24 1.24 0 01-.357-1.039.413.413 0 00-.158-.381A1.245 1.245 0 015 5.417V3.75a.417.417 0 00-.417-.417h-.9l-.339-1.082a.833.833 0 00-.796-.584H.417A.417.417 0 000 2.083v.833c0 .23.187.417.417.417h1.52l2.634 8.419-1.237 1.236c-.479.479-.62 1.191-.361 1.816s.863 1.028 1.54 1.028H16.25c.23 0 .416-.187.416-.417v-.833a.417.417 0 00-.416-.417H4.512L6.178 12.5h7.612c.643 0 1.235-.375 1.508-.957l2.909-6.179c.082-.178.127-.375.127-.571v-.118c0-.74-.604-1.342-1.343-1.342z"/><path fill="#134478" d="M6.149 5.821l.798.2-.423.705a.417.417 0 00.063.509l1.178 1.178c.136.136.347.16.509.063l.705-.423.199.799a.416.416 0 00.404.315h1.667c.191 0 .357-.13.404-.315l.199-.799.705.423a.418.418 0 00.51-.063l1.178-1.178a.417.417 0 00.063-.509l-.423-.706.798-.2A.416.416 0 0015 5.417V3.75a.418.418 0 00-.316-.404l-.798-.2.423-.706a.416.416 0 00-.063-.509L13.068.752a.42.42 0 00-.51-.063l-.705.423-.199-.798A.417.417 0 0011.25 0H9.583a.416.416 0 00-.404.315l-.2.798L8.274.69a.42.42 0 00-.509.063L6.586 1.932a.416.416 0 00-.062.508l.423.706-.798.2a.417.417 0 00-.316.404v1.667c0 .191.13.357.316.404zM10.416 2.5c1.149 0 2.084.935 2.084 2.083a2.086 2.086 0 01-2.084 2.083 2.085 2.085 0 01-2.083-2.083c0-1.148.934-2.083 2.083-2.083z"/></svg>