<?xml version="1.0" encoding="utf-8"?>
<!DOCTYPE svg PUBLIC "-//W3C//DTD SVG 1.1//EN" "http://www.w3.org/Graphics/SVG/1.1/DTD/svg11.dtd">
<svg version="1.1" id="Layer_1" xmlns="http://www.w3.org/2000/svg" xmlns:xlink="http://www.w3.org/1999/xlink" x="0px" y="0px"
	 width="30px" height="30px" viewBox="-5 -5 30 30" enable-background="new -5 -5 30 30" xml:space="preserve">
<path fill="#2987FD" d="M9.983,16.458c1.274,0,2.519-0.378,3.578-1.085c1.059-0.708,1.885-1.714,2.372-2.891
	s0.614-2.472,0.366-3.721s-0.861-2.396-1.762-3.297s-2.049-1.514-3.298-1.763S8.695,3.581,7.519,4.068S5.336,5.381,4.628,6.44
	c-0.708,1.059-1.085,2.304-1.085,3.578c0.002,1.707,0.682,3.343,1.889,4.55C6.639,15.776,8.276,16.455,9.983,16.458z M9.268,7.872
	c0-0.19,0.075-0.372,0.209-0.506c0.134-0.134,0.316-0.209,0.506-0.209s0.372,0.076,0.506,0.209c0.134,0.134,0.21,0.316,0.21,0.506
	v1.846l1.309,1.31c0.134,0.135,0.209,0.316,0.209,0.507c-0.001,0.19-0.076,0.372-0.211,0.507s-0.316,0.21-0.506,0.211
	c-0.191,0-0.373-0.075-0.508-0.209l-1.517-1.517c-0.131-0.137-0.206-0.319-0.208-0.508V7.872z"/>
<path fill="#004195" d="M9.982,0C9.792,0,9.61,0.075,9.477,0.209c-0.134,0.134-0.21,0.316-0.21,0.506
	c0,0.189,0.076,0.372,0.21,0.506C9.61,1.355,9.792,1.431,9.982,1.431c2.003-0.008,3.947,0.681,5.496,1.95
	c1.551,1.269,2.611,3.038,2.998,5.003c0.389,1.965,0.08,4.005-0.872,5.767c-0.952,1.763-2.487,3.139-4.344,3.893
	c-1.856,0.753-3.917,0.837-5.827,0.236c-1.911-0.601-3.554-1.848-4.645-3.527c-1.092-1.68-1.564-3.687-1.337-5.677
	c0.228-1.99,1.141-3.839,2.583-5.229l-0.048,0.37C3.961,4.404,4.012,4.594,4.127,4.745c0.116,0.151,0.286,0.249,0.475,0.274
	C4.79,5.043,4.98,4.992,5.131,4.876C5.282,4.761,5.38,4.59,5.405,4.402l0.278-2.128C5.7,2.086,5.646,1.9,5.532,1.751
	c-0.114-0.149-0.281-0.249-0.466-0.28L2.938,1.193C2.843,1.178,2.747,1.182,2.654,1.205s-0.18,0.064-0.257,0.122
	S2.256,1.456,2.208,1.538s-0.08,0.174-0.092,0.269C2.104,1.902,2.11,1.998,2.136,2.09s0.069,0.178,0.128,0.253
	c0.06,0.075,0.133,0.137,0.217,0.183c0.083,0.046,0.176,0.075,0.271,0.084L3.198,2.67C1.49,4.255,0.389,6.387,0.085,8.697
	c-0.304,2.311,0.209,4.654,1.45,6.627s3.131,3.45,5.346,4.177c2.214,0.728,4.612,0.657,6.781-0.195
	c2.168-0.854,3.971-2.438,5.096-4.479c1.125-2.04,1.502-4.41,1.065-6.699s-1.658-4.354-3.455-5.838
	C14.571,0.806,12.313-0.004,9.982,0z"/>
</svg>
