<?xml version="1.0" encoding="utf-8"?>
<!DOCTYPE svg PUBLIC "-//W3C//DTD SVG 1.1//EN" "http://www.w3.org/Graphics/SVG/1.1/DTD/svg11.dtd">
<svg version="1.1" id="Layer_1" xmlns="http://www.w3.org/2000/svg" xmlns:xlink="http://www.w3.org/1999/xlink" x="0px" y="0px"
	 width="30px" height="30px" viewBox="-5.5 -2.5 30 30" enable-background="new -5.5 -2.5 30 30" xml:space="preserve">
<path fill="#134478" d="M10,0C8.3,0,7,1.3,7,3c0,1.4,0.9,2.6,2.3,2.9v0.9h1.4V5.9C12.1,5.6,13,4.4,13,3C13,1.3,11.7,0,10,0z
	 M9.3,3.7v1.4C8.6,4.9,8.1,4.4,7.9,3.7C7.5,2.5,8.1,1.2,9.3,0.8c1.2-0.4,2.5,0.2,2.9,1.4C12.6,3.4,12,4.7,10.8,5.1V3.7H9.3z"/>
<path fill="#8CA3A6" d="M10,6c5,0.1,9,4.1,9,9.1c0,5-4.1,9-9.1,8.9c-5,0-9-4.1-8.9-9.1C1,10,5.1,6,10,6z M14.3,16.2H10.4v-5
	c0-0.5-0.4-1-0.9-1s-1,0.4-1,0.9c0,0,0,0,0,0.1v6c0,0.5,0.4,1,1,1h4.9c0.6,0,1-0.4,1-1C15.4,16.6,14.8,16.2,14.3,16.2z"/>
<path fill="#134478" d="M18,6.3L18.7,7c0.399,0.4,0.399,1,0,1.4l-0.2,0.2c-0.4,0.4-1,0.4-1.4,0L16.3,8c-0.399-0.4-0.399-1,0-1.4
	l0.2-0.2C16.9,5.9,17.6,5.9,18,6.3z"/>
<path fill="#134478" d="M2,6.3L1.3,7c-0.4,0.4-0.4,1,0,1.4l0.2,0.2c0.4,0.4,1,0.4,1.4,0L3.7,8c0.4-0.4,0.4-1,0-1.4L3.4,6.3
	C3.1,5.9,2.4,5.9,2,6.3z"/>
</svg>
