<svg width="32" height="32" fill="none" xmlns="http://www.w3.org/2000/svg"><path fill-rule="evenodd" clip-rule="evenodd" d="M11.912 7h8.925c.77 0 1.913.514 1.913 1.929V23.07c0 .776-.51 1.929-1.913 1.929h-8.925C11.144 25 10 24.486 10 23.071V8.93C10 8.153 10.51 7 11.912 7Zm8.926 16.714c.513 0 .63-.353.637-.65v-1.921h-10.2v1.928c0 .519.35.636.645.643h8.918Zm.637-3.857h-10.2V8.937c.008-.298.124-.651.638-.651h8.917c.295.007.645.125.645.643v10.928Zm-7.012 1.929a.64.64 0 0 0-.637.642.64.64 0 0 0 .637.643h3.825a.64.64 0 0 0 .638-.643.64.64 0 0 0-.638-.642h-3.825Z" fill="#646F79"/></svg>