<svg xmlns="http://www.w3.org/2000/svg" width="30" height="30" viewBox="-7.5 -5 30 30"><path fill="#8CA3A6" d="M14.9 1.3C14.7.8 14.1 0 12.3 0h-.1C11 0 9.8.3 8.6.8c-.2.1-.4.2-.7.3-.7-.7-1.9-.7-2.6 0L1.7 4.6c-.4.5-.7 1.1-.7 1.8v11.9c0 1 .8 1.7 1.7 1.7h7.8c1 0 1.7-.8 1.7-1.7V6.4c0-.3-.101-.7-.2-1 .7-.4 1.4-.9 2-1.4 1.2-1.3 1.1-2.3.9-2.7zM3.1 11.7c0-.8.7-1.5 1.5-1.5s1.5.7 1.5 1.5-.7 1.5-1.5 1.5-1.5-.7-1.5-1.5zm1.3 3.9c-.2-.1-.2-.399 0-.5l3.9-4.7c.101-.2.4-.2.5-.1.2.1.2.4 0 .5l-3.9 4.7c-.1.2-.3.2-.5.1zm4.2.1c-.8 0-1.5-.7-1.5-1.5s.7-1.5 1.5-1.5c.801 0 1.4.7 1.4 1.5s-.6 1.5-1.4 1.5zm1.6-11c-.7.3-1.4.5-2.2.6v.1c0 .8-.6 1.4-1.4 1.4s-1.4-.6-1.4-1.4C5.1 4.6 5.8 4 6.6 4c.4 0 .9.2 1.1.6L9.8 4c.2-.1.5-.3.7-.4L9.1 2.2s.101 0 .101-.1c1-.4 2-.7 3.1-.7.4-.1.9.1 1.2.4.199.4-.801 1.8-3.301 2.9z"/><path fill="#134478" d="M8.1 13.801c-.2.199-.2.599 0 .899.201.2.601.2.9 0 .2-.2.2-.601 0-.899-.3-.301-.6-.301-.9 0zM5.1 11.199c-.2-.199-.6-.199-.9 0-.2.201-.2.601 0 .901.2.2.6.2.9 0 .2-.2.2-.6 0-.901z"/></svg>