<svg width="45" height="45" viewBox="0 0 45 45" fill="none" xmlns="http://www.w3.org/2000/svg">
<path d="M30.1605 13.2461H29.5977V12.7681C29.5977 11.7933 28.8043 11 27.8295 11H26.4244C25.4496 11 24.6562 11.7933 24.6562 12.7681V14.5938H30.1605C30.5931 14.5938 30.9453 14.9459 30.9453 15.3785V24.3418C30.9453 24.7137 31.2472 25.0156 31.6191 25.0156C31.9911 25.0156 32.293 24.7137 32.293 24.3418V15.3785C32.293 14.2025 31.3366 13.2461 30.1605 13.2461Z" fill="#134478"/>
<path d="M22.1406 11H13.3809C13.0089 11 12.707 11.3019 12.707 11.6738V20.4336C12.707 20.8055 13.0089 21.1074 13.3809 21.1074H22.1406C22.5126 21.1074 22.8145 20.8055 22.8145 20.4336V11.6738C22.8145 11.3019 22.5126 11 22.1406 11Z" fill="#2987FD"/>
<path d="M19.9218 15.3911L17.7606 17.5523C17.6097 17.7266 17.3981 17.8771 17.1672 17.8663C16.9947 17.8663 16.8222 17.8007 16.6906 17.6691L15.5994 16.578C15.3366 16.3147 15.3366 15.8884 15.5994 15.6252C15.8627 15.3619 16.2894 15.3619 16.5527 15.6252L17.1672 16.2397L18.9686 14.4383C19.2318 14.1751 19.6586 14.1751 19.9218 14.4383C20.1846 14.7016 20.1846 15.1279 19.9218 15.3911Z" fill="white"/>
<path d="M22.1406 23.8926H13.3809C13.0089 23.8926 12.707 24.1945 12.707 24.5664V33.3262C12.707 33.6981 13.0089 34 13.3809 34H22.1406C22.5126 34 22.8145 33.6981 22.8145 33.3262V24.5664C22.8145 24.1945 22.5126 23.8926 22.1406 23.8926Z" fill="#134478"/>
<path d="M24.6562 15.9414H29.5977V27.5816H24.6562V15.9414Z" fill="#134478"/>
<path d="M24.6563 29.4629C24.6514 30.5767 25.414 31.5444 26.4531 31.8403V33.3262C26.4531 33.6981 26.755 34 27.127 34C27.4989 34 27.8008 33.6981 27.8008 33.3262V31.8403C28.8398 31.5445 29.6021 30.5771 29.5977 29.4629V28.9292H24.6563V29.4629Z" fill="#2987FD"/>
</svg>
