<svg xmlns="http://www.w3.org/2000/svg" viewBox="0 0 30 30"><path d="M20.2 11.2c.1-3-2.3-5.6-5.4-5.7-3 .1-5.4 2.7-5.3 5.7 0 3.6 3.3 7.1 5 8.7l.3.3c1.5-1.4 5.4-5.2 5.4-9zm-1.8-.5c-.1-1.9-1.8-3.4-3.7-3.3-1.9 0-3.4 1.5-3.3 3.6v.1c.1 1.9 1.8 3.4 3.7 3.3 1.9-.1 3.4-1.8 3.3-3.7z" fill-rule="evenodd" clip-rule="evenodd" fill="#004195"/><path d="M15 25.5c-3.2 0-6.5-1-6.5-2.8 0-1.3 1.6-2.2 3.7-2.6l1.1 1.1c-2.3.3-3.6 1-3.6 1.5s2 1.6 5.3 1.6 5.3-1 5.3-1.6c0-.5-1.4-1.2-3.7-1.5l1.1-1.1c2.1.4 3.8 1.3 3.8 2.6 0 1.8-3.3 2.8-6.5 2.8z" fill-rule="evenodd" clip-rule="evenodd" fill="#2987FD"/></svg>