<svg id="icon-funds-active" xmlns="http://www.w3.org/2000/svg" width="30" height="30" viewBox="0 0 30 30">
  <metadata><?xpacket begin="﻿" id="W5M0MpCehiHzreSzNTczkc9d"?>
<x:xmpmeta xmlns:x="adobe:ns:meta/" x:xmptk="Adobe XMP Core 5.6-c142 79.160924, 2017/07/13-01:06:39        ">
   <rdf:RDF xmlns:rdf="http://www.w3.org/1999/02/22-rdf-syntax-ns#">
      <rdf:Description rdf:about=""/>
   </rdf:RDF>
</x:xmpmeta>
                                                                                                    
                                                                                                    
                                                                                                    
                                                                                                    
                                                                                                    
                                                                                                    
                                                                                                    
                                                                                                    
                                                                                                    
                                                                                                    
                                                                                                    
                                                                                                    
                                                                                                    
                                                                                                    
                                                                                                    
                                                                                                    
                                                                                                    
                                                                                                    
                                                                                                    
                                                                                                    
                           
<?xpacket end="w"?></metadata>
<defs>
    <style>
      .cls-1 {
        fill: #d91d46;
      }

      .cls-1, .cls-2 {
        fill-rule: evenodd;
      }

      .cls-2 {
        fill: #8811c0;
      }
    </style>
  </defs>
  <g id="Icon">
    <path id="Forma_1" data-name="Forma 1" class="cls-1" d="M25.725,12.719H9.125a1.105,1.105,0,0,0-.878.44,1.189,1.189,0,0,0-.207.424,1.256,1.256,0,0,0-.04.306V26.924a1.147,1.147,0,0,0,1.123,1.17h16.6a1.147,1.147,0,0,0,1.123-1.17V23.66H20.182a1.951,1.951,0,0,1-1.909-1.989v-2.6a2.024,2.024,0,0,1,.541-1.385,1.863,1.863,0,0,1,1.139-.587,1.828,1.828,0,0,1,.227-0.014h6.666V13.889A1.144,1.144,0,0,0,25.725,12.719Z" transform="translate(-3 -3.094)"/>
    <path id="Forma_1_copy" data-name="Forma 1 copy" class="cls-2" d="M12.674,11.9l7.973-2.267-0.422-.889a1.1,1.1,0,0,0-1.5-.529L11.582,11.9h1.092ZM23.122,9.7a1.078,1.078,0,0,0-.3.042l-1.873.533L15.232,11.9h9.323L24.2,10.562A1.129,1.129,0,0,0,23.122,9.7Zm4.512,8.5a1.095,1.095,0,0,0-.757-0.306h-6.7a1.148,1.148,0,0,0-1.123,1.17v2.6a1.148,1.148,0,0,0,1.123,1.17h6.7a1.105,1.105,0,0,0,.364-0.063,1.084,1.084,0,0,0,.393-0.243A1.189,1.189,0,0,0,28,21.669v-2.6A1.188,1.188,0,0,0,27.634,18.2Zm-5.107,2.4a0.574,0.574,0,0,1-.561.585H21.592a0.574,0.574,0,0,1-.561-0.585V20.211a0.582,0.582,0,0,1,.216-0.459,0.553,0.553,0,0,1,.346-0.126h0.373a0.574,0.574,0,0,1,.561.585V20.6h0Z" transform="translate(-3 -3.094)"/>
  </g>
</svg>
