<svg xmlns="http://www.w3.org/2000/svg" width="30" height="30" viewBox="-5 -4.5 30 30"><path fill="#2987FD" d="M17.7 5.6H1.1c-.3 0-.7.2-.9.4 0 .2-.1.3-.2.5v13.3c0 .7.5 1.2 1.1 1.2h16.6c.6 0 1.1-.5 1.1-1.2v-3.3h-6.7c-1.1 0-1.899-.9-1.899-2V12c0-.5.2-1 .5-1.4.5-.4 1-.6 1.5-.6h6.7V6.8C18.9 6.2 18.4 5.6 17.7 5.6z"/><path fill="#004195" d="M4.7 4.8l8-2.3-.4-.9c-.3-.6-.9-.8-1.5-.5L3.6 4.8h1.1zm10.4-2.2h-.3l-1.9.5-5.7 1.7h9.3l-.4-1.3c0-.5-.5-.9-1-.9zm4.5 8.5c-.1-.1-.2-.2-.4-.2-.1 0-.199-.1-.399-.1h-6.7c-.6 0-1.1.5-1.1 1.2v2.6c0 .6.5 1.2 1.1 1.2h6.7c.1 0 .2 0 .399-.101.101-.1.301-.1.4-.199.2-.2.4-.5.4-.9V12c0-.4-.101-.7-.4-.9zm-5.1 2.4c0 .3-.2.6-.601.6H13.5c-.301 0-.601-.3-.601-.6v-.4c0-.199.101-.3.2-.5.1-.1.2-.1.3-.1H14c.3 0 .6.3.6.6v.4h-.1z"/></svg>