<svg width="23" height="23" viewBox="-3.5 -3.5 30 30" fill="none" xmlns="http://www.w3.org/2000/svg">
<path d="M0.00536292 10.0204C-0.0445902 10.4224 0.26892 10.7773 0.674025 10.7773H3.41543C3.74448 10.7773 4.02542 10.5396 4.07991 10.2151C4.60752 7.073 7.07301 4.60746 10.2151 4.0799C10.5396 4.02541 10.7773 3.74447 10.7773 3.41537V0.673965C10.7773 0.268859 10.4224 -0.0446513 10.0204 0.00530189C7.49263 0.319441 5.10467 1.48826 3.29648 3.29642C1.48832 5.10461 0.319502 7.49257 0.00536292 10.0204Z" fill="#8CA3A6"/>
<path d="M15.7935 17.5501C14.5146 18.4633 13.015 18.9459 11.4567 18.9459C7.79018 18.9459 4.68778 16.3185 4.0799 12.6983C4.02541 12.3738 3.74447 12.136 3.41541 12.136H0.673964C0.268859 12.136 -0.0446513 12.4909 0.00530189 12.8929V12.893C0.721402 18.6549 5.64444 23.0001 11.4567 23.0001C14.046 23.0001 16.4947 22.1596 18.5381 20.5696C18.858 20.3207 18.8874 19.8479 18.6008 19.5613L16.6615 17.622C16.4286 17.3892 16.0615 17.3588 15.7935 17.5501Z" fill="#8CA3A6"/>
<path d="M12.6983 4.07983C16.3185 4.68772 18.946 7.79011 18.946 11.4567C18.946 13.0149 18.4633 14.5145 17.5502 15.7934C17.3588 16.0615 17.3893 16.4286 17.6221 16.6614L19.5615 18.6008C19.8481 18.8874 20.3209 18.8579 20.5697 18.5381L20.5698 18.5381C22.1597 16.4948 23.0001 14.046 23.0001 11.4567C23.0001 5.64438 18.655 0.721337 12.893 0.00523704H12.893C12.491 -0.0447161 12.136 0.268794 12.136 0.6739V3.4153C12.1361 3.7444 12.3738 4.02534 12.6983 4.07983Z" fill="#667E81"/>
<path d="M11.9054 6.82639H11.0065C10.6343 6.82639 10.3326 7.12808 10.3326 7.50021V15.3615H12.5793V7.50021C12.5793 7.12808 12.2776 6.82639 11.9054 6.82639Z" fill="#134478"/>
<path d="M13.927 15.3615H15.4998C15.8719 15.3615 16.1736 15.0598 16.1736 14.6877V9.29709C16.1736 8.92496 15.8719 8.62326 15.4998 8.62326H13.927V15.3615Z" fill="#134478"/>
<path d="M8.9851 10.4201H7.414C7.04187 10.4201 6.74017 10.7218 6.74017 11.094V14.6877C6.74017 15.0598 7.04187 15.3615 7.414 15.3615H8.9851V10.4201Z" fill="#134478"/>
</svg>
