<?xml version="1.0" encoding="utf-8"?>
<!DOCTYPE svg PUBLIC "-//W3C//DTD SVG 1.1//EN" "http://www.w3.org/Graphics/SVG/1.1/DTD/svg11.dtd">
<svg version="1.1" id="Layer_1" xmlns="http://www.w3.org/2000/svg" xmlns:xlink="http://www.w3.org/1999/xlink" x="0px" y="0px"
	 width="30px" height="30px" viewBox="-5 -5 30 30" enable-background="new -5 -5 30 30" xml:space="preserve">
<path fill="#8CA3A6" d="M8.416,7.884C8.109,8.341,7.59,8.628,7.023,8.628c-0.567,0-1.086-0.287-1.393-0.744H4.977V9h1.116v2.232
	h1.861V9H9.07V7.884H8.416L8.416,7.884z"/>
<path fill="#8CA3A6" d="M2,3.791v11.536h16V3.791H2z M10.186,10.116H9.07v2.232H4.977v-2.232H3.86V6.768h2.505L6.497,7.14
	c0.079,0.223,0.29,0.372,0.526,0.372c0.236,0,0.447-0.149,0.526-0.372l0.132-0.372h2.505V10.116z M13.721,12.349h-2.232v-1.116
	h2.232V12.349z M15.209,10.116h-3.721V9h3.721V10.116z M15.209,7.884h-3.721V6.768h3.721V7.884z"/>
</svg>
