<svg version="1.1" id="prefix__Layer_1" xmlns="http://www.w3.org/2000/svg" x="0" y="0" viewBox="0 0 30 30" xml:space="preserve"><style>.prefix__st2{fill:#fff}</style><path d="M22.4 7L5.9 10.2c.1.9-.4 1.7-1.3 1.8l2.1 10.7c.4-.1.8 0 1.2.2.3.2.6.6.6 1L25 20.7c-.2-.8.4-1.6 1.2-1.8l-2-10.7c-.4.1-.8 0-1.2-.2-.3-.2-.5-.6-.6-1z" fill="#134478"/><path d="M23.9 10.5H7c0 .8-.6 1.5-1.5 1.5v10.9c.4 0 .8.2 1.1.4.3.4.4.7.4 1.1h16.8c0-.8.7-1.5 1.5-1.5V12c-.4 0-.8-.2-1.1-.4-.2-.3-.3-.7-.3-1.1z" fill="#8ca3a6"/><path class="prefix__st2" d="M17.1 13.8h5.5v1.4h-5.5zM17.1 16.8h5.5v1.4h-5.5zM17.1 19.7H21v1.4h-3.9z"/><path d="M13.9 13.8h-.8l-3.2 7.4h.8l3.2-7.4zm-5.5 1.9c0-.3.1-.6.2-.9.1-.3.3-.5.5-.7.2-.2.5-.2.8-.2.4 0 .8.2 1.1.5.3.4.4.9.4 1.3 0 .5-.1.9-.4 1.3-.3.3-.7.5-1.1.5-.6 0-1.1-.3-1.3-.9-.2-.3-.2-.6-.2-.9zm1.2.8c-.1-.3-.2-.6-.2-.8 0-.3 0-.6.2-.9.1-.1.2-.2.3-.2s.2.1.3.2c.1.3.2.6.1.9 0 .3 0 .6-.1.9-.1.1-.2.2-.3.2s-.3-.2-.3-.3zm2.8 2.9c0-.3.1-.6.2-.9.2-.6.7-.9 1.3-.9.4 0 .8.2 1.1.5.3.4.4.9.4 1.3 0 .5-.1.9-.4 1.3-.3.3-.7.5-1.1.5-.3 0-.6-.1-.8-.2-.2-.2-.4-.4-.5-.7-.2-.2-.2-.6-.2-.9zm1 0c0 .3 0 .6.1.8.1.1.2.2.3.2s.2-.1.3-.2c.1-.3.2-.6.2-.9 0-.3 0-.6-.2-.9-.1-.1-.2-.2-.3-.2-.1 0-.2.1-.3.2 0 .4-.1.7-.1 1z" fill-rule="evenodd" clip-rule="evenodd" fill="#fff"/></svg>