<svg width="32" height="32" fill="none" xmlns="http://www.w3.org/2000/svg"><g clip-path="url(#a)" fill="#646F79"><path d="M22.812 19.998a.166.166 0 0 1-.146-.167v-2.98a.667.667 0 1 0-1.334 0v2.947a.167.167 0 0 1-.166.166h-2.834a.333.333 0 0 0-.333.334c0 .473-.82 1-2 1-1.18 0-2-.527-2-1a.333.333 0 0 0-.334-.334h-2.833a.166.166 0 0 1-.167-.166v-2.834a.667.667 0 0 0-1.333 0v2.84a.167.167 0 0 1-.14.167 1.02 1.02 0 0 0-.733.507.987.987 0 0 0 0 1.013 3.833 3.833 0 0 0 3.287 1.84h8.506a3.827 3.827 0 0 0 3.26-1.8 1 1 0 0 0-.7-1.533ZM24 12.212v-.04l-1.173-2.84a1.006 1.006 0 0 0-.907-.666h-1.833a.16.16 0 0 0-.127.066.166.166 0 0 0-.033.147l.887 3.253a.458.458 0 0 1 0 .134v2.4a.167.167 0 0 0 .106.16 2.23 2.23 0 0 0 1.733-.034 2.193 2.193 0 0 0 1.334-1.946v-.627l.013-.007ZM19.834 12.36a.1.1 0 0 0 0-.047l-.967-3.486a.174.174 0 0 0-.16-.127h-2.04a.167.167 0 0 0-.167.167v6.24a.16.16 0 0 0 .093.153 3.14 3.14 0 0 0 1.647.307 3.266 3.266 0 0 0 1.587-.56V12.34l.006.02ZM11.167 12.267a.899.899 0 0 1 0-.134l.9-3.22a.16.16 0 0 0 0-.146.174.174 0 0 0-.134-.067H10.08a1.007 1.007 0 0 0-.907.633L8 12.087v.646a2.173 2.173 0 0 0 1.333 1.947 2.233 2.233 0 0 0 1.734.033.18.18 0 0 0 .1-.046v-2.4ZM15.501 8.867a.167.167 0 0 0-.166-.167h-2.04a.173.173 0 0 0-.167.127c-.06.246-.273 1.013-.953 3.486a.102.102 0 0 0 0 .047v2.547a.175.175 0 0 0 .073.14c.459.295.983.474 1.527.52h.266c.476-.001.946-.11 1.374-.32a.173.173 0 0 0 .093-.147l-.007-6.233Z"/></g><defs><clipPath id="a"><path fill="#fff" transform="translate(8 8)" d="M0 0h16v16H0z"/></clipPath></defs></svg>