<svg xmlns="http://www.w3.org/2000/svg" width="20" height="20" fill="none" viewBox="0 0 20 20"><path fill="#305dfb" d="M2 3.7907V15.3256H18V3.7907H2ZM13.7209 12.3488H11.4884V11.2325H13.7209V12.3488ZM15.2093 10.1163H11.4884V8.99998H15.2093V10.1163ZM15.2093 7.88373H11.4884V6.76744H15.2093V7.88373Z"/><path fill="#fff" d="M4.21487 7.60907C4.0735 7.83349 3.99872 8.09694 4.00002 8.36605C4.00174 8.72534 4.13881 9.0693 4.38125 9.32271C4.62369 9.57613 4.95178 9.71838 5.29378 9.71838C5.54994 9.71838 5.80033 9.63849 6.01323 9.48883C6.22613 9.33917 6.39194 9.12649 6.48967 8.87773C6.5874 8.62897 6.61263 8.35533 6.56218 8.09149C6.51173 7.82765 6.38786 7.58548 6.20627 7.39567C6.02468 7.20586 5.79354 7.07695 5.54215 7.02529C5.29076 6.97362 5.03042 7.00152 4.79413 7.10544C4.55785 7.20937 4.35624 7.38465 4.21487 7.60907Z"/><path fill="#fff" d="M4.9872 11.681C4.99516 11.7679 5.03548 11.848 5.09939 11.9039C5.16429 11.9594 5.24737 11.9858 5.33066 11.9774C5.41395 11.9691 5.49078 11.9266 5.54453 11.8593L8.94228 7.58177C8.9951 7.51424 9.02029 7.42746 9.01233 7.34045C9.00437 7.25344 8.96391 7.17329 8.89981 7.11756C8.83506 7.06225 8.75223 7.03585 8.66914 7.04403C8.58605 7.05222 8.50933 7.09433 8.45549 7.16132L5.05692 11.4397C5.0043 11.5073 4.97925 11.594 4.9872 11.681Z"/><path fill="#fff" d="M7.99525 11.7704C8.2065 11.9194 8.45506 11.9993 8.70951 12L8.71032 11.9966C9.05105 11.9954 9.3776 11.8532 9.61907 11.6006C9.86053 11.3481 9.99742 11.0056 10 10.6477C10 10.3804 9.92459 10.119 9.78329 9.89672C9.64199 9.67441 9.44114 9.50108 9.20612 9.39862C8.9711 9.29617 8.71245 9.26919 8.46285 9.32109C8.21324 9.37299 7.98387 9.50145 7.80372 9.69023C7.62357 9.87901 7.50071 10.1197 7.45068 10.3818C7.40064 10.6439 7.42567 10.9156 7.52259 11.1628C7.61952 11.41 7.784 11.6214 7.99525 11.7704Z"/><path fill="#305dfb" d="M8.25 10.6937C8.25 10.5593 8.30323 10.4304 8.39799 10.3353C8.49411 10.2461 8.62086 10.1977 8.75176 10.2001C8.88266 10.2025 9.00757 10.2555 9.1004 10.348C9.19322 10.4406 9.24677 10.5656 9.24986 10.6968C9.25294 10.828 9.20533 10.9554 9.11695 11.0522C9.02114 11.1469 8.89201 11.2 8.75747 11.2C8.62294 11.2 8.49381 11.1469 8.39799 11.0522C8.30323 10.9571 8.25 10.8282 8.25 10.6937Z"/><path fill="#305dfb" d="M4.8 8.39374C4.8 8.2593 4.85323 8.13036 4.94799 8.03525C5.04411 7.94613 5.17086 7.89769 5.30176 7.90008C5.43266 7.90246 5.55758 7.95548 5.6504 8.04805C5.74323 8.14061 5.79678 8.26557 5.79986 8.3968C5.80295 8.52803 5.75533 8.65538 5.66696 8.75223C5.57114 8.84691 5.44201 8.89999 5.30747 8.89999C5.17294 8.89999 5.04381 8.84691 4.94799 8.75223C4.85323 8.65711 4.8 8.52818 4.8 8.39374Z"/></svg>