<svg xmlns="http://www.w3.org/2000/svg" id="icon-offices-hover" width="36" height="36" viewBox="0 0 36 36"><metadata><?xpacket begin="﻿" id="W5M0MpCehiHzreSzNTczkc9d"?><x:xmpmeta xmlns:x="adobe:ns:meta/" x:xmptk="Adobe XMP Core 5.6-c138 79.159824, 2016/09/14-01:09:01"><rdf:RDF xmlns:rdf="http://www.w3.org/1999/02/22-rdf-syntax-ns#"><rdf:Description/></rdf:RDF></x:xmpmeta><?xpacket end="w"?></metadata><defs><style>.cls-1{fill:#305dfb;fill-rule:evenodd}</style></defs><g id="Icon"><path id="Shape_1_copy_10" d="M17.814,8h0.078A5.92,5.92,0,0,1,23.6,13.981c0,3.968-4.113,7.985-5.747,9.425-0.109-.1-0.23-0.2-0.36-0.323l-0.006-.006c-1.809-1.657-5.381-5.4-5.381-9.1A5.921,5.921,0,0,1,17.814,8Zm0.094,2.278a3.1,3.1,0,1,1-3.007,3.1A3.055,3.055,0,0,1,17.908,10.281Z" class="cls-1" data-name="Shape 1 copy 10" transform="translate(0.063 -0.5)"/><path id="Shape_1_copy_12" d="M17.935,29C14.49,29,11,27.982,11,26.035c0-1.366,1.717-2.274,3.932-2.7,0.428,0.444.834,0.835,1.189,1.162-2.412.278-3.829,1.065-3.829,1.533,0,0.576,2.141,1.633,5.641,1.633s5.641-1.058,5.641-1.633c0-.478-1.477-1.285-3.976-1.547,0.359-.331.768-0.725,1.2-1.174,2.281,0.409,4.069,1.327,4.069,2.721C24.868,27.982,21.38,29,17.935,29Z" class="cls-1" data-name="Shape 1 copy 12" transform="translate(0.063 -0.5)"/></g></svg>