<?xml version="1.0" encoding="utf-8"?>
<!DOCTYPE svg PUBLIC "-//W3C//DTD SVG 1.1//EN" "http://www.w3.org/Graphics/SVG/1.1/DTD/svg11.dtd">
<svg version="1.1" id="Layer_1" xmlns="http://www.w3.org/2000/svg" xmlns:xlink="http://www.w3.org/1999/xlink" x="0px" y="0px"
	 width="30px" height="30px" viewBox="-5.5 -5 30 30" enable-background="new -5.5 -5 30 30" xml:space="preserve">
<path fill="#134478" d="M5,20c0.921,0,1.667-0.746,1.667-1.667S5.92,16.666,5,16.666c-0.92,0-1.667,0.746-1.667,1.667S4.079,20,5,20
	z"/>
<path fill="#134478" d="M15,20c0.92,0,1.666-0.746,1.666-1.667S15.92,16.666,15,16.666c-0.921,0-1.667,0.746-1.667,1.667
	S14.079,20,15,20z"/>
<path fill="#2987FD" d="M16.991,3.333H16.25c-0.23,0-0.416,0.187-0.416,0.417v1.667c0,0.389-0.178,0.749-0.484,0.987
	c-0.116,0.09-0.176,0.235-0.158,0.381c0.049,0.385-0.08,0.764-0.355,1.039l-1.179,1.178c-0.271,0.272-0.646,0.409-1.038,0.356
	C12.472,9.34,12.328,9.4,12.237,9.517C11.998,9.824,11.639,10,11.25,10H9.583c-0.388,0-0.748-0.176-0.987-0.483
	C8.505,9.4,8.359,9.34,8.214,9.359C7.823,9.411,7.448,9.274,7.176,9.002L5.998,7.824C5.723,7.549,5.592,7.17,5.641,6.785
	C5.66,6.639,5.6,6.494,5.483,6.404C5.177,6.165,5,5.806,5,5.417V3.75c0-0.23-0.187-0.417-0.417-0.417h-0.9L3.344,2.251
	C3.235,1.903,2.913,1.667,2.548,1.667H0.417C0.187,1.667,0,1.853,0,2.083v0.833c0,0.23,0.187,0.417,0.417,0.417h1.52l2.634,8.419
	l-1.237,1.236c-0.479,0.479-0.62,1.191-0.361,1.816s0.863,1.028,1.54,1.028H16.25c0.23,0,0.416-0.187,0.416-0.417v-0.833
	c0-0.229-0.186-0.417-0.416-0.417H4.512L6.178,12.5h7.612c0.643,0,1.235-0.375,1.508-0.957l2.909-6.179
	c0.082-0.178,0.127-0.375,0.127-0.571V4.675C18.334,3.935,17.73,3.333,16.991,3.333z"/>
<path fill="#134478" d="M6.149,5.821l0.798,0.2L6.524,6.726C6.426,6.89,6.452,7.1,6.587,7.235l1.178,1.178
	c0.136,0.136,0.347,0.16,0.509,0.063l0.705-0.423l0.199,0.799c0.046,0.185,0.213,0.315,0.404,0.315h1.667
	c0.191,0,0.357-0.13,0.404-0.315l0.199-0.799l0.705,0.423c0.164,0.098,0.373,0.073,0.51-0.063l1.178-1.178
	c0.135-0.135,0.161-0.345,0.063-0.509l-0.423-0.706l0.798-0.2C14.869,5.774,15,5.608,15,5.417V3.75c0-0.191-0.131-0.357-0.316-0.404
	l-0.798-0.2l0.423-0.706c0.099-0.164,0.072-0.374-0.063-0.509l-1.178-1.179c-0.137-0.136-0.346-0.16-0.51-0.063l-0.705,0.423
	l-0.199-0.798C11.607,0.13,11.441,0,11.25,0H9.583C9.392,0,9.225,0.13,9.179,0.315l-0.2,0.798L8.274,0.69
	C8.112,0.593,7.901,0.618,7.765,0.753L6.586,1.932C6.452,2.066,6.425,2.276,6.524,2.44l0.423,0.706l-0.798,0.2
	C5.963,3.393,5.833,3.559,5.833,3.75v1.667C5.833,5.608,5.963,5.774,6.149,5.821z M10.416,2.5c1.149,0,2.084,0.935,2.084,2.083
	c0,1.148-0.935,2.083-2.084,2.083c-1.149,0-2.083-0.935-2.083-2.083C8.333,3.435,9.267,2.5,10.416,2.5z"/>
</svg>
