<svg width="32" height="32" fill="none" xmlns="http://www.w3.org/2000/svg"><path d="M23.168 9.333A1.334 1.334 0 0 0 21.834 8H10.168a1.333 1.333 0 0 0-1.334 1.333V20.98a1.333 1.333 0 0 0 1.334 1.333H11.5a.667.667 0 1 0 0-1.333h-1.006a.333.333 0 0 1-.327-.333V9.667a.333.333 0 0 1 .333-.334h11a.333.333 0 0 1 .333.334v11a.333.333 0 0 1-.333.333h-.667a.666.666 0 1 0 0 1.333h1A1.333 1.333 0 0 0 23.168 21V9.333Z" fill="#646F79"/><path d="M20.168 12.668a.667.667 0 0 0 0-1.334h-8.12a.667.667 0 1 0 0 1.334h8.12ZM12.167 15.668h5a.667.667 0 0 0 0-1.334h-5a.667.667 0 1 0 0 1.334ZM16.169 18a3 3 0 1 0 3 3 3.006 3.006 0 0 0-3-3Zm1.487 1.827a.5.5 0 0 1 .1.7l-1.287 1.72a.847.847 0 0 1-.607.333h-.06a.812.812 0 0 1-.593-.247l-.667-.666a.502.502 0 0 1-.012-.72.5.5 0 0 1 .719.013l.4.393a.16.16 0 0 0 .127.054.167.167 0 0 0 .12-.067l1.06-1.413a.5.5 0 0 1 .7-.1Z" fill="#646F79"/></svg>