<?xml version="1.0" encoding="utf-8"?>
<!DOCTYPE svg PUBLIC "-//W3C//DTD SVG 1.1//EN" "http://www.w3.org/Graphics/SVG/1.1/DTD/svg11.dtd">
<svg version="1.1" id="Layer_1" xmlns="http://www.w3.org/2000/svg" xmlns:xlink="http://www.w3.org/1999/xlink" x="0px" y="0px"
	 width="30px" height="30px" viewBox="7.5 7.5 30 30" enable-background="new 7.5 7.5 30 30" xml:space="preserve">
<path fill="#2987FD" d="M29.885,14.522l-16.52,3.211c0.16,0.825-0.387,1.625-1.223,1.788l2.082,10.709
	c0.401-0.079,0.816,0.002,1.155,0.227c0.338,0.225,0.571,0.574,0.648,0.97l16.52-3.212c-0.16-0.822,0.387-1.621,1.221-1.783
	l-2.082-10.709c-0.401,0.078-0.816-0.005-1.154-0.23C30.193,15.267,29.961,14.918,29.885,14.522z"/>
<path fill="#004195" d="M31.371,18H14.542c0,0.841-0.69,1.522-1.542,1.522v10.91c0.409-0.002,0.801,0.158,1.09,0.443
	c0.29,0.285,0.452,0.672,0.452,1.074h16.829c0-0.838,0.688-1.518,1.538-1.518v-10.91c-0.409,0-0.8-0.161-1.089-0.446
	C31.531,18.791,31.37,18.403,31.371,18z"/>
<rect x="24.614" y="21.299" fill="#FFFFFF" width="5.477" height="1.411"/>
<rect x="24.614" y="24.271" fill="#FFFFFF" width="5.477" height="1.41"/>
<rect x="24.614" y="27.24" fill="#FFFFFF" width="3.872" height="1.41"/>
<path fill="#FFFFFF" d="M21.364,21.331h-0.792l-3.186,7.438h0.789L21.364,21.331z M15.873,23.169
	c-0.001-0.314,0.057-0.625,0.171-0.919c0.096-0.268,0.275-0.5,0.513-0.661c0.237-0.163,0.519-0.25,0.807-0.248
	c0.424-0.015,0.829,0.171,1.091,0.499c0.282,0.385,0.423,0.854,0.4,1.328c0.024,0.478-0.117,0.948-0.4,1.335
	c-0.263,0.328-0.668,0.512-1.091,0.496c-0.592,0.02-1.128-0.344-1.32-0.897C15.929,23.805,15.871,23.488,15.873,23.169z
	 M17.088,24.023c-0.119-0.267-0.172-0.559-0.153-0.849c-0.021-0.295,0.032-0.59,0.153-0.86c0.054-0.106,0.165-0.173,0.285-0.173
	s0.231,0.067,0.286,0.173c0.116,0.27,0.167,0.562,0.149,0.854c0.019,0.292-0.033,0.585-0.149,0.854
	c-0.053,0.108-0.164,0.178-0.286,0.178S17.14,24.132,17.088,24.023z M19.866,26.932c-0.002-0.315,0.054-0.629,0.167-0.924
	c0.192-0.559,0.733-0.928,1.331-0.908c0.424-0.014,0.83,0.173,1.091,0.503c0.285,0.384,0.426,0.854,0.4,1.329
	c0.025,0.476-0.116,0.945-0.4,1.331c-0.26,0.333-0.666,0.521-1.091,0.507c-0.29,0.006-0.574-0.077-0.814-0.237
	c-0.238-0.165-0.417-0.399-0.513-0.671C19.921,27.564,19.863,27.249,19.866,26.932z M20.927,26.937
	c-0.018,0.29,0.034,0.581,0.149,0.849c0.056,0.104,0.166,0.17,0.286,0.17c0.119,0,0.229-0.065,0.285-0.17
	c0.12-0.268,0.172-0.562,0.153-0.854c0.02-0.295-0.033-0.589-0.153-0.858c-0.052-0.108-0.163-0.177-0.284-0.176
	c-0.122-0.003-0.233,0.066-0.283,0.176C20.961,26.345,20.908,26.641,20.927,26.937z"/>
</svg>
