<svg width="30" height="45" viewBox="0 0 45 45" fill="none" xmlns="http://www.w3.org/2000/svg">
<path fill-rule="evenodd" clip-rule="evenodd" d="M20.143 13C24.0879 13 27.2858 14.5988 27.2858 16.5714C27.2858 17.0982 27.0577 17.5984 26.6481 18.0485C25.4663 18.1836 24.3291 18.5986 23.3332 19.264C23.022 19.4719 22.7281 19.702 22.4535 19.9518C21.7288 20.0756 20.9516 20.1427 20.143 20.1427C16.1981 20.1427 13 18.544 13 16.5714C13 14.5988 16.1981 13 20.143 13ZM21.1278 21.5446C20.8067 21.5624 20.4782 21.5715 20.143 21.5715C17.0202 21.5715 14.4829 20.7826 13 19.4846V20.8571C13 22.8822 16.0376 24.4119 20.077 24.4284C20.1657 23.8139 20.3308 23.2096 20.5709 22.6299C20.7275 22.2519 20.914 21.8891 21.1278 21.5446ZM20.0085 25.8568C16.9474 25.8344 14.4616 25.0496 13 23.7704V25.1429C13 27.179 16.0707 28.7142 20.143 28.7142C20.3373 28.7142 20.5293 28.7108 20.7188 28.7039C20.4581 28.1522 20.2644 27.5679 20.1441 26.9632C20.0712 26.5967 20.0261 26.2269 20.0085 25.8568ZM21.5655 30.086C21.1069 30.1236 20.6321 30.143 20.143 30.143C17.0202 30.143 14.4829 29.3541 13 28.0561V29.4286C13 31.4648 16.0707 33 20.143 33C21.7677 33 23.2329 32.7556 24.4072 32.3326C23.5885 31.962 22.8387 31.4453 22.1967 30.8033C21.9704 30.577 21.7597 30.3374 21.5655 30.086Z" fill="#134478"/>
<path d="M30.4286 21.8571C30.4286 20.8314 28.7657 20 26.7144 20C24.663 20 23 20.8314 23 21.8571C23 22.8829 24.663 23.7142 26.7144 23.7142C28.7657 23.7142 30.4286 22.8829 30.4286 21.8571Z" fill="#8CA3A6"/>
<path d="M23 23.372V24.0857C23 25.1445 24.5968 25.9428 26.7144 25.9428C28.832 25.9428 30.4286 25.1445 30.4286 24.0857V23.372C29.6575 24.0469 28.3381 24.4572 26.7144 24.4572C25.0905 24.4572 23.7711 24.0469 23 23.372Z" fill="#8CA3A6"/>
<path d="M23 25.6006V26.3143C23 27.3731 24.5968 28.1714 26.7144 28.1714C28.832 28.1714 30.4286 27.3731 30.4286 26.3143V25.6006C29.6575 26.2755 28.3381 26.6858 26.7144 26.6858C25.0905 26.6858 23.7711 26.2755 23 25.6006Z" fill="#8CA3A6"/>
<path d="M23 27.8292V28.5429C23 29.6017 24.5968 30.4 26.7144 30.4C28.832 30.4 30.4286 29.6017 30.4286 28.5429V27.8292C29.6575 28.5041 28.3381 28.9144 26.7144 28.9144C25.0905 28.9144 23.7711 28.5041 23 27.8292Z" fill="#8CA3A6"/>
</svg>
