<?xml version="1.0" encoding="utf-8"?>
<!DOCTYPE svg PUBLIC "-//W3C//DTD SVG 1.1//EN" "http://www.w3.org/Graphics/SVG/1.1/DTD/svg11.dtd">
<svg version="1.1" id="Layer_1" xmlns="http://www.w3.org/2000/svg" xmlns:xlink="http://www.w3.org/1999/xlink" x="0px" y="0px"
	 width="30px" height="30px" viewBox="-5 -6 30 30" enable-background="new -5 -6 30 30" xml:space="preserve">
<path fill="#8CA3A6" d="M6.607,10.25c0.125-0.033,0.254-0.051,0.384-0.051c0.102,0,0.204,0.011,0.303,0.031
	c0.194-0.59,0.751-1.019,1.406-1.019h1.137c0.302,0,0.582,0.094,0.815,0.25c0.03-0.197,0.094-0.388,0.196-0.566l0.717-1.241
	c0.063-0.11,0.141-0.207,0.226-0.297l-1.234-1.014l0.512-0.452l1.311,1.076c0.052-0.02,0.103-0.044,0.158-0.059
	c0.135-0.036,0.274-0.055,0.415-0.055c0.195,0,0.391,0.036,0.572,0.106c0.121-0.765,0.784-1.351,1.582-1.351h0.736V1.208
	C15.844,0.541,15.303,0,14.635,0H1.208C0.541,0,0,0.541,0,1.208v8.135c0,0.667,0.541,1.208,1.208,1.208h4.831
	C6.203,10.412,6.394,10.307,6.607,10.25z M1.805,1.475C1.99,1.265,2.309,1.245,2.519,1.43l4.938,4.358
	c0.266,0.233,0.665,0.233,0.93,0l4.938-4.358c0.209-0.184,0.528-0.165,0.714,0.045c0.185,0.209,0.164,0.528-0.045,0.713L9.056,6.546
	C8.733,6.832,8.327,6.974,7.922,6.974S7.111,6.832,6.788,6.546L1.85,2.188C1.64,2.003,1.62,1.684,1.805,1.475z M1.784,9.221
	C1.721,9.273,1.645,9.298,1.57,9.298c-0.097,0-0.194-0.042-0.261-0.123C1.191,9.031,1.212,8.819,1.355,8.701l3.419-2.808
	l0.512,0.452L1.784,9.221z"/>
<path fill="#134478" d="M15.824,9.439c-0.828,0-1.502,0.674-1.502,1.502s0.674,1.502,1.502,1.502s1.502-0.674,1.502-1.502
	S16.652,9.439,15.824,9.439z"/>
<path fill="#134478" d="M19.705,11.676l-0.541-0.313c0.017-0.141,0.042-0.277,0.042-0.422c0-0.144-0.025-0.281-0.042-0.42
	l0.541-0.313c0.135-0.078,0.234-0.207,0.274-0.358s0.02-0.312-0.06-0.448l-0.716-1.241c-0.108-0.189-0.308-0.295-0.512-0.295
	c-0.1,0-0.201,0.025-0.294,0.079l-0.537,0.311c-0.227-0.172-0.468-0.325-0.732-0.437V7.213c0-0.326-0.265-0.59-0.59-0.59h-1.434
	c-0.326,0-0.59,0.264-0.59,0.59V7.82c-0.266,0.111-0.506,0.265-0.731,0.437l-0.538-0.311c-0.091-0.052-0.192-0.079-0.295-0.079
	c-0.051,0-0.103,0.006-0.152,0.02c-0.152,0.041-0.281,0.139-0.359,0.275l-0.716,1.241c-0.163,0.282-0.065,0.642,0.216,0.806
	l0.284,0.164c0.04,0.02,0.077,0.042,0.116,0.066l0.141,0.082c0,0.008-0.001,0.016-0.002,0.023c0.136,0.111,0.26,0.238,0.35,0.395
	l0.57,0.987c0.195,0.341,0.248,0.738,0.146,1.12c-0.062,0.229-0.174,0.434-0.327,0.605c0.059,0.065,0.109,0.138,0.155,0.212
	l0.41-0.237c0.227,0.172,0.467,0.325,0.732,0.437v0.607c0,0.326,0.264,0.59,0.59,0.59h1.434c0.325,0,0.59-0.264,0.59-0.59v-0.607
	c0.266-0.111,0.506-0.265,0.732-0.437l0.537,0.311c0.09,0.053,0.192,0.079,0.295,0.079c0.051,0,0.103-0.007,0.152-0.021
	c0.151-0.04,0.28-0.139,0.358-0.274l0.716-1.241C20.084,12.199,19.986,11.838,19.705,11.676z M15.822,13.118
	c-1.2,0-2.176-0.976-2.176-2.177c0-1.199,0.976-2.175,2.176-2.175c1.199,0,2.176,0.976,2.176,2.175
	C17.998,12.143,17.021,13.118,15.822,13.118z"/>
<path fill="#134478" d="M12.35,14.233l-0.43-0.248c0.014-0.11,0.033-0.22,0.033-0.334s-0.02-0.224-0.033-0.334l0.43-0.248
	c0.107-0.062,0.186-0.164,0.219-0.284c0.031-0.12,0.015-0.248-0.047-0.355l-0.568-0.984c-0.088-0.15-0.245-0.234-0.406-0.234
	c-0.08,0-0.16,0.021-0.234,0.063l-0.426,0.247c-0.18-0.137-0.371-0.259-0.582-0.347v-0.482c0-0.258-0.209-0.468-0.468-0.468H8.699
	c-0.258,0-0.468,0.21-0.468,0.468v0.482c-0.211,0.088-0.402,0.21-0.581,0.347l-0.428-0.247c-0.071-0.041-0.151-0.063-0.233-0.063
	c-0.041,0-0.082,0.006-0.122,0.016c-0.12,0.032-0.222,0.111-0.285,0.219L6.015,12.43c-0.129,0.225-0.052,0.51,0.172,0.64
	l0.429,0.248c-0.014,0.11-0.033,0.22-0.033,0.334s0.02,0.224,0.033,0.334l-0.429,0.247c-0.224,0.13-0.301,0.416-0.172,0.641
	l0.568,0.984c0.063,0.107,0.165,0.187,0.285,0.219c0.04,0.011,0.081,0.016,0.122,0.016c0.082,0,0.162-0.021,0.233-0.063l0.427-0.246
	c0.18,0.136,0.371,0.258,0.582,0.346v0.482c0,0.259,0.209,0.469,0.468,0.469h1.138c0.258,0,0.468-0.21,0.468-0.469v-0.482
	c0.211-0.088,0.402-0.21,0.582-0.346l0.426,0.246c0.072,0.041,0.153,0.063,0.234,0.063c0.041,0,0.082-0.005,0.121-0.016
	c0.12-0.032,0.223-0.111,0.285-0.219l0.568-0.984C12.65,14.649,12.574,14.363,12.35,14.233z M9.268,14.942
	c-0.712,0-1.291-0.578-1.291-1.291s0.578-1.291,1.291-1.291c0.713,0,1.291,0.578,1.291,1.291S9.981,14.942,9.268,14.942z"/>
</svg>
