<svg version="1.1" id="Layer_1" xmlns="http://www.w3.org/2000/svg" x="0" y="0" viewBox="0 0 30 30" style="enable-background:new 0 0 30 30" xml:space="preserve"><style>.st0{fill:#2987fd}.st1{fill:#134478}</style><path class="st0" d="M22 6.6h-.5v-.4c0-.9-.7-1.6-1.6-1.6h-1.3c-.9 0-1.6.7-1.6 1.6v1.6h5c.4 0 .7.4.7.7v8.2c0 .4.3.6.6.6.4 0 .6-.3.6-.6V8.6c0-1.1-.9-2-1.9-2z"/><path class="st1" d="M14.6 4.6H6.7c-.4 0-.6.3-.6.6v8c0 .4.3.6.6.6h8c.4 0 .6-.3.6-.6v-8c0-.4-.3-.6-.7-.6z"/><path d="m12.6 8.6-2 2c-.2.2-.4.3-.5.3-.2 0-.3-.1-.5-.2l-.9-1c-.2-.3-.2-.7 0-1 .3-.3.6-.3.9 0l.5.5 1.6-1.6c.3-.3.6-.3.9 0 .3.3.3.7 0 1z" style="fill:#fff"/><path class="st0" d="M14.6 16.3H6.7c-.4 0-.6.3-.6.6v8c0 .4.3.6.6.6h8c.4 0 .6-.3.6-.6v-8c0-.3-.3-.6-.7-.6zM17 9h4.5v10.5H17V9z"/><path class="st1" d="M17 21.4c0 1 .7 1.9 1.6 2.2V25c0 .4.3.6.6.6.4 0 .6-.3.6-.6v-1.4c.9-.3 1.6-1.2 1.6-2.2v-.5h-4.5l.1.5z"/></svg>