<?xml version="1.0" encoding="utf-8"?>
<!DOCTYPE svg PUBLIC "-//W3C//DTD SVG 1.1//EN" "http://www.w3.org/Graphics/SVG/1.1/DTD/svg11.dtd">
<svg version="1.1" id="Layer_1" xmlns="http://www.w3.org/2000/svg" xmlns:xlink="http://www.w3.org/1999/xlink" x="0px" y="0px"
	 width="30px" height="30px" viewBox="-4.5 -1 30 30" enable-background="new -4.5 -1 30 30" xml:space="preserve">
<g>
	<path fill="#8CA3A6" d="M15.703,9.7c0.1-3-2.301-5.6-5.4-5.7c-3,0.1-5.4,2.7-5.3,5.7c0,3.6,3.3,7.1,5,8.7l0.3,0.3
		C11.803,17.3,15.703,13.5,15.703,9.7z M13.904,9.233c-0.118-1.895-1.776-3.435-3.671-3.316c-1.895,0-3.435,1.54-3.316,3.553v0.118
		c0.119,1.895,1.777,3.435,3.671,3.316C12.483,12.786,14.023,11.128,13.904,9.233z"/>
	<path fill="#134478" d="M10.5,24C7.3,24,4,23,4,21.2C4,19.9,5.6,19,7.7,18.6C8.1,19,8.5,19.4,8.8,19.7c-2.3,0.3-3.6,1-3.6,1.5
		s2,1.601,5.3,1.601s5.3-1,5.3-1.601c0-0.5-1.399-1.2-3.7-1.5C12.4,19.4,12.8,19,13.2,18.6C15.3,19,17,19.9,17,21.2
		C17,23,13.7,24,10.5,24z"/>
</g>
</svg>
