<svg xmlns="http://www.w3.org/2000/svg" width="30" height="30" viewBox="7.5 7.5 30 30"><path fill="#004195" d="M19.601 14.7l-4 4c-.4.4-1 .4-1.4 0l-2-2c-.4-.4-.4-1 0-1.4.4-.4 1-.4 1.4 0l1.4 1.3 3.3-3.3c.4-.4 1-.4 1.4 0 .299.4.299 1-.1 1.4zm-4 11c-.4.399-1 .399-1.4 0l-2-2c-.4-.4-.4-1 0-1.4.4-.4 1-.4 1.4 0l1.4 1.3 3.3-3.3c.4-.4 1-.4 1.4 0 .3.4.3 1-.1 1.4l-4 4zm-1.401 7c.4.399 1 .399 1.4 0l4-4c.4-.4.4-1 .1-1.4a.968.968 0 00-1.4 0L15 30.6l-1.4-1.3a.968.968 0 00-1.4 0c-.4.4-.4 1 0 1.4l2 2zM30.801 17h-7.4c-.6.1-1.1-.2-1.2-.8-.2-.6.1-1.1.7-1.2H30.7c.601-.1 1.101.2 1.2.8s-.1 1-.7 1.2h-.399zm0 7h-7.4c-.6.101-1.1-.199-1.2-.8-.2-.6.1-1.1.7-1.2H30.7c.601-.1 1.101.2 1.2.8s-.2 1.1-.8 1.2h-.299zM23.4 31H31.2c.601-.1.9-.6.8-1.199-.1-.601-.6-.901-1.199-.801H23c-.6.101-.899.601-.8 1.2.1.601.6.901 1.2.8z"/></svg>