<svg xmlns="http://www.w3.org/2000/svg" width="30" height="30" viewBox="-5 -5 30 30"><path fill="#134478" d="M7.143 0c3.945 0 7.142 1.599 7.142 3.571 0 .527-.228 1.027-.637 1.477a7.493 7.493 0 00-4.194 1.904c-.725.124-1.502.191-2.311.191C3.198 7.143 0 5.544 0 3.571S3.198 0 7.143 0zm.985 8.544c-.321.018-.65.027-.985.027-3.123 0-5.66-.788-7.143-2.087v1.373c0 2.025 3.038 3.555 7.077 3.571a7.445 7.445 0 011.051-2.884zm-1.12 4.313C3.947 12.834 1.461 12.05 0 10.771v1.372c0 2.037 3.071 3.572 7.143 3.572.194 0 .386-.004.576-.011a7.52 7.52 0 01-.711-2.847zm1.557 4.229a17.67 17.67 0 01-1.422.057c-3.123 0-5.66-.789-7.143-2.086v1.372C0 18.465 3.071 20 7.143 20c1.625 0 3.09-.244 4.264-.668a7.482 7.482 0 01-2.842-2.246z"/><path fill="#8CA3A6" d="M14.5 7a5.505 5.505 0 00-5.082 3.395 5.49 5.49 0 001.193 5.993 5.497 5.497 0 008.462-.832 5.494 5.494 0 00-.686-6.943A5.508 5.508 0 0014.5 7zm2.59 4.199L14.375 14.5a.56.56 0 01-.399.2h-.026a.538.538 0 01-.39-.16l-1.649-1.65a.552.552 0 01.391-.933.554.554 0 01.388.155l1.221 1.221 2.33-2.832a.55.55 0 01.849.698z"/></svg>