<svg version="1.1" id="Layer_1" xmlns="http://www.w3.org/2000/svg" x="0" y="0" viewBox="0 0 30 30" xml:space="preserve"><style>.st0{fill:#2987fd}</style><path class="st0" d="M23 14.1c-.5 0-.8-.4-.8-.8 0-2.3-.9-4.5-2.6-6.2-.3-.3-.3-.9 0-1.2.3-.3.9-.3 1.2 0 2 2 3.1 4.6 3.1 7.4-.1.4-.4.8-.9.8zM6.3 14.1c-.5 0-.8-.4-.8-.8 0-2.8 1.1-5.4 3.1-7.4.3-.3.9-.3 1.2 0 .3.3.3.9 0 1.2-1.7 1.7-2.6 3.9-2.6 6.2 0 .4-.4.8-.9.8z"/><path d="M22.5 19.1c-1.3-1.1-2-2.6-2-4.3v-2.3c0-2.9-2.2-5.4-5-5.8v-.9c0-.5-.4-.8-.8-.8-.5 0-.8.4-.8.8v.9c-2.8.4-5 2.8-5 5.8v2.3c0 1.6-.7 3.2-2 4.3-.3.3-.5.7-.5 1.1 0 .8.7 1.5 1.5 1.5h13.8c.8 0 1.5-.7 1.5-1.5-.2-.4-.4-.8-.7-1.1z" fill="#004195"/><path class="st0" d="M14.7 25c1.5 0 2.8-1.1 3.1-2.5h-6.1c.2 1.4 1.5 2.5 3 2.5z"/></svg>