<?xml version="1.0" encoding="utf-8"?>
<!DOCTYPE svg PUBLIC "-//W3C//DTD SVG 1.1//EN" "http://www.w3.org/Graphics/SVG/1.1/DTD/svg11.dtd">
<svg version="1.1" id="Layer_1" xmlns="http://www.w3.org/2000/svg" xmlns:xlink="http://www.w3.org/1999/xlink" x="0px" y="0px"
	 width="30px" height="30px" viewBox="-5 -7 30 30" enable-background="new -5 -7 30 30" xml:space="preserve">
<path fill="#8CA3A6" d="M17.315,6.316h3.157C20.764,6.316,21,6.081,21,5.79c0-0.291-0.236-0.526-0.527-0.526h-3.157
	c-0.29,0-0.526,0.236-0.526,0.526C16.789,6.081,17.025,6.316,17.315,6.316z"/>
<path fill="#8CA3A6" d="M20.473,7.368h-3.157c-0.29,0-0.526,0.235-0.526,0.526c0,0.291,0.236,0.526,0.526,0.526h3.157
	C20.764,8.421,21,8.185,21,7.895C21,7.604,20.764,7.368,20.473,7.368z"/>
<path fill="#8CA3A6" d="M20.473,9.474h-3.157c-0.29,0-0.526,0.235-0.526,0.526s0.236,0.526,0.526,0.526h3.157
	C20.764,10.526,21,10.291,21,10S20.764,9.474,20.473,9.474z"/>
<path fill="#8CA3A6" d="M13.104,4.737c0,2.616-2.121,4.737-4.737,4.737c-2.616,0-4.737-2.121-4.737-4.737C3.63,2.121,5.75,0,8.367,0
	C10.982,0,13.104,2.121,13.104,4.737z"/>
<path fill="#8CA3A6" d="M11.526,10.526H4.883C2.739,10.526,1,12.266,1,14.41l0,0v0.854c0,0.291,0.236,0.525,0.526,0.525h13.685
	c0.29,0,0.525-0.234,0.525-0.525v-0.527C15.736,12.411,13.852,10.526,11.526,10.526z"/>
</svg>
