<svg width="32" height="32" fill="none" xmlns="http://www.w3.org/2000/svg"><path fill-rule="evenodd" clip-rule="evenodd" d="M15.633 9.321c-3.087 0-4.569 2.003-4.569 3.803v3.61a.66.66 0 0 1-.226.497l-1.428 1.25a.666.666 0 0 1-.057.044.073.073 0 0 0-.032.06v1.085c0 .04.033.073.074.073h12.477c.04 0 .073-.033.073-.073v-1.085a.073.073 0 0 0-.032-.06.66.66 0 0 1-.057-.045l-1.428-1.249a.66.66 0 0 1-.226-.497v-3.61c0-1.875-1.474-3.803-4.569-3.803Zm2.97 11.743h-5.935c.1.418.37.782.756.995.766.423 1.5.62 2.21.62.709 0 1.445-.198 2.214-.621.385-.213.657-.576.756-.994Zm-7.275 0c.112.902.65 1.706 1.457 2.152.931.513 1.883.784 2.848.784.966 0 1.92-.271 2.852-.785a2.863 2.863 0 0 0 1.46-2.15h1.927c.77 0 1.394-.625 1.394-1.395v-1.085c0-.442-.21-.857-.564-1.12l-1.18-1.03v-3.31C21.523 10.45 19.389 8 15.634 8c-3.763 0-5.89 2.541-5.89 5.124v3.31l-1.18 1.031A1.395 1.395 0 0 0 8 18.585v1.085c0 .77.624 1.394 1.395 1.394h1.933Z" fill="#646F79"/></svg>