<svg width="30" height="30" viewBox="5 5 35 35" fill="none" xmlns="http://www.w3.org/2000/svg"><path d="M13.066 24.566h-1.392a.673.673 0 00-.674.674v8.086c0 .373.301.674.674.674h1.392a2.024 2.024 0 002.022-2.021v-5.391a2.024 2.024 0 00-2.022-2.022z" fill="#2987FD"/><path d="M26.588 11c-4.084 0-7.412 3.329-7.412 7.412 0 1.779.633 3.41 1.684 4.69a6.014 6.014 0 012.318 1.267c.127.095.199.094.337.108h2.4c.929 0 1.751.458 2.223 1.186C31.48 24.948 34 21.97 34 18.413 34 14.328 30.671 11 26.588 11z" fill="#134478"/><path d="M33.796 25.873a1.234 1.234 0 00-.31-.336c-.496-.434-1.332-.393-1.82.134l-3.059 3.531-.094.108a1.988 1.988 0 01-1.482.647h-5.274a.667.667 0 01-.674-.674c0-.377.296-.674.674-.674h4.155c.741 0 1.348-.606 1.348-1.347v-.014a1.349 1.349 0 00-1.348-1.334h-2.484c-.404 0-.837-.148-1.186-.445-1.644-1.442-4.043-1.536-5.808-.31v8.288c1.334.364 2.708.553 4.096.553h6.056c1.482 0 2.884-.7 3.773-1.887l3.235-4.312c.472-.62.507-1.47.202-1.927z" fill="#134478"/><path d="M29.75 19.249a.719.719 0 00-.992.224c-.32.507-.848 1.112-1.544 1.117-.58.004-1.22-.317-1.684-1.067l.958-.006a.719.719 0 00-.01-1.438l-1.42.01a3.72 3.72 0 01-.005-.719l1.42-.01a.719.719 0 00-.01-1.437l-.958.007c.454-.757 1.089-1.086 1.67-1.09.696-.005 1.232.593 1.559 1.096a.719.719 0 101.205-.784c-1.88-2.888-5.025-1.902-6.027.788l-.323.003a.719.719 0 10.01 1.437c.03 0 0-.028.002.36.003.386.032.359.003.359a.719.719 0 00-.116 1.427c.083.014.11.01.449.008 1.031 2.658 4.187 3.634 6.036.706a.719.719 0 00-.224-.991z" fill="#fff"/></svg>