<?xml version="1.0" encoding="utf-8"?>
<!DOCTYPE svg PUBLIC "-//W3C//DTD SVG 1.1//EN" "http://www.w3.org/Graphics/SVG/1.1/DTD/svg11.dtd">
<svg version="1.1" id="Layer_1" xmlns="http://www.w3.org/2000/svg" xmlns:xlink="http://www.w3.org/1999/xlink" x="0px" y="0px"
	 width="30px" height="30px" viewBox="-5 -5 30 30" enable-background="new -5 -5 30 30" xml:space="preserve">
<path fill="#2987FD" d="M9.9,0h0.3c1.5,0,3,0.4,4.399,1.1c2.2,1.1,3.9,3,4.801,5.2C19.7,7.4,20,8.6,20,9.8v0.3
	c0,1.7-0.5,3.3-1.3,4.7c-0.7,1.3-1.7,2.4-3,3.3C14.1,19.3,12.1,19.9,10.1,19.9H9.8c-1.9,0-3.7-0.601-5.2-1.601
	C1.8,16.5,0.1,13.4,0,10.1V9.9c0-2,0.7-4,1.8-5.6c1-1.4,2.2-2.5,3.7-3.2C6.8,0.4,8.3,0,9.9,0z M9.1,5c0,0.1,0,0.3,0,0.5
	c0,1.2,0,2.4,0,3.6c-1.3,0-2.5,0-3.8,0C5,9.1,4.7,9.2,4.5,9.5c-0.2,0.4-0.1,0.9,0.3,1.2c0.2,0.1,0.4,0.2,0.7,0.2c1.2,0,2.4,0,3.6,0
	c0,1.199,0,2.5,0,3.699c0,0.5,0.4,0.9,0.9,1c0.2,0,0.3,0,0.5-0.1c0.3-0.2,0.5-0.5,0.5-0.8c0-1.3,0-2.5,0-3.8c1.2,0,2.4,0,3.6,0
	c0.101,0,0.301,0,0.4,0c0.3-0.101,0.5-0.301,0.6-0.601c0.101-0.4,0-0.8-0.3-1c-0.2-0.1-0.399-0.2-0.6-0.2c-1.2,0-2.5,0-3.7,0
	c0-1.2,0-2.5,0-3.7c0-0.5-0.4-0.9-0.9-1c-0.1,0-0.2,0-0.2,0C9.5,4.5,9.3,4.7,9.1,5z"/>
</svg>
