<svg xmlns="http://www.w3.org/2000/svg" width="30" height="30" viewBox="-5 -4.5 30 30"><path fill="#2987FD" d="M.3 6c.2-.1.4-.2.6-.2h11.6c.3 0 .6.2.8.4.1.2.1.5.1.7v2.2c0 .5-.4.8-.801.8h-1.3c-.2 0-.399-.1-.601-.2C9.9 9 9.1 8.3 8.4 7.5H1.7v3.3L5 14.1c.1.1.2.1.3.1h3.1c.5 0 .8.4.8.801 0 .5-.4.8-.8.8H.9c-.4 0-.8-.3-.8-.8V6.6C0 6.4.1 6.2.3 6zm9.7 5.699c0-.5.4-.799.8-.799h8.3c.5 0 .801.4.9.799V19.3c0 .399-.4.8-.801.8H10.8c-.3 0-.5-.199-.7-.4-.1-.3-.1-.501-.1-.6v-7.401zm1.699 2.5V15.9H13.4v-1.701h-1.701zm2.5 0V15.9H15.9v-1.701h-1.701zm2.5 0V15.9H18.4v-1.701h-1.701zm-5 2.5V18.4H13.4v-1.701h-1.701zm2.5 0V18.4H15.9v-1.701h-1.701zm2.5 0V18.4H18.4v-1.701h-1.701z"/><path fill="#004195" d="M6.3 9.2c.9-.2 1.8.4 2 1.3.1.5 0 1-.3 1.4-.6.7-1.6.9-2.3.3-.7-.6-.9-1.6-.3-2.3l.1-.1c.1-.3.5-.5.8-.6zM15 0h4.2v4.2c0 .5-.399.8-.8.8-.5 0-.8-.4-.8-.8V2.8L15.4 5c-.3.3-.8.3-1.2 0-.3-.3-.3-.8 0-1.2l2.2-2.2h-1.301c-.5 0-.799-.4-.799-.8-.1-.4.2-.8.7-.8z"/></svg>