<svg xmlns="http://www.w3.org/2000/svg" id="icon-file_csv-hover" width="30" height="30" viewBox="0 0 30 30"><metadata><?xpacket begin="﻿" id="W5M0MpCehiHzreSzNTczkc9d"?><x:xmpmeta xmlns:x="adobe:ns:meta/" x:xmptk="Adobe XMP Core 5.6-c142 79.160924, 2017/07/13-01:06:39"><rdf:RDF xmlns:rdf="http://www.w3.org/1999/02/22-rdf-syntax-ns#"><rdf:Description/></rdf:RDF></x:xmpmeta><?xpacket end="w"?></metadata><defs><style>.cls-1,.cls-2{fill:#305dfb;fill-rule:evenodd}.cls-2{fill:#fff}</style></defs><g id="Icon"><path id="Shape_1064_copy_3" d="M11.693,8H22.017a0.469,0.469,0,0,1,.469.465v19.07a0.469,0.469,0,0,1-.469.465H7.469A0.469,0.469,0,0,1,7,27.535V12.884Z" class="cls-1" data-name="Shape 1064 copy 3" transform="translate(-2.5 -3)"/><path id="Shape_1064_copy" d="M11.223,12.884a0.469,0.469,0,0,0,.469-0.465V8L7,12.884h4.223ZM28,24.4a1.7,1.7,0,0,1-1.706,1.686H10.935A1.7,1.7,0,0,1,9.229,24.4V17.651a1.7,1.7,0,0,1,1.706-1.686H26.294A1.7,1.7,0,0,1,28,17.651V24.4Z" class="cls-1" data-name="Shape 1064 copy" transform="translate(-2.5 -3)"/><path id="Shape_1064_copy_2" d="M15.233,21.976l0.975,0.305a2.2,2.2,0,0,1-3.7.919,2.546,2.546,0,0,1-.638-1.83,2.671,2.671,0,0,1,.641-1.908,2.213,2.213,0,0,1,1.687-.68,2.089,2.089,0,0,1,1.484.534,1.934,1.934,0,0,1,.509.906l-0.995.235a1.044,1.044,0,0,0-.369-0.6,1.063,1.063,0,0,0-.681-0.222,1.138,1.138,0,0,0-.9.393,1.907,1.907,0,0,0-.345,1.272,2.042,2.042,0,0,0,.34,1.329,1.108,1.108,0,0,0,.882.4,1.012,1.012,0,0,0,.689-0.251A1.457,1.457,0,0,0,15.233,21.976Zm1.582,0.208,0.978-.094a1.181,1.181,0,0,0,.358.715,1.089,1.089,0,0,0,.728.228,1.133,1.133,0,0,0,.732-0.2,0.6,0.6,0,0,0,.247-0.475,0.45,0.45,0,0,0-.1-0.3,0.816,0.816,0,0,0-.362-0.212c-0.117-.04-0.386-0.112-0.8-0.215a2.734,2.734,0,0,1-1.134-.487A1.277,1.277,0,0,1,17,20.153a1.254,1.254,0,0,1,.215-0.7,1.341,1.341,0,0,1,.621-0.5,2.513,2.513,0,0,1,.978-0.171,2.119,2.119,0,0,1,1.411.406,1.426,1.426,0,0,1,.5,1.085l-1,.043a0.834,0.834,0,0,0-.277-0.545A1.024,1.024,0,0,0,18.8,19.6a1.164,1.164,0,0,0-.687.178,0.358,0.358,0,0,0-.159.305,0.375,0.375,0,0,0,.149.3,2.64,2.64,0,0,0,.924.329,4.886,4.886,0,0,1,1.084.354,1.388,1.388,0,0,1,.55.5,1.457,1.457,0,0,1,.2.784,1.439,1.439,0,0,1-.238.792,1.418,1.418,0,0,1-.672.549,2.846,2.846,0,0,1-1.083.179,2.173,2.173,0,0,1-1.45-.432A1.862,1.862,0,0,1,16.815,22.184Zm6.161,1.6L21.2,18.865h1.09l1.26,3.64,1.219-3.64h1.066l-1.783,4.919H22.976Z" class="cls-2" data-name="Shape 1064 copy 2" transform="translate(-2.5 -3)"/></g></svg>