<?xml version="1.0" encoding="utf-8"?>
<!DOCTYPE svg PUBLIC "-//W3C//DTD SVG 1.1//EN" "http://www.w3.org/Graphics/SVG/1.1/DTD/svg11.dtd">
<svg version="1.1" id="Layer_1" xmlns="http://www.w3.org/2000/svg" xmlns:xlink="http://www.w3.org/1999/xlink" x="0px" y="0px"
	 width="30px" height="30px" viewBox="-4.5 -5 30 30" enable-background="new -4.5 -5 30 30" xml:space="preserve">
<path fill="#2987FD" d="M4.693,0h10.325c0.258,0,0.467,0.208,0.469,0.465v19.07C15.484,19.793,15.275,20,15.018,20H0.469
	C0.211,20,0.001,19.793,0,19.535V4.884L4.693,0z"/>
<path fill="#004195" d="M4.693,4.419c-0.002,0.258-0.212,0.466-0.47,0.465H0L4.693,0V4.419z M19.294,18.086
	C20.23,18.09,20.992,17.336,21,16.4v-6.75c-0.01-0.934-0.771-1.684-1.706-1.681H3.935C2.999,7.967,2.237,8.72,2.229,9.656V16.4
	c0.008,0.936,0.77,1.689,1.706,1.686H19.294z"/>
<path fill="#FFFFFF" d="M9.815,14.188L9.815,14.188c0.032,0.484,0.252,0.936,0.614,1.26c0.416,0.313,0.93,0.467,1.45,0.432
	c0.369,0.012,0.736-0.05,1.082-0.18c0.276-0.107,0.512-0.3,0.672-0.549c0.156-0.234,0.238-0.51,0.238-0.791
	c0.009-0.275-0.061-0.547-0.199-0.783c-0.135-0.214-0.325-0.387-0.551-0.5c-0.346-0.16-0.711-0.279-1.084-0.354
	c-0.326-0.051-0.639-0.162-0.924-0.329c-0.094-0.07-0.15-0.182-0.15-0.3c-0.002-0.122,0.058-0.237,0.16-0.306
	c0.205-0.129,0.444-0.191,0.687-0.178c0.225-0.017,0.448,0.042,0.636,0.166c0.158,0.14,0.258,0.334,0.277,0.545l1-0.043
	c-0.001-0.418-0.184-0.814-0.5-1.086c-0.408-0.299-0.908-0.442-1.412-0.405c-0.334-0.009-0.667,0.05-0.978,0.172
	c-0.253,0.1-0.47,0.274-0.621,0.5c-0.14,0.206-0.215,0.45-0.216,0.7c-0.003,0.382,0.165,0.744,0.458,0.99
	c0.336,0.246,0.724,0.412,1.134,0.486c0.418,0.104,0.688,0.174,0.805,0.214c0.137,0.038,0.262,0.112,0.361,0.214
	c0.07,0.084,0.107,0.189,0.104,0.299c-0.003,0.189-0.095,0.365-0.247,0.476c-0.214,0.148-0.473,0.22-0.732,0.2
	c-0.262,0.015-0.521-0.066-0.728-0.229c-0.199-0.188-0.326-0.441-0.358-0.714L9.815,14.188v-0.004V14.188z M8.233,13.98l0.974,0.306
	c-0.217,0.756-0.821,1.339-1.585,1.528c-0.763,0.189-1.57-0.043-2.115-0.61c-0.445-0.502-0.675-1.16-0.638-1.83
	c-0.043-0.694,0.187-1.38,0.641-1.907c0.439-0.458,1.053-0.706,1.687-0.681c0.545-0.022,1.078,0.169,1.484,0.534
	c0.25,0.25,0.426,0.563,0.509,0.906l-1,0.234c-0.049-0.237-0.18-0.449-0.369-0.6c-0.194-0.15-0.435-0.229-0.68-0.223
	c-0.344-0.012-0.675,0.133-0.9,0.393c-0.263,0.369-0.386,0.82-0.346,1.272c-0.043,0.469,0.077,0.938,0.34,1.328
	c0.217,0.262,0.542,0.409,0.882,0.399c0.253,0.006,0.499-0.084,0.689-0.25c0.225-0.217,0.374-0.498,0.427-0.805V13.98z
	 M14.197,10.869l1.779,4.919h1.072l1.783-4.919h-1.065l-1.22,3.64l-1.26-3.64H14.197z"/>
</svg>
