<svg version="1.1" id="Layer_1" xmlns="http://www.w3.org/2000/svg" x="0" y="0" viewBox="0 0 30 30" xml:space="preserve"><style>.st1{fill:#2987fd}</style><path d="M11.6 16.2c.1 0 .3-.1.4-.1h.3c.2-.6.8-1 1.4-1h1.1c.3 0 .6.1.8.3 0-.2.1-.4.2-.6l.7-1.2c.1-.1.1-.2.2-.3l-1.2-1 .5-.5 1.3 1.1c.1 0 .1 0 .2-.1.1 0 .3-.1.4-.1.2 0 .4 0 .6.1.1-.8.8-1.4 1.6-1.4h.7V7.2c0-.7-.5-1.2-1.2-1.2H6.2C5.5 6 5 6.5 5 7.2v8.1c0 .7.5 1.2 1.2 1.2H11l.6-.3zM6.8 7.5c.2-.2.5-.2.7 0l4.9 4.4c.3.2.7.2.9 0l4.9-4.4c.2-.2.5-.2.7 0 .2.2.2.5 0 .7L14 12.6c-.3.3-.7.4-1.1.4-.4 0-.8-.1-1.1-.4l-5-4.4c-.2-.2-.2-.5 0-.7zm0 7.7c-.1.1-.1.1-.2.1s-.2 0-.3-.1c-.1-.1-.1-.4 0-.5l3.4-2.8.5.5-3.4 2.8z" fill="#004195"/><path class="st1" d="M20.8 15.4c-.8 0-1.5.7-1.5 1.5s.7 1.5 1.5 1.5 1.5-.7 1.5-1.5-.6-1.5-1.5-1.5z"/><path class="st1" d="M24.7 17.7l-.5-.3V17v-.4l.5-.3c.1-.1.2-.2.3-.4 0-.2 0-.3-.1-.4l-.7-1.2c-.1-.2-.3-.3-.5-.3-.1 0-.2 0-.3.1l-.5.3c-.2-.2-.5-.3-.7-.4v-.6c0-.3-.3-.6-.6-.6h-1.4c-.3 0-.6.3-.6.6v.6c-.3.1-.5.3-.7.4l-.5-.3c-.1-.1-.2-.1-.3-.1h-.2c-.2 0-.3.1-.4.3l-.7 1.2c-.2.3-.1.6.2.8l.3.2s.1 0 .1.1l.1.1c.1.1.3.2.3.4l.6 1c.2.3.2.7.1 1.1l-.3.6.2.2.4-.2c.2.2.5.3.7.4v.6c0 .3.3.6.6.6h1.4c.3 0 .6-.3.6-.6v-.6c.3-.1.5-.3.7-.4l.5.3c.1.1.2.1.3.1h.2c.2 0 .3-.1.4-.3l.7-1.2c.2-.5.1-.9-.2-1zm-3.9 1.4c-1.2 0-2.2-1-2.2-2.2 0-1.2 1-2.2 2.2-2.2 1.2 0 2.2 1 2.2 2.2 0 1.2-1 2.2-2.2 2.2zM17.4 20.2l-.5-.2v-.3-.3l.4-.2c.1-.1.2-.2.2-.3v-.4l-.6-1c-.1-.2-.2-.2-.4-.2-.1 0-.2 0-.2.1l-.4.2c-.2-.1-.4-.3-.6-.3v-.5c0-.3-.2-.5-.5-.5h-1.1c-.3 0-.5.2-.5.5v.5l-.6.3-.4-.2c-.1 0-.2-.1-.2-.1h-.1c-.1 0-.2.1-.3.2l-.6 1c-.1.2-.1.5.2.6l.4.2v.6l-.4.2c-.2.1-.3.4-.2.6l.6 1c.1.1.2.2.3.2h.1c.1 0 .2 0 .2-.1l.4-.2c.2.1.4.3.6.3v.5c0 .3.2.5.5.5h1.1c.3 0 .5-.2.5-.5v-.5l.6-.3.4.2c.1 0 .2.1.2.1h.1c.1 0 .2-.1.3-.2l.6-1c.2-.1.1-.3-.1-.5zm-3.1.7c-.7 0-1.3-.6-1.3-1.3 0-.7.6-1.3 1.3-1.3.7 0 1.3.6 1.3 1.3 0 .8-.6 1.3-1.3 1.3z"/></svg>