<?xml version="1.0" encoding="utf-8"?>
<!DOCTYPE svg PUBLIC "-//W3C//DTD SVG 1.1//EN" "http://www.w3.org/Graphics/SVG/1.1/DTD/svg11.dtd">
<svg version="1.1" id="Layer_1" xmlns="http://www.w3.org/2000/svg" xmlns:xlink="http://www.w3.org/1999/xlink" x="0px" y="0px"
	 width="30px" height="30px" viewBox="-5 -4.5 30 30" enable-background="new -5 -4.5 30 30" xml:space="preserve">
<path fill="#004195" d="M17.7,5.6H1.1C0.8,5.6,0.4,5.8,0.2,6c0,0.2-0.1,0.3-0.2,0.5c0,0.1,0,0.2,0,0.3v13C0,20.5,0.5,21,1.1,21h16.6
	c0.6,0,1.1-0.5,1.1-1.2v-3.3h-6.7c-1.1,0-1.899-0.9-1.899-2V12c0-0.5,0.2-1,0.5-1.4c0.5-0.4,1-0.6,1.5-0.6h6.7V6.8
	C18.9,6.2,18.4,5.6,17.7,5.6z"/>
<path fill="#2987FD" d="M4.7,4.8l8-2.3L12.3,1.6c-0.3-0.6-0.9-0.8-1.5-0.5L3.6,4.8H4.7z M15.1,2.6c-0.1,0-0.2,0-0.3,0l-1.9,0.5
	L7.2,4.8h9.3l-0.4-1.3C16.1,3,15.6,2.6,15.1,2.6z M19.6,11.1c-0.1-0.1-0.2-0.2-0.4-0.2c-0.1,0-0.199-0.1-0.399-0.1h-6.7
	c-0.6,0-1.1,0.5-1.1,1.2v2.6c0,0.6,0.5,1.2,1.1,1.2h6.7c0.1,0,0.2,0,0.399-0.101c0.101-0.1,0.301-0.1,0.4-0.199
	c0.2-0.2,0.4-0.5,0.4-0.9V12C20,11.6,19.899,11.3,19.6,11.1z M14.5,13.5c0,0.3-0.2,0.6-0.601,0.6H13.5c-0.301,0-0.601-0.3-0.601-0.6
	v-0.4c0-0.199,0.101-0.3,0.2-0.5c0.1-0.1,0.2-0.1,0.3-0.1H14c0.3,0,0.6,0.3,0.6,0.6v0.4C14.5,13.5,14.5,13.5,14.5,13.5z"/>
</svg>
