<?xml version="1.0" encoding="utf-8"?>
<!DOCTYPE svg PUBLIC "-//W3C//DTD SVG 1.1//EN" "http://www.w3.org/Graphics/SVG/1.1/DTD/svg11.dtd">
<svg version="1.1" id="Layer_1" xmlns="http://www.w3.org/2000/svg" xmlns:xlink="http://www.w3.org/1999/xlink" x="0px" y="0px"
	 width="30px" height="30px" viewBox="-8.5 -5 30 30" enable-background="new -8.5 -5 30 30" xml:space="preserve">
<path fill="#2987FD" d="M11.703,5.7c0.1-3-2.301-5.6-5.4-5.7c-3,0.1-5.4,2.7-5.3,5.7c0,3.6,3.3,7.1,5,8.7l0.3,0.3
	C7.803,13.3,11.703,9.5,11.703,5.7z M9.904,5.233C9.786,3.338,8.128,1.799,6.233,1.917c-1.895,0-3.435,1.54-3.316,3.553v0.118
	c0.119,1.895,1.777,3.435,3.671,3.316C8.483,8.786,10.023,7.128,9.904,5.233z"/>
<path fill="#004195" d="M6.5,20C3.3,20,0,19,0,17.199c0-1.3,1.6-2.199,3.7-2.6c0.4,0.4,0.8,0.8,1.1,1.1c-2.3,0.301-3.6,1-3.6,1.5
	s2,1.601,5.3,1.601s5.3-1,5.3-1.601c0-0.5-1.399-1.199-3.7-1.5C8.4,15.399,8.8,15,9.2,14.6c2.1,0.4,3.8,1.3,3.8,2.6
	C13,19,9.7,20,6.5,20L6.5,20z"/>
</svg>
