<svg version="1.1" id="prefix__Layer_1" xmlns="http://www.w3.org/2000/svg" x="0" y="0" viewBox="0 0 30 30" xml:space="preserve"><style>.prefix__st3{fill:#fff}</style><path d="M22.4 7L5.9 10.2c.1.9-.4 1.7-1.3 1.8l2.1 10.7c.4-.1.8 0 1.2.2.3.2.6.6.6 1L25 20.7c-.2-.8.4-1.6 1.2-1.8l-2-10.7c-.4.1-.8 0-1.2-.2-.3-.2-.5-.6-.6-1z" fill="#2987FD"/><path d="M23.9 10.5H7c0 .8-.6 1.5-1.5 1.5v10.9c.4 0 .8.2 1.1.4.3.4.4.7.4 1.1h16.8c0-.8.7-1.5 1.5-1.5V12c-.4 0-.8-.2-1.1-.4-.2-.3-.3-.7-.3-1.1z" fill="#004195"/><path d="M12.8 13.8l2.5 1 .1.1v3.4l-.3-.1-1.1-.3v3.3H9.7v-3.3l-1.1.3-.3.1v-3.4l.1-.1 2.4-1h2zm.5 2.8l1.1.3v-1.4l-1.7-.7h-1.6l-1.7.7v1.4l1.1-.3.3-.1v3.7H13v-3.7l.3.1z" fill-rule="evenodd" clip-rule="evenodd" fill="#fff"/><path class="prefix__st3" d="M17.1 13.8h5.5v1.4h-5.5zM17.1 16.8h5.5v1.4h-5.5zM17.1 19.7H21v1.4h-3.9z"/></svg>