<svg width="30" height="30" fill="none" xmlns="http://www.w3.org/2000/svg"><path d="M10 25a1.667 1.667 0 100-3.333A1.667 1.667 0 0010 25zM20 25a1.667 1.667 0 100-3.333A1.667 1.667 0 0020 25z" fill="#2987FD"/><path d="M21.991 8.333h-.741a.416.416 0 00-.417.417v1.667c0 .389-.176.748-.483.987a.416.416 0 00-.158.381 1.24 1.24 0 01-.356 1.04l-1.179 1.178a1.225 1.225 0 01-1.037.356.415.415 0 00-.383.158c-.24.307-.599.483-.987.483h-1.667c-.388 0-.748-.176-.987-.483a.419.419 0 00-.382-.158 1.228 1.228 0 01-1.038-.356l-1.178-1.179a1.24 1.24 0 01-.357-1.039.416.416 0 00-.158-.381 1.242 1.242 0 01-.483-.987V8.75a.416.416 0 00-.417-.417h-.9l-.339-1.082a.834.834 0 00-.796-.584H5.417A.417.417 0 005 7.083v.834c0 .23.187.416.417.416h1.519l2.634 8.419-1.237 1.236a1.661 1.661 0 00-.361 1.816c.259.625.863 1.03 1.54 1.03H21.25c.23 0 .417-.187.417-.417v-.834a.417.417 0 00-.417-.416H9.512l1.666-1.667h7.612c.643 0 1.235-.376 1.508-.957l2.908-6.179c.083-.178.127-.375.127-.57v-.119c0-.74-.602-1.342-1.342-1.342z" fill="#004195"/><path d="M11.15 10.82l.797.2-.423.706a.417.417 0 00.063.51l1.178 1.178c.136.136.347.16.51.062l.705-.423.199.798a.417.417 0 00.404.316h1.667c.191 0 .358-.13.405-.316l.199-.798.705.423a.419.419 0 00.51-.063l1.178-1.178a.417.417 0 00.062-.509l-.423-.706.798-.2a.417.417 0 00.316-.403V8.75a.417.417 0 00-.316-.404l-.798-.2.423-.705a.417.417 0 00-.062-.51l-1.179-1.178a.417.417 0 00-.51-.063l-.704.424-.2-.799A.417.417 0 0016.25 5h-1.667a.417.417 0 00-.404.315l-.2.799-.704-.423a.418.418 0 00-.51.062l-1.178 1.179a.417.417 0 00-.063.509l.423.705-.798.2a.417.417 0 00-.316.404v1.667c0 .19.13.357.316.404zm4.267-3.32c1.149 0 2.083.935 2.083 2.083a2.086 2.086 0 01-2.083 2.084 2.086 2.086 0 01-2.084-2.084c0-1.148.935-2.083 2.084-2.083z" fill="#2987FD"/></svg>