<svg xmlns="http://www.w3.org/2000/svg" width="30" height="30" viewBox="7.5 7.5 30 30" xml:space="preserve"><path fill="#134478" d="M31.242 13H14.758c-.973 0-1.758.837-1.758 1.875v12.5c0 1.037.785 1.875 1.758 1.875h1.797v3.125c0 .25.141.475.363.574.211.1.469.051.633-.137l3.352-3.563h10.34c.973 0 1.758-.838 1.758-1.875v-12.5C33 13.837 32.215 13 31.242 13z"/><path opacity=".2" d="M25.191 17c-1.063 0-1.762.579-2.188 1.17-.424-.591-1.124-1.17-2.187-1.17-1.575 0-2.813 1.337-2.813 3.047 0 1.839 1.375 3.021 3.462 4.822.363.295.738.617 1.125.977a.632.632 0 0 0 .826 0c.388-.359.775-.682 1.125-.99 2.088-1.787 3.463-2.97 3.463-4.809 0-1.71-1.237-3.047-2.813-3.047z"/><path fill="#FFF" d="M25.051 17c-.996 0-1.652.527-2.051 1.066-.398-.539-1.055-1.066-2.051-1.066-1.477 0-2.637 1.219-2.637 2.777 0 1.676 1.289 2.754 3.246 4.395.34.27.691.563 1.055.891a.604.604 0 0 0 .774 0c.363-.328.727-.621 1.055-.902 1.957-1.629 3.246-2.707 3.246-4.383 0-1.559-1.161-2.778-2.637-2.778z"/></svg>