<svg xmlns="http://www.w3.org/2000/svg" xml:space="preserve" width="30" height="30" shape-rendering="geometricPrecision" text-rendering="geometricPrecision" image-rendering="optimizeQuality" fill-rule="evenodd" clip-rule="evenodd"><path fill="#134478" fill-rule="nonzero" d="M17.26 9.49c0-1.69-2.74-3.06-6.12-3.06S5.02 7.8 5.02 9.49s2.74 3.06 6.12 3.06 6.12-1.37 6.12-3.06z"/><path fill="#134478" fill-rule="nonzero" d="M5.02 11.99v1.17c0 1.75 2.63 3.06 6.12 3.06s6.12-1.31 6.12-3.06v-1.17c-1.27 1.11-3.44 1.79-6.12 1.79-2.67 0-4.85-.68-6.12-1.79z"/><path fill="#134478" fill-rule="nonzero" d="M5.02 15.66v1.18c0 1.74 2.63 3.05 6.12 3.05s6.12-1.31 6.12-3.05v-1.18c-1.27 1.11-3.44 1.79-6.12 1.79-2.67 0-4.85-.68-6.12-1.79z"/><path fill="#134478" fill-rule="nonzero" d="M5.02 19.33v1.18c0 1.74 2.63 3.06 6.12 3.06s6.12-1.32 6.12-3.06v-1.18c-1.27 1.11-3.44 1.79-6.12 1.79-2.67 0-4.85-.68-6.12-1.79z"/><path fill="#2987FD" fill-rule="nonzero" d="M24.98 14.42c0-1.1-1.78-1.99-3.98-1.99s-3.98.89-3.98 1.99 1.78 1.99 3.98 1.99 3.98-.89 3.98-1.99z"/><path fill="#2987FD" fill-rule="nonzero" d="M17.02 16.04v.76c0 1.14 1.71 1.99 3.98 1.99s3.98-.85 3.98-1.99v-.76c-.83.72-2.24 1.16-3.98 1.16-1.74 0-3.15-.44-3.98-1.16z"/><path fill="#2987FD" fill-rule="nonzero" d="M17.02 18.43v.76c0 1.13 1.71 1.99 3.98 1.99s3.98-.86 3.98-1.99v-.76c-.83.72-2.24 1.16-3.98 1.16-1.74 0-3.15-.44-3.98-1.16z"/><path fill="#2987FD" fill-rule="nonzero" d="M17.02 20.81v.77c0 1.13 1.71 1.99 3.98 1.99s3.98-.86 3.98-1.99v-.77c-.83.73-2.24 1.17-3.98 1.17-1.74 0-3.15-.44-3.98-1.17z"/><path fill="none" d="M0 0h30v30H0z"/></svg>
