<?xml version="1.0" encoding="utf-8"?>
<!-- Generator: Adobe Illustrator 16.0.0, SVG Export Plug-In . SVG Version: 6.00 Build 0)  -->
<!DOCTYPE svg PUBLIC "-//W3C//DTD SVG 1.1//EN" "http://www.w3.org/Graphics/SVG/1.1/DTD/svg11.dtd">
<svg version="1.1" id="Layer_1" xmlns="http://www.w3.org/2000/svg" xmlns:xlink="http://www.w3.org/1999/xlink" x="0px" y="0px"
	 width="30px" height="30px" viewBox="7.5 7.5 30 30" enable-background="new 7.5 7.5 30 30" xml:space="preserve">
<path fill="#d91d46" d="M31.242,13H14.758C13.785,13,13,13.837,13,14.875v12.5c0,1.037,0.785,1.875,1.758,1.875h1.797v3.125
	c0,0.25,0.141,0.475,0.363,0.574c0.211,0.1,0.469,0.051,0.633-0.137l3.352-3.563h10.34c0.973,0,1.758-0.838,1.758-1.875v-12.5
	C33,13.837,32.215,13,31.242,13z"/>
<path opacity="0.2" enable-background="new    " d="M25.191,17c-1.063,0-1.762,0.579-2.188,1.17C22.579,17.579,21.879,17,20.816,17
	c-1.575,0-2.813,1.337-2.813,3.047c0,1.839,1.375,3.021,3.462,4.822c0.363,0.295,0.738,0.617,1.125,0.977
	C22.716,25.949,22.854,26,23.004,26c0.15,0,0.287-0.051,0.412-0.154c0.388-0.359,0.775-0.682,1.125-0.99
	c2.088-1.787,3.463-2.97,3.463-4.809C28.004,18.337,26.767,17,25.191,17z"/>
<path fill="#FFFFFF" d="M25.051,17c-0.996,0-1.652,0.527-2.051,1.066C22.602,17.527,21.945,17,20.949,17
	c-1.477,0-2.637,1.219-2.637,2.777c0,1.676,1.289,2.754,3.246,4.395c0.34,0.27,0.691,0.563,1.055,0.891
	c0.117,0.094,0.246,0.141,0.387,0.141s0.27-0.047,0.387-0.141c0.363-0.328,0.727-0.621,1.055-0.902
	c1.957-1.629,3.246-2.707,3.246-4.383C27.688,18.219,26.527,17,25.051,17z"/>
</svg>
