<svg version="1.1" id="prefix__Layer_1" xmlns="http://www.w3.org/2000/svg" x="0" y="0" viewBox="0 0 30 30" xml:space="preserve"><style>.prefix__st0{fill:#2987FD}.prefix__st1{fill:#004195}</style><path class="prefix__st0" d="M21.8 13.8H25c.3 0 .5-.2.5-.5s-.2-.5-.5-.5h-3.2c-.3 0-.5.2-.5.5s.2.5.5.5zM25 14.9h-3.2c-.3 0-.5.2-.5.5s.2.5.5.5H25c.3 0 .5-.2.5-.5s-.2-.5-.5-.5zM25 17h-3.2c-.3 0-.5.2-.5.5s.2.5.5.5H25c.3 0 .5-.2.5-.5s-.2-.5-.5-.5z"/><path class="prefix__st1" d="M17.6 12.2c0 2.6-2.1 4.7-4.7 4.7s-4.7-2.1-4.7-4.7 2.1-4.7 4.7-4.7 4.7 2.1 4.7 4.7zM16 18H9.4c-2.1 0-3.9 1.7-3.9 3.9v.9c0 .3.2.5.5.5h13.7c.3 0 .5-.2.5-.5v-.5c0-2.4-1.8-4.3-4.2-4.3z"/></svg>