<svg id="icon-providers" xmlns="http://www.w3.org/2000/svg" width="30" height="30" viewBox="0 0 30 30">
  <metadata><?xpacket begin="﻿" id="W5M0MpCehiHzreSzNTczkc9d"?>
<x:xmpmeta xmlns:x="adobe:ns:meta/" x:xmptk="Adobe XMP Core 5.6-c142 79.160924, 2017/07/13-01:06:39        ">
   <rdf:RDF xmlns:rdf="http://www.w3.org/1999/02/22-rdf-syntax-ns#">
      <rdf:Description rdf:about=""/>
   </rdf:RDF>
</x:xmpmeta>
                                                                                                    
                                                                                                    
                                                                                                    
                                                                                                    
                                                                                                    
                                                                                                    
                                                                                                    
                                                                                                    
                                                                                                    
                                                                                                    
                                                                                                    
                                                                                                    
                                                                                                    
                                                                                                    
                                                                                                    
                                                                                                    
                                                                                                    
                                                                                                    
                                                                                                    
                                                                                                    
                           
<?xpacket end="w"?></metadata>
<defs>
    <style>
      .cls-1 {
        fill: #134478;
      }

      .cls-1, .cls-2 {
        fill-rule: evenodd;
      }

      .cls-2 {
        fill: #8ca3a6;
      }
    </style>
  </defs>
  <g id="Icon">
    <path class="cls-1" d="M14.217,18.813a1.168,1.168,0,0,1,.525-0.032,1.508,1.508,0,0,1,.506.286,5.037,5.037,0,0,0,5.928-.078,0.932,0.932,0,0,1,.617-0.221,6.013,6.013,0,0,1,4.038,2.4,5.847,5.847,0,0,1,.692,1.143,0.81,0.81,0,0,1,.126.459,1.387,1.387,0,0,1-.18.349,9.99,9.99,0,0,1-.728,1.071,10.161,10.161,0,0,1-2.7,2.425A9.482,9.482,0,0,1,18.218,28h-0.16a9.793,9.793,0,0,1-2.494-.364,9.4,9.4,0,0,1-2.421-1.076,10.506,10.506,0,0,1-2.392-2.095,11,11,0,0,1-1.029-1.491A0.5,0.5,0,0,1,9.7,22.533,6.452,6.452,0,0,1,11.6,20,5.921,5.921,0,0,1,14.217,18.813Z" transform="translate(-3.156 -3)"/>
    <path id="Shape_2_copy" data-name="Shape 2 copy" class="cls-2" d="M18.1,8h0.122a4.792,4.792,0,0,1,2.907,1.057A5.364,5.364,0,0,1,22.415,15.8a5.118,5.118,0,0,1-1.645,1.788,4.694,4.694,0,0,1-5.2.013,5.226,5.226,0,0,1-2.282-3.646A5.35,5.35,0,0,1,14.512,9.71,4.856,4.856,0,0,1,18.1,8Z" transform="translate(-3.156 -3)"/>
  </g>
</svg>
