<svg width="23" height="23" viewBox="-3.5 -3.5 30 30" fill="none" xmlns="http://www.w3.org/2000/svg">
<path d="M0.00524085 10.0203C-0.0447123 10.4223 0.268798 10.7772 0.673903 10.7772H3.41531C3.74436 10.7772 4.0253 10.5396 4.07979 10.215C4.6074 7.07294 7.07289 4.6074 10.215 4.07984C10.5395 4.02535 10.7772 3.74441 10.7772 3.41531V0.673904C10.7772 0.268798 10.4223 -0.0447123 10.0203 0.00524086C7.49251 0.31938 5.10455 1.4882 3.29635 3.29636C1.4882 5.10455 0.31938 7.49251 0.00524085 10.0203Z" fill="#2987FD"/>
<path d="M15.7934 17.5501C14.5145 18.4632 13.0148 18.9459 11.4566 18.9459C7.79005 18.9459 4.68766 16.3184 4.07978 12.6982C4.02529 12.3737 3.74434 12.136 3.41529 12.136H0.673842C0.268737 12.136 -0.0447733 12.4909 0.00517982 12.8929V12.8929C0.72128 18.6549 5.64432 23 11.4566 23C14.0459 23 16.4946 22.1596 18.538 20.5695C18.8579 20.3207 18.8872 19.8478 18.6007 19.5613L16.6614 17.622C16.4285 17.3891 16.0614 17.3587 15.7934 17.5501Z" fill="#2987FD"/>
<path d="M12.6982 4.07977C16.3183 4.68766 18.9459 7.79005 18.9459 11.4566C18.9459 13.0148 18.4632 14.5144 17.5501 15.7934C17.3587 16.0614 17.3891 16.4285 17.622 16.6614L19.5614 18.6007C19.8479 18.8873 20.3207 18.8579 20.5696 18.5381L20.5697 18.538C22.1596 16.4947 23 14.046 23 11.4566C23 5.64431 18.6549 0.721276 12.8929 0.00517601H12.8929C12.4909 -0.0447772 12.1359 0.268733 12.1359 0.673839V3.41524C12.136 3.74434 12.3737 4.02528 12.6982 4.07977Z" fill="#134478"/>
<path d="M11.9053 6.82632H11.0063C10.6342 6.82632 10.3325 7.12802 10.3325 7.50015V15.3614H12.5792V7.50015C12.5792 7.12802 12.2775 6.82632 11.9053 6.82632Z" fill="#134478"/>
<path d="M13.9268 15.3614H15.4996C15.8718 15.3614 16.1735 15.0597 16.1735 14.6876V9.29703C16.1735 8.9249 15.8718 8.6232 15.4996 8.6232H13.9268V15.3614Z" fill="#134478"/>
<path d="M8.98498 10.4201H7.41388C7.04175 10.4201 6.74005 10.7218 6.74005 11.0939V14.6876C6.74005 15.0597 7.04175 15.3614 7.41388 15.3614H8.98498V10.4201Z" fill="#134478"/>
</svg>
