<svg xmlns="http://www.w3.org/2000/svg" width="30" height="30" viewBox="-5 -4.5 30 30"><path fill="#2987FD" d="M19.3 9.9c-.2-.2-.6-.2-.8 0-.2.2-.2.6 0 .8.2.2.3.5.3.8 0 .7-.6 1.2-1.2 1.2-.3-2.6-2.1-4.8-4.699-5.5-.2 1.9-1.801 3.4-3.8 3.2C7.3 10.3 6 8.8 5.9 7 5.1 6.2 4.1 5.7 3 5.7c-.4 0-.6.3-.6.6v.1l.4 2.7c-.7.7-1.1 1.6-1.4 2.5-.8.2-1.4.9-1.4 1.7v1.2c0 1 .8 1.8 1.8 1.8h.1c.4.8 1 1.5 1.6 2v2.1c0 .3.3.6.6.6h2.3c.3 0 .6-.3.6-.6v-.7c.2 0 .4.1.6.1h2.9v.6c0 .3.3.6.6.6h2.3c.3 0 .6-.3.6-.6v-1.3c2-1 3.3-3 3.5-5.199 1.3 0 2.4-1 2.4-2.301.1-.6-.1-1.2-.6-1.7zM4.1 12.8c-.3 0-.6-.3-.6-.6s.3-.6.6-.6.6.301.6.601-.2.599-.6.599zm7.1 0H7.7c-.3 0-.6-.3-.6-.6s.3-.6.6-.6h3.5c.3 0 .6.301.6.601s-.3.599-.6.599zM9.4 4.6c-1.3 0-2.3 1-2.3 2.3 0 1.3 1 2.3 2.3 2.3 1.3 0 2.3-1 2.3-2.3.1-1.3-1-2.3-2.3-2.3zM14.1 1c-1.3 0-2.3 1-2.3 2.3 0 1.3 1 2.3 2.3 2.3 1.301 0 2.301-1 2.301-2.3C16.4 2.1 15.4 1 14.1 1z"/><path fill="#004195" d="M10.4 4.8c-2-.8-3.8.9-3.3 2.8.3.7.9 1.4 1.7 1.6 1.6.4 3-.8 3-2.3.001-.9-.499-1.8-1.4-2.1zm4.7-3.6c-2-.8-3.799.9-3.299 2.8.199.8.799 1.4 1.599 1.6 1.6.4 3-.8 3-2.3 0-.9-.5-1.7-1.3-2.1z"/></svg>