<svg xmlns="http://www.w3.org/2000/svg" viewBox="0 0 30 30"><path d="M12.1 5c3.9 0 7.1 1.6 7.1 3.6 0 .5-.2 1-.6 1.5-1.2.1-2.3.6-3.3 1.2-.3.2-.6.4-.9.7-.7.1-1.5.2-2.3.2C8.2 12.1 5 10.5 5 8.6 5 6.6 8.2 5 12.1 5zm1 8.5h-1c-3.1 0-5.7-.8-7.1-2.1v1.4c0 2 3 3.6 7.1 3.6.1-.6.3-1.2.5-1.8.1-.3.3-.7.5-1.1zM12 17.9c-3.1 0-5.5-.8-7-2.1v1.4c0 2 3.1 3.6 7.1 3.6h.6c-.3-.6-.5-1.1-.6-1.7 0-.5-.1-.9-.1-1.2zm1.6 4.2c-.5 0-.9.1-1.4.1-3.1 0-5.7-.8-7.1-2.1v1.4c0 2 3.1 3.6 7.1 3.6 1.6 0 3.1-.2 4.3-.7-.8-.4-1.6-.9-2.2-1.5-.3-.3-.5-.6-.7-.8z" fill-rule="evenodd" clip-rule="evenodd" fill="#134478"/><path d="M19.5 12c-1.1 0-2.2.3-3.1.9-.9.6-1.6 1.5-2 2.5-.4 1-.5 2.1-.3 3.2s.7 2 1.5 2.8c.8.8 1.7 1.3 2.8 1.5s2.2.1 3.2-.3 1.9-1.1 2.5-2c.6-.9.9-2 .9-3.1 0-1.5-.6-2.9-1.6-3.9S21 12 19.5 12zm2.6 4.2l-2.7 3.3c0 .1-.1.1-.2.1s-.1.1-.2.1h-.2c-.1 0-.1-.1-.2-.1L17 18c-.1-.1-.2-.2-.2-.4 0-.1.1-.3.2-.4 0-.2.2-.2.3-.2.1 0 .3.1.4.2l1.2 1.2 2.3-2.8c.1-.1.2-.2.4-.2.1 0 .3 0 .4.1.1.1.2.2.2.4 0 0 0 .2-.1.3z" fill="#8ca3a6"/></svg>