<svg width="22" height="22" viewBox="0 0 22 22" fill="none" xmlns="http://www.w3.org/2000/svg">
<g clip-path="url(#clip0_423_1288)">
<path d="M10.6813 17.3968C10.6816 16.3094 10.975 15.2422 11.5306 14.3074C12.0862 13.3727 12.8834 12.605 13.8384 12.085C14.7934 11.5651 15.8709 11.3121 16.9576 11.3528C18.0442 11.3935 19.0998 11.7263 20.0132 12.3161C20.0197 11.868 20.0231 11.3897 20.0231 10.8737C20.0231 8.22035 19.9329 6.56434 19.7546 4.84902H19.7799C19.6813 3.8932 19.3163 2.98427 18.7264 2.22574C18.1365 1.46721 17.3455 0.889567 16.4434 0.558594C16.3957 0.540547 16.348 0.523359 16.2999 0.507031C15.9434 0.387196 15.5748 0.306935 15.2007 0.267695L15.1651 0.263828C13.7381 0.117305 13.5091 0 10.5 0C7.49086 0 7.00402 0.117305 5.57832 0.265977L5.54266 0.269844C5.15 0.311079 4.76344 0.397591 4.39066 0.527656V0.50832C3.46118 0.824346 2.6418 1.40025 2.02964 2.16776C1.41749 2.93528 1.03823 3.86222 0.936836 4.83871C0.758086 6.55746 0.666992 8.21519 0.666992 10.8737C0.666992 13.5321 0.758086 15.1899 0.936836 16.9086C1.05889 18.0815 1.58062 19.1767 2.41447 20.0105C3.24833 20.8442 4.34357 21.3659 5.51645 21.4878L5.55211 21.4917C6.9791 21.6404 7.2077 21.7577 10.2168 21.7577C11.2137 21.7577 11.9355 21.7448 12.5023 21.722C11.9251 21.1593 11.4666 20.4867 11.1538 19.7438C10.8411 19.0009 10.6804 18.2028 10.6813 17.3968Z" fill="#134478"/>
<path d="M5.65516 5.72131H15.0357C15.3071 5.72131 15.5675 5.82915 15.7594 6.02109C15.9513 6.21304 16.0592 6.47338 16.0592 6.74483C16.0592 7.01628 15.9513 7.27662 15.7594 7.46856C15.5675 7.66051 15.3071 7.76834 15.0357 7.76834H5.6573C5.38585 7.76834 5.12552 7.66051 4.93357 7.46856C4.74162 7.27662 4.63379 7.01628 4.63379 6.74483C4.63379 6.47338 4.74162 6.21304 4.93357 6.02109C5.12552 5.82915 5.38585 5.72131 5.6573 5.72131H5.65516ZM5.65516 12.1481C5.38728 12.1427 5.13222 12.0324 4.94471 11.841C4.75721 11.6496 4.65219 11.3924 4.65219 11.1244C4.65219 10.8565 4.75721 10.5992 4.94471 10.4078C5.13222 10.2164 5.38728 10.1062 5.65516 10.1007H11.0052C11.1414 10.0979 11.2768 10.1223 11.4034 10.1725C11.5301 10.2227 11.6454 10.2977 11.7428 10.393C11.8401 10.4883 11.9174 10.6021 11.9702 10.7277C12.0229 10.8533 12.0501 10.9882 12.0501 11.1244C12.0501 11.2607 12.0229 11.3955 11.9702 11.5211C11.9174 11.6467 11.8401 11.7605 11.7428 11.8558C11.6454 11.9512 11.5301 12.0261 11.4034 12.0763C11.2768 12.1265 11.1414 12.1509 11.0052 12.1481H5.65516Z" fill="white"/>
<path d="M16.7297 12.7935C15.8193 12.7935 14.9293 13.0634 14.1723 13.5692C13.4153 14.0751 12.8253 14.794 12.4769 15.6351C12.1285 16.4762 12.0373 17.4018 12.2149 18.2947C12.3925 19.1877 12.831 20.0079 13.4747 20.6517C14.1185 21.2955 14.9387 21.7339 15.8317 21.9115C16.7246 22.0891 17.6502 21.9979 18.4913 21.6495C19.3324 21.3011 20.0514 20.7111 20.5572 19.9541C21.063 19.1971 21.333 18.3071 21.333 17.3967C21.333 16.1758 20.848 15.005 19.9847 14.1417C19.1214 13.2784 17.9506 12.7935 16.7297 12.7935Z" fill="#2987FD"/>
<path d="M18.5527 18.0704H16.6367C16.4914 18.0704 16.3521 18.0127 16.2493 17.91C16.1466 17.8072 16.0889 17.6679 16.0889 17.5226V14.5792C16.0889 14.4339 16.1466 14.2946 16.2493 14.1918C16.3521 14.0891 16.4914 14.0314 16.6367 14.0314C16.782 14.0314 16.9214 14.0891 17.0241 14.1918C17.1269 14.2946 17.1846 14.4339 17.1846 14.5792V16.9747H18.5527C18.698 16.9747 18.8373 17.0325 18.9401 17.1352C19.0428 17.2379 19.1005 17.3773 19.1005 17.5226C19.1005 17.6679 19.0428 17.8072 18.9401 17.91C18.8373 18.0127 18.698 18.0704 18.5527 18.0704Z" fill="white"/>
</g>
<defs>
<clipPath id="clip0_423_1288">
<rect width="22" height="22" fill="white"/>
</clipPath>
</defs>
</svg>
