<svg xmlns="http://www.w3.org/2000/svg" id="icon-transactions-hover" width="30" height="30" viewBox="0 0 30 30"><metadata><?xpacket begin="﻿" id="W5M0MpCehiHzreSzNTczkc9d"?><x:xmpmeta xmlns:x="adobe:ns:meta/" x:xmptk="Adobe XMP Core 5.6-c142 79.160924, 2017/07/13-01:06:39"><rdf:RDF xmlns:rdf="http://www.w3.org/1999/02/22-rdf-syntax-ns#"><rdf:Description/></rdf:RDF></x:xmpmeta><?xpacket end="w"?></metadata><defs><style>.cls-1{fill:#134478;fill-rule:evenodd}</style></defs><g id="Icon"><path id="Shape_1_copy" d="M8.312,14.02A0.883,0.883,0,0,1,8.9,13.834q5.783,0,11.566,0a0.844,0.844,0,0,1,.766.432,1.369,1.369,0,0,1,.108.726q0,1.091,0,2.182a0.824,0.824,0,0,1-.824.825c-0.446,0-.893,0-1.339,0a0.823,0.823,0,0,1-.58-0.242q-1.11-1.113-2.223-2.224A0.213,0.213,0,0,0,16.2,15.5c-2.178,0-4.357,0-6.535,0,0,1.108,0,2.216,0,3.325,1.089,1.1,2.189,2.19,3.281,3.288a0.366,0.366,0,0,0,.288.053c1.037,0,2.073,0,3.11,0a0.825,0.825,0,0,1,.822.821c0,0.006,0,.013,0,0.019a0.824,0.824,0,0,1-.826.827c-2.506,0-5.012,0-7.518,0A0.849,0.849,0,0,1,8,23.062V14.65A0.856,0.856,0,0,1,8.312,14.02ZM18,19.678a0.839,0.839,0,0,1,.823-0.843q4.158-.006,8.317,0A0.844,0.844,0,0,1,28,19.65V27.2a0.85,0.85,0,0,1-.794.8H18.794a0.848,0.848,0,0,1-.683-0.422A0.967,0.967,0,0,1,18,27.061Q18,23.37,18,19.678Zm1.665,2.489c0,0.555,0,1.11,0,1.666h1.666q0-.833,0-1.666C20.778,22.169,20.222,22.166,19.667,22.167Zm2.5,0q0,0.833,0,1.666c0.555,0,1.111,0,1.666,0,0-.556,0-1.111,0-1.666H22.166Zm2.5,0q0,0.832,0,1.665,0.833,0,1.666,0c0-.555,0-1.11,0-1.665C25.777,22.167,25.222,22.167,24.667,22.168Zm-5,2.5q0,0.833,0,1.667c0.556,0,1.111,0,1.667,0,0-.556,0-1.112,0-1.667Q20.5,24.666,19.666,24.667Zm2.5,0c0,0.555,0,1.111,0,1.666q0.833,0,1.665,0,0-.833,0-1.666C23.277,24.667,22.722,24.665,22.167,24.667Zm2.5,0q0,0.834,0,1.667h1.666q0-.834,0-1.667H24.666Z" class="cls-1" data-name="Shape 1 copy" transform="translate(-3 -3)"/><path id="Shape_1_copy_3" d="M14.313,17.207a1.664,1.664,0,0,1,1.669,2.643,1.661,1.661,0,1,1-2.587-2.082A1.673,1.673,0,0,1,14.313,17.207ZM22.991,8h4.176q0,2.089,0,4.177a0.824,0.824,0,0,1-.826.824H26.322a0.824,0.824,0,0,1-.822-0.824q0-.665,0-1.33c-0.723.718-1.44,1.444-2.163,2.162a0.825,0.825,0,0,1-1.164,0L22.162,13a0.824,0.824,0,0,1,0-1.165q1.079-1.081,2.158-2.162c-0.442,0-.884,0-1.326,0a0.824,0.824,0,0,1-.826-0.823c0-.007,0-0.014,0-0.021A0.824,0.824,0,0,1,22.991,8Z" class="cls-1" data-name="Shape 1 copy 3" transform="translate(-3 -3)"/></g></svg>