<svg xmlns="http://www.w3.org/2000/svg" width="30" height="30" viewBox="-5.5 -5 30 30"><path fill="#004195" d="M17.498 9.068a.833.833 0 01-.832-.833c0-2.338-.91-4.534-2.563-6.188A.835.835 0 0115.282.868a10.351 10.351 0 013.051 7.366.835.835 0 01-.835.834zM.833 9.068A.834.834 0 010 8.235C0 5.452 1.083 2.837 3.051.869a.833.833 0 111.178 1.179 8.692 8.692 0 00-2.562 6.187c0 .46-.374.833-.834.833z"/><path fill="#2987FD" d="M16.981 14.094a5.576 5.576 0 01-1.983-4.271V7.5c0-2.933-2.178-5.36-5-5.767v-.9a.832.832 0 10-1.666 0v.9c-2.822.407-5 2.834-5 5.767v2.323a5.588 5.588 0 01-1.99 4.277 1.457 1.457 0 00.948 2.565h13.75a1.458 1.458 0 00.941-2.571z"/><path fill="#004195" d="M9.165 20a3.13 3.13 0 003.062-2.5H6.104A3.13 3.13 0 009.165 20z"/></svg>