<svg width="32" height="32" viewBox="0 0 32 32" fill="none" xmlns="http://www.w3.org/2000/svg">
    <path d="M23.1678 9.33333C23.1678 8.97971 23.0273 8.64057 22.7773 8.39052C22.5272 8.14048 22.1881 8 21.8345 8H10.1678C9.81418 8 9.47505 8.14048 9.225 8.39052C8.97495 8.64057 8.83447 8.97971 8.83447 9.33333V20.98C8.83447 21.3336 8.97495 21.6728 9.225 21.9228C9.47505 22.1729 9.81418 22.3133 10.1678 22.3133H11.5011C11.678 22.3133 11.8475 22.2431 11.9725 22.1181C12.0976 21.993 12.1678 21.8235 12.1678 21.6467C12.1678 21.4699 12.0976 21.3003 11.9725 21.1753C11.8475 21.0502 11.678 20.98 11.5011 20.98H10.4945C10.4072 20.9783 10.3241 20.9424 10.2631 20.88C10.202 20.8177 10.1678 20.7339 10.1678 20.6467V9.66667C10.1678 9.57826 10.2029 9.49348 10.2654 9.43096C10.3279 9.36845 10.4127 9.33333 10.5011 9.33333H21.5011C21.5895 9.33333 21.6743 9.36845 21.7368 9.43096C21.7994 9.49348 21.8345 9.57826 21.8345 9.66667V20.6667C21.8345 20.7551 21.7994 20.8399 21.7368 20.9024C21.6743 20.9649 21.5895 21 21.5011 21H20.8345C20.6577 21 20.4881 21.0702 20.3631 21.1953C20.238 21.3203 20.1678 21.4899 20.1678 21.6667C20.1678 21.8435 20.238 22.013 20.3631 22.1381C20.4881 22.2631 20.6577 22.3333 20.8345 22.3333H21.8345C22.1881 22.3333 22.5272 22.1929 22.7773 21.9428C23.0273 21.6928 23.1678 21.3536 23.1678 21V9.33333Z" fill="#646F79"/>
    <path d="M20.168 12.6677C20.3448 12.6677 20.5144 12.5974 20.6394 12.4724C20.7644 12.3474 20.8347 12.1778 20.8347 12.001C20.8347 11.8242 20.7644 11.6546 20.6394 11.5296C20.5144 11.4046 20.3448 11.3344 20.168 11.3344H12.048C11.8712 11.3344 11.7016 11.4046 11.5766 11.5296C11.4516 11.6546 11.3813 11.8242 11.3813 12.001C11.3813 12.1778 11.4516 12.3474 11.5766 12.4724C11.7016 12.5974 11.8712 12.6677 12.048 12.6677H20.168Z" fill="#646F79"/>
    <path d="M12.1667 15.6677H17.1667C17.3435 15.6677 17.513 15.5974 17.6381 15.4724C17.7631 15.3474 17.8333 15.1778 17.8333 15.001C17.8333 14.8242 17.7631 14.6546 17.6381 14.5296C17.513 14.4046 17.3435 14.3344 17.1667 14.3344H12.1667C11.9899 14.3344 11.8203 14.4046 11.6953 14.5296C11.5702 14.6546 11.5 14.8242 11.5 15.001C11.5 15.1778 11.5702 15.3474 11.6953 15.4724C11.8203 15.5974 11.9899 15.6677 12.1667 15.6677Z" fill="#646F79"/>
    <path d="M16.1689 18C15.5756 18 14.9956 18.1759 14.5022 18.5056C14.0089 18.8352 13.6244 19.3038 13.3973 19.8519C13.1702 20.4001 13.1108 21.0033 13.2266 21.5853C13.3423 22.1672 13.6281 22.7018 14.0476 23.1213C14.4672 23.5409 15.0017 23.8266 15.5837 23.9424C16.1656 24.0581 16.7688 23.9987 17.317 23.7716C17.8652 23.5446 18.3337 23.1601 18.6634 22.6667C18.993 22.1734 19.1689 21.5933 19.1689 21C19.1672 20.2049 18.8506 19.4429 18.2883 18.8806C17.7261 18.3184 16.9641 18.0018 16.1689 18ZM17.6556 19.8267C17.7617 19.9062 17.8318 20.0247 17.8506 20.156C17.8693 20.2872 17.8352 20.4206 17.7556 20.5267L16.4689 22.2467C16.397 22.3418 16.3058 22.4207 16.2012 22.4782C16.0967 22.5356 15.9812 22.5703 15.8623 22.58H15.8023C15.6918 22.5813 15.5822 22.5602 15.4802 22.5177C15.3782 22.4753 15.2859 22.4126 15.2089 22.3333L14.5423 21.6667C14.4932 21.6209 14.4538 21.5657 14.4264 21.5044C14.3991 21.443 14.3844 21.3768 14.3832 21.3097C14.382 21.2425 14.3944 21.1759 14.4195 21.1136C14.4447 21.0513 14.4821 20.9948 14.5296 20.9473C14.5771 20.8998 14.6336 20.8624 14.6959 20.8372C14.7581 20.8121 14.8248 20.7998 14.892 20.8009C14.9591 20.8021 15.0253 20.8168 15.0866 20.8441C15.148 20.8715 15.2032 20.9109 15.2489 20.96L15.6489 21.3533C15.6648 21.3711 15.6844 21.3851 15.7063 21.3943C15.7282 21.4035 15.7519 21.4077 15.7756 21.4067C15.7992 21.4047 15.8221 21.3978 15.8428 21.3863C15.8635 21.3748 15.8815 21.359 15.8956 21.34L16.9556 19.9267C16.995 19.8741 17.0444 19.8299 17.1009 19.7964C17.1574 19.763 17.2199 19.741 17.2849 19.7317C17.3499 19.7224 17.4161 19.726 17.4797 19.7423C17.5433 19.7586 17.6031 19.7873 17.6556 19.8267Z" fill="#646F79"/>
</svg>