<?xml version="1.0" encoding="utf-8"?>
<!DOCTYPE svg PUBLIC "-//W3C//DTD SVG 1.1//EN" "http://www.w3.org/Graphics/SVG/1.1/DTD/svg11.dtd">
<svg version="1.1" id="Layer_1" xmlns="http://www.w3.org/2000/svg" xmlns:xlink="http://www.w3.org/1999/xlink" x="0px" y="0px"
	 width="30px" height="30px" viewBox="7.5 7.5 30 30" enable-background="new 7.5 7.5 30 30" xml:space="preserve">
<path fill="#004195" d="M19.601,14.7l-4,4c-0.4,0.4-1,0.4-1.4,0l-2-2c-0.4-0.4-0.4-1,0-1.4c0.4-0.4,1-0.4,1.4,0l1.4,1.3l3.3-3.3
	c0.4-0.4,1-0.4,1.4,0C20,13.7,20,14.3,19.601,14.7z M15.601,25.7c-0.4,0.399-1,0.399-1.4,0l-2-2c-0.4-0.4-0.4-1,0-1.4
	c0.4-0.4,1-0.4,1.4,0l1.4,1.3l3.3-3.3c0.4-0.4,1-0.4,1.4,0c0.3,0.4,0.3,1-0.1,1.4L15.601,25.7z M14.2,32.7c0.4,0.399,1,0.399,1.4,0
	l4-4c0.4-0.4,0.4-1,0.1-1.4c-0.4-0.399-1-0.399-1.4,0L15,30.6l-1.4-1.3c-0.4-0.399-1-0.399-1.4,0c-0.4,0.4-0.4,1,0,1.4L14.2,32.7z"
	/>
<path fill="#004195" d="M30.801,17h-7.4c-0.6,0.1-1.1-0.2-1.2-0.8c-0.2-0.6,0.1-1.1,0.7-1.2h0.4H30.7c0.601-0.1,1.101,0.2,1.2,0.8
	s-0.1,1-0.7,1.2H30.801z M30.801,24h-7.4c-0.6,0.101-1.1-0.199-1.2-0.8c-0.2-0.6,0.1-1.1,0.7-1.2h0.4H30.7
	c0.601-0.1,1.101,0.2,1.2,0.8s-0.2,1.1-0.8,1.2H30.801z M23.4,31h7.4H31.2c0.601-0.1,0.9-0.6,0.8-1.199
	C31.9,29.2,31.4,28.9,30.801,29h-7.4H23c-0.6,0.101-0.899,0.601-0.8,1.2C22.3,30.801,22.8,31.101,23.4,31z"/>
</svg>
