<svg xmlns="http://www.w3.org/2000/svg" id="icon-clock" width="30" height="30" viewBox="0 0 30 30"><metadata><?xpacket begin="﻿" id="W5M0MpCehiHzreSzNTczkc9d"?><x:xmpmeta xmlns:x="adobe:ns:meta/" x:xmptk="Adobe XMP Core 5.6-c142 79.160924, 2017/07/13-01:06:39"><rdf:RDF xmlns:rdf="http://www.w3.org/1999/02/22-rdf-syntax-ns#"><rdf:Description/></rdf:RDF></x:xmpmeta><?xpacket end="w"?></metadata><defs><style>.cls-1{fill:#8ca3a6}.cls-1,.cls-2,.cls-3{fill-rule:evenodd}.cls-2{fill:#134478}.cls-3{fill:#fff}</style></defs><g id="Icon"><path id="Shape_1069_copy_3" d="M15.066,9A3,3,0,1,1,18.8,11.89v0.86H17.323V11.889A2.99,2.99,0,0,1,15.066,9Zm2.259,2.128V9.741h1.48v1.384A2.264,2.264,0,1,0,17.325,11.125Zm8.71,1.158L26.756,13a1.013,1.013,0,0,1,0,1.435l-0.24.24a1.023,1.023,0,0,1-1.442,0l-0.721-.719a1.012,1.012,0,0,1,0-1.435l0.239-.239A1.023,1.023,0,0,1,26.035,12.283Zm-15.954,0L9.366,13a1.019,1.019,0,0,0,0,1.435L9.6,14.676a1.009,1.009,0,0,0,1.43,0l0.714-.719a1.019,1.019,0,0,0,0-1.435l-0.237-.239A1.008,1.008,0,0,0,10.081,12.283Z" class="cls-1" data-name="Shape 1069 copy 3" transform="translate(-3.063 -3)"/><path d="M18.062,11.989a9.1,9.1,0,0,1,9,9.066A9,9,0,1,1,18.062,11.989Z" class="cls-2" transform="translate(-3.063 -3)"/><path id="Shape_1069_copy" d="M22.335,22.243h-3.92V17.261a0.98,0.98,0,1,0-1.96,0v5.979a0.988,0.988,0,0,0,.98,1h4.9A1,1,0,0,0,22.335,22.243Z" class="cls-3" data-name="Shape 1069 copy" transform="translate(-3.063 -3)"/></g></svg>