<svg xmlns="http://www.w3.org/2000/svg" width="20" height="20" fill="none" viewBox="0 0 20 20"><path fill="#8CA3A6" d="M8.4154 7.88373C8.10947 8.34067 7.59 8.62792 7.02325 8.62792C6.4565 8.62792 5.93703 8.34067 5.63109 7.88373H4.97672V9.00001H6.093V11.2326H7.95347V9.00001H9.06975V7.88373H8.4154V7.88373Z"/><path fill="#8CA3A6" d="M2 3.7907V15.3256H18V3.7907H2ZM10.186 10.1163H9.06975V12.3488H4.97675V10.1163H3.86047V6.76744H6.36541L6.49694 7.13954C6.57562 7.3621 6.78713 7.51163 7.02325 7.51163C7.25938 7.51163 7.47084 7.3621 7.54956 7.13954L7.68109 6.76744H10.186V10.1163ZM13.7209 12.3488H11.4884V11.2325H13.7209V12.3488ZM15.2093 10.1163H11.4884V8.99998H15.2093V10.1163ZM15.2093 7.88373H11.4884V6.76744H15.2093V7.88373Z"/></svg>