<svg xmlns="http://www.w3.org/2000/svg" viewBox="0 0 30 30" xml:space="preserve"><path d="M11.1 3.8H8.4c-.4 0-.7.4-.6.8v2H6.1c-.6 0-1 .4-1 1v17.7c0 .6.4 1 1 1h17.7c.6 0 1-.4 1-1V7.5c0-.6-.4-1-.8-1h-1.7V4.7c0-.2 0-.3-.1-.4 0-.1-.1-.1-.1-.2-.1-.3-.3-.4-.6-.4h-2.7c-.4 0-.7.3-.7.7v2.1h-6.6v-2c.1-.5 0-.7-.4-.7zM10.4 8H9.1V5.2h1.3V8zm9.2 0h1.3V5.2h-1.3V8zM6.4 24.3V11.5c0-.4.3-.7.7-.7h15.6c.4 0 .7.3.7.7v12.8c0 .3-.1.6-.4.6H6.8c-.2-.1-.4-.3-.4-.6zM13 12.2c.7 0 1.4.7 1.3 1.4 0 .7-.6 1.4-1.3 1.4-.7 0-1.3-.7-1.3-1.4.1-.7.6-1.4 1.3-1.4zm5.2 1.4c.1-.7-.6-1.4-1.3-1.4-.7 0-1.3.7-1.3 1.4s.6 1.4 1.3 1.4c.8 0 1.3-.7 1.3-1.4zm2.7-1.4c.7 0 1.4.7 1.3 1.4 0 .7-.6 1.4-1.3 1.4-.7 0-1.3-.7-1.3-1.4s.6-1.4 1.3-1.4zm-10.6 5.6c.1-.7-.6-1.4-1.3-1.4-.7 0-1.3.7-1.3 1.4s.6 1.4 1.3 1.4c.8 0 1.3-.7 1.3-1.4zm2.7-1.4c.7 0 1.4.7 1.3 1.4 0 .7-.6 1.4-1.3 1.4-.7 0-1.3-.7-1.3-1.4s.6-1.4 1.3-1.4zm5.2 1.4c.1-.7-.6-1.4-1.3-1.4-.7 0-1.3.7-1.3 1.4s.6 1.4 1.3 1.4c.8 0 1.3-.7 1.3-1.4zm2.7-1.4c.7 0 1.4.7 1.3 1.4 0 .7-.6 1.4-1.3 1.4-.7 0-1.3-.7-1.3-1.4s.6-1.4 1.3-1.4zM10.3 22c.1-.7-.6-1.4-1.3-1.4-.7 0-1.3.7-1.3 1.4s.6 1.4 1.3 1.4c.8 0 1.3-.7 1.3-1.4zm2.7-1.4c.7 0 1.4.7 1.3 1.4 0 .7-.6 1.4-1.3 1.4-.7 0-1.3-.7-1.3-1.4.1-.7.6-1.4 1.3-1.4zm5.2 1.4c.1-.7-.6-1.4-1.3-1.4-.7 0-1.3.7-1.3 1.4s.6 1.4 1.3 1.4c.8 0 1.3-.7 1.3-1.4z" fill-rule="evenodd" clip-rule="evenodd" fill="#8ca3a6"/></svg>