<svg xmlns="http://www.w3.org/2000/svg" width="30" height="30" viewBox="-5 -6 30 30"><path fill="#2987FD" d="M6.607 10.25a1.505 1.505 0 01.687-.02A1.483 1.483 0 018.7 9.211h1.137c.302 0 .582.094.815.25.03-.197.094-.388.196-.566l.717-1.241c.063-.11.141-.207.226-.297l-1.234-1.014.512-.452 1.311 1.076c.052-.02.103-.044.158-.059a1.608 1.608 0 01.987.051 1.604 1.604 0 011.582-1.351h.736v-4.4A1.207 1.207 0 0014.635 0H1.208C.541 0 0 .541 0 1.208v8.135c0 .667.541 1.208 1.208 1.208h4.831c.164-.139.355-.244.568-.301zM1.805 1.475a.505.505 0 01.714-.045l4.938 4.358a.706.706 0 00.93 0l4.938-4.358a.506.506 0 01.669.758L9.056 6.546c-.323.286-.729.428-1.134.428s-.811-.142-1.134-.428L1.85 2.188a.504.504 0 01-.045-.713zm-.021 7.746a.335.335 0 01-.475-.046.337.337 0 01.046-.474l3.419-2.808.512.452-3.502 2.876z"/><path fill="#004195" d="M15.824 9.439c-.828 0-1.502.674-1.502 1.502s.674 1.502 1.502 1.502 1.502-.674 1.502-1.502-.674-1.502-1.502-1.502z"/><path fill="#004195" d="M19.705 11.676l-.541-.313c.017-.141.042-.277.042-.422 0-.144-.025-.281-.042-.42l.541-.313a.588.588 0 00.214-.806l-.716-1.241a.59.59 0 00-.806-.216l-.537.311a3.45 3.45 0 00-.732-.437v-.606a.59.59 0 00-.59-.59h-1.434a.59.59 0 00-.59.59v.607a3.308 3.308 0 00-.731.437l-.538-.311a.593.593 0 00-.806.216l-.716 1.241a.591.591 0 00.216.806l.284.164c.04.02.077.042.116.066l.141.082a.164.164 0 01-.002.023c.136.111.26.238.35.395l.57.987a1.475 1.475 0 01-.181 1.725c.059.065.109.138.155.212l.41-.237c.227.172.467.325.732.437v.607c0 .326.264.59.59.59h1.434a.59.59 0 00.59-.59v-.607c.266-.111.506-.265.732-.437l.537.311a.58.58 0 00.447.058.588.588 0 00.358-.274l.716-1.241a.585.585 0 00-.213-.804zm-3.883 1.442c-1.2 0-2.176-.976-2.176-2.177 0-1.199.976-2.175 2.176-2.175 1.199 0 2.176.976 2.176 2.175a2.178 2.178 0 01-2.176 2.177zM12.35 14.233l-.43-.248c.014-.11.033-.22.033-.334s-.02-.224-.033-.334l.43-.248a.474.474 0 00.219-.284.473.473 0 00-.047-.355l-.568-.984a.47.47 0 00-.64-.171l-.426.247a2.651 2.651 0 00-.582-.347v-.482a.468.468 0 00-.468-.468H8.699a.469.469 0 00-.468.468v.482c-.211.088-.402.21-.581.347l-.428-.247a.465.465 0 00-.64.172l-.567.983a.469.469 0 00.172.64l.429.248c-.014.11-.033.22-.033.334s.02.224.033.334l-.429.247a.47.47 0 00-.172.641l.568.984a.475.475 0 00.407.235.455.455 0 00.233-.063l.427-.246c.18.136.371.258.582.346v.482c0 .259.209.469.468.469h1.138c.258 0 .468-.21.468-.469v-.482c.211-.088.402-.21.582-.346l.426.246a.475.475 0 00.355.047.468.468 0 00.285-.219l.568-.984a.471.471 0 00-.172-.641zm-3.082.709a1.292 1.292 0 11.001-2.583 1.292 1.292 0 01-.001 2.583z"/></svg>