<svg xmlns="http://www.w3.org/2000/svg" width="30" height="30" viewBox="-5 -6.5 30 30"><path fill="#004195" d="M10 0C7.3 0 4.8 1.1 2.9 3 1.1 4.9 0 7.5 0 10.2c0 2.399.8 4.6 2.3 6.5.1.2.4.3.6.3H17c.2 0 .5-.1.6-.3 1.5-1.8 2.301-4.101 2.301-6.5C20.1 4.6 15.6.1 10 0zm6.7 15.3H3.3c-.9-1.2-1.5-2.7-1.6-4.2h2.5c.4-.1.8-.4.8-.9s-.4-.9-.8-.9H1.7c.2-1.7.8-3.2 1.8-4.5l.6.6c.3.3.8.3 1.2 0 .3-.3.3-.9 0-1.2l-.6-.6c1.3-1 2.8-1.7 4.5-1.9v2.5c0 .5.3.8.8.9.5 0 .8-.3.9-.8V1.7c1.6.2 3.2.8 4.4 1.9l-.6.6c-.3.3-.3.9 0 1.2.3.3.8.3 1.2 0l.6-.6c1 1.3 1.7 2.9 1.8 4.5h-2.5c-.5 0-.899.4-.899.9s.399.9.899.9h2.5c-.2 1.5-.7 3-1.6 4.2z"/><path fill="#2987FD" d="M10.1 11.899l2.4-4.8L7.8 9.5l2.3 2.399z"/></svg>