<svg xmlns="http://www.w3.org/2000/svg" viewBox="0 0 30 30" style="enable-background:new 0 0 30 30" xml:space="preserve"><path d="M5.1 13.8c0 .3.2.7.6.7H8c.3 0 .6-.2.6-.5.5-2.7 2.6-4.9 5.3-5.3.2 0 .5-.3.5-.6V5.6c0-.3-.3-.7-.7-.6-2.1.2-4.3 1.2-5.9 2.8-1.5 1.7-2.5 3.7-2.7 6zm13.6 6.4c-1.1.8-2.4 1.2-3.7 1.2-3.2 0-5.9-2.3-6.4-5.4 0-.2-.3-.5-.6-.5H5.6c-.3 0-.7.3-.6.7.6 5 4.9 8.7 9.9 8.7 2.3 0 4.4-.7 6.1-2.1.2-.2.3-.7 0-.9l-1.6-1.6c-.1-.2-.5-.2-.7-.1z" style="fill:#8ca3a6"/><path d="M16 8.6c3.2.6 5.4 3.2 5.4 6.4 0 1.4-.5 2.6-1.2 3.7-.1.2-.1.6.1.8l1.7 1.7c.2.2.7.2.9 0 1.4-1.8 2.1-3.8 2.1-6.1 0-5.1-3.7-9.3-8.7-9.9-.3 0-.7.2-.7.6v2.4c0 .1.2.4.4.4z" style="fill:#667e81"/><path d="M15.3 10.9h-.8c-.3 0-.6.2-.6.6v6.8h1.9v-6.8c.1-.3-.1-.6-.5-.6zm1.8 7.5h1.4c.3 0 .6-.2.6-.6v-4.6c0-.3-.2-.6-.6-.6h-1.4v5.8zm-4.2-4.3h-1.4c-.3 0-.6.2-.6.6v3.2c0 .3.2.6.6.6h1.4v-4.4z" style="fill:#134478"/></svg>