<svg xmlns="http://www.w3.org/2000/svg" viewBox="0 0 28 28" style="enable-background:new 0 0 28 28" xml:space="preserve"><path d="M12.2 6c0-.4.3-.8.7-1l5.4-2.1c.3-.1.6-.1.8 0L24.5 5c.4.2.7.5.7.9V6l.2 3.4c.2 3.8-1.7 7.5-4.9 9.5l-1.2.7c-.4.2-.8.2-1.2 0l-1.2-.7c-3.3-2-5.2-5.6-4.9-9.5l.2-3.4z" style="fill:#2987fd"/><path d="M18.7 19.8c.2 0 .4-.1.6-.2l1.2-.7c3.3-2 5.2-5.6 4.9-9.5L25.3 6v-.1c-.1-.4-.3-.8-.7-.9l-5.4-2.1c-.1-.1-.3-.1-.4-.1v17z" style="fill:#076ceb"/><path d="m9.7 8.3.6.2c.1.1.2.2.2.3v.4c-.3 4 1.5 7.8 4.5 10.2.1.1.2.3.1.4-.8 1.8-2.2 3.4-4 4.5l-1.2.7c-.4.2-.8.2-1.2 0l-1.2-.7c-3.3-2-5.2-5.6-4.9-9.5l.2-3.4c0-.4.3-.8.7-1l5.4-2.1c.2-.1.5-.1.8 0z" style="fill:#134478"/></svg>