<svg xmlns="http://www.w3.org/2000/svg" id="icon-products-active" width="36" height="36" viewBox="0 0 36 36"><metadata><?xpacket begin="﻿" id="W5M0MpCehiHzreSzNTczkc9d"?><x:xmpmeta xmlns:x="adobe:ns:meta/" x:xmptk="Adobe XMP Core 5.6-c138 79.159824, 2016/09/14-01:09:01"><rdf:RDF xmlns:rdf="http://www.w3.org/1999/02/22-rdf-syntax-ns#"><rdf:Description/></rdf:RDF></x:xmpmeta><?xpacket end="w"?></metadata><defs><style>.cls-1{fill:#004195;fill-rule:evenodd}</style></defs><g id="Icon"><path id="Shape_1_copy_6" d="M17.654,22.464a0.653,0.653,0,0,0,0,.923,0.661,0.661,0,0,0,.928,0A0.655,0.655,0,0,0,17.654,22.464ZM14.4,19.806a0.661,0.661,0,0,0-.928,0,0.653,0.653,0,0,0,0,.923,0.661,0.661,0,0,0,.928,0A0.653,0.653,0,0,0,14.4,19.806ZM24.871,9.331c-0.2-.49-0.824-1.314-2.715-1.331H22.1a10.656,10.656,0,0,0-3.9.863c-0.25.1-.492,0.21-0.725,0.326l-0.013-.013a2.011,2.011,0,0,0-2.793,0l-3.807,3.68a2.572,2.572,0,0,0-.79,1.855V27.179A1.826,1.826,0,0,0,11.9,29h8.33a1.826,1.826,0,0,0,1.83-1.821V14.712a2.517,2.517,0,0,0-.216-1.026,9.358,9.358,0,0,0,2.05-1.507C25.212,10.843,25.074,9.821,24.871,9.331ZM12.354,20.269a1.584,1.584,0,1,1,1.584,1.576A1.584,1.584,0,0,1,12.354,20.269ZM13.7,24.392a0.386,0.386,0,0,1-.052-0.541l4.161-4.986a0.39,0.39,0,0,1,.544-0.051,0.385,0.385,0,0,1,.052.541L14.245,24.34A0.39,0.39,0,0,1,13.7,24.392Zm4.42,0.112A1.576,1.576,0,1,1,19.7,22.928,1.584,1.584,0,0,1,18.121,24.5Zm1.757-11.578a10.4,10.4,0,0,1-2.352.67c0,0.034,0,.064,0,0.1a1.511,1.511,0,1,1-.3-0.9,10.717,10.717,0,0,0,2.21-.644c0.263-.107.509-0.219,0.742-0.335l-1.528-1.482c0.043-.017.086-0.034,0.13-0.056A9.234,9.234,0,0,1,22.1,9.533h0.043a1.491,1.491,0,0,1,1.3.382C23.606,10.31,22.592,11.813,19.877,12.926Z" class="cls-1" data-name="Shape 1 copy 6" transform="translate(0.469 -0.5)"/></g></svg>
