<svg width="30" height="30" fill="none" xmlns="http://www.w3.org/2000/svg"><path d="m22.888 25.365-1.573 1.058a.45.45 0 0 1-.501 0l-1.771-1.192-1.77 1.192a.45.45 0 0 1-.502 0L15 25.231l-1.77 1.192a.45.45 0 0 1-.502 0l-1.771-1.192-1.77 1.192a.45.45 0 0 1-.502 0l-1.573-1.058a.449.449 0 0 1-.198-.373V4.174c0-.372.302-.674.674-.674h14.824c.372 0 .674.302.674.674v20.818a.45.45 0 0 1-.198.373Z" fill="#8CA3A6"/><path d="M17.184 20.956c-.247 0-.35.148-.536.285-.413.326-.784.463-1.27.463-.876 0-1.557-.485-1.887-1.296h1.784c.238 0 .434-.19.434-.432a.434.434 0 0 0-.434-.443h-2.001a4.952 4.952 0 0 1-.02-.4c0-.127.01-.243.02-.358h2.445c.248 0 .434-.19.434-.443a.425.425 0 0 0-.434-.432H13.47c.33-.833 1.011-1.339 1.909-1.339.495 0 .877.137 1.269.464.185.137.289.285.536.285.258 0 .464-.232.464-.506 0-.148-.051-.274-.196-.422-.515-.537-1.269-.843-2.115-.843-1.495 0-2.64.928-3.053 2.36h-.66a.432.432 0 0 0-.434.433c0 .253.196.442.433.442h.506c-.01.116-.01.232-.01.359 0 .137.01.274.02.4h-.526a.428.428 0 0 0-.433.443c0 .242.185.432.433.432h.691c.423 1.402 1.568 2.319 3.033 2.319.846 0 1.6-.306 2.115-.843.145-.148.196-.275.196-.422 0-.274-.206-.506-.464-.506Z" fill="#fff"/><path fill-rule="evenodd" clip-rule="evenodd" d="M9.611 8.26h2.696a.674.674 0 1 0 0-1.347H9.61a.674.674 0 0 0 0 1.347Zm0 1.348a.674.674 0 0 0 0 1.348H20.392a.674.674 0 1 0 0-1.348H9.613Zm-.674 3.37c0-.373.302-.675.674-.675H20.392a.674.674 0 0 1 0 1.348H9.613a.674.674 0 0 1-.675-.674Z" fill="#fff"/></svg>