<svg xmlns="http://www.w3.org/2000/svg" width="30" height="30" viewBox="-4.5 -5 30 30"><path fill="#004195" d="M4.693 0h10.325c.258 0 .467.208.469.465v19.07a.47.47 0 01-.469.465H.469A.468.468 0 010 19.535V4.884L4.693 0z"/><path fill="#2987FD" d="M4.693 4.419a.468.468 0 01-.47.465H0L4.693 0v4.419zm14.601 13.667A1.7 1.7 0 0021 16.4V9.65a1.7 1.7 0 00-1.706-1.681H3.935a1.702 1.702 0 00-1.706 1.687V16.4a1.7 1.7 0 001.706 1.686h15.359z"/><path fill="#FFF" d="M9.815 14.188c.032.484.252.936.614 1.26.416.313.93.467 1.45.432.369.012.736-.05 1.082-.18.276-.107.512-.3.672-.549.156-.234.238-.51.238-.791a1.46 1.46 0 00-.199-.783 1.383 1.383 0 00-.551-.5 4.877 4.877 0 00-1.084-.354 2.63 2.63 0 01-.924-.329.375.375 0 01.01-.606 1.17 1.17 0 01.687-.178c.225-.017.448.042.636.166.158.14.258.334.277.545l1-.043a1.437 1.437 0 00-.5-1.086 2.124 2.124 0 00-1.412-.405 2.496 2.496 0 00-.978.172c-.253.1-.47.274-.621.5a1.279 1.279 0 00.242 1.69c.336.246.724.412 1.134.486.418.104.688.174.805.214a.803.803 0 01.361.214c.07.084.107.189.104.299a.602.602 0 01-.247.476c-.214.148-.473.22-.732.2a1.077 1.077 0 01-.728-.229 1.17 1.17 0 01-.358-.714l-.978.093v-.004.004zm-1.582-.208l.974.306a2.198 2.198 0 01-3.7.918 2.548 2.548 0 01-.638-1.83 2.672 2.672 0 01.641-1.907 2.216 2.216 0 011.687-.681 2.093 2.093 0 011.484.534c.25.25.426.563.509.906l-1 .234a1.037 1.037 0 00-.369-.6 1.07 1.07 0 00-.68-.223 1.138 1.138 0 00-.9.393c-.263.369-.386.82-.346 1.272-.043.469.077.938.34 1.328.217.262.542.409.882.399.253.006.499-.084.689-.25.225-.217.374-.498.427-.805v.006zm5.964-3.111l1.779 4.919h1.072l1.783-4.919h-1.065l-1.22 3.64-1.26-3.64h-1.089z"/></svg>