<svg xmlns="http://www.w3.org/2000/svg" viewBox="0 0 30 30"><path d="M24.3 13.4l-3.2-2.8V6c0-.3-.3-.6-.6-.6H9.4c-.3 0-.6.3-.6.6v4.7l-3.2 2.8c-.1.1-.2.2-.2.4V23c0 .9.7 1.7 1.7 1.7h15.7c.9 0 1.7-.8 1.7-1.7v-9.1c0-.2-.1-.4-.2-.5zm-3.2-1.3l2 1.7-2 1.7v-3.4zM8.8 15.6v-3.4l-2 1.7 2 1.7zm1.7-7.1c0-.3.2-.5.5-.5h8c.3 0 .5.2.5.5s-.2.5-.5.5h-8c-.3 0-.5-.2-.5-.5zM11 10c-.3 0-.5.2-.5.5s.2.5.5.5h8c.3 0 .5-.2.5-.5s-.2-.5-.5-.5h-8zm-.5 2.5c0-.3.2-.5.5-.5h8c.3 0 .5.2.5.5s-.2.5-.5.5h-8c-.3 0-.5-.2-.5-.5zM11 14c-.3 0-.5.2-.5.5s.2.5.5.5h8c.3 0 .5-.2.5-.5s-.2-.5-.5-.5h-8z" fill-rule="evenodd" clip-rule="evenodd" fill="#8ca3a6"/><path d="M8.8 10.7V6.1c0-.3.3-.6.6-.6h11.2c.3 0 .6.3.6.6v9.6L18 18.1c-.1 0-.1-.1-.2-.1-.9-.6-2-1.4-2.8-1.4-.7 0-1.6.6-2.6 1.2-.1.1-.3.2-.4.3l-3.2-2.4v-5zm1.7-2.1c0-.3.2-.5.5-.5h8c.3 0 .5.2.5.5s-.2.5-.5.5h-8c-.3 0-.5-.2-.5-.5zm.5 1.5c-.3 0-.5.2-.5.5s.2.5.5.5h8c.3 0 .5-.2.5-.5s-.2-.5-.5-.5h-8zm-.5 2.5c0-.3.2-.5.5-.5h8c.3 0 .5.2.5.5s-.2.5-.5.5h-8c-.3 0-.5-.2-.5-.5zm.5 1.5c-.3 0-.5.2-.5.5s.2.5.5.5h8c.3 0 .5-.2.5-.5s-.2-.5-.5-.5h-8z" fill-rule="evenodd" clip-rule="evenodd" fill="#134478"/></svg>