<svg xmlns="http://www.w3.org/2000/svg" width="30" height="30" viewBox="-6.5 -5 30 30"><path fill="#134478" d="M4.6 10.8c.2-.101.3-.101.5 0 .2.1.4.2.5.3 1.8 1.3 4.2 1.2 5.9-.1.2-.101.4-.2.6-.2 1.601.2 3.101 1.1 4 2.399.301.4.5.7.7 1.101.101.1.101.3.101.5 0 .1-.101.2-.2.3-.2.4-.5.7-.7 1.1-.7 1-1.7 1.801-2.7 2.4-1.5.9-3.1 1.4-4.8 1.4H8.4c-.8 0-1.7-.101-2.5-.4-.9-.2-1.7-.6-2.4-1.1-.9-.601-1.7-1.301-2.4-2.101-.4-.5-.7-1-1-1.5-.1-.099-.1-.2-.1-.399.4-1 1.1-1.9 1.9-2.5.8-.601 1.7-1 2.7-1.2z"/><path fill="#8CA3A6" d="M8.399 0h.2c1.1 0 2.1.4 2.9 1.1 2 1.6 2.5 4.5 1.3 6.7-.601 1.1-1.601 2-2.9 2.4-1.099.4-2.299.3-3.399-.2-1.6-.8-2.6-2.3-2.9-4-.3-2.2.8-4.4 2.8-5.6C7 .1 7.7 0 8.399 0z"/></svg>