<svg width="30" height="30" viewBox="-3.5 -5 30 30" fill="none" xmlns="http://www.w3.org/2000/svg"><path d="M14.914 3.762a.673.673 0 0 0-.673-.674h-4.043a.673.673 0 0 0-.674.674v2.695c0 .373.301.674.674.674h4.716v-3.37Z" fill="#667E81"/><path d="M20.305 2.414v4.043a.667.667 0 0 1-.674.674h-5.39a.667.667 0 0 1-.674-.674V2.414c0-.377.296-.674.674-.674h5.39c.378 0 .674.297.674.674ZM6.828 2.414A2.024 2.024 0 0 0 4.807.393H.674a.674.674 0 1 0 0 1.347h4.133c.371 0 .673.302.677.748l.367 3.295.661 1.348.692-1.348-.376-3.369ZM18.957 17.239a.667.667 0 0 1-.674.674H7.504A2.019 2.019 0 0 1 5.48 15.89c0-1.119.903-2.022 2.022-2.022.377 0 .674.297.674.674a.667.667 0 0 1-.674.674.667.667 0 0 0-.674.674c0 .377.297.674.674.674h10.781c.378 0 .674.296.674.674Z" fill="#134478"/><path d="m22.987 6.565-1.16 6.967a2.014 2.014 0 0 1-1.994 1.685H7.503a.682.682 0 0 1-.675-.593l-.984-8.84h16.483c.202 0 .39.08.512.242.134.148.188.35.148.539Z" fill="#8CA3A6"/><path d="M10.197 12.522a.673.673 0 0 1-.673-.674V9.153a.673.673 0 1 1 1.347 0v2.695a.673.673 0 0 1-.674.674ZM14.914 9.153v2.695a.667.667 0 0 1-.673.674.667.667 0 0 1-.674-.674V9.153c0-.378.296-.674.674-.674.377 0 .673.296.673.674ZM18.283 12.522a.673.673 0 0 1-.673-.674V9.153a.673.673 0 1 1 1.347 0v2.695a.673.673 0 0 1-.674.674Z" fill="#fff"/><path d="M10.197 16.565a2.019 2.019 0 0 0-2.021 2.021c0 1.119.903 2.022 2.021 2.022a2.019 2.019 0 0 0 2.022-2.022 2.019 2.019 0 0 0-2.021-2.021Z" fill="#134478"/><path d="M10.197 17.913a.667.667 0 0 0-.673.673c0 .378.296.674.674.674a.667.667 0 0 0 .673-.674.667.667 0 0 0-.674-.673Z" fill="#fff"/><path d="M18.284 16.565a2.019 2.019 0 0 0-2.022 2.021c0 1.119.903 2.022 2.022 2.022a2.019 2.019 0 0 0 2.021-2.022 2.019 2.019 0 0 0-2.021-2.021Z" fill="#134478"/><path d="M18.283 17.913a.667.667 0 0 0-.673.673c0 .378.296.674.673.674a.667.667 0 0 0 .674-.674.667.667 0 0 0-.674-.673Z" fill="#fff"/></svg>