<?xml version="1.0" encoding="utf-8"?>
<!DOCTYPE svg PUBLIC "-//W3C//DTD SVG 1.1//EN" "http://www.w3.org/Graphics/SVG/1.1/DTD/svg11.dtd">
<svg version="1.1" id="Layer_1" xmlns="http://www.w3.org/2000/svg" xmlns:xlink="http://www.w3.org/1999/xlink" x="0px" y="0px"
	 width="30px" height="30px" viewBox="-5.5 -5 30 30" enable-background="new -5.5 -5 30 30" xml:space="preserve">
<path fill="#004195" d="M17.498,9.068c-0.459,0-0.832-0.373-0.832-0.833c0-2.338-0.91-4.534-2.563-6.188
	c-0.325-0.326-0.325-0.853,0-1.179c0.326-0.326,0.853-0.326,1.179,0c1.967,1.968,3.051,4.583,3.051,7.366
	C18.332,8.695,17.959,9.068,17.498,9.068z"/>
<path fill="#004195" d="M0.833,9.068C0.374,9.068,0,8.695,0,8.235c0-2.783,1.083-5.398,3.051-7.366c0.326-0.326,0.853-0.326,1.178,0
	c0.326,0.326,0.326,0.853,0,1.179C2.577,3.7,1.667,5.897,1.667,8.235C1.667,8.695,1.293,9.068,0.833,9.068z"/>
<path fill="#2987FD" d="M16.981,14.094c-1.261-1.064-1.983-2.621-1.983-4.271V7.5c0-2.933-2.178-5.36-5-5.767v-0.9
	C9.999,0.373,9.625,0,9.166,0S8.332,0.373,8.332,0.833v0.9c-2.822,0.407-5,2.834-5,5.767v2.323c0,1.649-0.723,3.206-1.99,4.277
	c-0.324,0.278-0.51,0.681-0.51,1.108c0,0.804,0.654,1.457,1.458,1.457h13.75c0.804,0,1.457-0.653,1.457-1.457
	C17.498,14.781,17.313,14.379,16.981,14.094z"/>
<path fill="#004195" d="M9.165,20c1.509,0,2.772-1.076,3.062-2.5H6.104C6.394,18.924,7.656,20,9.165,20z"/>
</svg>
