<svg width="32" height="32" fill="none" xmlns="http://www.w3.org/2000/svg"><path fill-rule="evenodd" clip-rule="evenodd" d="M7.25 16a8.75 8.75 0 1 1 8.909 8.75.75.75 0 0 1-.027-1.5A7.25 7.25 0 1 0 8.75 16c0 1.184.249 2.314 1.094 3.235l1.443-1.492a.75.75 0 0 1 1.274.373l.974 4.8a.75.75 0 0 1-.865.887l-4.8-.844a.75.75 0 0 1-.409-1.26l1.338-1.384C7.565 19.014 7.25 17.43 7.25 16.001ZM16 11.25a.75.75 0 0 1 .75.75v3.69l2.18 2.18a.75.75 0 0 1-1.06 1.061l-2.4-2.4a.75.75 0 0 1-.22-.53v-4a.75.75 0 0 1 .75-.75ZM9.521 21.728l2.325.408-.471-2.325-1.854 1.917Z" fill="#646F79"/></svg>