<?xml version="1.0" encoding="utf-8"?>
<!DOCTYPE svg PUBLIC "-//W3C//DTD SVG 1.1//EN" "http://www.w3.org/Graphics/SVG/1.1/DTD/svg11.dtd">
<svg version="1.1" id="Layer_1" xmlns="http://www.w3.org/2000/svg" xmlns:xlink="http://www.w3.org/1999/xlink" x="0px" y="0px"
	 width="30px" height="30px" viewBox="7.5 7.5 30 30" enable-background="new 7.5 7.5 30 30" xml:space="preserve">
<path fill="#2987FD" d="M29.885,14.522l-16.52,3.211c0.16,0.825-0.387,1.625-1.223,1.788l2.082,10.709
	c0.401-0.079,0.816,0.002,1.155,0.227c0.338,0.225,0.571,0.574,0.648,0.97l16.52-3.212c-0.16-0.822,0.387-1.621,1.221-1.783
	l-2.082-10.709c-0.401,0.078-0.816-0.005-1.154-0.23C30.193,15.267,29.961,14.918,29.885,14.522z"/>
<path fill="#004195" d="M31.371,18H14.542c0,0.841-0.69,1.522-1.542,1.522v10.91c0.409-0.002,0.801,0.158,1.09,0.443
	c0.29,0.285,0.452,0.672,0.452,1.074h16.829c0-0.838,0.688-1.518,1.538-1.518v-10.91c-0.409,0-0.8-0.161-1.089-0.446
	C31.531,18.791,31.37,18.403,31.371,18z"/>
<path fill="#FFFFFF" d="M20.328,21.299l0.04,0.018l2.44,0.969l0.131,0.054v3.421l-0.288-0.09l-1.091-0.333v3.313h-4.364v-3.313
	l-1.091,0.337l-0.287,0.09V22.34l0.135-0.054l2.418-0.969l0.04-0.018H20.328z M20.768,24.053l1.091,0.333v-1.411l-1.684-0.667H18.56
	l-1.698,0.675v1.403l1.091-0.333l0.287-0.09v3.704h2.244v-3.704L20.768,24.053z"/>
<rect x="24.614" y="21.299" fill="#FFFFFF" width="5.477" height="1.411"/>
<rect x="24.614" y="24.271" fill="#FFFFFF" width="5.477" height="1.41"/>
<rect x="24.614" y="27.24" fill="#FFFFFF" width="3.872" height="1.41"/>
</svg>
