<svg xmlns="http://www.w3.org/2000/svg" width="30" height="30" viewBox="-5.5 -2.5 30 30"><path fill="#004195" d="M10 0C8.3 0 7 1.3 7 3c0 1.4.9 2.6 2.3 2.9v.9h1.4v-.9C12.1 5.6 13 4.4 13 3c0-1.7-1.3-3-3-3zm-.7 3.7v1.4c-.7-.2-1.2-.7-1.4-1.4-.4-1.2.2-2.5 1.4-2.9 1.2-.4 2.5.2 2.9 1.4.4 1.2-.2 2.5-1.4 2.9V3.7H9.3z"/><path fill="#2987FD" d="M10 6c5 .1 9 4.1 9 9.1s-4.1 9-9.1 8.9c-5 0-9-4.1-8.9-9.1C1 10 5.1 6 10 6zm4.3 10.2h-3.9v-5c0-.5-.4-1-.9-1s-1 .4-1 .9v6.1c0 .5.4 1 1 1h4.9c.6 0 1-.4 1-1s-.6-1-1.1-1z"/><path fill="#004195" d="M18 6.3l.7.7c.399.4.399 1 0 1.4l-.2.2c-.4.4-1 .4-1.4 0l-.8-.6a.968.968 0 010-1.4l.2-.2c.4-.5 1.1-.5 1.5-.1zM2 6.3l-.7.7c-.4.4-.4 1 0 1.4l.2.2c.4.4 1 .4 1.4 0l.8-.6c.4-.4.4-1 0-1.4l-.3-.3c-.3-.4-1-.4-1.4 0z"/></svg>