<svg version="1.1" id="Layer_1" xmlns="http://www.w3.org/2000/svg" x="0" y="0" viewBox="0 0 30 30" xml:space="preserve"><style>.st0{fill:#2987fd}.st1{fill:#004195}</style><path class="st0" d="M21.3 13.3h3.2c.3 0 .5-.2.5-.5s-.2-.5-.5-.5h-3.2c-.3 0-.5.2-.5.5s.2.5.5.5zM24.5 14.4h-3.2c-.3 0-.5.2-.5.5s.2.5.5.5h3.2c.3 0 .5-.2.5-.5s-.2-.5-.5-.5zM24.5 16.5h-3.2c-.3 0-.5.2-.5.5s.2.5.5.5h3.2c.3 0 .5-.2.5-.5s-.2-.5-.5-.5z"/><path class="st1" d="M17.1 11.7c0 2.6-2.1 4.7-4.7 4.7s-4.7-2.1-4.7-4.7C7.6 9.1 9.8 7 12.4 7s4.7 2.1 4.7 4.7zM15.5 17.5H8.9c-2.1 0-3.9 1.7-3.9 3.9v.9c0 .3.2.5.5.5h13.7c.3 0 .5-.2.5-.5v-.5c0-2.4-1.8-4.3-4.2-4.3z"/></svg>