<svg xmlns="http://www.w3.org/2000/svg" id="icon-list-active" width="30" height="30" viewBox="0 0 30 30"><metadata><?xpacket begin="﻿" id="W5M0MpCehiHzreSzNTczkc9d"?><x:xmpmeta xmlns:x="adobe:ns:meta/" x:xmptk="Adobe XMP Core 5.6-c142 79.160924, 2017/07/13-01:06:39"><rdf:RDF xmlns:rdf="http://www.w3.org/1999/02/22-rdf-syntax-ns#"><rdf:Description/></rdf:RDF></x:xmpmeta><?xpacket end="w"?></metadata><defs><style>.cls-1,.cls-2{fill:#d91d46;fill-rule:evenodd}.cls-2{fill:#8811c0}</style></defs><g id="Icon"><path id="Forma_1" d="M15.39,23.735l-3.958,4a0.981,0.981,0,0,1-1.4,0l-1.979-2a1.009,1.009,0,0,1,0-1.415,0.981,0.981,0,0,1,1.4,0l1.279,1.294,3.258-3.3a0.982,0.982,0,0,1,1.4,0A1.009,1.009,0,0,1,15.39,23.735Zm0-7.006-3.958,4a0.981,0.981,0,0,1-1.4,0l-1.979-2a1.009,1.009,0,0,1,0-1.415,0.981,0.981,0,0,1,1.4,0l1.279,1.294,3.258-3.3a0.982,0.982,0,0,1,1.4,0A1.008,1.008,0,0,1,15.39,16.729Zm0-7.006-3.958,4a0.981,0.981,0,0,1-1.4,0l-1.979-2a1.009,1.009,0,0,1,0-1.415,0.981,0.981,0,0,1,1.4,0L10.733,11.6l3.258-3.3a0.981,0.981,0,0,1,1.4,0A1.009,1.009,0,0,1,15.39,9.723Z" class="cls-1" data-name="Forma 1" transform="translate(-2.781 -3.031)"/><path id="Forma_1_copy_3" d="M26.531,26H19.109a1.137,1.137,0,0,1-1.237-1,1.137,1.137,0,0,1,1.237-1h7.422a1.137,1.137,0,0,1,1.237,1A1.137,1.137,0,0,1,26.531,26Zm0-7.006H19.109a1.137,1.137,0,0,1-1.237-1,1.137,1.137,0,0,1,1.237-1h7.422a1.137,1.137,0,0,1,1.237,1A1.137,1.137,0,0,1,26.531,18.993Zm0-7.006H19.109a1.137,1.137,0,0,1-1.237-1,1.137,1.137,0,0,1,1.237-1h7.422a1.137,1.137,0,0,1,1.237,1A1.137,1.137,0,0,1,26.531,11.987Z" class="cls-2" data-name="Forma 1 copy 3" transform="translate(-2.781 -3.031)"/></g></svg>