<svg width="45" height="45" viewBox="0 0 45 45" fill="none" xmlns="http://www.w3.org/2000/svg">
<path fill-rule="evenodd" clip-rule="evenodd" d="M20.143 13C24.0879 13 27.2858 14.5988 27.2858 16.5714C27.2858 17.0982 27.0577 17.5984 26.6481 18.0485C25.4663 18.1836 24.3291 18.5986 23.3332 19.264C23.022 19.4719 22.7281 19.702 22.4535 19.9518C21.7288 20.0756 20.9516 20.1427 20.143 20.1427C16.1981 20.1427 13 18.544 13 16.5714C13 14.5988 16.1981 13 20.143 13ZM21.1278 21.5446C20.8067 21.5624 20.4782 21.5715 20.143 21.5715C17.0202 21.5715 14.4829 20.7826 13 19.4846V20.8571C13 22.8822 16.0376 24.4119 20.077 24.4284C20.1657 23.8139 20.3308 23.2096 20.5709 22.6299C20.7275 22.2519 20.914 21.8891 21.1278 21.5446ZM20.0085 25.8568C16.9474 25.8344 14.4616 25.0496 13 23.7704V25.1429C13 27.179 16.0707 28.7142 20.143 28.7142C20.3373 28.7142 20.5293 28.7108 20.7188 28.7039C20.4581 28.1522 20.2644 27.5679 20.1441 26.9632C20.0712 26.5967 20.0261 26.2269 20.0085 25.8568ZM21.5655 30.086C21.1069 30.1236 20.6321 30.143 20.143 30.143C17.0202 30.143 14.4829 29.3541 13 28.0561V29.4286C13 31.4648 16.0707 33 20.143 33C21.7677 33 23.2329 32.7556 24.4072 32.3326C23.5885 31.962 22.8387 31.4453 22.1967 30.8033C21.9704 30.577 21.7597 30.3374 21.5655 30.086Z" fill="#2987FD"/>
<path d="M31.0476 22.0119C31.0476 20.9006 29.2462 20 27.0239 20C24.8016 20 23 20.9006 23 22.0119C23 23.1231 24.8016 24.0237 27.0239 24.0237C29.2462 24.0237 31.0476 23.1231 31.0476 22.0119Z" fill="#004195"/>
<path d="M23 23.653V24.4262C23 25.5732 24.7298 26.438 27.0239 26.438C29.318 26.438 31.0476 25.5732 31.0476 24.4262V23.653C30.2123 24.3842 28.7829 24.8286 27.0239 24.8286C25.2647 24.8286 23.8354 24.3842 23 23.653Z" fill="#004195"/>
<path d="M23 26.0673V26.8405C23 27.9875 24.7298 28.8524 27.0239 28.8524C29.318 28.8524 31.0476 27.9875 31.0476 26.8405V26.0673C30.2123 26.7985 28.7829 27.2429 27.0239 27.2429C25.2647 27.2429 23.8354 26.7985 23 26.0673Z" fill="#004195"/>
<path d="M23 28.4816V29.2548C23 30.4018 24.7298 31.2667 27.0239 31.2667C29.318 31.2667 31.0476 30.4018 31.0476 29.2548V28.4816C30.2123 29.2128 28.7829 29.6572 27.0239 29.6572C25.2647 29.6572 23.8354 29.2128 23 28.4816Z" fill="#004195"/>
</svg>
