<?xml version="1.0" encoding="utf-8"?>
<!DOCTYPE svg PUBLIC "-//W3C//DTD SVG 1.1//EN" "http://www.w3.org/Graphics/SVG/1.1/DTD/svg11.dtd">
<svg version="1.1" id="Layer_1" xmlns="http://www.w3.org/2000/svg" xmlns:xlink="http://www.w3.org/1999/xlink" x="0px" y="0px"
	 width="30px" height="30px" viewBox="-6.5 -5 30 30" enable-background="new -6.5 -5 30 30" xml:space="preserve">
<path fill="#134478" d="M4.6,10.8c0.2-0.101,0.3-0.101,0.5,0c0.2,0.1,0.4,0.2,0.5,0.3c1.8,1.3,4.2,1.2,5.9-0.1
	c0.2-0.101,0.4-0.2,0.6-0.2c1.601,0.2,3.101,1.1,4,2.399c0.301,0.4,0.5,0.7,0.7,1.101c0.101,0.1,0.101,0.3,0.101,0.5
	c0,0.1-0.101,0.2-0.2,0.3c-0.2,0.4-0.5,0.7-0.7,1.1c-0.7,1-1.7,1.801-2.7,2.4c-1.5,0.9-3.1,1.4-4.8,1.4H8.4
	c-0.8,0-1.7-0.101-2.5-0.4c-0.9-0.2-1.7-0.6-2.4-1.1c-0.9-0.601-1.7-1.301-2.4-2.101c-0.4-0.5-0.7-1-1-1.5C0,14.8,0,14.699,0,14.5
	c0.4-1,1.1-1.9,1.9-2.5C2.7,11.399,3.6,11,4.6,10.8z"/>
<path fill="#8CA3A6" d="M8.399,0h0.2c1.1,0,2.1,0.4,2.9,1.1c2,1.6,2.5,4.5,1.3,6.7c-0.601,1.1-1.601,2-2.9,2.4
	C8.8,10.6,7.6,10.5,6.5,10c-1.6-0.8-2.6-2.3-2.9-4c-0.3-2.2,0.8-4.4,2.8-5.6C7,0.1,7.7,0,8.399,0z"/>
</svg>
