<svg width="45" height="45" fill="none" xmlns="http://www.w3.org/2000/svg"><g clip-path="url(#prefix__clip0)"><path d="M32.396 20.25H20.938c-.885 0-1.604.72-1.604 1.604v10.542c0 .884.72 1.604 1.604 1.604h11.458c.885 0 1.604-.72 1.604-1.604V21.854c0-.884-.72-1.604-1.604-1.604z" fill="#004195"/><path d="M32.396 12H13.604C12.72 12 12 12.72 12 13.604v2.292c0 .884.72 1.604 1.604 1.604h18.792c.884 0 1.604-.72 1.604-1.604v-2.292C34 12.72 33.28 12 32.396 12zM14.75 25.75a2.75 2.75 0 100-5.5 2.75 2.75 0 000 5.5zM14.75 34a2.75 2.75 0 100-5.5 2.75 2.75 0 000 5.5z" fill="#2987FD"/></g><defs><clipPath id="prefix__clip0"><path fill="#fff" transform="translate(12 12)" d="M0 0h22v22H0z"/></clipPath></defs></svg>