<svg xmlns="http://www.w3.org/2000/svg" viewBox="0 0 30 30"><path d="M15 21.5c1.3 0 2.5-.4 3.6-1.1 1.1-.7 1.9-1.7 2.4-2.9s.6-2.5.4-3.7c-.2-1.2-.9-2.4-1.8-3.3-.9-.9-2-1.5-3.3-1.8-1.2-.2-2.5-.1-3.7.4-1.2.5-2.2 1.3-2.9 2.4-.7 1.1-1.1 2.3-1.1 3.6 0 1.7.7 3.3 1.9 4.6 1.1 1.1 2.8 1.8 4.5 1.8zm-.7-8.6c0-.2.1-.4.2-.5.1-.1.3-.2.5-.2s.4.1.5.2.2.3.2.5v1.8L17 16c.1.1.2.3.2.5s-.1.4-.2.5c-.1.1-.3.2-.5.2s-.4-.1-.5-.2l-1.5-1.5c-.1-.1-.2-.3-.2-.5v-2.1z" fill="#134478"/><path d="M15 5c-.2 0-.4.1-.5.2-.1.1-.2.3-.2.5s.1.4.2.5c.1.1.3.2.5.2 2 0 3.9.7 5.5 1.9 1.6 1.3 2.6 3 3 5 .4 2 .1 4-.9 5.8-1 1.8-2.5 3.1-4.3 3.9-1.9.8-3.9.8-5.8.2-1.9-.6-3.6-1.8-4.6-3.5C6.8 18 6.3 16 6.6 14c.2-2 1.1-3.8 2.6-5.2v.4c0 .2 0 .4.1.5-.1.2.1.3.3.3s.4 0 .5-.1c.2-.1.2-.3.3-.5l.3-2.1c0-.2 0-.4-.2-.5s-.3-.2-.5-.3l-2.1-.3h-.3c-.1 0-.2.1-.3.1 0 .1 0 .2-.1.2 0 .1-.1.2-.1.3v.3c0 .1.1.2.1.3l.2.2c.1 0 .2.1.3.1l.4.1c-1.7 1.6-2.8 3.7-3.1 6-.3 2.3.2 4.7 1.5 6.6 1.2 2 3.1 3.4 5.3 4.2 2.2.7 4.6.7 6.8-.2 2.2-.9 4-2.4 5.1-4.5 1.1-2 1.5-4.4 1.1-6.7-.4-2.3-1.7-4.4-3.5-5.8C19.6 5.8 17.3 5 15 5z" fill="#8ca3a6"/></svg>