<svg width="32" height="32" fill="none" xmlns="http://www.w3.org/2000/svg"><path fill-rule="evenodd" clip-rule="evenodd" d="M16.05 24H8.604C8.302 24 8 23.7 8 23.5V8.6c0-.4.302-.6.604-.6h7.446c.302 0 .604.3.604.6v5.5c0 .3-.302.6-.604.6s-.604-.3-.604-.6v-5h-6.34v13.8h6.34v-5c0-.3.302-.6.604-.6s.604.3.604.6v5.5c0 .4-.302.6-.604.6Zm4.126-3.9c-.201.2-.604.2-.805 0a.481.481 0 0 1 0-.7l2.818-2.8h-9.862c-.302 0-.604-.3-.604-.6s.302-.5.604-.5h9.862l-2.818-2.8c-.201-.2-.201-.6 0-.8.201-.2.604-.2.805 0l3.723 3.7c.101 0 .101.1.101.1v.6l-.1.1-3.724 3.7Z" fill="#646F79"/></svg>