<svg width="45" height="45" viewBox="0 0 45 45" fill="none" xmlns="http://www.w3.org/2000/svg">
<path fill-rule="evenodd" clip-rule="evenodd" d="M20.143 13C24.0879 13 27.2858 14.5988 27.2858 16.5714C27.2858 17.0982 27.0577 17.5984 26.6481 18.0485C25.4663 18.1836 24.3291 18.5986 23.3332 19.264C23.022 19.4719 22.7281 19.702 22.4535 19.9518C21.7288 20.0756 20.9516 20.1427 20.143 20.1427C16.1981 20.1427 13 18.544 13 16.5714C13 14.5988 16.1981 13 20.143 13ZM21.1278 21.5446C20.8067 21.5624 20.4782 21.5715 20.143 21.5715C17.0202 21.5715 14.4829 20.7826 13 19.4846V20.8571C13 22.8822 16.0376 24.4119 20.077 24.4284C20.1657 23.8139 20.3308 23.2096 20.5709 22.6299C20.7275 22.2519 20.914 21.8891 21.1278 21.5446ZM20.0085 25.8568C16.9474 25.8344 14.4616 25.0496 13 23.7704V25.1429C13 27.179 16.0707 28.7142 20.143 28.7142C20.3373 28.7142 20.5293 28.7108 20.7188 28.7039C20.4581 28.1522 20.2644 27.5679 20.1441 26.9632C20.0712 26.5967 20.0261 26.2269 20.0085 25.8568ZM21.5655 30.086C21.1069 30.1236 20.6321 30.143 20.143 30.143C17.0202 30.143 14.4829 29.3541 13 28.0561V29.4286C13 31.4648 16.0707 33 20.143 33C21.7677 33 23.2329 32.7556 24.4072 32.3326C23.5885 31.962 22.8387 31.4453 22.1967 30.8033C21.9704 30.577 21.7597 30.3374 21.5655 30.086Z" fill="#004195"/>
<path d="M30.8572 21.9643C30.8572 20.8793 29.0984 20 26.9287 20C24.759 20 23 20.8793 23 21.9643C23 23.0492 24.759 23.9285 26.9287 23.9285C29.0984 23.9285 30.8572 23.0492 30.8572 21.9643Z" fill="#2987FD"/>
<path d="M23 23.5665V24.3214C23 25.4413 24.6889 26.2857 26.9287 26.2857C29.1684 26.2857 30.8572 25.4413 30.8572 24.3214V23.5665C30.0416 24.2804 28.646 24.7143 26.9287 24.7143C25.2111 24.7143 23.8156 24.2804 23 23.5665Z" fill="#2987FD"/>
<path d="M23 25.9237V26.6786C23 27.7985 24.6889 28.6428 26.9287 28.6428C29.1684 28.6428 30.8572 27.7985 30.8572 26.6786V25.9237C30.0416 26.6376 28.646 27.0715 26.9287 27.0715C25.2111 27.0715 23.8156 26.6376 23 25.9237Z" fill="#2987FD"/>
<path d="M23 28.2809V29.0357C23 30.1556 24.6889 31 26.9287 31C29.1684 31 30.8572 30.1556 30.8572 29.0357V28.2809C30.0416 28.9947 28.646 29.4287 26.9287 29.4287C25.2111 29.4287 23.8156 28.9947 23 28.2809Z" fill="#2987FD"/>
</svg>
