<svg version="1.1" id="Layer_1" xmlns="http://www.w3.org/2000/svg" xmlns:xlink="http://www.w3.org/1999/xlink" x="0" y="0" viewBox="0 0 30 30" style="enable-background:new 0 0 30 30" xml:space="preserve"><style>.st2{fill:#fff}</style><defs><path id="SVGID_1_" d="M4 4h22v22H4z"/></defs><clipPath id="SVGID_00000170992279942008771660000015358958028588641707_"><use xlink:href="#SVGID_1_" style="overflow:visible"/></clipPath><g style="clip-path:url(#SVGID_00000170992279942008771660000015358958028588641707_)"><path d="M14.7 21.4c0-1.1.3-2.2.8-3.1.6-.9 1.4-1.7 2.3-2.2 1-.5 2-.8 3.1-.7 1.1 0 2.1.4 3.1 1V15c0-2.7-.1-4.3-.3-6-.1-1-.5-1.9-1.1-2.6-.6-.8-1.4-1.3-2.3-1.7 0 0-.1 0-.1-.1-.4-.1-.7-.2-1.1-.2-1.4-.3-1.6-.4-4.6-.4-3 0-3.5.1-4.9.3-.4 0-.8.1-1.2.3-.9.2-1.8.8-2.4 1.6-.6.7-1 1.7-1.1 2.6-.2 1.7-.3 3.4-.3 6 0 2.7.1 4.3.3 6 .1 1.2.6 2.3 1.5 3.1.8.8 1.9 1.4 3.1 1.5 1.4.1 1.7.3 4.7.3h2.3c-.6-.6-1-1.2-1.3-2-.4-.7-.5-1.5-.5-2.3z" style="fill:#134478"/><path class="st2" d="M9.7 9.7H19c.3 0 .5.1.7.3.2.2.3.5.3.7s-.1.5-.3.7c-.2.2-.5.3-.7.3H9.7c-.3 0-.5-.1-.7-.3-.2-.2-.3-.5-.3-.7s.1-.5.3-.7c.1-.2.4-.3.7-.3zm0 6.4c-.3 0-.5-.1-.7-.3-.2-.2-.3-.4-.3-.7 0-.3.1-.5.3-.7.2-.2.4-.3.7-.3H15c.1 0 .3 0 .4.1.1.1.2.1.3.2.1.1.2.2.2.3.1.1.1.3.1.4 0 .1 0 .3-.1.4-.1.1-.1.2-.2.3-.1.1-.2.2-.3.2-.1.1-.3.1-.4.1H9.7z"/><path d="M20.7 16.8c-.9 0-1.8.3-2.6.8s-1.3 1.2-1.7 2.1c-.3.8-.4 1.8-.3 2.7.2.9.6 1.7 1.3 2.4.6.6 1.5 1.1 2.4 1.3.9.2 1.8.1 2.7-.3.8-.3 1.6-.9 2.1-1.7s.8-1.6.8-2.6c0-1.2-.5-2.4-1.3-3.3-1-.9-2.1-1.4-3.4-1.4z" style="fill:#2987fd"/><path class="st2" d="M22.6 22.1h-1.9c-.1 0-.3-.1-.4-.2-.1-.1-.2-.2-.2-.4v-2.9c0-.1.1-.3.2-.4.1-.1.2-.2.4-.2s.3.1.4.2c.1.1.2.2.2.4V21h1.4c.1 0 .3.1.4.2.1.1.2.2.2.4s-.1.3-.2.4c-.3 0-.4.1-.5.1z"/></g></svg>