<svg xmlns="http://www.w3.org/2000/svg" width="30" height="30" viewBox="-5 -5 30 30"><path fill="#2987FD" d="M9.983 16.458a6.444 6.444 0 005.95-3.976 6.448 6.448 0 00-1.396-7.018 6.436 6.436 0 00-9.909.976 6.436 6.436 0 00-1.085 3.578 6.45 6.45 0 006.44 6.44zm-.715-8.586a.715.715 0 111.431 0v1.846l1.309 1.31a.717.717 0 01-1.016 1.016l-1.517-1.517a.748.748 0 01-.208-.508V7.872z"/><path fill="#004195" d="M9.982 0a.711.711 0 00-.715.715.718.718 0 00.715.716 8.618 8.618 0 018.494 6.953A8.622 8.622 0 114.034 3.847l-.048.37a.716.716 0 101.419.185l.278-2.128a.748.748 0 00-.617-.803l-2.128-.278a.715.715 0 10-.186 1.417l.446.06a10.003 10.003 0 00-1.663 12.654 9.998 9.998 0 0012.127 3.982 10.007 10.007 0 005.096-4.479A10.003 10.003 0 009.982 0z"/></svg>