<svg width="32" height="32" viewBox="0 0 32 32" fill="none" xmlns="http://www.w3.org/2000/svg">
<path fill-rule="evenodd" clip-rule="evenodd" d="M10.3229 10.3211L16 14.3548L21.6771 10.3211H10.3229ZM22.6789 11.2299L16.3826 15.7036C16.1535 15.8664 15.8465 15.8664 15.6174 15.7036L9.3211 11.2299V20.3598C9.3211 20.5005 9.47583 20.7431 9.83486 20.7431H22.1651C22.5242 20.7431 22.6789 20.5005 22.6789 20.3598V11.2299ZM8 10.7044C8 9.69209 8.89679 9 9.83486 9H22.1651C23.1032 9 24 9.69209 24 10.7044V20.3598C24 21.3721 23.1032 22.0642 22.1651 22.0642H9.83486C8.89679 22.0642 8 21.3721 8 20.3598V10.7044Z" fill="#646F79"/>
</svg>
