<svg width="30" height="30" viewBox="7.5 7.5 30 30" fill="none" xmlns="http://www.w3.org/2000/svg"><path fill-rule="evenodd" clip-rule="evenodd" d="M29.72 21.29v9.629a1.872 1.872 0 01-1.871 1.872H12.872A1.872 1.872 0 0111 30.919V21.29c0-1.035.839-1.872 1.872-1.872H27.85c1.033 0 1.872.837 1.872 1.872zm-15.607 5.617h.62a.803.803 0 000-1.605h-.62a.803.803 0 000 1.605zm11.874 0h.62a.803.803 0 000-1.605h-.62a.803.803 0 000 1.605z" fill="#2987FD"/><path d="M23.481 27.522a.7.7 0 00-.951.21c-.307.475-.814 1.043-1.481 1.047-.558.004-1.171-.296-1.617-1l.92-.006a.682.682 0 00.685-.678.682.682 0 00-.694-.67l-1.363.01a3.417 3.417 0 01-.005-.674l1.363-.009a.682.682 0 00.685-.678.682.682 0 00-.695-.67l-.92.007c.436-.71 1.045-1.018 1.603-1.021.668-.005 1.182.556 1.496 1.027a.7.7 0 00.954.197c.32-.203.41-.62.202-.932-1.803-2.708-4.821-1.783-5.783.739l-.31.002a.682.682 0 00-.685.678.682.682 0 00.694.67c.029 0 0-.027.002.336.003.363.032.337.003.337a.682.682 0 00-.685.678c.002.332.25.607.573.66.081.013.106.01.432.008.99 2.491 4.018 3.406 5.792.662a.665.665 0 00-.215-.93z" fill="#fff"/><path fill-rule="evenodd" clip-rule="evenodd" d="M16.174 18.349l11.094-5.174a1.872 1.872 0 012.488.907l4.069 8.725a1.873 1.873 0 01-.906 2.488l-2.128.993V21.29a2.942 2.942 0 00-2.942-2.942H16.174z" fill="#134478"/></svg>