<svg width="39" height="40" fill="none" xmlns="http://www.w3.org/2000/svg"><g filter="url(#a)"><rect x="4" y="2.439" width="31.61" height="31.61" rx="8.318" fill="#fff"/><g clip-path="url(#b)"><path d="M18.213 11.427a.995.995 0 0 1 .633-.867l4.696-1.815c.23-.09.485-.09.716 0l4.695 1.815a.994.994 0 0 1 .634.867l.182 2.96a8.952 8.952 0 0 1-4.29 8.205l-1.064.646a.993.993 0 0 1-1.03 0l-1.065-.646a8.952 8.952 0 0 1-4.29-8.206l.183-2.96Z" fill="#EC3561"/><path d="M23.904 23.382a.992.992 0 0 0 .511-.144l1.065-.646a8.952 8.952 0 0 0 4.29-8.206l-.183-2.96a.994.994 0 0 0-.634-.866l-4.695-1.815a.993.993 0 0 0-.354-.067v14.704Z" fill="#C4235D"/><path d="m16.068 13.459.505.195a.298.298 0 0 1 .19.297l-.022.355a10.247 10.247 0 0 0 3.945 8.728c.109.085.15.233.092.358a8.943 8.943 0 0 1-3.488 3.914l-1.065.646a.993.993 0 0 1-1.03 0l-1.065-.646A8.952 8.952 0 0 1 9.84 19.1l.183-2.96a.994.994 0 0 1 .633-.866l4.695-1.815c.231-.09.486-.09.717 0Z" fill="#004195"/></g><rect x="4.208" y="2.647" width="31.194" height="31.194" rx="8.11" stroke="#F3F8FE" stroke-width=".416"/></g><defs><clipPath id="b"><path fill="#fff" d="M9.823 8.262h19.964v19.964H9.823z"/></clipPath><filter id="a" x=".673" y=".775" width="38.264" height="38.264" filterUnits="userSpaceOnUse" color-interpolation-filters="sRGB"><feFlood flood-opacity="0" result="BackgroundImageFix"/><feColorMatrix in="SourceAlpha" values="0 0 0 0 0 0 0 0 0 0 0 0 0 0 0 0 0 0 127 0" result="hardAlpha"/><feOffset dy="1.664"/><feGaussianBlur stdDeviation="1.664"/><feColorMatrix values="0 0 0 0 0 0 0 0 0 0 0 0 0 0 0 0 0 0 0.06 0"/><feBlend in2="BackgroundImageFix" result="effect1_dropShadow_123_7295"/><feBlend in="SourceGraphic" in2="effect1_dropShadow_123_7295" result="shape"/></filter></defs></svg>