<svg width="37" height="37" fill="none" xmlns="http://www.w3.org/2000/svg"><g clip-path="url(#a)"><path d="M.026-.36c-4.22 4.312-5.694 14.693-5.292 22.518.223 4.38 1.228 12.273 5.426 15.718 3.707 3.08 11.165 4.563 18.51 4.563 7.347 0 14.805-1.528 18.511-4.563 4.198-3.444 5.203-11.406 5.426-15.718.402-7.825-1.072-18.251-5.292-22.517-6.788-6.936-30.5-6.936-37.289 0Z" fill="#2CC678"/><g clip-path="url(#b)" fill="#fff"><path d="M3.52 16.489a.888.888 0 0 0 .88.997h3.614a.888.888 0 0 0 .876-.74 9.86 9.86 0 0 1 8.087-8.087.888.888 0 0 0 .74-.876V4.17a.888.888 0 0 0-.997-.882 15.259 15.259 0 0 0-8.862 4.338A15.259 15.259 0 0 0 3.52 16.49Z" fill-opacity=".65"/><path d="M24.33 26.414a9.786 9.786 0 0 1-5.716 1.84 9.835 9.835 0 0 1-9.724-8.236.888.888 0 0 0-.876-.74H4.401a.888.888 0 0 0-.881.997c.943 7.595 7.432 13.322 15.093 13.322 3.413 0 6.641-1.108 9.334-3.204a.888.888 0 0 0 .083-1.328l-2.556-2.557a.888.888 0 0 0-1.144-.094Z" fill-opacity=".85"/><path d="M20.25 8.659a9.835 9.835 0 0 1 8.235 9.723c0 2.054-.636 4.03-1.84 5.716a.888.888 0 0 0 .095 1.144l2.556 2.556a.888.888 0 0 0 1.329-.082 15.066 15.066 0 0 0 3.203-9.334c0-7.661-5.727-14.15-13.322-15.094a.888.888 0 0 0-.997.882v3.613c0 .434.313.804.74.876Z" fill-opacity=".5"/><path d="M19.205 12.279H18.02a.888.888 0 0 0-.888.888V23.53h2.961V13.167a.888.888 0 0 0-.888-.888ZM21.87 23.529h2.073c.49 0 .888-.398.888-.888v-7.105a.888.888 0 0 0-.888-.889H21.87v8.882ZM15.356 17.016h-2.071a.888.888 0 0 0-.888.888v4.737c0 .49.397.888.888.888h2.07v-6.513Z"/></g></g><defs><clipPath id="a"><rect x=".671" y=".439" width="36" height="36" rx="12.632" fill="#fff"/></clipPath><clipPath id="b"><path fill="#fff" d="M3.513 3.281h30.316v30.316H3.513z"/></clipPath></defs></svg>