<svg width="39" height="39" fill="none" xmlns="http://www.w3.org/2000/svg"><g filter="url(#a)"><rect x="3.61" y="2" width="31.61" height="31.61" rx="8.318" fill="#fff"/><g clip-path="url(#b)"><path d="M14.06 14.05h-.32v1.114h-1.912v-2.548h-.32v2.865h2.55V14.05h.001Zm.636-3.227.32.519V8.954h-3.507v.318h3.187v1.55Zm-1.115 1.793v-2.228h-2.072v.319h1.753v2.228h1.912v3.661h-4.78V8.955h-.319v7.96h5.418v-4.299H13.58Z" fill="#505860" stroke="#505860" stroke-width=".52" stroke-linejoin="bevel"/><path d="M20.751 16.914v-.609l-2.709-4.415v4.706h-1.115V8.955h-.32v7.96h1.753v-3.662c0-.117-.01-.234-.03-.345.041.107.068.17.153.31l2.268 3.696Zm-2.709-7.96v.61l2.71 4.415V9.274h1.114v7.641h.32v-7.96h-1.753v3.662c0 .117.011.234.03.345a1.59 1.59 0 0 0-.153-.31l-2.268-3.697Z" fill="#002776" stroke="#002776" stroke-width=".52" stroke-linejoin="bevel"/><path d="m26.17 12.616.52.319h1.71v3.661h-4.78V9.274h4.621v-.32h-4.94v7.96h5.418v-4.298h-2.55Zm2.071-2.228h-3.506v5.091h2.55v-1.433l-.319.003v1.115h-1.913v-4.458h2.668l.52-.318Z" fill="#009FDA" stroke="#009FDA" stroke-width=".52" stroke-linejoin="bevel"/><path d="M28.696 18.98h-18.64v.759h18.64v-.759ZM11.659 26.672h-1.603v-4.874h1.627c.901 0 1.683.293 1.683 1.217 0 .628-.336.983-.863 1.122v.014c.58.086 1.07.474 1.07 1.17 0 .991-.802 1.35-1.914 1.35Zm-.087-4.083h-.499v1.217h.475c.557 0 .796-.197.796-.628.005-.407-.258-.59-.772-.59Zm.087 1.955h-.586v1.342h.542c.595 0 .907-.182.907-.652.005-.455-.259-.69-.863-.69ZM14.987 26.672h-1.04l1.86-4.874h.998l1.914 4.874h-1.127l-.331-.916h-1.947l-.327.916Zm1.56-2.904c-.154-.417-.25-.791-.265-.844h-.014c-.014.053-.11.432-.254.844l-.413 1.164h1.363l-.418-1.164ZM22.71 26.672l-1.9-2.708c-.278-.378-.46-.719-.47-.733h-.014c0 .014.029.335.029.652v2.789h-.94v-4.874h1.04l1.76 2.526c.294.416.505.805.514.819h.015c0-.024-.03-.388-.03-.767v-2.578h.94v4.874h-.944ZM27.55 21.798h1.141l-1.794 2.262 1.876 2.612H27.55l-1.665-2.349v2.349H24.86v-4.874h1.026v2.133l1.665-2.133Z" fill="#505860"/></g><rect x="3.818" y="2.208" width="31.194" height="31.194" rx="8.11" stroke="#F3F8FE" stroke-width=".416"/></g><defs><clipPath id="b"><path fill="#fff" d="M9.433 7.823h19.964v19.964H9.433z"/></clipPath><filter id="a" x=".282" y=".336" width="38.264" height="38.264" filterUnits="userSpaceOnUse" color-interpolation-filters="sRGB"><feFlood flood-opacity="0" result="BackgroundImageFix"/><feColorMatrix in="SourceAlpha" values="0 0 0 0 0 0 0 0 0 0 0 0 0 0 0 0 0 0 127 0" result="hardAlpha"/><feOffset dy="1.664"/><feGaussianBlur stdDeviation="1.664"/><feColorMatrix values="0 0 0 0 0 0 0 0 0 0 0 0 0 0 0 0 0 0 0.06 0"/><feBlend in2="BackgroundImageFix" result="effect1_dropShadow_123_7195"/><feBlend in="SourceGraphic" in2="effect1_dropShadow_123_7195" result="shape"/></filter></defs></svg>