<svg width="32" height="32" fill="none" xmlns="http://www.w3.org/2000/svg"><g clip-path="url(#a)"><path d="M3.844 3.62C1.064 6.46.094 13.296.359 18.45c.147 2.884.809 8.082 3.573 10.351 2.44 2.028 7.352 3.005 12.19 3.005 4.838 0 9.749-1.007 12.19-3.005 2.764-2.268 3.426-7.512 3.573-10.351.265-5.153-.706-12.02-3.485-14.829-4.47-4.567-20.086-4.567-24.556 0Z" fill="#F89728"/><g clip-path="url(#b)"><path d="M20.24 23.07h-8.236c-.252 0-.457.117-.457.26v1.56c0 .144.205.26.457.26h8.236c.252 0 .457-.116.457-.26v-1.56c0-.143-.205-.26-.457-.26Z" fill="#000" fill-opacity=".4"/><path d="M22.063 25.982H10.18a.457.457 0 1 1 0-.914h11.882a.457.457 0 1 1 0 .914Z" fill="#F89728"/><path d="M22.063 25.982H10.18a.457.457 0 1 1 0-.914h11.882a.457.457 0 1 1 0 .914Z" fill="#fff" fill-opacity=".5"/><path d="M25.718 10.902v10.053a2.285 2.285 0 0 1-2.285 2.285H8.81a2.285 2.285 0 0 1-2.284-2.285v-10.51a1.828 1.828 0 0 1 1.827-1.828h15.08a2.285 2.285 0 0 1 2.285 2.285Z" fill="#fff"/><path d="M25.718 20.441v.514a2.285 2.285 0 0 1-2.285 2.285H8.81a2.285 2.285 0 0 1-2.284-2.285v-.514h19.192Z" fill="#F89728"/><path d="M25.718 20.441v.514a2.285 2.285 0 0 1-2.285 2.285H8.81a2.285 2.285 0 0 1-2.284-2.285v-.514h19.192Z" fill="#fff" fill-opacity=".5"/><path d="M22.977 17.792a1.94 1.94 0 0 1-1.935 1.935h-9.84a1.94 1.94 0 0 1-1.935-1.935v-9.84a1.94 1.94 0 0 1 1.935-1.934h9.84a1.94 1.94 0 0 1 1.935 1.935v9.84Z" fill="#000"/><path d="M10.893 13.37h1.122a1.53 1.53 0 0 1 1.548 1.53c0 .86-.706 1.528-1.548 1.528h-1.122v-3.057Zm.793 2.38h.174c.474 0 .88-.26.88-.85 0-.542-.357-.852-.87-.852h-.184v1.703ZM14.588 16.428h-.735v-2.08h.735v2.08ZM17.268 16.225c0 .88-.435 1.238-1.2 1.238-.473 0-1.122-.251-1.18-.793h.823c.02.077.077.126.135.155a.567.567 0 0 0 .213.048c.397 0 .474-.261.474-.6v-.097a.857.857 0 0 1-.658.281c-.61 0-1.025-.464-1.025-1.064 0-.61.425-1.123 1.064-1.123.242 0 .464.078.61.29h.01v-.222h.734v1.887Zm-1.654-.852c0 .262.174.465.474.465s.474-.203.474-.465a.457.457 0 0 0-.474-.474c-.3.01-.474.223-.474.474Z" fill="#fff"/><path d="M18.4 16.428h-.735v-2.08h.735v2.08ZM18.826 13.37h1.122a1.53 1.53 0 0 1 1.548 1.53c0 .86-.706 1.528-1.548 1.528h-1.122v-3.057Zm.793 2.38h.175c.474 0 .88-.26.88-.85 0-.542-.358-.852-.87-.852h-.185v1.703Z" fill="#F89728"/><path d="M14.637 13.555a.42.42 0 0 1-.416.416.42.42 0 0 1-.416-.416.42.42 0 0 1 .416-.416c.232.01.416.193.416.416Z" fill="#fff"/><path d="M18.43 13.555a.42.42 0 0 1-.417.416.42.42 0 0 1-.416-.416.42.42 0 0 1 .416-.416c.232.01.416.193.416.416Z" fill="#F89728"/></g></g><defs><clipPath id="a"><rect x=".122" width="31.61" height="31.61" rx="8.318" fill="#fff"/></clipPath><clipPath id="b"><path fill="#fff" d="M6.14 6.018h19.964v19.964H6.14z"/></clipPath></defs></svg>