<svg width="32" height="33" fill="none" xmlns="http://www.w3.org/2000/svg"><g clip-path="url(#a)"><path d="M3.893 4.06C1.113 6.899.143 13.735.408 18.888c.147 2.884.808 8.083 3.573 10.351 2.44 2.028 7.352 3.005 12.19 3.005 4.837 0 9.749-1.007 12.19-3.005 2.764-2.268 3.426-7.512 3.573-10.351.264-5.153-.706-12.019-3.485-14.828-4.47-4.568-20.086-4.568-24.556 0Z" fill="#14AB8C"/><g clip-path="url(#b)"><path d="M9.011 6.262A3.027 3.027 0 0 0 5.994 9.28v7.892a.706.706 0 0 0 .696.697h4.643a.705.705 0 0 0 .696-.697V9.28a3.027 3.027 0 0 0-3.018-3.018Z" fill="#000" fill-opacity=".4"/><path d="M25.957 10.673v14.856a.706.706 0 0 1-.696.697 2.331 2.331 0 0 1-1.597-.613.985.985 0 0 0-1.449 0 2.377 2.377 0 0 1-3.184 0 .984.984 0 0 0-1.45 0 2.386 2.386 0 0 1-3.193 0 1.004 1.004 0 0 0-1.458 0c-.436.4-1.006.618-1.597.613a.706.706 0 0 1-.697-.697V9.28a4.132 4.132 0 0 0-1.281-2.998.25.25 0 0 1 .12 0h12.072a4.41 4.41 0 0 1 4.41 4.392Z" fill="#fff"/><path d="M21.547 22.047h-6.5a.696.696 0 0 1 0-1.393h6.5a.697.697 0 0 1 0 1.393Z" fill="#0A7D67"/><path d="M21.155 15.938a.774.774 0 0 0-1.072.236c-.35.547-.923 1.2-1.674 1.2-.628 0-1.316-.352-1.811-1.17h1.035c.428 0 .776-.349.776-.78 0-.43-.348-.78-.776-.78h-1.534a4.062 4.062 0 0 1 0-.779h1.534c.428 0 .776-.35.776-.78 0-.43-.348-.78-.776-.78h-1.035c.496-.818 1.184-1.17 1.81-1.17.752 0 1.326.654 1.675 1.201a.774.774 0 0 0 1.072.236.782.782 0 0 0 .235-1.077c-2.006-3.144-5.41-2.103-6.512.81h-.35a.778.778 0 0 0-.775.78c0 .412.323.78.79.78-.019.272-.02.5 0 .78a.777.777 0 0 0-.79.78c0 .43.347.78.776.78h.35c1.102 2.914 4.505 3.955 6.51.81a.782.782 0 0 0-.234-1.077Z" fill="#14AB8C"/></g></g><defs><clipPath id="a"><rect x=".171" y=".439" width="31.61" height="31.61" rx="8.318" fill="#fff"/></clipPath><clipPath id="b"><path fill="#fff" d="M5.994 6.262h19.964v19.964H5.994z"/></clipPath></defs></svg>