<svg xmlns="http://www.w3.org/2000/svg" width="322" height="68" fill="none" viewBox="0 0 322 68"><path fill="#C7D401" d="M102.869 18.7309H91.6606V48.3377H98.4279V39.0327H102.869C108.706 39.0327 113.231 34.5071 113.231 28.8818C113.231 23.2565 108.706 18.7309 102.869 18.7309ZM102.869 32.6884H98.4279V25.0752H102.869C104.941 25.0752 106.464 26.7248 106.464 28.8818C106.464 31.0389 104.941 32.6884 102.869 32.6884Z"/><path fill="#C7D401" d="M125.267 48.9299C131.485 48.9299 136.476 44.0659 136.476 37.7639C136.476 31.4619 131.485 26.5979 125.267 26.5979C119.05 26.5979 114.059 31.4619 114.059 37.7639C114.059 44.0659 119.05 48.9299 125.267 48.9299ZM125.267 42.7547C122.518 42.7547 120.403 40.7669 120.403 37.7639C120.403 34.7609 122.518 32.773 125.267 32.773C128.017 32.773 130.131 34.7609 130.131 37.7639C130.131 40.7669 128.017 42.7547 125.267 42.7547Z"/><path fill="#C7D401" d="M152.044 33.2806V27.19H147.687V21.2686L141.343 23.1719V27.19H137.959V33.2806H141.343V40.7669C141.343 46.6882 143.754 49.1837 152.044 48.3377V42.5856C149.252 42.7547 147.687 42.5856 147.687 40.7669V33.2806H152.044Z"/><path fill="#C7D401" d="M159.855 25.329C161.928 25.329 163.662 23.5949 163.662 21.5224C163.662 19.4499 161.928 17.7158 159.855 17.7158C157.783 17.7158 156.049 19.4499 156.049 21.5224C156.049 23.5949 157.783 25.329 159.855 25.329ZM156.683 48.3377C156.683 50.5794 155.626 51.4253 153.3 51.2984V57.389C159.982 57.7696 163.028 54.9358 163.028 48.3377V27.19H156.683V48.3377Z"/><path fill="#C7D401" d="M173.364 40.3016H188.379C188.548 39.498 188.633 38.6521 188.633 37.7639C188.633 31.3773 184.065 26.5979 177.89 26.5979C171.207 26.5979 166.639 31.4619 166.639 37.7639C166.639 44.0659 171.123 48.9299 178.355 48.9299C182.373 48.9299 185.503 47.4495 187.576 44.5735L182.5 41.6551C181.654 42.5856 180.174 43.2623 178.44 43.2623C176.113 43.2623 174.168 42.501 173.364 40.3016ZM173.237 35.5645C173.83 33.4074 175.437 32.2232 177.848 32.2232C179.751 32.2232 181.654 33.1114 182.331 35.5645H173.237Z"/><path fill="#C7D401" d="M197.411 33.3651C197.411 32.6038 198.088 32.1809 199.188 32.1809C200.583 32.1809 201.429 32.9422 202.021 34.0419L207.435 31.1235C205.659 28.1205 202.614 26.5979 199.188 26.5979C194.789 26.5979 190.898 28.9241 190.898 33.5343C190.898 40.8514 201.302 39.6249 201.302 41.9511C201.302 42.797 200.541 43.2623 199.018 43.2623C197.157 43.2623 195.973 42.3741 195.423 40.7669L189.925 43.8967C191.574 47.3227 194.789 48.9299 199.018 48.9299C203.586 48.9299 207.816 46.8574 207.816 41.9934C207.816 34.1688 197.411 35.776 197.411 33.3651Z"/><path fill="#C7D401" d="M233.626 27.19L230.581 38.5252L227.282 27.19H221.361L218.062 38.5252L215.016 27.19H208.249L215.016 48.3377H220.938L224.321 37.0449L227.705 48.3377H233.626L240.394 27.19H233.626Z"/><path fill="#C7D401" d="M246.084 25.329C248.156 25.329 249.89 23.5949 249.89 21.5224C249.89 19.4499 248.156 17.7158 246.084 17.7158C244.011 17.7158 242.277 19.4499 242.277 21.5224C242.277 23.5949 244.011 25.329 246.084 25.329ZM242.912 48.3377H249.256V27.19H242.912V48.3377Z"/><path fill="#C7D401" d="M257.292 25.329C259.365 25.329 261.099 23.5949 261.099 21.5224C261.099 19.4499 259.365 17.7158 257.292 17.7158C255.22 17.7158 253.485 19.4499 253.485 21.5224C253.485 23.5949 255.22 25.329 257.292 25.329ZM254.12 48.3377C254.12 50.5794 253.062 51.4253 250.736 51.2984V57.389C257.419 57.7696 260.464 54.9358 260.464 48.3377V27.19H254.12V48.3377Z"/><path fill="#C7D401" d="M273 42.4164L280.994 31.4196V27.19H264.922V33.1114H272.493L264.499 44.1082V48.3377H281.417V42.4164H273Z"/><path fill="#C7D401" d="M289.594 40.3016H304.609C304.778 39.498 304.863 38.6521 304.863 37.7639C304.863 31.3773 300.295 26.5979 294.12 26.5979C287.437 26.5979 282.869 31.4619 282.869 37.7639C282.869 44.0659 287.353 48.9299 294.585 48.9299C298.603 48.9299 301.733 47.4495 303.806 44.5735L298.73 41.6551C297.884 42.5856 296.404 43.2623 294.67 43.2623C292.343 43.2623 290.398 42.501 289.594 40.3016ZM289.467 35.5645C290.059 33.4074 291.667 32.2232 294.078 32.2232C295.981 32.2232 297.884 33.1114 298.561 35.5645H289.467Z"/><path fill="#C7D401" d="M314.806 30.9543V27.19H308.461V48.3377H314.806V38.779C314.806 34.5917 318.528 33.5343 321.15 33.9573V26.7671C318.485 26.7671 315.652 28.1205 314.806 30.9543Z"/><path fill="#CED920" d="M17.8584 64.5531V55.7704C17.8584 53.6435 20.0175 56.2812 21.9834 57.0878C24.0897 57.9573 26.5372 59.0156 28.1313 59.8602C28.6116 60.114 29.0132 60.4947 29.2925 60.9607C29.5717 61.4268 29.7178 61.9605 29.7151 62.5038V64.477C29.714 65.0499 29.5477 65.6104 29.2362 66.0912C28.9246 66.5721 28.481 66.9528 27.9585 67.1879C27.0437 67.5978 25.7014 67.9564 23.7824 67.993C21.8633 68.0296 20.4961 67.6783 19.5813 67.2523C19.0673 67.0126 18.6323 66.6314 18.3272 66.1533C18.0221 65.6753 17.8595 65.1202 17.8584 64.5531Z"/><path fill="#CED920" d="M61.3328 64.7375V55.3311C61.3328 53.4282 59.405 56.1918 57.6441 56.9135C55.3664 57.8459 52.5647 59.0477 50.8682 59.964C50.447 60.1932 50.0955 60.5317 49.8505 60.9439C49.6055 61.3561 49.4762 61.8266 49.4761 62.3061V64.6599C49.4736 65.151 49.6068 65.6332 49.861 66.0534C50.1151 66.4737 50.4804 66.8156 50.9165 67.0415C51.8284 67.5113 53.2585 67.9563 55.4045 67.9973C57.6382 68.0398 59.0903 67.5582 59.9964 67.0576C60.405 66.8242 60.7442 66.4864 60.979 66.0786C61.2139 65.6709 61.336 65.208 61.3328 64.7375Z"/><path fill="#CED920" d="M1.31741 44.2065C1.62188 44.3807 4.70754 44.4992 6.34991 44.5475C6.66825 44.558 6.9797 44.6429 7.25932 44.7954C7.53893 44.9479 7.77894 45.1638 7.96008 45.4258C10.6549 49.3049 20.0876 62.5038 40.0009 61.8466C61.8568 61.1308 70.7288 51.663 70.4316 36.1191C70.1345 20.5751 54.8921 10.6857 36.5771 10.393C20.2837 10.128 9.52487 22.9362 7.09937 26.0994C6.93168 26.3172 6.72189 26.499 6.48249 26.6341C6.24309 26.7691 5.97897 26.8546 5.70585 26.8855L2.3567 27.2573C1.95283 27.3031 1.57171 27.468 1.2618 27.731C0.951886 27.994 0.727181 28.3432 0.616254 28.7342C0.204929 30.1834 0 32.6089 0 35.7897C0 40.4387 0.585515 44.2065 1.31741 44.2065Z"/><path fill="#CED920" d="M69.7487 31.5618C69.7487 31.5618 71.1169 33.5403 73.7861 33.4804C76.4553 33.4205 78.0747 29.2449 77.4366 27.1421C76.7984 25.0393 74.3569 25.8331 74.9491 29.7017C75.5412 33.5702 78.0523 34.1229 79.3981 33.4804C80.7439 32.8379 81.7252 30.1585 81.5199 26.7167C81.5199 26.7167 82.0639 32.8573 79.5573 34.1199C77.3222 35.2462 74.9491 33.8593 74.1966 30.5928C73.444 27.3263 74.8583 24.7352 76.3644 24.8281C77.8706 24.921 79.3285 26.8156 78.4168 30.5928C77.505 34.37 74.6418 37.1048 70.3241 36.5836C70.3241 36.5911 69.7252 34.0046 69.7487 31.5618Z"/><path fill="#CED920" d="M21.9028 13.595C21.9028 13.595 21.3226 4.10775 25.7089 0C25.7089 0 31.8485 1.79924 33.019 9.26494C34.1894 16.7306 30.1547 19.6371 30.1547 19.6371C30.1547 19.6371 23.0139 21.8938 21.9028 13.595Z"/><path fill="#C0CA26" d="M25.6792 0C25.6792 0 28.5872 2.68907 28.9785 9.76107C29.3698 16.8331 27.5974 19.1574 27.5974 19.1574C27.5974 19.1574 28.4107 19.9202 29.9207 19.5221C31.4307 19.1241 33.7862 15.2287 33.1141 9.21738C32.442 3.20604 27.6925 0.547699 25.6792 0Z"/><path fill="#fff" d="M33.2863 12.0745L33.2818 12.1445C33.2974 12.3913 33.4283 12.6272 33.6488 12.8058C33.8692 12.9844 34.1632 13.0928 34.4729 13.1095C37.0789 13.2529 43.7909 13.7706 50.484 15.5182C50.6936 15.5718 50.9156 15.5808 51.1276 15.5442C51.3396 15.5075 51.534 15.4266 51.691 15.3095C51.8481 15.1925 51.9623 15.0436 52.0221 14.8778C52.0818 14.712 52.085 14.5352 52.0313 14.3655C51.9819 14.2081 51.8853 14.0615 51.7499 13.9386C51.6145 13.8157 51.4444 13.7202 51.2543 13.6604C49.2147 13.0164 42.3895 11.0688 34.4874 11.0656C34.3226 11.0659 34.1604 11.0923 34.0104 11.1434C33.8604 11.1945 33.7255 11.2691 33.6137 11.3631C33.5019 11.457 33.4153 11.5682 33.3591 11.6904C33.3029 11.8125 33.2781 11.9431 33.2863 12.0745Z"/><path fill="#fff" d="M19.2489 27.9473C20.8254 27.9473 22.1033 26.6693 22.1033 25.0929C22.1033 23.5165 20.8254 22.2385 19.2489 22.2385C17.6725 22.2385 16.3945 23.5165 16.3945 25.0929C16.3945 26.6693 17.6725 27.9473 19.2489 27.9473Z"/><path fill="#CED920" d="M19.9528 25.166C20.5745 25.166 21.0785 24.6411 21.0785 23.9935C21.0785 23.346 20.5745 22.821 19.9528 22.821C19.3311 22.821 18.8271 23.346 18.8271 23.9935C18.8271 24.6411 19.3311 25.166 19.9528 25.166Z"/><path fill="#fff" fill-rule="evenodd" d="M27.9659 27.932L23.5568 32.3412L24.294 33.0783C24.7372 33.5218 24.9862 34.1232 24.9862 34.7502C24.9862 35.3772 24.7372 35.9785 24.294 36.422L23.5568 37.1592L43.9175 57.5121L44.6562 56.7749C45.0998 56.3325 45.7008 56.0841 46.3273 56.0841C46.9538 56.0841 47.5547 56.3325 47.9983 56.7749L48.7324 57.5121L53.14 53.103L51.0415 51.0076L52.5159 49.5317L54.6159 51.6271L59.0235 47.2179L58.2863 46.4808C57.8438 46.0369 57.5953 45.4357 57.5953 44.8089C57.5953 44.1822 57.8438 43.581 58.2863 43.1371L59.0235 42.3999L38.669 22.047L37.9318 22.7842C37.4879 23.2267 36.8867 23.4751 36.26 23.4751C35.6332 23.4751 35.032 23.2267 34.5882 22.7842L33.851 22.047L29.4418 26.4561L31.5403 28.5515L30.0644 30.0274L27.9659 27.932ZM46.8146 42.2166L46.1976 42.8335L47.3908 44.0267L47.991 43.4265L49.2216 44.6571L46.1534 47.7253L44.9335 46.5054L45.5208 45.918L44.9354 45.3326L44.348 45.9199L43.1167 44.6887L43.7468 44.0585L44.3096 44.6213L44.9317 43.9992L45.5507 44.6182L46.1301 44.0389L45.5241 43.4329L46.1058 42.8512L44.3291 41.0746L43.7952 41.6085L45.0119 42.8252L44.3598 43.4774L43.1404 42.258L42.5547 42.8437L43.1505 43.4395L42.5013 44.0887L41.8674 43.4547L42.4638 42.8583L41.8773 42.2719L38.874 45.2752L38.2202 44.7493C38.183 44.7865 38.1454 44.8238 38.1076 44.8612L38.1075 44.8613L38.1073 44.8614L38.1072 44.8616L38.1071 44.8617L38.107 44.8618L38.1068 44.8619L38.1067 44.8621L38.1066 44.8622L38.1064 44.8623L38.1063 44.8625L38.1062 44.8626C38.019 44.9489 37.931 45.0359 37.8455 45.1254C37.7177 45.2588 37.6033 45.2887 37.4664 45.1278C37.3794 45.0256 37.2824 44.9321 37.181 44.8344L37.181 44.8344L37.181 44.8344L37.181 44.8343L37.181 44.8343L37.181 44.8343L37.181 44.8343L37.1809 44.8343L37.1809 44.8343L37.1809 44.8343C37.1351 44.7901 37.0883 44.745 37.0412 44.6979L36.435 45.3041L35.7758 44.645L36.3734 44.0474L35.2176 42.8917L34.6506 43.4587L35.2067 44.0147L34.5559 44.6656L33.957 44.0667L34.5559 43.4678L33.3134 42.2254L33.9315 41.6073L32.7748 40.4505L32.2048 41.0205L32.7737 41.5895C32.7258 41.6454 32.6797 41.6999 32.6346 41.7531L32.6345 41.7532C32.5305 41.876 32.4321 41.9922 32.3304 42.1054C32.2166 42.2318 32.1029 42.2607 31.9713 42.1101C31.8747 41.9994 31.7689 41.8967 31.6565 41.7876C31.6057 41.7383 31.5536 41.6877 31.5003 41.6344L32.1096 41.0252L31.5298 40.4454L30.3496 41.6256L29.6905 40.9666L31.4926 39.1646L30.295 37.9671L30.9536 37.3086L31.5482 37.9032L32.7169 36.7345L32.1194 36.137L32.7646 35.4919L33.4042 36.1315L32.8127 36.723L33.3624 37.2727L33.9566 36.6785L34.6092 37.3312L33.3927 38.5477L33.975 39.13L36.9788 36.1262L36.373 35.5203L37.5876 34.3057L37.0047 33.7227L36.4084 34.3189L35.824 33.7344L35.2264 34.332L34.5769 33.6825L36.4077 31.8518L38.252 33.6961L37.6573 34.2908L38.8568 35.4903L39.4542 34.8929L40.0769 35.5157L39.4832 36.1094L40.0694 36.6955L40.6702 36.0946L41.2865 36.7109L43.1018 34.8955L43.7244 35.5181L41.9199 37.3226C43.55 38.952 45.1665 40.5686 46.8096 42.2116L46.8146 42.2166ZM40.6914 38.5598L40.063 37.9314L40.6244 37.3699L40.0607 36.8061L38.8968 37.97L39.4955 38.5687L38.844 39.2202L38.2475 38.6237L37.6767 39.1945L38.8329 40.3507L38.9806 40.2166L39.459 39.7821L40.0744 40.3975L39.4294 41.0425L38.8314 40.4445L37.0572 42.2188L37.6291 42.7907L38.8646 41.5552L40.0885 42.7791L41.875 40.9926L41.2651 40.3827L42.447 39.2008L41.2485 38.0023C41.0593 38.1919 40.8839 38.3672 40.6914 38.5598ZM34.0616 40.3892L34.5915 40.9192L35.7367 39.774L35.2067 39.244L34.0616 40.3892ZM47.3672 45.2864L46.8 44.7191L46.2408 45.2783L46.8081 45.8455L47.3672 45.2864ZM36.407 40.3345L36.9739 39.7676L36.4163 39.2101L35.8495 39.7769L36.407 40.3345ZM38.2904 43.4463L38.8568 44.0128L39.4131 43.4565L38.8467 42.89L38.2904 43.4463ZM37.0301 44.5993L37.597 44.0325L37.0374 43.4729L36.4706 44.0398L37.0301 44.5993ZM36.3639 42.7957L36.944 42.2155L36.4146 41.6861L35.8629 42.2377L36.3639 42.7957ZM37.0341 37.4206L36.4493 38.0055L37.0267 38.476L37.5581 37.9446L37.0341 37.4206ZM38.8519 36.6541L39.376 36.1301L38.8505 35.6046L38.3264 36.1287L38.8519 36.6541ZM37.0125 31.2453L41.2923 35.5251L45.5691 31.2484L41.2893 26.9686L37.0125 31.2453ZM41.2952 34.2069L38.3279 31.2396L41.2934 28.2741L44.2607 31.2414L41.2952 34.2069ZM54.108 39.7834L49.8308 44.0606L45.5508 39.7807L49.8281 35.5034L54.108 39.7834ZM49.8289 36.8126L46.8662 39.7753L49.8564 42.7655L52.8191 39.8028L49.8289 36.8126ZM41.2988 44.0201L37.0222 48.2966L41.3021 52.5766L45.5787 48.3L41.2988 44.0201ZM38.3035 48.3377L41.3076 45.3336L44.2986 48.3246L41.2945 51.3287L38.3035 48.3377ZM45.6137 37.3769L46.1734 37.9367L44.9415 39.1685L44.3445 38.5715L45.5234 37.3926L44.9376 36.8068L43.7629 37.9815L43.1044 37.323L44.9037 35.5237L43.7099 34.3299L46.1823 31.8575L47.3965 33.0717L46.7634 33.7048L46.148 33.0894C45.7687 33.5045 45.4095 33.8975 45.0374 34.3043L46.8035 36.0704L47.9522 34.9217L47.3564 34.3259L48.0055 33.6767L49.2236 34.8948L47.3824 36.7361L46.8184 36.1722L45.6137 37.3769ZM35.1823 45.2522L34.5803 45.8543L36.4222 47.6962L37.6371 46.4814L37.0195 45.8639L36.4067 46.4766L35.1823 45.2522ZM29.1085 40.4146L28.4769 39.783L29.09 39.1699L29.7216 39.8015L29.1085 40.4146ZM32.7764 44.0507L33.3731 43.454L32.7363 42.8172L32.1396 43.414L32.7764 44.0507ZM35.1945 35.5068L34.5513 36.15L33.9687 35.4928L34.5746 34.8869L35.1945 35.5068ZM39.4224 31.2501L41.2832 33.111L43.1566 31.2377L41.2957 29.3768L39.4224 31.2501ZM49.8246 41.6504L47.987 39.8128L49.8498 37.95L51.6874 39.7876L49.8246 41.6504ZM41.2768 46.4781L39.4429 48.312L41.3071 50.1762L43.141 48.3423L41.2768 46.4781Z" clip-rule="evenodd"/></svg>