<svg width="230" height="75" viewBox="0 0 230 75" fill="none" xmlns="http://www.w3.org/2000/svg"><path d="M78.1 27.4h-7.42V47h4.48v-6.16h2.94c3.864 0 6.86-2.996 6.86-6.72 0-3.724-2.996-6.72-6.86-6.72zm0 9.24h-2.94V31.6h2.94c1.372 0 2.38 1.092 2.38 2.52s-1.008 2.52-2.38 2.52zm14.828 10.752c4.116 0 7.42-3.22 7.42-7.392 0-4.172-3.304-7.392-7.42-7.392s-7.42 3.22-7.42 7.392c0 4.172 3.304 7.392 7.42 7.392zm0-4.088c-1.82 0-3.22-1.316-3.22-3.304 0-1.988 1.4-3.304 3.22-3.304 1.82 0 3.22 1.316 3.22 3.304 0 1.988-1.4 3.304-3.22 3.304zm17.726-6.272V33h-2.884v-3.92l-4.2 1.26V33h-2.24v4.032h2.24v4.956c0 3.92 1.596 5.572 7.084 5.012v-3.808c-1.848.112-2.884 0-2.884-1.204v-4.956h2.884zm5.172-5.264c1.372 0 2.52-1.148 2.52-2.52s-1.148-2.52-2.52-2.52-2.52 1.148-2.52 2.52 1.148 2.52 2.52 2.52zM113.726 47c0 1.484-.7 2.044-2.24 1.96v4.032c4.424.252 6.44-1.624 6.44-5.992V33h-4.2v14zm11.043-5.32h9.94a8.14 8.14 0 00.168-1.68c0-4.228-3.024-7.392-7.112-7.392-4.424 0-7.448 3.22-7.448 7.392 0 4.172 2.968 7.392 7.756 7.392 2.66 0 4.732-.98 6.104-2.884l-3.36-1.932c-.56.616-1.54 1.064-2.688 1.064-1.54 0-2.828-.504-3.36-1.96zm-.084-3.136c.392-1.428 1.456-2.212 3.052-2.212 1.26 0 2.52.588 2.968 2.212h-6.02zm16.003-1.456c0-.504.448-.784 1.176-.784.924 0 1.484.504 1.876 1.232l3.584-1.932c-1.176-1.988-3.192-2.996-5.46-2.996-2.912 0-5.488 1.54-5.488 4.592 0 4.844 6.888 4.032 6.888 5.572 0 .56-.504.868-1.512.868-1.232 0-2.016-.588-2.38-1.652l-3.64 2.072c1.092 2.268 3.22 3.332 6.02 3.332 3.024 0 5.824-1.372 5.824-4.592 0-5.18-6.888-4.116-6.888-5.712zM164.663 33l-2.016 7.504L160.463 33h-3.92l-2.184 7.504L152.343 33h-4.48l4.48 14h3.92l2.24-7.476 2.24 7.476h3.92l4.48-14h-4.48zm8.247-1.232c1.372 0 2.52-1.148 2.52-2.52s-1.148-2.52-2.52-2.52-2.52 1.148-2.52 2.52 1.148 2.52 2.52 2.52zM170.81 47h4.2V33h-4.2v14zm9.52-15.232c1.372 0 2.52-1.148 2.52-2.52s-1.148-2.52-2.52-2.52-2.52 1.148-2.52 2.52 1.148 2.52 2.52 2.52zM178.23 47c0 1.484-.7 2.044-2.24 1.96v4.032c4.424.252 6.44-1.624 6.44-5.992V33h-4.2v14zm12.498-3.92l5.292-7.28V33h-10.64v3.92h5.012L185.1 44.2V47h11.2v-3.92h-5.572zm10.986-1.4h9.94a8.14 8.14 0 00.168-1.68c0-4.228-3.024-7.392-7.112-7.392-4.424 0-7.448 3.22-7.448 7.392 0 4.172 2.968 7.392 7.756 7.392 2.66 0 4.732-.98 6.104-2.884l-3.36-1.932c-.56.616-1.54 1.064-2.688 1.064-1.54 0-2.828-.504-3.36-1.96zm-.084-3.136c.392-1.428 1.456-2.212 3.052-2.212 1.26 0 2.52.588 2.968 2.212h-6.02zm16.774-3.052V33h-4.2v14h4.2v-6.328c0-2.772 2.464-3.472 4.2-3.192v-4.76c-1.764 0-3.64.896-4.2 2.772z" fill="#C7D401"/><g clip-path="url(#clip0)"><path d="M59 37c0 13.255-10.745 24-24 24S11 50.255 11 37s10.745-24 24-24 24 10.745 24 24z" fill="#C7D401"/><path d="M50.563 32.733v22.536A23.905 23.905 0 0135 61a23.905 23.905 0 01-15.563-5.73V32.732a3.421 3.421 0 012.813-3.366A3.42 3.42 0 0025.063 26v-2.688h19.875V26a3.42 3.42 0 002.812 3.367 3.421 3.421 0 012.813 3.366z" fill="#fff"/><path d="M50 29.385c0 .164-.108.31-.265.352a3.993 3.993 0 01-4.463-1.799 3.993 3.993 0 01-6.848 0A3.992 3.992 0 0135 29.876a3.992 3.992 0 01-3.424-1.936 3.993 3.993 0 01-6.848 0 3.993 3.993 0 01-4.463 1.798.365.365 0 01-.03-.693 4.165 4.165 0 002.668-3.886V22.22c.761.333 1.4.896 1.826 1.603a3.992 3.992 0 013.424-1.937c1.453 0 2.724.776 3.423 1.937A3.991 3.991 0 0135 21.886c1.453 0 2.725.776 3.424 1.937a3.991 3.991 0 013.424-1.937c1.453 0 2.725.776 3.424 1.937a4.01 4.01 0 011.826-1.603v2.938a4.165 4.165 0 002.667 3.886c.142.055.235.19.235.341z" fill="#fff"/><path d="M49.625 19.375v.938c0 .517-.42.937-.938.937h-.223v1.875c0 .518-.42.938-.937.938H22.473a.937.937 0 01-.937-.938V21.25h-.224a.937.937 0 01-.937-.938v-.937c0-.518.42-.938.938-.938h.223v-1.875c0-.517.42-.937.937-.937h25.054c.517 0 .937.42.937.938v1.875h.224c.517 0 .937.42.937.937z" fill="#fff"/><path d="M49.625 19.375v.938c0 .517-.42.937-.938.937h-.223v1.875c0 .518-.42.938-.937.938H24.795a.937.937 0 01-.938-.938v-.469h21.35a.703.703 0 000-1.406H23.635a.937.937 0 01-.938-.938v-.937c0-.518.42-.938.938-.938h21.574a.703.703 0 000-1.406h-21.35v-.468c0-.518.419-.938.937-.938h22.732c.517 0 .937.42.937.938v1.875h.224c.517 0 .937.42.937.937z" fill="#fff"/><path d="M47.797 25.506H22.016a.703.703 0 000 1.407h18.969a7.54 7.54 0 01-4.27 6.311.703.703 0 00.602 1.27 8.936 8.936 0 004.354-4.523c.225.55.503 1.062.832 1.523 1.02 1.429 2.401 2.216 3.888 2.216a.703.703 0 00.703-.703c0-1.9-.534-3.694-1.503-5.05a6.14 6.14 0 00-.937-1.044h3.143a.703.703 0 100-1.407zm-2.147 6.696c-1.668-.463-2.972-2.46-3.206-4.953 1.668.463 2.972 2.46 3.206 4.953z" fill="#C7D401"/><g filter="url(#filter0_d)"><path fill-rule="evenodd" clip-rule="evenodd" d="M44.964 52.748l3.163-3.163-.552-.553c-.69-.69-.714-1.79-.053-2.451l.53-.53-15.247-15.246-.53.529c-.661.661-1.76.637-2.451-.053l-.553-.552-3.163 3.163 1.571 1.571-1.058 1.059-1.571-1.572-3.164 3.164.553.552c.69.69.714 1.79.052 2.452l-.529.529L37.21 56.894l.53-.53c.66-.66 1.76-.637 2.451.053l.553.553 3.163-3.163-1.572-1.572 1.059-1.058 1.571 1.571zM31.435 39.782l3.69 3.689 3.533-3.534-3.689-3.69-3.534 3.535zM35 37.71l2.196 2.196-2.103 2.102-2.196-2.195L35 37.71zm1.428 2.179l-1.411-1.41-1.352 1.35 1.411 1.411 1.352-1.351zm-9.067 3.967l3.689 3.69 3.534-3.535-3.69-3.689-3.533 3.534zm3.565-2.072l2.196 2.196-2.104 2.103-2.195-2.195 2.103-2.104zm1.427 2.18l-1.41-1.412-1.352 1.352 1.41 1.41 1.352-1.35zm10.641.31l-3.689-3.69-3.534 3.534 3.69 3.69 3.534-3.535zm-3.565 2.07l-2.195-2.195 2.103-2.103 2.195 2.196-2.103 2.103zm1.335-2.119l-1.41-1.41-1.352 1.35 1.41 1.412 1.352-1.352zm-5.533.433l2.446 2.447-.753.753-2.447-2.446.754-.754zm-.305 1.878l-.786-.786-2.443 2.442.787.787 2.442-2.443zm-.432 4.453l.892.893.753-.754-.838-.838.468-.468-.965-.965-.468.468-.809-.81-.753.754.892.892.468-.468.828.828-.468.468zm.403-3.013l.753-.753 1.411 1.41 1.073-1.072.786.786-1.826 1.826-.725-.725-.061-.061-1.411-1.411z" fill="#CED920"/></g></g><defs><clipPath id="clip0"><path fill="#fff" transform="translate(11 13)" d="M0 0h48v48H0z"/></clipPath><filter id="filter0_d" x="16.158" y="29" width="37.699" height="37.699" filterUnits="userSpaceOnUse" color-interpolation-filters="sRGB"><feFlood flood-opacity="0" result="BackgroundImageFix"/><feColorMatrix in="SourceAlpha" values="0 0 0 0 0 0 0 0 0 0 0 0 0 0 0 0 0 0 127 0"/><feOffset dy="4"/><feGaussianBlur stdDeviation="2"/><feColorMatrix values="0 0 0 0 0.921569 0 0 0 0 0.929412 0 0 0 0 0.941176 0 0 0 1 0"/><feBlend in2="BackgroundImageFix" result="effect1_dropShadow"/><feBlend in="SourceGraphic" in2="effect1_dropShadow" result="shape"/></filter></defs></svg>