<svg width="140" height="117" viewBox="0 0 140 117" fill="none" xmlns="http://www.w3.org/2000/svg">
<path d="M30.6504 110.794V95.7197C30.6504 92.0693 34.3561 96.5965 37.7301 97.9808C41.3454 99.4732 45.546 101.29 48.2819 102.739C49.1064 103.175 49.7957 103.828 50.2749 104.628C50.7541 105.428 51.005 106.344 51.0003 107.276V110.663C50.9984 111.646 50.713 112.608 50.1783 113.434C49.6436 114.259 48.8822 114.912 47.9855 115.316C46.4153 116.019 44.1115 116.635 40.8178 116.698C37.5241 116.761 35.1776 116.158 33.6074 115.426C32.7253 115.015 31.9787 114.361 31.455 113.54C30.9313 112.72 30.6522 111.767 30.6504 110.794Z" fill="#CED920"/>
<path d="M105.267 111.11V94.9661C105.267 91.7001 101.958 96.4434 98.9356 97.6819C95.0264 99.2823 90.2178 101.345 87.306 102.918C86.5832 103.311 85.9798 103.892 85.5593 104.599C85.1389 105.307 84.9169 106.114 84.9167 106.937V110.977C84.9125 111.82 85.1411 112.648 85.5773 113.369C86.0135 114.09 86.6404 114.677 87.3889 115.065C88.9541 115.871 91.4086 116.635 95.0917 116.705C98.9255 116.778 101.418 115.952 102.973 115.092C103.674 114.692 104.256 114.112 104.659 113.412C105.063 112.712 105.272 111.918 105.267 111.11Z" fill="#CED920"/>
<path d="M2.2611 75.8723C2.78366 76.1713 8.07965 76.3748 10.8985 76.4577C11.4449 76.4757 11.9794 76.6214 12.4593 76.8832C12.9392 77.1449 13.3511 77.5155 13.6621 77.9651C18.2873 84.6228 34.4767 107.276 68.6544 106.148C106.166 104.92 121.393 88.6702 120.883 61.9917C120.373 35.3133 94.2124 18.34 62.7781 17.8375C34.8134 17.3828 16.3477 39.3657 12.1848 44.7948C11.897 45.1686 11.5369 45.4807 11.126 45.7124C10.7151 45.9442 10.2618 46.091 9.79307 46.1439L4.04485 46.7821C3.35168 46.8607 2.69756 47.1437 2.16565 47.5951C1.63374 48.0465 1.24808 48.6459 1.05769 49.317C0.351724 51.8042 0 55.9672 0 61.4264C0 69.4056 1.00493 75.8723 2.2611 75.8723Z" fill="#CED920"/>
<path d="M119.711 54.1701C119.711 54.1701 122.06 57.5658 126.641 57.4629C131.222 57.3601 134.001 50.1934 132.906 46.5844C131.811 42.9753 127.62 44.3377 128.637 50.9774C129.653 57.6172 133.963 58.5657 136.273 57.4629C138.582 56.3602 140.267 51.7615 139.914 45.8543C139.914 45.8543 140.848 56.3936 136.546 58.5606C132.71 60.4936 128.637 58.1133 127.345 52.5069C126.054 46.9005 128.481 42.4535 131.066 42.6129C133.651 42.7722 136.153 46.024 134.588 52.5069C133.024 58.9899 128.109 63.6837 120.699 62.7891C120.699 62.802 119.671 58.3626 119.711 54.1701Z" fill="#CED920"/>
<path d="M37.5926 23.3333C37.5926 23.3333 36.5966 7.05021 44.125 0C44.125 0 54.6626 3.08807 56.6714 15.9016C58.6803 28.7151 51.7554 33.7036 51.7554 33.7036C51.7554 33.7036 39.4995 37.5767 37.5926 23.3333Z" fill="#CED920"/>
<path d="M44.0741 0C44.0741 0 49.0651 4.61531 49.7367 16.7531C50.4083 28.8909 47.3663 32.8803 47.3663 32.8803C47.3663 32.8803 48.7622 34.1895 51.3538 33.5062C53.9455 32.823 57.9883 26.1373 56.8347 15.82C55.6811 5.5026 47.5296 0.940027 44.0741 0Z" fill="#C0CA26"/>
<path d="M57.1301 20.7237L57.1224 20.8439C57.1492 21.2675 57.3739 21.6724 57.7523 21.979C58.1307 22.2855 58.6353 22.4714 59.1667 22.5002C63.6396 22.7463 75.1594 23.6348 86.647 26.6342C87.0067 26.7263 87.3878 26.7417 87.7516 26.6788C88.1154 26.6159 88.449 26.477 88.7186 26.2761C88.9882 26.0753 89.1842 25.8196 89.2868 25.5351C89.3893 25.2505 89.3948 24.9472 89.3026 24.6558C89.2179 24.3856 89.0521 24.1341 88.8197 23.9232C88.5873 23.7122 88.2952 23.5483 87.9691 23.4457C84.4685 22.3403 72.7542 18.9977 59.1918 18.9922C58.9088 18.9926 58.6305 19.038 58.373 19.1257C58.1155 19.2133 57.8841 19.3415 57.6922 19.5027C57.5002 19.6639 57.3517 19.8549 57.2552 20.0645C57.1587 20.2742 57.1162 20.4983 57.1301 20.7237Z" fill="white"/>
<path d="M33.0371 47.9664C35.7428 47.9664 37.9362 45.773 37.9362 43.0674C37.9362 40.3617 35.7428 38.1683 33.0371 38.1683C30.3314 38.1683 28.1381 40.3617 28.1381 43.0674C28.1381 45.773 30.3314 47.9664 33.0371 47.9664Z" fill="white"/>
<path d="M34.2455 43.193C35.3125 43.193 36.1775 42.2921 36.1775 41.1807C36.1775 40.0692 35.3125 39.1683 34.2455 39.1683C33.1785 39.1683 32.3135 40.0692 32.3135 41.1807C32.3135 42.2921 33.1785 43.193 34.2455 43.193Z" fill="#CED920"/>
<path fill-rule="evenodd" clip-rule="evenodd" d="M47.9984 47.9403L40.4309 55.5078L41.6961 56.773C42.4569 57.5342 42.8843 58.5663 42.8843 59.6424C42.8843 60.7185 42.4569 61.7507 41.6961 62.5118L40.4309 63.777L75.3764 98.7092L76.6443 97.444C77.4057 96.6847 78.4371 96.2583 79.5123 96.2583C80.5876 96.2583 81.619 96.6847 82.3804 97.444L83.6403 98.7092L91.2051 91.1417L87.6035 87.5454L90.1339 85.0123L93.7383 88.6086L101.303 81.0411L100.038 79.7759C99.2784 79.0141 98.8519 77.9822 98.8519 76.9065C98.8519 75.8308 99.2784 74.7989 100.038 74.0371L101.303 72.7719L66.3682 37.8397L65.103 39.1049C64.3412 39.8644 63.3093 40.2909 62.2336 40.2909C61.1579 40.2909 60.1261 39.8644 59.3643 39.1049L58.099 37.8397L50.5315 45.4072L54.1332 49.0035L51.6001 51.5367L47.9984 47.9403ZM80.3487 72.4572L79.2899 73.516L81.3377 75.5639L82.3679 74.5337L84.48 76.6458L79.2139 81.9119L77.1201 79.8182L78.1282 78.8101L77.1234 77.8052L76.1153 78.8133L74.002 76.7001L75.0835 75.6186L76.0494 76.5844L77.1171 75.5167L78.1796 76.5792L79.1739 75.5848L78.1338 74.5447L79.1322 73.5463L76.0829 70.4971L75.1665 71.4135L77.2548 73.5018L76.1355 74.6211L74.0426 72.5282L73.0374 73.5334L74.06 74.5561L72.9458 75.6702L71.8578 74.5822L72.8814 73.5586L71.8748 72.552L66.7202 77.7066L66.273 77.3469L65.5981 76.8041C65.5342 76.868 65.4696 76.9319 65.4047 76.9961L65.4044 76.9965C65.254 77.1452 65.1024 77.2953 64.9549 77.4496C64.7356 77.6787 64.5392 77.7299 64.3043 77.4537C64.155 77.2784 63.9884 77.1178 63.8145 76.9502C63.7357 76.8742 63.6554 76.7968 63.5745 76.7159L62.534 77.7564L61.4026 76.625L62.4282 75.5995L60.4446 73.6159L59.4715 74.589L60.4259 75.5434L59.3088 76.6604L58.281 75.6326L59.3089 74.6047L57.1764 72.4722L58.2373 71.4114L56.252 69.426L55.2737 70.4043L56.2501 71.3808C56.1679 71.4769 56.0888 71.5703 56.0114 71.6616C55.8328 71.8725 55.6638 72.072 55.4891 72.2663C55.294 72.4833 55.0987 72.5328 54.8729 72.2744C54.7071 72.0845 54.5256 71.9082 54.3326 71.7209L54.3326 71.7208L54.3323 71.7206C54.2453 71.636 54.1559 71.5493 54.0646 71.458L55.1102 70.4123L54.1151 69.4172L52.0895 71.4429L50.9584 70.3118L54.0512 67.219L51.9959 65.1637L53.1261 64.0335L54.1467 65.0541L56.1526 63.0482L55.1271 62.0227L56.2344 60.9154L57.3322 62.0132L56.3169 63.0285L57.2604 63.9719L58.2803 62.9521L59.4004 64.0722L57.3126 66.1601L58.312 67.1595L63.4674 62.004L62.4276 60.9642L64.5123 58.8795L63.5118 57.8789L62.4885 58.9022L61.4853 57.8991L60.4597 58.9247L59.345 57.81L62.4871 54.6678L65.6526 57.8333L64.6319 58.854L66.6906 60.9128L67.7159 59.8875L68.7847 60.9563L67.7658 61.9753L68.7718 62.9813L69.8031 61.9499L70.8607 63.0076L73.9765 59.8918L75.045 60.9604L71.9479 64.0575C74.7468 66.8553 77.5225 69.631 80.3437 72.4522L80.3487 72.4572ZM69.8394 66.1809L68.7608 65.1023L69.7245 64.1387L68.7569 63.1711L66.7593 65.1687L67.7868 66.1962L66.6687 67.3144L65.6449 66.2906L64.6652 67.2703L66.6496 69.2548L66.9111 69.0174L66.9474 68.9844C67.2052 68.7503 67.4602 68.5189 67.7243 68.2788L68.7805 69.335L67.6735 70.442L66.6471 69.4156L63.6019 72.4609L64.5835 73.4425L66.704 71.3219L68.8047 73.4226L71.8708 70.3564L70.8241 69.3097L72.8526 67.2811L70.7956 65.2241C70.4708 65.5494 70.1699 65.8504 69.8394 66.1809ZM58.4604 69.3208L59.3701 70.2304L61.3355 68.2649L60.4259 67.3553L58.4604 69.3208ZM81.2972 77.7259L80.3237 76.7523L79.364 77.712L80.3376 78.6856L81.2972 77.7259ZM62.486 69.2268L63.4589 68.254L62.502 67.297L61.5291 68.2699L62.486 69.2268ZM65.7186 74.5678L66.6907 75.54L67.6455 74.5852L66.6733 73.613L65.7186 74.5678ZM63.5555 76.5467L64.5284 75.5739L63.568 74.6135L62.5951 75.5863L63.5555 76.5467ZM62.4119 73.4511L63.4077 72.4554L62.499 71.5466L61.5522 72.4934L62.3115 73.3392L62.4119 73.4511ZM63.5623 64.2258L62.5585 65.2296L63.1162 65.684L63.5495 66.0372L64.4616 65.1251L63.5623 64.2258ZM66.6822 62.9102L67.5817 62.0108L66.6798 61.1089L65.7803 62.0084L66.6822 62.9102ZM63.5253 53.6269L70.8708 60.9724L78.211 53.6322L70.8655 46.2867L63.5253 53.6269ZM70.8757 58.71L65.7828 53.6172L70.8727 48.5273L75.9655 53.6201L70.8757 58.71ZM92.8666 68.281L85.5255 75.6221L78.1797 68.2763L85.5208 60.9352L92.8666 68.281ZM85.5223 63.1822L80.4373 68.2671L85.5694 73.3993L90.6544 68.3143L85.5223 63.1822ZM70.8818 75.5525L63.5418 82.8924L70.8876 90.2382L78.2276 82.8983L70.8818 75.5525ZM65.7409 82.9629L70.897 77.8069L76.0305 82.9405L70.8745 88.0965L65.7409 82.9629ZM78.2876 64.1508L79.2482 65.1115L77.134 67.2257L76.1093 66.2011L78.1327 64.1777L77.1273 63.1723L75.1111 65.1885L73.9809 64.0583L77.0691 60.97L75.0201 58.921L79.2635 54.6776L81.3475 56.7616L80.2609 57.8483L79.2047 56.7921C78.5537 57.5044 77.9372 58.1789 77.2986 58.8771L80.3298 61.9083L82.3013 59.9368L81.2786 58.9142L82.3928 57.8L84.4834 59.8906L81.3232 63.0508L80.3554 62.083L78.2876 64.1508ZM60.384 77.6672L59.3507 78.7006L62.5121 81.862L64.5971 79.777L63.5372 78.7171L62.4855 79.7687L60.384 77.6672ZM49.9594 69.3644L48.8754 68.2803L49.9277 67.2281L51.0117 68.3121L49.9594 69.3644ZM56.2546 75.6052L57.2788 74.581L56.1859 73.4881L55.1617 74.5122L56.2546 75.6052ZM60.4049 60.9411L59.301 62.0449L58.301 60.917L59.3409 59.8771L60.4049 60.9411ZM67.6613 53.6352L70.8552 56.829L74.0704 53.6138L70.8765 50.42L67.6613 53.6352ZM85.5149 71.4854L82.3609 68.3314L85.558 65.1343L88.712 68.2882L85.5149 71.4854ZM70.8441 79.7713L67.6966 82.9189L70.8961 86.1185L74.0437 82.9709L70.8441 79.7713Z" fill="white"/>
</svg>
