<svg width="218" height="61" viewBox="0 0 218 61" fill="none" xmlns="http://www.w3.org/2000/svg">
<path d="M71.1 20.4H63.68V40H68.16V33.84H71.1C74.964 33.84 77.96 30.844 77.96 27.12C77.96 23.396 74.964 20.4 71.1 20.4ZM71.1 29.64H68.16V24.6H71.1C72.472 24.6 73.48 25.692 73.48 27.12C73.48 28.548 72.472 29.64 71.1 29.64ZM85.928 40.392C90.044 40.392 93.348 37.172 93.348 33C93.348 28.828 90.044 25.608 85.928 25.608C81.812 25.608 78.508 28.828 78.508 33C78.508 37.172 81.812 40.392 85.928 40.392ZM85.928 36.304C84.108 36.304 82.708 34.988 82.708 33C82.708 31.012 84.108 29.696 85.928 29.696C87.748 29.696 89.148 31.012 89.148 33C89.148 34.988 87.748 36.304 85.928 36.304ZM103.654 30.032V26H100.77V22.08L96.5702 23.34V26H94.3302V30.032H96.5702V34.988C96.5702 38.908 98.1662 40.56 103.654 40V36.192C101.806 36.304 100.77 36.192 100.77 34.988V30.032H103.654ZM108.826 24.768C110.198 24.768 111.346 23.62 111.346 22.248C111.346 20.876 110.198 19.728 108.826 19.728C107.454 19.728 106.306 20.876 106.306 22.248C106.306 23.62 107.454 24.768 108.826 24.768ZM106.726 40C106.726 41.484 106.026 42.044 104.486 41.96V45.992C108.91 46.244 110.926 44.368 110.926 40V26H106.726V40ZM117.769 34.68H127.709C127.821 34.148 127.877 33.588 127.877 33C127.877 28.772 124.853 25.608 120.765 25.608C116.341 25.608 113.317 28.828 113.317 33C113.317 37.172 116.285 40.392 121.073 40.392C123.733 40.392 125.805 39.412 127.177 37.508L123.817 35.576C123.257 36.192 122.277 36.64 121.129 36.64C119.589 36.64 118.301 36.136 117.769 34.68ZM117.685 31.544C118.077 30.116 119.141 29.332 120.737 29.332C121.997 29.332 123.257 29.92 123.705 31.544H117.685ZM133.688 30.088C133.688 29.584 134.136 29.304 134.864 29.304C135.788 29.304 136.348 29.808 136.74 30.536L140.324 28.604C139.148 26.616 137.132 25.608 134.864 25.608C131.952 25.608 129.376 27.148 129.376 30.2C129.376 35.044 136.264 34.232 136.264 35.772C136.264 36.332 135.76 36.64 134.752 36.64C133.52 36.64 132.736 36.052 132.372 34.988L128.732 37.06C129.824 39.328 131.952 40.392 134.752 40.392C137.776 40.392 140.576 39.02 140.576 35.8C140.576 30.62 133.688 31.684 133.688 30.088ZM157.663 26L155.647 33.504L153.463 26H149.543L147.359 33.504L145.343 26H140.863L145.343 40H149.263L151.503 32.524L153.743 40H157.663L162.143 26H157.663ZM165.91 24.768C167.282 24.768 168.43 23.62 168.43 22.248C168.43 20.876 167.282 19.728 165.91 19.728C164.538 19.728 163.39 20.876 163.39 22.248C163.39 23.62 164.538 24.768 165.91 24.768ZM163.81 40H168.01V26H163.81V40ZM173.33 24.768C174.702 24.768 175.85 23.62 175.85 22.248C175.85 20.876 174.702 19.728 173.33 19.728C171.958 19.728 170.81 20.876 170.81 22.248C170.81 23.62 171.958 24.768 173.33 24.768ZM171.23 40C171.23 41.484 170.53 42.044 168.99 41.96V45.992C173.414 46.244 175.43 44.368 175.43 40V26H171.23V40ZM183.728 36.08L189.02 28.8V26H178.38V29.92H183.392L178.1 37.2V40H189.3V36.08H183.728ZM194.714 34.68H204.654C204.766 34.148 204.822 33.588 204.822 33C204.822 28.772 201.798 25.608 197.71 25.608C193.286 25.608 190.262 28.828 190.262 33C190.262 37.172 193.23 40.392 198.018 40.392C200.678 40.392 202.75 39.412 204.122 37.508L200.762 35.576C200.202 36.192 199.222 36.64 198.074 36.64C196.534 36.64 195.246 36.136 194.714 34.68ZM194.63 31.544C195.022 30.116 196.086 29.332 197.682 29.332C198.942 29.332 200.202 29.92 200.65 31.544H194.63ZM211.404 28.492V26H207.204V40H211.404V33.672C211.404 30.9 213.868 30.2 215.604 30.48V25.72C213.84 25.72 211.964 26.616 211.404 28.492Z" fill="#C7D401"/>
<g clip-path="url(#clip0)">
<path d="M43.1021 10.0985V9.5782H44.335C45.6911 9.5782 46.8007 8.46864 46.8007 7.11252V4.64684C46.8007 3.91453 46.4715 3.26235 45.9599 2.8099C45.9599 2.8099 45.2596 2.18115 43.6237 2.18115C41.9879 2.18115 39.6144 2.18115 39.6144 2.18115H17.2125C15.8564 2.18115 14.7468 3.29071 14.7468 4.64684V7.11252C14.7468 8.46864 15.8564 9.5782 17.2125 9.5782H18.4453V10.0985C18.4453 14.8942 9.81543 12.3521 9.81543 21.194V48.5557C9.81543 54.2638 14.4423 58.8906 20.1503 58.8906H30.7737H41.3971C47.1052 58.8906 51.732 54.2638 51.732 48.5557V21.194C51.732 12.3521 43.1021 14.8942 43.1021 10.0985Z" fill="#C7D401"/>
<path d="M43.1021 10.0985V9.5782H44.335C45.6911 9.5782 46.8007 8.46864 46.8007 7.11252V4.64684C46.8007 3.91453 46.4715 3.26235 45.9599 2.8099C45.9599 2.8099 45.2596 2.18115 43.6237 2.18115C41.9879 2.18115 39.6144 2.18115 39.6144 2.18115H17.2125C15.8564 2.18115 14.7468 3.29071 14.7468 4.64684V7.11252C14.7468 8.46864 15.8564 9.5782 17.2125 9.5782H18.4453V10.0985C18.4453 14.8942 9.81543 12.3521 9.81543 21.194V48.5557C9.81543 54.2638 14.4423 58.8906 20.1503 58.8906H30.7737H41.3971C47.1052 58.8906 51.732 54.2638 51.732 48.5557V21.194C51.732 12.3521 43.1021 14.8942 43.1021 10.0985Z" fill="#C7D401"/>
<path d="M43.1021 9.0782H42.6021V9.5782V10.0985C42.6021 10.7774 42.7561 11.3502 43.0405 11.8404C43.3226 12.3266 43.7175 12.7048 44.1612 13.0197C44.6021 13.3327 45.1059 13.5932 45.6178 13.8368C45.8299 13.9377 46.0381 14.0334 46.2462 14.1291C46.5587 14.2727 46.8708 14.4162 47.1951 14.5769C48.2498 15.0996 49.2447 15.7182 49.9835 16.7043C50.7157 17.6818 51.232 19.0697 51.232 21.194V48.5557C51.232 53.9876 46.829 58.3906 41.3971 58.3906H30.7737H20.1503C14.7184 58.3906 10.3154 53.9876 10.3154 48.5557V21.194C10.3154 19.0697 10.8318 17.6818 11.564 16.7043C12.3028 15.7182 13.2977 15.0996 14.3524 14.5769C14.6766 14.4162 14.9888 14.2727 15.3013 14.1291C15.5094 14.0334 15.7176 13.9377 15.9296 13.8368C16.4415 13.5932 16.9453 13.3327 17.3863 13.0197C17.83 12.7048 18.2249 12.3266 18.507 11.8404C18.7914 11.3502 18.9453 10.7774 18.9453 10.0985V9.5782V9.0782H18.4453H17.2125C16.1325 9.0782 15.2468 8.1925 15.2468 7.11252V4.64684C15.2468 3.56685 16.1325 2.68115 17.2125 2.68115H39.6144H39.6145H39.6149H39.6162H39.6213H39.6415H39.7196H40.0108H41.0056H43.6237C44.3757 2.68115 44.8948 2.82529 45.214 2.95748C45.3743 3.02388 45.4862 3.08811 45.5535 3.1316C45.5872 3.15336 45.6098 3.16999 45.6217 3.17915C45.6264 3.18278 45.6294 3.18523 45.6308 3.18638C46.0428 3.55173 46.3007 4.07032 46.3007 4.64684V7.11252C46.3007 8.1925 45.415 9.0782 44.335 9.0782H43.1021Z" stroke="url(#paint0_angular)"/>
<path fill-rule="evenodd" clip-rule="evenodd" d="M44.3823 48.3766L48.9742 43.7848L48.206 43.0166C47.246 42.0565 47.246 40.4944 48.206 39.5343L48.9742 38.7662L27.7732 17.5652L27.0051 18.3334C26.045 19.2934 24.4829 19.2934 23.5228 18.3334L22.7546 17.5652L18.1628 22.1571L20.3477 24.342L18.8114 25.8783L16.6265 23.6934L12.0346 28.2852L12.8028 29.0534C13.7628 30.0135 13.7628 31.5756 12.8028 32.5357L12.0346 33.3038L33.2356 54.5048L34.0037 53.7366C34.9638 52.7766 36.5259 52.7766 37.486 53.7366L38.2542 54.5048L42.846 49.9129L40.6611 47.728L42.1974 46.1917L44.3823 48.3766ZM25.5527 30.3638L30.6828 35.4938L35.8127 30.3639L30.6826 25.2339L25.5527 30.3638ZM30.6826 27.311L33.7355 30.3639L30.6828 33.4167L27.6299 30.3638L30.6826 27.311ZM32.6442 30.364L30.6824 28.4021L28.7207 30.3638L30.6825 32.3257L32.6442 30.364ZM19.6384 36.2781L24.7685 41.4081L29.8984 36.2782L24.7683 31.1482L19.6384 36.2781ZM24.7683 33.2253L27.8212 36.2782L24.7683 39.3311L21.7154 36.2782L24.7683 33.2253ZM26.7302 36.278L24.7683 34.3162L22.8064 36.278L24.7683 38.2399L26.7302 36.278ZM41.842 36.3933L36.7122 31.2634L31.5823 36.3933L36.7123 41.5233L41.8422 36.3935L41.842 36.3933ZM36.7122 39.446L33.6594 36.3933L36.7122 33.3406L39.7651 36.3935L36.7123 39.4462L36.7122 39.446ZM38.6739 36.3933L36.7122 34.4316L34.7505 36.3933L36.7122 38.355L38.6739 36.3933ZM30.7979 37.1777L34.1994 40.5792L33.1057 41.6729L29.7042 38.2714L30.7979 37.1777ZM30.3075 39.8556L29.2139 38.762L25.6682 42.3077L26.7618 43.4013L30.3075 39.8556ZM29.5572 46.1968L30.7979 47.4376L31.8916 46.344L30.7258 45.1782L31.4053 44.4986L30.0638 43.1571L29.3843 43.8367L28.2591 42.7116L27.1655 43.8052L28.4061 45.0458L29.0855 44.3664L30.2366 45.5174L29.5572 46.1968ZM30.2219 41.9026L31.3155 40.809L33.2774 42.7709L34.8342 41.2141L35.9278 42.3077L33.2774 44.9581L32.2691 43.9499L32.1837 43.8645L30.2219 41.9026Z" fill="white"/>
</g>
<defs>
<radialGradient id="paint0_angular" cx="0" cy="0" r="1" gradientUnits="userSpaceOnUse" gradientTransform="translate(30.7737 30.5359) rotate(90) scale(28.3547 20.9583)">
<stop stop-color="#C7D401" stop-opacity="0.5"/>
<stop offset="1" stop-color="#F3FD5B" stop-opacity="0"/>
</radialGradient>
<clipPath id="clip0">
<rect width="61" height="61" fill="white"/>
</clipPath>
</defs>
</svg>
