<svg viewBox="0 0 230 75" xmlns="http://www.w3.org/2000/svg" fill-rule="evenodd" clip-rule="evenodd" stroke-linejoin="round" stroke-miterlimit="2"><path d="M78.1 27.4h-7.42V47h4.48v-6.16h2.94c3.864 0 6.86-2.996 6.86-6.72 0-3.724-2.996-6.72-6.86-6.72zm0 9.24h-2.94V31.6h2.94c1.372 0 2.38 1.092 2.38 2.52s-1.008 2.52-2.38 2.52zm14.828 10.752c4.116 0 7.42-3.22 7.42-7.392 0-4.172-3.304-7.392-7.42-7.392s-7.42 3.22-7.42 7.392c0 4.172 3.304 7.392 7.42 7.392zm0-4.088c-1.82 0-3.22-1.316-3.22-3.304 0-1.988 1.4-3.304 3.22-3.304 1.82 0 3.22 1.316 3.22 3.304 0 1.988-1.4 3.304-3.22 3.304zm17.726-6.272V33h-2.884v-3.92l-4.2 1.26V33h-2.24v4.032h2.24v4.956c0 3.92 1.596 5.572 7.084 5.012v-3.808c-1.848.112-2.884 0-2.884-1.204v-4.956h2.884zm5.172-5.264c1.372 0 2.52-1.148 2.52-2.52s-1.148-2.52-2.52-2.52-2.52 1.148-2.52 2.52 1.148 2.52 2.52 2.52zM113.726 47c0 1.484-.7 2.044-2.24 1.96v4.032c4.424.252 6.44-1.624 6.44-5.992V33h-4.2v14zm11.043-5.32h9.94c.114-.553.17-1.116.168-1.68 0-4.228-3.024-7.392-7.112-7.392-4.424 0-7.448 3.22-7.448 7.392 0 4.172 2.968 7.392 7.756 7.392 2.66 0 4.732-.98 6.104-2.884l-3.36-1.932c-.56.616-1.54 1.064-2.688 1.064-1.54 0-2.828-.504-3.36-1.96zm-.084-3.136c.392-1.428 1.456-2.212 3.052-2.212 1.26 0 2.52.588 2.968 2.212h-6.02zm16.003-1.456c0-.504.448-.784 1.176-.784.924 0 1.484.504 1.876 1.232l3.584-1.932c-1.176-1.988-3.192-2.996-5.46-2.996-2.912 0-5.488 1.54-5.488 4.592 0 4.844 6.888 4.032 6.888 5.572 0 .56-.504.868-1.512.868-1.232 0-2.016-.588-2.38-1.652l-3.64 2.072c1.092 2.268 3.22 3.332 6.02 3.332 3.024 0 5.824-1.372 5.824-4.592 0-5.18-6.888-4.116-6.888-5.712zM164.663 33l-2.016 7.504L160.463 33h-3.92l-2.184 7.504L152.343 33h-4.48l4.48 14h3.92l2.24-7.476 2.24 7.476h3.92l4.48-14h-4.48zm8.247-1.232c1.372 0 2.52-1.148 2.52-2.52s-1.148-2.52-2.52-2.52-2.52 1.148-2.52 2.52 1.148 2.52 2.52 2.52zM170.81 47h4.2V33h-4.2v14zm9.52-15.232c1.372 0 2.52-1.148 2.52-2.52s-1.148-2.52-2.52-2.52-2.52 1.148-2.52 2.52 1.148 2.52 2.52 2.52zM178.23 47c0 1.484-.7 2.044-2.24 1.96v4.032c4.424.252 6.44-1.624 6.44-5.992V33h-4.2v14zm12.498-3.92l5.292-7.28V33h-10.64v3.92h5.012L185.1 44.2V47h11.2v-3.92h-5.572zm10.986-1.4h9.94c.114-.553.17-1.116.168-1.68 0-4.228-3.024-7.392-7.112-7.392-4.424 0-7.448 3.22-7.448 7.392 0 4.172 2.968 7.392 7.756 7.392 2.66 0 4.732-.98 6.104-2.884l-3.36-1.932c-.56.616-1.54 1.064-2.688 1.064-1.54 0-2.828-.504-3.36-1.96zm-.084-3.136c.392-1.428 1.456-2.212 3.052-2.212 1.26 0 2.52.588 2.968 2.212h-6.02zm16.774-3.052V33h-4.2v14h4.2v-6.328c0-2.772 2.464-3.472 4.2-3.192v-4.76c-1.764 0-3.64.896-4.2 2.772z" fill="#c7d401" fill-rule="nonzero"/><g transform="translate(8.39 10.561)"><clipPath id="a"><path d="M0 0h53v53H0z"/></clipPath><g clip-path="url(#a)"><path d="M11.878 14.563L10.189 9.24c-.511-1.61.766-3.224 2.451-3.103 2.702.195 6.292 1.088 7.976 4.253l-8.738 4.173z" fill="#ced920" fill-rule="nonzero"/><path d="M13.728 8.861a.625.625 0 00-.696.805l1.306 4.116 4-2.18c-.547-1.027-1.79-2.271-4.61-2.741z" fill="#efedee" fill-rule="nonzero"/><path d="M11.016 37.885s.719 7.528 2.302 11.625a2.262 2.262 0 002.11 1.444h2.936a2.26 2.26 0 002.229-1.875c.258-1.505.521-3.74.366-6.04-.276-4.061-9.943-5.154-9.943-5.154zM43.428 37.885s-.72 7.528-2.303 11.625a2.262 2.262 0 01-2.11 1.444H36.08a2.26 2.26 0 01-2.23-1.875c-.258-1.505-.521-3.74-.365-6.04.275-4.061 9.943-5.154 9.943-5.154zM52.999 25.729a.468.468 0 00-.737-.378c-.944.676-2.304 1.283-2.304 1.283l-.177 4.498c2.88-.972 3.239-3.877 3.218-5.403z" fill="#ced920" fill-rule="nonzero"/><path d="M27.222 9.039c-10.833 0-19.902 6.354-22.235 14.875-1.773-1.233-3.738-.822-4.568 1.228-.733 1.812-.374 3.954.09 5.787.65 2.564 2.385 4.341 5.2 3.725v-.004c3.135 7.454 11.582 12.794 21.513 12.794 12.601 0 22.816-8.597 22.816-19.202 0-10.606-10.215-19.203-22.816-19.203z" fill="#ced920" fill-rule="nonzero"/><path d="M37.823 37.083l3.38-3.38-.565-.566a1.814 1.814 0 010-2.563l.565-.565-15.606-15.607-.565.566a1.817 1.817 0 01-2.564 0l-.565-.566-3.38 3.38 1.608 1.609L19 20.522l-1.608-1.609-3.38 3.38.565.566a1.814 1.814 0 010 2.563l-.565.566 15.606 15.606.565-.566a1.817 1.817 0 012.564 0l.565.566 3.38-3.38-1.608-1.609 1.131-1.131 1.608 1.609zm-13.861-13.26l3.777 3.777 3.776-3.776-3.776-3.777-3.777 3.776zm3.777-2.247l2.247 2.248-2.247 2.247-2.248-2.248 2.248-2.247zm1.444 2.248l-1.445-1.445-1.444 1.444 1.444 1.444 1.445-1.443zm-9.574 4.353l3.776 3.776 3.776-3.776-3.776-3.776-3.776 3.776zm3.776-2.247l2.247 2.247-2.247 2.247-2.247-2.247 2.247-2.247zm1.444 2.247l-1.444-1.444-1.444 1.444 1.444 1.444 1.444-1.444zm11.124.085l-3.776-3.776-3.776 3.776 3.776 3.776 3.776-3.776zm-3.776 2.247l-2.247-2.247 2.247-2.247 2.247 2.247-2.247 2.247zm1.444-2.247l-1.444-1.444-1.444 1.444 1.444 1.444 1.444-1.444zm-5.798.577l2.504 2.504-.805.805-2.504-2.504.805-.805zm-.361 1.971l-.805-.805-2.61 2.61.805.805 2.61-2.61zm-.552 4.668l.914.914.805-.805-.859-.859.501-.5-.988-.987-.5.5-.828-.828-.805.805.913.913.5-.5.847.847-.5.5zm.489-3.161l.806-.805 1.444 1.444 1.146-1.146.805.805-1.951 1.951-2.25-2.249z" fill="#fff"/><path d="M9.23 26.537a.8.8 0 01-.8-.8v-1.939a.8.8 0 011.6 0v1.939a.8.8 0 01-.8.8zM4.248 27.443c-.1-.926-.641-1.627-1.207-1.566-.566.062-.943.863-.843 1.789.101.926.641 1.627 1.207 1.566.566-.062.943-.862.843-1.789z" fill="#fff" fill-rule="nonzero"/></g></g></svg>