<svg xmlns="http://www.w3.org/2000/svg" xmlns:xlink="http://www.w3.org/1999/xlink" width="310" height="294" version="1.1" viewBox="0 0 310 294"><title>Illustration - web check your mail - web</title><desc>Created with Sketch.</desc><defs><filter id="filter-1" width="151.9%" height="364.2%" x="-25.9%" y="-132.1%" filterUnits="objectBoundingBox"><feGaussianBlur in="SourceGraphic" stdDeviation="14"/></filter><linearGradient id="linearGradient-2" x1="50%" x2="50%" y1="100%" y2="0%"><stop offset="0%" stop-color="#FFF" stop-opacity=".404"/><stop offset="11.911%" stop-color="#F8EEEE" stop-opacity=".385"/><stop offset="20.649%" stop-color="#DEE5FF" stop-opacity=".371"/><stop offset="100%" stop-color="#DEDFE5" stop-opacity=".245"/></linearGradient><linearGradient id="linearGradient-3" x1="50%" x2="50%" y1="100%" y2="0%"><stop offset="0%" stop-color="#909ABA"/><stop offset="100%" stop-color="#AAB5CF"/></linearGradient><linearGradient id="linearGradient-4" x1="50%" x2="50%" y1="0%" y2="100%"><stop offset="0%" stop-color="#B9C8EF"/><stop offset="100%" stop-color="#CED4EB"/></linearGradient><linearGradient id="linearGradient-5" x1="-1.312%" x2="100%" y1="-2.847%" y2="100%"><stop offset="0%" stop-color="#2B2E34"/><stop offset="100%" stop-color="#2B87DA"/></linearGradient><rect id="path-6" width="16" height="16" x="155.271" y="131.271" rx="8"/><filter id="filter-7" width="1225%" height="1225%" x="-562.5%" y="-468.8%" filterUnits="objectBoundingBox"><feOffset dx="0" dy="15" in="SourceAlpha" result="shadowOffsetOuter1"/><feGaussianBlur in="shadowOffsetOuter1" result="shadowBlurOuter1" stdDeviation="27.5"/><feColorMatrix in="shadowBlurOuter1" type="matrix" values="0 0 0 0 0.615686275 0 0 0 0 0.639215686 0 0 0 0 0.705882353 0 0 0 0.2 0"/></filter><radialGradient id="radialGradient-8" cx="-1.312%" cy="-2.847%" r="102.847%" fx="-1.312%" fy="-2.847%"><stop offset="0%" stop-color="#B9BDC7"/><stop offset="100%" stop-color="#497DFC"/></radialGradient><rect id="path-9" width="16" height="16" x="114.271" y="3.271" rx="8"/><filter id="filter-10" width="1225%" height="1225%" x="-562.5%" y="-468.8%" filterUnits="objectBoundingBox"><feOffset dx="0" dy="15" in="SourceAlpha" result="shadowOffsetOuter1"/><feGaussianBlur in="shadowOffsetOuter1" result="shadowBlurOuter1" stdDeviation="27.5"/><feColorMatrix in="shadowBlurOuter1" type="matrix" values="0 0 0 0 0.615686275 0 0 0 0 0.639215686 0 0 0 0 0.705882353 0 0 0 0.2 0"/></filter><radialGradient id="radialGradient-11" cx="50%" cy="32.513%" r="102.252%" fx="50%" fy="32.513%"><stop offset="0%" stop-color="#9FBDFF"/><stop offset="100%" stop-color="#056FF8"/></radialGradient><rect id="path-12" width="30" height="30" x="86.132" y="212.132" rx="15"/><filter id="filter-13" width="700%" height="700%" x="-300%" y="-250%" filterUnits="objectBoundingBox"><feOffset dx="0" dy="15" in="SourceAlpha" result="shadowOffsetOuter1"/><feGaussianBlur in="shadowOffsetOuter1" result="shadowBlurOuter1" stdDeviation="27.5"/><feColorMatrix in="shadowBlurOuter1" type="matrix" values="0 0 0 0 0.615686275 0 0 0 0 0.639215686 0 0 0 0 0.705882353 0 0 0 0.2 0"/></filter><rect id="path-14" width="13" height="13" x="2.657" y="158.657" rx="6"/><filter id="filter-15" width="1484.6%" height="1484.6%" x="-692.3%" y="-576.9%" filterUnits="objectBoundingBox"><feOffset dx="0" dy="15" in="SourceAlpha" result="shadowOffsetOuter1"/><feGaussianBlur in="shadowOffsetOuter1" result="shadowBlurOuter1" stdDeviation="27.5"/><feColorMatrix in="shadowBlurOuter1" type="matrix" values="0 0 0 0 0.615686275 0 0 0 0 0.639215686 0 0 0 0 0.705882353 0 0 0 0.2 0"/></filter><rect id="path-16" width="5" height="5" x="42" y="46" rx="2.5"/><filter id="filter-17" width="3700%" height="3700%" x="-1800%" y="-1500%" filterUnits="objectBoundingBox"><feOffset dx="0" dy="15" in="SourceAlpha" result="shadowOffsetOuter1"/><feGaussianBlur in="shadowOffsetOuter1" result="shadowBlurOuter1" stdDeviation="27.5"/><feColorMatrix in="shadowBlurOuter1" type="matrix" values="0 0 0 0 0.615686275 0 0 0 0 0.639215686 0 0 0 0 0.705882353 0 0 0 0.2 0"/></filter></defs><g id="Illustration---web-" fill="none" fill-rule="evenodd" stroke="none" stroke-width="1"><g id="Illustration" transform="translate(4.000000, 22.000000)"><path id="Shadow" fill="#1A438F" fill-opacity=".312" d="M146.246198,219.451251 C194.209165,221.390871 211.956393,214.940071 226.444398,205.024654 C240.932404,195.109236 191.019134,188 147.319855,188 C103.620577,188 59.088446,194.865769 68.1953121,205.024654 C77.3021782,215.183538 98.2832296,217.511631 146.246198,219.451251 Z" filter="url(#filter-1)" style="mix-blend-mode:multiply"/><g id="letter-(1)" transform="translate(50.000000, 3.000000)"><ellipse id="Oval" cx="100.5" cy="100" fill="url(#linearGradient-2)" rx="100.5" ry="100"/><rect id="Rectangle" width="153.713" height="104.502" x="24" y="82" fill="#E0E5F6"/><polygon id="Path" fill="url(#linearGradient-3)" points="100.856 12 24 82.425 100.856 152.985 177.713 82.425"/><polygon id="Path" fill="#FCFCFD" points="42 98.347 99.31 150.999 102.767 150.999 160.077 98.347 160.077 33 42 33"/><g id="Group" fill="#F1F3F7" transform="translate(59.823529, 67.394118)"><rect id="Rectangle" width="81.245" height="5.613" x="0" y="0"/><rect id="Rectangle" width="81.245" height="5.613" x="0" y="34"/><polygon id="Path" points="79.856 50 3 50 9.116 55.746 73.74 55.746"/><polygon id="Path" points="60.891 67 21 67 27.116 72.613 54.774 72.613"/></g><polygon id="Path" fill="url(#linearGradient-4)" points="113.755 141 87.958 141 24 187.371 177.713 187.371"/></g><g id="communications" transform="translate(111.000000, 0.000000)"><g id="Group"><g id="Rectangle-3-Copy-9" opacity=".174" transform="translate(163.270656, 139.270656) rotate(40.000000) translate(-163.270656, -139.270656)"><use fill="#000" fill-opacity="1" filter="url(#filter-7)" xlink:href="#path-6"/><use fill="url(#linearGradient-5)" fill-rule="evenodd" xlink:href="#path-6"/></g><g id="Rectangle-3-Copy-10" transform="translate(122.270656, 11.270656) rotate(40.000000) translate(-122.270656, -11.270656)"><use fill="#000" fill-opacity="1" filter="url(#filter-10)" xlink:href="#path-9"/><use fill="url(#radialGradient-8)" fill-rule="evenodd" xlink:href="#path-9"/></g><g id="Rectangle-3-Copy-11" transform="translate(101.132481, 227.132481) rotate(40.000000) translate(-101.132481, -227.132481)"><use fill="#000" fill-opacity="1" filter="url(#filter-13)" xlink:href="#path-12"/><use fill="url(#radialGradient-11)" fill-rule="evenodd" xlink:href="#path-12"/></g><path id="Path" fill="#3561FF" d="M40.1764706,81 C38.4117647,81 37.0882353,81.6617647 35.7647059,83.2058824 C34.6617647,84.75 34,86.7352941 34,89.1617647 C34,91.1470588 34.4411765,92.9117647 35.3235294,94.2352941 C36.2058824,95.5588235 37.3088235,96.2205882 38.8529412,96.2205882 C40.6176471,96.2205882 42.1617647,95.3382353 43.7058824,93.5735294 C45.25,91.8088235 45.9117647,89.6029412 45.9117647,86.7352941 C45.9117647,85.1911765 45.25,83.6470588 44.1470588,82.5441176 C43.2647059,81.6617647 41.9411765,81 40.1764706,81 Z"/><path id="Shape" fill="#416BFF" fill-rule="nonzero" d="M39.9264706,48 C17.8676471,48 0,65.8676471 0,87.9264706 C0,109.985294 17.8676471,127.852941 39.9264706,127.852941 C61.9852941,127.852941 79.8529412,109.985294 79.8529412,87.9264706 C79.8529412,65.8676471 61.9852941,48 39.9264706,48 Z M60,96.5294118 C57.5735294,100.058824 54.4852941,101.602941 50.9558824,101.602941 C48.0882353,101.602941 46.3235294,100.5 45.2205882,98.0735294 C43.2352941,100.5 41.0294118,101.602941 38.1617647,101.602941 C35.2941176,101.602941 32.8676471,100.5 30.8823529,98.0735294 C28.8970588,95.6470588 27.7941176,92.5588235 27.7941176,88.5882353 C27.7941176,84.6176471 28.8970588,81.3088235 31.3235294,78.8823529 C33.5294118,76.4558824 36.3970588,75.1323529 39.4852941,75.1323529 C42.5735294,75.1323529 44.7794118,76.0147059 46.1029412,78 L46.1029412,77.5588235 C46.1029412,77.1176471 46.3235294,76.6764706 46.7647059,76.2352941 C47.2058824,75.7941176 47.6470588,75.7941176 48.0882353,75.7941176 L50.2941176,75.7941176 C50.7352941,75.7941176 51.1764706,76.0147059 51.3970588,76.2352941 C51.6176471,76.4558824 51.8382353,76.8970588 51.8382353,77.3382353 L50.0735294,91.4558824 C49.8529412,92.5588235 49.8529412,93.6617647 49.8529412,94.5441176 C49.8529412,96.0882353 50.2941176,96.75 51.3970588,96.75 C53.1617647,96.75 54.7058824,95.6470588 56.4705882,93.2205882 C58.0147059,90.7941176 58.8970588,87.9264706 58.8970588,84.6176471 C58.8970588,79.7647059 57.1323529,75.7941176 53.6029412,72.7058824 C50.0735294,69.6176471 45.8823529,68.0735294 40.8088235,68.0735294 C35.2941176,68.0735294 30.6617647,70.0588235 26.9117647,73.8088235 C23.1617647,77.5588235 21.3970588,82.1911765 21.3970588,87.7058824 C21.3970588,92.7794118 23.1617647,97.4117647 26.6911765,101.161765 C30.2205882,104.911765 35.0735294,106.897059 41.4705882,106.897059 C45.4411765,106.897059 49.4117647,106.014706 53.3823529,104.470588 L54.7058824,103.808824 C55.1470588,103.588235 55.8088235,103.588235 56.25,103.808824 C56.6911765,104.029412 57.1323529,104.470588 57.3529412,104.911765 L57.7941176,105.794118 C58.0147059,106.235294 58.0147059,106.897059 57.7941176,107.338235 C57.5735294,107.779412 57.1323529,108.220588 56.6911765,108.441176 L55.1470588,109.102941 C50.7352941,110.867647 46.1029412,111.75 41.4705882,111.75 C33.5294118,111.75 27.3529412,109.323529 22.7205882,104.691176 C18.0882353,100.058824 15.8823529,94.3235294 15.8823529,87.7058824 C15.8823529,80.8676471 18.3088235,75.1323529 23.1617647,70.5 C28.0147059,65.8676471 33.9705882,63.6617647 40.8088235,63.6617647 C47.2058824,63.6617647 52.7205882,65.6470588 57.1323529,69.6176471 C61.5441176,73.5882353 63.75,78.6617647 63.75,84.6176471 C63.75,89.25 62.6470588,93 60,96.5294118 Z"/></g></g><g id="Rectangle-3-Copy-8" transform="translate(9.157408, 165.157408) rotate(40.000000) translate(-9.157408, -165.157408)"><use fill="#000" fill-opacity="1" filter="url(#filter-15)" xlink:href="#path-14"/><use fill="url(#radialGradient-11)" fill-rule="evenodd" xlink:href="#path-14"/></g><g id="Rectangle-3-Copy-12" opacity=".554" transform="translate(44.500000, 48.500000) rotate(40.000000) translate(-44.500000, -48.500000)"><use fill="#000" fill-opacity="1" filter="url(#filter-17)" xlink:href="#path-16"/><use fill="url(#radialGradient-11)" fill-rule="evenodd" xlink:href="#path-16"/></g></g></g></svg>