<svg xmlns="http://www.w3.org/2000/svg" width="48" height="48" fill="none" viewBox="0 0 48 48"><rect width="48" height="48" fill="#EAF0FF" rx="24"/><path stroke="#315EFD" stroke-linecap="round" stroke-linejoin="round" stroke-width="1.5" d="M26.4772 28.9548H25.6514C25.2133 28.9548 24.7932 28.7808 24.4835 28.4711C24.1738 28.1614 23.9998 27.7413 23.9998 27.3032V23.1742C23.9998 22.9552 23.9128 22.7451 23.7579 22.5903C23.603 22.4354 23.393 22.3484 23.174 22.3484H22.3481"/><path fill="#315EFD" stroke="#315EFD" stroke-linecap="round" stroke-linejoin="round" stroke-width="1.5" d="M23.5872 18.2192C23.5056 18.2192 23.4257 18.2435 23.3578 18.2888C23.2899 18.3342 23.237 18.3987 23.2057 18.4741C23.1745 18.5496 23.1663 18.6326 23.1823 18.7127C23.1982 18.7928 23.2375 18.8664 23.2953 18.9241C23.353 18.9819 23.4266 19.0212 23.5067 19.0371C23.5868 19.053 23.6698 19.0449 23.7452 19.0136C23.8207 18.9824 23.8852 18.9294 23.9305 18.8615C23.9759 18.7936 24.0001 18.7138 24.0001 18.6321C24.0001 18.5226 23.9566 18.4176 23.8792 18.3402C23.8018 18.2627 23.6967 18.2192 23.5872 18.2192Z"/><path stroke="#315EFD" stroke-linecap="round" stroke-linejoin="round" stroke-width="1.5" d="M11.6128 23.9999C11.6128 27.2852 12.9179 30.4359 15.2409 32.7589C17.5639 35.0819 20.7146 36.387 23.9999 36.387C27.2852 36.387 30.4359 35.0819 32.7589 32.7589C35.0819 30.4359 36.387 27.2852 36.387 23.9999C36.387 20.7146 35.0819 17.5639 32.7589 15.2409C30.4359 12.9179 27.2852 11.6128 23.9999 11.6128C20.7146 11.6128 17.5639 12.9179 15.2409 15.2409C12.9179 17.5639 11.6128 20.7146 11.6128 23.9999V23.9999Z"/></svg>