<svg width="42" height="42" fill="none" xmlns="http://www.w3.org/2000/svg"><rect x="2.065" width="31.301" height="42" rx="1" fill="#1C45D3" class="fill-color-primary"/><path d="M15.937 8.077c0 .214.086.42.239.571a.82.82 0 0 0 .577.237h4.08a.82.82 0 0 0 .576-.237.804.804 0 0 0 0-1.142.82.82 0 0 0-.577-.237h-4.08a.82.82 0 0 0-.576.237.804.804 0 0 0-.24.571Zm12.239 25.846a.803.803 0 0 0-.239-.57.82.82 0 0 0-.577-.238H16.753a.82.82 0 0 0-.578.237.804.804 0 0 0 0 1.142.82.82 0 0 0 .578.237H27.36a.82.82 0 0 0 .577-.237.803.803 0 0 0 .239-.57ZM16.753 31.5h4.08a.82.82 0 0 0 .576-.236.804.804 0 0 0 0-1.143.82.82 0 0 0-.577-.236h-4.08a.82.82 0 0 0-.576.236.804.804 0 0 0 0 1.143.82.82 0 0 0 .577.236Zm11.423-8.884a.803.803 0 0 0-.239-.572.82.82 0 0 0-.577-.236H16.753a.82.82 0 0 0-.578.236.804.804 0 0 0 0 1.143.82.82 0 0 0 .578.236H27.36a.82.82 0 0 0 .577-.236.803.803 0 0 0 .239-.572Zm-11.423-2.424h4.08a.82.82 0 0 0 .576-.236.804.804 0 0 0 0-1.142.82.82 0 0 0-.577-.237h-4.08a.82.82 0 0 0-.576.237.804.804 0 0 0 0 1.142.82.82 0 0 0 .577.236Zm11.423-8.884a.803.803 0 0 0-.239-.571.82.82 0 0 0-.577-.237H16.753a.82.82 0 0 0-.578.237.804.804 0 0 0 0 1.142.82.82 0 0 0 .578.237H27.36a.82.82 0 0 0 .577-.237.803.803 0 0 0 .239-.571ZM11.83 11.731H8.566v-3.23h3.264v3.23Zm-4.896.808c0 .214.086.42.24.571a.82.82 0 0 0 .576.237h4.896a.82.82 0 0 0 .577-.237.804.804 0 0 0 .239-.57V7.692a.804.804 0 0 0-.24-.571.82.82 0 0 0-.576-.237H7.75a.82.82 0 0 0-.577.237.804.804 0 0 0-.239.57v4.847ZM11.857 22.907H8.593v-3.23h3.264v3.23Zm-4.895.808c0 .214.085.42.239.57a.82.82 0 0 0 .576.237h4.896a.82.82 0 0 0 .577-.236.804.804 0 0 0 .24-.572v-4.846a.804.804 0 0 0-.24-.57.82.82 0 0 0-.577-.237H7.777a.82.82 0 0 0-.576.236.804.804 0 0 0-.24.571v4.847ZM11.857 33.923H8.593v-3.23h3.264v3.23Zm-4.895.808c0 .214.085.42.239.571a.82.82 0 0 0 .576.237h4.896a.82.82 0 0 0 .577-.237.804.804 0 0 0 .24-.57v-4.847a.804.804 0 0 0-.24-.571.82.82 0 0 0-.577-.237H7.777a.82.82 0 0 0-.576.237.804.804 0 0 0-.24.57v4.847Z" fill="#fff"/><path d="M35.038 37.038c0 .215.086.42.24.572a.82.82 0 0 0 .576.236h3.264a.82.82 0 0 0 .577-.236.804.804 0 0 0 .239-.572v-2.422h-4.896v2.422Zm4.81-25.823-1.632-3.23a.846.846 0 0 0-.73-.411.856.856 0 0 0-.73.41l-1.632 3.231a.802.802 0 0 0-.086.361V33h4.896V11.576c0-.125-.03-.249-.086-.36Z" fill="#000"/></svg>