<svg xmlns="http://www.w3.org/2000/svg" width="24" height="24" viewBox="0 0 24 24"><g fill="#6A6D6F" fill-rule="nonzero"><path d="M21.94 8.72c0-.524-.21-1.019-.594-1.39a2.043 2.043 0 0 0-1.435-.577L7.203 6.76V3.472l9.531-.004-.008 1.415c0 .405.337.737.755.74h.004c.418 0 .76-.326.76-.731l.008-1.505c0-.765-.641-1.387-1.434-1.387l-9.705.004a1.43 1.43 0 0 0-1.013.41c-.27.265-.417.608-.417.98v3.37H4.03c-.54 0-1.051.205-1.435.578A1.926 1.926 0 0 0 2 8.732l.004 7.108a1.905 1.905 0 0 0 .59 1.391c.385.372.891.577 1.436.577a.75.75 0 0 0 .759-.736.75.75 0 0 0-.76-.737.527.527 0 0 1-.358-.143.478.478 0 0 1-.148-.347L3.52 8.736c0-.274.228-.495.51-.495h2.414l13.468-.008c.135 0 .262.053.359.143a.478.478 0 0 1 .148.348l.004 7.108c0 .131-.055.258-.148.348a.509.509 0 0 1-.358.143.75.75 0 0 0-.76.736.75.75 0 0 0 .76.737c.54 0 1.05-.205 1.434-.577.384-.372.595-.867.595-1.39l-.004-7.11z"/><path d="M18.06 11.759a.773.773 0 0 0-.537-.217l-11.055.004a.75.75 0 0 0-.76.736l.005 8.295c0 .765.641 1.386 1.435 1.386l9.704-.004a1.43 1.43 0 0 0 1.013-.409c.27-.262.418-.61.418-.981v-8.29a.713.713 0 0 0-.224-.52zM7.235 20.495l-.004-7.477 9.532-.004.004 7.477-9.532.004z"/></g></svg>