<svg width="72" height="72" fill="none" xmlns="http://www.w3.org/2000/svg"><g clip-path="url(#clip0)"><path d="M72 24.65a5.134 5.134 0 01-1.566 3.638L36 61.806l-7.346 7.15a3.09 3.09 0 01-.177.16l-.02.017a4.022 4.022 0 01-.365.294l-.037.027a3.621 3.621 0 01-.394.254l-.036.023a3.787 3.787 0 01-.416.215l-.036.016a3.975 3.975 0 01-.441.176l-.027.008a3.395 3.395 0 01-.474.136l-.014.003a3.17 3.17 0 01-.516.093 5.234 5.234 0 01-1.156.021c-.058-.005-.116-.014-.175-.022-.081-.012-.192-.026-.322-.051a3.502 3.502 0 01-.196-.045l-.016-.004a3.38 3.38 0 01-.475-.138l-.031-.011a4.49 4.49 0 01-.25-.092 3.952 3.952 0 01-.199-.09l-.036-.016c-.076-.036-.152-.07-.225-.11a4.83 4.83 0 01-.2-.114l-.037-.023a3.676 3.676 0 01-.399-.265l-.038-.029a4.696 4.696 0 01-.193-.147 4.443 4.443 0 01-.175-.156l-.019-.017a3.853 3.853 0 01-.175-.163L1.513 49.038a5.18 5.18 0 010-7.32 5.142 5.142 0 013.66-1.516c1.383 0 2.682.539 3.66 1.516l16.259 16.26L35.999 47.36l27.216-26.49a5.181 5.181 0 017.319.099A5.138 5.138 0 0172 24.65z" fill="url(#paint0_linear)"/><path d="M27.603 30.052a12.911 12.911 0 01-5.116-5.115 2.464 2.464 0 00-4.32 0 12.91 12.91 0 01-5.116 5.116 2.463 2.463 0 000 4.32 12.91 12.91 0 015.116 5.116 2.463 2.463 0 004.32 0 12.91 12.91 0 015.116-5.116 2.463 2.463 0 000-4.32z" fill="#DDE5FF"/><path d="M49.98 22.79c0 .899-.49 1.727-1.278 2.16a12.91 12.91 0 00-5.117 5.116 2.464 2.464 0 01-4.32-.001 12.89 12.89 0 00-5.115-5.116 2.462 2.462 0 01-.002-4.32 12.92 12.92 0 005.117-5.117 2.464 2.464 0 014.32 0 12.91 12.91 0 005.117 5.118 2.464 2.464 0 011.278 2.16z" fill="#D7E3FF"/><path d="M31.823 7.97a12.91 12.91 0 01-5.116-5.115 2.464 2.464 0 00-4.32 0 12.91 12.91 0 01-5.116 5.116 2.463 2.463 0 000 4.32 12.91 12.91 0 015.115 5.116 2.464 2.464 0 004.321 0 12.91 12.91 0 015.116-5.116 2.463 2.463 0 000-4.32z" fill="#DDE5FF"/><path d="M72 24.65a5.134 5.134 0 01-1.566 3.638L35.999 61.806V47.36l27.215-26.49a5.181 5.181 0 017.32.099 5.139 5.139 0 011.465 3.68z" fill="#3561FF"/><path d="M49.978 22.79c0 .899-.49 1.727-1.278 2.16a12.91 12.91 0 00-5.117 5.116 2.464 2.464 0 01-4.32-.001 12.89 12.89 0 00-3.264-3.881v-6.79a12.918 12.918 0 003.264-3.881 2.464 2.464 0 014.32 0A12.91 12.91 0 0048.7 20.63a2.464 2.464 0 011.278 2.16z" fill="#BCCBFF"/></g><defs><linearGradient id="paint0_linear" x1="36" y1="19.407" x2="36" y2="70.423" gradientUnits="userSpaceOnUse"><stop stop-color="#DDE5FF"/><stop offset="1" stop-color="#BCCBFF"/></linearGradient><clipPath id="clip0"><path fill="#fff" d="M0 0h72v72H0z"/></clipPath></defs></svg>