<svg width="140" height="140" fill="none" xmlns="http://www.w3.org/2000/svg"><path fill-rule="evenodd" clip-rule="evenodd" d="M70 140c38.66 0 70-31.34 70-70S108.66 0 70 0 0 31.34 0 70s31.34 70 70 70Z" fill="url(#a)"/><path d="M34 70c0 19.896 16.1 36 36 36l4.235-33.882L70 34c-19.896 0-36 16.101-36 36Z" fill="#4F4F4F"/><path d="M70 34v72c3.619 0 7.182-.535 10.606-1.589l23.805-23.805A35.99 35.99 0 0 0 106 70c0-19.896-16.101-36-36-36Z" fill="#4F4F4F"/><path d="M67.882 44.588v-6.28a31.525 31.525 0 0 0-11.893 3.19l2.08 3.602-3.668 2.118-2.077-3.598a32.023 32.023 0 0 0-8.704 8.705l3.598 2.077-2.118 3.667-3.602-2.08a31.527 31.527 0 0 0-3.19 11.893h6.28v4.236h-6.28a31.525 31.525 0 0 0 3.19 11.893l3.602-2.08 2.118 3.668-3.598 2.077a32.024 32.024 0 0 0 8.705 8.704l2.077-3.598 3.667 2.118-2.08 3.602A31.623 31.623 0 0 0 70 101.766L72.118 70 70 44.588h-2.118Z" fill="#fff"/><path d="M98.502 55.99 94.9 58.07 92.782 54.4l3.598-2.077a32.023 32.023 0 0 0-8.704-8.704l-2.077 3.598L81.93 45.1l2.08-3.602a31.528 31.528 0 0 0-11.893-3.19v6.28H70v57.177c1.948 0 3.894-.177 5.812-.532l25.421-25.42a31.728 31.728 0 0 0-2.73-19.824Z" fill="#F5F5F5"/><path d="M88 70v36c9.925 0 18-8.075 18-18s-8.075-18-18-18Z" class="color-primary" fill="#22398E"/><path d="M70 88c0 9.925 8.075 18 18 18l2.682-16.941L88 70c-9.925 0-18 8.075-18 18Z" class="color-primary" fill="#22398E"/><path d="M67.883 50.941v16.942H55.177v4.235H70V50.94h-2.117ZM70 50.941h2.118v21.177H70V50.94Z" fill="#4F4F4F"/><path d="M85.882 97.53h2.117l1.06-2.118-1.06-2.118h-2.117v4.235Z" fill="#fff"/><path d="M88 93.294h2.118v4.235H88v-4.235Z" fill="#F5F5F5"/><path d="M85.882 78.47V89.06h2.117l1.53-4.706-1.53-5.882h-2.117Z" fill="#fff"/><path d="M88 78.47h2.118V89.06H88V78.47Z" fill="#F5F5F5"/><defs><linearGradient id="a" x1="0" y1="0" x2="0" y2="140" gradientUnits="userSpaceOnUse"><stop stop-color="#F0F0F0" stop-opacity=".01"/><stop offset="1" stop-color="#ECECEC" stop-opacity=".4"/></linearGradient></defs></svg>