<svg width="250" height="249" fill="none" xmlns="http://www.w3.org/2000/svg"><g filter="url(#prefix__filter0_d)"><path fill-rule="evenodd" clip-rule="evenodd" d="M124.999 240.898c66.606 0 120.6-53.78 120.6-120.12S191.605.658 124.999.658c-66.605 0-120.6 53.78-120.6 120.12s53.995 120.12 120.6 120.12z" fill="url(#prefix__paint0_linear)"/></g><g clip-path="url(#prefix__clip0)"><path d="M215 126.859c0 45.056-36.531 81.579-81.593 81.579-45.061 0-81.59-36.523-81.59-81.579 0-45.057 36.529-81.582 81.59-81.582 45.062 0 81.593 36.525 81.593 81.582z" fill="#DDE5FF"/><path d="M182.235 107.611c0 9.252-7.503 16.753-16.757 16.753-9.255 0-16.758-7.501-16.758-16.753 0-9.254 7.503-16.758 16.758-16.758 9.254 0 16.757 7.504 16.757 16.758zM118.862 107.611c0 9.252-7.503 16.753-16.758 16.753-9.254 0-16.757-7.501-16.757-16.753 0-9.254 7.503-16.758 16.757-16.758 9.255 0 16.758 7.504 16.758 16.758z" fill="#fff"/><path d="M155.279 120.784c-11.483 0-20.825-9.341-20.825-20.822s9.342-20.823 20.825-20.823c11.481 0 20.826 9.342 20.826 20.823s-9.345 20.822-20.826 20.822zm0-33.513c-6.998 0-12.69 5.692-12.69 12.69 0 6.997 5.692 12.688 12.69 12.688 6.999 0 12.691-5.691 12.691-12.687 0-6.999-5.692-12.69-12.691-12.69z" fill="url(#prefix__paint1_linear)"/><path d="M91.906 120.784c-11.484 0-20.828-9.341-20.828-20.822s9.344-20.823 20.828-20.823c11.481 0 20.825 9.342 20.825 20.823s-9.344 20.822-20.825 20.822zm0-33.513c-6.999 0-12.693 5.692-12.693 12.69 0 6.997 5.694 12.688 12.693 12.688 6.996 0 12.69-5.691 12.69-12.687 0-6.999-5.694-12.69-12.69-12.69z" fill="url(#prefix__paint2_linear)"/><path d="M102.175 170.049c-.469 0-.944-.078-1.408-.249a4.07 4.07 0 01-2.41-5.223c4.452-12.08 11.654-20.223 21.413-24.209 17.032-6.953 35.384 1.57 36.16 1.936a4.067 4.067 0 01-3.476 7.354c-.263-.122-16.026-7.338-29.652-1.741-7.536 3.091-13.189 9.645-16.812 19.472a4.066 4.066 0 01-3.815 2.66z" fill="url(#prefix__paint3_linear)"/><path d="M162.75 98.953a8.48 8.48 0 11-16.961-.003 8.48 8.48 0 0116.961.003z" fill="url(#prefix__paint4_linear)"/><path d="M99.374 98.953a8.48 8.48 0 01-8.48 8.479 8.48 8.48 0 010-16.96c4.683 0 8.48 3.798 8.48 8.481z" fill="url(#prefix__paint5_linear)"/><path d="M120.66 202.301c-47.23 0-85.66-38.424-85.66-85.652C35 69.424 73.43 31 120.66 31c47.231 0 85.657 38.424 85.657 85.649 0 47.228-38.426 85.652-85.657 85.652zm0-163.166c-42.749 0-77.525 34.774-77.525 77.514 0 42.743 34.776 77.515 77.525 77.515 42.746 0 77.523-34.772 77.523-77.515 0-42.74-34.777-77.514-77.523-77.514z" fill="url(#prefix__paint6_linear)"/></g><defs><linearGradient id="prefix__paint0_linear" x1="233.599" y1="45.102" x2="17.519" y2="148.237" gradientUnits="userSpaceOnUse"><stop stop-color="#fff" stop-opacity=".404"/><stop offset=".119" stop-color="#EEEFF8" stop-opacity=".385"/><stop offset=".206" stop-color="#DEE5FF" stop-opacity=".371"/><stop offset=".765" stop-color="#fff" stop-opacity=".282"/><stop offset="1" stop-color="#E3EAFF" stop-opacity=".245"/></linearGradient><linearGradient id="prefix__paint1_linear" x1="155.135" y1="117.384" x2="141.182" y2="83.444" gradientUnits="userSpaceOnUse"><stop stop-color="#315EFD"/><stop offset="1" stop-color="#6789FF"/></linearGradient><linearGradient id="prefix__paint2_linear" x1="91.76" y1="117.384" x2="77.808" y2="83.443" gradientUnits="userSpaceOnUse"><stop stop-color="#315EFD"/><stop offset="1" stop-color="#6789FF"/></linearGradient><linearGradient id="prefix__paint3_linear" x1="127.972" y1="167.404" x2="121.455" y2="137.977" gradientUnits="userSpaceOnUse"><stop stop-color="#315EFD"/><stop offset="1" stop-color="#6789FF"/></linearGradient><linearGradient id="prefix__paint4_linear" x1="154.211" y1="106.048" x2="148.528" y2="92.225" gradientUnits="userSpaceOnUse"><stop stop-color="#315EFD"/><stop offset="1" stop-color="#6789FF"/></linearGradient><linearGradient id="prefix__paint5_linear" x1="90.835" y1="106.048" x2="85.152" y2="92.225" gradientUnits="userSpaceOnUse"><stop stop-color="#315EFD"/><stop offset="1" stop-color="#6789FF"/></linearGradient><linearGradient id="prefix__paint6_linear" x1="120.065" y1="188.315" x2="62.671" y2="48.708" gradientUnits="userSpaceOnUse"><stop stop-color="#315EFD"/><stop offset="1" stop-color="#6789FF"/></linearGradient><clipPath id="prefix__clip0"><path fill="#fff" transform="translate(35 31)" d="M0 0h180v180H0z"/></clipPath><filter id="prefix__filter0_d" x=".399" y=".658" width="249.2" height="248.24" filterUnits="userSpaceOnUse" color-interpolation-filters="sRGB"><feFlood flood-opacity="0" result="BackgroundImageFix"/><feColorMatrix in="SourceAlpha" values="0 0 0 0 0 0 0 0 0 0 0 0 0 0 0 0 0 0 127 0"/><feOffset dy="4"/><feGaussianBlur stdDeviation="2"/><feColorMatrix values="0 0 0 0 1 0 0 0 0 1 0 0 0 0 1 0 0 0 0.1 0"/><feBlend in2="BackgroundImageFix" result="effect1_dropShadow"/><feBlend in="SourceGraphic" in2="effect1_dropShadow" result="shape"/></filter></defs></svg>