<svg width="42" height="42" fill="none" xmlns="http://www.w3.org/2000/svg"><path d="M37.847 4.547c1.55.41 2.47 1.98 2.054 3.508l-8.645 31.821c-.415 1.528-2.008 2.435-3.558 2.026l-16.834-4.449c-1.549-.41-2.469-1.98-2.053-3.508l8.645-31.821C17.871.596 19.464-.311 21.014.098l16.833 4.449Z" fill="#E6ECFF"/><path d="M24.82 8.768h-9.17L8.81 33.945c-.415 1.528.505 3.099 2.055 3.508l16.834 4.448c1.549.41 3.142-.497 3.557-2.025L36.56 20.35 24.82 8.769Z" fill="#315EFD"/><path d="M37.847 4.547c1.55.41 2.47 1.98 2.054 3.508L36.142 21.89 13.697 15.96l3.759-13.835C17.87.596 19.464-.311 21.013.098l16.834 4.449Z" fill="#315EFD"/><path d="M37.846 4.547c1.549.41 2.469 1.98 2.053 3.508L36.141 21.89 13.696 15.96l3.759-13.835C17.87.596 19.463-.311 21.012.098l16.834 4.449Z" fill="url(#a)"/><path d="m21.26 26.852-2.631 9.684-1.403-.371 2.631-9.684 1.403.37ZM22.775 21.32l-.751 2.767-1.403-.37.752-2.767 1.402.37ZM26.986 22.428l-.751 2.767-1.403-.371.752-2.767 1.402.37ZM25.47 27.965l-2.63 9.684-1.403-.37 2.63-9.685 1.404.37ZM29.69 29.078l-2.632 9.684-1.402-.37 2.63-9.685 1.403.371Z" fill="#C8BEB2"/><path d="M22.416.47 12.267 37.823l-1.403-.37c-1.549-.41-2.469-1.981-2.053-3.51l8.645-31.82C17.87.596 19.464-.311 21.013.098l1.403.371Z" fill="#F34460"/><path d="M30.529 38.156c0 1.816-1.42 3.288-3.17 3.288H3.585C2.71 41.444 2 40.709 2 39.8V6.914c0-.908.71-1.644 1.585-1.644h23.774c1.75 0 3.17 1.472 3.17 3.288v29.598Z" fill="#E6ECFF"/><path opacity=".4" d="M30.529 38.156c0 1.816-1.42 3.288-3.17 3.288H3.585C2.71 41.444 2 40.709 2 39.8V6.914c0-.908.71-1.644 1.585-1.644h23.774c1.75 0 3.17 1.472 3.17 3.288v29.598Z" fill="url(#b)"/><path fill-rule="evenodd" clip-rule="evenodd" d="M7.773 19.264c0-4.746 3.902-8.594 8.714-8.594s8.714 3.848 8.714 8.594c0 4.746-3.902 8.594-8.714 8.594s-8.714-3.848-8.714-8.594Zm12.023-3.223h3.14a7.224 7.224 0 0 0-4.389-3.61c.48.926.949 2.126 1.249 3.61Zm-1.126 3.222c0 .64-.049 1.227-.115 1.79h-4.126a14.958 14.958 0 0 1-.116-1.79c0-.64.048-1.227.114-1.79h4.129c.066.563.114 1.15.114 1.79Zm-2.395-7.14c-.542.819-1.207 2.123-1.61 3.917h3.644c-.401-1.788-1.064-3.093-1.609-3.917a.874.874 0 0 1-.1-.01.777.777 0 0 0-.113-.011c-.039 0-.076.005-.112.01-.033.005-.066.01-.1.01Zm-1.847.309a13.827 13.827 0 0 0-1.247 3.61h-3.142a7.225 7.225 0 0 1 4.39-3.61Zm-1.468 5.04H9.486a6.988 6.988 0 0 0-.258 1.791c0 .622.106 1.215.258 1.79h3.478a16.378 16.378 0 0 1-.105-1.79c0-.633.042-1.223.102-1.79Zm-2.92 5.014h3.144a14.067 14.067 0 0 0 1.242 3.61 7.224 7.224 0 0 1-4.387-3.61Zm4.625 0c.41 1.821 1.088 3.129 1.608 3.918a.9.9 0 0 1 .1.01c.037.006.074.011.112.011.038 0 .075-.005.112-.01a.875.875 0 0 1 .099-.01c.522-.792 1.2-2.099 1.61-3.919h-3.642Zm3.89 3.61a14.03 14.03 0 0 0 1.242-3.61h3.144a7.226 7.226 0 0 1-4.386 3.61Zm1.461-5.043h3.478a6.99 6.99 0 0 0 .258-1.79c0-.622-.107-1.215-.258-1.79h-3.476c.061.567.103 1.157.103 1.79 0 .634-.043 1.223-.105 1.79Z" fill="#fff"/><path fill-rule="evenodd" clip-rule="evenodd" d="M4.727 33.574v3.076h.412V35.4h.8c.441 0 .746-.09.915-.272a.938.938 0 0 0 .253-.664.933.933 0 0 0-.095-.42.758.758 0 0 0-.25-.297.952.952 0 0 0-.385-.143c-.109-.02-.267-.03-.474-.03H4.727Zm1.22 1.463h-.806v-1.1h.797c.188 0 .316.01.385.028.108.03.195.09.261.181a.55.55 0 0 1 .1.33.52.52 0 0 1-.169.414c-.112.098-.301.147-.568.147ZM8.159 33.574 6.96 36.65h.438l.343-.932h1.304l.364.932h.47l-1.277-3.076H8.16Zm.758 1.812H7.86l.342-.902c.072-.194.128-.39.168-.587.048.166.122.379.221.637l.326.852Z" fill="#004195"/><path d="m10.078 35.662.39-.034a.84.84 0 0 0 .128.379.702.702 0 0 0 .314.239c.142.06.301.091.479.091.157 0 .296-.023.417-.069.12-.046.21-.11.269-.19a.437.437 0 0 0 .088-.263.396.396 0 0 0-.085-.253.632.632 0 0 0-.281-.181 5.587 5.587 0 0 0-.555-.15c-.287-.068-.487-.132-.602-.193a.836.836 0 0 1-.333-.286.693.693 0 0 1-.11-.383c0-.155.045-.3.134-.435a.827.827 0 0 1 .392-.308c.171-.07.362-.104.572-.104.231 0 .435.036.611.11a.88.88 0 0 1 .561.808l-.396.03c-.02-.194-.093-.341-.216-.44-.122-.1-.303-.15-.543-.15-.25 0-.431.045-.546.136a.404.404 0 0 0-.171.326c0 .11.04.201.121.273.08.071.287.144.623.219.335.075.565.14.69.196a.945.945 0 0 1 .402.314c.086.126.13.272.13.437a.828.828 0 0 1-.143.463.936.936 0 0 1-.41.338c-.178.08-.378.12-.6.12a1.82 1.82 0 0 1-.71-.121.99.99 0 0 1-.449-.367 1.03 1.03 0 0 1-.17-.552ZM12.984 35.662l.39-.034c.018.154.06.28.128.379a.702.702 0 0 0 .314.239c.142.06.301.091.479.091.157 0 .296-.023.417-.069.12-.046.21-.11.269-.19a.436.436 0 0 0 .088-.263.397.397 0 0 0-.085-.253.632.632 0 0 0-.28-.181 5.595 5.595 0 0 0-.556-.15c-.286-.068-.487-.132-.602-.193a.838.838 0 0 1-.333-.286.694.694 0 0 1-.11-.383c0-.155.045-.3.135-.435a.827.827 0 0 1 .39-.308c.172-.07.363-.104.573-.104.231 0 .435.036.612.11a.88.88 0 0 1 .56.808l-.395.03c-.022-.194-.094-.341-.216-.44-.123-.1-.304-.15-.544-.15-.25 0-.431.045-.546.136a.404.404 0 0 0-.17.326c0 .11.04.201.12.273.08.071.287.144.623.219.335.075.565.14.69.196a.945.945 0 0 1 .402.314c.087.126.13.272.13.437a.828.828 0 0 1-.143.463.936.936 0 0 1-.41.338c-.177.08-.378.12-.6.12-.283 0-.519-.04-.71-.121a.99.99 0 0 1-.449-.367 1.028 1.028 0 0 1-.17-.552Z" fill="#004195"/><path fill-rule="evenodd" clip-rule="evenodd" d="M16.032 33.574v3.076h.413V35.4h.8c.44 0 .746-.09.915-.272a.938.938 0 0 0 .253-.664.933.933 0 0 0-.095-.42.758.758 0 0 0-.25-.297.952.952 0 0 0-.385-.143c-.11-.02-.267-.03-.474-.03h-1.177Zm1.22 1.463h-.806v-1.1h.798c.187 0 .316.01.385.028.108.03.195.09.26.181a.55.55 0 0 1 .1.33.52.52 0 0 1-.168.414c-.112.098-.302.147-.568.147ZM19.223 33.953c-.278.289-.417.688-.417 1.199 0 .27.06.526.179.768s.294.433.525.572c.231.14.493.21.787.21.271 0 .523-.063.758-.19.233-.126.414-.312.542-.559.127-.246.191-.525.191-.837 0-.307-.06-.583-.182-.825a1.338 1.338 0 0 0-.528-.568 1.51 1.51 0 0 0-.779-.203c-.44 0-.798.144-1.076.433Zm.316 2.082c-.203-.213-.304-.505-.304-.876 0-.463.106-.793.316-.991.211-.198.462-.297.755-.297.205 0 .39.051.556.154.165.103.29.248.376.434.086.187.13.406.13.656 0 .396-.101.702-.302.917-.2.215-.456.323-.767.323-.305 0-.558-.106-.76-.32ZM22.33 33.574v3.076h.413v-1.366h.478c.107 0 .183.005.23.015a.625.625 0 0 1 .188.082c.062.039.132.107.21.205.078.098.177.24.298.424l.412.64h.52l-.543-.837a2.122 2.122 0 0 0-.342-.41 1.074 1.074 0 0 0-.25-.152c.3-.041.521-.136.664-.286a.767.767 0 0 0 .215-.552.865.865 0 0 0-.13-.463.691.691 0 0 0-.346-.293c-.145-.055-.356-.083-.634-.083H22.33Zm1.302 1.358h-.888v-1.018h.987c.231 0 .4.047.508.14.107.094.16.214.16.36 0 .099-.027.19-.083.275a.469.469 0 0 1-.242.185 1.343 1.343 0 0 1-.443.058Z" fill="#004195"/><path d="M26.185 36.65v-2.713h-1.028v-.363h2.472v.363h-1.032v2.713h-.412Z" fill="#004195"/><defs><linearGradient id="a" x1="26.848" y1="0" x2="26.848" y2="21.89" gradientUnits="userSpaceOnUse"><stop stop-color="#22398E"/><stop offset=".661" stop-color="#315EFD" stop-opacity="0"/></linearGradient><linearGradient id="b" x1="2.28" y1="5.786" x2="39.12" y2="26.653" gradientUnits="userSpaceOnUse"><stop stop-color="#769AF7" stop-opacity=".5"/><stop offset="1" stop-color="#769AF7" stop-opacity="0"/></linearGradient></defs></svg>