<svg width="82" height="83" viewBox="0 0 82 83" fill="none" xmlns="http://www.w3.org/2000/svg">
<rect y="0.5" width="82" height="82" rx="41" fill="url(#paint0_linear_228_8615)"/>
<g clip-path="url(#clip0_228_8615)">
<g clip-path="url(#clip1_228_8615)">
<path d="M41 62.5C52.598 62.5 62 53.098 62 41.5C62 29.902 52.598 20.5 41 20.5C29.402 20.5 20 29.902 20 41.5C20 53.098 29.402 62.5 41 62.5Z" fill="#E6ECFF"/>
<path opacity="0.4" d="M41 62.5C52.598 62.5 62 53.098 62 41.5C62 29.902 52.598 20.5 41 20.5C29.402 20.5 20 29.902 20 41.5C20 53.098 29.402 62.5 41 62.5Z" fill="url(#paint1_linear_228_8615)"/>
<path d="M59.6529 30.3589V51.1558C58.9414 52.5281 58.0825 53.8121 57.0968 54.9864H24.9025C23.9168 53.8122 23.0571 52.5273 22.3457 51.1542V30.3589C22.3457 29.0646 23.3949 28.0146 24.6892 28.0146H57.3095C58.6037 28.0146 59.6529 29.0646 59.6529 30.3589Z" fill="white"/>
<path opacity="0.4" d="M41 44.932L55.4055 54.9859L56.9633 50.9511L57.3172 32.262L41.1767 42.3853L41 44.932Z" fill="#CEE4F9"/>
<path d="M59.6529 30.3589V51.1558C58.9414 52.5281 58.0825 53.8121 57.0968 54.9864H55.4057V34.877L40.9997 44.9321L26.5937 34.877V54.9864H24.9025C23.9168 53.8121 23.0571 52.5272 22.3457 51.1541V30.3589C22.3457 29.0646 23.3949 28.0146 24.6892 28.0146H24.9266L40.9997 39.2329L57.0728 28.0146H57.3094C58.6037 28.0146 59.6529 29.0646 59.6529 30.3589Z" fill="#315EFD"/>
</g>
</g>
<defs>
<linearGradient id="paint0_linear_228_8615" x1="0" y1="0.5" x2="82" y2="82.5" gradientUnits="userSpaceOnUse">
<stop stop-color="#E5EAF8"/>
<stop offset="1" stop-color="#F9FAFF" stop-opacity="0"/>
</linearGradient>
<linearGradient id="paint1_linear_228_8615" x1="20.4116" y1="21.1" x2="67.6711" y2="55.0415" gradientUnits="userSpaceOnUse">
<stop stop-color="#769AF7" stop-opacity="0.5"/>
<stop offset="1" stop-color="#769AF7" stop-opacity="0"/>
</linearGradient>
<clipPath id="clip0_228_8615">
<rect x="20" y="20.5" width="42" height="42" rx="6" fill="white"/>
</clipPath>
<clipPath id="clip1_228_8615">
<rect x="20" y="20.5" width="42" height="42" rx="6" fill="white"/>
</clipPath>
</defs>
</svg>
