<svg width="17" height="17" viewBox="0 0 17 17" fill="none" xmlns="http://www.w3.org/2000/svg">
<mask id="path-1-outside-1" maskUnits="userSpaceOnUse" x="-0.4375" y="-0.4375" width="17" height="17" fill="black">
<rect fill="white" x="-0.4375" y="-0.4375" width="17" height="17"/>
<path fill-rule="evenodd" clip-rule="evenodd" d="M11.5834 10.6271L15.3021 14.3459C15.3021 14.4115 15.3427 14.4772 15.3988 14.568C15.4335 14.624 15.474 14.6897 15.5146 14.7709C15.5146 15.1959 15.3021 15.5146 14.8771 15.5146H14.7709C14.6646 15.5146 14.4521 15.4084 14.3459 15.3021L10.6271 11.5834C8.28963 13.3896 5.10213 13.3896 2.87088 11.5834C0.214633 9.45838 -0.210367 5.52713 1.91463 2.87088C4.03963 0.214633 7.97088 -0.210367 10.6271 1.91463C13.2834 4.03963 13.7084 7.97088 11.5834 10.6271ZM6.80213 11.4771C9.45838 11.4771 11.5834 9.35213 11.5834 6.69588C11.5834 4.03963 9.45838 1.91463 6.80213 1.91463C4.14588 1.91463 2.02088 4.03963 2.02088 6.69588C2.02088 9.35213 4.14588 11.4771 6.80213 11.4771Z"/>
</mask>
<path fill-rule="evenodd" clip-rule="evenodd" d="M11.5834 10.6271L15.3021 14.3459C15.3021 14.4115 15.3427 14.4772 15.3988 14.568C15.4335 14.624 15.474 14.6897 15.5146 14.7709C15.5146 15.1959 15.3021 15.5146 14.8771 15.5146H14.7709C14.6646 15.5146 14.4521 15.4084 14.3459 15.3021L10.6271 11.5834C8.28963 13.3896 5.10213 13.3896 2.87088 11.5834C0.214633 9.45838 -0.210367 5.52713 1.91463 2.87088C4.03963 0.214633 7.97088 -0.210367 10.6271 1.91463C13.2834 4.03963 13.7084 7.97088 11.5834 10.6271ZM6.80213 11.4771C9.45838 11.4771 11.5834 9.35213 11.5834 6.69588C11.5834 4.03963 9.45838 1.91463 6.80213 1.91463C4.14588 1.91463 2.02088 4.03963 2.02088 6.69588C2.02088 9.35213 4.14588 11.4771 6.80213 11.4771Z" fill="black"/>
<path d="M15.3021 14.3459H15.8021C15.8021 14.2133 15.7495 14.0861 15.6557 13.9923L15.3021 14.3459ZM11.5834 10.6271L11.1929 10.3148C11.0338 10.5137 11.0497 10.8005 11.2298 10.9807L11.5834 10.6271ZM15.3988 14.568L14.9735 14.8308V14.8308L15.3988 14.568ZM15.5146 14.7709H16.0146C16.0146 14.6933 15.9966 14.6167 15.9618 14.5473L15.5146 14.7709ZM14.3459 15.3021L14.6994 14.9486L14.6994 14.9486L14.3459 15.3021ZM10.6271 11.5834L10.9807 11.2298C10.8028 11.0519 10.5205 11.0339 10.3214 11.1877L10.6271 11.5834ZM2.87088 11.5834L3.18549 11.1948L3.18323 11.1929L2.87088 11.5834ZM1.91463 2.87088L2.30507 3.18323L1.91463 2.87088ZM10.6271 1.91463L10.3148 2.30507L10.6271 1.91463ZM15.6557 13.9923L11.9369 10.2736L11.2298 10.9807L14.9486 14.6994L15.6557 13.9923ZM15.8241 14.3051C15.8094 14.2812 15.7996 14.2653 15.7914 14.2513C15.7876 14.2449 15.7849 14.2401 15.7831 14.2367C15.7812 14.2333 15.7806 14.232 15.7807 14.2323C15.7809 14.2325 15.7821 14.2352 15.7839 14.2398C15.7858 14.2445 15.7884 14.2518 15.791 14.2614C15.7965 14.281 15.8021 14.31 15.8021 14.3459H14.8021C14.8021 14.4831 14.8449 14.5931 14.8781 14.6628C14.9094 14.7284 14.9499 14.7926 14.9735 14.8308L15.8241 14.3051ZM15.9618 14.5473C15.9101 14.4438 15.8587 14.3611 15.8241 14.3051L14.9735 14.8308C15.0082 14.887 15.038 14.9356 15.0674 14.9945L15.9618 14.5473ZM14.8771 16.0146C15.2278 16.0146 15.5363 15.8762 15.7457 15.6145C15.9431 15.3677 16.0146 15.0596 16.0146 14.7709H15.0146C15.0146 14.9071 14.9799 14.9709 14.9648 14.9898C14.9587 14.9975 14.9539 15.0008 14.9477 15.0037C14.9408 15.0068 14.9201 15.0146 14.8771 15.0146V16.0146ZM14.7709 16.0146H14.8771V15.0146H14.7709V16.0146ZM13.9923 15.6557C14.0949 15.7583 14.2241 15.8401 14.3348 15.8954C14.4297 15.9429 14.5964 16.0146 14.7709 16.0146V15.0146C14.7974 15.0146 14.8151 15.0177 14.8209 15.0189C14.8277 15.0202 14.8296 15.021 14.8262 15.0199C14.8189 15.0176 14.8033 15.0117 14.782 15.001C14.7613 14.9906 14.7409 14.9787 14.7238 14.967C14.7057 14.9547 14.6984 14.9476 14.6994 14.9486L13.9923 15.6557ZM10.2736 11.9369L13.9923 15.6557L14.6994 14.9486L10.9807 11.2298L10.2736 11.9369ZM2.55628 11.972C4.97511 13.9301 8.41962 13.9211 10.9329 11.979L10.3214 11.1877C8.15965 12.8582 5.22916 12.8492 3.18548 11.1948L2.55628 11.972ZM1.5242 2.55854C-0.772218 5.42906 -0.314702 9.67523 2.55854 11.9738L3.18323 11.1929C0.743969 9.24154 0.351485 5.62521 2.30507 3.18323L1.5242 2.55854ZM10.9395 1.5242C8.06896 -0.772218 3.82279 -0.314702 1.5242 2.55854L2.30507 3.18323C4.25648 0.743969 7.87281 0.351485 10.3148 2.30507L10.9395 1.5242ZM11.9738 10.9395C14.2702 8.06896 13.8127 3.82279 10.9395 1.5242L10.3148 2.30507C12.754 4.25648 13.1465 7.87281 11.1929 10.3148L11.9738 10.9395ZM11.0834 6.69588C11.0834 9.07599 9.18224 10.9771 6.80213 10.9771V11.9771C9.73453 11.9771 12.0834 9.62827 12.0834 6.69588H11.0834ZM6.80213 2.41463C9.18224 2.41463 11.0834 4.31578 11.0834 6.69588H12.0834C12.0834 3.76349 9.73453 1.41463 6.80213 1.41463V2.41463ZM2.52088 6.69588C2.52088 4.31578 4.42203 2.41463 6.80213 2.41463V1.41463C3.86974 1.41463 1.52088 3.76349 1.52088 6.69588H2.52088ZM6.80213 10.9771C4.42203 10.9771 2.52088 9.07599 2.52088 6.69588H1.52088C1.52088 9.62827 3.86974 11.9771 6.80213 11.9771V10.9771Z" fill="#666666" mask="url(#path-1-outside-1)"/>
</svg>
