<svg width="20" height="20" fill="none" xmlns="http://www.w3.org/2000/svg"><path d="M10 13.333a2.5 2.5 0 0 1-2.5-2.5c0-.933.508-1.75 1.25-2.175l8.091-4.683-4.608 7.983A2.505 2.505 0 0 1 10 13.333ZM10 2.5c1.508 0 2.916.417 4.142 1.1l-1.75 1.008A6.664 6.664 0 0 0 10 4.167a6.667 6.667 0 0 0-6.667 6.666 6.61 6.61 0 0 0 1.95 4.709h.008a.83.83 0 0 1 0 1.175.848.848 0 0 1-1.183.008A8.333 8.333 0 0 1 10 2.5Zm8.333 8.333c0 2.3-.933 4.384-2.441 5.892a.838.838 0 0 1-1.175-.008.83.83 0 0 1 0-1.175 6.625 6.625 0 0 0 1.95-4.709c0-.833-.159-1.666-.45-2.416l1.008-1.75c.691 1.25 1.108 2.65 1.108 4.166Z" fill="#fff"/></svg>