<svg xmlns="http://www.w3.org/2000/svg" width="24" height="24" viewBox="0 0 24 24"><path fill="#6A6D6F" fill-rule="nonzero" d="M21.825 10.371l-.002-.001a.735.735 0 0 0-.008-.008l-.002-.002-.004-.004-.002-.002h-.001a.011.011 0 0 1-.001-.002l-.002-.001-.001-.001-.001-.001-.002-.002-.001-.001-3.353-2.9v-4.86A.586.586 0 0 0 17.86 2H6.141a.586.586 0 0 0-.586.586v4.86l-3.352 2.9-.002.001-.001.001a.04.04 0 0 1-.002.002l-.002.002-.002.001v.001l-.003.002-.004.004-.002.002a.719.719 0 0 0-.008.008l-.001.001a.585.585 0 0 0-.176.417v9.454A1.76 1.76 0 0 0 3.758 22h16.484c.97 0 1.758-.79 1.758-1.758V10.79v-.002a.585.585 0 0 0-.175-.417zm-3.38-1.376l2.075 1.795-2.075 1.804v-3.6zM6.727 3.172h10.546v10.44l-1.927 1.676-1.036-.913a3.52 3.52 0 0 0-4.621.002l-1.035.911-1.927-1.676V3.172zM5.555 8.995v3.599L3.48 10.79l2.075-1.795zM3.172 20.119v-8.044l4.595 3.995-4.595 4.05zm.968.71l6.322-5.572a2.342 2.342 0 0 1 3.074-.001l6.324 5.572H4.14zm16.688-.71l-4.595-4.05 4.595-3.994v8.044z"/></svg>