<svg width="42" height="42" fill="none" xmlns="http://www.w3.org/2000/svg"><g clip-path="url(#a)"><path d="M40.595.098H1.405C.686.098.1.683.1 1.404V6.63c0 .72.585 1.306 1.306 1.306h39.19c.72 0 1.306-.585 1.306-1.306V1.404c0-.72-.586-1.306-1.307-1.306Z" fill="#353535"/><path d="M2.712 10.549v30.045a1.309 1.309 0 0 0 1.954 1.136l8.442-4.825 7.166 4.776c.439.29 1.011.29 1.45 0l7.166-4.776 8.442 4.825a1.315 1.315 0 0 0 1.306-.005c.403-.235.65-.663.65-1.131V10.549H2.713Z" fill="#8ca3a6" class="fill-color-primary"/><path d="M19.693 31.45H9.243a1.307 1.307 0 0 1 0-2.613h10.45a1.307 1.307 0 0 1 0 2.613Zm0-7.838H9.243a1.307 1.307 0 0 1 0-2.613h10.45a1.307 1.307 0 0 1 0 2.613Zm0-7.838H9.243a1.307 1.307 0 0 1 0-2.613h10.45a1.307 1.307 0 0 1 0 2.613Zm10.45 15.676h-2.612a1.307 1.307 0 0 1 0-2.613h2.613a1.307 1.307 0 0 1 0 2.613Zm0-7.838h-2.612a1.307 1.307 0 0 1 0-2.613h2.613a1.307 1.307 0 0 1 0 2.613Zm0-7.838h-2.612a1.307 1.307 0 0 1 0-2.613h2.613a1.307 1.307 0 0 1 0 2.613Z" fill="#fff"/></g><defs><clipPath id="a"><path fill="#fff" transform="translate(.098 .098)" d="M0 0h41.804v41.804H0z"/></clipPath></defs></svg>