<svg width="49" height="49" viewBox="0 0 49 49" fill="none" xmlns="http://www.w3.org/2000/svg">
<rect x="0.5" y="0.5" width="48" height="48" rx="7" fill="#F5F5F5"/>
<path d="M23.667 28.6667V20.3333H17.8337V28.6667H23.667ZM23.667 17C24.109 17 24.5329 17.1756 24.8455 17.4882C25.1581 17.8007 25.3337 18.2246 25.3337 18.6667V30.3333C25.3337 30.7754 25.1581 31.1993 24.8455 31.5118C24.5329 31.8244 24.109 32 23.667 32H17.8337C16.9087 32 16.167 31.25 16.167 30.3333V18.6667C16.167 18.2246 16.3426 17.8007 16.6551 17.4882C16.9677 17.1756 17.3916 17 17.8337 17H23.667ZM28.2503 17H32.417C32.7485 17 33.0665 17.1317 33.3009 17.3661C33.5353 17.6005 33.667 17.9185 33.667 18.25V20.75C33.667 21.0815 33.5353 21.3995 33.3009 21.6339C33.0665 21.8683 32.7485 22 32.417 22H29.5003L27.0003 24.5V22V18.25C27.0003 17.9185 27.132 17.6005 27.3664 17.3661C27.6009 17.1317 27.9188 17 28.2503 17Z" fill="#315EFD"/>
</svg>
