<svg width="82" height="82" viewBox="0 0 82 82" fill="none" xmlns="http://www.w3.org/2000/svg">
<rect width="82" height="82" rx="41" fill="url(#paint0_linear_106_4297)"/>
<path fill-rule="evenodd" clip-rule="evenodd" d="M57.1699 27.8301H22.31C21.68 27.8301 20.84 28.2501 20.42 28.6701C20.42 29.0901 20.21 29.3001 20 29.7201C20 29.9301 20 30.1401 20 30.3501V57.65C20 59.12 21.05 60.17 22.31 60.17H57.1699C58.4299 60.17 59.4799 59.12 59.4799 57.65V50.7201H45.4099C43.0999 50.7201 41.4199 48.8301 41.4199 46.5201V41.2701C41.4199 40.2201 41.8399 39.1701 42.4699 38.3301C43.5199 37.4901 44.5699 37.0701 45.6199 37.0701H59.6899V30.3501C59.6899 29.0901 58.6399 27.8301 57.1699 27.8301Z" fill="#305DFC"/>
<path fill-rule="evenodd" clip-rule="evenodd" d="M29.8701 26.1503L46.67 21.3203L45.83 19.4303C45.2 18.1704 43.94 17.7504 42.68 18.3804L27.5601 26.1503H29.8701ZM51.7106 21.5304C51.5006 21.5304 51.2906 21.5304 51.0806 21.5304L47.0906 22.5803L35.1207 26.1503H54.6506L53.8106 23.4203C53.8106 22.3704 52.7606 21.5304 51.7106 21.5304ZM61.1601 39.38C60.9501 39.17 60.7401 38.96 60.3201 38.96C60.1101 38.96 59.9001 38.75 59.4801 38.75H45.4101C44.1501 38.75 43.1002 39.8 43.1002 41.27V46.73C43.1002 47.99 44.1501 49.25 45.4101 49.25H59.4801C59.6901 49.25 59.9001 49.25 60.3201 49.04C60.5301 48.83 60.9501 48.83 61.1601 48.62C61.5801 48.2 62.0001 47.57 62.0001 46.73V41.27C62.0001 40.43 61.7901 39.8 61.1601 39.38ZM50.4504 44.4196C50.4504 45.0496 50.0304 45.6796 49.1904 45.6796H48.3504C47.7204 45.6796 47.0904 45.0496 47.0904 44.4196V43.5796C47.0904 43.1596 47.3004 42.9496 47.5104 42.5296C47.7204 42.3196 47.9304 42.3196 48.1404 42.3196H49.4004C50.0304 42.3196 50.6604 42.9496 50.6604 43.5796V44.4196C50.4504 44.4196 50.4504 44.4196 50.4504 44.4196Z" fill="#2E3242"/>
<defs>
<linearGradient id="paint0_linear_106_4297" x1="0" y1="0" x2="82" y2="82" gradientUnits="userSpaceOnUse">
<stop stop-color="#E5EAF8"/>
<stop offset="1" stop-color="#F9FAFF" stop-opacity="0"/>
</linearGradient>
</defs>
</svg>
