<svg xmlns="http://www.w3.org/2000/svg" width="220" height="205" fill="none" viewBox="0 0 487 449"><path fill="url(#paint0_radial)" fill-rule="evenodd" d="M152.344 389.605C280.862 412.052 360.924 395.676 399.187 359.226C423.412 336.148 450.239 320.504 469.615 285.807C506.904 219.031 470 89.9158 470 89.9158C422 29.8287 333.279 -4.03719 251.773 1.35007C119.999 10.0599 63.1998 19.9168 19.9998 71.7196C-23.2002 123.522 19.9998 280.375 19.9998 280.375C19.9998 280.375 23.827 367.158 152.344 389.605Z" clip-rule="evenodd" opacity=".1"/><g filter="url(#filter0_f)"><path fill="#1A438F" fill-opacity=".312" fill-rule="evenodd" d="M239.895 318.659C297.451 320.989 318.747 313.24 336.133 301.33C353.519 289.42 293.623 280.88 241.184 280.88C188.744 280.88 135.306 289.127 146.234 301.33C157.162 313.533 182.34 316.329 239.895 318.659Z" clip-rule="evenodd" style="mix-blend-mode:multiply"/></g><g filter="url(#filter1_d)"><path fill="url(#paint1_linear)" fill-rule="evenodd" d="M244.999 298.898C311.605 298.898 365.599 245.118 365.599 178.778C365.599 112.437 311.605 58.6575 244.999 58.6575C178.394 58.6575 124.399 112.437 124.399 178.778C124.399 245.118 178.394 298.898 244.999 298.898Z" clip-rule="evenodd"/></g><g filter="url(#filter2_d)" opacity=".174"><rect width="19.208" height="19.211" fill="url(#paint2_linear)" rx="9.604" transform="matrix(-0.765728 0.643165 0.64241 0.766361 71.9082 205.204)"/></g><g filter="url(#filter3_d)"><rect width="19.208" height="19.211" fill="url(#paint3_radial)" rx="9.604" transform="matrix(-0.765727 0.643165 0.64241 0.766361 121.108 51.4504)"/></g><g filter="url(#filter4_d)"><path fill="url(#paint4_radial)" d="M182.747 348.736C176.358 341.115 165.003 340.119 157.388 346.516C149.773 352.912 148.78 364.278 155.169 371.9C161.558 379.522 172.913 380.517 180.528 374.121C188.144 367.724 189.136 356.358 182.747 348.736Z"/></g><g filter="url(#filter5_d)"><rect width="15.607" height="15.609" fill="url(#paint5_radial)" rx="7.803" transform="matrix(0.765728 0.643165 -0.64241 0.766361 421.228 169.168)"/></g><g filter="url(#filter6_d)"><rect width="24.427" height="24.432" fill="url(#paint6_radial)" fill-opacity=".4" rx="12.214" transform="matrix(0.765728 0.643165 -0.642411 0.766361 386.095 298.898)"/></g><g filter="url(#filter7_d)" opacity=".554"><rect width="6.002" height="6.004" fill="url(#paint7_radial)" rx="3.001" transform="matrix(0.765728 0.643164 -0.642411 0.766361 365.856 64.6636)"/></g><g filter="url(#filter8_d)"><path fill="#fff" d="M244.991 261.609C290.36 261.609 327.138 224.793 327.138 179.379C327.138 133.964 290.36 97.1485 244.991 97.1485C199.622 97.1485 162.843 133.964 162.843 179.379C162.843 224.793 199.622 261.609 244.991 261.609ZM244.991 264.063C198.267 264.063 160.391 226.149 160.391 179.379C160.391 132.608 198.267 94.6938 244.991 94.6938C291.714 94.6938 329.591 132.608 329.591 179.379C329.591 226.149 291.714 264.063 244.991 264.063Z"/></g><g filter="url(#filter9_dd)"><path fill="#DDE5FF" d="M244.995 259.258C289.723 259.258 325.982 223.226 325.982 178.778C325.982 134.33 289.723 98.2974 244.995 98.2974C200.267 98.2974 164.008 134.33 164.008 178.778C164.008 223.226 200.267 259.258 244.995 259.258ZM244.995 261.661C198.932 261.661 161.591 224.553 161.591 178.778C161.591 133.003 198.932 95.895 244.995 95.895C291.058 95.895 328.4 133.003 328.4 178.778C328.4 224.553 291.058 261.661 244.995 261.661Z"/></g><path fill="url(#paint8_linear)" d="M315.188 135.879C337.426 169.638 330.815 215.909 298.453 243.063C279.451 259.009 254.87 265.504 231.181 261.435C212.656 258.252 195.898 248.797 183.667 234.22C182.943 233.357 183.021 232.556 183.902 231.817C184.783 231.077 185.586 231.139 186.31 232.002C198.03 245.969 214.08 255.025 231.83 258.074C254.529 261.974 278.073 255.752 296.281 240.474C327.098 214.615 333.541 170.661 312.695 138.371L243.299 207.721C242.269 208.96 240.619 209.58 238.97 209.58H238.764C237.115 209.58 235.671 208.754 234.434 207.514L203.3 173.633C201.032 171.154 201.239 167.229 203.713 164.957C206.187 162.684 210.105 162.891 212.373 165.37L239.177 194.499L313.402 120.334C315.67 117.855 319.588 117.855 322.062 120.334C324.536 122.606 324.536 126.531 322.062 129.01L315.188 135.879Z"/><defs><filter id="filter0_f" width="270.512" height="114.305" x="106.744" y="242.824" color-interpolation-filters="sRGB" filterUnits="userSpaceOnUse"><feFlood flood-opacity="0" result="BackgroundImageFix"/><feBlend in="SourceGraphic" in2="BackgroundImageFix" mode="normal" result="shape"/><feGaussianBlur result="effect1_foregroundBlur" stdDeviation="19.028"/></filter><filter id="filter1_d" width="249.2" height="248.24" x="120.399" y="58.657" color-interpolation-filters="sRGB" filterUnits="userSpaceOnUse"><feFlood flood-opacity="0" result="BackgroundImageFix"/><feColorMatrix in="SourceAlpha" type="matrix" values="0 0 0 0 0 0 0 0 0 0 0 0 0 0 0 0 0 0 127 0"/><feOffset dy="4"/><feGaussianBlur stdDeviation="2"/><feColorMatrix type="matrix" values="0 0 0 0 1 0 0 0 0 1 0 0 0 0 1 0 0 0 0.1 0"/><feBlend in2="BackgroundImageFix" mode="normal" result="effect1_dropShadow"/><feBlend in="SourceGraphic" in2="effect1_dropShadow" mode="normal" result="shape"/></filter><filter id="filter2_d" width="129.2" height="129.219" x="6.125" y="169.133" color-interpolation-filters="sRGB" filterUnits="userSpaceOnUse"><feFlood flood-opacity="0" result="BackgroundImageFix"/><feColorMatrix in="SourceAlpha" type="matrix" values="0 0 0 0 0 0 0 0 0 0 0 0 0 0 0 0 0 0 127 0"/><feOffset dy="15"/><feGaussianBlur stdDeviation="27.5"/><feColorMatrix type="matrix" values="0 0 0 0 0.615686 0 0 0 0 0.639216 0 0 0 0 0.705882 0 0 0 0.2 0"/><feBlend in2="BackgroundImageFix" mode="normal" result="effect1_dropShadow"/><feBlend in="SourceGraphic" in2="effect1_dropShadow" mode="normal" result="shape"/></filter><filter id="filter3_d" width="129.2" height="129.219" x="55.325" y="15.379" color-interpolation-filters="sRGB" filterUnits="userSpaceOnUse"><feFlood flood-opacity="0" result="BackgroundImageFix"/><feColorMatrix in="SourceAlpha" type="matrix" values="0 0 0 0 0 0 0 0 0 0 0 0 0 0 0 0 0 0 127 0"/><feOffset dy="15"/><feGaussianBlur stdDeviation="27.5"/><feColorMatrix type="matrix" values="0 0 0 0 0.615686 0 0 0 0 0.639216 0 0 0 0 0.705882 0 0 0 0.2 0"/><feBlend in2="BackgroundImageFix" mode="normal" result="effect1_dropShadow"/><feBlend in="SourceGraphic" in2="effect1_dropShadow" mode="normal" result="shape"/></filter><filter id="filter4_d" width="146" height="146.036" x="95.958" y="302.3" color-interpolation-filters="sRGB" filterUnits="userSpaceOnUse"><feFlood flood-opacity="0" result="BackgroundImageFix"/><feColorMatrix in="SourceAlpha" type="matrix" values="0 0 0 0 0 0 0 0 0 0 0 0 0 0 0 0 0 0 127 0"/><feOffset dy="15"/><feGaussianBlur stdDeviation="27.5"/><feColorMatrix type="matrix" values="0 0 0 0 0.615686 0 0 0 0 0.639216 0 0 0 0 0.705882 0 0 0 0.2 0"/><feBlend in2="BackgroundImageFix" mode="normal" result="effect1_dropShadow"/><feBlend in="SourceGraphic" in2="effect1_dropShadow" mode="normal" result="shape"/></filter><filter id="filter5_d" width="125.6" height="125.616" x="359.389" y="132.36" color-interpolation-filters="sRGB" filterUnits="userSpaceOnUse"><feFlood flood-opacity="0" result="BackgroundImageFix"/><feColorMatrix in="SourceAlpha" type="matrix" values="0 0 0 0 0 0 0 0 0 0 0 0 0 0 0 0 0 0 127 0"/><feOffset dy="15"/><feGaussianBlur stdDeviation="27.5"/><feColorMatrix type="matrix" values="0 0 0 0 0.615686 0 0 0 0 0.639216 0 0 0 0 0.705882 0 0 0 0.2 0"/><feBlend in2="BackgroundImageFix" mode="normal" result="effect1_dropShadow"/><feBlend in="SourceGraphic" in2="effect1_dropShadow" mode="normal" result="shape"/></filter><filter id="filter6_d" width="134.417" height="134.442" x="320.391" y="263.894" color-interpolation-filters="sRGB" filterUnits="userSpaceOnUse"><feFlood flood-opacity="0" result="BackgroundImageFix"/><feColorMatrix in="SourceAlpha" type="matrix" values="0 0 0 0 0 0 0 0 0 0 0 0 0 0 0 0 0 0 127 0"/><feOffset dy="15"/><feGaussianBlur stdDeviation="27.5"/><feColorMatrix type="matrix" values="0 0 0 0 0.615686 0 0 0 0 0.639216 0 0 0 0 0.705882 0 0 0 0.2 0"/><feBlend in2="BackgroundImageFix" mode="normal" result="effect1_dropShadow"/><feBlend in="SourceGraphic" in2="effect1_dropShadow" mode="normal" result="shape"/></filter><filter id="filter7_d" width="116" height="116.006" x="308.227" y="25.891" color-interpolation-filters="sRGB" filterUnits="userSpaceOnUse"><feFlood flood-opacity="0" result="BackgroundImageFix"/><feColorMatrix in="SourceAlpha" type="matrix" values="0 0 0 0 0 0 0 0 0 0 0 0 0 0 0 0 0 0 127 0"/><feOffset dy="15"/><feGaussianBlur stdDeviation="27.5"/><feColorMatrix type="matrix" values="0 0 0 0 0.615686 0 0 0 0 0.639216 0 0 0 0 0.705882 0 0 0 0.2 0"/><feBlend in2="BackgroundImageFix" mode="normal" result="effect1_dropShadow"/><feBlend in="SourceGraphic" in2="effect1_dropShadow" mode="normal" result="shape"/></filter><filter id="filter8_d" width="209.2" height="209.369" x="140.391" y="66.694" color-interpolation-filters="sRGB" filterUnits="userSpaceOnUse"><feFlood flood-opacity="0" result="BackgroundImageFix"/><feColorMatrix in="SourceAlpha" type="matrix" values="0 0 0 0 0 0 0 0 0 0 0 0 0 0 0 0 0 0 127 0"/><feOffset dy="-8"/><feGaussianBlur stdDeviation="10"/><feColorMatrix type="matrix" values="0 0 0 0 1 0 0 0 0 1 0 0 0 0 1 0 0 0 1 0"/><feBlend in2="BackgroundImageFix" mode="lighten" result="effect1_dropShadow"/><feBlend in="SourceGraphic" in2="effect1_dropShadow" mode="normal" result="shape"/></filter><filter id="filter9_dd" width="186.809" height="194.766" x="151.591" y="80.895" color-interpolation-filters="sRGB" filterUnits="userSpaceOnUse"><feFlood flood-opacity="0" result="BackgroundImageFix"/><feColorMatrix in="SourceAlpha" type="matrix" values="0 0 0 0 0 0 0 0 0 0 0 0 0 0 0 0 0 0 127 0"/><feOffset dy="-5"/><feGaussianBlur stdDeviation="5"/><feColorMatrix type="matrix" values="0 0 0 0 0.945098 0 0 0 0 0.952941 0 0 0 0 0.968627 0 0 0 1 0"/><feBlend in2="BackgroundImageFix" mode="normal" result="effect1_dropShadow"/><feColorMatrix in="SourceAlpha" type="matrix" values="0 0 0 0 0 0 0 0 0 0 0 0 0 0 0 0 0 0 127 0"/><feOffset dy="4"/><feGaussianBlur stdDeviation="5"/><feColorMatrix type="matrix" values="0 0 0 0 0.192157 0 0 0 0 0.368627 0 0 0 0 0.992157 0 0 0 0.2 0"/><feBlend in2="effect1_dropShadow" mode="normal" result="effect2_dropShadow"/><feBlend in="SourceGraphic" in2="effect2_dropShadow" mode="normal" result="shape"/></filter><radialGradient id="paint0_radial" cx="0" cy="0" r="1" gradientTransform="translate(245 289.347) rotate(-90) scale(279.946 299.58)" gradientUnits="userSpaceOnUse"><stop stop-color="#fff" stop-opacity=".262"/><stop offset="1" stop-color="#80869F" stop-opacity=".19"/></radialGradient><linearGradient id="paint1_linear" x1="353.599" x2="137.519" y1="103.102" y2="206.237" gradientUnits="userSpaceOnUse"><stop stop-color="#fff" stop-opacity=".404"/><stop offset=".119" stop-color="#EEEFF8" stop-opacity=".385"/><stop offset=".206" stop-color="#DEE5FF" stop-opacity=".371"/><stop offset=".765" stop-color="#fff" stop-opacity=".282"/><stop offset="1" stop-color="#E3EAFF" stop-opacity=".245"/></linearGradient><linearGradient id="paint2_linear" x1="-10.129" x2="9.334" y1="9.185" y2="28.94" gradientUnits="userSpaceOnUse"><stop stop-color="#2B2E34"/><stop offset="1" stop-color="#2B87DA"/></linearGradient><radialGradient id="paint3_radial" cx="0" cy="0" r="1" gradientTransform="translate(-0.252004 -0.546951) rotate(90) scale(19.7582 19.7548)" gradientUnits="userSpaceOnUse"><stop stop-color="#B9BDC7"/><stop offset="1" stop-color="#497DFC"/></radialGradient><radialGradient id="paint4_radial" cx="0" cy="0" r="1" gradientTransform="translate(141.769 351.049) rotate(79.2845) scale(36.8465 36.8121)" gradientUnits="userSpaceOnUse"><stop stop-color="#9FBDFF"/><stop offset="1" stop-color="#056FF8"/></radialGradient><radialGradient id="paint5_radial" cx="0" cy="0" r="1" gradientTransform="translate(7.80323 5.07506) rotate(60.7303) scale(15.9601 15.9586)" gradientUnits="userSpaceOnUse"><stop stop-color="#9FBDFF"/><stop offset="1" stop-color="#056FF8"/></radialGradient><radialGradient id="paint6_radial" cx="0" cy="0" r="1" gradientTransform="translate(12.2137 7.94352) rotate(60.7303) scale(24.9808 24.9786)" gradientUnits="userSpaceOnUse"><stop stop-color="#9FBDFF"/><stop offset="1" stop-color="#056FF8"/></radialGradient><radialGradient id="paint7_radial" cx="0" cy="0" r="1" gradientTransform="translate(3.00124 1.95195) rotate(60.7303) scale(6.1385 6.13794)" gradientUnits="userSpaceOnUse"><stop stop-color="#9FBDFF"/><stop offset="1" stop-color="#056FF8"/></radialGradient><linearGradient id="paint8_linear" x1="255.199" x2="207.117" y1="250.85" y2="133.166" gradientUnits="userSpaceOnUse"><stop stop-color="#315EFD"/><stop offset="1" stop-color="#6789FF"/></linearGradient></defs></svg>