<svg width="82" height="82" viewBox="0 0 82 82" fill="none" xmlns="http://www.w3.org/2000/svg">
<rect width="82" height="82" rx="41" fill="url(#paint0_linear_248_6154)"/>
<rect x="22.0654" y="20" width="31.301" height="42" rx="1" fill="#1C45D3"/>
<path d="M52.3664 20H24.0579C23.2352 20 22.7644 20.938 23.256 21.5976L51.5646 59.5823C52.1398 60.3541 53.3664 59.9473 53.3664 58.9847V21C53.3664 20.4477 52.9187 20 52.3664 20Z" fill="url(#paint1_linear_248_6154)"/>
<path d="M35.9365 28.0771C35.9365 28.2913 36.0225 28.4967 36.1755 28.6482C36.3285 28.7997 36.5361 28.8848 36.7525 28.8848H40.8323C41.0487 28.8848 41.2563 28.7997 41.4093 28.6482C41.5623 28.4967 41.6483 28.2913 41.6483 28.0771C41.6483 27.8629 41.5623 27.6574 41.4093 27.5059C41.2563 27.3545 41.0487 27.2694 40.8323 27.2694H36.7525C36.5361 27.2694 36.3285 27.3545 36.1755 27.5059C36.0225 27.6574 35.9365 27.8629 35.9365 28.0771ZM48.176 53.9232C48.176 53.709 48.0901 53.5036 47.937 53.3521C47.784 53.2006 47.5765 53.1155 47.3601 53.1155H36.7525C36.5361 53.1155 36.3285 53.2006 36.1755 53.3521C36.0225 53.5036 35.9365 53.709 35.9365 53.9232C35.9365 54.1374 36.0225 54.3429 36.1755 54.4943C36.3285 54.6458 36.5361 54.7309 36.7525 54.7309H47.3601C47.5765 54.7309 47.784 54.6458 47.937 54.4943C48.0901 54.3429 48.176 54.1374 48.176 53.9232ZM36.7525 51.5001H40.8323C41.0487 51.5001 41.2563 51.415 41.4093 51.2636C41.5623 51.1121 41.6483 50.9067 41.6483 50.6924C41.6483 50.4782 41.5623 50.2728 41.4093 50.1213C41.2563 49.9699 41.0487 49.8848 40.8323 49.8848H36.7525C36.5361 49.8848 36.3285 49.9699 36.1755 50.1213C36.0225 50.2728 35.9365 50.4782 35.9365 50.6924C35.9365 50.9067 36.0225 51.1121 36.1755 51.2636C36.3285 51.415 36.5361 51.5001 36.7525 51.5001ZM48.176 42.6155C48.176 42.4013 48.0901 42.1959 47.937 42.0444C47.784 41.8929 47.5765 41.8078 47.3601 41.8078H36.7525C36.5361 41.8078 36.3285 41.8929 36.1755 42.0444C36.0225 42.1959 35.9365 42.4013 35.9365 42.6155C35.9365 42.8297 36.0225 43.0352 36.1755 43.1867C36.3285 43.3381 36.5361 43.4232 36.7525 43.4232H47.3601C47.5765 43.4232 47.784 43.3381 47.937 43.1867C48.0901 43.0352 48.176 42.8297 48.176 42.6155ZM36.7525 40.1925H40.8323C41.0487 40.1925 41.2563 40.1074 41.4093 39.9559C41.5623 39.8044 41.6483 39.599 41.6483 39.3848C41.6483 39.1705 41.5623 38.9651 41.4093 38.8136C41.2563 38.6622 41.0487 38.5771 40.8323 38.5771H36.7525C36.5361 38.5771 36.3285 38.6622 36.1755 38.8136C36.0225 38.9651 35.9365 39.1705 35.9365 39.3848C35.9365 39.599 36.0225 39.8044 36.1755 39.9559C36.3285 40.1074 36.5361 40.1925 36.7525 40.1925ZM48.176 31.3078C48.176 31.0936 48.0901 30.8882 47.937 30.7367C47.784 30.5852 47.5765 30.5001 47.3601 30.5001H36.7525C36.5361 30.5001 36.3285 30.5852 36.1755 30.7367C36.0225 30.8882 35.9365 31.0936 35.9365 31.3078C35.9365 31.5221 36.0225 31.7275 36.1755 31.879C36.3285 32.0304 36.5361 32.1155 36.7525 32.1155H47.3601C47.5765 32.1155 47.784 32.0304 47.937 31.879C48.0901 31.7275 48.176 31.5221 48.176 31.3078Z" fill="white"/>
<path d="M31.83 31.7314L28.5661 31.7314L28.5661 28.5006L31.83 28.5006L31.83 31.7314ZM26.9342 32.5391C26.9342 32.7533 27.0201 32.9587 27.1732 33.1102C27.3262 33.2617 27.5337 33.3468 27.7501 33.3468L32.6459 33.3468C32.8624 33.3468 33.0699 33.2617 33.2229 33.1102C33.3759 32.9587 33.4619 32.7533 33.4619 32.5391L33.4619 27.6929C33.4619 27.4787 33.3759 27.2733 33.2229 27.1218C33.0699 26.9703 32.8624 26.8852 32.6459 26.8852L27.7501 26.8852C27.5337 26.8852 27.3262 26.9703 27.1732 27.1218C27.0201 27.2733 26.9342 27.4787 26.9342 27.6929L26.9342 32.5391Z" fill="#E6ECFF"/>
<path d="M31.8573 42.9068L28.5935 42.9068L28.5935 39.6761L31.8573 39.6761L31.8573 42.9068ZM26.9615 43.7145C26.9615 43.9287 27.0475 44.1342 27.2005 44.2857C27.3535 44.4371 27.5611 44.5222 27.7775 44.5222L32.6733 44.5222C32.8897 44.5222 33.0972 44.4371 33.2503 44.2857C33.4033 44.1342 33.4893 43.9287 33.4893 43.7145L33.4893 38.8684C33.4893 38.6542 33.4033 38.4487 33.2503 38.2972C33.0972 38.1458 32.8897 38.0607 32.6733 38.0607L27.7775 38.0607C27.5611 38.0607 27.3535 38.1458 27.2005 38.2972C27.0475 38.4487 26.9615 38.6542 26.9615 38.8684L26.9615 43.7145Z" fill="#C4D1FF"/>
<path d="M31.8573 53.9234L28.5935 53.9234L28.5935 50.6926L31.8573 50.6926L31.8573 53.9234ZM26.9615 54.7311C26.9615 54.9453 27.0475 55.1507 27.2005 55.3022C27.3535 55.4537 27.5611 55.5388 27.7775 55.5388L32.6733 55.5388C32.8897 55.5388 33.0972 55.4537 33.2503 55.3022C33.4033 55.1507 33.4893 54.9453 33.4893 54.7311L33.4893 49.8849C33.4893 49.6707 33.4033 49.4653 33.2503 49.3138C33.0972 49.1623 32.8897 49.0772 32.6733 49.0772L27.7775 49.0772C27.5611 49.0772 27.3535 49.1623 27.2005 49.3138C27.0475 49.4653 26.9615 49.6707 26.9615 49.8849L26.9615 54.7311Z" fill="#9CB8F8"/>
<path d="M55.0381 57.0385C55.0381 57.2527 55.1241 57.4582 55.2771 57.6096C55.4301 57.7611 55.6376 57.8462 55.8541 57.8462H59.1179C59.3343 57.8462 59.5419 57.7611 59.6949 57.6096C59.8479 57.4582 59.9339 57.2527 59.9339 57.0385V54.6154H55.0381V57.0385ZM59.8478 31.2151L58.2159 27.9843C58.1405 27.8592 58.0337 27.7555 57.9057 27.6836C57.7778 27.6116 57.6331 27.5738 57.4859 27.5738C57.3388 27.5738 57.1941 27.6116 57.0662 27.6836C56.9382 27.7555 56.8314 27.8592 56.756 27.9843L55.1241 31.2151C55.0675 31.3273 55.0381 31.451 55.0381 31.5764V53.0001H59.9339V31.5764C59.9339 31.451 59.9044 31.3273 59.8478 31.2151Z" fill="#305DFC"/>
<defs>
<linearGradient id="paint0_linear_248_6154" x1="0" y1="0" x2="82" y2="82" gradientUnits="userSpaceOnUse">
<stop stop-color="#E5EAF8"/>
<stop offset="1" stop-color="#F9FAFF" stop-opacity="0"/>
</linearGradient>
<linearGradient id="paint1_linear_248_6154" x1="37.7159" y1="20" x2="37.7159" y2="62" gradientUnits="userSpaceOnUse">
<stop stop-color="#0A33C1"/>
<stop offset="1" stop-color="#0A33C1" stop-opacity="0"/>
</linearGradient>
</defs>
</svg>
