<svg width="82" height="82" fill="none" xmlns="http://www.w3.org/2000/svg"><rect width="82" height="82" rx="41" fill="url(#a)"/><path d="m33.138 31.085 1.063.4a.61.61 0 0 1 .4.605l-.046.727c-.443 6.964 2.709 13.626 8.298 17.837.23.173.316.476.195.733-1.543 3.26-4.066 6.069-7.34 7.998l-2.24 1.32a2.141 2.141 0 0 1-2.167 0l-2.24-1.32c-5.98-3.525-9.456-9.984-9.025-16.77l.384-6.05a2.039 2.039 0 0 1 1.334-1.77l9.877-3.71a2.146 2.146 0 0 1 1.507 0Z" fill="#4A4C57"/><path opacity=".7" d="M32.377 61a2.134 2.134 0 0 1-1.076-.294l-2.24-1.32c-5.98-3.526-9.457-9.985-9.025-16.772l.384-6.048a2.044 2.044 0 0 1 1.333-1.77l9.878-3.711c.24-.09.493-.136.746-.137V61Z" fill="url(#b)"/><path d="M37.651 26.618a2.039 2.039 0 0 1 1.333-1.77l9.878-3.711a2.146 2.146 0 0 1 1.507 0l9.877 3.71a2.044 2.044 0 0 1 1.333 1.77l.385 6.05c.431 6.786-3.044 13.245-9.025 16.77l-2.24 1.32a2.142 2.142 0 0 1-2.167 0l-2.24-1.32c-5.98-3.525-9.456-9.984-9.025-16.77l.384-6.05Z" fill="#4C74FF"/><path d="M49.623 51.052c.373-.001.745-.1 1.076-.295l2.24-1.32c5.98-3.525 9.457-9.984 9.025-16.77l-.384-6.05a2.044 2.044 0 0 0-1.333-1.77l-9.878-3.71a2.142 2.142 0 0 0-.746-.137v30.052Z" fill="#1B4BF2"/><path d="M49.623 51.052c.373-.001.745-.1 1.076-.295l2.24-1.32c5.98-3.525 9.457-9.984 9.025-16.77l-.384-6.05a2.044 2.044 0 0 0-1.333-1.77l-9.878-3.71a2.142 2.142 0 0 0-.746-.137v30.052Z" fill="url(#c)"/><path fill-rule="evenodd" clip-rule="evenodd" d="M38.984 24.847a2.039 2.039 0 0 0-1.333 1.77l-.384 6.05c-.431 6.786 3.044 13.245 9.025 16.77l2.24 1.32a2.142 2.142 0 0 0 2.167 0l2.24-1.32c5.98-3.525 9.456-9.984 9.025-16.77l-.385-6.05a2.044 2.044 0 0 0-1.333-1.77l-9.877-3.71a2.146 2.146 0 0 0-1.507 0l-9.878 3.71Zm1.717 1.445a1.768 1.768 0 0 0-1.117 1.541L39.26 33.1c-.362 5.908 2.553 11.531 7.568 14.6l1.878 1.15a1.74 1.74 0 0 0 1.818 0l1.878-1.15c5.015-3.069 7.93-8.692 7.568-14.6l-.323-5.266a1.767 1.767 0 0 0-1.118-1.541l-8.282-3.23a1.737 1.737 0 0 0-1.264 0l-8.283 3.23Z" fill="#0A33C1"/><defs><linearGradient id="a" x1="0" y1="0" x2="82" y2="82" gradientUnits="userSpaceOnUse"><stop stop-color="#E5EAF8"/><stop offset="1" stop-color="#F9FAFF" stop-opacity="0"/></linearGradient><linearGradient id="b" x1="20" y1="61" x2="20" y2="30.948" gradientUnits="userSpaceOnUse"><stop stop-color="#909ABA"/><stop offset="1" stop-color="#AAB5CF"/></linearGradient><linearGradient id="c" x1="55.812" y1="21" x2="55.812" y2="51.052" gradientUnits="userSpaceOnUse"><stop stop-color="#22398E"/><stop offset=".661" stop-color="#315EFD" stop-opacity="0"/></linearGradient></defs></svg>