<svg width="82" height="83" fill="none" xmlns="http://www.w3.org/2000/svg"><rect y=".5" width="82" height="82" rx="41" fill="url(#a)"/><g clip-path="url(#b)"><g clip-path="url(#c)"><path d="M41 62.5c11.598 0 21-9.402 21-21s-9.402-21-21-21-21 9.402-21 21 9.402 21 21 21Z" fill="#E6ECFF"/><path opacity=".4" d="M41 62.5c11.598 0 21-9.402 21-21s-9.402-21-21-21-21 9.402-21 21 9.402 21 21 21Z" fill="url(#d)"/><path d="M59.653 30.359v20.797a20.979 20.979 0 0 1-2.556 3.83H24.903a20.958 20.958 0 0 1-2.557-3.832V30.36a2.344 2.344 0 0 1 2.343-2.344h32.62a2.344 2.344 0 0 1 2.344 2.344Z" fill="#fff"/><path opacity=".4" d="m41 44.932 14.406 10.054 1.557-4.035.354-18.689-16.14 10.123L41 44.932Z" fill="#CEE4F9"/><path d="M59.653 30.359v20.797a20.979 20.979 0 0 1-2.556 3.83h-1.691V34.877L41 44.932 26.594 34.877v20.11h-1.692a20.963 20.963 0 0 1-2.556-3.833V30.36a2.344 2.344 0 0 1 2.343-2.344h.238L41 39.233l16.073-11.218h.236a2.344 2.344 0 0 1 2.344 2.344Z" fill="#315EFD"/></g></g><defs><linearGradient id="a" x1="0" y1=".5" x2="82" y2="82.5" gradientUnits="userSpaceOnUse"><stop stop-color="#E5EAF8"/><stop offset="1" stop-color="#F9FAFF" stop-opacity="0"/></linearGradient><linearGradient id="d" x1="20.412" y1="21.1" x2="67.671" y2="55.041" gradientUnits="userSpaceOnUse"><stop stop-color="#769AF7" stop-opacity=".5"/><stop offset="1" stop-color="#769AF7" stop-opacity="0"/></linearGradient><clipPath id="b"><rect x="20" y="20.5" width="42" height="42" rx="6" fill="#fff"/></clipPath><clipPath id="c"><rect x="20" y="20.5" width="42" height="42" rx="6" fill="#fff"/></clipPath></defs></svg>