<svg xmlns="http://www.w3.org/2000/svg" xmlns:xlink="http://www.w3.org/1999/xlink" width="100%" height="100%" fill-rule="evenodd" stroke-linejoin="round" stroke-miterlimit="1.414" clip-rule="evenodd" version="1.1" viewBox="0 0 1600 1500" xml:space="preserve"><g transform="matrix(1,0,0,1,-440.163,-1067.59)"><g id="Symbol"><path fill="#000" d="M729.632,443.439C661.601,443.44 606.45,498.709 606.45,566.889C606.45,601.081 620.324,632.019 642.735,654.374C644.173,655.808 646.634,655.468 647.616,653.69C658.112,634.678 676.52,619.816 698.976,612.576C684.327,602.687 674.688,585.911 674.688,566.878C674.688,536.468 699.287,511.816 729.632,511.815C759.977,511.816 784.576,536.468 784.576,566.878C784.576,585.911 774.937,602.687 760.287,612.576C782.744,619.816 801.151,634.678 811.648,653.69C812.629,655.468 815.091,655.808 816.529,654.374C838.939,632.019 852.814,601.081 852.814,566.889C852.814,498.709 797.662,443.44 729.632,443.439Z" transform="matrix(6.48023,0,0,6.48023,-3488.02,-1805.99)"/></g></g></svg>