<svg width="108" height="109" viewBox="0 0 108 109" fill="none" xmlns="http://www.w3.org/2000/svg">
<path d="M51.6342 25.8753V56.1745L41.0908 46.4312C40.1675 45.5765 38.6697 45.5765 37.7464 46.4312C36.8231 47.286 36.8231 48.6747 37.7464 49.5295L52.3256 62.9912C53.2489 63.8459 54.7465 63.8459 55.6698 62.9912L70.249 49.5295C70.7107 49.1021 70.9405 48.5252 70.9405 47.9697C70.9405 47.4141 70.7107 46.8586 70.249 46.4312C69.3257 45.5765 67.828 45.5765 66.9047 46.4312L56.3613 56.1745V25.8753C56.3613 24.6574 55.304 23.6744 53.9978 23.6744C52.6916 23.6744 51.6342 24.6574 51.6342 25.8753Z" fill="#767676"/>
<path d="M90.6765 34.1669L90.6127 34.2519V9.3374H64.0307L54.0213 0L44.0118 9.3374H17.4298V34.0813L0 50.2991V108.462H108V50.3204L90.6765 34.1669ZM90.6127 38.8463L103.488 50.8333L90.6127 59.4231V38.8463ZM54.0213 4.76495L58.9399 9.3374H49.1027L54.0213 4.76495ZM20.9166 12.8206H87.1258V61.7524L54.0213 83.7612L20.9166 61.7524V12.8206ZM17.4298 38.8463V59.4231L4.55476 50.8333L17.4298 38.8463ZM3.50807 54.3165L32.4643 73.5901L3.50807 102.522V54.3165ZM5.96737 104.979L35.4362 75.5558L54.0213 87.9278L72.6063 75.5558L102.075 104.979H5.96737ZM104.556 102.522L75.5783 73.5901L104.556 54.3165V102.522Z" fill="#767676"/>
</svg>
