<svg width="82" height="82" viewBox="0 0 82 82" fill="none" xmlns="http://www.w3.org/2000/svg">
<rect width="82" height="82" fill="#F3F7F1"/>
<g clip-path="url(#clip0_517_24039)">
<path d="M47.226 24.7501L46.1373 23.6902L47.9903 21.7651C48.5743 21.1536 49.3246 20.7266 50.1486 20.537C50.9725 20.3473 51.834 20.4033 52.6265 20.6979L55.0132 21.5992C56.0715 22.0036 57.2268 22.0815 58.3299 21.8227L61.6611 21.0585L61.9999 22.5366L58.6688 23.3081C57.2747 23.6297 55.8164 23.5293 54.4796 23.0197L52.0858 22.1184C51.569 21.9316 51.0088 21.9004 50.4744 22.0286C49.9401 22.1567 49.455 22.4386 49.0791 22.8394L47.226 24.7501Z" fill="#191A1C"/>
<path d="M44.7891 21.9165L50.478 25.0818L53.1674 36.4741L38.9559 61.5732L20 51.0245L34.2043 25.9254L44.7891 21.9165Z" fill="#167C68"/>
<path d="M44.1545 32.0687C45.7474 32.0687 47.0386 30.7774 47.0386 29.1845C47.0386 27.5917 45.7474 26.3004 44.1545 26.3004C42.5617 26.3004 41.2704 27.5917 41.2704 29.1845C41.2704 30.7774 42.5617 32.0687 44.1545 32.0687Z" fill="#F6F9FC"/>
<path d="M37.5859 57.6652L23.9656 49.943L34.8604 30.9871L48.4806 38.7093L37.5859 57.6652Z" fill="#EDEEF0"/>
</g>
<defs>
<clipPath id="clip0_517_24039">
<rect width="42" height="42" fill="white" transform="translate(20 20)"/>
</clipPath>
</defs>
</svg>
