<svg width="111" height="109" viewBox="0 0 111 109" fill="none" xmlns="http://www.w3.org/2000/svg">
<path d="M9.14652 8.45493H25.6613V0.629227H9.14652H1.31958V8.45493V24.9697H9.14652V8.45493Z" stroke="#767676"/>
<path d="M9.14652 84.0316H1.31958V100.545V108.371H9.14652H25.6613V100.545H9.14652V84.0316Z" stroke="#767676"/>
<path d="M101.855 100.545H85.3413V108.371H101.855H109.681V100.545V84.0316H101.855V100.545Z" stroke="#767676"/>
<path d="M101.855 0.629227H85.3413V8.45493H101.855V24.9697H109.681V8.45493V0.629227H101.855Z" stroke="#767676"/>
<path fill-rule="evenodd" clip-rule="evenodd" d="M52.282 51.6932H15.5725V14.985H52.282V51.6932ZM44.8502 22.4168H23.0043V44.2614H44.8502V22.4168Z" fill="#767676"/>
<path d="M26.9073 26.321H40.9461V40.3585H26.9073V26.321Z" fill="#767676"/>
<path fill-rule="evenodd" clip-rule="evenodd" d="M52.282 94.015H15.5725V57.3067H52.282V94.015ZM44.8502 64.7386H23.0043V86.5844H44.8502V64.7386Z" fill="#767676"/>
<path d="M26.9073 68.6403H40.9461V82.679H26.9073V68.6403Z" fill="#767676"/>
<path fill-rule="evenodd" clip-rule="evenodd" d="M58.7192 14.985H95.4275H95.4287V51.6932H58.7192V14.985ZM66.1511 44.2614H87.9956H87.9969V22.4168H66.1511V44.2614Z" fill="#767676"/>
<path d="M70.054 26.321H84.0914V40.3585H70.054V26.321Z" fill="#767676"/>
<path d="M58.7192 57.3067H83.0597V65.1325H58.7192V57.3067Z" fill="#767676"/>
<path d="M58.7192 68.6428H66.5449V94.015H58.7192V68.6428Z" fill="#767676"/>
<path d="M86.5489 94.015H95.4275V86.1893H87.0853V81.3264H77.4858V86.1893H69.4347V94.015H78.312V89.1533H86.5489V94.015Z" fill="#767676"/>
<path d="M73.563 68.447V76.2728H87.6017H88.2123H95.4274V57.3067H87.6017V68.447H73.563Z" fill="#767676"/>
</svg>
