<svg xmlns="http://www.w3.org/2000/svg" width="100" height="100" fill="none" viewBox="0 0 100 100"><path fill="#626161" d="M50 27C37.304 27 27 37.304 27 50C27 62.696 37.304 73 50 73C62.696 73 73 62.696 73 50C73 37.304 62.696 27 50 27ZM50 33.9C53.818 33.9 56.9 36.982 56.9 40.8C56.9 44.618 53.818 47.7 50 47.7C46.182 47.7 43.1 44.618 43.1 40.8C43.1 36.982 46.182 33.9 50 33.9ZM50 66.56C44.25 66.56 39.167 63.616 36.2 59.154C36.269 54.577 45.4 52.07 50 52.07C54.577 52.07 63.731 54.577 63.8 59.154C60.833 63.616 55.75 66.56 50 66.56Z"/></svg>