<svg width="49" height="37" viewBox="0 0 49 37" fill="none" xmlns="http://www.w3.org/2000/svg">
<path fill-rule="evenodd" clip-rule="evenodd" d="M45.386 0.47215H45.3557C45.2945 0.45055 45.2637 0.432164 45.2024 0.410565C45.1412 0.388965 45.1105 0.373521 45.0798 0.355007C45.0492 0.336493 45.0492 0.355007 45.0492 0.355007C44.4877 0.151331 43.8997 0.0316162 43.3037 0H42.9975H6.00245H5.69628C5.10031 0.0316162 4.51234 0.151331 3.95082 0.355007C3.95082 0.355007 3.95079 0.355007 3.92017 0.355007C3.88954 0.355007 3.82818 0.392051 3.79755 0.410565C3.7445 0.425676 3.69303 0.446233 3.64428 0.47215H3.614C2.53652 0.960157 1.62185 1.75166 0.980674 2.75135C0.3395 3.75104 -0.000984964 4.91623 9.51168e-05 6.10649V30.8658C-0.00888096 32.4805 0.617763 34.0329 1.74293 35.1828C2.8681 36.3326 4.39988 36.9861 6.00245 37H42.9975C44.6001 36.9861 46.1319 36.3326 47.2571 35.1828C48.3822 34.0329 49.0089 32.4805 48.9999 30.8658V6.10649C49.001 4.91623 48.6605 3.75104 48.0193 2.75135C47.3781 1.75166 46.4635 0.960157 45.386 0.47215ZM41.6805 4.5051L24.5 17.5944L7.31949 4.5051H41.6805ZM44.5901 30.8658C44.5905 31.0765 44.5493 31.2851 44.4693 31.4798C44.3894 31.6745 44.2723 31.8513 44.1243 32.0001C43.9763 32.149 43.8007 32.2669 43.6073 32.3471C43.4139 32.4272 43.2066 32.468 42.9975 32.4672H6.00245C5.79335 32.468 5.5861 32.4272 5.39272 32.3471C5.19935 32.2669 5.0237 32.149 4.8757 32.0001C4.7277 31.8513 4.61057 31.6745 4.53065 31.4798C4.45072 31.2851 4.40949 31.0765 4.4099 30.8658V7.95178L24.5 23.2442L44.5901 7.95178V30.8658Z" fill="#7B8893"/>
</svg>
