<svg xmlns="http://www.w3.org/2000/svg" width="100" height="100" fill="none" viewBox="0 0 100 100"><path fill="#626161" fill-rule="evenodd" d="M70.4598 32.4625H70.4301C70.3701 32.4414 70.34 32.4233 70.28 32.4022C70.22 32.381 70.1898 32.3659 70.1598 32.3478C70.1298 32.3296 70.1298 32.3478 70.1298 32.3478C69.5798 32.1482 69.0038 32.031 68.42 32H68.12H31.88H31.58C30.9962 32.031 30.4202 32.1482 29.8702 32.3478C29.8702 32.3478 29.8702 32.3478 29.8402 32.3478C29.8102 32.3478 29.75 32.384 29.72 32.4022C29.6681 32.417 29.6177 32.4371 29.5699 32.4625C29.5699 32.4625 29.5402 32.4625 29.5402 32.4625C28.4848 32.9406 27.5888 33.7159 26.9607 34.6952C26.3326 35.6745 25.999 36.8159 26.0001 37.9819V62.2359C25.9913 63.8177 26.6052 65.3384 27.7074 66.4648C28.8096 67.5912 30.3101 68.2313 31.88 68.2449H68.12C69.6899 68.2313 71.1904 67.5912 72.2926 66.4648C73.3948 65.3384 74.0087 63.8177 73.9999 62.2359V37.9819C74.001 36.8159 73.6674 35.6745 73.0393 34.6952C72.4113 33.7159 71.5152 32.9406 70.4598 32.4625ZM66.8299 36.4132L50 49.2353L33.1701 36.4132H66.8299V36.4132ZM69.6801 62.2359C69.6805 62.4423 69.6401 62.6466 69.5618 62.8373C69.4835 63.028 69.3688 63.2013 69.2238 63.3471C69.0788 63.4929 68.9068 63.6084 68.7173 63.6869C68.5279 63.7654 68.3249 63.8054 68.12 63.8046H31.88C31.6751 63.8054 31.4721 63.7654 31.2827 63.6869C31.0932 63.6084 30.9212 63.4929 30.7762 63.3471C30.6312 63.2013 30.5165 63.028 30.4382 62.8373C30.3599 62.6466 30.3195 62.4423 30.3199 62.2359V39.7895L50 54.7698L69.6801 39.7895V62.2359Z" clip-rule="evenodd"/></svg>