<svg xmlns="http://www.w3.org/2000/svg" width="100" height="100" fill="none" viewBox="0 0 100 100"><path fill="#626161" d="M73.9898 42.172C73.9898 40.9121 73.4821 39.7211 72.5581 38.8254C71.634 37.9297 70.4155 37.4375 69.1056 37.4375L38.5204 37.4572V29.5435L61.4593 29.5336L61.439 32.9393C61.439 33.9137 62.2513 34.711 63.2566 34.7209H63.2668C64.2721 34.7209 65.0946 33.9334 65.0946 32.959L65.1149 29.3368C65.1149 27.4961 63.5714 26 61.6624 26L38.3072 26.0098C37.3831 26.0098 36.52 26.3543 35.8701 26.9941C35.2202 27.6339 34.8648 28.4607 34.8648 29.3564V37.467H30.8843C29.5845 37.467 28.3558 37.9592 27.4318 38.8549C26.5077 39.7506 26 40.9416 26 42.2015L26.0102 59.3085C26 60.5684 26.5077 61.7594 27.4318 62.6551C28.3558 63.5508 29.5744 64.043 30.8843 64.043C31.8896 64.043 32.7121 63.2457 32.7121 62.2713C32.7121 61.2968 31.8896 60.4995 30.8843 60.4995C30.5593 60.4995 30.2547 60.3716 30.0212 60.155C29.7876 59.9286 29.6657 59.6334 29.6657 59.3184L29.6556 42.2113C29.6556 41.5519 30.2039 41.0203 30.8843 41.0203H36.6926L69.1056 41.0007C69.4305 41.0007 69.7351 41.1286 69.9687 41.3452C70.2022 41.5715 70.3241 41.8668 70.3241 42.1818L70.3342 59.2888C70.3342 59.6038 70.2022 59.909 69.9788 60.1255C69.7453 60.3519 69.4407 60.47 69.1157 60.47C68.1104 60.47 67.2879 61.2673 67.2879 62.2417C67.2879 63.2162 68.1104 64.0135 69.1157 64.0135C70.4155 64.0135 71.6442 63.5213 72.5682 62.6256C73.4923 61.7299 74 60.5389 74 59.279L73.9898 42.172Z"/><path fill="#626161" fill-rule="evenodd" d="M63.3572 48.9636C63.8345 48.9636 64.3016 49.1506 64.6468 49.4853C64.9921 49.8101 65.185 50.2629 65.185 50.7354V70.687C65.185 71.5827 64.8296 72.4194 64.1797 73.0493C63.5298 73.6891 62.6667 74.0336 61.7427 74.0336L38.3875 74.0435C36.4784 74.0435 34.935 72.5473 34.935 70.7067L34.9248 50.7452C34.9248 49.7707 35.7473 48.9735 36.7526 48.9735L63.3572 48.9636ZM38.5922 52.5171L38.6024 70.51L61.5412 70.5001L61.5311 52.5072L38.5922 52.5171Z" clip-rule="evenodd"/></svg>