<svg width="50" height="50" viewBox="0 0 50 50" fill="none" xmlns="http://www.w3.org/2000/svg">
<path d="M45.7101 18.1663C45.7101 17.0757 45.2706 16.0446 44.4706 15.2692C43.6707 14.4939 42.6159 14.0678 41.4819 14.0678L15.0051 14.0849V7.23414L34.8627 7.22562L34.8451 10.1738C34.8451 11.0174 35.5484 11.7076 36.4186 11.7161H36.4274C37.2977 11.7161 38.0097 11.0344 38.0097 10.1909L38.0273 7.0552C38.0273 5.46182 36.6911 4.16666 35.0385 4.16666L14.8205 4.17518C14.0206 4.17518 13.2734 4.4734 12.7108 5.02726C12.1482 5.58111 11.8406 6.29685 11.8406 7.07225V14.0934H8.3947C7.26953 14.0934 6.20588 14.5194 5.40596 15.2948C4.60603 16.0702 4.1665 17.1012 4.1665 18.1919L4.17529 33.001C4.1665 34.0917 4.60603 35.1227 5.40596 35.8981C6.20588 36.6735 7.26074 37.0995 8.3947 37.0995C9.26496 37.0995 9.97698 36.4093 9.97698 35.5658C9.97698 34.7222 9.26496 34.032 8.3947 34.032C8.11341 34.032 7.8497 33.9213 7.64752 33.7338C7.44534 33.5378 7.33985 33.2822 7.33985 33.0095L7.33106 18.2004C7.33106 17.6295 7.80574 17.1694 8.3947 17.1694H13.4228L41.4819 17.1523C41.7632 17.1523 42.0269 17.2631 42.2291 17.4506C42.4313 17.6465 42.5368 17.9022 42.5368 18.1748L42.5455 32.984C42.5455 33.2566 42.4313 33.5208 42.2379 33.7082C42.0357 33.9042 41.772 34.0065 41.4907 34.0065C40.6204 34.0065 39.9084 34.6966 39.9084 35.5402C39.9084 36.3838 40.6204 37.0739 41.4907 37.0739C42.6159 37.0739 43.6795 36.6479 44.4794 35.8725C45.2794 35.0971 45.7189 34.0661 45.7189 32.9755L45.7101 18.1663Z" fill="#7B8893"/>
<path fill-rule="evenodd" clip-rule="evenodd" d="M36.5063 24.0457C36.9194 24.0457 37.3238 24.2075 37.6227 24.4973C37.9215 24.7784 38.0886 25.1704 38.0886 25.5794V42.851C38.0886 43.6264 37.7809 44.3507 37.2183 44.896C36.6557 45.4499 35.9085 45.7481 35.1086 45.7481L14.8906 45.7566C13.238 45.7566 11.9019 44.4615 11.9019 42.8681L11.8931 25.5879C11.8931 24.7444 12.6051 24.0542 13.4753 24.0542L36.5063 24.0457ZM15.0664 27.1217L15.0752 42.6977L34.9328 42.6891L34.924 27.1131L15.0664 27.1217Z" fill="#7B8893"/>
</svg>
