<svg xmlns="http://www.w3.org/2000/svg" width="303" height="279" fill="none" viewBox="0 0 303 279"><path fill="url(#paint0_radial)" fill-rule="evenodd" d="M102.82 214.075C169.649 225.747 211.281 217.232 231.178 198.277C243.775 186.277 257.725 178.142 267.8 160.1C287.191 125.376 268.001 58.2362 268.001 58.2362C243.041 26.9909 196.906 9.38065 154.523 12.182C86.0002 16.7111 56.4646 21.8367 34.0006 48.7742C11.5366 75.7117 34.0006 157.275 34.0006 157.275C34.0006 157.275 35.9907 202.402 102.82 214.075Z" clip-rule="evenodd" opacity=".1"/><g filter="url(#filter0_f)"><path fill="#1A438F" fill-opacity=".312" fill-rule="evenodd" d="M148.346 177.183C178.275 178.394 189.349 174.365 198.39 168.172C207.43 161.978 176.284 157.538 149.016 157.538C121.748 157.538 93.9597 161.826 99.6424 168.172C105.325 174.517 118.417 175.971 148.346 177.183Z" clip-rule="evenodd" style="mix-blend-mode:multiply"/></g><g filter="url(#filter1_d)"><path fill="url(#paint1_linear)" fill-rule="evenodd" d="M151 166.907C185.635 166.907 213.712 138.941 213.712 104.444C213.712 69.9473 185.635 41.9819 151 41.9819C116.365 41.9819 88.2881 69.9473 88.2881 104.444C88.2881 138.941 116.365 166.907 151 166.907Z" clip-rule="evenodd"/></g><g filter="url(#filter2_d)" opacity=".174"><rect width="9.988" height="9.99" fill="url(#paint2_linear)" rx="4.994" transform="matrix(-0.765727 0.643165 0.64241 0.766361 60.9932 118.186)"/></g><g filter="url(#filter3_d)"><rect width="9.988" height="9.99" fill="url(#paint3_radial)" rx="4.994" transform="matrix(-0.765727 0.643166 0.642409 0.766362 86.5771 38.2342)"/></g><g filter="url(#filter4_d)"><path fill="url(#paint4_radial)" d="M118.63 192.823C115.308 188.86 109.403 188.342 105.443 191.668C101.483 194.994 100.967 200.905 104.289 204.868C107.612 208.831 113.516 209.349 117.476 206.023C121.436 202.697 121.952 196.786 118.63 192.823Z"/></g><g filter="url(#filter5_d)"><rect width="8.115" height="8.117" fill="url(#paint5_radial)" rx="4.058" transform="matrix(0.765727 0.643166 -0.64241 0.766362 242.639 99.4474)"/></g><g filter="url(#filter6_d)"><rect width="12.702" height="12.704" fill="url(#paint6_radial)" fill-opacity=".4" rx="6.351" transform="matrix(0.765728 0.643164 -0.642411 0.76636 224.37 166.907)"/></g><g filter="url(#filter7_d)" opacity=".554"><rect width="3.121" height="3.122" fill="url(#paint7_radial)" rx="1.561" transform="matrix(0.76573 0.643162 -0.642413 0.766358 213.846 45.1051)"/></g><g filter="url(#filter8_d)"><path fill="#fff" d="M150.996 147.516C174.588 147.516 193.713 128.372 193.713 104.757C193.713 81.1412 174.588 61.9971 150.996 61.9971C127.404 61.9971 108.279 81.1412 108.279 104.757C108.279 128.372 127.404 147.516 150.996 147.516ZM150.996 148.793C126.7 148.793 107.004 129.077 107.004 104.757C107.004 80.4363 126.7 60.7207 150.996 60.7207C175.292 60.7207 194.988 80.4363 194.988 104.757C194.988 129.077 175.292 148.793 150.996 148.793Z"/></g><g filter="url(#filter9_dd)"><path fill="#DDE5FF" d="M150.998 146.294C174.257 146.294 193.111 127.557 193.111 104.444C193.111 81.3314 174.257 62.5946 150.998 62.5946C127.74 62.5946 108.885 81.3314 108.885 104.444C108.885 127.557 127.74 146.294 150.998 146.294ZM150.998 147.544C127.045 147.544 107.628 128.247 107.628 104.444C107.628 80.6415 127.045 61.3453 150.998 61.3453C174.951 61.3453 194.368 80.6415 194.368 104.444C194.368 128.247 174.951 147.544 150.998 147.544Z"/></g><path fill="url(#paint8_linear)" d="M187.499 82.1369C199.062 99.6916 195.625 123.752 178.796 137.873C168.915 146.164 156.133 149.542 143.815 147.426C134.181 145.771 125.467 140.854 119.107 133.275C118.731 132.826 118.772 132.409 119.23 132.025C119.688 131.64 120.105 131.672 120.482 132.121C126.576 139.384 134.922 144.093 144.152 145.679C155.956 147.706 168.199 144.471 177.667 136.526C193.692 123.08 197.042 100.224 186.202 83.4329L150.116 119.495C149.58 120.139 148.723 120.461 147.865 120.461H147.758C146.9 120.461 146.15 120.032 145.506 119.387L129.317 101.769C128.137 100.48 128.245 98.4391 129.531 97.2574C130.818 96.0757 132.855 96.1832 134.034 97.4723L147.972 112.619L186.57 74.0534C187.749 72.7643 189.786 72.7643 191.073 74.0534C192.359 75.2351 192.359 77.2762 191.073 78.5653L187.499 82.1369Z"/><defs><filter id="filter0_f" width="177.2" height="95.972" x="60.84" y="119.482" color-interpolation-filters="sRGB" filterUnits="userSpaceOnUse"><feFlood flood-opacity="0" result="BackgroundImageFix"/><feBlend in="SourceGraphic" in2="BackgroundImageFix" mode="normal" result="shape"/><feGaussianBlur result="effect1_foregroundBlur" stdDeviation="19.028"/></filter><filter id="filter1_d" width="133.424" height="132.925" x="84.288" y="41.982" color-interpolation-filters="sRGB" filterUnits="userSpaceOnUse"><feFlood flood-opacity="0" result="BackgroundImageFix"/><feColorMatrix in="SourceAlpha" type="matrix" values="0 0 0 0 0 0 0 0 0 0 0 0 0 0 0 0 0 0 127 0"/><feOffset dy="4"/><feGaussianBlur stdDeviation="2"/><feColorMatrix type="matrix" values="0 0 0 0 1 0 0 0 0 1 0 0 0 0 1 0 0 0 0.1 0"/><feBlend in2="BackgroundImageFix" mode="normal" result="effect1_dropShadow"/><feBlend in="SourceGraphic" in2="effect1_dropShadow" mode="normal" result="shape"/></filter><filter id="filter2_d" width="119.984" height="119.994" x=".386" y="80.229" color-interpolation-filters="sRGB" filterUnits="userSpaceOnUse"><feFlood flood-opacity="0" result="BackgroundImageFix"/><feColorMatrix in="SourceAlpha" type="matrix" values="0 0 0 0 0 0 0 0 0 0 0 0 0 0 0 0 0 0 127 0"/><feOffset dy="15"/><feGaussianBlur stdDeviation="27.5"/><feColorMatrix type="matrix" values="0 0 0 0 0.615686 0 0 0 0 0.639216 0 0 0 0 0.705882 0 0 0 0.2 0"/><feBlend in2="BackgroundImageFix" mode="normal" result="effect1_dropShadow"/><feBlend in="SourceGraphic" in2="effect1_dropShadow" mode="normal" result="shape"/></filter><filter id="filter3_d" width="119.984" height="119.994" x="25.97" y=".277" color-interpolation-filters="sRGB" filterUnits="userSpaceOnUse"><feFlood flood-opacity="0" result="BackgroundImageFix"/><feColorMatrix in="SourceAlpha" type="matrix" values="0 0 0 0 0 0 0 0 0 0 0 0 0 0 0 0 0 0 127 0"/><feOffset dy="15"/><feGaussianBlur stdDeviation="27.5"/><feColorMatrix type="matrix" values="0 0 0 0 0.615686 0 0 0 0 0.639216 0 0 0 0 0.705882 0 0 0 0.2 0"/><feBlend in2="BackgroundImageFix" mode="normal" result="effect1_dropShadow"/><feBlend in="SourceGraphic" in2="effect1_dropShadow" mode="normal" result="shape"/></filter><filter id="filter4_d" width="128.72" height="128.739" x="47.1" y="149.476" color-interpolation-filters="sRGB" filterUnits="userSpaceOnUse"><feFlood flood-opacity="0" result="BackgroundImageFix"/><feColorMatrix in="SourceAlpha" type="matrix" values="0 0 0 0 0 0 0 0 0 0 0 0 0 0 0 0 0 0 127 0"/><feOffset dy="15"/><feGaussianBlur stdDeviation="27.5"/><feColorMatrix type="matrix" values="0 0 0 0 0.615686 0 0 0 0 0.639216 0 0 0 0 0.705882 0 0 0 0.2 0"/><feBlend in2="BackgroundImageFix" mode="normal" result="effect1_dropShadow"/><feBlend in="SourceGraphic" in2="effect1_dropShadow" mode="normal" result="shape"/></filter><filter id="filter5_d" width="118.112" height="118.12" x="184.083" y="61.107" color-interpolation-filters="sRGB" filterUnits="userSpaceOnUse"><feFlood flood-opacity="0" result="BackgroundImageFix"/><feColorMatrix in="SourceAlpha" type="matrix" values="0 0 0 0 0 0 0 0 0 0 0 0 0 0 0 0 0 0 127 0"/><feOffset dy="15"/><feGaussianBlur stdDeviation="27.5"/><feColorMatrix type="matrix" values="0 0 0 0 0.615686 0 0 0 0 0.639216 0 0 0 0 0.705882 0 0 0 0.2 0"/><feBlend in2="BackgroundImageFix" mode="normal" result="effect1_dropShadow"/><feBlend in="SourceGraphic" in2="effect1_dropShadow" mode="normal" result="shape"/></filter><filter id="filter6_d" width="122.697" height="122.71" x="163.804" y="129.505" color-interpolation-filters="sRGB" filterUnits="userSpaceOnUse"><feFlood flood-opacity="0" result="BackgroundImageFix"/><feColorMatrix in="SourceAlpha" type="matrix" values="0 0 0 0 0 0 0 0 0 0 0 0 0 0 0 0 0 0 127 0"/><feOffset dy="15"/><feGaussianBlur stdDeviation="27.5"/><feColorMatrix type="matrix" values="0 0 0 0 0.615686 0 0 0 0 0.639216 0 0 0 0 0.705882 0 0 0 0.2 0"/><feBlend in2="BackgroundImageFix" mode="normal" result="effect1_dropShadow"/><feBlend in="SourceGraphic" in2="effect1_dropShadow" mode="normal" result="shape"/></filter><filter id="filter7_d" width="113.12" height="113.123" x="157.478" y="5.744" color-interpolation-filters="sRGB" filterUnits="userSpaceOnUse"><feFlood flood-opacity="0" result="BackgroundImageFix"/><feColorMatrix in="SourceAlpha" type="matrix" values="0 0 0 0 0 0 0 0 0 0 0 0 0 0 0 0 0 0 127 0"/><feOffset dy="15"/><feGaussianBlur stdDeviation="27.5"/><feColorMatrix type="matrix" values="0 0 0 0 0.615686 0 0 0 0 0.639216 0 0 0 0 0.705882 0 0 0 0.2 0"/><feBlend in2="BackgroundImageFix" mode="normal" result="effect1_dropShadow"/><feBlend in="SourceGraphic" in2="effect1_dropShadow" mode="normal" result="shape"/></filter><filter id="filter8_d" width="127.984" height="128.072" x="87.004" y="32.721" color-interpolation-filters="sRGB" filterUnits="userSpaceOnUse"><feFlood flood-opacity="0" result="BackgroundImageFix"/><feColorMatrix in="SourceAlpha" type="matrix" values="0 0 0 0 0 0 0 0 0 0 0 0 0 0 0 0 0 0 127 0"/><feOffset dy="-8"/><feGaussianBlur stdDeviation="10"/><feColorMatrix type="matrix" values="0 0 0 0 1 0 0 0 0 1 0 0 0 0 1 0 0 0 1 0"/><feBlend in2="BackgroundImageFix" mode="lighten" result="effect1_dropShadow"/><feBlend in="SourceGraphic" in2="effect1_dropShadow" mode="normal" result="shape"/></filter><filter id="filter9_dd" width="106.741" height="115.198" x="97.628" y="46.345" color-interpolation-filters="sRGB" filterUnits="userSpaceOnUse"><feFlood flood-opacity="0" result="BackgroundImageFix"/><feColorMatrix in="SourceAlpha" type="matrix" values="0 0 0 0 0 0 0 0 0 0 0 0 0 0 0 0 0 0 127 0"/><feOffset dy="-5"/><feGaussianBlur stdDeviation="5"/><feColorMatrix type="matrix" values="0 0 0 0 0.945098 0 0 0 0 0.952941 0 0 0 0 0.968627 0 0 0 1 0"/><feBlend in2="BackgroundImageFix" mode="normal" result="effect1_dropShadow"/><feColorMatrix in="SourceAlpha" type="matrix" values="0 0 0 0 0 0 0 0 0 0 0 0 0 0 0 0 0 0 127 0"/><feOffset dy="4"/><feGaussianBlur stdDeviation="5"/><feColorMatrix type="matrix" values="0 0 0 0 0.192157 0 0 0 0 0.368627 0 0 0 0 0.992157 0 0 0 0.2 0"/><feBlend in2="effect1_dropShadow" mode="normal" result="effect2_dropShadow"/><feBlend in="SourceGraphic" in2="effect2_dropShadow" mode="normal" result="shape"/></filter><radialGradient id="paint0_radial" cx="0" cy="0" r="1" gradientTransform="translate(151.001 161.941) rotate(-90) scale(145.572 155.782)" gradientUnits="userSpaceOnUse"><stop stop-color="#fff" stop-opacity=".262"/><stop offset="1" stop-color="#80869F" stop-opacity=".19"/></radialGradient><linearGradient id="paint1_linear" x1="207.472" x2="95.11" y1="65.093" y2="118.723" gradientUnits="userSpaceOnUse"><stop stop-color="#fff" stop-opacity=".404"/><stop offset=".119" stop-color="#EEEFF8" stop-opacity=".385"/><stop offset=".206" stop-color="#DEE5FF" stop-opacity=".371"/><stop offset=".765" stop-color="#fff" stop-opacity=".282"/><stop offset="1" stop-color="#E3EAFF" stop-opacity=".245"/></linearGradient><linearGradient id="paint2_linear" x1="-5.267" x2="4.854" y1="4.776" y2="15.049" gradientUnits="userSpaceOnUse"><stop stop-color="#2B2E34"/><stop offset="1" stop-color="#2B87DA"/></linearGradient><radialGradient id="paint3_radial" cx="0" cy="0" r="1" gradientTransform="translate(-0.131042 -0.284415) rotate(90) scale(10.2743 10.2725)" gradientUnits="userSpaceOnUse"><stop stop-color="#B9BDC7"/><stop offset="1" stop-color="#497DFC"/></radialGradient><radialGradient id="paint4_radial" cx="0" cy="0" r="1" gradientTransform="translate(97.3212 194.026) rotate(79.2845) scale(19.1602 19.1423)" gradientUnits="userSpaceOnUse"><stop stop-color="#9FBDFF"/><stop offset="1" stop-color="#056FF8"/></radialGradient><radialGradient id="paint5_radial" cx="0" cy="0" r="1" gradientTransform="translate(4.05767 2.63903) rotate(60.7303) scale(8.29923 8.29848)" gradientUnits="userSpaceOnUse"><stop stop-color="#0051FF"/><stop offset="1" stop-color="#056FF8"/></radialGradient><radialGradient id="paint6_radial" cx="0" cy="0" r="1" gradientTransform="translate(6.35112 4.13064) rotate(60.7303) scale(12.99 12.9889)" gradientUnits="userSpaceOnUse"><stop stop-color="#9FBDFF"/><stop offset="1" stop-color="#056FF8"/></radialGradient><radialGradient id="paint7_radial" cx="0" cy="0" r="1" gradientTransform="translate(1.56065 1.01501) rotate(60.7302) scale(3.19202 3.19174)" gradientUnits="userSpaceOnUse"><stop stop-color="#0051FF"/><stop offset="1" stop-color="#056FF8"/></radialGradient><linearGradient id="paint8_linear" x1="156.304" x2="131.301" y1="141.922" y2="80.726" gradientUnits="userSpaceOnUse"><stop stop-color="#315EFD"/><stop offset="1" stop-color="#6789FF"/></linearGradient></defs></svg>