<svg width="82" height="83" fill="none" xmlns="http://www.w3.org/2000/svg"><rect y=".5" width="82" height="82" rx="41" fill="url(#a)"/><g clip-path="url(#b)"><path d="M41 20.5c-11.58 0-21 9.42-21 21s9.42 21 21 21 21-9.42 21-21-9.42-21-21-21Zm0 38.182c-9.474 0-17.182-7.708-17.182-17.182 0-9.474 7.708-17.182 17.182-17.182 9.474 0 17.182 7.708 17.182 17.182 0 9.474-7.708 17.182-17.182 17.182Z" fill="#CEE4F9"/><path fill-rule="evenodd" clip-rule="evenodd" d="M55.472 26.297 53 29.215a17.296 17.296 0 0 1 2.77 3.515l2.282-3.474a21.176 21.176 0 0 0-2.58-2.959Z" fill="#004195"/><path d="M39.839 52.072a3.553 3.553 0 0 1-2.672-1.203l-8.445-9.643a3.393 3.393 0 0 1 .382-4.856c1.475-1.239 3.696-1.072 4.962.374l5.52 6.303 17.448-20.593c2.701-3.703 5.528-1.652 2.815 2.066L42.701 50.63a3.54 3.54 0 0 1-2.862 1.442Z" fill="#315EFD"/></g><defs><linearGradient id="a" x1="0" y1=".5" x2="82" y2="82.5" gradientUnits="userSpaceOnUse"><stop stop-color="#E5EAF8"/><stop offset="1" stop-color="#F9FAFF" stop-opacity="0"/></linearGradient><clipPath id="b"><path fill="#fff" d="M20 20.5h42v42H20z"/></clipPath></defs></svg>