<svg id="Ebene_1" data-name="Ebene 1" xmlns="http://www.w3.org/2000/svg" viewBox="0 0 272.28 283.46"><defs><style>.cls-1{fill:#696563;fill-rule:evenodd;}.cls-2{fill:#fff;}.cls-3{fill:#bedcf6;}</style></defs><title>SDOA</title><path class="cls-1" d="M433.61,161.11H534.32a35.44,35.44,0,0,1,35.43,35.43v212.6a35.43,35.43,0,0,1-35.43,35.43H332.9a35.44,35.44,0,0,1-35.44-35.43V196.54a35.44,35.44,0,0,1,35.44-35.43Z" transform="translate(-297.46 -161.11)"/><path class="cls-2" d="M356.23,256.24a23.3,23.3,0,0,0-9.17-1.94c-3.1,0-7.1,1.35-7.1,6.26,0,7.81,19.75,4.52,19.75,19.62,0,9.88-7.81,13.62-16.91,13.62-4.9,0-7.1-.64-11.55-1.74l.84-8.13a21.85,21.85,0,0,0,10.2,2.77c3.42,0,8-1.74,8-5.81,0-8.58-19.75-5-19.75-19.94,0-10.07,7.81-13.75,15.75-13.75a34.22,34.22,0,0,1,10.78,1.61Z" transform="translate(-297.46 -161.11)"/><path class="cls-2" d="M382.36,259c9.88,0,17.43,6.65,17.43,17.62,0,9.56-6.39,17.17-17.43,17.17S365,286.19,365,276.63C365,265.66,372.55,259,382.36,259Zm0,28.08c6.65,0,8.4-5.94,8.4-11.49,0-5.1-2.72-9.88-8.4-9.88S374,270.63,374,275.6C374,281.09,375.78,287.09,382.36,287.09Z" transform="translate(-297.46 -161.11)"/><path class="cls-2" d="M428.12,267a13.06,13.06,0,0,0-5.87-1.23c-5.36,0-8.78,4.26-8.78,10.52s2.9,10.85,9,10.85a18.29,18.29,0,0,0,6.65-1.55l.39,7.17a28.37,28.37,0,0,1-8.65,1.09c-10.91,0-16.4-7.42-16.4-17.56,0-9.61,5.69-17.23,16.08-17.23a28.17,28.17,0,0,1,8.39,1.1Z" transform="translate(-297.46 -161.11)"/><path class="cls-2" d="M435.41,245.46h8.65v8.26h-8.65Zm0,14.33h8.65V293h-8.65Z" transform="translate(-297.46 -161.11)"/><path class="cls-2" d="M454.64,261.53A29.78,29.78,0,0,1,466.2,259c10.13,0,14.33,4.2,14.33,14v4.26c0,3.35.06,5.87.13,8.32s.19,4.85.38,7.43h-7.62a40.07,40.07,0,0,1-.38-5h-.13a11.91,11.91,0,0,1-10.27,5.74c-5.86,0-11.61-3.55-11.61-9.87,0-5,2.39-7.88,5.68-9.49s7.55-1.94,11.16-1.94h4.78c0-5.36-2.39-7.16-7.49-7.16A17.42,17.42,0,0,0,454.9,269Zm10.14,26a7.35,7.35,0,0,0,6.06-3,11,11,0,0,0,1.81-6.84h-3.74c-3.87,0-9.62.64-9.62,5.74C459.29,286.25,461.68,287.48,464.78,287.48Z" transform="translate(-297.46 -161.11)"/><path class="cls-2" d="M489.24,244.62h8.64V293h-8.64Z" transform="translate(-297.46 -161.11)"/><path class="cls-2" d="M533.64,291.16a22.9,22.9,0,0,1-11.43,2.64c-11,0-17.35-6.32-17.35-17.23C504.86,267,510,259,520.28,259c12.33,0,15.81,8.46,15.81,20.08h-23c.38,5.35,4.13,8.39,9.48,8.39a22.4,22.4,0,0,0,11-3.36Zm-5.81-18c-.25-4.2-2.19-7.81-7-7.81s-7.3,3.35-7.68,7.81Z" transform="translate(-297.46 -161.11)"/><path class="cls-3" d="M332.45,316.12h13.41c15,0,28.3,5.05,28.3,24.51s-13.27,24.51-28.3,24.51H332.45Zm9.83,41.29h5.47c8.22,0,16.16-6.11,16.16-16.78s-7.94-16.79-16.16-16.79h-5.47Z" transform="translate(-297.46 -161.11)"/><path class="cls-3" d="M382.52,313.38h9.41v9h-9.41Zm0,15.59h9.41v36.17h-9.41Z" transform="translate(-297.46 -161.11)"/><path class="cls-3" d="M430.84,363.1A24.92,24.92,0,0,1,418.41,366c-11.94,0-18.89-6.88-18.89-18.75,0-10.46,5.54-19.1,16.78-19.1,13.41,0,17.21,9.2,17.21,21.84h-25c.42,5.82,4.49,9.13,10.32,9.13,4.57,0,8.5-1.69,12-3.66Zm-6.32-19.59c-.28-4.57-2.39-8.5-7.66-8.5s-7.93,3.65-8.35,8.5Z" transform="translate(-297.46 -161.11)"/><path class="cls-3" d="M440.88,329h8.92v4.91h.14c2.95-4.14,7-5.75,11.87-5.75,8.57,0,12.29,6,12.29,14.18v22.83h-9.41V345.82c0-4.42-.07-10.39-6.11-10.39-6.81,0-8.29,7.37-8.29,12v17.7h-9.41Z" transform="translate(-297.46 -161.11)"/><path class="cls-3" d="M505.29,336.55a23.21,23.21,0,0,0-8.43-1.54c-2.53,0-5.55.91-5.55,4,0,5.76,16.36,2.11,16.36,15.17,0,8.43-7.51,11.8-15.17,11.8a41.82,41.82,0,0,1-10.67-1.55l.56-7.72a20.74,20.74,0,0,0,9.27,2.39c2.39,0,6.18-.92,6.18-4.43,0-7.09-16.36-2.25-16.36-15.31,0-7.79,6.81-11.23,14.18-11.23a43.56,43.56,0,0,1,10.26,1.33Z" transform="translate(-297.46 -161.11)"/><path class="cls-3" d="M518.07,335.85h-7V329h7v-7.24l9.41-3V329h8.35v6.88h-8.35v16.86c0,3.08.84,6,4.42,6a8.39,8.39,0,0,0,4.28-1l.29,7.45a24.91,24.91,0,0,1-7,.84c-7.37,0-11.44-4.57-11.44-11.73Z" transform="translate(-297.46 -161.11)"/><path class="cls-2" d="M337.48,389.72c6.22,0,9.15,5.1,9.09,10.69-.06,6.34-3.14,10.69-9.09,10.69s-9-4.35-9.09-10.69C328.33,394.82,331.27,389.72,337.48,389.72Zm-7,10.69c0,4.38,2.19,8.91,7,8.91s7-4.53,7-8.91-2.19-8.91-7-8.91S330.44,396,330.44,400.41Z" transform="translate(-297.46 -161.11)"/><path class="cls-2" d="M356.4,395.29c4.89,0,7.05,3.79,7.05,7.9s-2.16,7.91-7.05,7.91-7-3.79-7-7.91S351.52,395.29,356.4,395.29Zm0,14.21c3.26,0,5-2.81,5-6.31s-1.75-6.3-5-6.3-5,2.81-5,6.3S353.15,409.5,356.4,409.5Z" transform="translate(-297.46 -161.11)"/><path class="cls-2" d="M365.82,408.55a9,9,0,0,0,3.94.95c1.78,0,3.35-1,3.35-2.7,0-3.58-7.26-3-7.26-7.4,0-3,2.43-4.11,4.92-4.11a12,12,0,0,1,3.73.68l-.18,1.63a8.91,8.91,0,0,0-3.35-.71c-1.92,0-3.25.59-3.25,2.51,0,2.82,7.43,2.46,7.43,7.4,0,3.2-3,4.3-5.27,4.3a11.3,11.3,0,0,1-4.24-.72Z" transform="translate(-297.46 -161.11)"/><path class="cls-2" d="M385,397.24h-3.43V407c0,1.36.5,2.49,2,2.49a4.23,4.23,0,0,0,1.71-.36l.12,1.54a6.7,6.7,0,0,1-2.28.42c-3.31,0-3.43-2.28-3.43-5v-8.82h-3v-1.6h3V392l1.87-.65v4.29H385Z" transform="translate(-297.46 -161.11)"/><path class="cls-2" d="M403.91,390.08h2.31l8.2,20.66h-2.13l-2.23-5.53H399.65l-2.22,5.53h-2Zm1,1.95-4.5,11.4h9Z" transform="translate(-297.46 -161.11)"/><path class="cls-2" d="M427,397.66a8.43,8.43,0,0,0-3.22-.77c-3.64,0-5.69,2.63-5.69,6.3,0,3.44,2.08,6.31,5.48,6.31a9.86,9.86,0,0,0,3.41-.68l.17,1.74a11,11,0,0,1-3.88.54c-4.85,0-7.22-3.7-7.22-7.91,0-4.65,3-7.9,7.46-7.9a11.18,11.18,0,0,1,3.64.59Z" transform="translate(-297.46 -161.11)"/><path class="cls-2" d="M430.29,388.54h1.87v9.65h.06a5.12,5.12,0,0,1,4.71-2.9c4.05,0,5.15,2.69,5.15,6.42v9h-1.87v-9c0-2.6-.5-4.85-3.58-4.85-3.32,0-4.47,3.14-4.47,5.77v8.08h-1.87Z" transform="translate(-297.46 -161.11)"/><path class="cls-2" d="M453.27,397.24h-3.43V407c0,1.36.5,2.49,2,2.49a4.32,4.32,0,0,0,1.72-.36l.11,1.54a6.7,6.7,0,0,1-2.28.42c-3.31,0-3.43-2.28-3.43-5v-8.82h-3v-1.6h3V392l1.87-.65v4.29h3.43Z" transform="translate(-297.46 -161.11)"/><path class="cls-2" d="M466.74,410.27a12.43,12.43,0,0,1-4.38.83c-5,0-6.87-3.38-6.87-7.91s2.55-7.9,6.37-7.9c4.26,0,6,3.43,6,7.49v.94H457.54c0,3.2,1.72,5.78,5,5.78a9.57,9.57,0,0,0,4.23-1.13Zm-.91-8.14c0-2.64-1.07-5.24-3.86-5.24s-4.43,2.75-4.43,5.24Z" transform="translate(-297.46 -161.11)"/><path class="cls-2" d="M471.43,399a26.89,26.89,0,0,0-.12-3.38h1.86v2.9h.06c.68-1.68,2-3.25,3.88-3.25a5.36,5.36,0,0,1,1.3.18v1.95a4.76,4.76,0,0,0-1.36-.18c-3,0-3.76,3.32-3.76,6v7.46h-1.86Z" transform="translate(-297.46 -161.11)"/><path class="cls-2" d="M481.29,388.54h1.86v9.65h.06a5.12,5.12,0,0,1,4.71-2.9c4.05,0,5.15,2.69,5.15,6.42v9H491.2v-9c0-2.6-.5-4.85-3.58-4.85-3.31,0-4.47,3.14-4.47,5.77v8.08h-1.86Z" transform="translate(-297.46 -161.11)"/><path class="cls-2" d="M503.64,395.29c4.89,0,7.05,3.79,7.05,7.9s-2.16,7.91-7.05,7.91-7-3.79-7-7.91S498.76,395.29,503.64,395.29Zm0,14.21c3.26,0,5-2.81,5-6.31s-1.74-6.3-5-6.3-5,2.81-5,6.3S500.39,409.5,503.64,409.5Z" transform="translate(-297.46 -161.11)"/><path class="cls-2" d="M524.34,410.27a12.43,12.43,0,0,1-4.38.83c-5,0-6.87-3.38-6.87-7.91s2.55-7.9,6.37-7.9c4.26,0,6,3.43,6,7.49v.94H515.13c0,3.2,1.72,5.78,5,5.78a9.57,9.57,0,0,0,4.23-1.13Zm-.92-8.14c0-2.64-1.06-5.24-3.85-5.24s-4.44,2.75-4.44,5.24Z" transform="translate(-297.46 -161.11)"/><path class="cls-2" d="M529,388.54h1.86v13.29l6.75-6.19H540l-7.37,6.69,8.26,8.41h-2.58L530.82,403v7.76H529Z" transform="translate(-297.46 -161.11)"/></svg>