<svg xmlns="http://www.w3.org/2000/svg" height="141.7" width="113.4" viewBox="0 0 113.4 141.70016" id="Laag_1"><style id="style3">.st0{fill:#FFFFFF;}</style><g id="g5" fill="#fff"><path id="path7" d="M72.7 119.9c3.4.7 5.1 1.4 5.1 1.4 2.2-3.9 2.8-6.9 1.8-9.3-1.2-3.1-4.5-4.4-7.4-5.6-1.8-.7-3.6-1.4-4.9-2.5-.7-.5-2.2-2.4-2-8.7.1-3.8.8-7.3.8-7.3l.4-2c-1.7.4-3.4.7-5.4.9 0 .2-.8 4-.9 8.3-.1 6.2 1.2 10.4 3.8 12.5 1.9 1.5 4.2 2.4 6.2 3.2 2.2.9 4.2 1.7 4.6 2.8.3.7-.3 3.1-2.1 6.3" class="st0"/><path id="path9" d="M59.3 35.1c0-10.2 1-18.1 2.9-23.3 1.3-3.7 3.1-6.1 5-6.8 3.2-1.2 7.3 1.9 8.6 3.2l.9.9 1.3-.2c6-.8 7.2.5 7.3.6.4.5 0 1.8-.3 2.4l4.5 2.2c.2-.4 2.3-4.2 0-7.3-1.8-2.4-5.4-3.3-10.9-2.7-.7-.6-1.8-1.4-3.2-2.2-3.5-2-7-2.4-10-1.3-4 1.4-6.9 5.4-8.7 11.9C54.8 6 52 2.1 48 .6 45-.5 41.5 0 38 1.9c-1.3.7-2.5 1.6-3.2 2.2-5.5-.6-9.1.3-10.9 2.7-2.3 3.1-.3 6.9 0 7.3l4.5-2.2c-.3-.6-.7-1.8-.3-2.4.1-.1 1.3-1.4 7.3-.6l1.3.2.9-.9S38.9 7 40.7 6c2.1-1.2 4-1.5 5.5-1 2 .7 3.7 3.1 5 6.8 1.9 5.3 2.8 13.1 2.9 23.3v12.5h5.2V35.1z" class="st0"/><path id="path11" d="M46.7 19.5c-.8-3.9-2.3-5.8-2.4-6l-4.1 2.9s1.1 1.4 1.6 4.4c.9 5.1-.5 10.8-1.8 14.7l4.9 1.4c2.1-6.6 2.7-12.5 1.8-17.4" class="st0"/><path id="path13" d="M73.5 35.4c-4.4-13.3-.2-19.1-.2-19.1l-4.1-2.9c-.2.2-1.7 2.2-2.4 6-1 5-.3 10.8 1.8 17.3l4.9-1.3z" class="st0"/><path id="path15" d="M61.5 121.5c-.5 3.2-1.4 7.7-3.7 10.5-.4.5-.8.9-1.1 1.3-.3-.4-.7-.8-1.1-1.3-2.4-2.8-3.2-7.3-3.7-10.5l-5.1.6c.5 3.7 1.6 9.1 4.8 12.8 2 2.4 2.8 3.4 3 3.7.5.8 2.1 3.1 2.1 3.1s1.6-2.3 2.1-3.1c.2-.3.9-1.3 3-3.7 1.5-1.8 3.6-5 4.8-12.8l-5.1-.6z" class="st0"/><path id="path17" d="M24.6 89.6l1.8 4.5c4.9-1.7 9.1-5.1 12.2-8.1-2.3 4.2-4.6 9.4-4.4 14.4l5.1-.1c-.1-5.1 3.1-11.1 5.6-15-3-.9-6.3-2.1-8.7-3.8-2.8 2.8-7 6.5-11.6 8.1" class="st0"/><path id="path19" d="M19.8 100.3c-.6-.8-1.5-2.2-2.9-3.3-3.2-2.7-7-3.3-10.6-1.6l2.2 4.3c1.1-.5 2.7-.9 4.8.8.8.7 1.5 1.5 1.9 2.1 1.2-1.4 2.8-2.3 4.6-2.3" class="st0"/><path id="path21" d="M25.2 104.2l6.6-5.8-3.7-3.3-6.3 5.5c1.6.7 2.9 1.9 3.4 3.6" class="st0"/><path id="path23" d="M25.5 106.8c.7.4 1.8 1.2 2.8 2.4 1.3 1.7 2.5 4.6.6 8.8l-4.7-1.9c.8-1.6.8-3 0-4-.4-.6-1-1-1.3-1.2 1.4-.9 2.4-2.4 2.6-4.1" class="st0"/><path id="path25" d="M19.5 114.6c0-1.4.7-2.9.7-2.9h-.4c-1.7 0-3.3-.8-4.3-2 0 0-1.2 2.1-1.2 5s1.4 7.5 7.9 10.2l2-4.7c-4.4-1.9-4.7-4.2-4.7-5.6" class="st0"/><path id="path27" d="M14.7 108.4c-.3-.7-.5-1.5-.5-2.4 0-.8.2-1.7.5-2.4 0 0-8.5.3-10.5 8.6 0 0 1 1.5 2.5 3.1 1.1 1.1 2.7 2.5 2.7 2.5-2.2-8.8 5.3-9.4 5.3-9.4" class="st0"/><path id="path29" d="M40.7 46.5c.8-1.5 1.5-3 2.1-4.4-11.1-5-13.3-9.1-15.6-13.8-2-3.9-4.2-8.3-11.3-13.1C5.3 8 1.5 2.9 0 .4v7.9c2.9 3.1 6.7 6.5 13.2 10.9 6.1 4.1 7.8 7.6 9.7 11.3 2.5 5.1 5.2 10.3 17.8 16" class="st0"/><path id="path31" d="M88.8 89.6L87 94.1c-4.9-1.7-9.1-5.1-12.2-8.1 2.3 4.2 4.6 9.4 4.4 14.4l-5.1-.1c.1-5.1-3.1-11.1-5.6-15 3-.9 6.3-2.1 8.7-3.8 2.9 2.8 7 6.5 11.6 8.1" class="st0"/><path id="path33" d="M93.6 100.3c.6-.8 1.5-2.2 2.9-3.3 3.2-2.7 7-3.3 10.6-1.6l-2.2 4.3c-1.1-.5-2.7-.9-4.8.8-.8.7-1.5 1.5-1.9 2.1-1.1-1.4-2.8-2.3-4.6-2.3" class="st0"/><path id="path35" d="M88.2 104.2l-6.6-5.8 3.7-3.3 6.3 5.5c-1.6.7-2.9 1.9-3.4 3.6" class="st0"/><path id="path37" d="M87.9 106.8c-.7.4-1.8 1.2-2.8 2.4-1.3 1.7-2.5 4.6-.6 8.8l4.7-1.9c-.8-1.6-.8-3 0-4 .4-.6 1-1 1.3-1.2-1.4-.9-2.3-2.4-2.6-4.1" class="st0"/><path id="path39" d="M97.9 109.8c-1 1.2-2.6 2-4.3 2h-.4s.7 1.5.7 2.9-.3 3.7-4.7 5.6l2 4.7c6.5-2.7 7.9-7.3 7.9-10.2 0-2.9-1.2-5-1.2-5" class="st0"/><path id="path41" d="M98.8 103.6c.3.7.5 1.5.5 2.4 0 .9-.2 1.7-.5 2.4 0 0 7.5.6 5.3 9.5 0 0 1.6-1.4 2.7-2.5 1.6-1.7 2.6-3.1 2.6-3.1-2.1-8.3-10.6-8.7-10.6-8.7" class="st0"/><path id="path43" d="M72.7 46.5c-.8-1.5-1.5-3-2.1-4.4 11.1-5 13.3-9.1 15.6-13.8 2-3.9 4.2-8.3 11.3-13.1C108.1 8 111.9 2.8 113.4.4v7.9c-2.9 3.1-6.7 6.5-13.2 10.9-6.1 4.1-7.8 7.6-9.7 11.3-2.5 5.1-5.2 10.3-17.8 16" class="st0"/><path id="path45" d="M40.7 119.9c-3.4.7-5.1 1.4-5.1 1.4-2.2-3.9-2.8-6.9-1.8-9.3 1.2-3.1 4.5-4.4 7.4-5.6 1.8-.7 3.6-1.4 4.9-2.5.7-.5 2.2-2.4 2-8.7-.1-3.8-.8-7.3-.8-7.3l-.4-2c1.7.4 3.4.7 5.4.9 0 .2.8 4 .9 8.3.1 6.2-1.2 10.4-3.8 12.5-1.9 1.5-4.2 2.4-6.2 3.2-2.2.9-4.2 1.7-4.6 2.8-.3.7.3 3.1 2.1 6.3" class="st0"/><path id="path47" d="M34.5 74.8c1.1-6 1.8-10.3 10.8-10.3v-4.9c-13 0-14.5 8.3-15.6 14.3-.2.9-.3 1.8-.5 2.6.9.8 2.3 1.9 4.2 3.2.5-1.5.8-3.2 1.1-4.9" class="st0"/><path id="path49" d="M23.2 50.2c-3.8 2.8-9 8.2-10.3 17.5-1 7.1-2.7 11.4-4.9 14.3-.5.6-3.5 3.7-8 6.1v5.5c1.4-.6 3.1-1.5 4.3-2.2 2.4-1.5 5-3.2 7.1-5.8.3-.4.5-.6.6-.7.3-.4.6-.8.9-1.3 2.4-3.7 4-8.5 4.9-15.2.7-5 2.8-9.2 6.3-12.6.9-.9 2-1.7 2.7-2.3-1.3-1.1-2.5-2.2-3.6-3.3" class="st0"/><path id="path51" d="M7.5 56.1c-.9 2.2-2.1 4.8-3.6 6.7-1.1 1.4-2.5 2.3-3.9 2.6v5c2.8-.4 5.5-1.9 7.7-4.5 2-2.4 3.3-5.4 4.3-7.9 1.9-4.5 6.2-8.8 9.1-10.4-1-1.4-1.8-2.8-2.4-4.2-4.1 2.3-9 7.3-11.2 12.7" class="st0"/><path id="path53" d="M13 37.1c-2.9 2.1-6.9 4.9-13 5.2v4.9c7.7-.3 12.5-3.7 15.8-6.1.5-.4 1.1-.7 1.5-1.1-.5-1.7-.9-3.4-1.1-5-1 .6-2.1 1.3-3.2 2.1" class="st0"/><path id="path55" d="M27.1 57.9c-2.8 2.7-4.5 6.1-5.1 10.2-1.1 7.3-2.8 12.7-5.6 16.9-.2.3-.3.5-.5.8l4.3 2.6.6-.9c3.1-4.8 5.1-10.7 6.3-18.7.4-3.1 1.7-5.6 3.7-7.5.5-.4 1.3-1.3 3.2-2.3l.1-.1c.7-.3 1.4-.7 2.1-1-2.2-.7-4.2-1.5-5.9-2.4-1.3.9-2.8 2-3.2 2.4" class="st0"/><path id="path57" d="M15.9 26.7c-1.9-.1-8.8-.6-15.9-3.6v5.3c7.1 2.7 13.7 3.1 15.9 3.2-.1-2 0-3.7 0-4.9" class="st0"/><path id="path59" d="M78.8 74.8c-1.1-6-1.8-10.3-10.8-10.3v-4.9c13 0 14.5 8.3 15.6 14.3.2.9.3 1.8.5 2.6-.9.8-2.3 1.9-4.2 3.2-.5-1.5-.9-3.2-1.1-4.9" class="st0"/><path id="path61" d="M90 50.2c3.8 2.8 9 8.2 10.3 17.5 1 7.1 2.7 11.4 4.9 14.3.5.6 3.5 3.7 8 6.1v5.5c-1.4-.6-3.1-1.5-4.3-2.2-2.4-1.5-5-3.2-7.1-5.8-.3-.4-.5-.6-.6-.7-.3-.4-.6-.8-.9-1.3-2.4-3.7-4-8.5-4.9-15.2-.7-5-2.8-9.2-6.3-12.6-.9-.9-2-1.7-2.7-2.3 1.3-1.1 2.6-2.2 3.6-3.3" class="st0"/><path id="path63" d="M105.7 56.1c.9 2.2 2 4.8 3.6 6.7 1.1 1.4 2.5 2.3 3.9 2.6v5c-2.8-.4-5.5-1.9-7.7-4.5-2-2.4-3.3-5.4-4.3-7.9-1.9-4.5-6.2-8.8-9.1-10.4 1-1.4 1.8-2.8 2.4-4.2 4.1 2.3 9 7.3 11.2 12.7" class="st0"/><path id="path65" d="M100.2 37.1c2.9 2.1 6.9 4.9 13 5.2v4.9c-7.7-.3-12.5-3.7-15.8-6.1-.5-.4-1.1-.7-1.5-1.1.5-1.7.9-3.4 1.1-5 1 .6 2.1 1.3 3.2 2.1" class="st0"/><path id="path67" d="M86.1 57.9c2.8 2.7 4.5 6.1 5.1 10.2 1.1 7.3 2.8 12.7 5.6 16.9.2.3.3.5.5.8L93 88.4l-.6-.9c-3.1-4.8-5.1-10.7-6.3-18.7-.4-3.1-1.7-5.6-3.7-7.5-.5-.4-1.3-1.3-3.2-2.3l-.1-.1c-.7-.3-1.4-.7-2.1-1 2.2-.7 4.2-1.5 5.9-2.4 1.3.9 2.8 2 3.2 2.4" class="st0"/><path id="path69" d="M97.3 26.7c1.9-.1 8.8-.6 15.9-3.6v5.3c-7.1 2.7-13.7 3.1-15.9 3.2.1-2 0-3.7 0-4.9" class="st0"/></g></svg>