<svg xmlns="http://www.w3.org/2000/svg" width="36" height="36" viewBox="0 0 36 36">
  <metadata><?xpacket begin="﻿" id="W5M0MpCehiHzreSzNTczkc9d"?>
<x:xmpmeta xmlns:x="adobe:ns:meta/" x:xmptk="Adobe XMP Core 5.6-c142 79.160924, 2017/07/13-01:06:39        ">
   <rdf:RDF xmlns:rdf="http://www.w3.org/1999/02/22-rdf-syntax-ns#">
      <rdf:Description rdf:about=""/>
   </rdf:RDF>
</x:xmpmeta>
                                                                                                    
                                                                                                    
                                                                                                    
                                                                                                    
                                                                                                    
                                                                                                    
                                                                                                    
                                                                                                    
                                                                                                    
                                                                                                    
                                                                                                    
                                                                                                    
                                                                                                    
                                                                                                    
                                                                                                    
                                                                                                    
                                                                                                    
                                                                                                    
                                                                                                    
                                                                                                    
                           
<?xpacket end="w"?></metadata>
<defs>
    <style>
      .cls-1 {
        fill: #004195;
        fill-rule: evenodd;
      }
    </style>
  </defs>
  <path class="cls-1" d="M1511,79a9.167,9.167,0,0,0-9,9.325,9.452,9.452,0,0,0,2.65,6.608,0.225,0.225,0,0,0,.36-0.052,6.572,6.572,0,0,1,3.75-3.105,4.194,4.194,0,0,1-1.77-3.452,4.013,4.013,0,1,1,8.02,0,4.194,4.194,0,0,1-1.77,3.452,6.572,6.572,0,0,1,3.75,3.105,0.225,0.225,0,0,0,.36.052,9.452,9.452,0,0,0,2.65-6.608A9.167,9.167,0,0,0,1511,79Z" transform="translate(-1493 -69)"/>
</svg>
