<svg id="Color" xmlns="http://www.w3.org/2000/svg" width="130" height="30" viewBox="0 0 130 30">
  <metadata><?xpacket begin="﻿" id="W5M0MpCehiHzreSzNTczkc9d"?>
<x:xmpmeta xmlns:x="adobe:ns:meta/" x:xmptk="Adobe XMP Core 5.6-c142 79.160924, 2017/07/13-01:06:39        ">
   <rdf:RDF xmlns:rdf="http://www.w3.org/1999/02/22-rdf-syntax-ns#">
      <rdf:Description rdf:about=""/>
   </rdf:RDF>
</x:xmpmeta>
                                                                                                    
                                                                                                    
                                                                                                    
                                                                                                    
                                                                                                    
                                                                                                    
                                                                                                    
                                                                                                    
                                                                                                    
                                                                                                    
                                                                                                    
                                                                                                    
                                                                                                    
                                                                                                    
                                                                                                    
                                                                                                    
                                                                                                    
                                                                                                    
                                                                                                    
                                                                                                    
                           
<?xpacket end="w"?></metadata>
<defs>
    <style>
      .cls-1 {
        fill: #004279;
      }

      .cls-1, .cls-2 {
        fill-rule: evenodd;
      }

      .cls-2 {
        fill: #d70043;
      }
    </style>
  </defs>
  <path id="Forus" class="cls-1" d="M9.759,8.442v3.713H21.578a0.357,0.357,0,0,1,.358.356v4.643a0.357,0.357,0,0,1-.358.356H9.759V26.9H3.36A0.357,0.357,0,0,1,3,26.543V3.443A0.357,0.357,0,0,1,3.36,3.087H21.853a0.357,0.357,0,0,1,.358.356V8.086a0.357,0.357,0,0,1-.358.356H9.759Zm62.2,9.71,4.583,8.225a0.351,0.351,0,0,1-.309.522H69.994a0.354,0.354,0,0,1-.316-0.195l-3.916-7.8H62.609v7.645a0.352,0.352,0,0,1-.353.351H56.8a0.352,0.352,0,0,1-.353-0.351V3.087H68.414c5.3,0,8.313,3.5,8.313,7.926a7.216,7.216,0,0,1-4.766,7.139h0Zm-4.479-9.71H62.949a0.339,0.339,0,0,0-.34.339v4.428a0.339,0.339,0,0,0,.34.338h4.533c1.613,0,2.974-.893,2.974-2.57,0-1.606-1.362-2.534-2.974-2.534h0Zm35.289,8.366c0,5.926-3.618,10.1-11.249,10.1-7.7,0-11.32-4.212-11.32-10.067L80.243,3.45a0.343,0.343,0,0,1,.344-0.341H86.16a0.344,0.344,0,0,1,.344.344L86.471,16.63c0,2.82,1.684,4.855,5.051,4.855,3.3,0,5.015-2.035,5.015-4.855L96.56,3.45A0.344,0.344,0,0,1,96.9,3.108h5.538a0.344,0.344,0,0,1,.344.343l-0.015,13.358h0Zm13.135-8.626c-1.818,0-2.618.691-2.618,1.658,0,2.935,13.709.794,13.709,9.357,0,4.626-3.6,7.7-10.109,7.7-4.752,0-8.106-1.358-10.526-3.449a0.344,0.344,0,0,1-.048-0.465l2.89-3.891a0.35,0.35,0,0,1,.513-0.049,11.275,11.275,0,0,0,7.462,2.779c2.145,0,3.454-.794,3.454-1.9,0-3.142-13.745-.622-13.745-9.495,0-3.867,3.454-7.319,9.673-7.319A15.414,15.414,0,0,1,126.142,6.1a0.345,0.345,0,0,1,.054.489l-2.99,3.715a0.346,0.346,0,0,1-.476.059,11.865,11.865,0,0,0-6.824-2.181h0Z"/>
  <path id="Symbol" class="cls-2" d="M39.293,3.108a13.7,13.7,0,0,0-9.7,23.428,0.347,0.347,0,0,0,.545-0.076,9.995,9.995,0,0,1,5.731-4.566,6.131,6.131,0,1,1,6.842,0,9.995,9.995,0,0,1,5.731,4.566,0.347,0.347,0,0,0,.545.076A13.7,13.7,0,0,0,39.293,3.108Z"/>
</svg>
