<svg xmlns="http://www.w3.org/2000/svg" role="presentation" width="23" height="22" fill="none" viewBox="0 0 23 22"><path fill="#282B39" fill-rule="evenodd" d="M11.255 0C8.14574 0 5.62739 2.45896 5.62739 5.49487C5.62739 8.53079 8.14574 10.9897 11.255 10.9897C14.3642 10.9897 16.8826 8.53079 16.8826 5.49487C16.8826 2.45896 14.3642 0 11.255 0ZM14.0688 5.49475C14.0688 3.98366 12.8026 2.74731 11.255 2.74731C9.70745 2.74731 8.44125 3.98366 8.44125 5.49475C8.44125 7.00584 9.70745 8.24219 11.255 8.24219C12.8026 8.24219 14.0688 7.00584 14.0688 5.49475ZM19.6963 18.0284C19.6963 17.9156 19.6855 17.8014 19.6242 17.7066C18.9809 16.7104 14.8639 15.1108 11.2549 15.1108C7.64037 15.1108 3.51628 16.7154 2.88266 17.723C2.82387 17.8165 2.81354 17.928 2.81354 18.0385C2.81354 18.6976 3.34789 19.232 4.00705 19.232H18.4927C19.1574 19.232 19.6963 18.6931 19.6963 18.0284ZM0 17.8582C0 14.2041 7.49876 12.3633 11.2552 12.3633C15.0116 12.3633 22.5103 14.2041 22.5103 17.8582V18.9794C22.5103 20.6362 21.1672 21.9794 19.5103 21.9794H3C1.34315 21.9794 0 20.6362 0 18.9794V17.8582Z" clip-rule="evenodd"/></svg>