<svg width="28" height="34"  viewBox="0 0 28 34" fill="none" xmlns="http://www.w3.org/2000/svg"><path opacity=".85" fill-rule="evenodd" clip-rule="evenodd" d="M25.076 6.942L22.4 8.491v3.1l2.676 1.55 2.677-1.55v-3.1l-2.677-1.549z" fill="#939698"/><path fill-rule="evenodd" clip-rule="evenodd" d="M0 8.49v3.102l2.676 1.548 2.677-1.548V8.49L2.676 6.942 0 8.491z" fill="#939698"/><path fill-rule="evenodd" clip-rule="evenodd" d="M0 8.573l2.676 1.55 2.677-1.55-2.677-1.548L0 8.573z" fill="#939698"/><path opacity=".099" fill-rule="evenodd" clip-rule="evenodd" d="M11.2 1.549v3.1l2.677 1.55 2.676-1.55v-3.1L13.877 0 11.2 1.549z" fill="#25262A"/><path fill-rule="evenodd" clip-rule="evenodd" d="M11.2 29.317v3.101l2.677 1.549 2.676-1.549v-3.1l-2.676-1.55-2.677 1.55z" fill="#939698"/><path opacity=".85" fill-rule="evenodd" clip-rule="evenodd" d="M22.4 22.044v3.101l2.676 1.549 2.677-1.549v-3.1l-2.677-1.55-2.676 1.55z" fill="#939698"/><path fill-rule="evenodd" clip-rule="evenodd" d="M0 22.044v3.101l2.676 1.549 2.677-1.549v-3.1l-2.677-1.55L0 22.046z" fill="#939698"/><path d="M2.1 23.182l10.5 6.884M23.66 24.446l-10.5 6.885" stroke="#939698" stroke-width="1.5" stroke-linecap="square"/><path fill-rule="evenodd" clip-rule="evenodd" d="M11.2 29.367l2.676 1.55 2.677-1.55-2.677-1.549-2.676 1.549z" fill="#939698"/><path d="M2.66 12.223V25.15" stroke="#939698" stroke-width="1.5" stroke-linecap="square"/><path fill-rule="evenodd" clip-rule="evenodd" d="M14 12.645c-3.093 0-5.6 2.474-5.6 5.527 0 1.53.63 2.916 1.65 3.916a.142.142 0 00.221-.03c.478-.852 1.314-1.517 2.336-1.841a2.454 2.454 0 01-1.105-2.046c0-1.362 1.119-2.465 2.498-2.465 1.38 0 2.498 1.103 2.498 2.465 0 .852-.439 1.603-1.104 2.046 1.02.324 1.857.99 2.335 1.84.044.08.156.095.221.031a5.473 5.473 0 001.65-3.916c0-3.053-2.507-5.527-5.6-5.527z" fill="#939698"/></svg>