<svg width="26" height="22" viewBox="0 0 26 22" fill="none" xmlns="http://www.w3.org/2000/svg">
<path d="M13.0001 0.75C6.09223 0.75 0.500122 6.1361 0.500122 12.773C0.500122 16.1083 1.9099 19.1168 4.17728 21.2916C4.31826 21.4268 4.57672 21.393 4.6707 21.224C5.73978 19.376 7.60773 17.9224 9.88687 17.2238C8.39486 16.266 7.41976 14.6209 7.41976 12.773C7.41976 9.80947 9.92211 7.40939 13.0001 7.40939C16.0781 7.40939 18.5805 9.80947 18.5805 12.773C18.5805 14.6322 17.6054 16.266 16.1134 17.2238C18.3925 17.9337 20.2605 19.376 21.3295 21.224C21.4235 21.393 21.682 21.4268 21.823 21.2916C24.1021 19.1168 25.5001 16.097 25.5001 12.773C25.5001 6.1361 19.8963 0.75 13.0001 0.75Z" fill="#939698"/>
</svg>
