<svg width="34" height="35" viewBox="0 0 34 35" fill="none" xmlns="http://www.w3.org/2000/svg">
<path d="M27.351 17.038L17.451 7.138C17.055 6.742 16.505 6.5 15.9 6.5H8.2C6.99 6.5 6 7.49 6 8.7V16.4C6 17.005 6.242 17.555 6.649 17.962L16.549 27.862C16.945 28.258 17.495 28.5 18.1 28.5C18.705 28.5 19.255 28.258 19.651 27.851L27.351 20.151C27.758 19.755 28 19.205 28 18.6C28 17.995 27.747 17.434 27.351 17.038ZM9.85 12C8.937 12 8.2 11.263 8.2 10.35C8.2 9.437 8.937 8.7 9.85 8.7C10.763 8.7 11.5 9.437 11.5 10.35C11.5 11.263 10.763 12 9.85 12Z" fill="#4F4F4F"/>
</svg>
