<svg xmlns="http://www.w3.org/2000/svg" role="presentation" width="25" height="25" fill="none" viewBox="0 0 25 25"><path fill="#939698" d="M24.263 11.975L13.013.725A2.484 2.484 0 0011.25 0H2.5A2.507 2.507 0 000 2.5v8.75c0 .688.275 1.313.738 1.775l11.25 11.25c.45.45 1.075.725 1.762.725.688 0 1.313-.275 1.763-.738l8.75-8.75c.462-.45.737-1.075.737-1.762 0-.688-.287-1.325-.737-1.775zM4.375 6.25A1.872 1.872 0 012.5 4.375c0-1.038.838-1.875 1.875-1.875 1.038 0 1.875.837 1.875 1.875A1.872 1.872 0 014.375 6.25z"/></svg>