<svg xmlns="http://www.w3.org/2000/svg" width="26" height="26" viewBox="0 0 26 26">
  <metadata><?xpacket begin="﻿" id="W5M0MpCehiHzreSzNTczkc9d"?>
<x:xmpmeta xmlns:x="adobe:ns:meta/" x:xmptk="Adobe XMP Core 5.6-c142 79.160924, 2017/07/13-01:06:39        ">
   <rdf:RDF xmlns:rdf="http://www.w3.org/1999/02/22-rdf-syntax-ns#">
      <rdf:Description rdf:about=""/>
   </rdf:RDF>
</x:xmpmeta>
                                                                                                    
                                                                                                    
                                                                                                    
                                                                                                    
                                                                                                    
                                                                                                    
                                                                                                    
                                                                                                    
                                                                                                    
                                                                                                    
                                                                                                    
                                                                                                    
                                                                                                    
                                                                                                    
                                                                                                    
                                                                                                    
                                                                                                    
                                                                                                    
                                                                                                    
                                                                                                    
                           
<?xpacket end="w"?></metadata>
<defs>
    <style>
      .cls-1 {
        fill: #646f79;
        fill-rule: evenodd;
      }
    </style>
  </defs>
  <path id="icon-menu-my-vouchers" class="cls-1" d="M13.379,2h0.034a1.676,1.676,0,0,1,.678.171,2.272,2.272,0,0,1,.624.51l5.472,5.594a2.556,2.556,0,0,1,.553.692,1.827,1.827,0,0,1,.168.707h0a1.719,1.719,0,0,1-.5,1.176q-3.26,3.336-6.523,6.668a0.536,0.536,0,0,1-.527.176c-0.2-.037-0.305-0.245-0.5-0.282a0.522,0.522,0,0,0-.561.234,0.543,0.543,0,0,0,.054.645,0.576,0.576,0,0,1,.16.5,1.215,1.215,0,0,1-.406.552,3.761,3.761,0,0,1-.928.806,1.678,1.678,0,0,1-.645.155H10.492a1.624,1.624,0,0,1-1.125-.5Q6.5,16.871,3.63,13.938a2.187,2.187,0,0,1-.463-0.6A1.773,1.773,0,0,1,3,12.65V12.6a1.664,1.664,0,0,1,.4-1.043c0.243-.276.511-0.528,0.764-0.794a0.54,0.54,0,0,1,.513-0.181c0.218,0.034.335,0.277,0.56,0.294a0.532,0.532,0,0,0,.6-0.591c-0.01-.243-0.267-0.37-0.293-0.607A0.6,0.6,0,0,1,5.757,9.14Q9,5.828,12.246,2.511A1.635,1.635,0,0,1,13.379,2m-0.36,1.237Q9.877,6.448,6.736,9.66a1.673,1.673,0,0,1,0,1.386c0.15,0.158.309,0.308,0.455,0.47a0.544,0.544,0,0,1-.015.723,0.517,0.517,0,0,1-.7.047c-0.167-.152-0.318-0.323-0.48-0.482a1.583,1.583,0,0,1-1.357,0c-0.148.152-.3,0.3-0.445,0.456a0.552,0.552,0,0,0,.022.756Q7.17,16.04,10.128,19.06a0.52,0.52,0,0,0,.719.038c0.161-.151.309-0.315,0.465-0.47a1.683,1.683,0,0,1,0-1.387c-0.154-.166-0.321-0.318-0.468-0.489a0.543,0.543,0,0,1,.013-0.687A0.516,0.516,0,0,1,11.578,16c0.166,0.152.316,0.322,0.477,0.48a1.589,1.589,0,0,1,1.359,0l6.267-6.405a0.555,0.555,0,0,0,.154-0.547,0.869,0.869,0,0,0-.266-0.371q-2.9-2.956-5.789-5.915A0.523,0.523,0,0,0,13.019,3.237ZM12.49,5.376a0.52,0.52,0,0,1,.639.284,2.651,2.651,0,0,1,.1.421q0.7,3.587,1.405,7.175a0.643,0.643,0,0,1-.03.455,0.522,0.522,0,0,1-.623.265,0.553,0.553,0,0,1-.368-0.459Q12.879,9.76,12.144,6A0.539,0.539,0,0,1,12.49,5.376ZM10.118,8.1a1.561,1.561,0,0,1,1.123.2,1.6,1.6,0,0,1,.687.907,1.63,1.63,0,0,1-.146,1.274,1.575,1.575,0,0,1-.95.74,1.535,1.535,0,0,1-1.178-.155,1.586,1.586,0,0,1-.714-0.885,1.631,1.631,0,0,1,.1-1.26A1.576,1.576,0,0,1,10.118,8.1m0.133,1.069a0.535,0.535,0,0,0-.339.584,0.529,0.529,0,0,0,.573.451,0.535,0.535,0,0,0,.457-0.631A0.526,0.526,0,0,0,10.252,9.172ZM16.063,8.1a1.534,1.534,0,0,1,1.03.156,1.582,1.582,0,0,1,.768.941,1.635,1.635,0,0,1-.136,1.275,1.575,1.575,0,0,1-.862.723,1.53,1.53,0,0,1-1.175-.074,1.585,1.585,0,0,1-.838-1.033A1.63,1.63,0,0,1,14.993,8.9a1.58,1.58,0,0,1,1.069-.8M16.2,9.167a0.539,0.539,0,0,0-.347.612,0.528,0.528,0,0,0,.581.426,0.534,0.534,0,0,0,.445-0.627A0.525,0.525,0,0,0,16.2,9.167ZM8.086,12.889a0.512,0.512,0,0,1,.495.058,2.252,2.252,0,0,1,.237.227c0.443,0.454.889,0.9,1.329,1.361a0.545,0.545,0,0,1-.021.754,0.518,0.518,0,0,1-.737-0.017c-0.5-.512-1.006-1.02-1.5-1.537A0.543,0.543,0,0,1,8.086,12.889Z" transform="translate(1.047 1.844)"/>
</svg>
