<svg xmlns="http://www.w3.org/2000/svg" width="36" height="36" viewBox="0 0 36 36"><path fill="#8ca3a6" fill-rule="evenodd" d="M18.123 21.964a.653.653 0 000 .923.661.661 0 00.928 0 .655.655 0 00-.928-.923zm-3.254-2.658a.661.661 0 00-.928 0 .653.653 0 000 .923.661.661 0 00.928 0 .653.653 0 000-.923zM25.34 8.831c-.2-.49-.824-1.314-2.715-1.331h-.056a10.656 10.656 0 00-3.9.863c-.25.1-.492.21-.725.326l-.013-.013a2.011 2.011 0 00-2.793 0l-3.807 3.68a2.572 2.572 0 00-.79 1.855v12.468a1.826 1.826 0 001.828 1.821h8.33a1.826 1.826 0 001.83-1.821V14.212a2.517 2.517 0 00-.216-1.026 9.358 9.358 0 002.05-1.507c1.318-1.336 1.18-2.358.977-2.848zM12.823 19.769a1.584 1.584 0 111.584 1.576 1.584 1.584 0 01-1.584-1.576zm1.346 4.123a.386.386 0 01-.052-.541l4.161-4.986a.39.39 0 01.544-.051.385.385 0 01.052.541l-4.16 4.985a.39.39 0 01-.545.052zm4.42.112a1.576 1.576 0 111.58-1.576A1.584 1.584 0 0118.59 24zm1.757-11.578a10.4 10.4 0 01-2.352.67v.1a1.511 1.511 0 11-.3-.9 10.717 10.717 0 002.21-.644c.263-.107.509-.219.742-.335l-1.528-1.482c.043-.017.086-.034.13-.056a9.234 9.234 0 013.321-.746h.043a1.491 1.491 0 011.3.382c.163.395-.851 1.898-3.566 3.011z"/></svg>