<svg width="34" height="35" viewBox="0 0 34 35" fill="none" xmlns="http://www.w3.org/2000/svg">
<path d="M26.9999 16V12C26.9999 10.89 26.0999 10 24.9999 10H8.99994C7.89994 10 7.00994 10.89 7.00994 12V16C8.10994 16 8.99994 16.9 8.99994 18C8.99994 19.1 8.10994 20 6.99994 20V24C6.99994 25.1 7.89994 26 8.99994 26H24.9999C26.0999 26 26.9999 25.1 26.9999 24V20C25.8999 20 24.9999 19.1 24.9999 18C24.9999 16.9 25.8999 16 26.9999 16ZM17.9999 23.5H15.9999V21.5H17.9999V23.5ZM17.9999 19H15.9999V17H17.9999V19ZM17.9999 14.5H15.9999V12.5H17.9999V14.5Z" fill="#4F4F4F"/>
</svg>
