<svg width="34" height="35" viewBox="0 0 34 35" fill="none" xmlns="http://www.w3.org/2000/svg">
<path fill-rule="evenodd" clip-rule="evenodd" d="M11.6633 6.90521L12.9445 8.44101L8.33715 12.2846L7.05605 10.7488L11.6633 6.90521ZM22.3365 6.90581L26.9439 10.7494L25.6628 12.2852L21.0553 8.44161L22.3365 6.90581ZM8.00005 18.0948C8.00005 13.1248 12.03 9.09481 17 9.09481C21.97 9.09481 26 13.1248 26 18.0948C26 23.0648 21.97 27.0948 17 27.0948C12.03 27.0948 8.00005 23.0648 8.00005 18.0948ZM17 25.0948C13.14 25.0948 10 21.9548 10 18.0948C10 14.2348 13.14 11.0948 17 11.0948C20.86 11.0948 24 14.2348 24 18.0948C24 21.9548 20.86 25.0948 17 25.0948ZM16 17.0948V14.0948H18V17.0948H21V19.0948H18V22.0948H16V19.0948H13V17.0948H16Z" fill="#46494A"/>
</svg>
