<svg xmlns="http://www.w3.org/2000/svg" role="presentation" width="38" height="38" fill="none" viewBox="0 0 38 38"><path fill="#939698" fill-rule="evenodd" d="M19 3.16663C10.26 3.16663 3.16667 10.26 3.16667 19C3.16667 27.74 10.26 34.8333 19 34.8333C27.74 34.8333 34.8333 27.74 34.8333 19C34.8333 10.26 27.74 3.16663 19 3.16663ZM15.8333 26.125L25.3333 19L15.8333 11.875V26.125ZM6.33334 19C6.33334 25.9825 12.0175 31.6666 19 31.6666C25.9825 31.6666 31.6667 25.9825 31.6667 19C31.6667 12.0175 25.9825 6.33329 19 6.33329C12.0175 6.33329 6.33334 12.0175 6.33334 19Z" clip-rule="evenodd"/></svg>