<svg viewBox="0 0 20 20" xmlns="http://www.w3.org/2000/svg" role="presentation" fill-rule="evenodd" clip-rule="evenodd" stroke-linejoin="round" stroke-miterlimit="2"><path d="M10.012.685c-5.527 0-10 4.308-10 9.618 0 2.668 1.128 5.075 2.942 6.815.112.108.32.08.395-.054.855-1.479 2.35-2.642 4.172-3.2-1.193-.767-1.973-2.083-1.973-3.561 0-2.371 2.001-4.291 4.464-4.291 2.462 0 4.464 1.92 4.464 4.29 0 1.488-.78 2.795-1.974 3.562 1.823.568 3.318 1.721 4.174 3.2.075.135.281.162.394.054 1.823-1.74 2.942-4.156 2.942-6.815 0-5.31-4.484-9.618-10-9.618z" fill="#4F4F4F" fill-rule="nonzero"/><g transform="matrix(.99998 0 0 1 .012 -.09)"><clipPath><path d="M10 0C4.48 0 0 4.48 0 10s4.48 10 10 10 10-4.48 10-10S15.52 0 10 0zm1 15H9V9h2v6zm0-8H9V5h2v2z"/></clipPath><g clip-path="url(#a)"><g transform="matrix(.99944 0 0 .9955 0 .09)"><clipPath><path d="M0 0h20v20H0z"/></clipPath></g></g></g></svg> 