<?xml version="1.0" encoding="UTF-8" standalone="no"?>
<!DOCTYPE svg PUBLIC "-//W3C//DTD SVG 1.1//EN" "http://www.w3.org/Graphics/SVG/1.1/DTD/svg11.dtd">
<svg width="100%" height="100%" viewBox="0 0 20 20" version="1.1" xmlns="http://www.w3.org/2000/svg" xmlns:xlink="http://www.w3.org/1999/xlink" xml:space="preserve" xmlns:serif="http://www.serif.com/" style="fill-rule:evenodd;clip-rule:evenodd;stroke-linejoin:round;stroke-miterlimit:2;">
    <g transform="matrix(0.799984,0,0,0.8,-0.388015,0.0845427)">
        <path d="M13,0.75C6.092,0.75 0.5,6.136 0.5,12.773C0.5,16.108 1.91,19.117 4.177,21.292C4.318,21.427 4.577,21.393 4.671,21.224C5.74,19.376 7.608,17.922 9.887,17.224C8.395,16.266 7.42,14.621 7.42,12.773C7.42,9.809 9.922,7.409 13,7.409C16.078,7.409 18.581,9.809 18.581,12.773C18.581,14.632 17.605,16.266 16.113,17.224C18.392,17.934 20.261,19.376 21.33,21.224C21.424,21.393 21.682,21.427 21.823,21.292C24.102,19.117 25.5,16.097 25.5,12.773C25.5,6.136 19.896,0.75 13,0.75Z" style="fill:rgb(147,150,152);fill-rule:nonzero;"/>
    </g>
    <g transform="matrix(0.999981,0,0,1,0.0115414,-0.0900082)">
        <g>
            <clipPath id="_clip1">
                <path d="M10,0C4.48,0 0,4.48 0,10C0,15.52 4.48,20 10,20C15.52,20 20,15.52 20,10C20,4.48 15.52,0 10,0ZM11,15L9,15L9,9L11,9L11,15ZM11,7L9,7L9,5L11,5L11,7Z"/>
            </clipPath>
            <g clip-path="url(#_clip1)">
                <g transform="matrix(0.999437,0,0,0.9955,0.000451644,0.0900082)">
                    <clipPath id="_clip2">
                        <rect id="_Image2_" serif:id="_Image2" x="0" y="0" width="20" height="20"/>
                    </clipPath>
                    <g clip-path="url(#_clip2)">
                        <g transform="matrix(1.00058,-0,-0,1.00452,-0.012,0)">
                        </g>
                    </g>
                </g>
            </g>
        </g>
    </g>
</svg>
