<svg xmlns="http://www.w3.org/2000/svg" width="25" height="23" fill="none" viewBox="0 0 25 23"><path fill="#fff" fill-rule="evenodd" d="M18.2133 1.30493C16.4951 0.512543 14.7769 0.0371094 12.8868 0.0371094H12.5432C10.6532 0.0371094 8.93494 0.512543 7.21673 1.30493C5.49851 2.09732 3.95211 3.20667 2.92118 4.79145C1.54661 6.53471 0.6875 8.7534 0.6875 10.9721V11.289C0.6875 12.2399 0.859322 13.3493 1.20297 14.1416C2.06207 16.8358 3.78029 19.0545 6.35762 20.4808C8.07584 21.5901 10.3095 22.224 12.5432 22.224H12.8868C19.4161 22.0655 24.5707 17.3112 24.7425 11.289V10.9721C24.7425 9.54579 24.3989 8.27796 23.8834 7.16862L23.6909 6.72615C22.6082 4.39333 20.639 2.49818 18.2133 1.30493ZM11.6841 5.58391C11.8559 5.10848 12.3714 4.95 12.8869 4.79152C13.4023 4.79152 13.9178 5.26695 13.9178 5.90087V10.1798L18.5061 10.181C18.6876 10.1861 18.935 10.2115 19.0725 10.3382C19.4161 10.6552 19.5879 10.9722 19.4161 11.4476C19.4161 11.674 19.2408 11.8195 19.0154 11.942L18.7288 12.0815H13.9178V16.2019C13.9178 16.6774 13.746 16.9943 13.4023 17.1528C12.8869 17.4698 12.3714 17.3113 12.0278 16.9943C11.9817 16.9094 11.9357 16.8358 11.893 16.7676C11.7762 16.5811 11.6841 16.434 11.6841 16.2019V12.0815H7.21676C6.87311 12.0815 6.52947 12.0815 6.35765 11.923C6.014 11.6061 5.84218 11.1306 6.014 10.6552C6.18583 10.3382 6.70129 10.1798 7.04494 10.1798H11.5123V6.21782C11.5123 6.03215 11.5713 5.90086 11.6201 5.7921C11.6546 5.7152 11.6841 5.64955 11.6841 5.58391Z" clip-rule="evenodd"/></svg>