<svg width="59" height="58" viewBox="0 0 59 58" fill="none" xmlns="http://www.w3.org/2000/svg">
    <rect x="0.5" width="58" height="58" rx="8" fill="#F7F9FC"/>
    <path fill-rule="evenodd" clip-rule="evenodd" d="M41.8543 43.3158H17.1441C16.1794 43.3161 15.254 42.9314 14.5708 42.2462C13.8877 41.561 13.5026 40.6311 13.5 39.6606V18.3392C13.5026 17.3687 13.8878 16.4389 14.5709 15.7537C15.254 15.0685 16.1794 14.6839 17.1441 14.6842H41.8543C42.8192 14.6835 43.745 15.068 44.4285 15.7533C45.112 16.4385 45.4973 17.3686 45.5 18.3394V39.6606C45.4973 40.6314 45.112 41.5615 44.4285 42.2467C43.745 42.932 42.8192 43.3165 41.8543 43.3158Z" fill="#092DAA"/>
    <path fill-rule="evenodd" clip-rule="evenodd" d="M17.1441 16.2318C16.5878 16.2316 16.0542 16.4533 15.6602 16.8484C15.2662 17.2434 15.0441 17.7796 15.0425 18.3392V39.6606C15.0441 40.2202 15.2662 40.7563 15.6602 41.1514C16.0542 41.5465 16.5878 41.7682 17.1441 41.768H41.8543C42.4105 41.7682 42.9441 41.5465 43.3381 41.1514C43.732 40.7563 43.9542 40.2202 43.9558 39.6606V18.3392C43.9542 17.7796 43.732 17.2434 43.3381 16.8484C42.9441 16.4533 42.4105 16.2316 41.8543 16.2318H17.1441Z" fill="#305DFC"/>
    <path fill-rule="evenodd" clip-rule="evenodd" d="M35.4165 20.4876C35.2138 20.487 35.0158 20.4259 34.8475 20.3121C34.6793 20.1984 34.5483 20.037 34.4712 19.8484C34.3941 19.6597 34.3742 19.4524 34.4141 19.2524C34.4541 19.0524 34.552 18.8689 34.6956 18.7249C34.8391 18.5809 35.0219 18.4829 35.2208 18.4434C35.4197 18.4038 35.6257 18.4244 35.813 18.5026C36.0002 18.5808 36.1602 18.7131 36.2728 18.8827C36.3853 19.0523 36.4454 19.2517 36.4454 19.4557C36.4442 19.7295 36.3353 19.9918 36.1425 20.1851C35.9497 20.3785 35.6887 20.4872 35.4165 20.4876ZM37.9879 20.4876C37.7852 20.487 37.5872 20.4259 37.4189 20.3121C37.2507 20.1984 37.1197 20.037 37.0425 19.8484C36.9654 19.6597 36.9456 19.4524 36.9855 19.2524C37.0255 19.0524 37.1234 18.8689 37.2669 18.7249C37.4105 18.5809 37.5933 18.4829 37.7922 18.4434C37.9911 18.4038 38.1971 18.4244 38.3844 18.5026C38.5716 18.5808 38.7316 18.7131 38.8442 18.8827C38.9567 19.0523 39.0168 19.2517 39.0168 19.4557C39.0155 19.7295 38.9066 19.9918 38.7139 20.1851C38.5211 20.3785 38.2601 20.4872 37.9879 20.4876ZM40.5609 20.4876C40.3582 20.487 40.1602 20.4259 39.992 20.3121C39.8237 20.1984 39.6928 20.037 39.6156 19.8484C39.5385 19.6597 39.5186 19.4524 39.5586 19.2524C39.5985 19.0524 39.6964 18.8689 39.84 18.7249C39.9836 18.5809 40.1664 18.4829 40.3653 18.4434C40.5641 18.4038 40.7702 18.4244 40.9574 18.5026C41.1447 18.5808 41.3047 18.7131 41.4172 18.8827C41.5298 19.0523 41.5898 19.2517 41.5898 19.4557C41.5886 19.7295 41.4797 19.9918 41.2869 20.1851C41.0942 20.3785 40.8331 20.4872 40.5609 20.4876Z" fill="#E6ECFF"/>
    <path d="M39.2305 29.7185C39.2305 35.0565 34.9031 39.3836 29.5652 39.3836C24.2273 39.3836 19.8999 35.0565 19.8999 29.7185C19.8999 24.3805 24.2273 20.053 29.5652 20.053C34.9031 20.053 39.2305 24.3805 39.2305 29.7185Z" fill="url(#paint0_linear_735_49429)"/>
    <path d="M39.2305 29.7185C39.2305 35.0565 34.9031 39.3836 29.5652 39.3836C24.2273 39.3836 19.8999 35.0565 19.8999 29.7185C19.8999 24.3805 24.2273 20.053 29.5652 20.053C34.9031 20.053 39.2305 24.3805 39.2305 29.7185Z" fill="url(#paint1_linear_735_49429)"/>
    <path d="M35.4963 24.5867C34.8713 23.9404 33.8587 23.9404 33.2338 24.5867L29.565 28.3802L27.965 30.0347L25.8962 27.8955C25.2713 27.2493 24.2587 27.2493 23.6338 27.8955C23.0088 28.5417 23.0088 29.5887 23.6338 30.235L26.8337 33.5438C27.1463 33.867 27.5556 34.0285 27.9649 34.0285C28.3742 34.0285 28.7837 33.867 29.0961 33.5438L29.5649 33.059L35.4961 26.9261C36.1213 26.2798 36.1213 25.2329 35.4963 24.5867Z" fill="white"/>
    <defs>
        <linearGradient id="paint0_linear_735_49429" x1="29.5652" y1="20.053" x2="29.5652" y2="39.3836" gradientUnits="userSpaceOnUse">
            <stop stop-color="#0A33C1"/>
            <stop offset="1" stop-color="#0A33C1" stop-opacity="0"/>
        </linearGradient>
        <linearGradient id="paint1_linear_735_49429" x1="29.5652" y1="20.053" x2="29.5652" y2="39.3836" gradientUnits="userSpaceOnUse">
            <stop stop-color="#0A33C1"/>
            <stop offset="1" stop-color="#0A33C1" stop-opacity="0"/>
        </linearGradient>
    </defs>
</svg>
