<svg width="59" height="58" viewBox="0 0 59 58" fill="none" xmlns="http://www.w3.org/2000/svg">
    <rect x="0.5" width="58" height="58" rx="8" fill="#F7F9FC"/>
    <path d="M28.0183 39.3314C30.0562 39.3314 32.0483 38.7271 33.7428 37.5949C35.4373 36.4627 36.7579 34.8535 37.5378 32.9707C38.3177 31.0879 38.5217 29.0161 38.1242 27.0173C37.7266 25.0186 36.7452 23.1826 35.3042 21.7416C33.8632 20.3006 32.0272 19.3192 30.0284 18.9216C28.0297 18.524 25.9579 18.7281 24.0751 19.508C22.1923 20.2879 20.5831 21.6085 19.4509 23.303C18.3187 24.9975 17.7144 26.9896 17.7144 29.0275C17.7185 31.759 18.8054 34.3775 20.7368 36.3089C22.6683 38.2404 25.2868 39.3273 28.0183 39.3314ZM26.8734 25.5929C26.8734 25.2893 26.994 24.9981 27.2087 24.7833C27.4234 24.5686 27.7146 24.448 28.0183 24.448C28.3219 24.448 28.6131 24.5686 28.8278 24.7833C29.0425 24.9981 29.1631 25.2893 29.1631 25.5929V28.5467L31.2583 30.6418C31.4724 30.8577 31.5923 31.1496 31.5916 31.4537C31.591 31.7578 31.47 32.0492 31.2549 32.2642C31.0399 32.4792 30.7485 32.6003 30.4444 32.6009C30.1403 32.6015 29.8484 32.4817 29.6325 32.2675L27.2054 29.8404C26.9953 29.6215 26.8766 29.3309 26.8734 29.0275V25.5929Z" fill="#305DFC"/>
    <path d="M28.0172 13C27.7135 13 27.4223 13.1206 27.2076 13.3354C26.9929 13.5501 26.8723 13.8413 26.8723 14.1449C26.8723 14.4485 26.9929 14.7397 27.2076 14.9545C27.4223 15.1692 27.7135 15.2898 28.0172 15.2898C31.2222 15.2765 34.3318 16.3796 36.812 18.4096C39.2922 20.4395 40.9883 23.2697 41.6089 26.4141C42.2295 29.5585 41.7359 32.8208 40.2129 35.6409C38.69 38.461 36.2326 40.6628 33.2629 41.8682C30.2932 43.0737 26.9965 43.2075 23.9388 42.2468C20.8812 41.2861 18.2534 39.2907 16.5068 36.6034C14.7603 33.916 14.0039 30.7044 14.3675 27.5201C14.7312 24.3358 16.1922 21.3774 18.4997 19.1531L18.4221 19.7452C18.3826 20.0463 18.4644 20.3508 18.6494 20.5916C18.8344 20.8324 19.1075 20.9899 19.4086 21.0294C19.7097 21.0689 20.0142 20.9871 20.255 20.8021C20.4959 20.6171 20.6534 20.344 20.6928 20.0429L21.1384 16.6373C21.1657 16.3384 21.0792 16.0401 20.8961 15.8022C20.7131 15.5643 20.4471 15.4041 20.1512 15.3538L16.7456 14.9085C16.5945 14.8845 16.4401 14.891 16.2915 14.9277C16.1429 14.9643 16.0032 15.0304 15.8806 15.122C15.758 15.2136 15.655 15.3289 15.5777 15.4609C15.5004 15.593 15.4504 15.7392 15.4306 15.891C15.4108 16.0427 15.4216 16.1969 15.4624 16.3444C15.5032 16.4919 15.5731 16.6297 15.6681 16.7497C15.7631 16.8697 15.8812 16.9695 16.0153 17.0431C16.1495 17.1166 16.2971 17.1626 16.4493 17.1781L17.1623 17.2716C14.4291 19.8077 12.6675 23.2188 12.1818 26.9156C11.6961 30.6124 12.5167 34.3627 14.5018 37.5189C16.487 40.675 19.5122 43.0387 23.0547 44.2017C26.5972 45.3647 30.4347 45.254 33.9043 43.8887C37.3739 42.5234 40.2577 39.9892 42.0577 36.7238C43.8576 33.4585 44.4606 29.6671 43.7625 26.0044C43.0645 22.3418 41.1091 19.038 38.2343 16.6636C35.3595 14.2892 31.7457 12.9934 28.0172 13Z" fill="#64666F"/>
</svg>
