<svg width="59" height="58" fill="none" xmlns="http://www.w3.org/2000/svg"><rect x=".5" width="58" height="58" rx="8" fill="#F7F9FC"/><path fill-rule="evenodd" clip-rule="evenodd" d="M30.16 19.294a9.346 9.346 0 0 1 6.63 2.746 9.346 9.346 0 0 1 2.746 6.63 9.346 9.346 0 0 1-2.746 6.628 9.346 9.346 0 0 1-6.63 2.746 9.345 9.345 0 0 1-6.628-2.745 9.346 9.346 0 0 1-2.746-6.63 9.346 9.346 0 0 1 2.746-6.629 9.345 9.345 0 0 1 6.629-2.745Z" fill="#092DAA"/><path fill-rule="evenodd" clip-rule="evenodd" d="M30.16 21.73c1.917 0 3.652.776 4.908 2.032a6.919 6.919 0 0 1 2.033 4.907 6.918 6.918 0 0 1-2.033 4.908 6.918 6.918 0 0 1-4.907 2.032 6.918 6.918 0 0 1-4.908-2.032 6.918 6.918 0 0 1-2.032-4.908c0-1.916.776-3.651 2.032-4.907a6.919 6.919 0 0 1 4.908-2.033Z" fill="#305DFC"/><path d="M24.635 28.087v-1.278h1.524c.322-1.06.893-1.91 1.715-2.555a4.412 4.412 0 0 1 2.798-.965c1.553 0 2.784.57 3.692 1.708l-1.04 1.337c-.43-.465-.838-.792-1.223-.98-.386-.188-.863-.282-1.429-.282-.567 0-1.078.15-1.53.452-.455.302-.795.731-1.02 1.285h3.488v1.278h-3.796c-.01.118-.015.3-.015.542 0 .242.015.472.045.69h3.765v1.278h-3.37c.528 1.03 1.324 1.545 2.39 1.545.526 0 .978-.102 1.354-.305.377-.203.775-.522 1.195-.958l1.04 1.277c-.91 1.14-2.105 1.709-3.59 1.709-1.016 0-1.917-.295-2.703-.884-.787-.59-1.351-1.384-1.694-2.384h-1.596v-1.278h1.319a5.716 5.716 0 0 1-.045-.712c0-.238.005-.411.015-.52h-1.29Z" fill="#fff"/><path d="M40.075 42.55H20.52l1.516 1.515L21.1 45l-2.644-2.644-.467-.467.467-.467 2.644-2.644.935.934-1.516 1.516h19.555v1.322ZM18.924 15.45H38.48l-1.516-1.515.934-.935 2.644 2.644.468.467-.468.467-2.644 2.644-.934-.934 1.516-1.516H18.924V15.45Z" fill="#305DFC"/></svg>