<svg width="59" height="58" fill="none" xmlns="http://www.w3.org/2000/svg"><rect x=".5" width="58" height="58" rx="8" fill="#F7F9FC"/><path d="M17.233 19.914c1.767 0 3.2-1.436 3.2-3.207a3.203 3.203 0 0 0-3.2-3.207 3.203 3.203 0 0 0-3.2 3.207 3.203 3.203 0 0 0 3.2 3.207ZM32.167 19.914c1.767 0 3.2-1.436 3.2-3.207a3.203 3.203 0 0 0-3.2-3.207 3.203 3.203 0 0 0-3.2 3.207 3.203 3.203 0 0 0 3.2 3.207Z" fill="#0A33C1"/><path d="M19.9 16.172h8v1.07h-8v-1.07ZM29.5 40.759h8v1.069h-8v-1.07ZM38.834 29.534h-9.867v-1.069h9.867c3.087 0 5.6-2.517 5.6-5.612 0-3.094-2.512-5.612-5.6-5.612h-4v-1.069h4c3.675 0 6.666 2.997 6.666 6.681s-2.99 6.681-6.666 6.681ZM22.567 41.827h-2.4c-3.676 0-6.667-2.997-6.667-6.68 0-3.684 2.99-6.681 6.667-6.681h1.866v1.068h-1.866c-3.088 0-5.6 2.518-5.6 5.613 0 3.094 2.512 5.611 5.6 5.611h2.4v1.07Z" fill="#9CB8F8"/><path d="M26.833 44.5c1.768 0 3.2-1.436 3.2-3.207a3.203 3.203 0 0 0-3.2-3.207 3.203 3.203 0 0 0-3.2 3.207 3.203 3.203 0 0 0 3.2 3.207Z" fill="#0A33C1"/><path d="M41.767 44.5c1.767 0 3.2-1.436 3.2-3.207a3.203 3.203 0 0 0-3.2-3.207 3.203 3.203 0 0 0-3.2 3.207 3.203 3.203 0 0 0 3.2 3.207Z" fill="#305DFC"/><path d="M24.7 32.207c1.767 0 3.2-1.436 3.2-3.207a3.203 3.203 0 0 0-3.2-3.207A3.203 3.203 0 0 0 21.5 29a3.203 3.203 0 0 0 3.2 3.207Z" fill="#0A33C1"/><path d="M18.897 13.971a3.203 3.203 0 0 1-2.73 4.874c-.61 0-1.179-.174-1.664-.471a3.193 3.193 0 0 0 2.73 1.54c1.768 0 3.2-1.436 3.2-3.207 0-1.16-.616-2.173-1.536-2.736ZM33.83 13.971a3.203 3.203 0 0 1-2.73 4.874c-.61 0-1.178-.174-1.663-.471a3.193 3.193 0 0 0 2.73 1.54c1.767 0 3.2-1.436 3.2-3.207 0-1.16-.617-2.173-1.537-2.736ZM28.497 38.557a3.203 3.203 0 0 1-2.73 4.874c-.61 0-1.178-.174-1.663-.471a3.193 3.193 0 0 0 2.73 1.54c1.767 0 3.2-1.436 3.2-3.207 0-1.16-.617-2.173-1.537-2.736Z" fill="#092DAA"/><path d="M43.43 38.557a3.203 3.203 0 0 1-2.73 4.874c-.61 0-1.178-.174-1.663-.471a3.193 3.193 0 0 0 2.73 1.54c1.767 0 3.2-1.436 3.2-3.207 0-1.16-.616-2.173-1.537-2.736Z" fill="#1C45D3"/><path d="M26.363 26.264a3.203 3.203 0 0 1-2.73 4.874c-.61 0-1.178-.174-1.663-.471a3.193 3.193 0 0 0 2.73 1.54c1.768 0 3.2-1.436 3.2-3.207 0-1.16-.616-2.173-1.537-2.736Z" fill="#092DAA"/><path d="m26.677 18.688-.754-.756 1.223-1.225-1.223-1.226.754-.755 1.977 1.98-1.977 1.982ZM30.19 30.981 28.211 29l1.977-1.981.755.755L29.72 29l1.223 1.226-.755.755ZM36.277 43.274l-.754-.755 1.223-1.226-1.223-1.225.754-.756 1.977 1.981-1.977 1.981ZM21.344 43.274l-.754-.755 1.223-1.226-1.223-1.225.754-.756 1.977 1.981-1.977 1.981Z" fill="#6892FF"/></svg>