<svg width="59" height="58" fill="none" xmlns="http://www.w3.org/2000/svg"><rect x=".5" width="58" height="58" rx="8" fill="#F7F9FC"/><path d="M28.018 39.331a10.304 10.304 0 1 0-10.304-10.304 10.32 10.32 0 0 0 10.304 10.304Zm-1.145-13.738a1.145 1.145 0 0 1 2.29 0v2.954l2.095 2.095a1.15 1.15 0 0 1-1.625 1.625l-2.428-2.427a1.192 1.192 0 0 1-.332-.813v-3.434Z" fill="#305DFC"/><path d="M28.017 13a1.145 1.145 0 1 0 0 2.29 13.795 13.795 0 1 1-9.517 3.863l-.078.592a1.145 1.145 0 1 0 2.27.298l.446-3.406a1.192 1.192 0 0 0-.987-1.283l-3.405-.445a1.145 1.145 0 1 0-.297 2.27l.713.093A16 16 0 1 0 28.017 13Z" fill="#64666F"/></svg>