<svg xmlns="http://www.w3.org/2000/svg" width="251" height="250" fill="none" viewBox="0 0 251 250"><g filter="url(#filter0_d_757_13623)"><path fill="url(#paint0_linear_757_13623)" fill-rule="evenodd" d="M125.344 242C192.17 242 246.344 187.826 246.344 121C246.344 54.1735 192.17 0 125.344 0C58.5173 0 4.34375 54.1735 4.34375 121C4.34375 187.826 58.5173 242 125.344 242Z" clip-rule="evenodd"/></g><g clip-path="url(#clip0_757_13623)"><path fill="#F6F6DC" d="M215.344 126.201C215.344 171.257 178.813 207.78 133.751 207.78C88.6894 207.78 52.1611 171.257 52.1611 126.201C52.1611 81.1447 88.6894 44.6191 133.751 44.6191C178.813 44.6191 215.344 81.1447 215.344 126.201Z"/><path fill="#fff" d="M182.579 106.954C182.579 116.206 175.076 123.706 165.821 123.706C156.567 123.706 149.064 116.206 149.064 106.954C149.064 97.6989 156.567 90.1958 165.821 90.1958C175.076 90.1958 182.579 97.6989 182.579 106.954Z"/><path fill="#fff" d="M119.206 106.954C119.206 116.206 111.703 123.706 102.448 123.706C93.1932 123.706 85.6902 116.206 85.6902 106.954C85.6902 97.6989 93.1932 90.1958 102.448 90.1958C111.703 90.1958 119.206 97.6989 119.206 106.954Z"/><path fill="url(#paint1_linear_757_13623)" d="M155.623 120.126C144.139 120.126 134.798 110.785 134.798 99.304C134.798 87.823 144.139 78.4814 155.623 78.4814C167.104 78.4814 176.448 87.823 176.448 99.304C176.448 110.785 167.104 120.126 155.623 120.126ZM155.623 86.6136C148.624 86.6136 142.933 92.3053 142.933 99.304C142.933 106.3 148.624 111.992 155.623 111.992C162.622 111.992 168.313 106.3 168.313 99.304C168.313 92.3053 162.622 86.6136 155.623 86.6136Z"/><path fill="url(#paint2_linear_757_13623)" d="M92.2498 120.126C80.7661 120.126 71.4218 110.785 71.4218 99.304C71.4218 87.823 80.7661 78.4814 92.2498 78.4814C103.731 78.4814 113.075 87.823 113.075 99.304C113.075 110.785 103.731 120.126 92.2498 120.126ZM92.2498 86.6136C85.2511 86.6136 79.5567 92.3053 79.5567 99.304C79.5567 106.3 85.2511 111.992 92.2498 111.992C99.2458 111.992 104.94 106.3 104.94 99.304C104.94 92.3053 99.2458 86.6136 92.2498 86.6136Z"/><path fill="url(#paint3_linear_757_13623)" d="M102.519 169.391C102.049 169.391 101.575 169.313 101.111 169.142C99.0043 168.364 97.9251 166.026 98.7006 163.919C103.153 151.839 110.355 143.696 120.114 139.71C137.146 132.757 155.498 141.28 156.274 141.646C158.302 142.609 159.17 145.033 158.207 147.064C157.247 149.092 154.82 149.957 152.797 149C152.534 148.878 136.772 141.662 123.146 147.259C115.61 150.35 109.957 156.904 106.334 166.731C105.729 168.375 104.173 169.391 102.519 169.391Z"/><path fill="url(#paint4_linear_757_13623)" d="M163.094 98.2954C163.094 102.976 159.297 106.775 154.614 106.775C149.929 106.775 146.132 102.976 146.132 98.2954C146.132 93.6125 149.929 89.8135 154.614 89.8135C159.297 89.8135 163.094 93.6125 163.094 98.2954Z"/><path fill="url(#paint5_linear_757_13623)" d="M99.7175 98.2954C99.7175 102.976 95.9213 106.775 91.2383 106.775C86.5553 106.775 82.7591 102.976 82.7591 98.2954C82.7591 93.6125 86.5553 89.8135 91.2383 89.8135C95.9213 89.8135 99.7175 93.6125 99.7175 98.2954Z"/><path fill="url(#paint6_linear_757_13623)" d="M121.004 201.643C73.7728 201.643 35.3437 163.22 35.3437 115.991C35.3437 68.7659 73.7728 30.3423 121.004 30.3423C168.235 30.3423 206.661 68.7659 206.661 115.991C206.661 163.22 168.235 201.643 121.004 201.643ZM121.004 38.4771C78.2551 38.4771 43.4786 73.2509 43.4786 115.991C43.4786 158.735 78.2551 193.506 121.004 193.506C163.75 193.506 198.526 158.735 198.526 115.991C198.526 73.2509 163.75 38.4771 121.004 38.4771Z"/></g><defs><filter id="filter0_d_757_13623" width="250" height="250" x=".344" y="0" color-interpolation-filters="sRGB" filterUnits="userSpaceOnUse"><feFlood flood-opacity="0" result="BackgroundImageFix"/><feColorMatrix in="SourceAlpha" result="hardAlpha" type="matrix" values="0 0 0 0 0 0 0 0 0 0 0 0 0 0 0 0 0 0 127 0"/><feOffset dy="4"/><feGaussianBlur stdDeviation="2"/><feColorMatrix type="matrix" values="0 0 0 0 1 0 0 0 0 1 0 0 0 0 1 0 0 0 0.1 0"/><feBlend in2="BackgroundImageFix" mode="normal" result="effect1_dropShadow_757_13623"/><feBlend in="SourceGraphic" in2="effect1_dropShadow_757_13623" mode="normal" result="shape"/></filter><linearGradient id="paint0_linear_757_13623" x1="234.304" x2="17.187" y1="44.77" y2="147.988" gradientUnits="userSpaceOnUse"><stop stop-color="#fff" stop-opacity=".404"/><stop offset=".119" stop-color="#F6F6DC"/><stop offset=".206" stop-color="#FFFFEA"/><stop offset=".765" stop-color="#fff" stop-opacity=".282"/><stop offset="1" stop-color="#F6F6DC"/></linearGradient><linearGradient id="paint1_linear_757_13623" x1="155.479" x2="141.526" y1="116.726" y2="82.786" gradientUnits="userSpaceOnUse"><stop stop-color="#9BAC05"/><stop offset="1" stop-color="#C9DA24"/></linearGradient><linearGradient id="paint2_linear_757_13623" x1="92.104" x2="78.152" y1="116.726" y2="82.785" gradientUnits="userSpaceOnUse"><stop stop-color="#9BAC05"/><stop offset="1" stop-color="#C9DA24"/></linearGradient><linearGradient id="paint3_linear_757_13623" x1="128.316" x2="121.799" y1="166.746" y2="137.319" gradientUnits="userSpaceOnUse"><stop stop-color="#9BAC05"/><stop offset="1" stop-color="#C9DA24"/></linearGradient><linearGradient id="paint4_linear_757_13623" x1="154.554" x2="148.871" y1="105.39" y2="91.567" gradientUnits="userSpaceOnUse"><stop stop-color="#9BAC05"/><stop offset="1" stop-color="#C9DA24"/></linearGradient><linearGradient id="paint5_linear_757_13623" x1="91.18" x2="85.496" y1="105.39" y2="91.568" gradientUnits="userSpaceOnUse"><stop stop-color="#9BAC05"/><stop offset="1" stop-color="#C9DA24"/></linearGradient><linearGradient id="paint6_linear_757_13623" x1="120.408" x2="63.015" y1="187.658" y2="48.05" gradientUnits="userSpaceOnUse"><stop stop-color="#9BAC05"/><stop offset="1" stop-color="#C9DA24"/></linearGradient><clipPath id="clip0_757_13623"><rect width="180" height="180" fill="#fff" transform="translate(35.3437 30.3423)"/></clipPath></defs></svg>