<?xml version="1.0" encoding="UTF-8" standalone="no"?>
<!DOCTYPE svg PUBLIC "-//W3C//DTD SVG 1.1//EN" "http://www.w3.org/Graphics/SVG/1.1/DTD/svg11.dtd">
<svg width="100%" height="100%" viewBox="0 0 1081 284" version="1.1" xmlns="http://www.w3.org/2000/svg" xmlns:xlink="http://www.w3.org/1999/xlink" xml:space="preserve" style="fill-rule:evenodd;clip-rule:evenodd;stroke-linejoin:round;stroke-miterlimit:1.41421;">
    <g transform="matrix(1,0,0,1,-626.258,-437.502)">
        <rect x="626.258" y="494.155" width="339.515" height="170" style="fill:rgb(0,155,180);fill-rule:nonzero;"/>
        <path d="M683.139,437.502L909.91,437.502L853.217,550.888L766.772,550.888L796.526,494.194L683.139,494.194L683.139,437.502Z" style="fill:rgb(223,222,64);fill-rule:nonzero;"/>
        <path d="M909.74,720.807L682.969,720.807L739.66,607.422L826.105,607.422L796.353,664.116L909.74,664.116L909.74,720.807Z" style="fill:rgb(223,222,64);fill-rule:nonzero;"/>
        <path d="M1103.08,552.648C1096.79,560.731 1087.03,564.197 1077.02,564.197C1049.94,564.197 1033.26,543.152 1033.26,517.099C1033.26,482.191 1057.77,468.203 1078.43,468.203C1101.79,468.203 1116.55,480.907 1120.66,502.467L1093.58,502.467C1092.55,495.795 1086.9,491.047 1080.23,491.047C1060.85,491.047 1061.49,511.454 1061.49,517.739C1061.49,526.34 1064.96,541.354 1082.16,541.354C1088.7,541.354 1095.38,538.019 1096.79,531.213L1084.34,531.213L1084.34,511.582L1121.81,511.582L1121.81,562.017L1103.97,562.017L1103.08,552.648Z" style="fill:rgb(8,63,73);fill-rule:nonzero;"/>
        <path d="M1181.23,521.206C1181.23,515.047 1176.61,510.04 1170.07,510.04C1162.49,510.04 1158.13,514.019 1156.98,521.206L1181.23,521.206ZM1156.85,534.425C1157.49,541.993 1161.85,547.387 1169.81,547.387C1173.92,547.387 1178.41,545.847 1180.46,542.637L1204.2,542.637C1199.07,557.01 1185.08,563.686 1169.94,563.686C1148.63,563.686 1132.59,551.105 1132.59,528.903C1132.59,509.526 1146.71,493.742 1167.76,493.742C1194.19,493.742 1205.62,508.5 1205.62,534.425L1156.85,534.425Z" style="fill:rgb(8,63,73);fill-rule:nonzero;"/>
        <path d="M1216.14,495.41L1240.65,495.41L1240.65,504.268L1240.91,504.268C1246.04,496.565 1253.49,493.743 1262.72,493.743C1269.91,493.743 1277.61,497.463 1280.69,504.137C1281.72,503.366 1286.85,493.743 1303.41,493.743C1320.48,493.743 1326.25,505.55 1326.25,516.33L1326.25,562.017L1300.84,562.017L1300.84,525.955C1300.84,519.667 1300.2,514.02 1292.5,514.02C1286.08,514.02 1283.9,519.023 1283.9,525.955L1283.9,562.017L1258.49,562.017L1258.49,525.955C1258.49,519.667 1257.85,514.02 1250.15,514.02C1243.73,514.02 1241.55,519.023 1241.55,525.955L1241.55,562.017L1216.14,562.017L1216.14,495.41Z" style="fill:rgb(8,63,73);fill-rule:nonzero;"/>
        <path d="M1385.67,521.206C1385.67,515.047 1381.05,510.04 1374.5,510.04C1366.93,510.04 1362.57,514.019 1361.41,521.206L1385.67,521.206ZM1361.29,534.425C1361.93,541.993 1366.29,547.387 1374.25,547.387C1378.36,547.387 1382.85,545.847 1384.9,542.637L1408.64,542.637C1403.51,557.01 1389.52,563.686 1374.38,563.686C1353.07,563.686 1337.03,551.105 1337.03,528.903C1337.03,509.526 1351.15,493.742 1372.19,493.742C1398.63,493.742 1410.05,508.5 1410.05,534.425L1361.29,534.425Z" style="fill:rgb(8,63,73);fill-rule:nonzero;"/>
        <path d="M1466.52,521.206C1466.52,515.047 1461.9,510.04 1455.36,510.04C1447.79,510.04 1443.42,514.019 1442.27,521.206L1466.52,521.206ZM1442.13,534.425C1442.78,541.993 1447.14,547.387 1455.1,547.387C1459.21,547.387 1463.7,545.847 1465.75,542.637L1489.49,542.637C1484.36,557.01 1470.37,563.686 1455.23,563.686C1433.92,563.686 1417.88,551.105 1417.88,528.903C1417.88,509.526 1432,493.742 1453.05,493.742C1479.48,493.742 1490.91,508.5 1490.91,534.425L1442.13,534.425Z" style="fill:rgb(8,63,73);fill-rule:nonzero;"/>
        <path d="M1501.55,495.41L1526.07,495.41L1526.07,503.882L1526.33,503.882C1531.08,497.208 1537.88,493.743 1548.01,493.743C1559.95,493.743 1570.86,501.056 1570.86,516.33L1570.86,562.017L1545.45,562.017L1545.45,527.112C1545.45,519.409 1544.55,514.02 1537.11,514.02C1532.74,514.02 1526.97,516.201 1526.97,526.853L1526.97,562.017L1501.55,562.017L1501.55,495.41Z" style="fill:rgb(8,63,73);fill-rule:nonzero;"/>
        <path d="M1615.26,495.41L1628.87,495.41L1628.87,511.067L1615.26,511.067L1615.26,534.298C1615.26,540.455 1616.67,543.153 1623.09,543.153C1625.01,543.153 1626.94,543.023 1628.87,542.765L1628.87,562.017C1623.73,562.017 1617.95,562.786 1612.57,562.786C1601.79,562.786 1589.85,561.117 1589.85,542.896L1589.85,511.067L1578.56,511.067L1578.56,495.41L1589.85,495.41L1589.85,475.134L1615.26,475.134L1615.26,495.41Z" style="fill:rgb(8,63,73);fill-rule:nonzero;"/>
        <path d="M1682.77,521.206C1682.77,515.047 1678.15,510.04 1671.6,510.04C1664.03,510.04 1659.67,514.019 1658.51,521.206L1682.77,521.206ZM1658.38,534.425C1659.03,541.993 1663.38,547.387 1671.35,547.387C1675.45,547.387 1679.94,545.847 1682,542.637L1705.74,542.637C1700.6,557.01 1686.62,563.686 1671.47,563.686C1650.17,563.686 1634.13,551.105 1634.13,528.903C1634.13,509.526 1648.24,493.742 1669.29,493.742C1695.73,493.742 1707.15,508.5 1707.15,534.425L1658.38,534.425Z" style="fill:rgb(8,63,73);fill-rule:nonzero;"/>
        <path d="M1072.29,666.366L1114.89,620.291L1074.72,620.291L1074.72,596.807L1152.11,596.807L1152.11,617.34L1109.12,664.953L1154.16,664.953L1154.16,688.438L1072.29,688.438L1072.29,666.366Z" style="fill:rgb(8,63,73);fill-rule:nonzero;"/>
        <path d="M1233.35,688.439L1208.84,688.439L1208.84,679.967L1208.58,679.967C1203.83,686.639 1197.03,690.107 1186.89,690.107C1174.95,690.107 1164.05,682.791 1164.05,667.519L1164.05,621.832L1189.46,621.832L1189.46,656.74C1189.46,664.437 1190.36,669.831 1197.8,669.831C1202.16,669.831 1207.94,667.646 1207.94,656.996L1207.94,621.832L1233.35,621.832L1233.35,688.439Z" style="fill:rgb(8,63,73);fill-rule:nonzero;"/>
        <path d="M1247.72,621.831L1273.13,621.831L1273.13,688.438L1247.72,688.438L1247.72,621.831ZM1273.13,614.646L1247.72,614.646L1247.72,596.807L1273.13,596.807L1273.13,614.646Z" style="fill:rgb(8,63,73);fill-rule:nonzero;"/>
        <path d="M1321.26,638.644C1312.14,638.644 1310.09,647.242 1310.09,655.072C1310.09,663.028 1312.14,671.627 1321.26,671.627C1330.37,671.627 1332.42,663.028 1332.42,655.072C1332.42,647.242 1330.37,638.644 1321.26,638.644M1356.93,688.439L1332.42,688.439L1332.42,681.122L1332.16,681.122C1328.96,685.359 1325.11,690.107 1312.66,690.107C1293.79,690.107 1284.68,671.498 1284.68,654.814C1284.68,639.159 1290.71,620.163 1313.04,620.163C1320.61,620.163 1327.41,623.499 1331.27,629.144L1331.52,629.144L1331.52,596.808L1356.93,596.808L1356.93,688.439Z" style="fill:rgb(8,63,73);fill-rule:nonzero;"/>
        <path d="M1370.79,596.807L1396.2,596.807L1396.2,629.018L1396.46,629.018C1400.82,623.885 1406.47,620.162 1417.25,620.162C1429.19,620.162 1440.09,627.475 1440.09,642.749L1440.09,688.438L1414.68,688.438L1414.68,653.529C1414.68,645.83 1413.78,640.44 1406.34,640.44C1401.98,640.44 1396.2,642.622 1396.2,653.274L1396.2,688.438L1370.79,688.438L1370.79,596.807Z" style="fill:rgb(8,63,73);fill-rule:nonzero;"/>
        <path d="M1487.45,638.644C1477.82,638.644 1476.54,648.012 1476.54,655.072C1476.54,662.127 1477.82,671.627 1487.45,671.627C1497.08,671.627 1498.36,662.127 1498.36,655.072C1498.36,648.012 1497.08,638.644 1487.45,638.644M1487.45,690.107C1462.42,690.107 1451.13,673.553 1451.13,655.072C1451.13,636.592 1462.42,620.163 1487.45,620.163C1512.48,620.163 1523.77,636.592 1523.77,655.072C1523.77,673.553 1512.48,690.107 1487.45,690.107" style="fill:rgb(8,63,73);fill-rule:nonzero;"/>
        <path d="M1534.81,621.831L1559.19,621.831L1559.19,632.482L1559.45,632.482C1563.55,624.526 1568.94,620.162 1578.18,620.162C1580.75,620.162 1583.19,620.548 1585.63,621.189L1585.63,643.647C1583.06,642.749 1580.75,641.978 1575.62,641.978C1565.61,641.978 1560.22,647.885 1560.22,662.127L1560.22,688.438L1534.81,688.438L1534.81,621.831Z" style="fill:rgb(8,63,73);fill-rule:nonzero;"/>
        <path d="M1594.07,621.831L1618.59,621.831L1618.59,630.302L1618.84,630.302C1623.59,623.626 1630.39,620.162 1640.53,620.162C1652.47,620.162 1663.38,627.476 1663.38,642.749L1663.38,688.438L1637.96,688.438L1637.96,653.529C1637.96,645.83 1637.06,640.44 1629.62,640.44C1625.26,640.44 1619.48,642.622 1619.48,653.274L1619.48,688.438L1594.07,688.438L1594.07,621.831Z" style="fill:rgb(8,63,73);fill-rule:nonzero;"/>
    </g>
</svg>
